<?xml version="1.0" encoding="utf-8"?>
<!-- Generator: Adobe Illustrator 20.1.0, SVG Export Plug-In . SVG Version: 6.00 Build 0)  -->
<svg version="1.1" id="Слой_1" xmlns="http://www.w3.org/2000/svg" xmlns:xlink="http://www.w3.org/1999/xlink" x="0px" y="0px"
	 viewBox="0 0 278 143" style="enable-background:new 0 0 278 143;" xml:space="preserve">
<style type="text/css">
	.st1{fill:#E63B23;}
	.st0{fill:#FFFFFF;}
</style>
<g>
	
		<image style="overflow:visible;opacity:0.75;" width="1207" height="646" xlink:href="img/svg/C0505542C6E546EF.png"  transform="matrix(0.24 0 0 0.24 -4.8474 -4.6103)">
	</image>
	<g>
		<g>
			<polygon class="st1" points="271.8,33.5 0.2,33.5 6,0.4 277.6,0.4 			"/>
			<g>
				<path class="st0" d="M26.4,13h-5.2l-1.5,12h-3.2l1.8-14.4h8.4L26.4,13z"/>
				<path class="st0" d="M37.9,25h-2.5c-0.3,0-0.5-0.1-0.7-0.2c-0.2-0.1-0.3-0.3-0.3-0.5l-0.4-2.6H29L28,24.3
					c-0.1,0.2-0.2,0.3-0.4,0.5c-0.2,0.1-0.4,0.2-0.7,0.2h-2.5l6.9-14.4h3.3L37.9,25z M29.9,19.5h3.6l-0.7-4.1
					c-0.1-0.3-0.1-0.6-0.2-0.9c-0.1-0.3-0.1-0.7-0.2-1.1c-0.2,0.4-0.3,0.8-0.5,1.1c-0.2,0.4-0.3,0.7-0.4,0.9L29.9,19.5z"/>
				<path class="st0" d="M43.6,20.2L43,25h-3.2l1.8-14.4h4.8c0.9,0,1.6,0.1,2.2,0.3c0.6,0.2,1.1,0.5,1.5,0.9
					c0.4,0.4,0.7,0.8,0.9,1.3c0.2,0.5,0.3,1,0.3,1.6c0,0.8-0.1,1.5-0.4,2.2c-0.2,0.7-0.6,1.2-1.1,1.7c-0.5,0.5-1.1,0.9-1.9,1.1
					c-0.8,0.3-1.7,0.4-2.7,0.4H43.6z M44.5,13l-0.6,4.7h1.6c0.5,0,0.9-0.1,1.2-0.2c0.3-0.1,0.6-0.3,0.8-0.6c0.2-0.2,0.3-0.5,0.4-0.9
					c0.1-0.3,0.1-0.7,0.1-1.1c0-0.3,0-0.5-0.1-0.8c-0.1-0.2-0.2-0.4-0.4-0.6c-0.2-0.2-0.4-0.3-0.6-0.4c-0.2-0.1-0.5-0.1-0.9-0.1
					H44.5z"/>
				<path class="st0" d="M63.7,25h-2.5c-0.3,0-0.5-0.1-0.7-0.2c-0.2-0.1-0.3-0.3-0.3-0.5l-0.4-2.6h-4.9l-1.1,2.6
					c-0.1,0.2-0.2,0.3-0.4,0.5c-0.2,0.1-0.4,0.2-0.7,0.2h-2.5L57,10.6h3.3L63.7,25z M55.7,19.5h3.6l-0.7-4.1
					c-0.1-0.3-0.1-0.6-0.2-0.9c-0.1-0.3-0.1-0.7-0.2-1.1c-0.2,0.4-0.3,0.8-0.5,1.1c-0.2,0.4-0.3,0.7-0.4,0.9L55.7,19.5z"/>
				<path class="st0" d="M77.4,25h-3.3l0.8-6.1h-5.2L68.9,25h-3.3l1.8-14.4h3.3l-0.8,6.1h5.2l0.8-6.1h3.3L77.4,25z"/>
				<path class="st0" d="M92.2,10.6l-0.3,2.5h-3.7L86.7,25h-3.2L85,13.2h-3.7l0.3-2.5H92.2z"/>
				<path class="st0" d="M102.4,11.6c0.1-0.1,0.2-0.2,0.3-0.3c0.1-0.1,0.2-0.2,0.4-0.3c0.1-0.1,0.3-0.2,0.4-0.2
					c0.1-0.1,0.3-0.1,0.5-0.1h2.4L104.6,25h-3.2l1-8c0.1-0.4,0.1-0.7,0.2-1.1c0.1-0.4,0.2-0.8,0.3-1.3c-0.2,0.4-0.4,0.8-0.6,1.1
					c-0.2,0.3-0.4,0.6-0.6,0.9L96.8,24c-0.1,0.1-0.2,0.2-0.3,0.3c-0.1,0.1-0.2,0.2-0.4,0.3c-0.1,0.1-0.3,0.2-0.4,0.2
					C95.6,25,95.5,25,95.3,25h-2.4l1.8-14.4h3.2l-1,7.9c-0.1,0.4-0.1,0.8-0.2,1.2c-0.1,0.4-0.2,0.8-0.3,1.3c0.2-0.4,0.4-0.8,0.6-1.1
					c0.2-0.4,0.4-0.7,0.6-0.9L102.4,11.6z"/>
				<path class="st0" d="M114.9,25l0.7-5.8h-1c-0.1,0-0.3,0-0.4,0.1c-0.1,0-0.2,0.1-0.4,0.2c-0.1,0.1-0.2,0.2-0.3,0.3
					c-0.1,0.1-0.2,0.3-0.3,0.5l-2.2,3.7c-0.2,0.3-0.5,0.6-0.9,0.8c-0.4,0.2-0.8,0.3-1.2,0.3h-2.4l3.2-4.9c0.5-0.7,1.1-1.2,1.8-1.5
					c-0.4-0.1-0.7-0.3-1-0.5c-0.3-0.2-0.5-0.5-0.7-0.7c-0.2-0.3-0.3-0.6-0.4-0.9c-0.1-0.3-0.1-0.7-0.1-1c0-0.7,0.1-1.3,0.4-1.9
					c0.3-0.6,0.6-1.1,1.1-1.5c0.5-0.4,1.1-0.8,1.8-1c0.7-0.2,1.5-0.4,2.4-0.4h5L118.2,25H114.9z M112.4,15.3c0,0.2,0,0.4,0.1,0.6
					c0.1,0.2,0.1,0.3,0.3,0.5c0.1,0.1,0.3,0.2,0.5,0.3c0.2,0.1,0.5,0.1,0.8,0.1h1.8l0.5-3.7h-1.8c-0.4,0-0.7,0.1-1,0.2
					c-0.3,0.1-0.5,0.3-0.7,0.4c-0.2,0.2-0.3,0.4-0.4,0.7C112.5,14.7,112.4,15,112.4,15.3z"/>
				<path class="st0" d="M137.8,25h-3.3l1.5-12h-4.8l-1.5,12h-3.2l1.8-14.4h11.3L137.8,25z"/>
				<path class="st0" d="M155.4,16.9c0,0.8-0.1,1.5-0.3,2.2c-0.2,0.7-0.4,1.4-0.8,2c-0.3,0.6-0.7,1.2-1.2,1.7s-1,0.9-1.6,1.3
					c-0.6,0.4-1.2,0.6-1.9,0.8c-0.7,0.2-1.4,0.3-2.2,0.3c-1,0-1.8-0.2-2.6-0.5c-0.8-0.3-1.4-0.8-1.9-1.4c-0.5-0.6-0.9-1.3-1.2-2
					c-0.3-0.8-0.4-1.6-0.4-2.5c0-0.8,0.1-1.5,0.3-2.2c0.2-0.7,0.4-1.4,0.8-2c0.3-0.6,0.7-1.2,1.2-1.7c0.5-0.5,1-0.9,1.6-1.3
					c0.6-0.4,1.2-0.6,1.9-0.8c0.7-0.2,1.4-0.3,2.2-0.3c0.9,0,1.8,0.2,2.6,0.5c0.8,0.3,1.4,0.8,1.9,1.4c0.5,0.6,0.9,1.3,1.2,2
					C155.3,15.2,155.4,16,155.4,16.9z M152.1,17c0-0.6-0.1-1.1-0.2-1.6c-0.1-0.5-0.4-0.9-0.6-1.2c-0.3-0.3-0.6-0.6-1-0.8
					c-0.4-0.2-0.8-0.3-1.4-0.3c-0.7,0-1.3,0.1-1.8,0.4c-0.5,0.3-1,0.7-1.3,1.1c-0.4,0.5-0.6,1.1-0.8,1.8c-0.2,0.7-0.3,1.5-0.3,2.3
					c0,0.6,0.1,1.1,0.2,1.6c0.1,0.5,0.3,0.9,0.6,1.2c0.3,0.3,0.6,0.6,1,0.8c0.4,0.2,0.9,0.3,1.4,0.3c0.7,0,1.3-0.1,1.8-0.4
					c0.5-0.3,1-0.7,1.3-1.1c0.4-0.5,0.7-1.1,0.8-1.8C152,18.6,152.1,17.8,152.1,17z"/>
				<path class="st0" d="M168,10.6l-0.3,2.5H164L162.5,25h-3.2l1.5-11.8h-3.7l0.3-2.5H168z"/>
				<path class="st0" d="M178.8,13.1h-5.4l-0.4,3.5h4.1l-0.3,2.4h-4.1l-0.4,3.6h5.4l-0.3,2.5h-8.6l1.8-14.4h8.6L178.8,13.1z"/>
				<path class="st0" d="M183.9,20.2l-0.6,4.8h-3.2l1.8-14.4h4.8c0.9,0,1.6,0.1,2.2,0.3c0.6,0.2,1.1,0.5,1.5,0.9
					c0.4,0.4,0.7,0.8,0.9,1.3c0.2,0.5,0.3,1,0.3,1.6c0,0.8-0.1,1.5-0.4,2.2c-0.2,0.7-0.6,1.2-1.1,1.7c-0.5,0.5-1.1,0.9-1.9,1.1
					c-0.8,0.3-1.7,0.4-2.7,0.4H183.9z M184.8,13l-0.6,4.7h1.6c0.5,0,0.9-0.1,1.2-0.2c0.3-0.1,0.6-0.3,0.8-0.6
					c0.2-0.2,0.3-0.5,0.4-0.9c0.1-0.3,0.1-0.7,0.1-1.1c0-0.3,0-0.5-0.1-0.8c-0.1-0.2-0.2-0.4-0.4-0.6c-0.2-0.2-0.4-0.3-0.6-0.4
					c-0.2-0.1-0.5-0.1-0.9-0.1H184.8z"/>
				<path class="st0" d="M202.3,11.6c0.1-0.1,0.2-0.2,0.3-0.3c0.1-0.1,0.2-0.2,0.4-0.3c0.1-0.1,0.3-0.2,0.4-0.2
					c0.1-0.1,0.3-0.1,0.5-0.1h2.4L204.5,25h-3.2l1-8c0.1-0.4,0.1-0.7,0.2-1.1c0.1-0.4,0.2-0.8,0.3-1.3c-0.2,0.4-0.4,0.8-0.6,1.1
					c-0.2,0.3-0.4,0.6-0.6,0.9l-4.7,7.4c-0.1,0.1-0.2,0.2-0.3,0.3c-0.1,0.1-0.2,0.2-0.4,0.3c-0.1,0.1-0.3,0.2-0.4,0.2
					c-0.1,0.1-0.3,0.1-0.5,0.1h-2.4l1.8-14.4h3.2l-1,7.9c-0.1,0.4-0.1,0.8-0.2,1.2c-0.1,0.4-0.2,0.8-0.3,1.3
					c0.2-0.4,0.4-0.8,0.6-1.1c0.2-0.4,0.4-0.7,0.6-0.9L202.3,11.6z"/>
				<path class="st0" d="M212.8,25l1.8-14.4h5c0.8,0,1.6,0.1,2.2,0.2c0.6,0.2,1.1,0.4,1.5,0.7c0.4,0.3,0.7,0.6,0.8,1.1
					c0.2,0.4,0.3,0.9,0.3,1.4c0,0.4-0.1,0.8-0.2,1.1c-0.1,0.4-0.3,0.7-0.5,1c-0.2,0.3-0.5,0.6-0.9,0.8c-0.4,0.3-0.8,0.5-1.3,0.6
					c0.8,0.2,1.4,0.5,1.7,1c0.4,0.4,0.6,1,0.6,1.7c0,0.7-0.1,1.3-0.4,1.9c-0.3,0.6-0.6,1.1-1.1,1.5c-0.5,0.4-1.1,0.8-1.8,1
					c-0.7,0.2-1.5,0.4-2.3,0.4H212.8z M216.8,18.9l-0.5,3.7h2.1c0.4,0,0.7-0.1,1-0.2c0.3-0.1,0.5-0.3,0.7-0.5
					c0.2-0.2,0.3-0.4,0.4-0.7c0.1-0.3,0.1-0.6,0.1-0.9c0-0.2,0-0.4-0.1-0.6c-0.1-0.2-0.2-0.3-0.3-0.4c-0.1-0.1-0.3-0.2-0.5-0.3
					c-0.2-0.1-0.5-0.1-0.8-0.1H216.8z M217.1,16.7h1.5c0.4,0,0.7,0,1-0.1c0.3-0.1,0.5-0.2,0.8-0.4c0.2-0.2,0.4-0.4,0.5-0.7
					s0.2-0.6,0.2-1.1c0-0.5-0.1-0.9-0.4-1.1c-0.3-0.2-0.7-0.3-1.3-0.3h-1.7L217.1,16.7z"/>
				<path class="st0" d="M236.1,13.1h-5.4l-0.4,3.5h4.1l-0.3,2.4H230l-0.4,3.6h5.4l-0.3,2.5H226l1.8-14.4h8.6L236.1,13.1z"/>
				<path class="st0" d="M243.5,22.5c0.4,0,0.7,0,0.9-0.1c0.3-0.1,0.5-0.1,0.7-0.2c0.2-0.1,0.4-0.2,0.5-0.3c0.1-0.1,0.3-0.2,0.4-0.3
					c0.1-0.1,0.2-0.2,0.3-0.2c0.1-0.1,0.2-0.1,0.3-0.1c0.1,0,0.2,0,0.3,0.1c0.1,0,0.1,0.1,0.2,0.1l1.1,1.4c-0.6,0.7-1.4,1.3-2.2,1.7
					c-0.9,0.4-1.8,0.6-2.9,0.6c-0.9,0-1.7-0.2-2.4-0.5c-0.7-0.3-1.3-0.8-1.8-1.3c-0.5-0.6-0.8-1.2-1.1-2c-0.2-0.8-0.4-1.6-0.4-2.5
					c0-0.8,0.1-1.6,0.3-2.3c0.2-0.7,0.4-1.4,0.8-2c0.3-0.6,0.7-1.2,1.2-1.7c0.5-0.5,1-0.9,1.6-1.3c0.6-0.3,1.2-0.6,1.9-0.8
					c0.7-0.2,1.4-0.3,2.1-0.3c0.5,0,1,0.1,1.5,0.2c0.4,0.1,0.9,0.2,1.2,0.4c0.4,0.2,0.7,0.4,1,0.6c0.3,0.2,0.5,0.5,0.7,0.8l-1.1,1.3
					c-0.1,0.1-0.2,0.2-0.3,0.2c-0.1,0.1-0.2,0.1-0.4,0.1c-0.1,0-0.2,0-0.3-0.1c-0.1-0.1-0.2-0.1-0.3-0.2c-0.1-0.1-0.2-0.2-0.3-0.3
					c-0.1-0.1-0.3-0.2-0.4-0.3c-0.2-0.1-0.4-0.1-0.6-0.2c-0.2-0.1-0.5-0.1-0.8-0.1c-0.6,0-1.2,0.1-1.7,0.4c-0.5,0.3-1,0.6-1.4,1.1
					c-0.4,0.5-0.7,1.1-0.9,1.7c-0.2,0.7-0.3,1.4-0.3,2.3c0,0.6,0.1,1.2,0.2,1.6c0.1,0.5,0.4,0.9,0.6,1.2c0.3,0.3,0.6,0.6,0.9,0.8
					C242.7,22.4,243.1,22.5,243.5,22.5z"/>
				<path class="st0" d="M262.3,25h-2.5c-0.3,0-0.5-0.1-0.7-0.2c-0.2-0.1-0.3-0.3-0.3-0.5l-0.4-2.6h-4.9l-1.1,2.6
					c-0.1,0.2-0.2,0.3-0.4,0.5c-0.2,0.1-0.4,0.2-0.7,0.2h-2.5l6.9-14.4h3.3L262.3,25z M254.4,19.5h3.6l-0.7-4.1
					c-0.1-0.3-0.1-0.6-0.2-0.9c-0.1-0.3-0.1-0.7-0.2-1.1c-0.2,0.4-0.3,0.8-0.5,1.1c-0.2,0.4-0.3,0.7-0.4,0.9L254.4,19.5z"/>
			</g>
			<g>
				<path class="st0" d="M24.7,42l-1.4,11.3h1.9l-0.5,4.1c0,0.2-0.1,0.3-0.2,0.4c-0.1,0.1-0.3,0.2-0.5,0.2h-1.2l0.4-3.1h-9l-0.3,2.5
					c0,0.2-0.1,0.3-0.2,0.4c-0.1,0.1-0.3,0.2-0.5,0.2h-1.2l0.6-4.7h1.2c0.2-0.1,0.4-0.2,0.5-0.4c0.2-0.2,0.4-0.5,0.6-0.8
					c0.2-0.4,0.4-0.8,0.6-1.4c0.2-0.6,0.4-1.2,0.6-2c0.2-0.8,0.4-1.8,0.6-2.8c0.2-1.1,0.4-2.3,0.6-3.7H24.7z M19,43.6
					c-0.2,1.4-0.5,2.6-0.7,3.6c-0.2,1-0.5,2-0.8,2.7c-0.3,0.8-0.5,1.4-0.8,2c-0.3,0.5-0.5,1-0.8,1.3h5.3l1.2-9.7H19z"/>
				<path class="st0" d="M40.1,47.5c0,0.7-0.1,1.4-0.2,2c-0.2,0.6-0.4,1.2-0.7,1.8c-0.3,0.6-0.6,1-1.1,1.5c-0.4,0.4-0.9,0.8-1.4,1.1
					c-0.5,0.3-1.1,0.6-1.7,0.7c-0.6,0.2-1.2,0.3-1.9,0.3c-0.8,0-1.5-0.1-2.2-0.4c-0.6-0.3-1.2-0.7-1.7-1.2c-0.5-0.5-0.8-1.1-1-1.8
					c-0.2-0.7-0.4-1.4-0.4-2.3c0-0.7,0.1-1.4,0.2-2.1c0.2-0.6,0.4-1.2,0.7-1.8c0.3-0.6,0.6-1.1,1.1-1.5c0.4-0.4,0.9-0.8,1.4-1.1
					s1.1-0.6,1.7-0.7c0.6-0.2,1.2-0.3,1.9-0.3c0.8,0,1.5,0.1,2.2,0.4c0.6,0.3,1.2,0.7,1.7,1.2c0.5,0.5,0.8,1.1,1,1.8
					C40,45.9,40.1,46.7,40.1,47.5z M38,47.6c0-0.6-0.1-1.2-0.2-1.7c-0.2-0.5-0.4-0.9-0.7-1.3c-0.3-0.4-0.7-0.6-1.1-0.8
					c-0.4-0.2-0.9-0.3-1.4-0.3c-0.7,0-1.3,0.1-1.9,0.4c-0.6,0.3-1,0.7-1.4,1.2c-0.4,0.5-0.7,1.1-0.9,1.8c-0.2,0.7-0.3,1.5-0.3,2.3
					c0,0.6,0.1,1.2,0.2,1.7c0.2,0.5,0.4,0.9,0.7,1.3c0.3,0.4,0.6,0.6,1.1,0.8c0.4,0.2,0.9,0.3,1.4,0.3c0.7,0,1.3-0.1,1.9-0.4
					c0.6-0.3,1-0.7,1.4-1.2c0.4-0.5,0.7-1.1,0.9-1.8C37.9,49.2,38,48.4,38,47.6z"/>
			</g>
			<g>
				<path class="st0" d="M97.2,88.9h2.1c0.2,0,0.4,0,0.6,0c0.2,0,0.4-0.1,0.5-0.2c0.2-0.1,0.3-0.2,0.5-0.3c0.2-0.1,0.3-0.3,0.5-0.5
					l6.7-7.8c0.1-0.1,0.2-0.2,0.4-0.3c0.1-0.1,0.3-0.1,0.5-0.1h1.2l-7.4,8.5c-0.3,0.3-0.5,0.6-0.8,0.8c-0.3,0.2-0.6,0.3-1,0.4
					c0.4,0.1,0.7,0.3,1,0.5c0.2,0.2,0.5,0.5,0.7,0.9l5.5,9H107c-0.2,0-0.3,0-0.4-0.1c-0.1-0.1-0.2-0.2-0.3-0.4l-5-8.2
					c-0.1-0.2-0.2-0.3-0.3-0.4c-0.1-0.1-0.2-0.2-0.3-0.3c-0.1-0.1-0.3-0.1-0.5-0.2c-0.2,0-0.4-0.1-0.6-0.1h-2.4l-1.2,9.7h-1.4
					l2.5-20.1h1.4L97.2,88.9z"/>
				<path class="st0" d="M126.6,80c0.1-0.1,0.2-0.2,0.3-0.3c0.1-0.1,0.3-0.1,0.4-0.1h1l-2.5,20.1h-1.4l2-16.4c0-0.3,0.1-0.6,0.1-0.9
					c0.1-0.3,0.1-0.6,0.2-1c-0.2,0.3-0.3,0.5-0.5,0.8c-0.2,0.2-0.3,0.5-0.5,0.7l-12.7,16.4c-0.1,0.1-0.2,0.2-0.3,0.3
					c-0.1,0.1-0.3,0.1-0.4,0.1h-1l2.5-20.1h1.4l-2,16.4c0,0.3-0.1,0.6-0.1,0.9c0,0.3-0.1,0.6-0.2,1c0.2-0.3,0.3-0.5,0.5-0.8
					c0.2-0.2,0.3-0.5,0.5-0.7L126.6,80z"/>
				<path class="st0" d="M147.1,79.6l-2.5,20.1h-1.4l2.3-18.9h-7.4c-0.4,2.7-0.9,5-1.3,7c-0.4,2-0.9,3.7-1.3,5.1
					c-0.4,1.4-0.9,2.6-1.4,3.5c-0.5,0.9-0.9,1.6-1.4,2.2c-0.5,0.5-1,0.9-1.5,1.1c-0.5,0.2-1,0.3-1.6,0.3c-0.3,0-0.5,0-0.7-0.1
					c-0.2-0.1-0.3-0.1-0.3-0.2l0.1-0.9h0.8c0.4,0,0.8-0.1,1.2-0.3c0.4-0.2,0.8-0.5,1.2-1.1c0.4-0.5,0.8-1.2,1.2-2.1
					c0.4-0.9,0.8-2.1,1.2-3.5c0.4-1.4,0.8-3.1,1.2-5.1c0.4-2,0.8-4.3,1.3-7H147.1z"/>
				<path class="st0" d="M168.2,88.1c0,1.8-0.3,3.4-0.8,4.8c-0.5,1.4-1.2,2.7-2.2,3.7c-0.9,1-2,1.8-3.3,2.4
					c-1.3,0.6-2.6,0.9-4.1,0.9c-1.2,0-2.2-0.2-3.2-0.6c-1-0.4-1.8-1-2.4-1.8c-0.7-0.8-1.2-1.7-1.6-2.8c-0.4-1.1-0.5-2.3-0.5-3.5
					c0-1.8,0.3-3.4,0.8-4.8c0.5-1.5,1.2-2.7,2.2-3.7c0.9-1,2-1.8,3.3-2.4c1.3-0.6,2.6-0.9,4.1-0.9c1.2,0,2.3,0.2,3.2,0.6
					c1,0.4,1.8,1,2.4,1.8c0.7,0.8,1.2,1.7,1.6,2.8C168,85.6,168.2,86.8,168.2,88.1z M166.7,88.1c0-1.2-0.2-2.2-0.5-3.1
					c-0.3-0.9-0.7-1.7-1.3-2.4c-0.6-0.7-1.2-1.2-2-1.5c-0.8-0.4-1.7-0.5-2.7-0.5c-1.2,0-2.4,0.2-3.4,0.7s-2,1.2-2.8,2.1
					c-0.8,0.9-1.4,2-1.8,3.3c-0.4,1.3-0.7,2.8-0.7,4.4c0,1.2,0.2,2.2,0.5,3.1c0.3,0.9,0.7,1.7,1.3,2.4c0.6,0.7,1.2,1.2,2,1.5
					s1.7,0.5,2.7,0.5c1.3,0,2.4-0.2,3.5-0.7c1.1-0.5,2-1.2,2.7-2.1c0.8-0.9,1.4-2,1.8-3.3C166.5,91.2,166.7,89.7,166.7,88.1z"/>
				<path class="st0" d="M184.5,80.7h-9.5l-2.3,18.9h-1.4l2.5-20.1h10.9L184.5,80.7z"/>
				<path class="st0" d="M188,91.6l-1,8.1h-1.4l2.5-20.1h4.9c2,0,3.5,0.4,4.5,1.3c1,0.9,1.5,2.1,1.5,3.7c0,1-0.2,2-0.5,2.8
					c-0.4,0.8-0.9,1.6-1.5,2.2c-0.6,0.6-1.4,1.1-2.3,1.4c-0.9,0.3-1.9,0.5-3.1,0.5H188z M189.3,80.7l-1.2,9.7h3.4
					c0.9,0,1.7-0.1,2.4-0.4c0.7-0.3,1.3-0.7,1.8-1.2c0.5-0.5,0.9-1.1,1.2-1.8c0.3-0.7,0.4-1.4,0.4-2.3c0-1.3-0.4-2.3-1.2-3
					c-0.8-0.7-1.9-1.1-3.5-1.1H189.3z"/>
				<path class="st0" d="M213.6,99.7h-1.1c-0.1,0-0.2,0-0.3-0.1c-0.1-0.1-0.1-0.2-0.2-0.3l-1.4-5.9h-9.1l-2.9,5.9
					c-0.1,0.1-0.1,0.2-0.2,0.3c-0.1,0.1-0.2,0.1-0.4,0.1H197l10.1-20.1h1.4L213.6,99.7z M202.1,92.4h8.3l-2.5-10.2
					c0-0.2-0.1-0.4-0.1-0.6c0-0.2-0.1-0.4-0.1-0.6c-0.1,0.2-0.2,0.4-0.3,0.7c-0.1,0.2-0.2,0.4-0.2,0.6L202.1,92.4z"/>
				<path class="st0" d="M226.7,94.3c0,0.1,0.1,0.2,0.1,0.3c0.1-0.2,0.2-0.4,0.3-0.7l9.1-14.1c0.1-0.1,0.2-0.2,0.2-0.2
					c0.1,0,0.2,0,0.3,0h1l-2.5,20.1h-1.2l2.1-17.2c0-0.1,0-0.2,0.1-0.3c0-0.1,0-0.3,0.1-0.4l-9,14c-0.2,0.2-0.3,0.4-0.6,0.4h-0.2
					c-0.3,0-0.4-0.1-0.5-0.4l-5.7-14.1c0,0.3,0,0.5,0,0.8l-2.1,17.2h-1.2l2.5-20.1h1c0.1,0,0.2,0,0.3,0c0.1,0,0.1,0.1,0.2,0.2
					l5.8,14.1C226.6,94.1,226.7,94.2,226.7,94.3z"/>
				<path class="st0" d="M250.8,94.3c0,0.1,0.1,0.2,0.1,0.3c0.1-0.2,0.2-0.4,0.3-0.7l9.1-14.1c0.1-0.1,0.2-0.2,0.2-0.2
					c0.1,0,0.2,0,0.3,0h1l-2.5,20.1h-1.2l2.1-17.2c0-0.1,0-0.2,0.1-0.3c0-0.1,0-0.3,0.1-0.4l-9,14c-0.2,0.2-0.3,0.4-0.6,0.4h-0.2
					c-0.3,0-0.4-0.1-0.5-0.4l-5.7-14.1c0,0.3,0,0.5,0,0.8l-2.1,17.2H241l2.5-20.1h1c0.1,0,0.2,0,0.3,0c0.1,0,0.1,0.1,0.2,0.2
					l5.8,14.1C250.7,94.1,250.8,94.2,250.8,94.3z"/>
			</g>
			<g>
				<path class="st0" d="M69.8,43.1c1.8,0,3.5,0.3,5.1,0.8c1.6,0.5,2.9,1.3,4.1,2.3c1.2,1,2.1,2.3,2.7,3.8c0.7,1.5,1,3.3,1,5.2
					c0,2.1-0.3,4-0.9,5.7c-0.6,1.7-1.5,3.1-2.6,4.4c-1.1,1.3-2.3,2.3-3.8,3.1c-1.5,0.8-3,1.4-4.7,1.9c1.7,0.3,3.1,0.9,4.4,1.6
					c1.2,0.7,2.3,1.6,3.1,2.6c0.8,1,1.5,2.2,1.9,3.5s0.6,2.7,0.6,4.2c0,2.5-0.5,4.9-1.5,7c-1,2.2-2.3,4-4,5.6
					c-1.7,1.6-3.7,2.8-5.9,3.7c-2.2,0.9-4.6,1.3-7.2,1.3c-2.9,0-5.3-0.4-7.2-1.3c-1.9-0.8-3.3-2-4.4-3.3c-1.1-1.4-1.9-2.9-2.4-4.6
					c-0.5-1.7-0.9-3.4-1.1-5l1.5-0.6c0.4-0.2,0.9-0.2,1.3-0.2c0.4,0.1,0.7,0.4,0.8,0.9c0.1,0.3,0.2,0.8,0.4,1.4
					c0.1,0.7,0.3,1.4,0.6,2.2c0.3,0.8,0.7,1.6,1.2,2.5c0.5,0.9,1.2,1.6,2,2.4c0.8,0.7,1.9,1.3,3.1,1.7c1.2,0.5,2.7,0.7,4.5,0.7
					c2.3,0,4.4-0.4,6.2-1.3c1.8-0.9,3.4-2,4.6-3.4c1.3-1.4,2.2-3,2.9-4.7c0.7-1.7,1-3.4,1-5.1c0-1.4-0.2-2.8-0.7-4
					C75.8,77,75.1,75.9,74,75c-1.1-0.9-2.5-1.6-4.2-2.2c-1.7-0.5-3.8-0.8-6.2-0.8l0.3-2.6c2.4-0.1,4.5-0.4,6.4-1.1
					c1.9-0.7,3.4-1.6,4.7-2.7c1.3-1.2,2.3-2.6,3-4.2c0.7-1.6,1-3.5,1-5.5c0-1.6-0.3-3.1-0.8-4.3c-0.5-1.2-1.2-2.2-2.1-3
					c-0.9-0.8-1.9-1.4-3.1-1.8c-1.2-0.4-2.4-0.6-3.8-0.6c-1.6,0-3.1,0.3-4.5,0.8c-1.4,0.5-2.7,1.3-3.9,2.2c-1.2,1-2.2,2.1-3,3.4
					c-0.9,1.3-1.5,2.8-2,4.4c-0.2,0.5-0.5,0.9-0.8,1.1c-0.3,0.2-0.7,0.2-1.2,0.2L52,58.1c0.6-2.3,1.5-4.5,2.6-6.3
					c1.1-1.9,2.5-3.4,4-4.7c1.6-1.3,3.3-2.3,5.2-2.9C65.7,43.5,67.7,43.1,69.8,43.1z"/>
			</g>
			<g>
				<path class="st0" d="M39.8,118.9c0,1.4-0.4,2.6-1.1,3.6c-0.7,1-1.8,1.8-3.1,2.3c1.1,0.5,2,1.2,2.6,2c0.6,0.9,0.9,1.9,0.9,3
					c0,1.1-0.2,2.1-0.6,3.1c-0.4,1-1,1.8-1.8,2.5c-0.8,0.7-1.7,1.3-2.8,1.7c-1.1,0.4-2.3,0.6-3.7,0.6c-0.8,0-1.6-0.1-2.4-0.2
					c-0.8-0.2-1.5-0.4-2.1-0.7c-0.7-0.3-1.3-0.6-1.8-1c-0.5-0.4-1-0.8-1.4-1.3l1.3-1.8c0.1-0.1,0.3-0.2,0.4-0.3
					c0.2-0.1,0.3-0.1,0.5-0.1c0.2,0,0.3,0.1,0.5,0.2c0.2,0.1,0.4,0.3,0.6,0.4c0.2,0.2,0.5,0.4,0.8,0.6c0.3,0.2,0.6,0.4,1,0.6
					c0.4,0.2,0.8,0.3,1.3,0.4c0.5,0.1,1,0.2,1.6,0.2c0.8,0,1.5-0.1,2.2-0.3c0.6-0.2,1.2-0.5,1.6-1c0.4-0.4,0.8-0.9,1-1.5
					c0.2-0.6,0.4-1.3,0.4-2c0-0.5-0.1-1-0.3-1.4c-0.2-0.4-0.5-0.8-0.8-1.1c-0.4-0.3-0.8-0.5-1.3-0.7c-0.5-0.2-1.1-0.3-1.8-0.3h-3
					l0.4-3.1h2.9c0.7,0,1.3-0.1,1.9-0.3c0.6-0.2,1.1-0.4,1.5-0.8c0.4-0.3,0.7-0.7,0.9-1.2c0.2-0.5,0.3-1,0.3-1.7
					c0-0.9-0.3-1.6-0.9-2.2c-0.6-0.6-1.5-0.8-2.8-0.8c-0.8,0-1.5,0.1-2,0.3c-0.6,0.2-1.1,0.4-1.5,0.6c-0.4,0.2-0.8,0.4-1.1,0.6
					c-0.3,0.2-0.6,0.3-0.8,0.3c-0.2,0-0.3,0-0.5-0.1c-0.1-0.1-0.2-0.2-0.3-0.4l-0.7-1.8c1-0.8,2.2-1.4,3.4-1.8
					c1.2-0.4,2.6-0.7,4-0.7c1.1,0,2.1,0.1,2.9,0.4c0.8,0.3,1.6,0.7,2.1,1.2c0.6,0.5,1,1.1,1.3,1.8C39.7,117.3,39.8,118.1,39.8,118.9
					z"/>
				<path class="st0" d="M63.4,137.6h-2.9c-0.3,0-0.6-0.1-0.8-0.2c-0.2-0.2-0.3-0.4-0.4-0.6l-1.2-5.4h-9.4l-2.5,5.4
					c-0.1,0.2-0.3,0.4-0.5,0.6c-0.2,0.2-0.5,0.3-0.8,0.3h-3l11.8-24h3.8L63.4,137.6z M50,128.6h7.6l-1.9-9c-0.1-0.3-0.1-0.7-0.2-1.2
					s-0.2-0.9-0.2-1.5c-0.2,0.5-0.4,1-0.6,1.5c-0.2,0.5-0.4,0.9-0.5,1.2L50,128.6z"/>
				<path class="st0" d="M97.7,137.6h-3.8l1.3-10.7h-11L83,137.6h-3.8l3-24H86l-1.3,10.6h11l1.3-10.6h3.8L97.7,137.6z"/>
				<path class="st0" d="M122.8,113.6l-0.4,3.1h-10.1l-0.9,7.4h8.1l-0.4,2.9H111l-1,7.6h10.2l-0.4,3.1h-14l3-24H122.8z"/>
				<path class="st0" d="M147.5,113.6l-2.6,21.1h3.5l-0.9,7.6c0,0.3-0.2,0.6-0.4,0.8c-0.2,0.2-0.5,0.3-0.9,0.3h-2.3l0.7-5.8h-16.9
					l-0.6,4.7c0,0.3-0.2,0.6-0.4,0.8c-0.2,0.2-0.5,0.3-0.9,0.3h-2.3l1.1-8.7h2.3c0.3-0.2,0.7-0.4,1-0.8c0.3-0.4,0.7-0.9,1.1-1.6
					c0.4-0.7,0.7-1.5,1.1-2.6c0.4-1,0.8-2.3,1.2-3.8c0.4-1.5,0.8-3.3,1.2-5.3c0.4-2,0.8-4.4,1.2-7H147.5z M136.8,116.5
					c-0.4,2.6-0.9,4.8-1.4,6.8c-0.5,2-0.9,3.7-1.4,5.1c-0.5,1.5-1,2.7-1.5,3.7c-0.5,1-1,1.8-1.5,2.5h10l2.3-18.1H136.8z"/>
				<path class="st0" d="M171.1,113.6l-0.4,3.1h-10.1l-0.9,7.4h8.1l-0.4,2.9h-8.1l-1,7.6h10.2l-0.4,3.1h-14l3-24H171.1z"/>
				<path class="st0" d="M195.5,113.6l-3,24h-3.8l2.6-21.1h-6.5c-0.5,3-1,5.7-1.6,7.9c-0.5,2.2-1.1,4.1-1.6,5.7
					c-0.6,1.6-1.1,2.9-1.7,3.9c-0.6,1-1.2,1.8-1.8,2.3c-0.6,0.6-1.3,0.9-1.9,1.1c-0.7,0.2-1.3,0.3-2,0.3c-1.3,0-2-0.2-1.9-0.7
					l0.3-2.4h1.2c0.4,0,0.8-0.1,1.2-0.2c0.4-0.2,0.8-0.5,1.2-1c0.4-0.5,0.9-1.2,1.3-2.2c0.4-0.9,0.9-2.2,1.4-3.8
					c0.5-1.6,0.9-3.5,1.4-5.8c0.5-2.3,1-5,1.4-8.2H195.5z"/>
				<path class="st0" d="M206.1,124.1h4.7c0.3-1.6,0.8-3.1,1.5-4.4c0.7-1.3,1.6-2.5,2.6-3.4c1-1,2.2-1.7,3.5-2.2
					c1.3-0.5,2.7-0.8,4.2-0.8c1.4,0,2.7,0.3,3.8,0.8c1.1,0.5,2.1,1.3,2.8,2.2c0.8,0.9,1.4,2,1.8,3.3c0.4,1.3,0.6,2.7,0.6,4.2
					c0,2-0.3,3.9-0.9,5.6c-0.6,1.7-1.4,3.2-2.5,4.5c-1.1,1.3-2.3,2.2-3.8,2.9c-1.5,0.7-3.1,1.1-4.9,1.1c-1.4,0-2.7-0.3-3.8-0.8
					c-1.1-0.5-2.1-1.2-2.8-2.2c-0.8-0.9-1.4-2-1.8-3.3c-0.4-1.3-0.6-2.7-0.6-4.2v-0.3h-4.8l-1.3,10.5h-3.8l3-24h3.8L206.1,124.1z
					 M219.9,134.7c1.2,0,2.2-0.3,3.2-0.8c1-0.5,1.8-1.2,2.5-2.2c0.7-1,1.2-2.1,1.6-3.4s0.6-2.8,0.6-4.5c0-1.1-0.1-2.1-0.4-3
					c-0.2-0.9-0.6-1.7-1.1-2.3c-0.5-0.6-1.1-1.1-1.7-1.5c-0.7-0.4-1.5-0.5-2.4-0.5c-1.2,0-2.2,0.3-3.2,0.8c-1,0.5-1.8,1.3-2.5,2.2
					c-0.7,1-1.2,2.1-1.6,3.4c-0.4,1.3-0.6,2.8-0.6,4.5c0,1.1,0.1,2.1,0.4,3c0.2,0.9,0.6,1.7,1.1,2.3c0.5,0.6,1.1,1.1,1.8,1.5
					C218.2,134.5,219,134.7,219.9,134.7z"/>
			</g>
		</g>
	</g>
</g>
</svg>
