<?xml version="1.0" encoding="utf-8"?>
<!-- Generator: Adobe Illustrator 20.1.0, SVG Export Plug-In . SVG Version: 6.00 Build 0)  -->
<svg version="1.1" id="Слой_1" xmlns="http://www.w3.org/2000/svg" xmlns:xlink="http://www.w3.org/1999/xlink" x="0px" y="0px"
	 viewBox="0 0 238 43" style="enable-background:new 0 0 238 43;" xml:space="preserve">
<style type="text/css">
	.st0{fill:#E63B23;}
	.st1{fill:#FFFFFF;}
</style>
<g id="XMLID_1_">
	<path class="st0" d="M98.8-0.1h88.5c5.5,0,13,3.3,16.8,7.4l0,0l13.2,14.4l20,21.8h-10H98.8h-99v-10V9.9v-10H98.8z"/>
</g>
<g>
	<path class="st1" d="M38,20.8c0,0.5-0.1,0.9-0.3,1.3c-0.2,0.4-0.5,0.7-0.9,1c0.2,0.1,0.4,0.2,0.6,0.4s0.3,0.3,0.5,0.5
		c0.1,0.2,0.2,0.4,0.3,0.6c0.1,0.2,0.1,0.4,0.1,0.6c0,0.5-0.1,0.9-0.3,1.3c-0.2,0.4-0.4,0.8-0.8,1.1c-0.3,0.3-0.7,0.5-1.2,0.7
		c-0.5,0.2-1,0.3-1.7,0.3c-0.3,0-0.7,0-1.1-0.1c-0.4-0.1-0.7-0.2-1-0.3c-0.3-0.1-0.6-0.3-0.9-0.4c-0.3-0.2-0.5-0.3-0.8-0.5l0.7-1.1
		c0.1-0.1,0.1-0.1,0.2-0.2c0.1-0.1,0.2-0.1,0.3-0.1c0.1,0,0.3,0,0.4,0.1c0.2,0.1,0.3,0.2,0.5,0.3s0.4,0.2,0.7,0.3
		c0.3,0.1,0.6,0.1,0.9,0.1c0.3,0,0.5,0,0.7-0.1s0.4-0.1,0.5-0.2c0.1-0.1,0.3-0.3,0.3-0.4c0.1-0.2,0.1-0.4,0.1-0.7
		c0-0.2,0-0.4-0.1-0.5c-0.1-0.2-0.2-0.3-0.4-0.4c-0.2-0.1-0.3-0.2-0.6-0.2C34.7,24,34.5,24,34.2,24h-1.5l0-1.8H34
		c0.6,0,1-0.1,1.3-0.3c0.3-0.2,0.4-0.5,0.4-0.9c0-0.3-0.1-0.6-0.4-0.8s-0.7-0.3-1.2-0.3c-0.3,0-0.6,0-0.8,0.1
		c-0.2,0.1-0.4,0.1-0.6,0.2c-0.2,0.1-0.3,0.2-0.5,0.2c-0.1,0.1-0.3,0.1-0.4,0.1c-0.1,0-0.2,0-0.3-0.1c-0.1-0.1-0.2-0.1-0.2-0.3
		l-0.6-1.1c0.4-0.3,0.9-0.6,1.5-0.8c0.6-0.2,1.2-0.3,1.9-0.3c0.6,0,1.1,0.1,1.6,0.2c0.5,0.1,0.9,0.3,1.2,0.6
		c0.3,0.2,0.6,0.5,0.8,0.9C37.9,20,38,20.4,38,20.8z"/>
	<path class="st1" d="M51,28.4h-1.8c-0.2,0-0.4,0-0.5-0.1s-0.2-0.2-0.3-0.4l-0.6-1.8h-3.9l-0.6,1.8c-0.1,0.1-0.1,0.2-0.3,0.4
		c-0.1,0.1-0.3,0.2-0.5,0.2h-1.8l3.9-10.2h2.4L51,28.4z M44.5,24.5h2.8l-0.9-2.8c-0.1-0.2-0.1-0.4-0.2-0.6c-0.1-0.2-0.2-0.5-0.2-0.8
		c-0.1,0.3-0.2,0.5-0.2,0.8c-0.1,0.2-0.2,0.5-0.2,0.6L44.5,24.5z"/>
	<path class="st1" d="M63.1,18.2v8.4h1.5v3.5c0,0.2-0.1,0.4-0.2,0.5c-0.1,0.1-0.3,0.2-0.5,0.2h-1.4v-2.4h-6.8v1.7
		c0,0.2-0.1,0.4-0.2,0.5c-0.1,0.1-0.3,0.2-0.5,0.2h-1.4v-4.1h1.1c0.1-0.1,0.2-0.2,0.4-0.3c0.1-0.1,0.2-0.4,0.4-0.6s0.2-0.6,0.3-1
		c0.1-0.4,0.2-0.9,0.3-1.5c0.1-0.6,0.2-1.3,0.2-2.1s0.1-1.7,0.1-2.8H63.1z M58.5,19.9c-0.1,0.9-0.1,1.7-0.2,2.4
		c-0.1,0.7-0.2,1.3-0.3,1.9c-0.1,0.5-0.2,1-0.4,1.4c-0.1,0.4-0.3,0.7-0.5,1h3.6v-6.7H58.5z"/>
	<path class="st1" d="M77.4,28.4h-1.8c-0.2,0-0.4,0-0.5-0.1s-0.2-0.2-0.3-0.4l-0.6-1.8h-3.9l-0.6,1.8c-0.1,0.1-0.1,0.2-0.3,0.4
		c-0.1,0.1-0.3,0.2-0.5,0.2h-1.8L71,18.2h2.4L77.4,28.4z M70.8,24.5h2.8l-0.9-2.8c-0.1-0.2-0.1-0.4-0.2-0.6
		c-0.1-0.2-0.2-0.5-0.2-0.8c-0.1,0.3-0.2,0.5-0.2,0.8c-0.1,0.2-0.2,0.5-0.2,0.6L70.8,24.5z"/>
	<path class="st1" d="M86.8,18.2v1.9h-2.9v8.3h-2.4v-8.3h-2.9v-1.9H86.8z"/>
	<path class="st1" d="M92.6,18.2v4.1h1.4c0.7,0,1.3,0.1,1.8,0.2s0.9,0.4,1.2,0.6c0.3,0.3,0.5,0.6,0.7,0.9c0.1,0.3,0.2,0.7,0.2,1.1
		c0,0.5-0.1,0.9-0.3,1.3c-0.2,0.4-0.4,0.7-0.8,1s-0.7,0.5-1.2,0.7c-0.5,0.2-1,0.2-1.6,0.2h-3.7V18.2H92.6z M92.6,24v2.5h1.4
		c0.3,0,0.6,0,0.8-0.1c0.2-0.1,0.4-0.2,0.5-0.3c0.1-0.1,0.2-0.3,0.2-0.4c0-0.1,0.1-0.3,0.1-0.5c0-0.2,0-0.4-0.1-0.5
		s-0.1-0.3-0.2-0.4c-0.1-0.1-0.3-0.2-0.5-0.3c-0.2-0.1-0.5-0.1-0.8-0.1H92.6z"/>
	<path class="st1" d="M106.7,28.4V18.2h3.8c0.7,0,1.3,0.1,1.8,0.2c0.5,0.1,0.9,0.3,1.2,0.6c0.3,0.2,0.5,0.5,0.7,0.9
		c0.1,0.3,0.2,0.7,0.2,1.1c0,0.2,0,0.4-0.1,0.7s-0.2,0.4-0.3,0.6c-0.1,0.2-0.3,0.4-0.5,0.5c-0.2,0.2-0.5,0.3-0.8,0.4
		c0.7,0.2,1.2,0.4,1.5,0.8c0.3,0.4,0.5,0.8,0.5,1.4c0,0.4-0.1,0.8-0.3,1.2s-0.4,0.7-0.7,1s-0.7,0.5-1.2,0.7c-0.5,0.2-1,0.2-1.6,0.2
		H106.7z M109.1,22.5h1.2c0.3,0,0.5,0,0.7-0.1c0.2,0,0.4-0.1,0.5-0.2c0.1-0.1,0.3-0.2,0.3-0.4c0.1-0.2,0.1-0.4,0.1-0.6
		c0-0.2,0-0.4-0.1-0.6c-0.1-0.2-0.2-0.3-0.3-0.4c-0.1-0.1-0.3-0.2-0.5-0.2c-0.2,0-0.4-0.1-0.7-0.1h-1.4V22.5z M109.1,24.1v2.5h1.7
		c0.3,0,0.6,0,0.8-0.1s0.4-0.2,0.5-0.3c0.1-0.1,0.2-0.3,0.2-0.4s0.1-0.3,0.1-0.5c0-0.2,0-0.4-0.1-0.5c0-0.2-0.1-0.3-0.3-0.4
		c-0.1-0.1-0.3-0.2-0.5-0.2c-0.2-0.1-0.4-0.1-0.7-0.1H109.1z"/>
	<path class="st1" d="M128.3,23.3c0,0.7-0.1,1.4-0.4,2.1c-0.3,0.6-0.6,1.2-1.1,1.7s-1,0.8-1.7,1.1c-0.7,0.3-1.4,0.4-2.2,0.4
		c-0.8,0-1.5-0.1-2.2-0.4c-0.7-0.3-1.2-0.6-1.7-1.1c-0.5-0.5-0.8-1-1.1-1.7c-0.3-0.6-0.4-1.3-0.4-2.1s0.1-1.4,0.4-2.1
		c0.3-0.6,0.6-1.2,1.1-1.7c0.5-0.5,1-0.8,1.7-1.1s1.4-0.4,2.2-0.4c0.8,0,1.5,0.1,2.2,0.4c0.7,0.3,1.2,0.6,1.7,1.1
		c0.5,0.5,0.8,1,1.1,1.7C128.2,21.9,128.3,22.5,128.3,23.3z M125.9,23.3c0-0.5-0.1-1-0.2-1.4c-0.1-0.4-0.3-0.7-0.6-1
		c-0.2-0.3-0.5-0.5-0.9-0.6S123.5,20,123,20c-0.5,0-0.9,0.1-1.2,0.2c-0.4,0.1-0.7,0.4-0.9,0.6c-0.2,0.3-0.4,0.6-0.6,1
		c-0.1,0.4-0.2,0.9-0.2,1.4c0,0.5,0.1,1,0.2,1.4c0.1,0.4,0.3,0.7,0.6,1c0.2,0.3,0.5,0.5,0.9,0.6c0.4,0.1,0.8,0.2,1.2,0.2
		c0.5,0,0.9-0.1,1.2-0.2c0.4-0.1,0.7-0.4,0.9-0.6c0.2-0.3,0.4-0.6,0.6-1C125.8,24.2,125.9,23.8,125.9,23.3z"/>
	<path class="st1" d="M140.5,28.4h-2.4v-8.4h-3.8v8.4H132V18.2h8.6V28.4z"/>
	<path class="st1" d="M147.1,25v3.4h-2.4V18.2h3.6c0.7,0,1.3,0.1,1.9,0.3s0.9,0.4,1.3,0.7c0.3,0.3,0.6,0.7,0.7,1.1
		c0.2,0.4,0.2,0.8,0.2,1.3c0,0.5-0.1,1-0.2,1.4c-0.2,0.4-0.4,0.8-0.7,1.1c-0.3,0.3-0.8,0.5-1.3,0.7s-1.1,0.3-1.8,0.3H147.1z
		 M147.1,23.2h1.2c0.6,0,1.1-0.1,1.3-0.4c0.3-0.3,0.4-0.7,0.4-1.2c0-0.2,0-0.4-0.1-0.6c-0.1-0.2-0.2-0.4-0.3-0.5s-0.3-0.2-0.5-0.3
		s-0.5-0.1-0.8-0.1h-1.2V23.2z"/>
	<path class="st1" d="M165.9,23.3c0,0.7-0.1,1.4-0.4,2.1c-0.3,0.6-0.6,1.2-1.1,1.7s-1,0.8-1.7,1.1c-0.7,0.3-1.4,0.4-2.2,0.4
		c-0.8,0-1.5-0.1-2.2-0.4c-0.7-0.3-1.2-0.6-1.7-1.1c-0.5-0.5-0.8-1-1.1-1.7c-0.3-0.6-0.4-1.3-0.4-2.1s0.1-1.4,0.4-2.1
		c0.3-0.6,0.6-1.2,1.1-1.7c0.5-0.5,1-0.8,1.7-1.1s1.4-0.4,2.2-0.4c0.8,0,1.5,0.1,2.2,0.4c0.7,0.3,1.2,0.6,1.7,1.1
		c0.5,0.5,0.8,1,1.1,1.7C165.8,21.9,165.9,22.5,165.9,23.3z M163.5,23.3c0-0.5-0.1-1-0.2-1.4c-0.1-0.4-0.3-0.7-0.6-1
		c-0.2-0.3-0.5-0.5-0.9-0.6s-0.8-0.2-1.2-0.2c-0.5,0-0.9,0.1-1.2,0.2c-0.4,0.1-0.7,0.4-0.9,0.6c-0.2,0.3-0.4,0.6-0.6,1
		c-0.1,0.4-0.2,0.9-0.2,1.4c0,0.5,0.1,1,0.2,1.4c0.1,0.4,0.3,0.7,0.6,1c0.2,0.3,0.5,0.5,0.9,0.6c0.4,0.1,0.8,0.2,1.2,0.2
		c0.5,0,0.9-0.1,1.2-0.2c0.4-0.1,0.7-0.4,0.9-0.6c0.2-0.3,0.4-0.6,0.6-1C163.4,24.2,163.5,23.8,163.5,23.3z"/>
	<path class="st1" d="M176.4,25.7c0.1,0,0.1,0,0.2,0c0.1,0,0.1,0.1,0.2,0.1l0.9,1c-0.4,0.5-0.9,0.9-1.5,1.2
		c-0.6,0.3-1.4,0.4-2.2,0.4c-0.8,0-1.5-0.1-2.1-0.4c-0.6-0.3-1.1-0.6-1.6-1.1c-0.4-0.5-0.8-1-1-1.7S169,24,169,23.3
		c0-0.8,0.1-1.5,0.4-2.1c0.2-0.6,0.6-1.2,1-1.6s1-0.8,1.6-1.1c0.6-0.3,1.3-0.4,2.1-0.4c0.4,0,0.7,0,1.1,0.1c0.3,0.1,0.7,0.2,0.9,0.3
		c0.3,0.1,0.6,0.3,0.8,0.4c0.2,0.2,0.5,0.4,0.7,0.5l-0.8,1.1c-0.1,0.1-0.1,0.1-0.2,0.2c-0.1,0.1-0.2,0.1-0.3,0.1
		c-0.1,0-0.2,0-0.2-0.1c-0.1,0-0.2-0.1-0.2-0.1s-0.2-0.1-0.3-0.2s-0.2-0.1-0.4-0.2c-0.1-0.1-0.3-0.1-0.5-0.1c-0.2,0-0.4-0.1-0.6-0.1
		c-0.4,0-0.8,0.1-1.1,0.2c-0.3,0.1-0.6,0.4-0.8,0.6c-0.2,0.3-0.4,0.6-0.5,1c-0.1,0.4-0.2,0.9-0.2,1.4c0,0.5,0.1,1,0.2,1.4
		c0.1,0.4,0.3,0.7,0.6,1s0.5,0.5,0.9,0.6c0.3,0.1,0.7,0.2,1,0.2c0.2,0,0.4,0,0.6,0c0.2,0,0.3-0.1,0.5-0.1c0.2,0,0.3-0.1,0.4-0.2
		c0.1-0.1,0.3-0.2,0.4-0.3c0.1,0,0.1-0.1,0.2-0.1S176.3,25.7,176.4,25.7z"/>
</g>
</svg>
