<?xml version="1.0" encoding="utf-8"?>
<!-- Generator: Adobe Illustrator 19.0.0, SVG Export Plug-In . SVG Version: 6.00 Build 0)  -->
<svg version="1.1" id="Layer_1" xmlns="http://www.w3.org/2000/svg" xmlns:xlink="http://www.w3.org/1999/xlink" x="0px" y="0px"
	 viewBox="0 0 31 31" style="enable-background:new 0 0 31 31;" xml:space="preserve">
<style type="text/css">
	.st0{fill:#E63B23;}
	.st1{fill:#FFFFFF;}
</style>
<path id="XMLID_2_" class="st0" d="M24.8,0.8H5.1C2,0.8-0.6,3.3-0.6,6.4v19.8c0,3.1,2.5,5.6,5.6,5.6h19.8c3.1,0,5.6-2.5,5.6-5.6V6.4
	C30.4,3.3,27.9,0.8,24.8,0.8z"/>
<g>
	<path class="st1" d="M23.2,9H7.2c-1.4,0-3,1.2-3,2.4v9.7c0,1.1,1.4,1.9,2.7,2l0,4.7l6.4-4.6h9.9c1.4,0,2.7-0.9,2.7-2.1v-7.8v-1.8
		C25.9,10.3,24.6,9,23.2,9z M9.6,17.7c-0.8,0-1.4-0.6-1.4-1.4c0-0.8,0.6-1.4,1.4-1.4c0.8,0,1.4,0.6,1.4,1.4
		C11,17,10.4,17.7,9.6,17.7z M15,17.7c-0.8,0-1.4-0.6-1.4-1.4c0-0.8,0.6-1.4,1.4-1.4c0.8,0,1.4,0.6,1.4,1.4
		C16.4,17,15.8,17.7,15,17.7z M20.4,17.7c-0.8,0-1.4-0.6-1.4-1.4c0-0.8,0.6-1.4,1.4-1.4c0.8,0,1.4,0.6,1.4,1.4
		C21.8,17,21.2,17.7,20.4,17.7z"/>
</g>
</svg>
