<?xml version="1.0" encoding="utf-8"?>
<!-- Generator: Adobe Illustrator 21.1.0, SVG Export Plug-In . SVG Version: 6.00 Build 0)  -->
<svg version="1.1" id="Layer_1" xmlns="http://www.w3.org/2000/svg" xmlns:xlink="http://www.w3.org/1999/xlink" x="0px" y="0px"
	 viewBox="0 0 86.3 87.4" style="enable-background:new 0 0 86.3 87.4;" xml:space="preserve">
<style type="text/css">
	.st0{fill:#F8EB41;}
</style>
<polygon class="st0" points="86.3,50.6 80.7,43.1 86.1,35.4 78.3,30.3 80.7,21.2 71.6,19.1 70.7,9.8 61.4,10.9 57.5,2.4 49.1,6.6 
	42.5,0 36,6.8 27.6,2.9 23.9,11.5 14.5,10.7 14,20 5,22.4 7.7,31.4 0,36.8 5.6,44.3 0.3,52 8.1,57.1 5.7,66.1 14.8,68.3 15.6,77.6 
	24.9,76.5 28.9,85 37.2,80.8 43.9,87.4 50.3,80.6 58.8,84.5 62.5,75.9 71.8,76.7 72.3,67.4 81.3,64.9 78.7,56 "/>
</svg>
