<?xml version="1.0" encoding="utf-8"?>
<!-- Generator: Adobe Illustrator 20.1.0, SVG Export Plug-In . SVG Version: 6.00 Build 0)  -->
<svg version="1.1" id="Слой_1" xmlns="http://www.w3.org/2000/svg" xmlns:xlink="http://www.w3.org/1999/xlink" x="0px" y="0px"
	 viewBox="0 0 48.6 29" style="enable-background:new 0 0 48.6 29;" xml:space="preserve">
<style type="text/css">
	.st0{fill:#B62727;}
</style>
<path class="st0" d="M28.5,29L28.5,29c-1.9,0-3.4-1.5-3.4-3.4V3.4c0-1.9,1.5-3.4,3.4-3.4h0c1.9,0,3.4,1.5,3.4,3.4v22.3
	C31.9,27.5,30.4,29,28.5,29z"/>
<path class="st0" d="M36.8,29L36.8,29c-1.9,0-3.4-1.5-3.4-3.4V3.4C33.5,1.5,35,0,36.8,0h0c1.9,0,3.4,1.5,3.4,3.4v22.3
	C40.2,27.5,38.7,29,36.8,29z"/>
<path class="st0" d="M45.2,29.1L45.2,29.1c-1.9,0-3.4-1.5-3.4-3.4V3.4c0-1.9,1.5-3.4,3.4-3.4h0c1.9,0,3.4,1.5,3.4,3.4v22.3
	C48.6,27.5,47.1,29.1,45.2,29.1z"/>
<path class="st0" d="M11.8,29L11.8,29c-1.9,0-3.4-1.5-3.4-3.4V3.4C8.4,1.5,9.9,0,11.8,0h0c1.9,0,3.4,1.5,3.4,3.4v22.2
	C15.2,27.5,13.6,29,11.8,29z"/>
<path class="st0" d="M3.4,29L3.4,29c-1.9,0-3.4-1.5-3.4-3.4V3.4C0.1,1.5,1.6,0,3.4,0h0c1.9,0,3.4,1.5,3.4,3.4v22.2
	C6.8,27.5,5.3,29,3.4,29z"/>
<path class="st0" d="M20.2,29L20.2,29c-1.9,0-3.4-1.5-3.4-3.4V3.4c0-1.9,1.5-3.4,3.4-3.4l0,0c1.9,0,3.4,1.5,3.4,3.4v22.2
	C23.5,27.4,22,29,20.2,29z"/>
</svg>
