<?xml version="1.0" encoding="utf-8"?>
<!-- Generator: Adobe Illustrator 21.1.0, SVG Export Plug-In . SVG Version: 6.00 Build 0)  -->
<svg version="1.1" id="Слой_1" xmlns="http://www.w3.org/2000/svg" xmlns:xlink="http://www.w3.org/1999/xlink" x="0px" y="0px"
	 viewBox="0 0 82 82" style="enable-background:new 0 0 82 82;" xml:space="preserve">
<style type="text/css">
	.st0{fill:#E63B23;}
</style>
<g>
	<path class="st0" d="M41,82C18.4,82,0,63.6,0,41S18.4,0,41,0s41,18.4,41,41S63.6,82,41,82z M41,2C19.5,2,2,19.5,2,41s17.5,39,39,39
		c21.5,0,39-17.5,39-39S62.5,2,41,2z"/>
	<path class="st0" d="M32.3,34.9H36v-3.6c0-1.6,0-4.1,1.2-5.6c1.2-1.6,2.9-2.7,5.8-2.7c4.7,0,6.7,0.7,6.7,0.7l-0.9,5.5
		c0,0-1.5-0.4-3-0.4c-1.4,0-2.7,0.5-2.7,2v4.2h5.9l-0.4,5.4H43V59h-7V40.3h-3.7V34.9z"/>
</g>
</svg>
