<?xml version="1.0" encoding="utf-8"?>
<!-- Generator: Adobe Illustrator 19.0.0, SVG Export Plug-In . SVG Version: 6.00 Build 0)  -->
<svg version="1.1" id="Слой_1" xmlns="http://www.w3.org/2000/svg" xmlns:xlink="http://www.w3.org/1999/xlink" x="0px" y="0px"
	 viewBox="6 74 318 43" style="enable-background:new 6 74 318 43;" xml:space="preserve">
<style type="text/css">
	.st0{fill:#E63B23;}
	.st1{fill:#FFFFFF;}
</style>
<g id="XMLID_1_">
	<path class="st0" d="M324.3,73.9v10v23.6v10h-180H15.8h-10l20-21.8L39,81.3l0,0c3.8-4.1,11.3-7.4,16.8-7.4h88.5
		C144.3,73.9,324.3,73.9,324.3,73.9z"/>
</g>
<g>
	<path class="st1" d="M65,94.8c0,0.5-0.1,0.9-0.3,1.3c-0.2,0.4-0.5,0.7-0.9,1c0.2,0.1,0.4,0.2,0.6,0.4c0.2,0.2,0.3,0.3,0.5,0.5
		c0.1,0.2,0.2,0.4,0.3,0.6s0.1,0.4,0.1,0.6c0,0.5-0.1,0.9-0.3,1.3c-0.2,0.4-0.4,0.8-0.8,1.1c-0.3,0.3-0.7,0.5-1.2,0.7
		c-0.5,0.2-1,0.3-1.7,0.3c-0.3,0-0.7,0-1.1-0.1c-0.4-0.1-0.7-0.2-1-0.3s-0.6-0.3-0.9-0.4c-0.3-0.2-0.5-0.3-0.8-0.5l0.7-1.1
		c0.1-0.1,0.1-0.1,0.2-0.2c0.1-0.1,0.2-0.1,0.3-0.1s0.3,0,0.4,0.1c0.2,0.1,0.3,0.2,0.5,0.3s0.4,0.2,0.7,0.3s0.6,0.1,0.9,0.1
		s0.5,0,0.7-0.1s0.4-0.1,0.5-0.2c0.1-0.1,0.3-0.3,0.3-0.4c0.1-0.2,0.1-0.4,0.1-0.7c0-0.2,0-0.4-0.1-0.5c-0.1-0.2-0.2-0.3-0.4-0.4
		c-0.2-0.1-0.3-0.2-0.6-0.2c0-0.2-0.2-0.2-0.5-0.2h-1.5v-1.8H61c0.6,0,1-0.1,1.3-0.3c0.3-0.2,0.4-0.5,0.4-0.9c0-0.3-0.1-0.6-0.4-0.8
		c-0.3-0.2-0.7-0.3-1.2-0.3c-0.3,0-0.6,0-0.8,0.1c-0.2,0.1-0.4,0.1-0.6,0.2s-0.3,0.2-0.5,0.2c-0.1,0.1-0.3,0.1-0.4,0.1
		c-0.1,0-0.2,0-0.3-0.1c-0.1-0.1-0.2-0.1-0.2-0.3L57.7,93c0.4-0.3,0.9-0.6,1.5-0.8c0.6-0.2,1.2-0.3,1.9-0.3c0.6,0,1.1,0.1,1.6,0.2
		c0.5,0.1,0.9,0.3,1.2,0.6c0.3,0.2,0.6,0.5,0.8,0.9C64.9,94,65,94.4,65,94.8z"/>
	<path class="st1" d="M78,102.4h-1.8c-0.2,0-0.4,0-0.5-0.1c-0.1-0.1-0.2-0.2-0.3-0.4l-0.6-1.8h-3.9l-0.6,1.8
		c-0.1,0.1-0.1,0.2-0.3,0.4c-0.1,0.1-0.3,0.2-0.5,0.2h-1.8l3.9-10.2H74L78,102.4z M71.4,98.5h2.8l-0.9-2.8c-0.1-0.2-0.1-0.4-0.2-0.6
		c-0.1-0.2-0.2-0.5-0.2-0.8c-0.1,0.3-0.2,0.5-0.2,0.8c-0.1,0.2-0.2,0.5-0.2,0.6L71.4,98.5z"/>
	<path class="st1" d="M89.6,102.4h-2.4V94h-3.8v8.4H81V92.2h8.6V102.4z"/>
	<path class="st1" d="M99.9,92.9c0.1-0.1,0.1-0.2,0.2-0.3c0.1-0.1,0.2-0.2,0.2-0.2c0.1-0.1,0.2-0.1,0.3-0.2c0.1-0.1,0.2-0.1,0.3-0.1
		h1.8v10.2h-2.4v-5.7c0-0.3,0-0.5,0-0.8c0-0.3,0-0.6,0.1-0.9c-0.1,0.3-0.2,0.6-0.4,0.8c-0.1,0.3-0.3,0.5-0.4,0.7l-3.1,5.3
		c-0.1,0.1-0.1,0.2-0.2,0.3c-0.1,0.1-0.2,0.2-0.2,0.2c-0.1,0.1-0.2,0.1-0.3,0.2s-0.2,0.1-0.3,0.1h-1.8V92.2h2.4v5.7
		c0,0.3,0,0.6,0,0.9c0,0.3,0,0.6-0.1,0.9c0.1-0.3,0.2-0.6,0.3-0.8c0.1-0.3,0.2-0.5,0.4-0.7L99.9,92.9z"/>
	<path class="st1" d="M113.8,99.7c0.1,0,0.1,0,0.2,0s0.1,0.1,0.2,0.1l0.9,1c-0.4,0.5-0.9,0.9-1.5,1.2s-1.4,0.4-2.2,0.4
		c-0.8,0-1.5-0.1-2.1-0.4c-0.6-0.3-1.1-0.6-1.6-1.1c-0.4-0.5-0.8-1-1-1.7c-0.2-0.7-0.3-1.3-0.3-2.1c0-0.8,0.1-1.5,0.4-2.1
		c0.2-0.6,0.6-1.2,1-1.6s1-0.8,1.6-1.1c0.6-0.3,1.3-0.4,2.1-0.4c0.4,0,0.7,0,1.1,0.1c0.3,0.1,0.7,0.2,0.9,0.3
		c0.3,0.1,0.6,0.3,0.8,0.4c0.2,0.2,0.5,0.4,0.7,0.5l-0.8,1.1c-0.1,0.1-0.1,0.1-0.2,0.2s-0.2,0.1-0.3,0.1c-0.1,0-0.2,0-0.2-0.1
		c-0.1,0-0.2-0.1-0.2-0.1s-0.2-0.1-0.3-0.2c-0.1-0.1-0.2-0.1-0.4-0.2c-0.1-0.1-0.3-0.1-0.5-0.1s-0.4-0.1-0.6-0.1
		c-0.4,0-0.8,0.1-1.1,0.2c-0.3,0.1-0.6,0.4-0.8,0.6c-0.2,0.3-0.4,0.6-0.5,1s-0.2,0.9-0.2,1.4s0.1,1,0.2,1.4c0.1,0.4,0.3,0.7,0.6,1
		c0.3,0.3,0.5,0.5,0.9,0.6c0.3,0.1,0.7,0.2,1,0.2c0.2,0,0.4,0,0.6,0s0.3-0.1,0.5-0.1s0.3-0.1,0.4-0.2c0.1-0.1,0.3-0.2,0.4-0.3
		c0.1,0,0.1-0.1,0.2-0.1S113.7,99.7,113.8,99.7z"/>
	<path class="st1" d="M127.5,102.4h-1.8c-0.2,0-0.4,0-0.5-0.1c-0.1-0.1-0.2-0.2-0.3-0.4l-0.6-1.8h-3.9l-0.6,1.8
		c-0.1,0.1-0.1,0.2-0.3,0.4c-0.1,0.1-0.3,0.2-0.5,0.2h-1.8l3.9-10.2h2.4L127.5,102.4z M120.9,98.5h2.8l-0.9-2.8
		c-0.1-0.2-0.1-0.4-0.2-0.6c-0.1-0.2-0.2-0.5-0.2-0.8c-0.1,0.3-0.2,0.5-0.2,0.8c-0.1,0.2-0.2,0.5-0.2,0.6L120.9,98.5z"/>
	<path class="st1" d="M136.9,92.2v1.9H134v8.3h-2.4v-8.3h-2.9v-1.9C128.7,92.2,136.9,92.2,136.9,92.2z"/>
	<path class="st1" d="M142.7,92.2v4.1h1.4c0.7,0,1.3,0.1,1.8,0.2c0.5,0.1,0.9,0.4,1.2,0.6c0.3,0.3,0.5,0.6,0.7,0.9
		c0.1,0.3,0.2,0.7,0.2,1.1c0,0.5-0.1,0.9-0.3,1.3s-0.4,0.7-0.8,1c-0.4,0.3-0.7,0.5-1.2,0.7c-0.5,0.2-1,0.2-1.6,0.2h-3.7V92.2H142.7z
		 M142.7,98v2.5h1.4c0.3,0,0.6,0,0.8-0.1c0.2-0.1,0.4-0.2,0.5-0.3c0.1-0.1,0.2-0.3,0.2-0.4c0-0.1,0.1-0.3,0.1-0.5
		c0-0.2,0-0.4-0.1-0.5c-0.1-0.1-0.1-0.3-0.2-0.4c-0.1-0.1-0.3-0.2-0.5-0.3s-0.5-0.1-0.8-0.1L142.7,98L142.7,98z"/>
	<path class="st1" d="M158.2,99.7c0.1,0,0.1,0,0.2,0c0.1,0,0.1,0.1,0.2,0.1l0.9,1c-0.4,0.5-0.9,0.9-1.5,1.2
		c-0.6,0.3-1.4,0.4-2.2,0.4c-0.8,0-1.5-0.1-2.1-0.4c-0.6-0.3-1.1-0.6-1.6-1.1c-0.4-0.5-0.8-1-1-1.7c-0.2-0.7-0.3-1.3-0.3-2.1
		c0-0.8,0.1-1.5,0.4-2.1c0.2-0.6,0.6-1.2,1-1.6c0.4-0.4,1-0.8,1.6-1.1c0.6-0.3,1.3-0.4,2.1-0.4c0.4,0,0.7,0,1.1,0.1
		c0.3,0.1,0.7,0.2,0.9,0.3c0.3,0.1,0.6,0.3,0.8,0.4c0.2,0.2,0.5,0.4,0.7,0.5l-0.8,1.1c-0.1,0.1-0.1,0.1-0.2,0.2
		c-0.1,0.1-0.2,0.1-0.3,0.1c-0.1,0-0.2,0-0.2-0.1c-0.1,0-0.2-0.1-0.2-0.1s-0.2-0.1-0.3-0.2c-0.1-0.1-0.2-0.1-0.4-0.2
		c-0.1-0.1-0.3-0.1-0.5-0.1s-0.4-0.1-0.6-0.1c-0.4,0-0.8,0.1-1.1,0.2c-0.3,0.1-0.6,0.4-0.8,0.6c-0.2,0.3-0.4,0.6-0.5,1
		c-0.1,0.4-0.2,0.9-0.2,1.4s0.1,1,0.2,1.4c0.1,0.4,0.3,0.7,0.6,1c0.3,0.3,0.5,0.5,0.9,0.6c0.3,0.1,0.7,0.2,1,0.2c0.2,0,0.4,0,0.6,0
		s0.3-0.1,0.5-0.1s0.3-0.1,0.4-0.2c0.1-0.1,0.3-0.2,0.4-0.3c0.1,0,0.1-0.1,0.2-0.1C158.2,99.5,158.1,99.7,158.2,99.7z"/>
	<path class="st1" d="M168,102.4v-4.1h-0.7c-0.2,0-0.4,0-0.6,0.1s-0.3,0.3-0.5,0.6l-1.4,2.6c-0.1,0.2-0.3,0.4-0.6,0.6
		c-0.2,0.1-0.5,0.2-0.9,0.2h-1.8l2.1-3.5c0.1-0.2,0.3-0.4,0.5-0.6c0.2-0.2,0.4-0.3,0.7-0.4c-0.4-0.1-0.7-0.2-0.9-0.4
		c-0.3-0.2-0.5-0.4-0.6-0.6c-0.2-0.2-0.3-0.5-0.4-0.7c-0.1-0.3-0.1-0.6-0.1-0.9c0-0.4,0.1-0.8,0.3-1.2c0.2-0.4,0.4-0.7,0.8-1
		c0.4-0.3,0.7-0.5,1.2-0.6c0.5-0.2,1-0.2,1.6-0.2h3.8v10.2L168,102.4L168,102.4z M165,95.2c0,0.2,0,0.4,0.1,0.5
		c0,0.2,0.1,0.3,0.2,0.4c0.1,0.1,0.3,0.2,0.5,0.3s0.5,0.1,0.8,0.1h1.4V94h-1.4c-0.3,0-0.6,0-0.8,0.1s-0.4,0.2-0.5,0.3
		s-0.2,0.3-0.2,0.4C165.1,94.9,165,95.1,165,95.2z"/>
	<path class="st1" d="M189,102.4h-2.4v-4.3h-4.1v4.3h-2.4V92.2h2.4v4.3h4.1v-4.3h2.4V102.4z"/>
	<path class="st1" d="M202.3,102.4h-1.8c-0.2,0-0.4,0-0.5-0.1c-0.1-0.1-0.2-0.2-0.3-0.4l-0.6-1.8h-3.9l-0.6,1.8
		c-0.1,0.1-0.1,0.2-0.3,0.4c-0.1,0.1-0.3,0.2-0.5,0.2H192l3.9-10.2h2.4L202.3,102.4z M195.7,98.5h2.8l-0.9-2.8
		c-0.1-0.2-0.1-0.4-0.2-0.6c-0.1-0.2-0.2-0.5-0.2-0.8c-0.1,0.3-0.2,0.5-0.2,0.8c-0.1,0.2-0.2,0.5-0.2,0.6L195.7,98.5z"/>
	<path class="st1" d="M217.3,94.8c0,0.5-0.1,0.9-0.3,1.3s-0.5,0.7-0.9,1c0.2,0.1,0.4,0.2,0.6,0.4s0.3,0.3,0.5,0.5
		c0.1,0.2,0.2,0.4,0.3,0.6s0.1,0.4,0.1,0.6c0,0.5-0.1,0.9-0.3,1.3c-0.2,0.4-0.4,0.8-0.8,1.1c-0.3,0.3-0.7,0.5-1.2,0.7
		c-0.5,0.2-1,0.3-1.7,0.3c-0.3,0-0.7,0-1.1-0.1c-0.4-0.1-0.7-0.2-1-0.3s-0.6-0.3-0.9-0.4c-0.3-0.2-0.5-0.3-0.8-0.5l0.7-1.1
		c0.1-0.1,0.1-0.1,0.2-0.2c0.1-0.1,0.2-0.1,0.3-0.1s0.3,0,0.4,0.1c0.2,0.1,0.3,0.2,0.5,0.3s0.4,0.2,0.7,0.3s0.6,0.1,0.9,0.1
		c0.3,0,0.5,0,0.7-0.1s0.4-0.1,0.5-0.2c0.1-0.1,0.3-0.3,0.3-0.4c0.1-0.2,0.1-0.4,0.1-0.7c0-0.2,0-0.4-0.1-0.5
		c-0.1-0.2-0.2-0.3-0.4-0.4c-0.2-0.1-0.3-0.2-0.6-0.2c-0.2-0.1-0.5-0.1-0.7-0.1h-1.5v-1.8h1.3c0.6,0,1-0.1,1.3-0.3
		c0.3-0.2,0.4-0.5,0.4-0.9c0-0.3-0.1-0.6-0.4-0.8c-0.3-0.2-0.7-0.3-1.2-0.3c-0.3,0-0.6,0-0.8,0.1s-0.4,0.1-0.6,0.2
		c-0.2,0.1-0.3,0.2-0.5,0.2c-0.1,0.1-0.3,0.1-0.4,0.1c-0.1,0-0.2,0-0.3-0.1s-0.2-0.1-0.2-0.3l-0.6-1.1c0.4-0.3,0.9-0.6,1.5-0.8
		c0.6-0.2,1.2-0.3,1.9-0.3c0.6,0,1.1,0.1,1.6,0.2s0.9,0.3,1.2,0.6c0.3,0.2,0.6,0.5,0.8,0.9C217.2,94,217.3,94.4,217.3,94.8z"/>
	<path class="st1" d="M230.4,102.4h-1.8c-0.2,0-0.4,0-0.5-0.1c-0.1-0.1-0.2-0.2-0.3-0.4l-0.6-1.8h-3.9l-0.6,1.8
		c-0.1,0.1-0.1,0.2-0.3,0.4c-0.1,0.1-0.3,0.2-0.5,0.2H220l3.9-10.2h2.4L230.4,102.4z M223.8,98.5h2.8l-0.9-2.8
		c-0.1-0.2-0.1-0.4-0.2-0.6c-0.1-0.2-0.2-0.5-0.2-0.8c-0.1,0.3-0.2,0.5-0.2,0.8c-0.1,0.2-0.2,0.5-0.2,0.6L223.8,98.5z"/>
	<path class="st1" d="M242.3,102.4h-2.4v-4.3h-4.1v4.3h-2.4V92.2h2.4v4.3h4.1v-4.3h2.4V102.4z"/>
	<path class="st1" d="M251.8,102.4v-4.1h-0.7c-0.2,0-0.4,0-0.6,0.1s-0.3,0.3-0.5,0.6l-1.4,2.6c-0.1,0.2-0.3,0.4-0.6,0.6
		c-0.2,0.1-0.5,0.2-0.9,0.2h-1.8l2.1-3.5c0.1-0.2,0.3-0.4,0.5-0.6c0.2-0.2,0.4-0.3,0.7-0.4c-0.4-0.1-0.7-0.2-0.9-0.4
		c-0.3-0.2-0.5-0.4-0.6-0.6c-0.2-0.2-0.3-0.5-0.4-0.7c-0.1-0.3-0.1-0.6-0.1-0.9c0-0.4,0.1-0.8,0.3-1.2s0.4-0.7,0.8-1
		c0.4-0.3,0.7-0.5,1.2-0.6c0.5-0.2,1-0.2,1.6-0.2h3.8v10.2L251.8,102.4L251.8,102.4z M248.9,95.2c0,0.2,0,0.4,0.1,0.5
		c0,0.2,0.1,0.3,0.2,0.4c0.1,0.1,0.3,0.2,0.5,0.3s0.5,0.1,0.8,0.1h1.4V94h-1.4c-0.3,0-0.6,0-0.8,0.1s-0.4,0.2-0.5,0.3
		s-0.2,0.3-0.2,0.4C249,94.9,248.9,95.1,248.9,95.2z"/>
	<path class="st1" d="M265.8,92.2v1.9h-2.9v8.3h-2.4v-8.3h-2.9v-1.9C257.6,92.2,265.8,92.2,265.8,92.2z"/>
	<path class="st1" d="M275.3,92.9c0.1-0.1,0.1-0.2,0.2-0.3c0.1-0.1,0.2-0.2,0.2-0.2c0.1-0.1,0.2-0.1,0.3-0.2
		c0.1-0.1,0.2-0.1,0.3-0.1h1.8v10.2h-2.4v-5.7c0-0.3,0-0.5,0-0.8c0-0.3,0-0.6,0.1-0.9c-0.1,0.3-0.2,0.6-0.4,0.8
		c-0.1,0.3-0.3,0.5-0.4,0.7l-3.1,5.3c-0.1,0.1-0.1,0.2-0.2,0.3c-0.1,0.1-0.2,0.2-0.2,0.2c-0.1,0.1-0.2,0.1-0.3,0.2s-0.2,0.1-0.3,0.1
		h-1.8V92.2h2.4v5.7c0,0.3,0,0.6,0,0.9c0,0.3,0,0.6-0.1,0.9c0.1-0.3,0.2-0.6,0.3-0.8c0.1-0.3,0.2-0.5,0.4-0.7L275.3,92.9z"/>
	<path class="st1" d="M288.9,92.2V94h-4.2v2.4h3.2v1.8h-3.2v2.4h4.2v1.8h-6.6V92.2H288.9z"/>
	<path class="st1" d="M299.4,100.8l-0.9-0.4c-0.2-0.1-0.3-0.2-0.4-0.4c0-0.2,0-0.4,0.1-0.6l1-1.8c0.1-0.2,0.2-0.3,0.3-0.4
		c-0.1-0.1-0.1-0.1-0.2-0.2s-0.1-0.1-0.1-0.2l-1-1.8c-0.1-0.2-0.2-0.4-0.1-0.6c0-0.2,0.2-0.3,0.4-0.4l0.9-0.4l2.2,3.4v0.3
		L299.4,100.8z M302.4,100.8l-0.9-0.4c-0.2-0.1-0.4-0.2-0.4-0.4s0-0.4,0.1-0.6l1-1.8c0.1-0.2,0.2-0.3,0.3-0.4
		c-0.1-0.1-0.1-0.1-0.2-0.2s-0.1-0.1-0.1-0.2l-1-1.8c-0.1-0.2-0.2-0.4-0.1-0.6c0-0.2,0.2-0.3,0.4-0.4l0.9-0.4l2.2,3.4v0.3
		L302.4,100.8z"/>
</g>
</svg>
