<?xml version="1.0" encoding="utf-8"?>
<!-- Generator: Adobe Illustrator 20.1.0, SVG Export Plug-In . SVG Version: 6.00 Build 0)  -->
<svg version="1.1" id="Слой_1" xmlns="http://www.w3.org/2000/svg" xmlns:xlink="http://www.w3.org/1999/xlink" x="0px" y="0px"
	 viewBox="0 0 318 43" style="enable-background:new 0 0 318 43;" xml:space="preserve">
<style type="text/css">
	.st0{fill:#E63B23;}
</style>
<path id="XMLID_1_" class="st0" d="M49.8,1.9h88.5h178v8v23.5v8h-178H9.7H4.3L21.2,23L34.5,8.6C37.8,5,44.9,1.9,49.8,1.9 M49.8-0.1
	c-5.5,0-13.1,3.4-16.8,7.4L19.8,21.6l-20,21.8h10h128.5h180v-10V9.9v-10l-180,0L49.8-0.1L49.8-0.1z"/>
<g>
	<path class="st0" d="M62,20.8c0,0.5-0.1,0.9-0.3,1.3s-0.5,0.7-0.9,1c0.2,0.1,0.4,0.2,0.6,0.4s0.3,0.3,0.5,0.5
		c0.1,0.2,0.2,0.4,0.3,0.6c0.1,0.2,0.1,0.4,0.1,0.6c0,0.5-0.1,0.9-0.3,1.3c-0.2,0.4-0.4,0.8-0.8,1.1c-0.3,0.3-0.7,0.5-1.2,0.7
		s-1,0.3-1.7,0.3c-0.3,0-0.7,0-1.1-0.1c-0.4-0.1-0.7-0.2-1-0.3c-0.3-0.1-0.6-0.3-0.9-0.4c-0.3-0.2-0.5-0.3-0.8-0.5l0.7-1.1
		c0.1-0.1,0.1-0.1,0.2-0.2c0.1-0.1,0.2-0.1,0.3-0.1s0.3,0,0.4,0.1c0.2,0.1,0.3,0.2,0.5,0.3s0.4,0.2,0.7,0.3c0.3,0.1,0.6,0.1,0.9,0.1
		s0.5,0,0.7-0.1s0.4-0.1,0.5-0.2c0.1-0.1,0.3-0.3,0.3-0.4c0.1-0.2,0.1-0.4,0.1-0.7c0-0.2,0-0.4-0.1-0.5c-0.1-0.2-0.2-0.3-0.4-0.4
		s-0.3-0.2-0.6-0.2c0-0.2-0.2-0.2-0.5-0.2h-1.5v-1.8H58c0.6,0,1-0.1,1.3-0.3c0.3-0.2,0.4-0.5,0.4-0.9c0-0.3-0.1-0.6-0.4-0.8
		s-0.7-0.3-1.2-0.3c-0.3,0-0.6,0-0.8,0.1s-0.4,0.1-0.6,0.2s-0.3,0.2-0.5,0.2c-0.1,0.1-0.3,0.1-0.4,0.1c-0.1,0-0.2,0-0.3-0.1
		s-0.2-0.1-0.2-0.3L54.7,19c0.4-0.3,0.9-0.6,1.5-0.8c0.6-0.2,1.2-0.3,1.9-0.3c0.6,0,1.1,0.1,1.6,0.2s0.9,0.3,1.2,0.6
		c0.3,0.2,0.6,0.5,0.8,0.9C61.9,20,62,20.4,62,20.8z"/>
	<path class="st0" d="M75,28.4h-1.8c-0.2,0-0.4,0-0.5-0.1s-0.2-0.2-0.3-0.4l-0.6-1.8h-3.9l-0.6,1.8c-0.1,0.1-0.1,0.2-0.3,0.4
		c-0.1,0.1-0.3,0.2-0.5,0.2h-1.8l3.9-10.2H71L75,28.4z M68.4,24.5h2.8l-0.9-2.8c-0.1-0.2-0.1-0.4-0.2-0.6s-0.2-0.5-0.2-0.8
		c-0.1,0.3-0.2,0.5-0.2,0.8c-0.1,0.2-0.2,0.5-0.2,0.6L68.4,24.5z"/>
	<path class="st0" d="M86.6,28.4h-2.4V20h-3.8v8.4H78V18.2h8.6V28.4z"/>
	<path class="st0" d="M96.9,18.9c0.1-0.1,0.1-0.2,0.2-0.3c0.1-0.1,0.2-0.2,0.2-0.2c0.1-0.1,0.2-0.1,0.3-0.2s0.2-0.1,0.3-0.1h1.8
		v10.2h-2.4v-5.7c0-0.3,0-0.5,0-0.8s0-0.6,0.1-0.9c-0.1,0.3-0.2,0.6-0.4,0.8c-0.1,0.3-0.3,0.5-0.4,0.7l-3.1,5.3
		c-0.1,0.1-0.1,0.2-0.2,0.3c-0.1,0.1-0.2,0.2-0.2,0.2c-0.1,0.1-0.2,0.1-0.3,0.2s-0.2,0.1-0.3,0.1h-1.8V18.2h2.4v5.7
		c0,0.3,0,0.6,0,0.9s0,0.6-0.1,0.9c0.1-0.3,0.2-0.6,0.3-0.8c0.1-0.3,0.2-0.5,0.4-0.7L96.9,18.9z"/>
	<path class="st0" d="M110.8,25.7c0.1,0,0.1,0,0.2,0s0.1,0.1,0.2,0.1l0.9,1c-0.4,0.5-0.9,0.9-1.5,1.2c-0.6,0.3-1.4,0.4-2.2,0.4
		c-0.8,0-1.5-0.1-2.1-0.4s-1.1-0.6-1.6-1.1c-0.4-0.5-0.8-1-1-1.7s-0.3-1.3-0.3-2.1c0-0.8,0.1-1.5,0.4-2.1c0.2-0.6,0.6-1.2,1-1.6
		s1-0.8,1.6-1.1c0.6-0.3,1.3-0.4,2.1-0.4c0.4,0,0.7,0,1.1,0.1c0.3,0.1,0.7,0.2,0.9,0.3c0.3,0.1,0.6,0.3,0.8,0.4
		c0.2,0.2,0.5,0.4,0.7,0.5l-0.8,1.1c-0.1,0.1-0.1,0.1-0.2,0.2s-0.2,0.1-0.3,0.1c-0.1,0-0.2,0-0.2-0.1c-0.1,0-0.2-0.1-0.2-0.1
		s-0.2-0.1-0.3-0.2s-0.2-0.1-0.4-0.2c-0.1-0.1-0.3-0.1-0.5-0.1s-0.4-0.1-0.6-0.1c-0.4,0-0.8,0.1-1.1,0.2c-0.3,0.1-0.6,0.4-0.8,0.6
		c-0.2,0.3-0.4,0.6-0.5,1s-0.2,0.9-0.2,1.4s0.1,1,0.2,1.4s0.3,0.7,0.6,1s0.5,0.5,0.9,0.6c0.3,0.1,0.7,0.2,1,0.2c0.2,0,0.4,0,0.6,0
		s0.3-0.1,0.5-0.1s0.3-0.1,0.4-0.2s0.3-0.2,0.4-0.3c0.1,0,0.1-0.1,0.2-0.1S110.7,25.7,110.8,25.7z"/>
	<path class="st0" d="M124.5,28.4h-1.8c-0.2,0-0.4,0-0.5-0.1s-0.2-0.2-0.3-0.4l-0.6-1.8h-3.9l-0.6,1.8c-0.1,0.1-0.1,0.2-0.3,0.4
		c-0.1,0.1-0.3,0.2-0.5,0.2h-1.8l3.9-10.2h2.4L124.5,28.4z M117.9,24.5h2.8l-0.9-2.8c-0.1-0.2-0.1-0.4-0.2-0.6s-0.2-0.5-0.2-0.8
		c-0.1,0.3-0.2,0.5-0.2,0.8c-0.1,0.2-0.2,0.5-0.2,0.6L117.9,24.5z"/>
	<path class="st0" d="M133.9,18.2v1.9H131v8.3h-2.4v-8.3h-2.9v-1.9C125.7,18.2,133.9,18.2,133.9,18.2z"/>
	<path class="st0" d="M139.7,18.2v4.1h1.4c0.7,0,1.3,0.1,1.8,0.2s0.9,0.4,1.2,0.6c0.3,0.3,0.5,0.6,0.7,0.9c0.1,0.3,0.2,0.7,0.2,1.1
		c0,0.5-0.1,0.9-0.3,1.3s-0.4,0.7-0.8,1c-0.4,0.3-0.7,0.5-1.2,0.7s-1,0.2-1.6,0.2h-3.7V18.2H139.7z M139.7,24v2.5h1.4
		c0.3,0,0.6,0,0.8-0.1c0.2-0.1,0.4-0.2,0.5-0.3c0.1-0.1,0.2-0.3,0.2-0.4s0.1-0.3,0.1-0.5s0-0.4-0.1-0.5c-0.1-0.1-0.1-0.3-0.2-0.4
		c-0.1-0.1-0.3-0.2-0.5-0.3c-0.2-0.1-0.5-0.1-0.8-0.1L139.7,24L139.7,24z"/>
	<path class="st0" d="M155.2,25.7c0.1,0,0.1,0,0.2,0c0.1,0,0.1,0.1,0.2,0.1l0.9,1c-0.4,0.5-0.9,0.9-1.5,1.2
		c-0.6,0.3-1.4,0.4-2.2,0.4c-0.8,0-1.5-0.1-2.1-0.4c-0.6-0.3-1.1-0.6-1.6-1.1c-0.4-0.5-0.8-1-1-1.7s-0.3-1.3-0.3-2.1
		c0-0.8,0.1-1.5,0.4-2.1c0.2-0.6,0.6-1.2,1-1.6c0.4-0.4,1-0.8,1.6-1.1c0.6-0.3,1.3-0.4,2.1-0.4c0.4,0,0.7,0,1.1,0.1
		c0.3,0.1,0.7,0.2,0.9,0.3c0.3,0.1,0.6,0.3,0.8,0.4c0.2,0.2,0.5,0.4,0.7,0.5l-0.8,1.1c-0.1,0.1-0.1,0.1-0.2,0.2
		c-0.1,0.1-0.2,0.1-0.3,0.1c-0.1,0-0.2,0-0.2-0.1c-0.1,0-0.2-0.1-0.2-0.1s-0.2-0.1-0.3-0.2s-0.2-0.1-0.4-0.2
		c-0.1-0.1-0.3-0.1-0.5-0.1s-0.4-0.1-0.6-0.1c-0.4,0-0.8,0.1-1.1,0.2c-0.3,0.1-0.6,0.4-0.8,0.6c-0.2,0.3-0.4,0.6-0.5,1
		c-0.1,0.4-0.2,0.9-0.2,1.4s0.1,1,0.2,1.4c0.1,0.4,0.3,0.7,0.6,1c0.3,0.3,0.5,0.5,0.9,0.6c0.3,0.1,0.7,0.2,1,0.2c0.2,0,0.4,0,0.6,0
		s0.3-0.1,0.5-0.1s0.3-0.1,0.4-0.2c0.1-0.1,0.3-0.2,0.4-0.3c0.1,0,0.1-0.1,0.2-0.1C155.2,25.5,155.1,25.7,155.2,25.7z"/>
	<path class="st0" d="M165,28.4v-4.1h-0.7c-0.2,0-0.4,0-0.6,0.1s-0.3,0.3-0.5,0.6l-1.4,2.6c-0.1,0.2-0.3,0.4-0.6,0.6
		c-0.2,0.1-0.5,0.2-0.9,0.2h-1.8l2.1-3.5c0.1-0.2,0.3-0.4,0.5-0.6s0.4-0.3,0.7-0.4c-0.4-0.1-0.7-0.2-0.9-0.4
		c-0.3-0.2-0.5-0.4-0.6-0.6c-0.2-0.2-0.3-0.5-0.4-0.7c-0.1-0.3-0.1-0.6-0.1-0.9c0-0.4,0.1-0.8,0.3-1.2c0.2-0.4,0.4-0.7,0.8-1
		c0.4-0.3,0.7-0.5,1.2-0.6c0.5-0.2,1-0.2,1.6-0.2h3.8v10.2H165V28.4z M162,21.2c0,0.2,0,0.4,0.1,0.5c0,0.2,0.1,0.3,0.2,0.4
		c0.1,0.1,0.3,0.2,0.5,0.3s0.5,0.1,0.8,0.1h1.4V20h-1.4c-0.3,0-0.6,0-0.8,0.1s-0.4,0.2-0.5,0.3c-0.1,0.1-0.2,0.3-0.2,0.4
		S162,21.1,162,21.2z"/>
	<path class="st0" d="M186,28.4h-2.4v-4.3h-4.1v4.3h-2.4V18.2h2.4v4.3h4.1v-4.3h2.4V28.4z"/>
	<path class="st0" d="M199.3,28.4h-1.8c-0.2,0-0.4,0-0.5-0.1s-0.2-0.2-0.3-0.4l-0.6-1.8h-3.9l-0.6,1.8c-0.1,0.1-0.1,0.2-0.3,0.4
		c-0.1,0.1-0.3,0.2-0.5,0.2H189l3.9-10.2h2.4L199.3,28.4z M192.7,24.5h2.8l-0.9-2.8c-0.1-0.2-0.1-0.4-0.2-0.6
		c-0.1-0.2-0.2-0.5-0.2-0.8c-0.1,0.3-0.2,0.5-0.2,0.8c-0.1,0.2-0.2,0.5-0.2,0.6L192.7,24.5z"/>
	<path class="st0" d="M214.3,20.8c0,0.5-0.1,0.9-0.3,1.3s-0.5,0.7-0.9,1c0.2,0.1,0.4,0.2,0.6,0.4s0.3,0.3,0.5,0.5
		c0.1,0.2,0.2,0.4,0.3,0.6s0.1,0.4,0.1,0.6c0,0.5-0.1,0.9-0.3,1.3s-0.4,0.8-0.8,1.1c-0.3,0.3-0.7,0.5-1.2,0.7s-1,0.3-1.7,0.3
		c-0.3,0-0.7,0-1.1-0.1c-0.4-0.1-0.7-0.2-1-0.3c-0.3-0.1-0.6-0.3-0.9-0.4c-0.3-0.2-0.5-0.3-0.8-0.5l0.7-1.1c0.1-0.1,0.1-0.1,0.2-0.2
		c0.1-0.1,0.2-0.1,0.3-0.1s0.3,0,0.4,0.1c0.2,0.1,0.3,0.2,0.5,0.3s0.4,0.2,0.7,0.3c0.3,0.1,0.6,0.1,0.9,0.1c0.3,0,0.5,0,0.7-0.1
		s0.4-0.1,0.5-0.2s0.3-0.3,0.3-0.4c0.1-0.2,0.1-0.4,0.1-0.7c0-0.2,0-0.4-0.1-0.5c-0.1-0.2-0.2-0.3-0.4-0.4s-0.3-0.2-0.6-0.2
		c-0.2-0.1-0.5-0.1-0.7-0.1h-1.5v-1.8h1.3c0.6,0,1-0.1,1.3-0.3c0.3-0.2,0.4-0.5,0.4-0.9c0-0.3-0.1-0.6-0.4-0.8s-0.7-0.3-1.2-0.3
		c-0.3,0-0.6,0-0.8,0.1s-0.4,0.1-0.6,0.2c-0.2,0.1-0.3,0.2-0.5,0.2c-0.1,0.1-0.3,0.1-0.4,0.1c-0.1,0-0.2,0-0.3-0.1s-0.2-0.1-0.2-0.3
		l-0.6-1.1c0.4-0.3,0.9-0.6,1.5-0.8c0.6-0.2,1.2-0.3,1.9-0.3c0.6,0,1.1,0.1,1.6,0.2s0.9,0.3,1.2,0.6c0.3,0.2,0.6,0.5,0.8,0.9
		C214.2,20,214.3,20.4,214.3,20.8z"/>
	<path class="st0" d="M227.4,28.4h-1.8c-0.2,0-0.4,0-0.5-0.1s-0.2-0.2-0.3-0.4l-0.6-1.8h-3.9l-0.6,1.8c-0.1,0.1-0.1,0.2-0.3,0.4
		c-0.1,0.1-0.3,0.2-0.5,0.2H217l3.9-10.2h2.4L227.4,28.4z M220.8,24.5h2.8l-0.9-2.8c-0.1-0.2-0.1-0.4-0.2-0.6
		c-0.1-0.2-0.2-0.5-0.2-0.8c-0.1,0.3-0.2,0.5-0.2,0.8c-0.1,0.2-0.2,0.5-0.2,0.6L220.8,24.5z"/>
	<path class="st0" d="M239.3,28.4h-2.4v-4.3h-4.1v4.3h-2.4V18.2h2.4v4.3h4.1v-4.3h2.4V28.4z"/>
	<path class="st0" d="M248.8,28.4v-4.1h-0.7c-0.2,0-0.4,0-0.6,0.1s-0.3,0.3-0.5,0.6l-1.4,2.6c-0.1,0.2-0.3,0.4-0.6,0.6
		c-0.2,0.1-0.5,0.2-0.9,0.2h-1.8l2.1-3.5c0.1-0.2,0.3-0.4,0.5-0.6s0.4-0.3,0.7-0.4c-0.4-0.1-0.7-0.2-0.9-0.4
		c-0.3-0.2-0.5-0.4-0.6-0.6c-0.2-0.2-0.3-0.5-0.4-0.7c-0.1-0.3-0.1-0.6-0.1-0.9c0-0.4,0.1-0.8,0.3-1.2s0.4-0.7,0.8-1
		s0.7-0.5,1.2-0.6c0.5-0.2,1-0.2,1.6-0.2h3.8v10.2h-2.5V28.4z M245.9,21.2c0,0.2,0,0.4,0.1,0.5c0,0.2,0.1,0.3,0.2,0.4
		c0.1,0.1,0.3,0.2,0.5,0.3s0.5,0.1,0.8,0.1h1.4V20h-1.4c-0.3,0-0.6,0-0.8,0.1s-0.4,0.2-0.5,0.3c-0.1,0.1-0.2,0.3-0.2,0.4
		S245.9,21.1,245.9,21.2z"/>
	<path class="st0" d="M262.8,18.2v1.9h-2.9v8.3h-2.4v-8.3h-2.9v-1.9C254.6,18.2,262.8,18.2,262.8,18.2z"/>
	<path class="st0" d="M272.3,18.9c0.1-0.1,0.1-0.2,0.2-0.3c0.1-0.1,0.2-0.2,0.2-0.2c0.1-0.1,0.2-0.1,0.3-0.2s0.2-0.1,0.3-0.1h1.8
		v10.2h-2.4v-5.7c0-0.3,0-0.5,0-0.8s0-0.6,0.1-0.9c-0.1,0.3-0.2,0.6-0.4,0.8c-0.1,0.3-0.3,0.5-0.4,0.7l-3.1,5.3
		c-0.1,0.1-0.1,0.2-0.2,0.3c-0.1,0.1-0.2,0.2-0.2,0.2c-0.1,0.1-0.2,0.1-0.3,0.2s-0.2,0.1-0.3,0.1h-1.8V18.2h2.4v5.7
		c0,0.3,0,0.6,0,0.9s0,0.6-0.1,0.9c0.1-0.3,0.2-0.6,0.3-0.8c0.1-0.3,0.2-0.5,0.4-0.7L272.3,18.9z"/>
	<path class="st0" d="M285.9,18.2V20h-4.2v2.4h3.2v1.8h-3.2v2.4h4.2v1.8h-6.6V18.2H285.9z"/>
	<path class="st0" d="M296.4,26.8l-0.9-0.4c-0.2-0.1-0.3-0.2-0.4-0.4c0-0.2,0-0.4,0.1-0.6l1-1.8c0.1-0.2,0.2-0.3,0.3-0.4
		c-0.1-0.1-0.1-0.1-0.2-0.2s-0.1-0.1-0.1-0.2l-1-1.8c-0.1-0.2-0.2-0.4-0.1-0.6c0-0.2,0.2-0.3,0.4-0.4l0.9-0.4l2.2,3.4v0.3
		L296.4,26.8z M299.4,26.8l-0.9-0.4c-0.2-0.1-0.4-0.2-0.4-0.4c0-0.2,0-0.4,0.1-0.6l1-1.8c0.1-0.2,0.2-0.3,0.3-0.4
		c-0.1-0.1-0.1-0.1-0.2-0.2s-0.1-0.1-0.1-0.2l-1-1.8c-0.1-0.2-0.2-0.4-0.1-0.6c0-0.2,0.2-0.3,0.4-0.4l0.9-0.4l2.2,3.4v0.3
		L299.4,26.8z"/>
</g>
</svg>
