<?xml version="1.0" encoding="utf-8"?>
<!-- Generator: Adobe Illustrator 21.1.0, SVG Export Plug-In . SVG Version: 6.00 Build 0)  -->
<svg version="1.1" id="Слой_1" xmlns="http://www.w3.org/2000/svg" xmlns:xlink="http://www.w3.org/1999/xlink" x="0px" y="0px"
	 viewBox="0 0 82 82" style="enable-background:new 0 0 82 82;" xml:space="preserve">
<style type="text/css">
	.st0{fill:#E63B23;}
</style>
<g id="XMLID_718_">
	<path id="XMLID_734_" class="st0" d="M41,82C18.4,82,0,63.5,0,41S18.4,0,41,0s41,18.4,41,41S63.5,82,41,82z M41,2
		C19.5,2,2,19.5,2,41s17.4,38.9,39,38.9S79.9,62.5,79.9,41S62.5,2,41,2z"/>
	<path id="XMLID_737_" class="st0" d="M35.1,57.2c-4.3,0-7.4-2.7-7.4-5.9c0-3.3,3.9-5.9,8.2-5.7c1,0,1.8,0.2,2.9,0.4
		c2.3,1.6,3.9,2.5,4.5,4.3c0,0.4,0.2,0.8,0.2,1.2C43.3,54.5,41,57.2,35.1,57.2 M36.1,38.1c-2.9,0-5.5-3.3-6.2-7
		c-0.4-3.7,1.4-6.6,4.3-6.6c2.9,0,5.5,3.1,6.2,7C41,35.1,38.9,38.1,36.1,38.1 M42,43.7c-1-0.6-2.9-2.5-2.9-3.5
		c0-1.2,0.4-1.8,2.1-3.3c1.8-1.4,3.1-3.5,3.1-5.7c0-2.9-1.2-5.5-3.7-6.4h3.5l2.5-1.8H35.5c-4.9,0-9.6,3.7-9.6,8.2s3.5,8.2,8.4,8.2
		c0.4,0,0.6,0,1,0c-0.4,0.6-0.6,1.4-0.6,2c0,1.2,0.6,2.3,1.4,3.1c-0.6,0-1.2,0-1.8,0c-6.2,0-10.9,3.9-10.9,8S28.5,59,34.8,59
		c7,0,10.9-4.1,10.9-8C45.9,47.6,45.1,45.7,42,43.7 M58.4,38.3h-4.3V34h-3.5v4.3h-4.3v3.5h4.3v4.3h3.5v-4.3h4.3V38.3z"/>
</g>
</svg>
