<?xml version="1.0" encoding="utf-8"?>
<!-- Generator: Adobe Illustrator 20.1.0, SVG Export Plug-In . SVG Version: 6.00 Build 0)  -->
<svg version="1.1" id="Слой_1" xmlns="http://www.w3.org/2000/svg" xmlns:xlink="http://www.w3.org/1999/xlink" x="0px" y="0px"
	 viewBox="0 0 33 28" style="enable-background:new 0 0 33 28;" xml:space="preserve">
<style type="text/css">
	.st0{fill:#E63B23;}
	.st1{fill:#FFFFFF;}
</style>
<path class="st0" d="M14.3,28c-0.2,0-0.4,0-0.7,0c0,0-0.1,0-0.1,0c-0.3,0-0.6,0-0.9-0.1c-0.7-0.1-1.3-0.2-2-0.3
	c-2.9-0.7-5.4-2.2-7.4-4.6c-2.1-2.5-3.2-5.3-3.3-8.6c0-0.1,0-0.1,0-0.2c0-0.2,0-0.4,0-0.6c0-0.1,0-0.1,0-0.2c0-0.3,0-0.7,0.1-1
	c0.1-0.6,0.2-1.2,0.3-1.8c0.7-2.7,2-5,4.1-6.9C7,1.4,10,0.1,13.5,0c0.1,0,0.1,0,0.2,0c0.2,0,0.4,0,0.7,0c0,0,0.1,0,0.1,0
	c0.4,0,0.8,0.1,1.2,0.1c0.7,0.1,1.5,0.2,2.2,0.4c4.5,1.3,8,4.7,9.5,9.1c0,0.1,0.1,0.1,0.1,0.2c1.8,1.4,3.6,2.7,5.5,4.1
	c0,0,0.1,0,0.1,0.1c0,0-0.1,0.1-0.1,0.1c-1.8,1.4-3.6,2.7-5.5,4.1c0,0-0.1,0.1-0.1,0.1c-0.8,2.4-2.1,4.5-4,6.1
	c-2.5,2.2-5.4,3.4-8.8,3.5C14.4,28,14.4,28,14.3,28z"/>
<g>
	<path class="st1" d="M13,17.9l-0.1-0.6c-0.2-1.2,0.3-2.6,1.6-4c1.2-1.2,1.8-2.1,1.8-3.2c0-1.2-0.8-2-2.5-2c-0.9,0-2,0.3-2.6,0.7
		l-0.6-1.5c0.9-0.6,2.3-0.9,3.7-0.9c3,0,4.3,1.7,4.3,3.4c0,1.6-1,2.7-2.2,4.1c-1.1,1.2-1.6,2.3-1.5,3.5l0.1,0.6H13z M12.5,21.2
		c0-0.9,0.6-1.5,1.5-1.5c0.9,0,1.5,0.6,1.5,1.5c0,0.8-0.6,1.4-1.6,1.4C13.1,22.7,12.5,22.1,12.5,21.2z"/>
</g>
</svg>
