<?xml version="1.0" encoding="utf-8"?>
<!-- Generator: Adobe Illustrator 20.1.0, SVG Export Plug-In . SVG Version: 6.00 Build 0)  -->
<svg version="1.1" id="Слой_1" xmlns="http://www.w3.org/2000/svg" xmlns:xlink="http://www.w3.org/1999/xlink" x="0px" y="0px"
	 viewBox="0 0 28 28" style="enable-background:new 0 0 28 28;" xml:space="preserve">
<style type="text/css">
	.st0{fill:#E73A24;}
</style>
<g>
	<path class="st0" d="M14,0C6.3,0,0,6.2,0,14c0,7.7,6.3,14,14,14s14-6.3,14-14C28,6.2,21.7,0,14,0z M14,27.4
		c-7.4,0-13.4-6-13.4-13.4c0-7.4,6-13.4,13.4-13.4c7.4,0,13.4,6,13.4,13.4C27.4,21.4,21.4,27.4,14,27.4z"/>
	<polygon class="st0" points="14.2,16.1 9.8,11.8 9.4,12.2 14.1,16.9 14.2,16.8 14.3,16.9 19,12.2 18.6,11.8 	"/>
</g>
</svg>
