<?xml version="1.0" encoding="utf-8"?>
<!-- Generator: Adobe Illustrator 19.0.0, SVG Export Plug-In . SVG Version: 6.00 Build 0)  -->
<svg version="1.1" id="Layer_1" xmlns="http://www.w3.org/2000/svg" xmlns:xlink="http://www.w3.org/1999/xlink" x="0px" y="0px"
	 viewBox="0 0 114.5 55.9" style="enable-background:new 0 0 114.5 55.9;" xml:space="preserve" preserveAspectRatio="none">
<style type="text/css">
	.svg-blog-bg{fill:none;stroke:transparent;stroke-width:2;stroke-linecap:round;stroke-linejoin:round;stroke-miterlimit:10;}
	.svg-blog-text{fill:#FFFFFF;}
</style>
<path id="XMLID_25_" class="svg-blog-bg" d="M2.1,41.2c-1.1,0.5-1-0.9-0.1-1.6C17.3,26.4,33.8,13.7,51.4,1.8C35.9,15,20.5,28.2,6.6,42
	C21.9,28.3,38.4,15.2,56,2.7c-4.2,4-8.5,7.9-12.7,11.9c-14,13.1-28,26.2-38.6,40.2C21,39.6,38.8,25.1,58,11.4
	C47.5,22.9,37,34.3,26.5,45.8c13.2-11.9,26.7-23.7,40.5-35.3c-4.6,7.7-11.8,15-19,22.2c-5.2,5.2-10.4,10.5-15.6,15.7
	C46,36.4,59.7,24.5,73.3,12.5c-8,9.9-16.1,19.8-24.1,29.6C56.6,35.6,64,29,71.3,22.4c3.9-3.5,8-7.1,13.2-9.7
	c-8.1,9.1-16.6,18.1-25.4,27c10.5-8.9,21.6-17.5,33.3-25.6c-6.6,8.1-14.2,16-22.7,23.5c11.2-7,22.3-14,33.3-21.2
	C92.7,27.8,82,39,71.1,50.2c12.7-10.8,25.8-21.5,39.3-31.9c-9.1,10-19,19.9-29.6,29.4C88.4,41.8,96,36,103.6,30.1
	c-2.1,2.3-4.1,4.6-6.2,6.9c5-3.8,10.4-7.5,15.9-11c-2,2.5-4.4,5-7,7.3c1.7-1,3.4-1.9,5.1-2.9"/>
<g id="XMLID_2_">
	<path id="XMLID_10_" class="svg-blog-text" d="M19.4,25.4c1.9-1.9,4.3-3.1,6.9-3.1c6.4,0,9.3,4.5,9.3,10.3c0,5.2-3.6,11.1-9.8,11.1
		c-6.4,0-9.5-4.7-9.5-14.4c0-10.3,3.3-15.2,8.8-16.2c4.2-0.8,5.9-1.8,5.7-3.8c0.4-0.4,0.9-0.5,1.7-0.5c1,1.7,1.2,3,1.2,4.2
		c0,3.6-8,3.1-11.8,4.7C20.6,18.2,19.7,21.4,19.4,25.4z M29.7,39.9c1.2-1.2,2.2-3.5,2.2-6.1c0-3.6-1.9-8.6-6.1-8.6
		c-4,0-5.7,2.5-5.7,6.7c0,3.4,2,8.8,6.5,8.8C27.5,40.7,29.2,40.4,29.7,39.9z"/>
	<path id="XMLID_8_" class="svg-blog-text" d="M52.6,22.3c1.5,0,3.8,0,5.2-0.1c0.2,0.6,0.3,1.3,0.3,2c-1,0.4-2.1,0.7-3.3,0.8
		c-0.1,1.1-0.1,2.2-0.1,3.3v8.5c0,1.3,0,2.4,0.1,3.4c1.2,0.1,2.5,0.4,3.3,0.8c0,0.7-0.1,1.6-0.3,2c-1.2,0-3.9-0.1-5-0.1
		c-1.8,0-3.9,0.1-5.7,0.1c-0.3-0.7-0.4-1.3-0.4-2c1.3-0.1,2.7-0.4,4-0.8c0.1-0.8,0.2-1.6,0.2-2.4V25h-4c-0.9,10.3-4.2,18.7-6.5,18.7
		c-1.8,0-3.6-2-4.6-3.8c0.1-0.8,0.7-1.6,1.6-2.1c1.1,0.7,2,1.1,3.1,1.5c1.5-3.1,2.7-7.4,3.4-14.2c-1.2-0.4-2.3-0.7-3.5-0.9
		c0-0.7,0.1-1.5,0.3-2c1.7,0,3.4,0.1,5.1,0.1H52.6z"/>
	<path id="XMLID_5_" class="svg-blog-text" d="M79.7,32.3c0,5.3-3.6,11.4-9.8,11.4c-6.3,0-9.3-4.5-9.3-10.7c0-5.3,3.6-11.4,9.8-11.4
		C76.8,21.7,79.7,26.3,79.7,32.3z M73.7,39.9c1.2-1.3,2.2-3.7,2.2-6.3c0-3.8-1.6-8.9-6.4-8.9c-0.9,0-2.5,0.3-3,0.8
		c-1.2,1.3-2.2,3.7-2.2,6.3c0,3.8,1.6,8.9,6.4,8.9C71.6,40.7,73.2,40.4,73.7,39.9z"/>
	<path id="XMLID_3_" class="svg-blog-text" d="M89.4,24.7v12.1c0,1.3,0,2.4,0.1,3.4c1.5,0.1,3,0.4,4,0.8c0,0.7-0.1,1.6-0.3,2
		c-1.3,0-4.4-0.1-5.6-0.1c-1.7,0-3.6,0.1-5.3,0.1c-0.2-0.7-0.3-1.3-0.3-2c1.2-0.1,2.4-0.4,3.5-0.8c0.1-0.8,0.2-1.6,0.2-2.4V27.4
		c0-0.8,0-1.6-0.2-2.4c-1.2-0.4-2.3-0.7-3.5-0.8c0-0.7,0.1-1.5,0.3-2c1.7,0,3.4,0.1,4.7,0.1h3.6c2.6,0,6.2,0,8.4-0.1l0.3,0.4
		c0.1,2.3,0,4.2-0.4,6.2c-0.7,0.2-1.6,0.2-2.3,0c0-1.4-0.3-2.9-0.6-4.1H89.4z"/>
</g>
</svg>
