<?xml version="1.0" encoding="utf-8"?>
<!-- Generator: Adobe Illustrator 19.0.0, SVG Export Plug-In . SVG Version: 6.00 Build 0)  -->
<svg version="1.1" id="Layer_1" xmlns="http://www.w3.org/2000/svg" xmlns:xlink="http://www.w3.org/1999/xlink" x="0px" y="0px"
	 viewBox="0 0 81 21" style="enable-background:new 0 0 81 21;" xml:space="preserve">
<style type="text/css">
	.svg-teens-elem{fill:#FFCD00;}
</style>
<g id="XMLID_25_">
	<path id="XMLID_28_" class="svg-teens-elem" d="M64.3,13.3l0-9.2c0,0-4.4-0.2-4.4,4.9c0,0.6,0,0.4,0,0.6L64.3,13.3z"/>
	<path id="XMLID_29_" class="svg-teens-elem" d="M4.1,20.3c0.4,0.3,1,0.5,1.7,0.7L5,18.7L4.1,20.3z"/>
	<path id="XMLID_30_" class="svg-teens-elem" d="M2.1,12.5c0,2.5,0,4.2,0,4.2l0,0c0,0-0.1,2.3,1.8,3.4c0.2-0.4,0.5-1.1,0.9-1.8L2.1,12.5z"/>
	<path id="XMLID_31_" class="svg-teens-elem" d="M11.9,9.7c4.8,0,4.6-4.2,4.6-4.2l-5.8,0l0.8,4.2C11.6,9.7,11.7,9.7,11.9,9.7z"/>
	<path id="XMLID_32_" class="svg-teens-elem" d="M7.3,16.1C7,16,6.8,15.8,6.8,15.5l0,0l0-5.4c1.1,0,2.4,0,3.9,0c0.1,0-0.1-0.4,0-0.4l0.2,0
		l-0.3-3.7l-3.1,0c-0.4,0-0.7-0.3-0.7-0.7l0,0l0-2.8c0,0-3.5-0.2-4.2,3.4L0,5.9l0,0.5l0,0.6l0,0c2.6,0,2.3,2.8,2.3,2.8l0,0
		c0,0.6,0,1.2,0,1.8l2.8,6.3c0.6-1.2,1.1-2.3,1.1-2.3l-1.1,2.4l1,2.2c0.2,0,5.1,0,5.1,0L10.4,20l2.6,0l0.1,0.2c2,0,3.3,0,3.3,0
		l0-4.1L7.3,16.1z"/>
	<path id="XMLID_33_" class="svg-teens-elem" d="M18.9,9.5l4.3-3.9c-2.2,0.2-4.2,0.3-4.2,0.3L16.7,6l0.1,1.1c1.6,0.1,2,1.4,2.1,2.2L18.9,9.5z"
		/>
	<path id="XMLID_34_" class="svg-teens-elem" d="M47.4,7.2c-0.5-0.7-1.2-1.4-2.5-1.7c-0.5-0.1-1-0.2-1.6-0.2c-2.1,0-9.3,0-9.3,0l-2.3,0l0,0.7
		L47.4,7.2z"/>
	<path id="XMLID_35_" class="svg-teens-elem" d="M30,5.8c-0.5-0.1-1-0.2-1.6-0.2c-1,0-2.9,0-4.8,0L31,6.2C30.7,6,30.4,5.9,30,5.8z"/>
	<path id="XMLID_36_" class="svg-teens-elem" d="M38.7,16l0-6.1l6.2,0c0.3,0,0.4,0.3,0.2,0.4l0,0l-5,5l1.7,0l1-0.3l2.8,0.2l1.1-1L43,15l3.8-1
		l0.5-0.5l0,0l0.3-0.3l0,0c1.3-1.3,1.2-3.1,1.2-3.2c0,0,0-1.2-0.6-2.3L32.4,6.7l0,0.1C34,7,34.3,8.4,34.3,9.2l0,0.5c0,0,0,0,0,0l0,0
		l0,0.2l0,0.1c0,0.3,0,1.4,0,5.4c0,0.7,0.1,1.3,0.3,1.9l4.6-1.2C38.9,16,38.7,16,38.7,16z"/>
	<path id="XMLID_37_" class="svg-teens-elem" d="M29.1,16c-4.8,0-6,0-6,0l0-6.1l6.2,0c0.3,0,0.4,0.3,0.2,0.4l0,0l-5,5l5.5,0l1.7-1.8h0l0.3-0.3
		l0,0c1.3-1.3,1.2-3.1,1.2-3.2c0-0.1,0.1-2.2-1.6-3.5L23,6.1l-4.3,3.6c0,0,0,0,0,0l0,0l0,0.2l0,0.1c0,0.3,0,1.4,0,5.4
		c0,4.7,3.8,4.8,4.3,4.8l9.8-2.6C32.3,16.8,31.2,16,29.1,16z"/>
	<path id="XMLID_38_" class="svg-teens-elem" d="M25,20.2l8.7,0c0,0,0.1-1.1-0.6-2.2L25,20.2z"/>
	<path id="XMLID_39_" class="svg-teens-elem" d="M74.9,9.4c2.3,0,4.2-1.7,4.6-3.9l-9.4,0c-1.1,0-2.2,0.4-3,1.1l3.3,2.7L74.9,9.4z"/>
	<polygon id="XMLID_40_" class="svg-teens-elem" points="56.4,6.1 55.6,5.4 55.1,6.3 	"/>
	<path id="XMLID_41_" class="svg-teens-elem" d="M44.7,15.9c-2.2,0-3.6,0-4.5,0l-5.5,1.5c1.1,2.8,4,2.6,4,2.6l0,0l8.7-3.5
		C46.8,16.2,45.9,15.9,44.7,15.9z"/>
	<path id="XMLID_42_" class="svg-teens-elem" d="M47.6,16.6l-6.7,3.9l8.5-0.9C49.3,19.7,49.3,17.6,47.6,16.6z"/>
	<path id="XMLID_43_" class="svg-teens-elem" d="M54.5,12l-4.4,1.2c0,0.7,0,1.5,0,2.3l4.4-1.8L54.5,12z"/>
	<path id="XMLID_44_" class="svg-teens-elem" d="M50.1,15.7c0,1.5,0,3.1,0,4.3l4.4,0l0-6.3L50.1,15.7z"/>
	<path id="XMLID_45_" class="svg-teens-elem" d="M57.7,7.2l-1-0.7l-2.1,0.3l0.7-1.3L55,5.4l-0.3-0.1l-2.1,0.3l2-0.4L54.4,5l0,0c0,0,0,0-0.1,0
		c-2.1,0.3-6.2,0.7-6.2,0.7l0.1,1.1c0.8,0,1.3,0.3,1.6,0.7L57.7,7.2z"/>
	<path id="XMLID_46_" class="svg-teens-elem" d="M67.8,16.1l0.8,1.9l-1-1.9l-3.2,0l0-2l-4.4-3.8l-2.2-1.9l-7.9-0.5c0.2,0.4,0.3,0.8,0.3,1.2
		l0,0.5c0,0,0,0,0,0l0,0l0,0.2l0,0.1c0,0.1,0,1.5,0,3.3l4.4-1.1l0-1.5l1.4,1.2l1.3-0.3l-1.3,0.4l4,3.4c0,0,0,3.5,0,4.9l1.3,0
		c0.2-0.6,0.8-2.6,0.8-2.6L61.6,20l2.7,0l0-0.2c0.2,0,0.4,0,0.5,0.1c0.1,0,0.1,0.1,0.2,0.1l9.4,0l-0.8-3.9L67.8,16.1z"/>
	<polygon id="XMLID_47_" class="svg-teens-elem" points="74.1,12.5 76.1,9.9 73.5,10.1 	"/>
	<path id="XMLID_48_" class="svg-teens-elem" d="M80.1,12.4C80.1,12.4,80.1,12.4,80.1,12.4c-0.7-1.2-2-2.1-3.4-2.3L74,12.8l0.2,1.3
		c1,0.1,1.9,0.1,1.9,0.1c0.3,0,0.6,0.3,0.6,0.7c0,0.3-0.3,0.6-0.7,0.6l-1.6-0.1l0.5,4l0.8,0.1c2.6,0.2,4.8-1.7,5-4.3
		C80.8,14.1,80.6,13.2,80.1,12.4z"/>
	<path id="XMLID_49_" class="svg-teens-elem" d="M66.3,12.8C66.3,12.8,66.3,12.8,66.3,12.8C66.3,12.8,66.3,12.8,66.3,12.8c0.8,1.2,2.2,2,3.8,2
		c0,0,0,0,0,0c0,0,0.3,0,0.8,0l2.1-2.5l-0.3-1.6l-2.7,0c-0.3,0-0.6-0.3-0.6-0.6c0-0.3,0.3-0.6,0.6-0.6c-0.9-0.6-2.3-1.7-3.1-2.4
		c-0.6,0.6-1,1.4-1.2,2.3l0,0c0,0.3-0.1,0.5-0.1,0.8C65.4,11.2,65.7,12.1,66.3,12.8L66.3,12.8z"/>
	<path id="XMLID_50_" class="svg-teens-elem" d="M73.4,14.8L73,12.7l-1.7,2.1C71.9,14.8,72.7,14.8,73.4,14.8z"/>
</g>
</svg>
