<?xml version="1.0" encoding="utf-8"?>
<!-- Generator: Adobe Illustrator 19.0.0, SVG Export Plug-In . SVG Version: 6.00 Build 0)  -->
<svg version="1.1" id="Layer_1" xmlns="http://www.w3.org/2000/svg" xmlns:xlink="http://www.w3.org/1999/xlink" x="0px" y="0px"
	 viewBox="0 0 78 18" style="enable-background:new 0 0 78 18;" xml:space="preserve">
<style type="text/css">
	.st0{fill:#FFCD00;}
</style>
<path id="XMLID_27_" class="st0" d="M62.6-0.4c0,0-4.4-0.6-4.8,4.6c0,0.6,0,0.4,0,0.6l4.1,4.2L62.6-0.4z"/>
<path id="XMLID_26_" class="st0" d="M1.6,20.4c0.5,0.3,1,0.5,1.8,0.7l-0.9-2.3L1.6,20.4z"/>
<path id="XMLID_25_" class="st0" d="M0.4,16.9l-2.8-5.8c0.1,2.6,0.1,4.2,0.1,4.2h0c0,0-0.1,2.3,1.9,3.4C-0.2,18.3,0.1,17.6,0.4,16.9
	"/>
<path id="XMLID_24_" class="st0" d="M9,9.2c0.1,0,0.3,0,0.4,0c4.9-0.2,4.5-4.4,4.5-4.4L8,5L9,9.2z"/>
<path id="XMLID_23_" class="st0" d="M7.2,17.2l2.7,0l0.1,0.2c2-0.1,3.4-0.1,3.4-0.1L13.2,13L4,13.3c-0.3-0.1-0.5-0.3-0.6-0.6l0,0
	L3.2,7.2c1.1,0,2.4-0.1,3.9-0.1c0.1,0-0.1-0.4,0-0.4l0.2,0L6.9,2.9L3.8,3C3.4,3,3.1,2.7,3.1,2.3h0L3-0.5c0,0-3.6-0.1-4.2,3.6
	l-2.5,0.1l0,0.5l0,0.6l0,0C-1,4.2-1.2,7.1-1.2,7.1l0,0c0,0.6,0,1.2,0.1,1.8l2.9,6.2c0.5-1.2,1.1-2.3,1.1-2.3l-1,2.4l1.1,2.2
	c0.3,0,5.1-0.1,5.1-0.1L7.2,17.2z"/>
<path id="XMLID_22_" class="st0" d="M16.3,6.1l0,0.2l4.2-4.1c-2.2,0.2-4.2,0.4-4.2,0.4L14,2.9L14.1,4C15.7,4,16.2,5.4,16.3,6.1"/>
<path id="XMLID_21_" class="st0" d="M45.1,2.8c-0.6-0.7-1.4-1.2-2.7-1.4c-0.5-0.1-1-0.1-1.6,0c-2.1,0.3-9.3,1.1-9.3,1.1l-2.3,0.3
	l0.1,0.7L45.1,2.8z"/>
<path id="XMLID_20_" class="st0" d="M28.6,3.3c-0.3-0.2-0.7-0.3-1.1-0.4c-0.5-0.1-1-0.2-1.6-0.1c-1,0-3,0.1-4.9,0.2L28.6,3.3z"/>
<path id="XMLID_19_" class="st0" d="M31.6,6.7l0.1,0.5c0,0,0,0,0,0l0,0l0,0.2l0,0.1c0,0.3,0.2,1.4,0.7,5.4c0.1,0.7,0.3,1.3,0.5,1.8
	l4.4-1.7c-0.3,0-0.4,0.1-0.4,0.1l-0.8-6.1l6.2-0.8c0.3,0,0.4,0.2,0.2,0.4h0l-4.4,5.6l1.7-0.2l4.9-1.9l0.4-0.5l0,0l0.2-0.3l0,0
	c1.1-1.4,0.8-3.3,0.8-3.3c0,0-0.1-1.2-0.8-2.2L29.3,4.5l0,0.1C31,4.6,31.4,5.9,31.6,6.7"/>
<polygon id="XMLID_18_" class="st0" points="44.5,11.5 40.5,12.5 43.4,12.6 "/>
<path id="XMLID_17_" class="st0" d="M19.9,18.6l9.9-2.9c-0.7-0.8-1.8-1.6-3.9-1.5c-4.9,0.2-6,0.2-6,0.2l-0.2-6.1l6.2-0.2
	c0.3,0,0.4,0.2,0.2,0.4h0l-4.9,5.2l5.5-0.2l1.7-1.8h0l0.3-0.3l0,0c1.3-1.3,1.1-3.2,1.1-3.2c0-0.1,0-2.2-1.7-3.4l-8.6-0.4l-4.2,3.8
	c0,0,0,0,0,0l0,0l0,0.2l0,0.1c0,0.3,0,1.4,0.2,5.4C15.5,18.6,19.3,18.6,19.9,18.6"/>
<path id="XMLID_16_" class="st0" d="M22.6,18.6l8.7,0.5c0,0,0.1-1.1-0.4-2.3L22.6,18.6z"/>
<path id="XMLID_15_" class="st0" d="M68.3,5.5l4.6-0.1c2.3-0.1,4.2-1.8,4.5-4l-9.5,0.3c-1.1,0-2.2,0.5-3,1.2L68.3,5.5z"/>
<polygon id="XMLID_14_" class="st0" points="54.1,1 53.5,2 54.9,1.7 "/>
<path id="XMLID_13_" class="st0" d="M42.3,14c-2.2,0.1-3.7,0.1-4.6,0.1l-5.5,1.7c1.1,2.8,4.2,2.5,4.2,2.5l0,0l8.7-3.8
	C44.4,14.2,43.5,13.9,42.3,14"/>
<path id="XMLID_12_" class="st0" d="M45.5,14.7l-6.6,4.2l8.5-1.1C47.4,17.8,47.2,15.7,45.5,14.7"/>
<path id="XMLID_11_" class="st0" d="M52.4,10.8l-0.1-1.7L48,10.4c0,0.7,0,1.5,0.1,2.3L52.4,10.8z"/>
<path id="XMLID_10_" class="st0" d="M52.4,10.8L48.1,13c0,1.6,0.1,3.1,0.1,4.3l4.4-0.1L52.4,10.8z"/>
<path id="XMLID_9_" class="st0" d="M54.3,2.6L52.2,3l0.6-1.3l-0.2-0.1l-0.3-0.1l-2.1,0.3l2-0.5L52,1.2l0,0c0,0,0,0-0.1,0
	C49.8,1.4,45.7,2,45.7,2l0.2,1.1c0.8,0,1.3,0.3,1.6,0.7l7.9-0.5L54.3,2.6z"/>
<polygon id="XMLID_8_" class="st0" points="74.8,5.9 72.1,6.1 72.8,8.5 "/>
<path id="XMLID_7_" class="st0" d="M79.2,9.3C79.2,9.3,79.2,9.3,79.2,9.3c-0.7-1.3-1.9-2.2-3.3-2.5L73,9.4l0.1,1.3
	c1,0.1,1.9,0.2,1.9,0.2c0.3,0,0.6,0.4,0.5,0.7c0,0.3-0.4,0.6-0.7,0.5L73.2,12l0.3,4l0.8,0.1c2.6,0.3,4.9-1.5,5.3-4
	C79.8,11.1,79.6,10.2,79.2,9.3"/>
<path id="XMLID_6_" class="st0" d="M70.3,8.5l-0.5-1.6l-2.7,0.3c-0.3,0-0.7-0.2-0.7-0.6c0-0.3,0.2-0.7,0.6-0.7
	c-0.9-0.6-2.4-1.5-3.4-2.1c-0.5,0.7-0.9,1.6-1,2.5l0,0c0,0.3,0,0.5,0,0.8c0.1,1,0.5,1.9,1.1,2.6l0,0c0,0,0,0,0,0c0,0,0,0,0,0
	c1,1.1,2.4,1.8,4,1.6c0,0,0,0,0,0c0,0,0.3,0,0.8-0.1L70.3,8.5z"/>
<path id="XMLID_5_" class="st0" d="M69.4,11.4c0.6,0,1.4,0,2.2-0.1L71,9.3L69.4,11.4z"/>
<path id="XMLID_4_" class="st0" d="M57.1,6.5l-2.4-1.7l-8,0.1C47,5.3,47.1,5.7,47.1,6l0,0.5c0,0,0,0,0,0l0,0l0,0.2l0,0.1
	c0,0.1,0.1,1.5,0.3,3.3l4.3-1.5L51.7,7L53,8l4.3-1.3L57.1,6.5z"/>
<path id="XMLID_3_" class="st0" d="M58,7.4l-4.4,1.1l0.1,0.1l1.3-0.4l-1.3,0.4l4.2,3.4c0,0,0.1,3.6,0.2,5l1.4,0
	c0.1-0.4,0.4-1.5,0.6-2.2l1-5L58,7.4z"/>
<path id="XMLID_2_" class="st0" d="M72,12.9l-5.9,0.7l1,1.8l-1.3-1.7l-3.2,0.4l-0.3-2l-1.4-1l-0.5,5c0.1-0.3,0.1-0.5,0.1-0.5
	l-0.1,2.6l2.7-0.3l0-0.2c0.2,0,0.4,0,0.5,0c0.1,0,0.1,0.1,0.2,0.1l9.5-1.2L72,12.9z"/>
</svg>
