<?xml version="1.0" encoding="utf-8"?>
<!-- Generator: Adobe Illustrator 19.0.0, SVG Export Plug-In . SVG Version: 6.00 Build 0)  -->
<svg version="1.1" id="Слой_1" xmlns="http://www.w3.org/2000/svg" xmlns:xlink="http://www.w3.org/1999/xlink" x="0px" y="0px"
	 viewBox="9 16 324 159" style="enable-background:new 9 16 324 159;" xml:space="preserve">
<style type="text/css">
	.st0{fill:#FFFFFF;}
	.st1{fill:#E63B23;}
</style>
<g>
	
		<image style="overflow:visible;opacity:0.54;" width="330" height="166" xlink:href="img/svg/4479D756CB4A49A0.png"  transform="matrix(1 0 0 1 7 15)">
	</image>
	<g>
		<g>
			<g>
				<g>
					<path class="st0" d="M22.9,156.4l-0.3,2.3h-5.1l-1.9,15.6h-2.9l1.9-15.6H9.5l0.3-2.3H22.9z"/>
					<path class="st0" d="M28.7,167.8l-0.8,6.5h-2.8l2.2-18h5.3c1,0,1.8,0.1,2.6,0.4c0.7,0.2,1.3,0.6,1.8,1s0.8,0.9,1.1,1.5
						c0.2,0.6,0.3,1.2,0.3,2c0,1-0.2,1.8-0.5,2.6s-0.8,1.5-1.4,2.1c-0.6,0.6-1.4,1-2.2,1.4c-0.9,0.3-1.9,0.5-3.1,0.5H28.7z
						 M29.9,158.6l-0.9,7h2.4c0.7,0,1.3-0.1,1.8-0.3s0.9-0.5,1.3-0.8c0.3-0.4,0.6-0.8,0.8-1.3c0.2-0.5,0.3-1.1,0.3-1.7
						c0-0.9-0.3-1.6-0.8-2.1s-1.3-0.8-2.4-0.8L29.9,158.6L29.9,158.6z"/>
					<path class="st0" d="M54.2,156.4l-0.3,2.3h-7.6l-0.7,5.5h6.1l-0.3,2.2h-6l-0.7,5.7h7.6l-0.3,2.3H41.5l2.2-18H54.2z"/>
					<path class="st0" d="M70.9,174.3h-2.8l1-8h-8.2l-1,8H57l2.2-18h2.9l-1,7.9h8.2l1-7.9h2.9L70.9,174.3z"/>
					<path class="st0" d="M89.6,157.3c0.1-0.1,0.2-0.2,0.3-0.3c0.1-0.1,0.2-0.2,0.3-0.3c0.1-0.1,0.2-0.1,0.4-0.2
						c0.1,0,0.3-0.1,0.4-0.1h2.1l-2.2,18H88l1.5-11.8c0-0.4,0.1-0.8,0.2-1.2s0.2-0.9,0.3-1.3c-0.2,0.4-0.4,0.8-0.6,1.2
						s-0.4,0.7-0.6,0.9l-8.3,11.4c-0.1,0.1-0.2,0.2-0.3,0.3c-0.1,0.1-0.2,0.2-0.3,0.3c-0.1,0.1-0.2,0.2-0.4,0.2
						c-0.1,0.1-0.3,0.1-0.4,0.1H77l2.2-18H82l-1.5,11.8c-0.1,0.4-0.1,0.8-0.2,1.2s-0.2,0.9-0.3,1.3c0.2-0.4,0.4-0.8,0.6-1.2
						s0.4-0.7,0.6-0.9L89.6,157.3z"/>
					<path class="st0" d="M100.5,167.8l-0.8,6.5h-2.8l2.2-18h5.3c1,0,1.8,0.1,2.6,0.4c0.7,0.2,1.3,0.6,1.8,1s0.8,0.9,1,1.5
						s0.3,1.2,0.3,2c0,1-0.2,1.8-0.5,2.6s-0.8,1.5-1.4,2.1s-1.4,1-2.2,1.4c-0.9,0.3-1.9,0.5-3.1,0.5H100.5z M101.7,158.6l-0.9,7h2.4
						c0.7,0,1.3-0.1,1.8-0.3s0.9-0.5,1.3-0.8c0.3-0.4,0.6-0.8,0.8-1.3c0.2-0.5,0.3-1.1,0.3-1.7c0-0.9-0.3-1.6-0.8-2.1
						s-1.3-0.8-2.4-0.8L101.7,158.6L101.7,158.6z"/>
					<path class="st0" d="M130.3,164.1c0,1-0.1,2-0.3,2.9c-0.2,0.9-0.5,1.7-0.9,2.5c-0.4,0.8-0.9,1.5-1.5,2.1s-1.2,1.1-1.9,1.6
						c-0.7,0.4-1.5,0.8-2.3,1s-1.7,0.4-2.6,0.4c-1.1,0-2.2-0.2-3.1-0.6c-0.9-0.4-1.7-1-2.3-1.7c-0.6-0.7-1.1-1.5-1.5-2.5
						c-0.3-1-0.5-2-0.5-3.2c0-1,0.1-2,0.3-2.9c0.2-0.9,0.5-1.7,0.9-2.5s0.9-1.5,1.5-2.1s1.2-1.2,1.9-1.6c0.7-0.4,1.5-0.8,2.3-1
						s1.7-0.4,2.6-0.4c1.1,0,2.2,0.2,3.1,0.6c0.9,0.4,1.7,1,2.3,1.7c0.6,0.7,1.1,1.6,1.5,2.5C130.1,161.9,130.3,163,130.3,164.1z
						 M127.4,164.2c0-0.9-0.1-1.6-0.3-2.3c-0.2-0.7-0.5-1.3-0.9-1.8s-0.9-0.9-1.5-1.1c-0.6-0.3-1.3-0.4-2-0.4
						c-0.9,0-1.8,0.2-2.6,0.6c-0.8,0.4-1.5,0.9-2,1.6c-0.6,0.7-1,1.5-1.3,2.5s-0.5,2.1-0.5,3.3c0,0.9,0.1,1.6,0.3,2.3
						c0.2,0.7,0.5,1.3,0.9,1.8s0.9,0.9,1.5,1.1c0.6,0.3,1.3,0.4,2,0.4c1,0,1.8-0.2,2.6-0.6c0.8-0.4,1.5-0.9,2-1.6
						c0.6-0.7,1-1.5,1.3-2.5C127.2,166.5,127.4,165.4,127.4,164.2z"/>
					<path class="st0" d="M134.1,174.3l2.2-18h5.6c1,0,1.8,0.1,2.5,0.3s1.3,0.5,1.7,0.8c0.4,0.4,0.8,0.8,1,1.3s0.3,1.1,0.3,1.7
						c0,0.5-0.1,1-0.2,1.5c-0.1,0.5-0.4,0.9-0.7,1.3c-0.3,0.4-0.7,0.8-1.1,1.1c-0.5,0.3-1,0.6-1.6,0.8c1,0.2,1.8,0.7,2.4,1.3
						c0.5,0.6,0.8,1.3,0.8,2.2c0,0.8-0.2,1.6-0.5,2.3s-0.7,1.3-1.3,1.8s-1.3,0.9-2.1,1.2s-1.8,0.4-2.8,0.4L134.1,174.3L134.1,174.3z
						 M138,166.3l-0.7,5.8h3.3c0.6,0,1.2-0.1,1.6-0.2c0.5-0.2,0.8-0.4,1.1-0.7s0.5-0.7,0.7-1.1c0.1-0.4,0.2-0.9,0.2-1.4
						c0-0.7-0.2-1.3-0.7-1.7s-1.2-0.6-2.2-0.6H138V166.3z M138.2,164.3h2.7c1.2,0,2.2-0.3,2.8-0.9c0.6-0.6,1-1.4,1-2.5
						c0-0.8-0.2-1.4-0.7-1.8c-0.5-0.4-1.2-0.6-2.2-0.6H139L138.2,164.3z"/>
					<path class="st0" d="M168.4,164.1c0,1-0.1,2-0.3,2.9s-0.5,1.7-0.9,2.5s-0.9,1.5-1.5,2.1s-1.2,1.1-1.9,1.6
						c-0.7,0.4-1.5,0.8-2.3,1s-1.7,0.4-2.6,0.4c-1.1,0-2.2-0.2-3.1-0.6c-0.9-0.4-1.7-1-2.3-1.7s-1.1-1.5-1.5-2.5
						c-0.3-1-0.5-2-0.5-3.2c0-1,0.1-2,0.3-2.9s0.5-1.7,0.9-2.5s0.9-1.5,1.5-2.1s1.2-1.2,1.9-1.6c0.7-0.4,1.5-0.8,2.3-1
						s1.7-0.4,2.6-0.4c1.1,0,2.1,0.2,3.1,0.6c0.9,0.4,1.7,1,2.3,1.7s1.1,1.6,1.5,2.5C168.3,161.9,168.4,163,168.4,164.1z
						 M165.5,164.2c0-0.9-0.1-1.6-0.3-2.3s-0.5-1.3-0.9-1.8s-0.9-0.9-1.5-1.1c-0.6-0.3-1.3-0.4-2-0.4c-0.9,0-1.8,0.2-2.6,0.6
						c-0.8,0.4-1.5,0.9-2,1.6c-0.6,0.7-1,1.5-1.3,2.5s-0.5,2.1-0.5,3.3c0,0.9,0.1,1.6,0.3,2.3s0.5,1.3,0.9,1.8s0.9,0.9,1.5,1.1
						c0.6,0.3,1.3,0.4,2,0.4c1,0,1.8-0.2,2.6-0.6c0.8-0.4,1.5-0.9,2-1.6c0.6-0.7,1-1.5,1.3-2.5C165.4,166.5,165.5,165.4,165.5,164.2
						z"/>
					<path class="st0" d="M176.4,164.1h1.6c0.3,0,0.6-0.1,0.9-0.2c0.2-0.1,0.5-0.3,0.8-0.7l4.6-6.1c0.2-0.2,0.4-0.4,0.6-0.6
						c0.2-0.1,0.5-0.2,0.7-0.2h2.4l-5.6,7.3c-0.2,0.3-0.5,0.6-0.8,0.8s-0.6,0.4-0.9,0.5c0.4,0.1,0.8,0.3,1.1,0.6s0.5,0.7,0.7,1.1
						l3.7,7.7h-2.6c-0.3,0-0.5-0.1-0.7-0.2c-0.2-0.1-0.3-0.4-0.4-0.6l-3-6.3c-0.2-0.3-0.3-0.6-0.6-0.7c-0.2-0.1-0.5-0.2-0.9-0.2
						h-1.9l-1,8.1h-2.8l2.2-18h2.8L176.4,164.1z"/>
				</g>
			</g>
			<g>
				<path class="st0" d="M108.6,121.5h-1.2l2-16h-9.1l-2,16h-1.2l2.1-17h11.5L108.6,121.5z"/>
				<path class="st0" d="M126.7,105.5h-8.2l-0.9,6.9h6.8l-0.1,1h-6.8l-0.9,7.1h8.3l-0.1,1h-9.5l2.1-17h9.4L126.7,105.5z"/>
				<path class="st0" d="M132.3,114.6l-0.8,6.8h-1.2l2.1-17h4.1c1.7,0,2.9,0.4,3.8,1.1c0.8,0.7,1.3,1.8,1.3,3.1
					c0,0.9-0.1,1.7-0.4,2.4c-0.3,0.7-0.7,1.3-1.3,1.8c-0.5,0.5-1.2,0.9-2,1.2c-0.8,0.3-1.6,0.4-2.6,0.4h-3V114.6z M133.4,105.5
					l-1,8.2h2.9c0.8,0,1.4-0.1,2-0.4c0.6-0.2,1.1-0.6,1.6-1c0.4-0.4,0.8-0.9,1-1.5s0.4-1.2,0.4-1.9c0-1.1-0.3-1.9-1-2.5
					s-1.6-0.9-3-0.9C136.3,105.5,133.4,105.5,133.4,105.5z"/>
				<path class="st0" d="M145.2,121.5l2.1-17h4.6c0.8,0,1.5,0.1,2.1,0.3c0.6,0.2,1.1,0.4,1.5,0.7c0.4,0.3,0.7,0.7,0.9,1.2
					s0.3,1,0.3,1.5s-0.1,1.1-0.3,1.6s-0.4,0.9-0.8,1.3c-0.3,0.4-0.7,0.8-1.2,1c-0.5,0.3-1,0.5-1.6,0.7c1.1,0.2,2,0.6,2.5,1.2
					c0.6,0.6,0.9,1.4,0.9,2.4c0,0.8-0.1,1.5-0.4,2.1c-0.3,0.6-0.7,1.2-1.2,1.6s-1.1,0.8-1.9,1c-0.7,0.2-1.6,0.4-2.5,0.4
					C150.2,121.5,145.2,121.5,145.2,121.5z M147.4,113.3l-0.9,7.2h3.9c1.5,0,2.6-0.4,3.4-1.1c0.8-0.7,1.2-1.7,1.2-3.1
					c0-0.5-0.1-0.9-0.2-1.3c-0.2-0.4-0.4-0.7-0.7-1s-0.7-0.5-1.2-0.6s-1-0.2-1.6-0.2L147.4,113.3L147.4,113.3z M147.5,112.5h3.4
					c0.8,0,1.5-0.1,2-0.3c0.6-0.2,1-0.5,1.4-0.9s0.6-0.8,0.8-1.3s0.3-1,0.3-1.5c0-1-0.3-1.7-0.9-2.2c-0.6-0.5-1.5-0.8-2.8-0.8h-3.4
					L147.5,112.5z"/>
				<path class="st0" d="M164.6,104.5l-1,7.7h3.7c0.8,0,1.5,0.1,2.1,0.3c0.6,0.2,1.1,0.4,1.5,0.8c0.4,0.3,0.7,0.7,0.9,1.2
					s0.3,1,0.3,1.6c0,0.8-0.1,1.6-0.4,2.3c-0.3,0.7-0.7,1.2-1.2,1.7s-1.1,0.8-1.9,1.1c-0.7,0.3-1.6,0.4-2.5,0.4h-4.8l2.1-17
					L164.6,104.5L164.6,104.5z M163.5,113.1l-0.9,7.4h3.6c0.7,0,1.4-0.1,2-0.3c0.6-0.2,1-0.5,1.4-0.9s0.7-0.8,0.9-1.4
					c0.2-0.5,0.3-1.2,0.3-1.8c0-1-0.3-1.7-0.9-2.3c-0.6-0.5-1.5-0.8-2.8-0.8h-3.6V113.1z M175.8,121.5h-1.2l2.1-17h1.2L175.8,121.5z
					"/>
				<path class="st0" d="M187.4,112.4l-4.2-7.9h1.1c0.1,0,0.2,0,0.2,0.1c0,0,0.1,0.1,0.1,0.2l3.6,7c0.1-0.1,0.1-0.2,0.2-0.3l5.2-6.8
					c0.1-0.1,0.2-0.2,0.4-0.2h1.2l-6.2,7.8l4.8,9.1h-1.1c-0.1,0-0.2,0-0.2-0.1s-0.1-0.1-0.1-0.2l-4.2-8.1c0,0,0,0.1-0.1,0.1
					l-0.1,0.1l-6,7.9c-0.1,0.2-0.3,0.3-0.5,0.3h-1.2L187.4,112.4z"/>
			</g>
			<g>
				<path class="st0" d="M268.7,60.7l-0.4,3.1c-0.1,0.8-0.3,1.5-0.6,2.1c-0.3,0.6-0.5,1.1-0.8,1.5l-55.3,94c-0.4,0.7-1,1.3-1.7,1.8
					s-1.6,0.7-2.6,0.7h-4.6l55.5-93.6c0.4-0.7,0.8-1.3,1.2-1.8c0.4-0.5,0.9-1.1,1.4-1.6H206c-0.5,0-1-0.2-1.3-0.5
					c-0.3-0.4-0.5-0.8-0.4-1.3l0.5-4.3L268.7,60.7L268.7,60.7z"/>
			</g>
			<polygon class="st1" points="326.7,49 29,49 34.9,15.9 332.5,15.9 			"/>
			<g>
				<path class="st0" d="M58.5,39.5h-3.3l0.8-6.1h-5.2L50,39.5h-3.3l1.8-14.4h3.3L51,31.2h5.2l0.8-6.1h3.3L58.5,39.5z"/>
				<path class="st0" d="M72.1,27.7h-5.4l-0.4,3.5h4.1l-0.3,2.4H66l-0.4,3.6H71l-0.3,2.5H62l1.8-14.4h8.6L72.1,27.7z"/>
				<path class="st0" d="M73.4,39.5l1.8-14.4h5c0.8,0,1.6,0.1,2.2,0.2c0.6,0.2,1.1,0.4,1.5,0.7s0.7,0.6,0.8,1.1
					c0.2,0.4,0.3,0.9,0.3,1.4c0,0.4-0.1,0.8-0.2,1.1c-0.1,0.4-0.3,0.7-0.5,1s-0.5,0.6-0.9,0.8c-0.4,0.3-0.8,0.5-1.3,0.6
					c0.8,0.2,1.4,0.5,1.7,1c0.4,0.4,0.6,1,0.6,1.7S84.3,36,84,36.6c-0.3,0.6-0.6,1.1-1.1,1.5c-0.5,0.4-1.1,0.8-1.8,1
					c-0.7,0.2-1.5,0.4-2.3,0.4H73.4z M77.4,33.4L77,37.1h2.1c0.4,0,0.7-0.1,1-0.2c0.3-0.1,0.5-0.3,0.7-0.5c0.2-0.2,0.3-0.4,0.4-0.7
					c0.1-0.3,0.1-0.6,0.1-0.9c0-0.2,0-0.4-0.1-0.6c-0.1-0.2-0.2-0.3-0.3-0.4c-0.1-0.1-0.3-0.2-0.5-0.3s-0.5-0.1-0.8-0.1H77.4z
					 M77.7,31.3h1.5c0.4,0,0.7,0,1-0.1c0.3-0.1,0.5-0.2,0.8-0.4c0.2-0.2,0.4-0.4,0.5-0.7s0.2-0.6,0.2-1.1s-0.1-0.9-0.4-1.1
					c-0.3-0.2-0.7-0.3-1.3-0.3h-1.7L77.7,31.3z"/>
				<path class="st0" d="M96.7,27.7h-5.4l-0.4,3.5H95l-0.3,2.4h-4.1l-0.4,3.6h5.4l-0.3,2.5h-8.6l1.8-14.4H97L96.7,27.7z"/>
				<path class="st0" d="M101.9,34.7l-0.6,4.8h-3.2l1.8-14.4h4.8c0.9,0,1.6,0.1,2.2,0.3c0.6,0.2,1.1,0.5,1.5,0.9
					c0.4,0.4,0.7,0.8,0.9,1.3c0.2,0.5,0.3,1,0.3,1.6c0,0.8-0.1,1.5-0.4,2.2c-0.2,0.7-0.6,1.2-1.1,1.7s-1.1,0.9-1.9,1.1
					c-0.8,0.3-1.7,0.4-2.7,0.4h-1.6V34.7z M102.8,27.6l-0.6,4.7h1.6c0.5,0,0.9-0.1,1.2-0.2c0.3-0.1,0.6-0.3,0.8-0.6
					c0.2-0.2,0.3-0.5,0.4-0.9s0.1-0.7,0.1-1.1c0-0.3,0-0.5-0.1-0.8c-0.1-0.2-0.2-0.4-0.4-0.6c-0.2-0.2-0.4-0.3-0.6-0.4
					c-0.2-0.1-0.5-0.1-0.9-0.1C104.3,27.6,102.8,27.6,102.8,27.6z"/>
				<path class="st0" d="M124.9,31.4c0,0.8-0.1,1.5-0.3,2.2c-0.2,0.7-0.4,1.4-0.8,2c-0.3,0.6-0.7,1.2-1.2,1.7s-1,0.9-1.6,1.3
					c-0.6,0.4-1.2,0.6-1.9,0.8c-0.7,0.2-1.4,0.3-2.2,0.3c-1,0-1.8-0.2-2.6-0.5c-0.8-0.3-1.4-0.8-1.9-1.4s-0.9-1.3-1.2-2
					c-0.3-0.8-0.4-1.6-0.4-2.5c0-0.8,0.1-1.5,0.3-2.2c0.2-0.7,0.4-1.4,0.8-2c0.3-0.6,0.7-1.2,1.2-1.7s1-0.9,1.6-1.3
					c0.6-0.4,1.2-0.6,1.9-0.8c0.7-0.2,1.4-0.3,2.2-0.3c0.9,0,1.8,0.2,2.6,0.5c0.8,0.3,1.4,0.8,1.9,1.4c0.5,0.6,0.9,1.3,1.2,2
					C124.8,29.7,124.9,30.5,124.9,31.4z M121.6,31.5c0-0.6-0.1-1.1-0.2-1.6s-0.4-0.9-0.6-1.2c-0.3-0.3-0.6-0.6-1-0.8
					s-0.8-0.3-1.4-0.3c-0.7,0-1.3,0.1-1.8,0.4s-1,0.7-1.3,1.1c-0.4,0.5-0.6,1.1-0.8,1.8c-0.2,0.7-0.3,1.5-0.3,2.3
					c0,0.6,0.1,1.1,0.2,1.6s0.3,0.9,0.6,1.2c0.3,0.3,0.6,0.6,1,0.8s0.9,0.3,1.4,0.3c0.7,0,1.3-0.1,1.8-0.4c0.5-0.3,1-0.7,1.3-1.1
					c0.4-0.5,0.7-1.1,0.8-1.8C121.5,33.1,121.6,32.4,121.6,31.5z"/>
				<path class="st0" d="M133.3,39.5l0.7-5.8h-1c-0.1,0-0.3,0-0.4,0.1c-0.1,0-0.2,0.1-0.4,0.2c-0.1,0.1-0.2,0.2-0.3,0.3
					s-0.2,0.3-0.3,0.5l-2.2,3.7c-0.2,0.3-0.5,0.6-0.9,0.8c-0.4,0.2-0.8,0.3-1.2,0.3h-2.4l3.2-4.9c0.5-0.7,1.1-1.2,1.8-1.5
					c-0.4-0.1-0.7-0.3-1-0.5s-0.5-0.5-0.7-0.7c-0.2-0.3-0.3-0.6-0.4-0.9c-0.1-0.3-0.1-0.7-0.1-1c0-0.7,0.1-1.3,0.4-1.9
					c0.3-0.6,0.6-1.1,1.1-1.5s1.1-0.8,1.8-1c0.7-0.2,1.5-0.4,2.4-0.4h5l-1.8,14.4h-3.3V39.5z M130.8,29.8c0,0.2,0,0.4,0.1,0.6
					c0.1,0.2,0.1,0.3,0.3,0.5c0.1,0.1,0.3,0.2,0.5,0.3c0.2,0.1,0.5,0.1,0.8,0.1h1.8l0.5-3.7H133c-0.4,0-0.7,0.1-1,0.2
					c-0.3,0.1-0.5,0.3-0.7,0.4c-0.2,0.2-0.3,0.4-0.4,0.7C130.8,29.2,130.8,29.5,130.8,29.8z"/>
				<path class="st0" d="M151.3,25.2l-0.3,2.5h-3.7l-1.5,11.8h-3.2l1.5-11.8h-3.7l0.3-2.5H151.3z"/>
				<path class="st0" d="M163.7,39.5h-3.3l0.8-6.1H156l-0.8,6.1H152l1.8-14.4h3.3l-0.8,6.1h5.2l0.8-6.1h3.3L163.7,39.5z"/>
				<path class="st0" d="M172.2,25.2l-0.7,5.8h1.7c0.8,0,1.6,0.1,2.2,0.3c0.6,0.2,1.1,0.4,1.4,0.8c0.4,0.3,0.6,0.7,0.8,1.1
					s0.2,0.9,0.2,1.3c0,0.7-0.1,1.4-0.4,2.1c-0.3,0.6-0.6,1.2-1.1,1.6s-1.1,0.8-1.8,1s-1.5,0.4-2.4,0.4h-4.9l1.8-14.4
					C169,25.2,172.2,25.2,172.2,25.2z M171.1,33.4l-0.5,3.7h1.7c0.4,0,0.7-0.1,1-0.2c0.3-0.1,0.5-0.3,0.7-0.5
					c0.2-0.2,0.3-0.4,0.4-0.7c0.1-0.3,0.1-0.6,0.1-0.9c0-0.2,0-0.4-0.1-0.6c-0.1-0.2-0.1-0.3-0.3-0.5c-0.1-0.1-0.3-0.2-0.5-0.3
					c-0.2-0.1-0.5-0.1-0.8-0.1h-1.7V33.4z M181.6,39.5h-3.3l1.8-14.4h3.3L181.6,39.5z"/>
				<path class="st0" d="M194.5,26.1c0.1-0.1,0.2-0.2,0.3-0.3c0.1-0.1,0.2-0.2,0.4-0.3c0.1-0.1,0.3-0.2,0.4-0.2
					c0.1-0.1,0.3-0.1,0.5-0.1h2.4l-1.8,14.4h-3.2l1-8c0.1-0.4,0.1-0.7,0.2-1.1c0.1-0.4,0.2-0.8,0.3-1.3c-0.2,0.4-0.4,0.8-0.6,1.1
					c-0.2,0.3-0.4,0.6-0.6,0.9l-4.7,7.4c-0.1,0.1-0.2,0.2-0.3,0.3c-0.1,0.1-0.2,0.2-0.4,0.3c-0.1,0.1-0.3,0.2-0.4,0.2
					c-0.1,0.1-0.3,0.1-0.5,0.1H185l1.8-14.4h3.2l-1,7.9c-0.1,0.4-0.1,0.8-0.2,1.2c-0.1,0.4-0.2,0.8-0.3,1.3c0.2-0.4,0.4-0.8,0.6-1.1
					c0.2-0.4,0.4-0.7,0.6-0.9L194.5,26.1z M192.9,22.9c0.2,0,0.4,0,0.5-0.1c0.1,0,0.2-0.1,0.3-0.2s0.2-0.2,0.2-0.4s0.1-0.4,0.1-0.7
					h1.7c0.1,0,0.2,0,0.2,0.1c0.1,0,0.1,0.1,0.2,0.2c0,0.1,0.1,0.2,0.1,0.3s0,0.2,0,0.3c0,0.3-0.2,0.6-0.3,0.9
					c-0.2,0.3-0.4,0.5-0.8,0.6c-0.3,0.2-0.7,0.3-1.1,0.4c-0.4,0.1-0.9,0.1-1.3,0.1c-0.5,0-0.9,0-1.3-0.1c-0.4-0.1-0.7-0.2-1-0.4
					c-0.3-0.2-0.5-0.4-0.6-0.6c-0.1-0.3-0.2-0.6-0.1-0.9c0-0.1,0-0.2,0.1-0.3c0-0.1,0.1-0.2,0.1-0.3c0.1-0.1,0.1-0.1,0.2-0.2
					c0.1,0,0.2-0.1,0.3-0.1h1.7c0,0.3,0,0.5,0,0.7c0,0.2,0,0.3,0.1,0.4s0.2,0.2,0.3,0.2C192.5,22.9,192.7,22.9,192.9,22.9z"/>
				<path class="st0" d="M208.8,34.7l-0.6,4.8H205l1.8-14.4h4.8c0.9,0,1.6,0.1,2.2,0.3c0.6,0.2,1.1,0.5,1.5,0.9
					c0.4,0.4,0.7,0.8,0.9,1.3s0.3,1,0.3,1.6c0,0.8-0.1,1.5-0.4,2.2c-0.2,0.7-0.6,1.2-1.1,1.7s-1.1,0.9-1.9,1.1
					c-0.8,0.3-1.7,0.4-2.7,0.4h-1.6V34.7z M209.7,27.6l-0.6,4.7h1.6c0.5,0,0.9-0.1,1.2-0.2c0.3-0.1,0.6-0.3,0.8-0.6
					c0.2-0.2,0.3-0.5,0.4-0.9c0.1-0.3,0.1-0.7,0.1-1.1c0-0.3,0-0.5-0.1-0.8c-0.1-0.2-0.2-0.4-0.4-0.6s-0.4-0.3-0.6-0.4
					c-0.2-0.1-0.5-0.1-0.9-0.1C211.2,27.6,209.7,27.6,209.7,27.6z"/>
				<path class="st0" d="M227.8,27.7h-5.4l-0.4,3.5h4.1l-0.3,2.4h-4.1l-0.4,3.6h5.4l-0.3,2.5h-8.6l1.8-14.4h8.6L227.8,27.7z"/>
				<path class="st0" d="M239.1,28.4c0,0.4,0,0.7-0.1,1.1c-0.1,0.4-0.2,0.7-0.4,1s-0.4,0.6-0.7,0.8c-0.3,0.3-0.7,0.5-1.1,0.6
					c0.6,0.3,1.1,0.7,1.4,1.2c0.3,0.5,0.5,1.1,0.5,1.7c0,0.7-0.1,1.3-0.4,1.9c-0.3,0.6-0.6,1.1-1.1,1.5s-1.1,0.8-1.7,1
					c-0.7,0.3-1.4,0.4-2.3,0.4c-0.5,0-1,0-1.5-0.1s-1-0.2-1.4-0.4c-0.4-0.2-0.8-0.4-1.2-0.6s-0.7-0.5-0.9-0.8l1.1-1.5
					c0.1-0.1,0.2-0.2,0.3-0.3s0.3-0.1,0.4-0.1c0.2,0,0.4,0.1,0.6,0.2c0.2,0.1,0.4,0.3,0.6,0.4c0.2,0.2,0.5,0.3,0.8,0.4
					c0.3,0.1,0.7,0.2,1.2,0.2c0.7,0,1.3-0.2,1.7-0.5c0.4-0.4,0.6-0.9,0.6-1.7c0-0.5-0.2-0.9-0.5-1.2c-0.4-0.3-0.9-0.4-1.6-0.4h-1.9
					l0.3-2.5h1.7c0.8,0,1.5-0.2,1.9-0.5s0.6-0.8,0.6-1.4c0-0.4-0.1-0.7-0.4-1c-0.3-0.2-0.7-0.4-1.3-0.4c-0.4,0-0.7,0-1,0.1
					s-0.6,0.2-0.8,0.3c-0.3,0.1-0.5,0.2-0.7,0.3s-0.4,0.1-0.5,0.1c-0.2,0-0.3,0-0.4-0.1c-0.1-0.1-0.2-0.2-0.3-0.3l-0.6-1.5
					c0.6-0.5,1.4-0.8,2.2-1.1c0.8-0.3,1.7-0.4,2.6-0.4c0.7,0,1.3,0.1,1.9,0.3c0.5,0.2,1,0.4,1.4,0.7c0.4,0.3,0.7,0.7,0.9,1.1
					C239,27.5,239.1,28,239.1,28.4z"/>
				<path class="st0" d="M243.2,37.1c0.1,0,0.3-0.1,0.4-0.1c0.1-0.1,0.3-0.2,0.4-0.3c0.1-0.1,0.3-0.3,0.4-0.6l0.5-0.9l-4.1-10h3
					c0.3,0,0.5,0.1,0.6,0.2c0.1,0.1,0.3,0.3,0.3,0.5l1.3,4.5c0.1,0.4,0.2,0.7,0.3,1.1c0.1,0.4,0.2,0.7,0.2,1.1
					c0.1-0.4,0.3-0.7,0.5-1.1c0.2-0.4,0.4-0.7,0.5-1.1l2.2-4.5c0.1-0.2,0.3-0.3,0.4-0.5c0.2-0.1,0.4-0.2,0.7-0.2h2.7l-6.9,12.3
					c-0.3,0.5-0.5,0.8-0.8,1.1c-0.3,0.3-0.6,0.5-0.8,0.7c-0.3,0.2-0.6,0.3-0.9,0.3c-0.3,0.1-0.6,0.1-0.9,0.1c-0.6,0-1-0.1-1.3-0.2
					s-0.4-0.3-0.4-0.6l0.2-1.7h0.8C242.9,37.2,243,37.2,243.2,37.1z"/>
				<path class="st0" d="M265.6,25.2l-1.8,14.4h-3.2l1.5-12h-2.8c-0.3,1.8-0.6,3.3-1,4.6c-0.3,1.3-0.7,2.4-1,3.3
					c-0.3,0.9-0.7,1.6-1.1,2.2c-0.4,0.6-0.7,1-1.1,1.3c-0.4,0.3-0.8,0.5-1.2,0.6s-0.8,0.2-1.3,0.2c-0.6,0-0.9,0-1.2-0.1
					c-0.2-0.1-0.3-0.2-0.3-0.4l0.2-1.9h0.8c0.1,0,0.3,0,0.4,0c0.1,0,0.3-0.1,0.5-0.2c0.2-0.1,0.3-0.3,0.5-0.5
					c0.2-0.2,0.4-0.5,0.5-0.9c0.2-0.4,0.4-0.9,0.6-1.5c0.2-0.6,0.4-1.3,0.6-2.1c0.2-0.8,0.4-1.8,0.6-2.9c0.2-1.1,0.4-2.4,0.6-3.8
					h9.2V25.2z"/>
				<path class="st0" d="M272.2,25.2l-0.7,5.8h1.7c0.8,0,1.6,0.1,2.2,0.3c0.6,0.2,1.1,0.4,1.4,0.8c0.4,0.3,0.6,0.7,0.8,1.1
					c0.2,0.4,0.2,0.9,0.2,1.3c0,0.7-0.1,1.4-0.4,2.1c-0.3,0.6-0.6,1.2-1.1,1.6s-1.1,0.8-1.8,1c-0.7,0.2-1.5,0.4-2.4,0.4h-4.9
					l1.8-14.4H272.2z M271.2,33.4l-0.5,3.7h1.7c0.4,0,0.7-0.1,1-0.2c0.3-0.1,0.5-0.3,0.7-0.5c0.2-0.2,0.3-0.4,0.4-0.7
					c0.1-0.3,0.1-0.6,0.1-0.9c0-0.2,0-0.4-0.1-0.6c-0.1-0.2-0.1-0.3-0.3-0.5c-0.1-0.1-0.3-0.2-0.5-0.3c-0.2-0.1-0.5-0.1-0.8-0.1
					h-1.7V33.4z"/>
				<path class="st0" d="M289.5,25.2l-0.3,2.5h-3.7L284,39.5h-3.2l1.5-11.8h-3.7l0.3-2.5H289.5z"/>
				<path class="st0" d="M301.1,39.5h-2.5c-0.3,0-0.5-0.1-0.7-0.2s-0.3-0.3-0.3-0.5l-0.4-2.6h-4.9l-1.1,2.6
					c-0.1,0.2-0.2,0.3-0.4,0.5c-0.2,0.1-0.4,0.2-0.7,0.2h-2.5l6.9-14.4h3.3L301.1,39.5z M293.1,34.1h3.6L296,30
					c-0.1-0.3-0.1-0.6-0.2-0.9c-0.1-0.3-0.1-0.7-0.2-1.1c-0.2,0.4-0.3,0.8-0.5,1.1c-0.2,0.4-0.3,0.7-0.4,0.9L293.1,34.1z"/>
				<path class="st0" d="M313,25.2l-0.3,2.5H309l-1.5,11.8h-3.2l1.5-11.8h-3.7l0.3-2.5H313z"/>
			</g>
			<g>
				<path class="st0" d="M257.2,136.8l-2.4,19.2h3.2l-0.9,6.9c0,0.3-0.2,0.5-0.4,0.7s-0.5,0.3-0.8,0.3h-2.1l0.7-5.3h-15.4l-0.5,4.3
					c0,0.3-0.2,0.5-0.4,0.7s-0.5,0.3-0.8,0.3h-2.1l1-8h2.1c0.3-0.1,0.6-0.4,0.9-0.7c0.3-0.3,0.6-0.8,1-1.4c0.3-0.6,0.7-1.4,1-2.3
					c0.3-0.9,0.7-2.1,1.1-3.5c0.4-1.4,0.7-3,1.1-4.8c0.4-1.9,0.7-4,1.1-6.4C244.6,136.8,257.2,136.8,257.2,136.8z M247.5,139.5
					c-0.4,2.3-0.8,4.4-1.2,6.2s-0.9,3.3-1.3,4.7c-0.4,1.3-0.9,2.5-1.3,3.4c-0.5,0.9-0.9,1.7-1.4,2.3h9.1l2.1-16.5L247.5,139.5
					L247.5,139.5z"/>
				<path class="st0" d="M280.2,158.7h-3.5l1.2-9.8h-10l-1.2,9.8h-3.5l2.7-21.9h3.5l-1.2,9.6h10l1.2-9.6h3.5L280.2,158.7z"/>
				<path class="st0" d="M303.1,136.8l-0.4,2.8h-9.2l-0.8,6.7h7.4l-0.4,2.7h-7.4l-0.9,6.9h9.3l-0.4,2.8h-12.7l2.7-21.9
					C290.3,136.8,303.1,136.8,303.1,136.8z"/>
				<path class="st0" d="M321.9,137.8c0.1-0.1,0.2-0.3,0.3-0.4c0.1-0.1,0.3-0.2,0.4-0.3s0.3-0.2,0.5-0.2c0.2-0.1,0.3-0.1,0.5-0.1
					h2.6l-2.7,21.9H320l1.8-14.4c0.1-0.5,0.1-1,0.2-1.5s0.2-1.1,0.4-1.6c-0.2,0.5-0.5,1-0.8,1.4s-0.5,0.8-0.7,1.1l-10.1,13.9
					c-0.1,0.1-0.2,0.3-0.3,0.4c-0.1,0.1-0.3,0.2-0.4,0.3s-0.3,0.2-0.5,0.3s-0.3,0.1-0.5,0.1h-2.6l2.7-21.9h3.5l-1.8,14.4
					c-0.1,0.5-0.1,1-0.2,1.5s-0.2,1.1-0.4,1.6c0.2-0.5,0.5-1,0.8-1.4s0.5-0.8,0.8-1.1L321.9,137.8z M318.1,133.8
					c0.4,0,0.7,0,0.9-0.1c0.3-0.1,0.5-0.2,0.7-0.4s0.3-0.4,0.4-0.8c0.1-0.3,0.2-0.7,0.2-1.2h1.8c0.2,0,0.4,0.1,0.5,0.3
					c0.1,0.2,0.1,0.4,0.1,0.7c-0.1,0.5-0.2,1-0.5,1.4c-0.3,0.4-0.6,0.7-1,1c-0.4,0.3-0.9,0.5-1.4,0.6c-0.6,0.1-1.2,0.2-1.8,0.2
					c-0.7,0-1.3-0.1-1.8-0.2s-1-0.3-1.3-0.6c-0.3-0.3-0.6-0.6-0.8-1c-0.2-0.4-0.2-0.8-0.1-1.4c0-0.2,0.1-0.5,0.2-0.7
					s0.3-0.3,0.5-0.3h1.8c-0.1,0.5-0.1,0.9,0,1.2c0,0.3,0.1,0.6,0.2,0.8s0.3,0.3,0.6,0.4C317.4,133.7,317.7,133.8,318.1,133.8z"/>
			</g>
			<g>
				<path class="st0" d="M38.7,84.3c0.5-0.3,1-0.9,1.5-1.8l1.5-2.7l-7.5-18.7h3.1c0.3,0,0.5,0.1,0.7,0.2c0.2,0.1,0.3,0.3,0.4,0.6
					L42.9,74c0.1,0.5,0.3,1,0.4,1.4c0.1,0.5,0.2,0.9,0.3,1.4c0.2-0.5,0.4-1,0.6-1.4c0.2-0.5,0.5-0.9,0.7-1.4l6.5-12.1
					c0.1-0.2,0.3-0.4,0.5-0.6c0.2-0.2,0.5-0.2,0.8-0.2h2.9L42.9,84c-0.4,0.7-0.8,1.3-1.2,1.8s-0.8,0.8-1.3,1.1
					c-0.4,0.3-0.9,0.5-1.3,0.6c-0.5,0.1-0.9,0.2-1.4,0.2c-0.7,0-1.3-0.1-1.6-0.2c-0.4-0.1-0.5-0.4-0.5-0.7l0.2-1.9H37
					C37.6,84.8,38.2,84.6,38.7,84.3z"/>
				<path class="st0" d="M62.5,61.1c0.4,0,0.7,0.1,1,0.3s0.5,0.4,0.6,0.8l4.8,9.2c0.3,0.6,0.6,0.9,1,1.1c0.4,0.2,0.8,0.3,1.3,0.3
					h2.4L75,61.1h3.3l-1.4,11.6h2.4c0.5,0,1-0.1,1.4-0.3c0.4-0.2,0.8-0.5,1.2-1.1l7.1-9.2c0.2-0.3,0.5-0.6,0.8-0.8s0.7-0.3,1-0.3
					h2.7l-8.3,10.6c-0.4,0.5-0.8,0.9-1.2,1.3c-0.4,0.3-0.8,0.6-1.4,0.7c0.6,0.2,1,0.5,1.4,0.8c0.4,0.3,0.7,0.9,1,1.5l5.7,11.4h-2.3
					c-0.5,0-0.9-0.1-1.3-0.3c-0.3-0.2-0.6-0.5-0.8-0.9l-4.9-9.4c-0.2-0.5-0.5-0.9-0.9-1.1s-0.8-0.3-1.4-0.3h-2.8L75,87.4h-3.3
					l1.5-12.1h-2.8c-0.6,0-1.1,0.1-1.5,0.3c-0.4,0.2-0.8,0.6-1.2,1.1l-7.2,9.4c-0.3,0.4-0.6,0.7-1,0.9c-0.4,0.2-0.8,0.3-1.3,0.3
					h-2.3L64.5,76c0.4-0.6,0.9-1.1,1.4-1.5s1-0.7,1.6-0.8c-0.5-0.2-0.9-0.4-1.2-0.7c-0.3-0.3-0.6-0.7-0.9-1.3l-5.7-10.6H62.5z"/>
				<path class="st0" d="M115.4,63.9h-11.6l-1.1,8.9h9.4l-0.4,2.7h-9.4l-1.1,9.1h11.7l-0.4,2.8H97.4l3.3-26.3h15.1L115.4,63.9z"/>
				<path class="st0" d="M148.5,66.8c0,1.6-0.4,2.9-1.3,4.1c-0.8,1.1-2,2-3.5,2.5c1.3,0.5,2.3,1.2,2.9,2.2c0.7,1,1,2.1,1,3.4
					c0,1.2-0.2,2.3-0.7,3.4c-0.4,1.1-1.1,2-1.9,2.8c-0.8,0.8-1.8,1.4-3,1.9s-2.5,0.7-4,0.7c-1.8,0-3.4-0.3-4.8-0.9s-2.5-1.5-3.4-2.5
					l1.2-1.6c0.1-0.1,0.2-0.2,0.4-0.3c0.1-0.1,0.3-0.1,0.5-0.1s0.5,0.1,0.8,0.4s0.7,0.6,1.2,0.9s1.1,0.6,1.8,0.9s1.6,0.4,2.6,0.4
					s1.8-0.1,2.6-0.4s1.4-0.7,2-1.2c0.5-0.5,0.9-1.1,1.2-1.8c0.3-0.7,0.4-1.5,0.4-2.4c0-0.6-0.1-1.2-0.3-1.7s-0.5-1-0.9-1.3
					c-0.4-0.4-0.9-0.7-1.5-0.9s-1.3-0.3-2.1-0.3h-3.3l0.4-2.8h3.2c0.8,0,1.5-0.1,2.1-0.3c0.7-0.2,1.2-0.5,1.7-0.9
					c0.5-0.4,0.9-0.9,1.1-1.5c0.3-0.6,0.4-1.2,0.4-2c0-0.5-0.1-1-0.3-1.5c-0.2-0.4-0.5-0.8-0.8-1.2c-0.4-0.3-0.8-0.6-1.4-0.8
					c-0.5-0.2-1.2-0.3-1.9-0.3c-0.9,0-1.7,0.1-2.4,0.3c-0.7,0.2-1.3,0.4-1.7,0.7c-0.5,0.3-0.9,0.5-1.2,0.7c-0.3,0.2-0.6,0.3-0.8,0.3
					c-0.3,0-0.6-0.2-0.7-0.5l-0.6-1.6c1.1-0.9,2.3-1.5,3.6-2s2.8-0.7,4.3-0.7c1.2,0,2.2,0.2,3.1,0.5c0.9,0.3,1.7,0.7,2.3,1.2
					s1.1,1.2,1.4,1.9C148.4,65.1,148.5,65.9,148.5,66.8z"/>
				<path class="st0" d="M174.3,87.4h-2.7c-0.3,0-0.5-0.1-0.7-0.2c-0.2-0.2-0.3-0.4-0.4-0.6l-1.4-6.4h-10.8l-3,6.4
					c-0.1,0.2-0.3,0.4-0.5,0.6s-0.5,0.2-0.8,0.2h-2.7l13-26.3h3.5L174.3,87.4z M159.4,77.6h9.1l-2.4-10.9c-0.1-0.3-0.1-0.7-0.2-1.1
					c-0.1-0.4-0.2-0.9-0.2-1.4c-0.2,0.5-0.4,1-0.6,1.4c-0.2,0.4-0.3,0.8-0.5,1.1L159.4,77.6z"/>
			</g>
		</g>
	</g>
</g>
</svg>
