<?xml version="1.0" encoding="utf-8"?>
<!-- Generator: Adobe Illustrator 19.0.0, SVG Export Plug-In . SVG Version: 6.00 Build 0)  -->
<svg version="1.1" id="Слой_1" xmlns="http://www.w3.org/2000/svg" xmlns:xlink="http://www.w3.org/1999/xlink" x="0px" y="0px"
	 viewBox="19 18 344 156" style="enable-background:new 19 18 344 156;" xml:space="preserve">
<style type="text/css">
	.st0{fill:#FFFFFF;}
	.st1{fill:#E63B23;}
</style>
<g>
	
		<image style="overflow:visible;opacity:0.54;" width="350" height="162" xlink:href="img/svg/67EA86AC5A79D000.png"  transform="matrix(1 0 0 1 17 18)">
	</image>
	<g>
		<g>
			<g>
				<path class="st0" d="M36.6,132.2c1.5,0,2.9-0.1,4.1-0.4c1.2-0.3,2.3-0.6,3.3-1c0.9-0.4,1.8-0.8,2.4-1.3c0.7-0.4,1.3-0.9,1.8-1.3
					c0.5-0.4,0.9-0.7,1.2-1c0.3-0.3,0.5-0.4,0.7-0.4c0.2,0,0.3,0.1,0.4,0.2l1.1,1.3c-1.9,1.9-4.2,3.5-6.7,4.7s-5.5,1.7-8.8,1.7
					c-2.6,0-4.9-0.5-7-1.4c-2.1-0.9-3.8-2.2-5.3-3.9s-2.6-3.7-3.4-6.1c-0.8-2.4-1.2-5-1.2-7.9c0-3.9,0.6-7.4,1.8-10.6s2.8-6,4.9-8.3
					s4.5-4.1,7.3-5.3c2.8-1.3,5.8-1.9,9.1-1.9c1.5,0,2.9,0.1,4.1,0.4c1.2,0.2,2.3,0.6,3.4,1c1,0.5,2,1,2.8,1.7
					c0.9,0.7,1.7,1.5,2.5,2.4l-1,1.3c-0.2,0.3-0.5,0.4-0.8,0.4c-0.2,0-0.4-0.1-0.6-0.3c-0.2-0.2-0.5-0.5-0.9-0.8s-0.8-0.7-1.4-1.1
					c-0.5-0.4-1.2-0.7-2-1.1c-0.8-0.3-1.7-0.6-2.7-0.8c-1-0.2-2.2-0.3-3.6-0.3c-2.8,0-5.4,0.5-7.8,1.6c-2.4,1.1-4.5,2.6-6.2,4.6
					c-1.8,2-3.2,4.4-4.2,7.3s-1.5,6.1-1.5,9.6c0,2.6,0.3,4.9,1,7c0.7,2.1,1.7,3.8,2.9,5.3s2.7,2.6,4.5,3.3
					C32.7,131.8,34.6,132.2,36.6,132.2z"/>
				<path class="st0" d="M88.1,89.5c1.5,0,2.8,0.2,4.1,0.7c1.3,0.4,2.4,1.1,3.3,1.9c0.9,0.9,1.7,1.9,2.2,3.2
					c0.5,1.3,0.8,2.8,0.8,4.5c0,1.9-0.3,3.7-0.9,5.3c-0.6,1.6-1.4,3.1-2.4,4.5s-2.2,2.8-3.5,4.2c-1.3,1.3-2.7,2.7-4.2,4.2
					l-14.7,14.3c0.7-0.1,1.3-0.3,2.1-0.4c0.7-0.1,1.5-0.1,2.2-0.1h17.5c0.3,0,0.6,0.1,0.8,0.3c0.2,0.2,0.2,0.4,0.2,0.8l-0.2,1.7
					H68.7l0.2-1c0-0.2,0.1-0.5,0.2-0.7c0.1-0.2,0.3-0.4,0.5-0.6l15.9-15.4c1.5-1.4,2.8-2.8,4-4.1c1.2-1.3,2.3-2.6,3.2-3.9
					c0.9-1.3,1.6-2.7,2.1-4.1s0.8-2.9,0.8-4.6c0-1.4-0.2-2.6-0.6-3.6s-1-1.9-1.7-2.5c-0.7-0.7-1.6-1.2-2.5-1.5c-1-0.3-2-0.5-3-0.5
					c-1.3,0-2.5,0.2-3.6,0.6s-2.2,1-3.1,1.8c-0.9,0.8-1.7,1.7-2.4,2.7c-0.7,1.1-1.2,2.2-1.6,3.5c-0.2,0.4-0.4,0.7-0.6,0.9
					c-0.3,0.1-0.6,0.2-1,0.2l-1.5-0.2c0.5-1.9,1.2-3.6,2.1-5c0.9-1.5,2-2.7,3.2-3.8c1.2-1,2.6-1.8,4.1-2.4
					C84.8,89.8,86.4,89.5,88.1,89.5z"/>
				<path class="st0" d="M134.1,107.3c0,4.7-0.5,8.7-1.5,12.2s-2.3,6.3-3.9,8.6c-1.7,2.3-3.6,4-5.7,5.1c-2.2,1.1-4.4,1.7-6.8,1.7
					c-1.8,0-3.4-0.4-4.9-1.1c-1.5-0.7-2.8-1.9-3.9-3.3c-1.1-1.5-2-3.3-2.6-5.6c-0.6-2.2-0.9-4.8-0.9-7.8c0-4.6,0.5-8.7,1.5-12.1
					s2.3-6.3,3.9-8.6c1.7-2.3,3.6-4,5.7-5.1c2.2-1.1,4.4-1.7,6.8-1.7c1.8,0,3.4,0.4,4.9,1.1s2.8,1.9,3.9,3.3c1.1,1.5,2,3.3,2.6,5.6
					C133.8,101.8,134.1,104.4,134.1,107.3z M131.1,107.2c0-2.6-0.2-4.9-0.7-6.8s-1.2-3.5-2.1-4.7c-0.9-1.2-1.9-2.2-3.1-2.8
					c-1.2-0.6-2.4-0.9-3.8-0.9c-1.9,0-3.7,0.5-5.4,1.4c-1.8,1-3.3,2.5-4.7,4.5c-1.4,2-2.4,4.7-3.3,7.8c-0.8,3.2-1.2,7-1.2,11.4
					c0,2.6,0.2,4.9,0.7,6.8s1.2,3.5,2.1,4.7c0.9,1.2,1.9,2.2,3.1,2.8s2.4,0.9,3.8,0.9c1.9,0,3.7-0.5,5.4-1.4c1.8-1,3.3-2.5,4.7-4.5
					c1.4-2,2.4-4.6,3.3-7.8C130.7,115.4,131.1,111.6,131.1,107.2z"/>
				<path class="st0" d="M141.7,132.1h9.4l4.5-36.2c0-0.4,0.1-0.7,0.2-1.1c0.1-0.4,0.1-0.7,0.2-1.1l-10,8.7
					c-0.3,0.2-0.6,0.3-0.9,0.3c-0.3-0.1-0.5-0.2-0.6-0.3l-0.7-1.2L157,89.8h2.3l-5.2,42.3h8.9l-0.3,2.2h-21.3L141.7,132.1z"/>
				<path class="st0" d="M190.4,89.5c1.5,0,2.8,0.2,4.1,0.6s2.3,1,3.3,1.8c0.9,0.8,1.7,1.8,2.2,3s0.8,2.6,0.8,4.2
					c0,1.7-0.3,3.2-0.8,4.5s-1.2,2.5-2.1,3.5c-0.9,1-1.9,1.8-3,2.5c-1.2,0.7-2.4,1.2-3.8,1.5c1.3,0.3,2.5,0.7,3.5,1.3
					c1,0.6,1.8,1.3,2.5,2.1c0.7,0.8,1.2,1.7,1.5,2.8c0.3,1,0.5,2.2,0.5,3.4c0,2-0.4,3.9-1.2,5.6s-1.9,3.2-3.2,4.5
					c-1.4,1.3-2.9,2.3-4.7,3s-3.7,1.1-5.7,1.1c-2.3,0-4.2-0.3-5.7-1c-1.5-0.7-2.7-1.6-3.5-2.6c-0.9-1.1-1.5-2.3-1.9-3.7
					c-0.4-1.3-0.7-2.7-0.9-4l1.2-0.5c0.4-0.1,0.7-0.2,1.1-0.1c0.3,0.1,0.6,0.3,0.7,0.7c0.1,0.3,0.2,0.6,0.3,1.2
					c0.1,0.5,0.3,1.1,0.5,1.8c0.2,0.6,0.5,1.3,0.9,2c0.4,0.7,0.9,1.3,1.6,1.9c0.7,0.6,1.5,1,2.5,1.4c1,0.4,2.2,0.5,3.6,0.5
					c1.9,0,3.5-0.3,5-1c1.5-0.7,2.7-1.6,3.7-2.7c1-1.1,1.8-2.4,2.3-3.7c0.5-1.4,0.8-2.7,0.8-4.1c0-1.1-0.2-2.2-0.6-3.2
					c-0.4-1-1-1.8-1.8-2.6c-0.9-0.7-2-1.3-3.3-1.7c-1.4-0.4-3-0.6-5-0.6l0.3-2.1c1.9,0,3.6-0.3,5.1-0.8s2.8-1.3,3.8-2.2
					c1-0.9,1.8-2.1,2.4-3.4c0.5-1.3,0.8-2.8,0.8-4.4c0-1.3-0.2-2.5-0.6-3.4c-0.4-1-1-1.8-1.7-2.4s-1.5-1.1-2.5-1.4
					c-0.9-0.3-2-0.5-3-0.5c-1.3,0-2.5,0.2-3.6,0.6s-2.2,1-3.1,1.8c-0.9,0.8-1.7,1.7-2.4,2.7c-0.7,1.1-1.2,2.2-1.6,3.5
					c-0.2,0.4-0.4,0.7-0.6,0.9c-0.2,0.1-0.6,0.2-1,0.2l-1.5-0.2c0.5-1.9,1.2-3.6,2.1-5c0.9-1.5,2-2.7,3.2-3.8c1.2-1,2.6-1.8,4.1-2.4
					C187.1,89.8,188.7,89.5,190.4,89.5z"/>
				<path class="st0" d="M249.1,92.5h-21l-5.2,41.8h-3.2l5.5-44.3h24.1L249.1,92.5z"/>
				<path class="st0" d="M286.3,108.8c0,3.9-0.6,7.5-1.7,10.7s-2.7,5.9-4.8,8.2c-2,2.3-4.5,4-7.2,5.3c-2.8,1.3-5.8,1.9-9,1.9
					c-2.6,0-5-0.5-7.1-1.4c-2.1-0.9-3.9-2.2-5.4-3.9c-1.5-1.7-2.6-3.7-3.4-6.1c-0.8-2.4-1.2-5-1.2-7.8c0-3.9,0.6-7.4,1.7-10.6
					c1.2-3.2,2.8-6,4.8-8.2c2-2.3,4.4-4.1,7.2-5.3c2.8-1.3,5.8-1.9,9-1.9c2.6,0,5,0.5,7.1,1.4c2.1,0.9,3.9,2.2,5.4,3.9
					c1.5,1.7,2.6,3.7,3.4,6.1C285.9,103.3,286.3,105.9,286.3,108.8z M283,108.8c0-2.6-0.3-4.9-1-6.9c-0.7-2.1-1.6-3.8-2.9-5.3
					c-1.2-1.5-2.7-2.6-4.5-3.4c-1.8-0.8-3.7-1.2-5.9-1.2c-2.7,0-5.3,0.5-7.6,1.6s-4.4,2.6-6.1,4.7c-1.7,2-3.1,4.5-4,7.4
					c-1,2.9-1.5,6.1-1.5,9.7c0,2.6,0.3,4.9,1,6.9c0.7,2.1,1.6,3.8,2.9,5.2c1.2,1.4,2.7,2.6,4.5,3.3c1.7,0.8,3.7,1.2,5.9,1.2
					c2.8,0,5.3-0.5,7.7-1.6c2.3-1.1,4.4-2.6,6.1-4.7c1.7-2,3-4.5,4-7.3C282.5,115.7,283,112.5,283,108.8z"/>
				<path class="st0" d="M323.9,90l-5.2,41.8h7.1l-1.6,12.6c0,0.3-0.2,0.5-0.4,0.7c-0.2,0.2-0.5,0.3-0.8,0.3h-1.8l1.4-11.1H286
					l-1.3,10.1c0,0.3-0.1,0.5-0.4,0.7c-0.2,0.2-0.5,0.3-0.8,0.3h-1.8l1.7-13.6h3.8c0.7-0.3,1.5-0.8,2.2-1.6c0.8-0.7,1.5-1.8,2.3-3.2
					c0.8-1.4,1.5-3.1,2.3-5.2s1.6-4.6,2.4-7.6s1.6-6.5,2.4-10.5s1.6-8.6,2.4-13.7L323.9,90L323.9,90z M304.1,92.5
					c-0.7,4.1-1.4,7.8-2.1,11.2c-0.7,3.4-1.4,6.4-2.1,9c-0.7,2.7-1.4,5-2.1,7.1s-1.4,3.9-2.1,5.4s-1.4,2.9-2.2,3.9
					c-0.7,1.1-1.5,2-2.2,2.7h24.2l4.9-39.3H304.1z"/>
				<path class="st0" d="M362.4,134.3H360c-0.3,0-0.5-0.1-0.7-0.2c-0.2-0.2-0.3-0.3-0.4-0.6l-3.2-13h-20l-6.4,13
					c-0.1,0.2-0.3,0.4-0.5,0.6s-0.5,0.2-0.8,0.2h-2.4L348,90h3.1L362.4,134.3z M336.8,118.3h18.3l-5.5-22.6
					c-0.1-0.4-0.2-0.8-0.3-1.2c-0.1-0.4-0.2-0.9-0.3-1.4c-0.2,0.5-0.4,1-0.6,1.4c-0.2,0.5-0.4,0.9-0.6,1.3L336.8,118.3z"/>
			</g>
			<polygon class="st1" points="328.7,51.5 75,51.5 80.8,18.4 334.5,18.4 			"/>
			<g>
				<path class="st0" d="M105.1,43.1h-3.3l1.5-12h-4.8l-1.5,12h-3.2l1.8-14.4h11.3L105.1,43.1z"/>
				<path class="st0" d="M118.6,31.2h-5.4l-0.4,3.5h4.1l-0.3,2.3h-4.1l-0.4,3.6h5.4l-0.3,2.5h-8.6l1.8-14.4h8.6L118.6,31.2z"/>
				<path class="st0" d="M123.8,38.2l-0.6,4.8H120l1.8-14.4h4.8c0.9,0,1.6,0.1,2.2,0.3c0.6,0.2,1.1,0.5,1.5,0.9
					c0.4,0.4,0.7,0.8,0.9,1.3c0.2,0.5,0.3,1,0.3,1.6c0,0.8-0.1,1.5-0.4,2.2c-0.2,0.7-0.6,1.2-1.1,1.7s-1.1,0.9-1.9,1.1
					c-0.8,0.3-1.7,0.4-2.7,0.4L123.8,38.2L123.8,38.2z M124.7,31.1l-0.6,4.7h1.6c0.5,0,0.9-0.1,1.2-0.2c0.3-0.1,0.6-0.3,0.8-0.6
					c0.2-0.2,0.3-0.5,0.4-0.9c0.1-0.3,0.1-0.7,0.1-1.1c0-0.3,0-0.5-0.1-0.8c-0.1-0.2-0.2-0.4-0.4-0.6c-0.2-0.2-0.4-0.3-0.6-0.4
					c-0.2-0.1-0.5-0.1-0.9-0.1C126.2,31.1,124.7,31.1,124.7,31.1z"/>
				<path class="st0" d="M132.6,43.1l1.8-14.4h5c0.8,0,1.6,0.1,2.2,0.2c0.6,0.2,1.1,0.4,1.5,0.7c0.4,0.3,0.7,0.6,0.8,1.1
					c0.2,0.4,0.3,0.9,0.3,1.4c0,0.4-0.1,0.8-0.2,1.1c-0.1,0.4-0.3,0.7-0.5,1c-0.2,0.3-0.5,0.6-0.9,0.8c-0.4,0.3-0.8,0.5-1.3,0.6
					c0.8,0.2,1.4,0.5,1.7,1c0.4,0.4,0.6,1,0.6,1.7c0,0.7-0.1,1.3-0.4,1.9s-0.6,1.1-1.1,1.5s-1.1,0.8-1.8,1c-0.7,0.2-1.5,0.4-2.3,0.4
					H132.6z M136.6,36.9l-0.5,3.7h2.1c0.4,0,0.7-0.1,1-0.2c0.3-0.1,0.5-0.3,0.7-0.5c0.2-0.2,0.3-0.4,0.4-0.7
					c0.1-0.3,0.1-0.6,0.1-0.9c0-0.2,0-0.4-0.1-0.6c-0.1-0.2-0.2-0.3-0.3-0.4s-0.3-0.2-0.5-0.3c-0.2-0.1-0.5-0.1-0.8-0.1H136.6z
					 M136.9,34.8h1.6c0.4,0,0.7,0,1-0.1c0.3-0.1,0.5-0.2,0.8-0.4c0.2-0.2,0.4-0.4,0.5-0.7c0.1-0.3,0.2-0.6,0.2-1.1s-0.1-0.9-0.4-1.1
					c-0.3-0.2-0.7-0.3-1.3-0.3h-1.7L136.9,34.8z"/>
				<path class="st0" d="M150.8,28.7l-0.7,5.8h1.7c0.8,0,1.6,0.1,2.2,0.3c0.6,0.2,1.1,0.4,1.4,0.8c0.4,0.3,0.6,0.7,0.8,1.1
					c0.2,0.4,0.2,0.9,0.2,1.3c0,0.7-0.1,1.4-0.4,2.1c-0.3,0.6-0.6,1.2-1.1,1.6c-0.5,0.4-1.1,0.8-1.8,1c-0.7,0.2-1.5,0.4-2.4,0.4
					h-4.9l1.8-14.4C147.6,28.7,150.8,28.7,150.8,28.7z M149.8,36.9l-0.5,3.7h1.7c0.4,0,0.7-0.1,1-0.2c0.3-0.1,0.5-0.3,0.7-0.5
					c0.2-0.2,0.3-0.4,0.4-0.7c0.1-0.3,0.1-0.6,0.1-0.9c0-0.2,0-0.4-0.1-0.6c-0.1-0.2-0.1-0.3-0.3-0.5c-0.1-0.1-0.3-0.2-0.5-0.3
					c-0.2-0.1-0.5-0.1-0.8-0.1h-1.7V36.9z M160.2,43.1H157l1.8-14.4h3.3L160.2,43.1z"/>
				<path class="st0" d="M173.2,29.6c0.1-0.1,0.2-0.2,0.3-0.3c0.1-0.1,0.2-0.2,0.4-0.3c0.1-0.1,0.3-0.2,0.4-0.2
					c0.1-0.1,0.3-0.1,0.5-0.1h2.4l-1.8,14.4h-3.2l1-8c0.1-0.4,0.1-0.7,0.2-1.1c0.1-0.4,0.2-0.8,0.3-1.3c-0.2,0.4-0.4,0.8-0.6,1.1
					c-0.2,0.3-0.4,0.6-0.6,0.9l-4.7,7.4c-0.1,0.1-0.2,0.2-0.3,0.3c-0.1,0.1-0.2,0.2-0.4,0.3c-0.1,0.1-0.3,0.2-0.4,0.2
					c-0.1,0.1-0.3,0.1-0.5,0.1h-2.4l1.8-14.4h3.2l-1,7.9c-0.1,0.4-0.1,0.8-0.2,1.2c-0.1,0.4-0.2,0.8-0.3,1.3
					c0.2-0.4,0.4-0.8,0.6-1.1c0.2-0.4,0.4-0.7,0.6-0.9L173.2,29.6z M171.6,26.5c0.2,0,0.4,0,0.5-0.1c0.1,0,0.2-0.1,0.3-0.2
					c0.1-0.1,0.2-0.2,0.2-0.4c0-0.2,0.1-0.4,0.1-0.7h1.7c0.1,0,0.2,0,0.2,0.1c0.1,0,0.1,0.1,0.2,0.2c0,0.1,0.1,0.2,0.1,0.3
					c0,0.1,0,0.2,0,0.3c0,0.3-0.2,0.6-0.3,0.9c-0.2,0.3-0.4,0.5-0.7,0.6c-0.3,0.2-0.7,0.3-1.1,0.4c-0.4,0.1-0.9,0.1-1.3,0.1
					c-0.5,0-0.9,0-1.3-0.1c-0.4-0.1-0.7-0.2-1-0.4s-0.5-0.4-0.6-0.6c-0.1-0.3-0.2-0.6-0.1-0.9c0-0.1,0-0.2,0.1-0.3
					c0-0.1,0.1-0.2,0.1-0.3c0.1-0.1,0.1-0.1,0.2-0.2c0.1,0,0.2-0.1,0.3-0.1h1.7c0,0.3,0,0.5,0,0.7s0,0.3,0.1,0.4s0.2,0.2,0.3,0.2
					C171.2,26.4,171.4,26.5,171.6,26.5z"/>
				<path class="st0" d="M195.4,43.1h-3.3l0.8-6.1h-5.2l-0.8,6.1h-3.3l1.8-14.4h3.3l-0.8,6.1h5.2l0.8-6.1h3.3L195.4,43.1z"/>
				<path class="st0" d="M210.9,43.1h-2.5c-0.3,0-0.5-0.1-0.7-0.2c-0.2-0.1-0.3-0.3-0.3-0.5l-0.4-2.6h-4.9l-1.1,2.6
					c-0.1,0.2-0.2,0.3-0.4,0.5c-0.2,0.1-0.4,0.2-0.7,0.2h-2.5l6.9-14.4h3.3L210.9,43.1z M203,37.6h3.6l-0.7-4.1
					c-0.1-0.3-0.1-0.6-0.2-0.9c-0.1-0.3-0.1-0.7-0.2-1.1c-0.2,0.4-0.3,0.8-0.5,1.1c-0.2,0.4-0.3,0.7-0.4,0.9L203,37.6z"/>
				<path class="st0" d="M220.4,40.7c0.1,0,0.3-0.1,0.4-0.1c0.1-0.1,0.3-0.2,0.4-0.3c0.1-0.1,0.3-0.3,0.4-0.6l0.5-0.9l-4.1-10h3
					c0.3,0,0.5,0.1,0.6,0.2c0.1,0.1,0.3,0.3,0.3,0.5l1.3,4.5c0.1,0.4,0.2,0.7,0.3,1.1c0.1,0.4,0.2,0.7,0.2,1.1
					c0.1-0.4,0.3-0.7,0.5-1.1c0.2-0.4,0.4-0.7,0.5-1.1l2.2-4.5c0.1-0.2,0.3-0.3,0.4-0.5c0.2-0.1,0.4-0.2,0.7-0.2h2.7L223.9,41
					c-0.3,0.5-0.5,0.8-0.8,1.1c-0.3,0.3-0.6,0.5-0.8,0.7c-0.3,0.2-0.6,0.3-0.9,0.3c-0.3,0.1-0.6,0.1-0.9,0.1c-0.6,0-1-0.1-1.3-0.2
					s-0.4-0.3-0.4-0.6l0.2-1.7h0.8C220.1,40.7,220.2,40.7,220.4,40.7z"/>
				<path class="st0" d="M235.3,34.6h1.1c0.2,0,0.4,0,0.6-0.1c0.2-0.1,0.3-0.3,0.5-0.5l2.8-4.4c0.2-0.2,0.4-0.4,0.6-0.6
					c0.2-0.2,0.5-0.2,0.8-0.2h2.8l-3.9,5.7c-0.2,0.3-0.4,0.5-0.6,0.6c-0.2,0.1-0.5,0.3-0.8,0.4c0.4,0.1,0.7,0.3,1,0.6
					c0.3,0.3,0.5,0.6,0.7,1.1l2.1,6h-3c-0.3,0-0.5-0.1-0.7-0.2c-0.2-0.2-0.3-0.4-0.5-0.7l-1.5-4.6c-0.1-0.3-0.3-0.5-0.4-0.6
					c-0.2-0.1-0.4-0.1-0.7-0.1H235l-0.8,6.2H231l1.8-14.4h3.2L235.3,34.6z"/>
				<path class="st0" d="M249,38.2l-0.6,4.8h-3.2l1.8-14.4h4.8c0.9,0,1.6,0.1,2.2,0.3c0.6,0.2,1.1,0.5,1.5,0.9
					c0.4,0.4,0.7,0.8,0.9,1.3s0.3,1,0.3,1.6c0,0.8-0.1,1.5-0.4,2.2c-0.2,0.7-0.6,1.2-1.1,1.7s-1.1,0.9-1.9,1.1
					c-0.8,0.3-1.7,0.4-2.7,0.4L249,38.2L249,38.2z M249.8,31.1l-0.6,4.7h1.6c0.5,0,0.9-0.1,1.2-0.2s0.6-0.3,0.8-0.6
					c0.2-0.2,0.3-0.5,0.4-0.9c0.1-0.3,0.1-0.7,0.1-1.1c0-0.3,0-0.5-0.1-0.8c-0.1-0.2-0.2-0.4-0.4-0.6s-0.4-0.3-0.6-0.4
					c-0.2-0.1-0.5-0.1-0.9-0.1C251.3,31.1,249.8,31.1,249.8,31.1z"/>
				<path class="st0" d="M269,43.1h-2.5c-0.3,0-0.5-0.1-0.7-0.2c-0.2-0.1-0.3-0.3-0.3-0.5l-0.4-2.6h-4.9l-1.1,2.6
					c-0.1,0.2-0.2,0.3-0.4,0.5c-0.2,0.1-0.4,0.2-0.7,0.2h-2.5l6.9-14.4h3.3L269,43.1z M261.1,37.6h3.6l-0.7-4.1
					c-0.1-0.3-0.1-0.6-0.2-0.9c-0.1-0.3-0.1-0.7-0.2-1.1c-0.2,0.4-0.3,0.8-0.5,1.1c-0.2,0.4-0.3,0.7-0.4,0.9L261.1,37.6z"/>
				<path class="st0" d="M280.5,29.6c0.1-0.1,0.2-0.2,0.3-0.3c0.1-0.1,0.2-0.2,0.4-0.3c0.1-0.1,0.3-0.2,0.4-0.2
					c0.1-0.1,0.3-0.1,0.5-0.1h2.4l-1.8,14.4h-3.2l1-8c0.1-0.4,0.1-0.7,0.2-1.1c0.1-0.4,0.2-0.8,0.3-1.3c-0.2,0.4-0.4,0.8-0.6,1.1
					s-0.4,0.6-0.6,0.9l-4.7,7.4c-0.1,0.1-0.2,0.2-0.3,0.3c-0.1,0.1-0.2,0.2-0.4,0.3c-0.1,0.1-0.3,0.2-0.4,0.2
					c-0.1,0.1-0.3,0.1-0.5,0.1h-2.4l1.8-14.4h3.2l-1,7.9c-0.1,0.4-0.1,0.8-0.2,1.2c-0.1,0.4-0.2,0.8-0.3,1.3
					c0.2-0.4,0.4-0.8,0.6-1.1c0.2-0.4,0.4-0.7,0.6-0.9L280.5,29.6z"/>
				<path class="st0" d="M297.8,43.1h-3.3l0.8-6.1h-5.2l-0.8,6.1H286l1.8-14.4h3.3l-0.8,6.1h5.2l0.8-6.1h3.3L297.8,43.1z"/>
				<path class="st0" d="M311.4,31.2H306l-0.4,3.5h4.1l-0.3,2.4h-4.1l-0.4,3.6h5.4l-0.3,2.5h-8.6l1.8-14.4h8.6L311.4,31.2z"/>
			</g>
			<g>
				<path class="st0" d="M96.7,60.2l-0.3,2.3h-3.3l-1.3,10.6h-2.9l1.3-10.6h-3.3l0.3-2.3H96.7z"/>
				<path class="st0" d="M101.4,68.8l-0.5,4.3H98l1.6-12.9h4.3c0.8,0,1.4,0.1,2,0.3c0.5,0.2,1,0.4,1.4,0.8c0.4,0.3,0.6,0.7,0.8,1.2
					c0.2,0.4,0.2,0.9,0.2,1.4c0,0.7-0.1,1.4-0.3,2c-0.2,0.6-0.5,1.1-1,1.6c-0.4,0.4-1,0.8-1.7,1c-0.7,0.2-1.5,0.4-2.4,0.4
					L101.4,68.8L101.4,68.8z M102.2,62.4l-0.5,4.2h1.4c0.4,0,0.8-0.1,1-0.2c0.3-0.1,0.5-0.3,0.7-0.5s0.3-0.5,0.4-0.8
					c0.1-0.3,0.1-0.6,0.1-1c0-0.3,0-0.5-0.1-0.7s-0.2-0.4-0.3-0.5c-0.1-0.2-0.3-0.3-0.5-0.4c-0.2-0.1-0.5-0.1-0.8-0.1H102.2z"/>
				<path class="st0" d="M119.1,62.4h-4.8l-0.4,3.1h3.7l-0.3,2.1h-3.7l-0.4,3.2h4.8l-0.3,2.2h-7.8l1.6-12.9h7.7L119.1,62.4z"/>
				<path class="st0" d="M131.6,73.1h-2.9l0.7-5.5h-4.7l-0.7,5.5h-3l1.6-12.9h2.9l-0.7,5.4h4.7l0.7-5.4h2.9L131.6,73.1z"/>
				<path class="st0" d="M147.4,60.2L146.1,71h1.8l-0.5,4.4c0,0.2-0.1,0.4-0.3,0.6c-0.2,0.1-0.4,0.2-0.7,0.2h-1.8l0.4-3h-7.9
					l-0.3,2.2c0,0.2-0.1,0.4-0.3,0.6c-0.2,0.1-0.4,0.2-0.7,0.2H134l0.7-5.2h1.3c0.1-0.1,0.3-0.2,0.5-0.4s0.3-0.5,0.5-0.8
					c0.2-0.3,0.4-0.8,0.5-1.3c0.2-0.5,0.4-1.2,0.6-1.9c0.2-0.8,0.4-1.7,0.6-2.7c0.2-1,0.4-2.2,0.6-3.6L147.4,60.2L147.4,60.2z
					 M141.7,62.4c-0.2,1.2-0.4,2.2-0.6,3.1c-0.2,0.9-0.4,1.7-0.7,2.4c-0.2,0.7-0.5,1.3-0.7,1.8c-0.2,0.5-0.5,1-0.7,1.3h4.2l1.1-8.6
					H141.7z"/>
				<path class="st0" d="M155.8,70.9c0.3,0,0.6,0,0.9-0.1c0.2-0.1,0.4-0.1,0.6-0.2c0.2-0.1,0.3-0.2,0.4-0.3c0.1-0.1,0.2-0.2,0.3-0.3
					c0.1-0.1,0.2-0.1,0.3-0.2c0.1,0,0.2-0.1,0.3-0.1s0.2,0,0.2,0c0.1,0,0.1,0.1,0.1,0.1l1,1.2c-0.6,0.7-1.2,1.2-2,1.5
					c-0.8,0.3-1.7,0.5-2.6,0.5c-0.8,0-1.5-0.1-2.2-0.4c-0.6-0.3-1.2-0.7-1.6-1.2c-0.4-0.5-0.8-1.1-1-1.8c-0.2-0.7-0.3-1.4-0.3-2.2
					c0-0.7,0.1-1.4,0.2-2.1c0.2-0.7,0.4-1.3,0.7-1.8c0.3-0.6,0.7-1.1,1.1-1.5c0.4-0.4,0.9-0.8,1.4-1.1s1.1-0.6,1.7-0.7
					c0.6-0.2,1.2-0.3,1.9-0.3c0.5,0,0.9,0,1.3,0.1c0.4,0.1,0.8,0.2,1.1,0.4s0.6,0.4,0.9,0.6c0.3,0.2,0.5,0.5,0.7,0.7l-1,1.2
					c-0.1,0.1-0.2,0.2-0.2,0.2c-0.1,0.1-0.2,0.1-0.4,0.1c-0.1,0-0.2,0-0.3-0.1c-0.1,0-0.2-0.1-0.3-0.2c-0.1-0.1-0.2-0.1-0.3-0.2
					c-0.1-0.1-0.2-0.2-0.4-0.2c-0.1-0.1-0.3-0.1-0.5-0.2c-0.2,0-0.4-0.1-0.7-0.1c-0.5,0-1.1,0.1-1.5,0.3c-0.5,0.2-0.9,0.6-1.2,1
					s-0.6,0.9-0.8,1.6c-0.2,0.6-0.3,1.3-0.3,2c0,0.5,0.1,1,0.2,1.5c0.1,0.4,0.3,0.8,0.5,1.1c0.2,0.3,0.5,0.5,0.8,0.7
					C155.1,70.8,155.5,70.9,155.8,70.9z"/>
				<path class="st0" d="M171.7,62.4h-4.8l-0.4,3.1h3.7l-0.3,2.1h-3.7l-0.4,3.2h4.8l-0.3,2.2h-7.8l1.6-12.9h7.7L171.7,62.4z"/>
				<path class="st0" d="M183.8,60.2l-0.3,2.3h-3.3l-1.3,10.6H176l1.3-10.6H174l0.3-2.3H183.8z"/>
				<path class="st0" d="M195.4,60.2l-0.3,2.3h-3.3l-1.3,10.6h-2.9l1.3-10.6h-3.3l0.3-2.3H195.4z"/>
				<path class="st0" d="M205.7,62.4h-4.8l-0.4,3.1h3.7l-0.3,2.1h-3.7l-0.4,3.2h4.8l-0.3,2.2h-7.8l1.6-12.9h7.7L205.7,62.4z"/>
				<path class="st0" d="M211.1,68.8l-0.5,4.3h-2.9l1.6-12.9h4.3c0.8,0,1.4,0.1,2,0.3c0.5,0.2,1,0.4,1.4,0.8
					c0.4,0.3,0.6,0.7,0.8,1.2c0.2,0.4,0.2,0.9,0.2,1.4c0,0.7-0.1,1.4-0.3,2c-0.2,0.6-0.5,1.1-1,1.6c-0.4,0.4-1,0.8-1.7,1
					c-0.7,0.2-1.5,0.4-2.4,0.4L211.1,68.8L211.1,68.8z M211.9,62.4l-0.5,4.2h1.4c0.4,0,0.8-0.1,1-0.2c0.3-0.1,0.5-0.3,0.7-0.5
					s0.3-0.5,0.4-0.8c0.1-0.3,0.1-0.6,0.1-1c0-0.3,0-0.5-0.1-0.7s-0.2-0.4-0.3-0.5c-0.1-0.2-0.3-0.3-0.5-0.4
					c-0.2-0.1-0.5-0.1-0.8-0.1H211.9z"/>
				<path class="st0" d="M233.3,61.2c0.7,0,1.3,0.2,1.8,0.4c0.5,0.3,1,0.6,1.4,1s0.7,0.9,0.9,1.4c0.2,0.5,0.3,1.1,0.3,1.7
					c0,0.8-0.2,1.5-0.5,2.2c-0.3,0.7-0.7,1.3-1.2,1.8s-1.1,0.9-1.8,1.2c-0.7,0.3-1.4,0.5-2.2,0.5l-0.2,1.5h-2.7l0.2-1.5
					c-0.7,0-1.3-0.2-1.8-0.4c-0.5-0.3-1-0.6-1.4-1c-0.4-0.4-0.7-0.9-0.9-1.5c-0.2-0.6-0.3-1.1-0.3-1.8c0-0.8,0.2-1.5,0.5-2.2
					c0.3-0.7,0.7-1.3,1.2-1.8s1.1-0.9,1.8-1.2s1.4-0.5,2.2-0.5l0.2-1.5h2.8L233.3,61.2z M227.7,66.8c0,0.4,0,0.7,0.1,1
					c0.1,0.3,0.2,0.6,0.4,0.8s0.3,0.4,0.6,0.6c0.2,0.1,0.5,0.2,0.8,0.2l0.7-6.1c-0.4,0-0.7,0.1-1,0.3s-0.6,0.4-0.8,0.7
					c-0.2,0.3-0.4,0.7-0.6,1.1C227.7,65.8,227.7,66.4,227.7,66.8z M234.9,66c0-0.3,0-0.7-0.1-1s-0.2-0.6-0.4-0.8
					c-0.2-0.2-0.4-0.4-0.6-0.6c-0.2-0.1-0.5-0.2-0.8-0.2l-0.7,6.1c0.4,0,0.7-0.1,1-0.3c0.3-0.2,0.6-0.4,0.8-0.7s0.4-0.7,0.6-1.1
					S234.9,66.5,234.9,66z"/>
				<path class="st0" d="M248.5,61.1c0.1-0.1,0.2-0.2,0.3-0.3s0.2-0.2,0.3-0.3s0.2-0.1,0.4-0.2c0.1,0,0.3-0.1,0.4-0.1h2.2l-1.6,12.9
					h-2.9l0.9-7.1c0-0.3,0.1-0.7,0.2-1c0.1-0.4,0.2-0.7,0.3-1.2c-0.2,0.4-0.4,0.7-0.6,1c-0.2,0.3-0.4,0.6-0.5,0.8l-4.2,6.6
					c-0.1,0.1-0.2,0.2-0.3,0.3c-0.1,0.1-0.2,0.2-0.3,0.3s-0.2,0.2-0.4,0.2c-0.1,0.1-0.3,0.1-0.4,0.1h-2.2l1.6-12.9h2.9l-0.9,7.1
					c0,0.3-0.1,0.7-0.2,1c-0.1,0.4-0.2,0.8-0.3,1.2c0.2-0.4,0.4-0.7,0.6-1c0.2-0.3,0.4-0.6,0.6-0.8L248.5,61.1z"/>
				<path class="st0" d="M264.5,60.2l-0.3,2.3h-3.3l-1.3,10.6h-2.9l1.3-10.6h-3.3l0.3-2.3H264.5z"/>
				<path class="st0" d="M276.3,73.1h-2.9l0.7-5.5h-4.7l-0.7,5.5h-2.9l1.6-12.9h2.9l-0.7,5.4h4.7l0.7-5.4h2.9L276.3,73.1z"/>
				<path class="st0" d="M289.2,62.4h-4.8l-0.4,3.1h3.7l-0.3,2.1h-3.7l-0.4,3.2h4.8l-0.3,2.2H280l1.6-12.9h7.7L289.2,62.4z"/>
				<path class="st0" d="M296.5,70.9c0.3,0,0.6,0,0.9-0.1c0.2-0.1,0.4-0.1,0.6-0.2c0.2-0.1,0.3-0.2,0.4-0.3s0.2-0.2,0.3-0.3
					c0.1-0.1,0.2-0.1,0.3-0.2c0.1,0,0.2-0.1,0.3-0.1c0.1,0,0.2,0,0.2,0c0.1,0,0.1,0.1,0.1,0.1l1,1.2c-0.6,0.7-1.2,1.2-2,1.5
					c-0.8,0.3-1.7,0.5-2.6,0.5c-0.8,0-1.5-0.1-2.2-0.4c-0.6-0.3-1.2-0.7-1.6-1.2s-0.8-1.1-1-1.8c-0.2-0.7-0.3-1.4-0.3-2.2
					c0-0.7,0.1-1.4,0.2-2.1c0.2-0.7,0.4-1.3,0.7-1.8c0.3-0.6,0.7-1.1,1.1-1.5s0.9-0.8,1.4-1.1s1.1-0.6,1.7-0.7
					c0.6-0.2,1.2-0.3,1.9-0.3c0.5,0,0.9,0,1.3,0.1s0.8,0.2,1.1,0.4c0.3,0.2,0.6,0.4,0.9,0.6c0.3,0.2,0.5,0.5,0.7,0.7l-1,1.2
					c-0.1,0.1-0.2,0.2-0.2,0.2c-0.1,0.1-0.2,0.1-0.4,0.1c-0.1,0-0.2,0-0.3-0.1c-0.1,0-0.2-0.1-0.3-0.2c-0.1-0.1-0.2-0.1-0.3-0.2
					c-0.1-0.1-0.2-0.2-0.4-0.2c-0.1-0.1-0.3-0.1-0.5-0.2c-0.2,0-0.4-0.1-0.7-0.1c-0.5,0-1.1,0.1-1.5,0.3c-0.5,0.2-0.9,0.6-1.2,1
					c-0.3,0.4-0.6,0.9-0.8,1.6c-0.2,0.6-0.3,1.3-0.3,2c0,0.5,0.1,1,0.2,1.5c0.1,0.4,0.3,0.8,0.5,1.1c0.2,0.3,0.5,0.5,0.8,0.7
					C295.8,70.8,296.1,70.9,296.5,70.9z"/>
				<path class="st0" d="M314.1,73.1h-2.2c-0.2,0-0.4-0.1-0.6-0.2c-0.1-0.1-0.2-0.3-0.3-0.5l-0.4-2.3h-4.4l-1,2.3
					c-0.1,0.2-0.2,0.3-0.4,0.4c-0.2,0.1-0.4,0.2-0.6,0.2h-2.3l6.2-12.9h3L314.1,73.1z M307,68.2h3.3l-0.6-3.7c0-0.2-0.1-0.5-0.2-0.8
					s-0.1-0.7-0.2-1c-0.1,0.4-0.3,0.7-0.4,1s-0.3,0.6-0.4,0.8L307,68.2z"/>
			</g>
			<g>
				<path class="st0" d="M58.3,158.5h16.9l-0.3,2H58.1L58.3,158.5z"/>
				<path class="st0" d="M102,150.3c0.1-0.1,0.2-0.2,0.3-0.3c0.1-0.1,0.2-0.2,0.4-0.3c0.1-0.1,0.3-0.2,0.4-0.2
					c0.1-0.1,0.3-0.1,0.4-0.1h2.3l-2.4,19.4h-3.1l1.6-12.8c0-0.4,0.1-0.8,0.2-1.3s0.2-0.9,0.3-1.5c-0.2,0.5-0.4,0.9-0.7,1.2
					c-0.2,0.4-0.5,0.7-0.7,1l-8.9,12.3c-0.1,0.1-0.2,0.2-0.3,0.3c-0.1,0.1-0.2,0.2-0.4,0.3c-0.1,0.1-0.3,0.2-0.4,0.2
					c-0.1,0.1-0.3,0.1-0.4,0.1h-2.3l2.4-19.4h3.1L92.2,162c-0.1,0.4-0.1,0.8-0.2,1.3s-0.2,0.9-0.3,1.5c0.2-0.4,0.4-0.9,0.7-1.2
					c0.2-0.4,0.5-0.7,0.7-1L102,150.3z"/>
				<path class="st0" d="M132.6,168.8h-3.1l2.1-17h-8.2l-2.1,17h-3.1l2.4-19.4H135L132.6,168.8z"/>
				<path class="st0" d="M157.5,157.7c0,1.1-0.1,2.1-0.4,3.1c-0.2,1-0.6,1.9-1,2.7s-1,1.6-1.6,2.3s-1.3,1.2-2.1,1.7
					s-1.6,0.8-2.5,1.1s-1.8,0.4-2.8,0.4c-1.2,0-2.3-0.2-3.3-0.6c-1-0.4-1.8-1-2.5-1.8s-1.2-1.7-1.6-2.7c-0.4-1-0.6-2.2-0.6-3.4
					c0-1.1,0.1-2.1,0.4-3.1c0.2-1,0.6-1.9,1-2.7c0.4-0.8,1-1.6,1.6-2.3s1.3-1.2,2.1-1.7c0.8-0.5,1.6-0.8,2.5-1.1
					c0.9-0.3,1.8-0.4,2.8-0.4c1.2,0,2.3,0.2,3.3,0.6c1,0.4,1.8,1,2.5,1.8s1.2,1.7,1.6,2.7C157.3,155.4,157.5,156.5,157.5,157.7z
					 M154.3,157.8c0-0.9-0.1-1.8-0.4-2.5c-0.2-0.8-0.6-1.4-1-1.9s-1-0.9-1.6-1.2s-1.4-0.4-2.2-0.4c-1,0-2,0.2-2.8,0.6
					c-0.8,0.4-1.6,1-2.2,1.7c-0.6,0.8-1.1,1.7-1.4,2.7c-0.3,1.1-0.5,2.3-0.5,3.6c0,0.9,0.1,1.8,0.4,2.5c0.2,0.8,0.6,1.4,1,1.9
					s1,0.9,1.6,1.2c0.6,0.3,1.4,0.4,2.2,0.4c1,0,2-0.2,2.8-0.6c0.8-0.4,1.6-1,2.2-1.7c0.6-0.8,1.1-1.7,1.4-2.7
					C154.2,160.3,154.3,159.1,154.3,157.8z"/>
				<path class="st0" d="M178.1,166.4c0.6,0,1.1,0,1.5-0.1s0.8-0.2,1.1-0.3s0.6-0.3,0.8-0.5s0.4-0.3,0.6-0.5
					c0.2-0.1,0.3-0.3,0.4-0.3c0.1-0.1,0.2-0.1,0.4-0.1c0.1,0,0.2,0,0.2,0.1c0.1,0,0.1,0.1,0.1,0.1l1.1,1.3c-0.8,0.9-1.8,1.7-3,2.2
					c-1.1,0.5-2.5,0.8-3.9,0.8c-1.2,0-2.2-0.2-3.2-0.6c-0.9-0.4-1.7-1-2.4-1.8c-0.6-0.7-1.1-1.6-1.5-2.7c-0.3-1-0.5-2.2-0.5-3.4
					c0-1.7,0.3-3.2,0.8-4.6c0.5-1.4,1.3-2.6,2.2-3.6s2-1.8,3.3-2.3c1.3-0.6,2.6-0.8,4-0.8c0.7,0,1.3,0.1,1.9,0.2
					c0.6,0.1,1.1,0.3,1.6,0.5s0.9,0.5,1.3,0.8c0.4,0.3,0.7,0.7,1,1.1l-1,1.3c-0.1,0.1-0.2,0.2-0.3,0.3s-0.2,0.1-0.4,0.1
					c-0.1,0-0.2,0-0.4-0.1c-0.1-0.1-0.2-0.2-0.4-0.3c-0.1-0.1-0.3-0.3-0.5-0.4c-0.2-0.1-0.4-0.3-0.7-0.4c-0.3-0.1-0.6-0.2-1-0.3
					s-0.8-0.1-1.3-0.1c-1,0-1.9,0.2-2.8,0.6c-0.9,0.4-1.6,1-2.2,1.7c-0.6,0.7-1.1,1.6-1.5,2.7c-0.4,1.1-0.5,2.2-0.5,3.5
					c0,0.9,0.1,1.8,0.4,2.5c0.2,0.8,0.6,1.4,1,1.9s1,0.9,1.6,1.2C176.7,166.3,177.4,166.4,178.1,166.4z"/>
				<path class="st0" d="M202.8,149.4l-0.3,2.5h-8.2l-0.7,6h6.6l-0.3,2.4h-6.5l-0.8,6.1h8.2l-0.3,2.5h-11.3l2.4-19.4h11.2V149.4z"/>
				<path class="st0" d="M219.5,150.3c0.1-0.1,0.2-0.2,0.3-0.3s0.2-0.2,0.4-0.3c0.1-0.1,0.3-0.2,0.4-0.2c0.1-0.1,0.3-0.1,0.4-0.1
					h2.3l-2.4,19.4h-3.1l1.6-12.8c0-0.4,0.1-0.8,0.2-1.3c0.1-0.5,0.2-0.9,0.3-1.5c-0.2,0.5-0.4,0.9-0.7,1.2c-0.2,0.4-0.5,0.7-0.7,1
					l-8.9,12.3c-0.1,0.1-0.2,0.2-0.3,0.3s-0.2,0.2-0.4,0.3c-0.1,0.1-0.3,0.2-0.4,0.2c-0.1,0.1-0.3,0.1-0.4,0.1h-2.3l2.4-19.4h3.1
					l-1.6,12.8c-0.1,0.4-0.1,0.8-0.2,1.3c-0.1,0.5-0.2,0.9-0.3,1.5c0.2-0.4,0.4-0.9,0.7-1.2c0.2-0.4,0.5-0.7,0.7-1L219.5,150.3z
					 M216.1,146.7c0.3,0,0.6,0,0.8-0.1s0.4-0.2,0.6-0.4c0.2-0.2,0.3-0.4,0.4-0.7c0.1-0.3,0.2-0.6,0.2-1.1h1.6c0.2,0,0.3,0.1,0.4,0.3
					c0.1,0.2,0.1,0.4,0.1,0.6c-0.1,0.5-0.2,0.9-0.4,1.2c-0.2,0.4-0.5,0.6-0.9,0.9c-0.4,0.2-0.8,0.4-1.3,0.5s-1,0.2-1.6,0.2
					s-1.1-0.1-1.6-0.2c-0.5-0.1-0.8-0.3-1.2-0.5c-0.3-0.2-0.5-0.5-0.7-0.9c-0.1-0.4-0.2-0.8-0.1-1.2c0-0.2,0.1-0.4,0.2-0.6
					c0.1-0.2,0.3-0.3,0.5-0.3h1.6c0,0.4-0.1,0.8,0,1.1c0,0.3,0.1,0.5,0.2,0.7c0.1,0.2,0.3,0.3,0.5,0.4
					C215.5,146.7,215.8,146.7,216.1,146.7z"/>
				<path class="st0" d="M252.6,149.4l-2.1,17.1h2.9l-0.8,6.2c0,0.3-0.2,0.5-0.4,0.6c-0.2,0.2-0.4,0.2-0.7,0.2h-1.8l0.6-4.7h-13.7
					l-0.5,3.8c0,0.3-0.1,0.5-0.3,0.6c-0.2,0.2-0.4,0.2-0.7,0.2h-1.8l0.9-7.1h1.9c0.3-0.1,0.5-0.3,0.8-0.6s0.6-0.7,0.9-1.3
					c0.3-0.5,0.6-1.2,0.9-2.1c0.3-0.8,0.6-1.9,0.9-3.1c0.3-1.2,0.6-2.6,1-4.3c0.3-1.6,0.6-3.5,1-5.7h11V149.4z M244,151.8
					c-0.4,2.1-0.7,3.9-1.1,5.5c-0.4,1.6-0.8,3-1.1,4.1c-0.4,1.2-0.8,2.2-1.2,3s-0.8,1.5-1.2,2h8.1l1.8-14.7L244,151.8L244,151.8z"/>
				<path class="st0" d="M271.7,149.4l-0.3,2.5h-8.2l-0.7,6h6.6l-0.3,2.4h-6.5l-0.8,6.1h8.2l-0.3,2.5H258l2.4-19.4h11.3V149.4z"/>
				<path class="st0" d="M289.8,168.8h-3.1l1.1-8.7h-8.9l-1.1,8.7h-3.1l2.4-19.4h3.1l-1.1,8.6h8.9l1.1-8.6h3.1L289.8,168.8z"/>
				<path class="st0" d="M301.8,149.4l-1,8.2h3.1c1,0,1.9,0.1,2.7,0.4c0.7,0.2,1.4,0.6,1.8,1c0.5,0.4,0.8,0.9,1,1.5s0.3,1.2,0.3,1.8
					c0,1-0.2,1.9-0.5,2.7s-0.8,1.5-1.4,2.1s-1.4,1-2.3,1.3s-1.9,0.5-3.1,0.5h-6.2l2.4-19.4h3.2V149.4z M300.5,160l-0.8,6.4h3.1
					c0.7,0,1.3-0.1,1.8-0.3s0.9-0.4,1.2-0.8c0.3-0.3,0.6-0.7,0.7-1.2c0.2-0.5,0.2-1,0.2-1.6c0-0.4-0.1-0.8-0.2-1.1s-0.3-0.6-0.5-0.8
					s-0.6-0.4-1-0.5s-0.9-0.2-1.5-0.2h-3V160z"/>
			</g>
		</g>
	</g>
</g>
</svg>
