<?xml version="1.0" encoding="utf-8"?>
<!-- Generator: Adobe Illustrator 19.0.0, SVG Export Plug-In . SVG Version: 6.00 Build 0)  -->
<svg version="1.1" id="Слой_1" xmlns="http://www.w3.org/2000/svg" xmlns:xlink="http://www.w3.org/1999/xlink" x="0px" y="0px"
	 viewBox="-12 -3 284.5 192" style="enable-background:new -12 -3 284.5 192;" xml:space="preserve">
<style type="text/css">
	.st0{fill:#FFFFFF;}
	.st1{fill:#E63B23;}
</style>
<g>
	
		<image style="overflow:visible;opacity:0.54;enable-background:new    ;" width="286" height="193" xlink:href="img/svg/3B4C5400D595DC2C.png"  transform="matrix(1 0 0 1 -13.5 -1.1001)">
	</image>
	<g>
		<g>
			<g>
				<path class="st0" d="M24.5,107.9l-0.3,2.6H9.7l-5.1,41.7H1.5l5.1-41.7H-7.8l0.3-2.6H24.5z"/>
				<path class="st0" d="M28.9,134.3l-2.2,17.9h-3.1l5.5-44.3h10.7c4.4,0,7.7,1,9.9,2.9c2.2,2,3.3,4.7,3.3,8.2
					c0,2.3-0.4,4.3-1.2,6.2c-0.8,1.9-1.9,3.5-3.3,4.8c-1.4,1.3-3.2,2.4-5.2,3.1c-2,0.8-4.3,1.1-6.8,1.1L28.9,134.3
					C28.9,134.2,28.9,134.3,28.9,134.3z M31.9,110.4l-2.7,21.5h7.6c2,0,3.8-0.3,5.4-0.9c1.6-0.6,2.9-1.5,4.1-2.6
					c1.1-1.1,2-2.4,2.6-3.9s0.9-3.2,0.9-5c0-2.8-0.9-5-2.6-6.6c-1.7-1.6-4.3-2.4-7.7-2.4L31.9,110.4L31.9,110.4z"/>
				<path class="st0" d="M84.9,110.5H63.4l-2.2,18h17.9l-0.3,2.5H60.9l-2.3,18.6h21.6l-0.3,2.6H55.1l5.5-44.3h24.7L84.9,110.5z"/>
				<path class="st0" d="M118.4,152.2h-3.2l2.6-21.3H92.3l-2.6,21.3h-3.2l5.5-44.3h3.2l-2.6,20.7h25.5l2.6-20.7h3.2L118.4,152.2z"/>
				<path class="st0" d="M158.2,110.5h-21.5l-2.2,18h17.9l-0.3,2.5h-17.9l-2.3,18.6h21.6l-0.3,2.6h-24.7l5.5-44.3h24.5L158.2,110.5z
					"/>
				<path class="st0" d="M165.2,134.3l-2.2,17.9h-3.1l5.5-44.3h10.7c4.4,0,7.7,1,9.9,2.9c2.2,2,3.3,4.7,3.3,8.2
					c0,2.3-0.4,4.3-1.2,6.2c-0.8,1.9-1.9,3.5-3.3,4.8c-1.4,1.3-3.2,2.4-5.2,3.1c-2,0.8-4.3,1.1-6.8,1.1L165.2,134.3L165.2,134.3
					L165.2,134.3z M168.2,110.4l-2.7,21.5h7.6c2,0,3.8-0.3,5.4-0.9c1.6-0.6,2.9-1.5,4.1-2.6c1.1-1.1,2-2.4,2.6-3.9s0.9-3.2,0.9-5
					c0-2.8-0.9-5-2.6-6.6c-1.7-1.6-4.3-2.4-7.7-2.4L168.2,110.4L168.2,110.4z"/>
				<path class="st0" d="M231.1,126.7c0,3.9-0.6,7.5-1.7,10.7c-1.1,3.2-2.7,5.9-4.8,8.2c-2,2.3-4.5,4-7.2,5.3
					c-2.8,1.3-5.8,1.9-9,1.9c-2.6,0-5-0.5-7.1-1.4s-3.9-2.2-5.4-3.9s-2.6-3.7-3.4-6.1c-0.8-2.4-1.2-5-1.2-7.8
					c0-3.9,0.6-7.4,1.7-10.6c1.2-3.2,2.8-6,4.8-8.2c2-2.3,4.4-4.1,7.2-5.3c2.8-1.3,5.8-1.9,9-1.9c2.6,0,5,0.5,7.1,1.4
					c2.1,0.9,3.9,2.2,5.4,3.9c1.5,1.7,2.6,3.7,3.4,6.1C230.7,121.2,231.1,123.8,231.1,126.7z M227.8,126.7c0-2.6-0.3-4.9-1-6.9
					c-0.7-2.1-1.6-3.8-2.9-5.3c-1.2-1.5-2.7-2.6-4.5-3.4s-3.7-1.2-5.9-1.2c-2.7,0-5.3,0.5-7.6,1.6c-2.3,1.1-4.4,2.6-6.1,4.7
					c-1.7,2-3.1,4.5-4,7.4c-1,2.9-1.5,6.1-1.5,9.7c0,2.6,0.3,4.9,1,6.9c0.7,2.1,1.6,3.8,2.9,5.2c1.2,1.4,2.7,2.6,4.5,3.3
					c1.7,0.8,3.7,1.2,5.9,1.2c2.8,0,5.3-0.5,7.7-1.6c2.3-1.1,4.4-2.6,6.1-4.7c1.7-2,3-4.5,4-7.3
					C227.3,133.6,227.8,130.3,227.8,126.7z"/>
				<path class="st0" d="M235.3,152.2l5.5-44.3h11.9c2.1,0,4,0.2,5.6,0.7c1.6,0.4,2.9,1.1,3.9,1.9s1.8,1.8,2.3,3s0.7,2.5,0.7,4
					c0,1.4-0.2,2.8-0.7,4.1s-1.1,2.5-2,3.5c-0.9,1.1-1.9,2-3.1,2.7c-1.2,0.8-2.6,1.3-4.1,1.7c2.9,0.5,5.1,1.5,6.7,3.1
					c1.5,1.6,2.3,3.6,2.3,6.2c0,2-0.4,3.9-1.1,5.6c-0.7,1.7-1.7,3.1-3.1,4.2c-1.3,1.2-3,2.1-4.9,2.7c-1.9,0.6-4.1,0.9-6.5,0.9
					L235.3,152.2L235.3,152.2z M241.1,130.9l-2.3,18.8H249c3.9,0,6.9-0.9,9-2.8c2.1-1.9,3.1-4.6,3.1-8c0-1.2-0.2-2.3-0.6-3.3
					s-1.1-1.8-1.9-2.5s-1.9-1.2-3.1-1.6c-1.2-0.4-2.6-0.6-4.2-0.6L241.1,130.9L241.1,130.9z M241.4,128.7h8.8c2,0,3.8-0.3,5.3-0.9
					c1.5-0.6,2.7-1.4,3.7-2.4s1.7-2.1,2.1-3.4c0.5-1.3,0.7-2.6,0.7-3.9c0-2.5-0.8-4.4-2.4-5.7c-1.6-1.3-4-2-7.2-2h-8.8L241.4,128.7z
					"/>
			</g>
			<polygon class="st1" points="262.7,32.4 -11,32.4 -5.2,-0.7 268.5,-0.7 			"/>
			<g>
				<path class="st0" d="M19.1,18.9c0.1-0.2,0.2-0.4,0.3-0.6c0.1-0.2,0.2-0.4,0.4-0.6l4.4-7.6c0.1-0.1,0.2-0.2,0.3-0.3
					s0.2-0.1,0.2-0.1c0.1,0,0.2-0.1,0.3-0.1s0.2,0,0.4,0h2.5L26,23.9h-2.8l1-8.4c0-0.2,0.1-0.4,0.1-0.6s0.1-0.4,0.1-0.7L20,21.6
					c-0.1,0.2-0.3,0.4-0.5,0.5s-0.4,0.2-0.7,0.2h-0.4c-0.3,0-0.5-0.1-0.7-0.2s-0.3-0.3-0.4-0.5l-2.5-7.4c0,0.2,0,0.4,0,0.7
					c0,0.2,0,0.4,0,0.6l-1,8.4h-2.9l1.8-14.4h2.5c0.1,0,0.3,0,0.4,0s0.2,0,0.3,0.1c0.1,0,0.1,0.1,0.2,0.1c0.1,0.1,0.1,0.2,0.2,0.3
					l2.5,7.6C18.9,18,19,18.5,19.1,18.9z"/>
				<path class="st0" d="M43.6,15.8c0,0.8-0.1,1.5-0.3,2.2s-0.4,1.4-0.8,2c-0.3,0.6-0.7,1.2-1.2,1.7s-1,0.9-1.6,1.3
					s-1.2,0.6-1.9,0.8c-0.7,0.2-1.4,0.3-2.2,0.3c-1,0-1.8-0.2-2.6-0.5s-1.4-0.8-1.9-1.4s-0.9-1.3-1.2-2c-0.3-0.8-0.4-1.6-0.4-2.5
					c0-0.8,0.1-1.5,0.3-2.2s0.4-1.4,0.8-2c0.3-0.6,0.7-1.2,1.2-1.7c0.5-0.5,1-0.9,1.6-1.3c0.6-0.4,1.2-0.6,1.9-0.8s1.4-0.3,2.2-0.3
					c0.9,0,1.8,0.2,2.6,0.5s1.4,0.8,1.9,1.4c0.5,0.6,0.9,1.3,1.2,2C43.5,14.1,43.6,14.9,43.6,15.8z M40.3,15.9
					c0-0.6-0.1-1.1-0.2-1.6s-0.4-0.9-0.6-1.2c-0.3-0.3-0.6-0.6-1-0.8S37.7,12,37.2,12c-0.7,0-1.3,0.1-1.8,0.4s-1,0.7-1.3,1.1
					c-0.4,0.5-0.6,1.1-0.8,1.8C33.1,16,33,16.8,33,17.6c0,0.6,0.1,1.1,0.2,1.6c0.1,0.5,0.3,0.9,0.6,1.2c0.3,0.3,0.6,0.6,1,0.8
					c0.4,0.2,0.8,0.3,1.4,0.3c0.7,0,1.3-0.1,1.8-0.4s1-0.7,1.3-1.1c0.4-0.5,0.7-1.1,0.8-1.8S40.3,16.8,40.3,15.9z"/>
				<path class="st0" d="M45.3,23.9l1.8-14.4h3.2l-1.5,12h3.9l1.5-12h3.3l-1.5,12h3.9l1.5-12h3.2l-1.7,14.4l0.3-2.4H65l-0.6,4.9
					c0,0.3-0.2,0.5-0.4,0.6c-0.2,0.2-0.5,0.2-0.8,0.2h-2l0.4-3.4L45.3,23.9L45.3,23.9z"/>
				<path class="st0" d="M79,23.9h-3.3l0.8-6.1h-5.2l-0.8,6.1h-3.3L69,9.5h3.3l-0.8,6.1h5.2l0.8-6.1h3.3L79,23.9z"/>
				<path class="st0" d="M94.5,23.9H92c-0.3,0-0.5-0.1-0.7-0.2S91,23.4,91,23.2l-0.4-2.6h-4.9l-1.1,2.6c-0.1,0.2-0.2,0.3-0.4,0.5
					c-0.2,0.2-0.5,0.2-0.7,0.2H81l6.9-14.4h3.3L94.5,23.9z M86.6,18.5h3.6l-0.7-4.1c-0.1-0.3-0.1-0.6-0.2-0.9s-0.1-0.7-0.2-1.1
					c-0.2,0.4-0.3,0.8-0.5,1.1c-0.2,0.4-0.3,0.7-0.4,0.9L86.6,18.5z"/>
				<path class="st0" d="M103.4,23.9l0.7-5.8h-1c-0.1,0-0.3,0-0.4,0.1c-0.1,0-0.2,0.1-0.4,0.2c-0.1,0.1-0.2,0.2-0.3,0.3
					c-0.1,0.1-0.2,0.3-0.3,0.5l-2.2,3.7c-0.2,0.3-0.5,0.6-0.9,0.8c-0.4,0.2-0.8,0.3-1.2,0.3H95l3.2-4.9c0.5-0.7,1.1-1.2,1.8-1.5
					c-0.4-0.1-0.7-0.3-1-0.5s-0.5-0.5-0.7-0.7c-0.2-0.3-0.3-0.6-0.4-0.9s-0.1-0.7-0.1-1c0-0.7,0.1-1.3,0.4-1.9s0.6-1.1,1.1-1.5
					s1.1-0.8,1.8-1c0.7-0.2,1.5-0.4,2.4-0.4h5l-1.9,14.2H103.4z M100.9,14.2c0,0.2,0,0.4,0.1,0.6s0.1,0.3,0.3,0.5
					c0.1,0.1,0.3,0.2,0.5,0.3c0.2,0.1,0.5,0.1,0.8,0.1h1.8l0.5-3.7h-1.8c-0.4,0-0.7,0.1-1,0.2s-0.5,0.3-0.7,0.4
					c-0.2,0.2-0.3,0.4-0.4,0.7C100.9,13.6,100.9,13.9,100.9,14.2z"/>
				<path class="st0" d="M123.1,18.9c0.1-0.2,0.2-0.4,0.3-0.6s0.2-0.4,0.4-0.6l4.4-7.6c0.1-0.1,0.2-0.2,0.3-0.3s0.2-0.1,0.2-0.1
					c0.1,0,0.2-0.1,0.3-0.1s0.2,0,0.4,0h2.5L130,23.9h-2.8l1-8.4c0-0.2,0.1-0.4,0.1-0.6s0.1-0.4,0.1-0.7l-4.4,7.4
					c-0.1,0.2-0.3,0.4-0.5,0.5s-0.4,0.2-0.7,0.2h-0.3c-0.3,0-0.5-0.1-0.7-0.2s-0.3-0.3-0.4-0.5l-2.5-7.4c0,0.2,0,0.4,0,0.7
					c0,0.2,0,0.4,0,0.6l-1,8.4H115l1.8-14.4h2.5c0.1,0,0.3,0,0.4,0s0.2,0,0.3,0.1c0.1,0,0.1,0.1,0.2,0.1c0.1,0.1,0.1,0.2,0.2,0.3
					l2.5,7.6C122.9,18,123,18.5,123.1,18.9z"/>
				<path class="st0" d="M147.6,15.8c0,0.8-0.1,1.5-0.3,2.2s-0.4,1.4-0.8,2c-0.3,0.6-0.7,1.2-1.2,1.7s-1,0.9-1.6,1.3
					s-1.2,0.6-1.9,0.8c-0.7,0.2-1.4,0.3-2.2,0.3c-1,0-1.8-0.2-2.6-0.5s-1.4-0.8-1.9-1.4s-0.9-1.3-1.2-2c-0.3-0.8-0.4-1.6-0.4-2.5
					c0-0.8,0.1-1.5,0.3-2.2s0.4-1.4,0.8-2c0.3-0.6,0.7-1.2,1.2-1.7c0.5-0.5,1-0.9,1.6-1.3c0.6-0.4,1.2-0.6,1.9-0.8s1.4-0.3,2.2-0.3
					c0.9,0,1.8,0.2,2.6,0.5s1.4,0.8,1.9,1.4c0.5,0.6,0.9,1.3,1.2,2C147.5,14.1,147.6,14.9,147.6,15.8z M144.3,15.9
					c0-0.6-0.1-1.1-0.2-1.6c-0.1-0.5-0.4-0.9-0.6-1.2c-0.3-0.3-0.6-0.6-1-0.8s-0.8-0.3-1.4-0.3c-0.7,0-1.3,0.1-1.8,0.4
					s-1,0.7-1.3,1.1c-0.4,0.5-0.6,1.1-0.8,1.8c-0.2,0.7-0.3,1.5-0.3,2.3c0,0.6,0.1,1.1,0.2,1.6c0.1,0.5,0.3,0.9,0.6,1.2
					c0.3,0.3,0.6,0.6,1,0.8c0.4,0.2,0.9,0.3,1.4,0.3c0.7,0,1.3-0.1,1.8-0.4s1-0.7,1.3-1.1c0.4-0.5,0.7-1.1,0.8-1.8
					C144.2,17.5,144.3,16.8,144.3,15.9z"/>
				<path class="st0" d="M160.3,9.6l-0.3,2.5h-3.7l-1.5,11.8h-3.2l1.5-11.8h-3.7l0.3-2.5C149.7,9.6,160.3,9.6,160.3,9.6z"/>
				<path class="st0" d="M170.5,10.5c0.1-0.1,0.2-0.2,0.3-0.3s0.2-0.2,0.4-0.3c0.1-0.1,0.3-0.2,0.4-0.2c0.1-0.1,0.3-0.1,0.5-0.1h2.4
					l-1.8,14.3h-3.2l1-8c0.1-0.4,0.1-0.7,0.2-1.1c0.1-0.4,0.2-0.8,0.3-1.3c-0.2,0.4-0.4,0.8-0.6,1.1c-0.2,0.3-0.4,0.6-0.6,0.9
					l-4.7,7.4c-0.1,0.1-0.2,0.2-0.3,0.3c-0.1,0.1-0.2,0.2-0.4,0.3c-0.1,0.1-0.3,0.2-0.4,0.2c-0.1,0.1-0.3,0.1-0.5,0.1h-2.4l1.8-14.4
					h3.2l-1,7.9c-0.1,0.4-0.1,0.8-0.2,1.2c-0.1,0.4-0.2,0.8-0.3,1.3c0.2-0.4,0.4-0.8,0.6-1.1c0.2-0.4,0.4-0.7,0.6-0.9L170.5,10.5z"
					/>
				<path class="st0" d="M176.1,23.9l1.8-14.4h5c0.8,0,1.6,0.1,2.2,0.2c0.6,0.2,1.1,0.4,1.5,0.7s0.7,0.6,0.8,1.1
					c0.2,0.4,0.3,0.9,0.3,1.4c0,0.4-0.1,0.8-0.2,1.1c-0.1,0.4-0.3,0.7-0.5,1s-0.5,0.6-0.9,0.8c-0.4,0.3-0.8,0.5-1.3,0.6
					c0.8,0.2,1.4,0.5,1.7,1c0.4,0.4,0.6,1,0.6,1.7s-0.1,1.3-0.4,1.9c-0.3,0.6-0.6,1.1-1.1,1.5s-1.1,0.8-1.8,1s-1.5,0.4-2.3,0.4
					H176.1z M180.1,17.8l-0.5,3.7h2.1c0.4,0,0.7-0.1,1-0.2s0.5-0.3,0.7-0.5s0.3-0.4,0.4-0.7c0.1-0.3,0.1-0.6,0.1-0.9
					c0-0.2,0-0.4-0.1-0.6s-0.2-0.3-0.3-0.4s-0.3-0.2-0.5-0.3c-0.2-0.1-0.5-0.1-0.8-0.1H180.1z M180.3,15.7h1.5c0.4,0,0.7,0,1-0.1
					s0.5-0.2,0.8-0.4c0.2-0.2,0.4-0.4,0.5-0.7c0.1-0.3,0.2-0.6,0.2-1.1s-0.1-0.9-0.4-1.1c-0.3-0.2-0.7-0.3-1.3-0.3h-1.7L180.3,15.7z
					"/>
				<path class="st0" d="M201.1,23.9h-2.5c-0.3,0-0.5-0.1-0.7-0.2s-0.3-0.3-0.3-0.5l-0.4-2.6h-4.9l-1.1,2.6
					c-0.1,0.2-0.2,0.3-0.4,0.5c-0.2,0.1-0.4,0.2-0.7,0.2h-2.5l6.9-14.4h3.3L201.1,23.9z M193.2,18.5h3.6l-0.7-4.1
					c-0.1-0.3-0.1-0.6-0.2-0.9c-0.1-0.3-0.1-0.7-0.2-1.1c-0.2,0.4-0.3,0.8-0.5,1.1c-0.2,0.4-0.3,0.7-0.4,0.9L193.2,18.5z"/>
				<path class="st0" d="M203.1,23.9l1.8-14.4h3.2l-1.5,12h4.8l1.5-12h3.3l-1.8,14.4l0.3-2.4h1.8l-0.6,4.9c0,0.3-0.2,0.5-0.4,0.6
					c-0.2,0.2-0.5,0.2-0.8,0.2h-1.9l0.4-3.4L203.1,23.9L203.1,23.9z"/>
				<path class="st0" d="M228.3,10.5c0.1-0.1,0.2-0.2,0.3-0.3s0.2-0.2,0.4-0.3c0.1-0.1,0.3-0.2,0.4-0.2c0.1-0.1,0.3-0.1,0.5-0.1h2.4
					l-1.8,14.3h-3.2l1-8c0.1-0.4,0.1-0.7,0.2-1.1c0.1-0.4,0.2-0.8,0.3-1.3c-0.2,0.4-0.4,0.8-0.6,1.1c-0.2,0.3-0.4,0.6-0.6,0.9
					l-4.7,7.4c-0.1,0.1-0.2,0.2-0.3,0.3c-0.1,0.1-0.2,0.2-0.4,0.3c-0.1,0.1-0.3,0.2-0.4,0.2c-0.1,0.1-0.3,0.1-0.5,0.1h-2.4l1.8-14.4
					h3.2l-1,7.9c-0.1,0.4-0.1,0.8-0.2,1.2c-0.1,0.4-0.2,0.8-0.3,1.3c0.2-0.4,0.4-0.8,0.6-1.1c0.2-0.4,0.4-0.7,0.6-0.9L228.3,10.5z"
					/>
				<path class="st0" d="M240.9,23.9l0.7-5.8h-1c-0.1,0-0.3,0-0.4,0.1c-0.1,0-0.2,0.1-0.4,0.2c-0.1,0.1-0.2,0.2-0.3,0.3
					c-0.1,0.1-0.2,0.3-0.3,0.5l-2.2,3.7c-0.2,0.3-0.5,0.6-0.9,0.8c-0.4,0.2-0.8,0.3-1.2,0.3h-2.4l3.2-4.9c0.5-0.7,1.1-1.2,1.8-1.5
					c-0.4-0.1-0.7-0.3-1-0.5s-0.5-0.5-0.7-0.7c-0.2-0.3-0.3-0.6-0.4-0.9c-0.1-0.3-0.1-0.7-0.1-1c0-0.7,0.1-1.3,0.4-1.9
					c0.3-0.6,0.6-1.1,1.1-1.5s1.1-0.8,1.8-1s1.5-0.4,2.4-0.4h5l-1.9,14.2H240.9z M238.4,14.2c0,0.2,0,0.4,0.1,0.6s0.1,0.3,0.3,0.5
					c0.1,0.1,0.3,0.2,0.5,0.3c0.2,0.1,0.5,0.1,0.8,0.1h1.8l0.5-3.7h-1.9c-0.4,0-0.7,0.1-1,0.2s-0.5,0.3-0.7,0.4
					c-0.2,0.2-0.3,0.4-0.4,0.7C238.3,13.6,238.4,13.9,238.4,14.2z"/>
			</g>
			<g>
				<path class="st0" d="M5.9,41.8C6,41.7,6,41.7,6.1,41.6c0.1-0.1,0.2-0.1,0.2-0.1H7L5.4,54H4.5l1.3-10.2c0-0.2,0-0.4,0.1-0.6
					C5.9,43,6,42.8,6,42.6c-0.1,0.2-0.2,0.3-0.3,0.5c-0.1,0.1-0.2,0.3-0.3,0.4l-7.9,10.2c0,0.1-0.1,0.2-0.2,0.2C-2.8,54-2.9,54-3,54
					h-0.6L-2,41.5h0.9l-1.3,10.2c0,0.2-0.1,0.4-0.1,0.6c0,0.2,0,0.4-0.1,0.6c0.1-0.2,0.2-0.3,0.3-0.5S-2.1,52.1-2,52L5.9,41.8z"/>
				<path class="st0" d="M24.8,54h-0.9l1.5-11.8h-6.7L17.2,54h-0.9l1.6-12.5h8.5L24.8,54z"/>
				<path class="st0" d="M40.9,46.8c0,1.1-0.2,2.1-0.5,3s-0.8,1.7-1.4,2.3c-0.6,0.6-1.3,1.1-2,1.5c-0.8,0.4-1.6,0.5-2.6,0.5
					c-0.7,0-1.4-0.1-2-0.4c-0.6-0.3-1.1-0.6-1.5-1.1s-0.7-1.1-1-1.7c-0.2-0.7-0.3-1.4-0.3-2.2c0-1.1,0.2-2.1,0.5-3s0.8-1.7,1.3-2.3
					c0.6-0.6,1.3-1.1,2-1.5c0.8-0.4,1.6-0.5,2.5-0.5c0.7,0,1.4,0.1,2,0.4c0.6,0.3,1.1,0.6,1.5,1.1s0.7,1.1,1,1.7
					C40.8,45.2,40.9,46,40.9,46.8z M40,46.8c0-0.7-0.1-1.4-0.3-2s-0.5-1.1-0.8-1.5s-0.8-0.7-1.3-0.9s-1.1-0.3-1.7-0.3
					c-0.8,0-1.5,0.2-2.1,0.5c-0.7,0.3-1.2,0.7-1.7,1.3S31.2,45.2,31,46c-0.3,0.8-0.4,1.7-0.4,2.7c0,0.7,0.1,1.4,0.3,2
					s0.5,1.1,0.8,1.5c0.4,0.4,0.8,0.7,1.3,0.9s1,0.3,1.7,0.3c0.8,0,1.5-0.2,2.2-0.5s1.2-0.7,1.7-1.3s0.9-1.3,1.1-2.1
					C39.9,48.7,40,47.8,40,46.8z"/>
				<path class="st0" d="M53.7,41.5l-1.5,11.8h2l-0.4,3.6c0,0.1,0,0.2-0.1,0.2c-0.1,0.1-0.1,0.1-0.2,0.1H53l0.4-3.1H43l-0.3,2.8
					c0,0.1,0,0.2-0.1,0.2c-0.1,0.1-0.1,0.1-0.2,0.1h-0.5l0.5-3.9h1.1c0.2-0.1,0.4-0.2,0.6-0.4c0.2-0.2,0.4-0.5,0.6-0.9
					c0.2-0.4,0.4-0.9,0.7-1.5c0.2-0.6,0.4-1.3,0.7-2.2c0.2-0.8,0.4-1.8,0.7-3c0.2-1.1,0.5-2.4,0.7-3.9h6.2V41.5z M48.1,42.2
					c-0.2,1.2-0.4,2.2-0.6,3.2c-0.2,0.9-0.4,1.8-0.6,2.6c-0.2,0.8-0.4,1.4-0.6,2c-0.2,0.6-0.4,1.1-0.6,1.5c-0.2,0.4-0.4,0.8-0.6,1.1
					c-0.2,0.3-0.4,0.6-0.6,0.8h6.8l1.4-11.1L48.1,42.2L48.1,42.2z"/>
				<path class="st0" d="M67.6,41.5l-1.5,11.8h2l-0.4,3.6c0,0.1,0,0.2-0.1,0.2c-0.1,0.1-0.1,0.1-0.2,0.1h-0.5l0.4-3.1H57l-0.4,2.8
					c0,0.1,0,0.2-0.1,0.2c-0.1,0.1-0.1,0.1-0.2,0.1h-0.5l0.5-3.9h1.1c0.2-0.1,0.4-0.2,0.6-0.4s0.4-0.5,0.6-0.9s0.4-0.9,0.7-1.5
					c0.2-0.6,0.4-1.3,0.7-2.2c0.2-0.8,0.4-1.8,0.7-3c0.2-1.1,0.5-2.4,0.7-3.9h6.2V41.5z M62.1,42.2c-0.2,1.2-0.4,2.2-0.6,3.2
					c-0.2,0.9-0.4,1.8-0.6,2.6s-0.4,1.4-0.6,2s-0.4,1.1-0.6,1.5s-0.4,0.8-0.6,1.1s-0.4,0.6-0.6,0.8h6.8l1.4-11.1L62.1,42.2
					L62.1,42.2z"/>
				<path class="st0" d="M80.1,42.2H74l-0.6,5.1h5.1L78.4,48h-5l-0.7,5.3h6.1L78.7,54h-7l1.6-12.5h7L80.1,42.2z"/>
				<path class="st0" d="M84.2,49l-0.6,5.1h-0.9l1.5-12.5h3c1.2,0,2.2,0.3,2.8,0.8c0.6,0.6,0.9,1.3,0.9,2.3c0,0.6-0.1,1.2-0.3,1.7
					c-0.2,0.5-0.5,1-0.9,1.4s-0.9,0.7-1.5,0.9S87,49,86.3,49H84.2z M85.1,42.2l-0.8,6.1h2.2c0.6,0,1.1-0.1,1.5-0.3s0.8-0.4,1.2-0.7
					c0.3-0.3,0.6-0.7,0.7-1.1c0.2-0.4,0.3-0.9,0.3-1.4c0-0.8-0.2-1.4-0.7-1.9c-0.5-0.4-1.2-0.7-2.2-0.7
					C87.3,42.2,85.1,42.2,85.1,42.2z"/>
				<path class="st0" d="M94.3,41.5c0.1,0,0.2,0,0.3,0.1c0.1,0.1,0.1,0.1,0.2,0.2l2.9,4.9c0.2,0.3,0.3,0.4,0.5,0.5s0.4,0.1,0.7,0.1
					h1.3l0.7-5.8h0.8l-0.7,5.8h1.3c0.1,0,0.3,0,0.4,0s0.2-0.1,0.3-0.1c0.1,0,0.2-0.1,0.3-0.2c0.1-0.1,0.2-0.2,0.3-0.3l4.1-4.9
					c0.1-0.1,0.1-0.2,0.2-0.2c0.1-0.1,0.2-0.1,0.3-0.1h0.7l-4.5,5.2c-0.2,0.2-0.4,0.4-0.5,0.5c-0.2,0.1-0.4,0.2-0.6,0.3
					c0.2,0.1,0.5,0.2,0.6,0.3c0.2,0.1,0.3,0.3,0.4,0.6l3.2,5.6h-0.6c-0.1,0-0.3,0-0.3-0.1c-0.1-0.1-0.2-0.1-0.2-0.2l-3-5
					c-0.1-0.2-0.3-0.4-0.5-0.5s-0.4-0.2-0.7-0.2h-1.5l-0.8,6h-0.8l0.7-6h-1.5c-0.3,0-0.6,0.1-0.8,0.2c-0.2,0.1-0.4,0.3-0.6,0.5
					l-4.2,5c-0.1,0.1-0.2,0.2-0.3,0.2C92.3,54,92.2,54,92,54h-0.6l4.6-5.6c0.2-0.2,0.4-0.4,0.6-0.6c0.2-0.1,0.4-0.2,0.7-0.3
					c-0.2-0.1-0.4-0.2-0.6-0.3c-0.1-0.1-0.3-0.3-0.4-0.5l-3.2-5.2C93.1,41.5,94.3,41.5,94.3,41.5z"/>
				<path class="st0" d="M113,47.3h1.3c0.1,0,0.3,0,0.4,0s0.2-0.1,0.3-0.1c0.1,0,0.2-0.1,0.3-0.2c0.1-0.1,0.2-0.2,0.3-0.3l4.2-4.9
					c0.1-0.1,0.1-0.2,0.2-0.2c0.1-0.1,0.2-0.1,0.3-0.1h0.7l-4.6,5.3c-0.2,0.2-0.3,0.4-0.5,0.5s-0.4,0.2-0.6,0.3
					c0.2,0.1,0.4,0.2,0.6,0.3c0.1,0.1,0.3,0.3,0.4,0.6l3.4,5.6h-0.8c-0.1,0-0.2,0-0.3-0.1s-0.1-0.1-0.2-0.2l-3.1-5.1
					c-0.1-0.1-0.1-0.2-0.2-0.3s-0.1-0.1-0.2-0.2c-0.1,0-0.2-0.1-0.3-0.1c-0.1,0-0.2,0-0.4,0h-1.5l-0.7,6h-0.9l1.6-12.5h0.9L113,47.3
					z"/>
				<path class="st0" d="M132.3,54h-0.7c-0.1,0-0.1,0-0.2-0.1c0,0-0.1-0.1-0.1-0.2l-0.9-3.7h-5.7l-1.8,3.7c0,0.1-0.1,0.1-0.1,0.2
					c-0.1,0-0.1,0.1-0.2,0.1h-0.7l6.3-12.5h0.9L132.3,54z M125.1,49.5h5.2l-1.6-6.4c0-0.1,0-0.2-0.1-0.3c0-0.1-0.1-0.3-0.1-0.4
					c-0.1,0.1-0.1,0.3-0.2,0.4c-0.1,0.1-0.1,0.2-0.2,0.4L125.1,49.5z"/>
			</g>
			<g>
				<path class="st0" d="M36.8,78.6h2.3c0.5,0,0.9-0.1,1.2-0.2c0.3-0.2,0.7-0.5,1.1-0.9l6.5-8.5c0.2-0.3,0.5-0.6,0.8-0.8
					c0.3-0.2,0.6-0.3,1-0.3h3.4l-7.8,10.2c-0.3,0.4-0.7,0.8-1.1,1.1c-0.4,0.3-0.8,0.5-1.2,0.7c0.6,0.2,1.1,0.5,1.5,0.8
					c0.4,0.4,0.7,0.9,1,1.6l4.9,10.6h-3.6c-0.4,0-0.7-0.1-0.9-0.3s-0.4-0.5-0.6-0.9l-4.2-8.8c-0.2-0.5-0.5-0.8-0.8-1
					s-0.7-0.3-1.3-0.3h-2.7L35,92.9h-3.9l3.1-25.1h3.9L36.8,78.6z"/>
				<path class="st0" d="M78.9,78.6c0,1.4-0.2,2.7-0.5,4s-0.7,2.4-1.3,3.5c-0.6,1.1-1.3,2-2.1,2.9c-0.8,0.9-1.7,1.6-2.7,2.2
					c-1,0.6-2.1,1.1-3.2,1.4c-1.2,0.3-2.4,0.5-3.7,0.5c-1.6,0-3-0.3-4.3-0.8c-1.3-0.6-2.3-1.3-3.2-2.3s-1.6-2.1-2-3.5
					c-0.5-1.3-0.7-2.8-0.7-4.4c0-1.4,0.2-2.7,0.5-4s0.7-2.4,1.3-3.5c0.6-1.1,1.2-2.1,2.1-2.9c0.8-0.9,1.7-1.6,2.7-2.2
					c1-0.6,2.1-1.1,3.2-1.4c1.2-0.3,2.4-0.5,3.7-0.5c1.6,0,3,0.3,4.3,0.8c1.3,0.6,2.3,1.3,3.2,2.3c0.9,1,1.6,2.2,2,3.5
					C78.7,75.5,78.9,77,78.9,78.6z M74.9,78.7c0-1.2-0.2-2.3-0.5-3.2c-0.3-1-0.7-1.8-1.3-2.5c-0.6-0.7-1.3-1.2-2.1-1.6
					c-0.8-0.4-1.8-0.6-2.8-0.6c-1.3,0-2.5,0.3-3.6,0.8s-2,1.3-2.8,2.3S60.4,76,60,77.4c-0.4,1.4-0.6,2.9-0.6,4.6
					c0,1.2,0.2,2.3,0.5,3.2c0.3,1,0.7,1.8,1.3,2.5s1.3,1.2,2.1,1.6c0.8,0.4,1.7,0.6,2.8,0.6c1.3,0,2.5-0.3,3.6-0.8s2-1.3,2.8-2.2
					c0.8-1,1.4-2.1,1.8-3.5C74.7,81.9,74.9,80.4,74.9,78.7z"/>
				<path class="st0" d="M97.6,84.2c0.1,0.3,0.1,0.6,0.2,0.9c0.1-0.3,0.3-0.6,0.4-0.9s0.3-0.6,0.5-0.8l9.3-15
					c0.2-0.3,0.5-0.4,0.6-0.5c0.2-0.1,0.4-0.1,0.8-0.1h3l-3.2,25.1h-3.5l2.1-17.3c0-0.3,0.1-0.6,0.1-0.9c0.1-0.3,0.1-0.7,0.2-1
					l-9.2,15c-0.4,0.6-0.9,0.9-1.5,0.9h-0.5c-0.3,0-0.6-0.1-0.8-0.2c-0.2-0.1-0.4-0.4-0.5-0.7l-5.6-15c0,0.3,0,0.7,0,1
					s0,0.6-0.1,0.9l-2.1,17.3h-3.5l3.1-25.1h2.9c0.2,0,0.3,0,0.4,0s0.2,0,0.3,0.1c0.1,0,0.2,0.1,0.3,0.2c0.1,0.1,0.2,0.2,0.3,0.3
					l5.6,15C97.4,83.7,97.5,84,97.6,84.2z"/>
				<path class="st0" d="M137.4,92.9h-3.1c-0.3,0-0.6-0.1-0.8-0.3s-0.3-0.4-0.4-0.7l-1.2-5.6h-9.8l-2.6,5.6
					c-0.1,0.2-0.3,0.5-0.6,0.6c-0.3,0.2-0.5,0.3-0.9,0.3h-3.1l12.3-25.1h4L137.4,92.9z M123.4,83.5h7.9l-2-9.4
					c-0.1-0.4-0.1-0.8-0.2-1.2c-0.1-0.5-0.2-1-0.3-1.5c-0.2,0.6-0.4,1.1-0.6,1.5c-0.2,0.5-0.4,0.9-0.5,1.3L123.4,83.5z"/>
				<path class="st0" d="M162.5,92.9h-4l1.4-11.2h-11.4l-1.4,11.2h-4l3.1-25.1h4l-1.4,11h11.4l1.4-11h4L162.5,92.9z"/>
				<path class="st0" d="M192.8,67.8l-2.7,22h3.7l-1,8c0,0.3-0.2,0.6-0.5,0.8s-0.6,0.3-0.9,0.3H189l0.8-6h-17.6l-0.6,4.9
					c0,0.3-0.2,0.6-0.4,0.8c-0.3,0.2-0.6,0.3-0.9,0.3h-2.4l1.1-9.1h2.4c0.3-0.2,0.7-0.4,1.1-0.8c0.4-0.4,0.7-0.9,1.1-1.6
					s0.8-1.6,1.2-2.7c0.4-1.1,0.8-2.4,1.2-4c0.4-1.6,0.8-3.4,1.2-5.5c0.4-2.1,0.8-4.6,1.3-7.3h14.3L192.8,67.8L192.8,67.8z
					 M181.6,70.9c-0.5,2.7-0.9,5-1.4,7.1c-0.5,2-1,3.8-1.5,5.4c-0.5,1.5-1,2.8-1.5,3.9c-0.5,1.1-1,1.9-1.6,2.6H186l2.4-18.9
					L181.6,70.9L181.6,70.9z"/>
				<path class="st0" d="M206.7,67.8l-1.3,10.6h4.1c1.3,0,2.5,0.2,3.5,0.5s1.8,0.7,2.4,1.2c0.6,0.5,1.1,1.2,1.4,1.9
					c0.3,0.7,0.4,1.5,0.4,2.3c0,1.3-0.2,2.4-0.6,3.5c-0.4,1-1.1,1.9-1.9,2.7c-0.8,0.7-1.8,1.3-3,1.7c-1.2,0.4-2.5,0.6-3.9,0.6h-8
					l3.1-25.1h3.8V67.8z M205,81.5l-1,8.3h4c0.9,0,1.6-0.1,2.3-0.3c0.6-0.2,1.2-0.6,1.6-1c0.4-0.4,0.7-0.9,0.9-1.5
					c0.2-0.6,0.3-1.3,0.3-2c0-0.5-0.1-1-0.2-1.4c-0.2-0.4-0.4-0.8-0.7-1.1s-0.7-0.5-1.3-0.7c-0.5-0.2-1.1-0.2-1.9-0.2h-4L205,81.5
					L205,81.5z M223.2,92.9h-4l3.1-25.1h4L223.2,92.9z"/>
			</g>
			<g>
				<path class="st0" d="M48.8,167.8c0.1-0.2,0.3-0.4,0.5-0.5c0.2-0.2,0.4-0.2,0.6-0.2h1.8l-2.2,17.8h-2.4l1.6-12.6
					c0-0.4,0.1-0.7,0.2-1.1c0.1-0.4,0.2-0.8,0.3-1.2c-0.2,0.4-0.4,0.7-0.6,1c-0.2,0.3-0.4,0.6-0.6,0.9l-9.1,12.3
					c-0.1,0.2-0.3,0.4-0.5,0.5c-0.2,0.2-0.4,0.2-0.7,0.2H36l2.2-17.9h2.3l-1.6,12.6c-0.1,0.4-0.1,0.7-0.2,1.1
					c-0.1,0.4-0.1,0.8-0.3,1.2c0.2-0.4,0.4-0.7,0.6-1c0.2-0.3,0.4-0.6,0.6-0.8L48.8,167.8z"/>
				<path class="st0" d="M66.9,182.8c0.4-0.2,0.7-0.6,1-1.2l1-1.9L63.8,167h2.1c0.2,0,0.4,0,0.5,0.1s0.2,0.2,0.3,0.4l3,8.3
					c0.1,0.3,0.2,0.6,0.3,1c0.1,0.3,0.1,0.6,0.2,1c0.1-0.3,0.3-0.6,0.4-1c0.2-0.3,0.3-0.6,0.5-1l4.4-8.3c0.1-0.1,0.2-0.3,0.4-0.4
					c0.1-0.1,0.3-0.2,0.5-0.2h2l-8.7,15.6c-0.3,0.5-0.5,0.9-0.8,1.2s-0.6,0.6-0.9,0.8s-0.6,0.3-0.9,0.4c-0.3,0.1-0.6,0.1-1,0.1
					c-0.5,0-0.9-0.1-1.1-0.1c-0.2-0.1-0.3-0.3-0.3-0.5l0.2-1.3h0.8C66.1,183.2,66.5,183,66.9,182.8z"/>
				<path class="st0" d="M91.7,184.9h-2.4l1-7.8c-0.9,0.3-1.8,0.5-2.7,0.6c-0.9,0.1-1.6,0.2-2.4,0.2c-0.7,0-1.4-0.1-2-0.3
					s-1.1-0.5-1.5-0.9s-0.7-0.9-0.8-1.6c-0.2-0.6-0.2-1.4-0.1-2.4l0.7-5.8h2.4l-0.7,5.9c-0.1,0.8,0,1.5,0.2,2s0.6,0.9,1.2,1.1
					c0.6,0.2,1.4,0.3,2.3,0.2c1-0.1,2.1-0.3,3.4-0.7l1-8.4h2.4L91.7,184.9z"/>
				<path class="st0" d="M111.8,184.9H110c-0.2,0-0.4-0.1-0.5-0.2c-0.1-0.1-0.2-0.2-0.2-0.4l-1-4.4h-7.4l-2.1,4.4
					c-0.1,0.1-0.2,0.3-0.3,0.4c-0.2,0.1-0.3,0.2-0.5,0.2h-1.8L105,167h2.4L111.8,184.9z M101.7,178.3h6.2l-1.7-7.4
					c0-0.2-0.1-0.5-0.1-0.8c-0.1-0.3-0.1-0.6-0.2-0.9c-0.1,0.3-0.3,0.7-0.4,1s-0.2,0.5-0.3,0.8L101.7,178.3z"/>
				<path class="st0" d="M122.8,183.1c0.6,0,1,0,1.5-0.1c0.4-0.1,0.8-0.2,1.1-0.3s0.6-0.3,0.8-0.4c0.2-0.2,0.4-0.3,0.6-0.4
					c0.2-0.1,0.3-0.2,0.4-0.3s0.2-0.1,0.3-0.1s0.1,0,0.2,0l0.1,0.1l0.8,1c-0.8,0.8-1.7,1.5-2.7,2s-2.2,0.7-3.6,0.7
					c-1.1,0-2.1-0.2-2.9-0.6c-0.9-0.4-1.6-0.9-2.2-1.6s-1-1.5-1.4-2.5c-0.3-1-0.5-2-0.5-3.1c0-1.6,0.2-3,0.7-4.3s1.2-2.4,2-3.3
					c0.9-0.9,1.9-1.6,3-2.2c1.2-0.5,2.4-0.8,3.7-0.8c0.6,0,1.2,0.1,1.7,0.2c0.5,0.1,1,0.3,1.4,0.5c0.4,0.2,0.8,0.5,1.2,0.8
					c0.3,0.3,0.7,0.6,1,1l-0.8,1c-0.1,0.1-0.1,0.2-0.2,0.2c-0.1,0.1-0.2,0.1-0.3,0.1c-0.2,0-0.3-0.1-0.5-0.2
					c-0.2-0.2-0.4-0.3-0.7-0.5s-0.7-0.4-1.1-0.5c-0.5-0.2-1.1-0.2-1.8-0.2c-1,0-1.9,0.2-2.7,0.6c-0.8,0.4-1.6,0.9-2.2,1.7
					c-0.6,0.7-1.1,1.6-1.5,2.6s-0.5,2.2-0.5,3.4c0,0.9,0.1,1.8,0.4,2.5c0.2,0.7,0.6,1.4,1,1.9s0.9,0.9,1.5,1.2
					C121.4,183,122.1,183.1,122.8,183.1z"/>
				<path class="st0" d="M146.7,167l-0.2,2h-5.3l-2,16h-2.3l2-16h-5.3l0.2-2H146.7z"/>
				<path class="st0" d="M162.6,184.9h-2.4l1-8.2h-8.8l-1,8.2H149l2.2-17.9h2.4l-1,8h8.8l1-8h2.4L162.6,184.9z"/>
				<path class="st0" d="M181.8,167.8c0.1-0.2,0.3-0.4,0.5-0.5c0.2-0.2,0.4-0.2,0.6-0.2h1.8l-2.2,17.8h-2.4l1.6-12.6
					c0-0.4,0.1-0.7,0.2-1.1c0.1-0.4,0.2-0.8,0.3-1.2c-0.2,0.4-0.4,0.7-0.6,1c-0.2,0.3-0.4,0.6-0.6,0.9l-9.1,12.3
					c-0.1,0.2-0.3,0.4-0.5,0.5c-0.2,0.2-0.4,0.2-0.7,0.2H169l2.2-17.9h2.4l-1.6,12.6c-0.1,0.4-0.1,0.7-0.2,1.1
					c-0.1,0.4-0.1,0.8-0.3,1.2c0.2-0.4,0.4-0.7,0.6-1c0.2-0.3,0.4-0.6,0.6-0.8L181.8,167.8z"/>
				<path class="st0" d="M192.4,174.9h1.7c0.3,0,0.6-0.1,0.9-0.2c0.3-0.1,0.5-0.3,0.8-0.7l5-6.3c0.1-0.2,0.3-0.4,0.5-0.5
					s0.4-0.2,0.6-0.2h2l-5.9,7.4c-0.4,0.6-1,1-1.6,1.2c0.4,0.1,0.7,0.3,1,0.5s0.5,0.6,0.7,1l4,7.8H200c-0.2,0-0.4-0.1-0.6-0.2
					c-0.1-0.1-0.3-0.3-0.4-0.5l-3.5-6.6c-0.1-0.2-0.2-0.3-0.3-0.4c-0.1-0.1-0.2-0.2-0.3-0.3s-0.3-0.1-0.4-0.1c-0.2,0-0.3,0-0.5,0h-2
					l-1,8.2h-2.4l2.2-17.9h2.4L192.4,174.9z"/>
				<path class="st0" d="M222.4,174.7c0,1.5-0.2,2.9-0.7,4.2s-1.1,2.4-2,3.3c-0.8,0.9-1.8,1.6-3,2.2c-1.2,0.5-2.4,0.8-3.8,0.8
					c-1.1,0-2.1-0.2-3-0.6c-0.9-0.4-1.6-0.9-2.3-1.6c-0.6-0.7-1.1-1.5-1.4-2.5c-0.3-1-0.5-2-0.5-3.1c0-1.5,0.2-2.9,0.7-4.2
					s1.1-2.4,2-3.3c0.8-0.9,1.8-1.6,3-2.2c1.2-0.5,2.4-0.8,3.8-0.8c1.1,0,2.1,0.2,3,0.6c0.9,0.4,1.6,0.9,2.3,1.6
					c0.6,0.7,1.1,1.5,1.4,2.5C222.3,172.5,222.4,173.6,222.4,174.7z M220,174.8c0-0.9-0.1-1.7-0.4-2.5c-0.2-0.7-0.6-1.4-1-1.9
					s-1-0.9-1.6-1.2s-1.3-0.4-2.1-0.4c-1,0-1.9,0.2-2.7,0.6c-0.8,0.4-1.5,1-2.1,1.7s-1.1,1.6-1.4,2.7c-0.3,1-0.5,2.2-0.5,3.5
					c0,0.9,0.1,1.7,0.3,2.5c0.2,0.7,0.6,1.4,1,1.9s1,0.9,1.6,1.2s1.3,0.4,2.1,0.4c1,0,1.9-0.2,2.7-0.6c0.8-0.4,1.5-1,2.1-1.7
					s1.1-1.6,1.4-2.6C219.8,177.2,220,176,220,174.8z"/>
				<path class="st0" d="M226.6,184.9l2.2-17.9h5.4c0.9,0,1.7,0.1,2.4,0.3s1.2,0.5,1.7,0.8c0.4,0.3,0.8,0.8,1,1.3s0.3,1,0.3,1.7
					c0,0.5-0.1,1-0.2,1.5c-0.2,0.5-0.4,0.9-0.7,1.3c-0.3,0.4-0.7,0.8-1.2,1.1s-1,0.6-1.6,0.8c1.1,0.2,1.9,0.7,2.4,1.3
					s0.8,1.4,0.8,2.3c0,0.8-0.1,1.6-0.4,2.3c-0.3,0.7-0.7,1.3-1.3,1.8s-1.2,0.9-2.1,1.2c-0.8,0.3-1.7,0.4-2.7,0.4h-6L226.6,184.9
					L226.6,184.9z M229.9,176.7l-0.8,6.3h3.5c0.7,0,1.3-0.1,1.8-0.3s0.9-0.4,1.3-0.8c0.3-0.3,0.6-0.7,0.7-1.2c0.2-0.5,0.3-1,0.3-1.5
					c0-0.8-0.3-1.4-0.8-1.9s-1.3-0.7-2.4-0.7L229.9,176.7L229.9,176.7z M230.1,175.1h2.9c0.7,0,1.3-0.1,1.8-0.3s0.9-0.4,1.3-0.8
					c0.3-0.3,0.6-0.7,0.8-1.2c0.2-0.4,0.3-0.9,0.3-1.5c0-0.9-0.3-1.5-0.8-1.9s-1.3-0.6-2.4-0.6h-3L230.1,175.1z"/>
			</g>
		</g>
	</g>
</g>
</svg>
