<?xml version="1.0" encoding="utf-8"?>
<!-- Generator: Adobe Illustrator 20.1.0, SVG Export Plug-In . SVG Version: 6.00 Build 0)  -->
<svg version="1.1" id="Слой_1" xmlns="http://www.w3.org/2000/svg" xmlns:xlink="http://www.w3.org/1999/xlink" x="0px" y="0px"
	 viewBox="0 0 317.5 219" style="enable-background:new 0 0 317.5 219;" xml:space="preserve">
<style type="text/css">
	.st0{fill:#E63B23;}
	.st0{fill:#FFFFFF;}
</style>
<g>
	
		<image style="overflow:visible;opacity:0.54;enable-background:new    ;" width="316" height="217" xlink:href="img/svg/755798F52CBD0FB7.png"  transform="matrix(1 0 0 1 -1.3999 1.4901)">
	</image>
	<g>
		<g>
			<polygon class="st1" points="303.7,40.4 9.4,40.4 16.2,1.7 310.5,1.7 			"/>
			<g>
				<path class="st0" d="M77.7,15c0.9,0,1.6,0.2,2.4,0.6c0.7,0.3,1.3,0.8,1.8,1.3s0.9,1.2,1.2,1.9c0.3,0.7,0.4,1.5,0.4,2.3
					c0,1-0.2,2-0.6,2.9s-0.9,1.7-1.6,2.3c-0.7,0.6-1.5,1.2-2.4,1.6C78,28.3,77,28.5,76,28.6l-0.2,2h-3.6l0.2-2
					c-0.9,0-1.6-0.2-2.4-0.6c-0.7-0.3-1.3-0.8-1.8-1.3s-0.9-1.2-1.2-1.9c-0.2-0.8-0.4-1.5-0.4-2.3c0-1,0.2-2,0.6-2.8
					c0.4-0.9,0.9-1.7,1.6-2.3c0.7-0.6,1.5-1.2,2.4-1.6c0.9-0.4,1.9-0.6,2.9-0.7l0.2-2h3.6L77.7,15z M70.4,22.3
					c0,0.5,0.1,0.9,0.2,1.3s0.3,0.8,0.5,1.1c0.2,0.3,0.5,0.5,0.7,0.7c0.3,0.2,0.6,0.3,1,0.3l1-7.9c-0.5,0-0.9,0.1-1.3,0.4
					c-0.4,0.2-0.8,0.6-1.1,1c-0.3,0.4-0.5,0.9-0.7,1.4S70.4,21.7,70.4,22.3z M79.8,21.2c0-0.5-0.1-0.9-0.2-1.3s-0.3-0.8-0.5-1.1
					c-0.2-0.3-0.5-0.5-0.8-0.7c-0.3-0.2-0.6-0.3-1-0.3l-1,7.9c0.5,0,0.9-0.2,1.3-0.4c0.4-0.2,0.8-0.6,1.1-1c0.3-0.4,0.5-0.9,0.7-1.4
					S79.8,21.8,79.8,21.2z"/>
				<path class="st0" d="M96.5,14.8c0.1-0.1,0.2-0.3,0.3-0.4c0.1-0.1,0.3-0.3,0.4-0.4c0.2-0.1,0.3-0.2,0.5-0.3
					c0.2-0.1,0.4-0.1,0.5-0.1h2.9l-2,16.9h-3.8l1.1-9.3c0.1-0.4,0.1-0.9,0.2-1.3c0.1-0.5,0.2-1,0.3-1.5c-0.2,0.5-0.5,0.9-0.7,1.3
					c-0.3,0.4-0.5,0.8-0.7,1.1L90,29.4c-0.1,0.1-0.2,0.3-0.3,0.4c-0.1,0.1-0.3,0.3-0.4,0.4c-0.2,0.1-0.3,0.2-0.5,0.3
					c-0.2,0-0.4,0-0.6,0h-2.9l2.1-16.8h3.8L90.1,23c-0.1,0.4-0.1,0.9-0.2,1.4s-0.2,1-0.3,1.5c0.2-0.5,0.5-0.9,0.7-1.3
					c0.3-0.4,0.5-0.8,0.7-1.1L96.5,14.8z"/>
				<path class="st0" d="M116.5,13.7l-0.4,3h-4.3L110,30.5h-3.8l1.7-13.8h-4.3l0.4-3H116.5z"/>
				<path class="st0" d="M130.9,30.5h-3.8l0.9-7.1h-6.1l-0.9,7.1h-3.8l2.1-16.8h3.8l-0.9,7.1h6.1l0.9-7.1h3.8L130.9,30.5z"/>
				<path class="st0" d="M146.8,16.6h-6.3l-0.5,4.1h4.8l-0.4,2.8h-4.8l-0.5,4.2h6.3l-0.4,2.9h-10.1l2.1-16.8h10.1L146.8,16.6z"/>
				<path class="st0" d="M155.4,27.6c0.4,0,0.8,0,1.1-0.1s0.6-0.1,0.8-0.2c0.2-0.1,0.4-0.2,0.6-0.3c0.2-0.1,0.3-0.2,0.4-0.3
					s0.2-0.2,0.3-0.2c0.1-0.1,0.2-0.1,0.3-0.1s0.2,0,0.3,0.1c0.1,0,0.1,0.1,0.2,0.1l1.3,1.6c-0.7,0.9-1.6,1.5-2.6,2
					c-1,0.4-2.2,0.7-3.4,0.7c-1.1,0-2-0.2-2.8-0.6c-0.8-0.4-1.5-0.9-2.1-1.5c-0.6-0.7-1-1.4-1.3-2.3c-0.3-0.9-0.4-1.9-0.4-2.9
					s0.1-1.9,0.3-2.7c0.2-0.9,0.5-1.7,0.9-2.4c0.4-0.7,0.9-1.4,1.4-2c0.6-0.6,1.2-1.1,1.8-1.5c0.7-0.4,1.4-0.7,2.2-0.9
					c0.8-0.2,1.6-0.3,2.4-0.3c0.6,0,1.2,0.1,1.7,0.2c0.5,0.1,1,0.3,1.4,0.5s0.8,0.5,1.1,0.8s0.6,0.6,0.9,1l-1.3,1.5
					c-0.1,0.1-0.2,0.2-0.3,0.3s-0.3,0.1-0.5,0.1c-0.1,0-0.3,0-0.4-0.1c-0.1-0.1-0.2-0.1-0.3-0.2c-0.1-0.1-0.2-0.2-0.4-0.3
					c-0.1-0.1-0.3-0.2-0.5-0.3s-0.4-0.2-0.7-0.2c-0.3-0.1-0.6-0.1-0.9-0.1c-0.7,0-1.4,0.1-2,0.4c-0.6,0.3-1.2,0.7-1.6,1.3
					c-0.5,0.6-0.8,1.2-1.1,2c-0.3,0.8-0.4,1.7-0.4,2.7c0,0.7,0.1,1.4,0.3,1.9c0.2,0.6,0.4,1,0.7,1.4c0.3,0.4,0.7,0.7,1.1,0.9
					C154.4,27.5,154.9,27.6,155.4,27.6z"/>
				<path class="st0" d="M163.5,21h5.8l-0.4,2.8h-5.8L163.5,21z"/>
				<path class="st0" d="M172.6,26.3c0.2,0,0.4,0.1,0.6,0.3c0.2,0.2,0.4,0.4,0.6,0.5c0.2,0.1,0.4,0.3,0.6,0.3
					c0.2,0.1,0.4,0.1,0.7,0.2c0.3,0,0.5,0.1,0.9,0.1c0.5,0,1-0.1,1.4-0.3c0.5-0.2,0.9-0.5,1.3-0.8c0.4-0.3,0.7-0.8,1-1.3
					c0.3-0.5,0.5-1.1,0.7-1.8h-6.6l0.3-2.7h6.5c0-0.6-0.1-1.2-0.3-1.7s-0.4-0.9-0.7-1.3c-0.3-0.3-0.6-0.6-1-0.8
					c-0.4-0.2-0.8-0.3-1.3-0.3c-0.6,0-1,0.1-1.4,0.2s-0.7,0.3-0.9,0.4c-0.3,0.1-0.5,0.3-0.7,0.4c-0.2,0.1-0.4,0.2-0.6,0.2
					s-0.4,0-0.5-0.1c-0.1-0.1-0.2-0.2-0.2-0.3l-1-1.6c0.7-0.7,1.6-1.2,2.5-1.6c1-0.4,2-0.6,3.2-0.6c1,0,2,0.2,2.8,0.6
					c0.8,0.4,1.5,0.9,2.1,1.5c0.6,0.7,1,1.4,1.3,2.4c0.3,0.9,0.5,1.9,0.5,3c0,1.4-0.2,2.7-0.6,3.8c-0.4,1.2-1,2.2-1.7,3.1
					c-0.8,0.9-1.7,1.6-2.7,2.1c-1.1,0.5-2.3,0.7-3.6,0.7s-2.4-0.2-3.3-0.7c-0.9-0.5-1.7-1.1-2.2-1.9l1.7-1.6
					c0.1-0.1,0.2-0.1,0.3-0.2C172.5,26.3,172.6,26.3,172.6,26.3z"/>
				<path class="st0" d="M191.6,20.6h1.3c0.3,0,0.5-0.1,0.7-0.2s0.4-0.3,0.6-0.6l3.3-5.2c0.2-0.3,0.4-0.5,0.7-0.7s0.6-0.3,0.9-0.3
					h3.3l-4.5,6.6c-0.2,0.3-0.5,0.5-0.8,0.7c-0.3,0.2-0.6,0.4-0.9,0.5c0.5,0.1,0.9,0.4,1.2,0.7s0.6,0.7,0.8,1.3l2.5,7h-3.5
					c-0.3,0-0.6-0.1-0.8-0.3c-0.2-0.2-0.4-0.4-0.5-0.8l-1.8-5.3c-0.1-0.3-0.3-0.6-0.5-0.7c-0.2-0.1-0.5-0.2-0.8-0.2h-1.6l-0.9,7.2
					h-3.7l2.1-16.8h3.8L191.6,20.6z"/>
				<path class="st0" d="M223.6,30.5h-20.5l2.1-16.8h3.8l-1.7,14h4.5l1.7-14h3.8l-1.7,14h4.5l1.7-14h3.8L223.6,30.5z"/>
				<path class="st0" d="M241.4,30.5h-3.8l0.9-7.1h-6.1l-0.9,7.1h-3.8l2.1-16.8h3.8l-0.9,7.1h6.1l0.9-7.1h3.8L241.4,30.5z"/>
				<path class="st0" d="M245,28.5c0-0.2,0-0.5,0.1-0.7c0.1-0.2,0.2-0.4,0.4-0.6c0.2-0.2,0.4-0.3,0.6-0.4c0.2-0.1,0.5-0.1,0.8-0.1
					s0.7,0.1,0.9,0.2c0.3,0.1,0.5,0.3,0.6,0.5c0.2,0.2,0.3,0.4,0.4,0.7c0.1,0.3,0.1,0.5,0.1,0.8c0,0.4-0.1,0.8-0.2,1.2
					c-0.1,0.4-0.3,0.9-0.6,1.3c-0.2,0.4-0.5,0.9-0.9,1.3c-0.4,0.4-0.8,0.8-1.3,1.2l-0.6-0.6c-0.2-0.1-0.3-0.3-0.3-0.5
					c0-0.1,0.1-0.3,0.2-0.4c0.1-0.2,0.3-0.3,0.5-0.5c0.2-0.2,0.3-0.4,0.5-0.7c0.2-0.2,0.3-0.5,0.4-0.8c-0.3,0-0.5-0.1-0.7-0.2
					c-0.2-0.1-0.4-0.2-0.6-0.4c-0.2-0.2-0.3-0.4-0.4-0.6C245,29,245,28.8,245,28.5z"/>
			</g>
			<g>
				<path class="st0" d="M24.7,65.9h-2.4l1.6-13.2h-6.3L16,65.9h-2.4l1.9-15h11.1L24.7,65.9z"/>
				<path class="st0" d="M44,57.4c0,0.8-0.1,1.6-0.3,2.4c-0.2,0.8-0.4,1.5-0.8,2.1c-0.3,0.6-0.8,1.2-1.2,1.7c-0.5,0.5-1,1-1.6,1.3
					c-0.6,0.4-1.2,0.6-1.9,0.8C37.5,65.9,36.8,66,36,66c-0.9,0-1.8-0.2-2.6-0.5c-0.8-0.3-1.4-0.8-1.9-1.4c-0.5-0.6-0.9-1.3-1.2-2.1
					s-0.4-1.7-0.4-2.6c0-0.8,0.1-1.6,0.3-2.4c0.2-0.8,0.4-1.5,0.8-2.1c0.3-0.6,0.7-1.2,1.2-1.8c0.5-0.6,1-1,1.6-1.3s1.2-0.6,1.9-0.8
					c0.7-0.2,1.4-0.3,2.2-0.3c0.9,0,1.8,0.2,2.6,0.5s1.4,0.8,1.9,1.4c0.5,0.6,0.9,1.3,1.2,2.1C43.8,55.6,44,56.5,44,57.4z
					 M41.6,57.5c0-0.7-0.1-1.4-0.3-1.9c-0.2-0.6-0.4-1.1-0.8-1.5c-0.3-0.4-0.8-0.7-1.3-1c-0.5-0.2-1-0.3-1.7-0.3
					c-0.8,0-1.5,0.2-2.2,0.5s-1.2,0.8-1.7,1.4c-0.5,0.6-0.8,1.3-1.1,2.1s-0.4,1.7-0.4,2.7c0,0.7,0.1,1.4,0.3,1.9
					c0.2,0.6,0.4,1.1,0.8,1.5c0.3,0.4,0.8,0.7,1.2,1c0.5,0.2,1,0.3,1.7,0.3c0.8,0,1.5-0.2,2.2-0.5s1.2-0.8,1.7-1.3
					c0.5-0.6,0.8-1.3,1.1-2.1C41.4,59.4,41.6,58.5,41.6,57.5z"/>
				<path class="st0" d="M50.6,57.4H52c0.3,0,0.5,0,0.7-0.1s0.4-0.3,0.6-0.6l3.9-5.1c0.1-0.2,0.3-0.3,0.5-0.5
					c0.2-0.1,0.4-0.2,0.6-0.2h2L55.6,57c-0.2,0.3-0.4,0.5-0.6,0.6c-0.2,0.2-0.5,0.3-0.7,0.4c0.4,0.1,0.7,0.3,0.9,0.5s0.4,0.5,0.6,1
					l3.1,6.4h-2.1c-0.2,0-0.4-0.1-0.6-0.2c-0.1-0.1-0.3-0.3-0.4-0.5l-2.5-5.3c-0.1-0.3-0.3-0.5-0.5-0.6s-0.4-0.2-0.8-0.2h-1.6
					l-0.8,6.8h-2.4l1.9-15h2.4L50.6,57.4z"/>
				<path class="st0" d="M74.1,65.9h-1.8c-0.2,0-0.4-0.1-0.5-0.2c-0.1-0.1-0.2-0.2-0.2-0.4l-0.7-3.4H65l-1.6,3.4
					c-0.1,0.1-0.2,0.3-0.3,0.4c-0.2,0.1-0.3,0.2-0.5,0.2h-1.8l7.4-15h2.4L74.1,65.9z M65.7,60.3h4.7l-1.2-5.6c0-0.2-0.1-0.5-0.1-0.7
					s-0.1-0.6-0.2-0.9c-0.1,0.3-0.2,0.6-0.4,0.9c-0.1,0.3-0.2,0.5-0.3,0.8L65.7,60.3z"/>
				<path class="st0" d="M87.3,54.2c0,0.9-0.2,1.6-0.7,2.3s-1.1,1.1-2,1.5c0.7,0.3,1.2,0.7,1.6,1.3c0.4,0.5,0.6,1.2,0.6,1.9
					s-0.1,1.3-0.4,1.9c-0.3,0.6-0.6,1.1-1.1,1.6s-1.1,0.8-1.8,1.1c-0.7,0.3-1.5,0.4-2.3,0.4c-0.5,0-1,0-1.5-0.1s-0.9-0.2-1.3-0.4
					c-0.4-0.2-0.8-0.4-1.1-0.6c-0.3-0.2-0.6-0.5-0.9-0.8l0.8-1.1c0.1-0.1,0.2-0.2,0.3-0.2c0.1-0.1,0.2-0.1,0.3-0.1
					c0.1,0,0.2,0,0.3,0.1c0.1,0.1,0.2,0.2,0.4,0.3c0.1,0.1,0.3,0.2,0.5,0.3s0.4,0.2,0.6,0.3s0.5,0.2,0.8,0.3s0.6,0.1,1,0.1
					c0.5,0,1-0.1,1.4-0.2s0.7-0.3,1-0.6s0.5-0.6,0.6-0.9c0.1-0.4,0.2-0.8,0.2-1.2c0-0.3-0.1-0.6-0.2-0.9c-0.1-0.3-0.3-0.5-0.5-0.7
					s-0.5-0.3-0.8-0.4c-0.3-0.1-0.7-0.2-1.1-0.2h-1.9l0.2-1.9h1.8c0.4,0,0.8-0.1,1.2-0.2c0.4-0.1,0.7-0.3,0.9-0.5
					c0.3-0.2,0.5-0.5,0.6-0.8s0.2-0.6,0.2-1c0-0.6-0.2-1-0.6-1.4c-0.4-0.3-1-0.5-1.7-0.5c-0.5,0-0.9,0.1-1.3,0.2
					c-0.4,0.1-0.7,0.2-1,0.4c-0.3,0.1-0.5,0.3-0.7,0.4c-0.2,0.1-0.3,0.2-0.5,0.2c-0.1,0-0.2,0-0.3-0.1c-0.1-0.1-0.1-0.2-0.2-0.3
					l-0.4-1.1c0.6-0.5,1.3-0.9,2.1-1.2c0.8-0.3,1.6-0.4,2.5-0.4c0.7,0,1.3,0.1,1.8,0.3c0.5,0.2,1,0.4,1.3,0.7
					c0.4,0.3,0.6,0.7,0.8,1.1C87.2,53.3,87.3,53.7,87.3,54.2z"/>
				<path class="st0" d="M102.1,65.9h-1.8c-0.2,0-0.4-0.1-0.5-0.2c-0.1-0.1-0.2-0.2-0.2-0.4l-0.7-3.4H93l-1.6,3.4
					c-0.1,0.1-0.2,0.3-0.3,0.4c-0.2,0.1-0.3,0.2-0.5,0.2h-2l7.4-15h2.4L102.1,65.9z M93.7,60.3h4.7l-1.2-5.6c0-0.2-0.1-0.5-0.1-0.7
					c-0.1-0.3-0.1-0.6-0.2-0.9c-0.1,0.3-0.2,0.6-0.4,0.9c-0.1,0.3-0.2,0.5-0.3,0.8L93.7,60.3z"/>
				<path class="st0" d="M105.5,65.9l1.9-15h4.7c0.8,0,1.5,0.1,2.1,0.2c0.6,0.2,1.1,0.4,1.4,0.7c0.4,0.3,0.6,0.7,0.8,1.1
					c0.2,0.4,0.3,0.9,0.3,1.4c0,0.4-0.1,0.9-0.2,1.3c-0.1,0.4-0.3,0.8-0.6,1.1c-0.2,0.3-0.6,0.6-0.9,0.9c-0.4,0.3-0.8,0.5-1.4,0.7
					c0.9,0.2,1.5,0.6,2,1c0.4,0.5,0.7,1.1,0.7,1.9c0,0.7-0.1,1.3-0.4,1.9c-0.3,0.6-0.6,1.1-1.1,1.5s-1.1,0.8-1.8,1
					c-0.7,0.2-1.5,0.4-2.3,0.4h-5.2V65.9z M108.7,59.2l-0.6,4.9h2.8c0.5,0,1-0.1,1.4-0.2c0.4-0.1,0.7-0.3,1-0.6s0.4-0.6,0.6-0.9
					c0.1-0.4,0.2-0.8,0.2-1.2c0-0.6-0.2-1.1-0.6-1.4c-0.4-0.4-1-0.5-1.9-0.5L108.7,59.2L108.7,59.2z M108.9,57.6h2.2
					c1,0,1.8-0.2,2.4-0.7c0.5-0.5,0.8-1.2,0.8-2.1c0-0.7-0.2-1.2-0.6-1.5s-1-0.5-1.8-0.5h-2.3L108.9,57.6z"/>
				<path class="st0" d="M137.6,65.9h-17.7l1.9-15h2.4l-1.6,13.2h5.3l1.6-13.2h2.4l-1.6,13.2h5.3l1.6-13.2h2.4L137.6,65.9z"/>
				<path class="st0" d="M153.2,51.7c0.1-0.1,0.1-0.2,0.2-0.3c0.1-0.1,0.2-0.2,0.3-0.2c0.1-0.1,0.2-0.1,0.3-0.2
					c0.1,0,0.2-0.1,0.3-0.1h1.8l-1.9,15h-2.4L153,56c0-0.3,0.1-0.7,0.1-1c0.1-0.4,0.1-0.7,0.2-1.1c-0.2,0.3-0.3,0.7-0.5,1
					s-0.3,0.6-0.5,0.8l-6.9,9.5c-0.1,0.1-0.1,0.2-0.2,0.3c-0.1,0.1-0.2,0.2-0.3,0.2c-0.1,0.1-0.2,0.1-0.3,0.2
					c-0.1,0-0.2,0.1-0.3,0.1h-1.8l1.9-15h2.4l-1.2,9.9c0,0.3-0.1,0.7-0.2,1c-0.1,0.4-0.1,0.7-0.2,1.1c0.2-0.3,0.3-0.7,0.5-1
					s0.4-0.6,0.5-0.8L153.2,51.7z"/>
				<path class="st0" d="M169.9,51.7c0.1-0.1,0.1-0.2,0.2-0.3c0.1-0.1,0.2-0.2,0.3-0.2c0.1-0.1,0.2-0.1,0.3-0.2
					c0.1,0,0.2-0.1,0.3-0.1h1.8l-1.9,15h-2.3l1.2-9.9c0-0.3,0.1-0.7,0.1-1c0.1-0.4,0.1-0.7,0.2-1.1c-0.2,0.3-0.3,0.7-0.5,1
					s-0.3,0.6-0.5,0.8l-6.9,9.5c-0.1,0.1-0.1,0.2-0.2,0.3c-0.1,0.1-0.2,0.2-0.3,0.2c-0.1,0.1-0.2,0.1-0.3,0.2
					c-0.1,0-0.2,0.1-0.3,0.1h-1.8l1.9-15h2.4l-1.2,9.9c0,0.3-0.1,0.7-0.2,1c-0.1,0.4-0.1,0.7-0.2,1.1c0.2-0.3,0.3-0.7,0.5-1
					s0.4-0.6,0.5-0.8L169.9,51.7z M167.3,48.9c0.3,0,0.5,0,0.6-0.1c0.2-0.1,0.3-0.1,0.4-0.3c0.1-0.1,0.2-0.3,0.3-0.5
					s0.1-0.5,0.2-0.8h1.2c0.1,0,0.3,0.1,0.3,0.2c0.1,0.1,0.1,0.3,0.1,0.4c0,0.3-0.1,0.7-0.3,0.9c-0.2,0.2-0.4,0.5-0.7,0.7
					s-0.6,0.3-1,0.4c-0.4,0.1-0.8,0.1-1.3,0.1s-0.9,0-1.2-0.1c-0.4-0.1-0.7-0.2-0.9-0.4c-0.2-0.2-0.4-0.4-0.5-0.7
					c-0.1-0.3-0.1-0.6-0.1-0.9c0-0.2,0.1-0.3,0.2-0.4c0.1-0.1,0.2-0.2,0.4-0.2h1.2c0,0.3,0,0.6,0,0.8c0,0.2,0.1,0.4,0.2,0.5
					c0.1,0.1,0.2,0.2,0.4,0.3C166.8,48.8,167,48.9,167.3,48.9z"/>
			</g>
			<g>
				<g>
					<path class="st0" d="M82.7,203.9l-0.9,7.6h-3.3l2.6-21h6.1c1.2,0,2.2,0.1,3,0.4c0.8,0.3,1.5,0.7,2.1,1.2s1,1.1,1.2,1.8
						c0.3,0.7,0.4,1.5,0.4,2.3c0,1.1-0.2,2.1-0.5,3.1c-0.4,0.9-0.9,1.7-1.6,2.4s-1.6,1.2-2.6,1.6c-1,0.4-2.3,0.6-3.6,0.6L82.7,203.9
						L82.7,203.9z M84.1,193.1l-1,8.2H86c0.8,0,1.5-0.1,2.1-0.4c0.6-0.2,1.1-0.6,1.5-1s0.7-0.9,0.9-1.5c0.2-0.6,0.3-1.2,0.3-1.9
						c0-1-0.3-1.9-0.9-2.5s-1.5-0.9-2.8-0.9L84.1,193.1L84.1,193.1z"/>
					<path class="st0" d="M112.5,190.5l-0.3,2.7h-8.9l-0.8,6.5h7.1l-0.3,2.6h-7.1l-0.8,6.6h8.9l-0.3,2.7H97.7l2.6-21h12.2
						C112.5,190.6,112.5,190.5,112.5,190.5z"/>
					<path class="st0" d="M129.5,195.2c0,1.2-0.3,2.3-1,3.2c-0.6,0.9-1.5,1.6-2.7,2c1,0.4,1.7,1,2.2,1.8s0.8,1.6,0.8,2.6
						s-0.2,1.9-0.5,2.7c-0.4,0.8-0.9,1.6-1.6,2.2c-0.7,0.6-1.5,1.1-2.5,1.5s-2,0.5-3.2,0.5c-0.7,0-1.4-0.1-2.1-0.2
						c-0.7-0.1-1.3-0.3-1.9-0.6c-0.6-0.2-1.1-0.5-1.6-0.9c-0.5-0.3-0.9-0.7-1.2-1.1l1.1-1.5c0.1-0.1,0.2-0.2,0.4-0.3
						c0.1-0.1,0.3-0.1,0.4-0.1s0.3,0.1,0.5,0.2c0.2,0.1,0.3,0.2,0.5,0.4c0.2,0.1,0.4,0.3,0.7,0.5c0.2,0.2,0.5,0.3,0.8,0.5
						c0.3,0.1,0.7,0.3,1.1,0.4c0.4,0.1,0.9,0.2,1.4,0.2c0.7,0,1.4-0.1,1.9-0.3c0.6-0.2,1-0.5,1.4-0.8c0.4-0.4,0.7-0.8,0.9-1.3
						c0.2-0.5,0.3-1.1,0.3-1.7c0-0.5-0.1-0.9-0.2-1.2c-0.2-0.4-0.4-0.7-0.7-1c-0.3-0.3-0.7-0.5-1.1-0.6c-0.5-0.1-1-0.2-1.6-0.2h-2.7
						l0.3-2.7h2.5c0.6,0,1.2-0.1,1.7-0.2c0.5-0.2,0.9-0.4,1.3-0.7s0.6-0.6,0.8-1.1c0.2-0.4,0.3-0.9,0.3-1.5c0-0.8-0.3-1.4-0.8-1.9
						s-1.3-0.7-2.4-0.7c-0.7,0-1.3,0.1-1.8,0.2s-1,0.3-1.4,0.5s-0.7,0.4-1,0.5c-0.3,0.2-0.5,0.2-0.7,0.2s-0.3,0-0.4-0.1
						s-0.2-0.2-0.3-0.4l-0.6-1.6c0.9-0.7,1.9-1.2,3-1.6c1.1-0.4,2.3-0.6,3.5-0.6c1,0,1.8,0.1,2.5,0.4c0.7,0.2,1.4,0.6,1.9,1
						s0.9,0.9,1.2,1.5C129.4,193.8,129.5,194.5,129.5,195.2z"/>
					<path class="st0" d="M137,209c0.2,0,0.4-0.1,0.7-0.3s0.4-0.3,0.6-0.5c0.2-0.2,0.4-0.5,0.6-0.9l1.1-1.9l-6-14.9h3
						c0.3,0,0.5,0.1,0.7,0.2c0.2,0.1,0.3,0.3,0.4,0.6l3.1,8.7c0.1,0.4,0.3,0.9,0.4,1.3c0.1,0.4,0.2,0.8,0.2,1.3
						c0.2-0.4,0.4-0.8,0.6-1.3c0.2-0.4,0.4-0.8,0.6-1.3l4.6-8.7c0.1-0.2,0.3-0.4,0.5-0.5c0.2-0.2,0.4-0.2,0.7-0.2h2.8l-10.1,18.2
						c-0.3,0.6-0.7,1.1-1,1.5s-0.7,0.7-1.1,0.9s-0.7,0.4-1.1,0.5c-0.4,0.1-0.8,0.1-1.2,0.1c-0.7,0-1.2-0.1-1.5-0.2
						c-0.3-0.1-0.5-0.4-0.4-0.7l0.2-1.8h1C136.5,209,136.7,209,137,209z"/>
					<path class="st0" d="M169.7,190.5l-2.6,21h-3.3l2.3-18.4h-5.7c-0.5,2.7-0.9,5-1.4,6.9c-0.5,2-0.9,3.6-1.4,5s-1,2.5-1.5,3.4
						s-1,1.5-1.6,2c-0.5,0.5-1.1,0.8-1.7,1s-1.2,0.3-1.8,0.3c-1.2,0-1.7-0.2-1.7-0.6l0.2-2.1h1c0.3,0,0.7-0.1,1-0.2
						c0.3-0.1,0.7-0.4,1.1-0.9c0.4-0.4,0.7-1.1,1.1-1.9c0.4-0.8,0.8-1.9,1.2-3.3c0.4-1.4,0.8-3.1,1.2-5.1s0.8-4.4,1.3-7.2h12.3
						L169.7,190.5L169.7,190.5z"/>
					<path class="st0" d="M180,190.5l-1.1,8.9h3.4c1.1,0,2.1,0.1,2.9,0.4c0.8,0.3,1.5,0.6,2,1s0.9,1,1.1,1.6c0.2,0.6,0.4,1.3,0.4,2
						c0,1.1-0.2,2-0.5,2.9c-0.4,0.9-0.9,1.6-1.6,2.3c-0.7,0.6-1.5,1.1-2.5,1.5c-1,0.3-2.1,0.5-3.3,0.5h-6.7l2.6-21L180,190.5
						L180,190.5z M178.6,202l-0.9,6.9h3.4c0.7,0,1.4-0.1,1.9-0.3s1-0.5,1.3-0.8c0.3-0.4,0.6-0.8,0.8-1.3s0.3-1.1,0.3-1.7
						c0-0.4-0.1-0.8-0.2-1.2c-0.1-0.3-0.3-0.6-0.6-0.9c-0.3-0.2-0.6-0.4-1.1-0.6c-0.4-0.1-1-0.2-1.6-0.2h-3.3V202z"/>
					<path class="st0" d="M207,190.5l-0.4,2.7h-6l-2.3,18.3H195l2.2-18.3h-6l0.3-2.7H207z"/>
					<path class="st0" d="M224.1,211.5h-2.6c-0.3,0-0.5-0.1-0.7-0.2c-0.2-0.1-0.3-0.3-0.3-0.6l-1-4.7h-8.2l-2.2,4.7
						c-0.1,0.2-0.3,0.4-0.5,0.5c-0.2,0.2-0.5,0.2-0.7,0.2h-2.6l10.3-21h3.4L224.1,211.5z M212.4,203.7h6.6l-1.7-7.9
						c-0.1-0.3-0.1-0.6-0.2-1c-0.1-0.4-0.1-0.8-0.2-1.3c-0.2,0.5-0.3,0.9-0.5,1.3c-0.2,0.4-0.3,0.8-0.5,1.1L212.4,203.7z"/>
					<path class="st0" d="M242.9,190.5l-0.4,2.7h-6l-2.3,18.3h-3.3l2.2-18.3h-6l0.3-2.7H242.9z"/>
					<path class="st0" d="M264.7,199.6c0,1.2-0.1,2.3-0.4,3.3c-0.3,1.1-0.6,2-1.1,2.9s-1.1,1.7-1.7,2.4c-0.7,0.7-1.4,1.3-2.3,1.9
						c-0.8,0.5-1.7,0.9-2.7,1.2c-1,0.3-2,0.4-3.1,0.4c-1.3,0-2.5-0.2-3.6-0.7s-2-1.1-2.7-1.9c-0.7-0.8-1.3-1.8-1.7-2.9
						c-0.4-1.1-0.6-2.4-0.6-3.7c0-1.2,0.1-2.3,0.4-3.4c0.3-1.1,0.6-2,1.1-2.9s1-1.7,1.7-2.5c0.7-0.7,1.4-1.3,2.3-1.9
						c0.8-0.5,1.7-0.9,2.7-1.2c1-0.3,2-0.4,3.1-0.4c1.3,0,2.5,0.2,3.6,0.7s2,1.1,2.7,1.9c0.7,0.8,1.3,1.8,1.7,2.9
						C264.5,197,264.7,198.3,264.7,199.6z M261.3,199.7c0-1-0.1-1.9-0.4-2.7s-0.6-1.5-1.1-2.1s-1.1-1-1.8-1.3
						c-0.7-0.3-1.5-0.5-2.3-0.5c-1.1,0-2.1,0.2-3,0.7c-0.9,0.4-1.7,1.1-2.4,1.9c-0.7,0.8-1.2,1.8-1.5,3c-0.4,1.2-0.5,2.4-0.5,3.8
						c0,1,0.1,1.9,0.4,2.7c0.3,0.8,0.6,1.5,1.1,2.1s1.1,1,1.7,1.3c0.7,0.3,1.5,0.5,2.3,0.5c1.1,0,2.1-0.2,3.1-0.7
						c0.9-0.4,1.7-1.1,2.4-1.9c0.7-0.8,1.2-1.8,1.5-2.9C261.1,202.4,261.3,201.1,261.3,199.7z"/>
					<path class="st0" d="M269.2,211.5l2.6-21h6.5c1.1,0,2.1,0.1,2.9,0.3s1.5,0.5,2,1c0.5,0.4,0.9,0.9,1.2,1.5
						c0.2,0.6,0.4,1.2,0.4,2c0,0.6-0.1,1.2-0.3,1.8c-0.2,0.6-0.4,1.1-0.8,1.5c-0.3,0.5-0.8,0.9-1.3,1.3c-0.5,0.4-1.2,0.7-1.9,0.9
						c1.2,0.3,2.1,0.8,2.7,1.5s0.9,1.6,0.9,2.6s-0.2,1.9-0.5,2.7c-0.4,0.8-0.9,1.5-1.5,2.1c-0.7,0.6-1.5,1.1-2.5,1.4
						c-1,0.3-2.1,0.5-3.3,0.5h-7.1L269.2,211.5L269.2,211.5z M273.7,202.1l-0.8,6.8h3.9c0.7,0,1.4-0.1,1.9-0.3s1-0.5,1.3-0.8
						c0.4-0.4,0.6-0.8,0.8-1.3c0.2-0.5,0.3-1.1,0.3-1.7c0-0.8-0.3-1.5-0.8-2c-0.6-0.5-1.4-0.7-2.6-0.7H273.7z M273.9,199.8h3.1
						c1.5,0,2.5-0.3,3.3-1c0.7-0.7,1.1-1.7,1.1-2.9c0-0.9-0.3-1.6-0.8-2.1c-0.6-0.4-1.4-0.7-2.6-0.7h-3.3L273.9,199.8z"/>
				</g>
			</g>
			<g>
				<path class="st0" d="M203.1,56.5h-11.6l-1.2,9.3h5.1c1.1,0,2.1,0.1,2.9,0.4c0.8,0.2,1.5,0.6,2,1.1s1,1,1.2,1.7
					c0.3,0.7,0.4,1.4,0.4,2.2c0,1.2-0.2,2.2-0.6,3.1c-0.4,0.9-0.9,1.7-1.6,2.4c-0.7,0.7-1.6,1.2-2.6,1.5c-1,0.3-2.2,0.5-3.4,0.5H187
					l2.9-23.5h13.3L203.1,56.5z M190.1,67.1l-1.3,10.2h5c1,0,1.9-0.1,2.7-0.4s1.4-0.7,2-1.2c0.5-0.5,0.9-1.1,1.2-1.9
					c0.3-0.7,0.4-1.6,0.4-2.5c0-1.4-0.4-2.4-1.3-3.1c-0.8-0.7-2.1-1.1-3.8-1.1H190.1z"/>
				<path class="st0" d="M227.1,65.1c0,2.1-0.3,3.9-0.9,5.6c-0.6,1.7-1.5,3.1-2.5,4.3c-1.1,1.2-2.4,2.1-3.8,2.8
					c-1.5,0.7-3.1,1-4.8,1c-1.4,0-2.6-0.2-3.7-0.7c-1.1-0.5-2.1-1.2-2.8-2.1c-0.8-0.9-1.4-2-1.8-3.2c-0.4-1.2-0.6-2.6-0.6-4.1
					c0-2.1,0.3-3.9,0.9-5.6c0.6-1.7,1.5-3.2,2.5-4.4c1.1-1.2,2.3-2.1,3.8-2.8s3.1-1,4.8-1c1.4,0,2.6,0.2,3.8,0.7
					c1.1,0.5,2.1,1.2,2.9,2.1c0.8,0.9,1.4,2,1.8,3.2S227.1,63.6,227.1,65.1z M225.4,65.1c0-1.4-0.2-2.6-0.5-3.7
					c-0.4-1.1-0.9-2-1.5-2.8c-0.7-0.8-1.5-1.4-2.4-1.8c-0.9-0.4-2-0.6-3.1-0.6c-1.4,0-2.8,0.3-4,0.9s-2.3,1.4-3.2,2.5
					s-1.6,2.4-2.1,3.9c-0.5,1.5-0.8,3.2-0.8,5.1c0,1.4,0.2,2.6,0.5,3.7c0.4,1.1,0.9,2,1.5,2.8c0.7,0.8,1.4,1.4,2.4,1.8
					c0.9,0.4,2,0.6,3.1,0.6c1.5,0,2.8-0.3,4.1-0.9c1.2-0.6,2.3-1.4,3.2-2.5s1.6-2.4,2.1-3.9C225.1,68.8,225.4,67,225.4,65.1z"/>
				<path class="st0" d="M248.3,55.2l-2.9,23.5h-1.7l2.7-22.1h-8.6c-0.5,3.1-1,5.8-1.5,8.1c-0.5,2.3-1,4.3-1.5,6
					c-0.5,1.7-1,3-1.6,4.1c-0.5,1.1-1.1,1.9-1.6,2.5c-0.6,0.6-1.1,1-1.7,1.3c-0.6,0.2-1.2,0.4-1.8,0.4c-0.3,0-0.6,0-0.9-0.1
					c-0.2-0.1-0.4-0.2-0.3-0.3l0.1-1h0.9c0.5,0,0.9-0.1,1.4-0.3c0.5-0.2,0.9-0.6,1.4-1.2c0.5-0.6,0.9-1.4,1.4-2.5s0.9-2.4,1.4-4.1
					c0.5-1.6,1-3.6,1.4-5.9c0.5-2.3,1-5,1.5-8.2h11.9L248.3,55.2L248.3,55.2z"/>
				<path class="st0" d="M267.8,56.5h-11.4l-1.2,9.6h9.5l-0.2,1.3H255l-1.2,9.9h11.4l-0.2,1.4h-13.1l2.9-23.5h13.1L267.8,56.5z"/>
				<path class="st0" d="M285.8,56.5h-11.4l-1.2,9.6h9.5l-0.2,1.3H273l-1.2,9.9h11.4l-0.2,1.4h-13.1l2.9-23.5h13.1L285.8,56.5z"/>
			</g>
			<g>
				<path class="st0" d="M14.4,177.6h-2.8l1.9-15.3H6.1l-1.9,15.3H1.4l2.2-17.4h12.9L14.4,177.6z"/>
				<path class="st0" d="M36.7,167.7c0,1-0.1,1.9-0.3,2.8c-0.2,0.9-0.5,1.7-0.9,2.4s-0.9,1.4-1.4,2c-0.6,0.6-1.2,1.1-1.9,1.5
					c-0.7,0.4-1.4,0.7-2.2,1c-0.8,0.2-1.7,0.3-2.5,0.3c-1.1,0-2.1-0.2-3-0.6c-0.9-0.4-1.6-0.9-2.2-1.6c-0.6-0.7-1.1-1.5-1.4-2.4
					s-0.5-2-0.5-3.1c0-1,0.1-1.9,0.3-2.8c0.2-0.9,0.5-1.7,0.9-2.4s0.9-1.4,1.4-2c0.6-0.6,1.2-1.1,1.9-1.5c0.7-0.4,1.4-0.7,2.2-1
					c0.8-0.2,1.7-0.3,2.5-0.3c1.1,0,2.1,0.2,3,0.6c0.9,0.4,1.6,0.9,2.2,1.6c0.6,0.7,1.1,1.5,1.4,2.4
					C36.5,165.6,36.7,166.6,36.7,167.7z M33.9,167.7c0-0.8-0.1-1.6-0.3-2.3s-0.5-1.2-0.9-1.7s-0.9-0.8-1.5-1.1s-1.2-0.4-1.9-0.4
					c-0.9,0-1.8,0.2-2.5,0.5c-0.8,0.4-1.4,0.9-1.9,1.6c-0.5,0.7-1,1.5-1.3,2.4c-0.3,1-0.4,2-0.4,3.2c0,0.8,0.1,1.6,0.3,2.3
					c0.2,0.7,0.5,1.2,0.9,1.7s0.9,0.8,1.4,1.1c0.6,0.3,1.2,0.4,1.9,0.4c0.9,0,1.8-0.2,2.5-0.5c0.8-0.4,1.4-0.9,2-1.6
					c0.5-0.7,1-1.5,1.3-2.4C33.7,170,33.9,168.9,33.9,167.7z"/>
				<path class="st0" d="M52.9,160.2l-0.3,2.3h-5l-1.9,15.1H43l1.9-15.1h-5l0.3-2.3H52.9z"/>
				<path class="st0" d="M58.5,171.3l-0.8,6.3H55l2.1-17.4h5.1c1,0,1.8,0.1,2.5,0.3s1.3,0.6,1.7,1c0.5,0.4,0.8,0.9,1,1.5
					s0.3,1.2,0.3,1.9c0,0.9-0.1,1.8-0.4,2.6s-0.7,1.4-1.3,2c-0.6,0.6-1.3,1-2.2,1.3c-0.9,0.3-1.9,0.5-3,0.5L58.5,171.3L58.5,171.3z
					 M59.6,162.3l-0.8,6.8h2.4c0.6,0,1.2-0.1,1.7-0.3s0.9-0.5,1.2-0.8c0.3-0.4,0.6-0.8,0.7-1.3c0.2-0.5,0.2-1,0.2-1.6
					c0-0.9-0.3-1.5-0.8-2c-0.5-0.5-1.3-0.8-2.3-0.8L59.6,162.3L59.6,162.3z"/>
				<path class="st0" d="M79.3,177.6l0.9-7.4h-1.8c-0.2,0-0.4,0-0.5,0.1c-0.2,0-0.3,0.1-0.5,0.2c-0.2,0.1-0.3,0.2-0.5,0.4
					s-0.4,0.4-0.5,0.6l-3.7,5.1c-0.2,0.3-0.5,0.5-0.8,0.7s-0.7,0.3-1.1,0.3h-2.1l4.6-6.2c0.3-0.4,0.6-0.7,0.9-1s0.6-0.5,1-0.6
					c-0.5-0.1-1-0.3-1.4-0.6c-0.4-0.2-0.7-0.5-1-0.9c-0.3-0.3-0.5-0.7-0.6-1.1s-0.2-0.9-0.2-1.3c0-0.8,0.1-1.6,0.5-2.3
					c0.3-0.7,0.7-1.3,1.3-1.8c0.6-0.5,1.2-0.9,2-1.2s1.7-0.4,2.7-0.4h5.6l-2.2,17.4H79.3z M74.8,165.7c0,0.4,0.1,0.7,0.2,1
					s0.3,0.5,0.5,0.7s0.5,0.4,0.9,0.5s0.8,0.2,1.3,0.2h2.9l0.7-5.7h-2.9c-1.2,0-2.1,0.3-2.7,0.9C75.1,163.8,74.8,164.7,74.8,165.7z"
					/>
				<path class="st0" d="M95.1,175.4c0.5,0,1,0,1.4-0.1s0.7-0.2,1-0.3s0.5-0.3,0.7-0.4c0.2-0.1,0.4-0.3,0.5-0.4
					c0.2-0.1,0.3-0.2,0.4-0.3s0.2-0.1,0.3-0.1c0.1,0,0.2,0,0.2,0.1c0.1,0,0.1,0.1,0.1,0.1l1,1.2c-0.8,0.8-1.6,1.5-2.7,2
					c-1,0.5-2.2,0.7-3.5,0.7c-1.1,0-2-0.2-2.8-0.6c-0.8-0.4-1.5-0.9-2.1-1.6c-0.6-0.7-1-1.5-1.3-2.4s-0.5-1.9-0.5-3
					c0-1.5,0.2-2.9,0.7-4.1c0.5-1.3,1.1-2.3,2-3.2c0.8-0.9,1.8-1.6,2.9-2.1s2.3-0.7,3.6-0.7c0.6,0,1.2,0.1,1.7,0.2
					c0.5,0.1,1,0.3,1.4,0.5s0.8,0.5,1.1,0.7c0.3,0.3,0.7,0.6,0.9,1l-0.9,1.1c-0.1,0.1-0.2,0.2-0.3,0.2c-0.1,0.1-0.2,0.1-0.4,0.1
					c-0.1,0-0.2,0-0.3-0.1c-0.1-0.1-0.2-0.2-0.4-0.3c-0.1-0.1-0.3-0.2-0.5-0.4c-0.2-0.1-0.4-0.2-0.6-0.4c-0.2-0.1-0.5-0.2-0.9-0.3
					c-0.3-0.1-0.7-0.1-1.2-0.1c-0.9,0-1.7,0.2-2.5,0.5c-0.8,0.4-1.4,0.9-2,1.5c-0.6,0.7-1,1.5-1.3,2.4s-0.5,2-0.5,3.2
					c0,0.8,0.1,1.6,0.3,2.3c0.2,0.7,0.5,1.2,0.9,1.7s0.9,0.8,1.4,1.1C93.9,175.3,94.5,175.4,95.1,175.4z"/>
				<path class="st0" d="M118.7,177.6h-2.1c-0.2,0-0.4-0.1-0.6-0.2c-0.1-0.1-0.2-0.3-0.3-0.5l-0.8-3.9h-6.8l-1.8,3.9
					c-0.1,0.2-0.2,0.3-0.4,0.4c-0.2,0.1-0.4,0.2-0.6,0.2h-2.1l8.5-17.4h2.8L118.7,177.6z M109,171.1h5.5l-1.4-6.5
					c0-0.2-0.1-0.5-0.2-0.9c-0.1-0.3-0.1-0.7-0.2-1.1c-0.1,0.4-0.3,0.7-0.4,1.1c-0.1,0.3-0.3,0.6-0.4,0.9L109,171.1z"/>
				<path class="st0" d="M126.6,167.8h3.4c0.2-1.2,0.6-2.2,1.1-3.2s1.1-1.8,1.9-2.5c0.7-0.7,1.6-1.2,2.5-1.6c0.9-0.4,2-0.6,3.1-0.6
					c1,0,2,0.2,2.8,0.6c0.8,0.4,1.5,0.9,2.1,1.6c0.6,0.7,1,1.5,1.3,2.4s0.4,1.9,0.4,3c0,1.5-0.2,2.8-0.6,4.1c-0.4,1.2-1,2.3-1.8,3.2
					s-1.7,1.6-2.8,2.1s-2.2,0.8-3.5,0.8c-1,0-2-0.2-2.8-0.6c-0.8-0.4-1.5-0.9-2.1-1.6c-0.6-0.7-1-1.5-1.3-2.4s-0.4-1.9-0.4-3v-0.2
					h-3.5l-0.9,7.6h-2.8l2.1-17.4h2.8L126.6,167.8z M136.6,175.5c0.9,0,1.6-0.2,2.3-0.6c0.7-0.4,1.3-0.9,1.8-1.6
					c0.5-0.7,0.9-1.5,1.2-2.5s0.4-2.1,0.4-3.3c0-0.8-0.1-1.5-0.3-2.2s-0.4-1.2-0.8-1.7c-0.3-0.5-0.8-0.8-1.3-1.1s-1.1-0.4-1.7-0.4
					c-0.9,0-1.6,0.2-2.3,0.6c-0.7,0.4-1.3,0.9-1.8,1.6c-0.5,0.7-0.9,1.5-1.2,2.5s-0.4,2-0.4,3.2c0,0.8,0.1,1.5,0.3,2.2
					s0.4,1.2,0.8,1.7c0.3,0.5,0.8,0.8,1.3,1.1C135.4,175.4,136,175.5,136.6,175.5z"/>
				<path class="st0" d="M148.9,177.6l2.2-17.4h2.8l-1.9,15.3h6.1l1.9-15.3h2.8l-1.9,15.3h6.1l1.9-15.3h2.8l-2.1,15.3h2.4l-0.7,5.5
					c0,0.2-0.1,0.4-0.3,0.6c-0.2,0.1-0.4,0.2-0.7,0.2h-1.6l0.5-4.2H148.9z"/>
				<path class="st0" d="M188.5,161c0.1-0.1,0.2-0.2,0.3-0.3s0.2-0.2,0.3-0.3s0.2-0.1,0.4-0.2c0.1,0,0.3-0.1,0.4-0.1h2.1l-2.2,17.4
					H187l1.4-11.4c0-0.4,0.1-0.8,0.2-1.2c0.1-0.4,0.2-0.8,0.3-1.3c-0.2,0.4-0.4,0.8-0.6,1.1c-0.2,0.3-0.4,0.6-0.6,0.9l-8,11
					c-0.1,0.1-0.2,0.2-0.3,0.3s-0.2,0.2-0.3,0.3s-0.2,0.1-0.4,0.2c-0.1,0.1-0.3,0.1-0.4,0.1h-2l2.2-17.4h2.8l-1.4,11.4
					c0,0.4-0.1,0.8-0.2,1.2c-0.1,0.4-0.2,0.8-0.3,1.3c0.2-0.4,0.4-0.8,0.6-1.1s0.4-0.6,0.6-0.9L188.5,161z"/>
				<path class="st0" d="M200.4,168.3l-4-8.1h2.5c0.2,0,0.3,0,0.4,0.1c0.1,0.1,0.2,0.2,0.2,0.3l2.9,6.3c0-0.1,0.1-0.2,0.1-0.2
					c0-0.1,0.1-0.2,0.2-0.3l4.1-5.7c0.1-0.1,0.2-0.2,0.3-0.3s0.2-0.1,0.4-0.1h2.8l-6,8l4.5,9.4h-2.5c-0.2,0-0.3-0.1-0.4-0.2
					c-0.1-0.1-0.2-0.2-0.2-0.3l-3.3-7.3c0,0.1-0.1,0.1-0.1,0.2c0,0.1-0.1,0.1-0.1,0.2l-4.9,6.9c-0.1,0.2-0.3,0.3-0.4,0.4
					c-0.1,0.1-0.3,0.1-0.5,0.1h-2.8L200.4,168.3z"/>
			</g>
			<g>
				<path class="st0" d="M38.2,141.7h11l5.2-42.3c0-0.4,0.1-0.8,0.2-1.3c0.1-0.4,0.2-0.9,0.3-1.3L43.2,107c-0.4,0.3-0.8,0.4-1.1,0.3
					s-0.6-0.2-0.7-0.4l-0.8-1.4l15.5-13.2h2.7l-6.2,49.4H63l-0.3,2.6H37.9L38.2,141.7z"/>
				<path class="st0" d="M109.1,112.7c0,5.4-0.6,10.2-1.7,14.2s-2.7,7.4-4.6,10c-1.9,2.7-4.2,4.6-6.7,5.9s-5.2,2-7.9,2
					c-2.1,0-4-0.4-5.8-1.3c-1.8-0.9-3.3-2.2-4.6-3.9c-1.3-1.7-2.3-3.9-3-6.5c-0.7-2.6-1.1-5.6-1.1-9.1c0-5.4,0.6-10.2,1.7-14.2
					s2.7-7.4,4.6-10c1.9-2.7,4.2-4.7,6.7-6s5.2-2,8-2c2.1,0,4,0.4,5.7,1.3c1.8,0.9,3.3,2.2,4.6,3.9c1.3,1.7,2.3,3.9,3,6.5
					S109.1,109.2,109.1,112.7z M105.6,112.5c0-3.1-0.3-5.7-0.9-8c-0.6-2.2-1.4-4.1-2.4-5.5c-1-1.5-2.2-2.5-3.6-3.2s-2.8-1.1-4.4-1.1
					c-2.2,0-4.3,0.6-6.4,1.7s-3.9,2.9-5.5,5.3s-2.9,5.4-3.8,9.2c-1,3.7-1.4,8.2-1.4,13.3c0,3.1,0.3,5.7,0.9,8
					c0.6,2.2,1.4,4.1,2.4,5.6s2.2,2.5,3.6,3.2s2.8,1,4.4,1c2.2,0,4.3-0.6,6.4-1.7c2.1-1.1,3.9-2.9,5.5-5.3c1.6-2.4,2.9-5.4,3.8-9.1
					C105.1,122.2,105.6,117.7,105.6,112.5z"/>
				<path class="st0" d="M149,112.7c0,5.4-0.6,10.2-1.7,14.2c-1.1,4-2.7,7.4-4.6,10c-1.9,2.7-4.2,4.6-6.7,5.9s-5.2,2-7.9,2
					c-2.1,0-4-0.4-5.8-1.3c-1.8-0.9-3.3-2.2-4.6-3.9c-1.3-1.7-2.3-3.9-3-6.5c-0.7-2.6-1.1-5.6-1.1-9.1c0-5.4,0.6-10.2,1.7-14.2
					s2.7-7.4,4.6-10c1.9-2.7,4.2-4.7,6.7-6c2.5-1.3,5.2-2,8-2c2.1,0,4,0.4,5.7,1.3c1.8,0.9,3.3,2.2,4.6,3.9c1.3,1.7,2.3,3.9,3,6.5
					S149,109.2,149,112.7z M145.4,112.5c0-3.1-0.3-5.7-0.9-8c-0.6-2.2-1.4-4.1-2.4-5.5c-1-1.5-2.2-2.5-3.6-3.2
					c-1.4-0.7-2.8-1.1-4.4-1.1c-2.2,0-4.3,0.6-6.4,1.7s-3.9,2.9-5.5,5.3s-2.9,5.4-3.8,9.2c-1,3.7-1.4,8.2-1.4,13.3
					c0,3.1,0.3,5.7,0.9,8c0.6,2.2,1.4,4.1,2.4,5.6s2.2,2.5,3.6,3.2s2.8,1,4.4,1c2.2,0,4.3-0.6,6.4-1.7c2.1-1.1,3.9-2.9,5.5-5.3
					c1.6-2.4,2.9-5.4,3.8-9.1C144.9,122.2,145.4,117.7,145.4,112.5z"/>
				<path class="st0" d="M204.5,112.7c0,5.4-0.6,10.2-1.7,14.2c-1.1,4-2.7,7.4-4.6,10c-1.9,2.7-4.2,4.6-6.7,5.9s-5.2,2-7.9,2
					c-2.1,0-4-0.4-5.8-1.3c-1.8-0.9-3.3-2.2-4.6-3.9c-1.3-1.7-2.3-3.9-3-6.5c-0.7-2.6-1.1-5.6-1.1-9.1c0-5.4,0.6-10.2,1.7-14.2
					c1.1-4,2.7-7.4,4.6-10c1.9-2.7,4.2-4.7,6.7-6s5.2-2,8-2c2.1,0,4,0.4,5.7,1.3c1.8,0.9,3.3,2.2,4.6,3.9c1.3,1.7,2.3,3.9,3,6.5
					C204.1,106.2,204.5,109.2,204.5,112.7z M200.9,112.5c0-3.1-0.3-5.7-0.9-8c-0.6-2.2-1.4-4.1-2.4-5.5c-1-1.5-2.2-2.5-3.6-3.2
					c-1.4-0.7-2.8-1.1-4.4-1.1c-2.2,0-4.3,0.6-6.4,1.7c-2.1,1.1-3.9,2.9-5.5,5.3s-2.9,5.4-3.8,9.2c-1,3.7-1.4,8.2-1.4,13.3
					c0,3.1,0.3,5.7,0.9,8c0.6,2.2,1.4,4.1,2.4,5.6s2.2,2.5,3.6,3.2c1.4,0.7,2.8,1,4.4,1c2.2,0,4.3-0.6,6.4-1.7
					c2.1-1.1,3.9-2.9,5.5-5.3c1.6-2.4,2.9-5.4,3.8-9.1C200.5,122.2,200.9,117.7,200.9,112.5z"/>
				<path class="st0" d="M244.4,112.7c0,5.4-0.6,10.2-1.7,14.2c-1.1,4-2.7,7.4-4.6,10c-1.9,2.7-4.2,4.6-6.7,5.9s-5.2,2-7.9,2
					c-2.1,0-4-0.4-5.8-1.3c-1.8-0.9-3.3-2.2-4.6-3.9c-1.3-1.7-2.3-3.9-3-6.5c-0.7-2.6-1.1-5.6-1.1-9.1c0-5.4,0.6-10.2,1.7-14.2
					c1.1-4,2.7-7.4,4.6-10c1.9-2.7,4.2-4.7,6.7-6s5.2-2,8-2c2.1,0,4,0.4,5.7,1.3c1.8,0.9,3.3,2.2,4.6,3.9c1.3,1.7,2.3,3.9,3,6.5
					S244.4,109.2,244.4,112.7z M240.8,112.5c0-3.1-0.3-5.7-0.9-8c-0.6-2.2-1.4-4.1-2.4-5.5c-1-1.5-2.2-2.5-3.6-3.2
					c-1.4-0.7-2.8-1.1-4.4-1.1c-2.2,0-4.3,0.6-6.4,1.7c-2.1,1.1-3.9,2.9-5.5,5.3s-2.9,5.4-3.8,9.2c-1,3.7-1.4,8.2-1.4,13.3
					c0,3.1,0.3,5.7,0.9,8c0.6,2.2,1.4,4.1,2.4,5.6s2.2,2.5,3.6,3.2c1.4,0.7,2.8,1,4.4,1c2.2,0,4.3-0.6,6.4-1.7
					c2.1-1.1,3.9-2.9,5.5-5.3c1.6-2.4,2.9-5.4,3.8-9.1C240.3,122.2,240.8,117.7,240.8,112.5z"/>
				<path class="st0" d="M284.2,112.7c0,5.4-0.6,10.2-1.7,14.2s-2.7,7.4-4.6,10c-1.9,2.7-4.2,4.6-6.7,5.9s-5.2,2-7.9,2
					c-2.1,0-4-0.4-5.8-1.3c-1.8-0.9-3.3-2.2-4.6-3.9c-1.3-1.7-2.3-3.9-3-6.5c-0.7-2.6-1.1-5.6-1.1-9.1c0-5.4,0.6-10.2,1.7-14.2
					c1.1-4,2.7-7.4,4.6-10c1.9-2.7,4.2-4.7,6.7-6s5.2-2,8-2c2.1,0,4,0.4,5.7,1.3c1.8,0.9,3.3,2.2,4.6,3.9c1.3,1.7,2.3,3.9,3,6.5
					S284.2,109.2,284.2,112.7z M280.7,112.5c0-3.1-0.3-5.7-0.9-8c-0.6-2.2-1.4-4.1-2.4-5.5c-1-1.5-2.2-2.5-3.6-3.2s-2.8-1.1-4.4-1.1
					c-2.2,0-4.3,0.6-6.4,1.7s-3.9,2.9-5.5,5.3c-1.6,2.4-2.9,5.4-3.8,9.2c-1,3.7-1.4,8.2-1.4,13.3c0,3.1,0.3,5.7,0.9,8
					c0.6,2.2,1.4,4.1,2.4,5.6c1,1.5,2.2,2.5,3.6,3.2s2.8,1,4.4,1c2.2,0,4.3-0.6,6.4-1.7c2.1-1.1,3.9-2.9,5.5-5.3
					c1.6-2.4,2.9-5.4,3.8-9.1C280.2,122.2,280.7,117.7,280.7,112.5z"/>
			</g>
		</g>
	</g>
</g>
</svg>
