<?xml version="1.0" encoding="utf-8"?>
<!-- Generator: Adobe Illustrator 19.0.0, SVG Export Plug-In . SVG Version: 6.00 Build 0)  -->
<svg version="1.1" id="Слой_1" xmlns="http://www.w3.org/2000/svg" xmlns:xlink="http://www.w3.org/1999/xlink" x="0px" y="0px"
	 viewBox="16 4 338 183" style="enable-background:new 16 4 338 183;" xml:space="preserve">
<style type="text/css">
	.st0{fill:#FFFFFF;}
	.st1{fill:#E63B23;}
</style>
<image style="overflow:visible;opacity:0.54;enable-background:new    ;" width="344" height="189" xlink:href="img/svg/24EE79D4D5969F2C.png"  transform="matrix(1 0 0 1 15.2 3.5)">
</image>
<g>
	<g>
		<g>
			<path class="st0" d="M106.6,183.7c1.5,0,2.9-0.1,4.1-0.4c1.2-0.3,2.3-0.6,3.3-1c0.9-0.4,1.8-0.8,2.4-1.3c0.7-0.4,1.3-0.9,1.8-1.3
				c0.5-0.4,0.9-0.7,1.2-1c0.3-0.3,0.5-0.4,0.7-0.4s0.3,0.1,0.4,0.2l1.1,1.3c-1.9,1.9-4.2,3.5-6.7,4.7s-5.5,1.7-8.8,1.7
				c-2.6,0-4.9-0.5-7-1.4s-3.8-2.2-5.3-3.9s-2.6-3.7-3.4-6.1c-0.8-2.4-1.2-5-1.2-7.9c0-3.9,0.6-7.4,1.8-10.6c1.2-3.2,2.8-6,4.9-8.3
				s4.5-4.1,7.3-5.3c2.8-1.3,5.8-1.9,9.1-1.9c1.5,0,2.9,0.1,4.1,0.4c1.2,0.2,2.3,0.6,3.4,1c1,0.5,2,1,2.8,1.7
				c0.9,0.7,1.7,1.5,2.5,2.4l-1,1.3c-0.2,0.3-0.5,0.4-0.8,0.4c-0.2,0-0.4-0.1-0.6-0.3s-0.5-0.5-0.9-0.8s-0.8-0.7-1.4-1.1
				c-0.5-0.4-1.2-0.7-2-1.1c-0.8-0.3-1.7-0.6-2.7-0.8s-2.2-0.3-3.6-0.3c-2.8,0-5.4,0.5-7.8,1.6s-4.5,2.6-6.3,4.6s-3.2,4.4-4.2,7.3
				c-1,2.9-1.5,6.1-1.5,9.6c0,2.6,0.3,4.9,1,7s1.7,3.8,2.9,5.3c1.2,1.5,2.7,2.6,4.5,3.3C102.6,183.3,104.5,183.7,106.6,183.7z"/>
			<path class="st0" d="M158.6,141.5l-0.3,2.6h-14.4l-5.1,41.7h-3.1l5.1-41.7h-14.5l0.3-2.6H158.6z"/>
			<path class="st0" d="M163.1,167.9l-2.2,17.9h-3.1l5.4-44.3h10.7c4.4,0,7.7,1,9.9,2.9c2.2,2,3.3,4.7,3.3,8.2
				c0,2.3-0.4,4.3-1.2,6.2s-1.9,3.5-3.3,4.8c-1.4,1.3-3.2,2.4-5.2,3.1c-2,0.8-4.3,1.1-6.8,1.1L163.1,167.9L163.1,167.9z M166,144
				l-2.7,21.5h7.6c2,0,3.8-0.3,5.4-0.9c1.6-0.6,2.9-1.5,4.1-2.6c1.1-1.1,2-2.4,2.6-3.9s0.9-3.2,0.9-5c0-2.8-0.9-5-2.6-6.6
				c-1.7-1.6-4.3-2.4-7.7-2.4H166V144z"/>
			<path class="st0" d="M217.3,185.8h-2.4c-0.3,0-0.5-0.1-0.7-0.2c-0.2-0.2-0.3-0.3-0.4-0.6l-3.2-13h-20l-6.4,13
				c-0.1,0.2-0.3,0.4-0.5,0.6c-0.2,0.2-0.5,0.2-0.8,0.2h-2.4l22.3-44.3h3.1L217.3,185.8z M191.7,169.8H210l-5.5-22.6
				c-0.1-0.4-0.2-0.8-0.3-1.2s-0.2-0.9-0.3-1.4c-0.2,0.5-0.4,1-0.6,1.4c-0.2,0.5-0.4,0.9-0.6,1.3L191.7,169.8z"/>
			<path class="st0" d="M253.7,185.8h-3.2l2.6-21.3h-25.5l-2.6,21.3h-3.2l5.5-44.3h3.2l-2.6,20.7h25.5l2.6-20.7h3.2L253.7,185.8z"/>
			<path class="st0" d="M272.2,141.5l-2.5,20.1h9.6c2.1,0,3.9,0.2,5.4,0.7s2.8,1.1,3.9,2c1,0.9,1.8,1.9,2.3,3.1
				c0.5,1.2,0.8,2.6,0.8,4.2c0,2.2-0.3,4.2-1,5.9c-0.7,1.8-1.7,3.2-3,4.5c-1.3,1.2-2.9,2.2-4.9,2.8c-1.9,0.7-4.1,1-6.5,1h-12.6
				l5.5-44.3H272.2z M269.4,164.1l-2.4,19.3h9.5c2,0,3.7-0.3,5.2-0.8s2.7-1.3,3.7-2.2c1-1,1.8-2.2,2.3-3.6c0.5-1.4,0.8-3,0.8-4.8
				c0-2.6-0.8-4.6-2.4-5.9c-1.6-1.3-4-2-7.2-2H269.4z M301.5,185.8h-3.2l5.5-44.3h3.2L301.5,185.8z"/>
		</g>
		<polygon class="st1" points="348.9,37 17.2,37 23,3.9 354.7,3.9 		"/>
		<g>
			<path class="st0" d="M40.1,26.1c0.4,0,0.7,0,0.9-0.1c0.3-0.1,0.5-0.1,0.7-0.2s0.4-0.2,0.5-0.3c0.1-0.1,0.3-0.2,0.4-0.3
				c0.1-0.1,0.2-0.2,0.3-0.2c0.1-0.1,0.2-0.1,0.3-0.1s0.2,0,0.3,0.1c0.1,0,0.1,0.1,0.2,0.1l1.1,1.4c-0.6,0.7-1.4,1.3-2.2,1.7
				c-0.9,0.4-1.8,0.6-2.9,0.6c-0.9,0-1.7-0.2-2.4-0.5S36,27.5,35.5,27c-0.5-0.6-0.8-1.2-1.1-2c-0.2-0.8-0.4-1.6-0.4-2.5
				c0-0.8,0.1-1.6,0.3-2.3c0.2-0.7,0.4-1.4,0.8-2c0.3-0.6,0.7-1.2,1.2-1.7s1-0.9,1.6-1.3c0.6-0.3,1.2-0.6,1.9-0.8s1.4-0.3,2.1-0.3
				c0.5,0,1,0.1,1.5,0.2c0.4,0.1,0.9,0.2,1.2,0.4c0.4,0.2,0.7,0.4,1,0.6s0.5,0.5,0.7,0.8l-1.1,1.3c-0.1,0.1-0.2,0.2-0.3,0.2
				c-0.1,0.1-0.2,0.1-0.4,0.1c-0.1,0-0.2,0-0.3-0.1s-0.2-0.1-0.3-0.2s-0.2-0.2-0.3-0.3s-0.3-0.2-0.4-0.3c-0.2-0.1-0.4-0.1-0.6-0.2
				c-0.2-0.1-0.5-0.1-0.8-0.1c-0.6,0-1.2,0.1-1.7,0.4s-1,0.6-1.4,1.1s-0.7,1.1-0.9,1.7c-0.2,0.7-0.3,1.4-0.3,2.3
				c0,0.6,0.1,1.2,0.2,1.6c0.1,0.5,0.4,0.9,0.6,1.2c0.3,0.3,0.6,0.6,0.9,0.8C39.3,26,39.7,26.1,40.1,26.1z"/>
			<path class="st0" d="M60.7,20.5c0,0.8-0.1,1.5-0.3,2.2s-0.4,1.4-0.8,2c-0.3,0.6-0.7,1.2-1.2,1.7s-1,0.9-1.6,1.3s-1.2,0.6-1.9,0.8
				c-0.7,0.2-1.4,0.3-2.2,0.3c-1,0-1.8-0.2-2.6-0.5s-1.4-0.8-1.9-1.4s-0.9-1.3-1.2-2c-0.3-0.8-0.4-1.6-0.4-2.5
				c0-0.8,0.1-1.5,0.3-2.2s0.4-1.4,0.8-2c0.3-0.6,0.7-1.2,1.2-1.7s1-0.9,1.6-1.3s1.2-0.6,1.9-0.8s1.4-0.3,2.2-0.3
				c0.9,0,1.8,0.2,2.6,0.5s1.4,0.8,1.9,1.4s0.9,1.3,1.2,2C60.5,18.7,60.7,19.6,60.7,20.5z M57.4,20.5c0-0.6-0.1-1.1-0.2-1.6
				c-0.1-0.5-0.4-0.9-0.6-1.2c-0.3-0.3-0.6-0.6-1-0.8s-0.8-0.3-1.4-0.3c-0.7,0-1.3,0.1-1.8,0.4s-1,0.7-1.3,1.1
				c-0.4,0.5-0.6,1.1-0.8,1.8S50,21.4,50,22.2c0,0.6,0.1,1.1,0.2,1.6c0.1,0.5,0.3,0.9,0.6,1.2c0.3,0.3,0.6,0.6,1,0.8
				c0.4,0.2,0.9,0.3,1.4,0.3c0.7,0,1.3-0.1,1.8-0.4s1-0.7,1.3-1.1c0.4-0.5,0.7-1.1,0.8-1.8C57.3,22.1,57.4,21.4,57.4,20.5z"/>
			<path class="st0" d="M73.4,16.6h-6.3L66.7,20h1.7c0.8,0,1.6,0.1,2.2,0.3c0.6,0.2,1.1,0.4,1.4,0.8c0.4,0.3,0.6,0.7,0.8,1.1
				c0.2,0.4,0.2,0.9,0.2,1.3c0,0.7-0.1,1.4-0.4,2.1c-0.3,0.6-0.6,1.2-1.1,1.6s-1.1,0.8-1.8,1c-0.7,0.2-1.5,0.4-2.4,0.4h-4.9
				l1.8-14.4h9.5L73.4,16.6z M66.4,22.4l-0.5,3.7h1.7c0.4,0,0.7-0.1,1-0.2s0.5-0.3,0.7-0.5s0.3-0.4,0.4-0.7c0.1-0.3,0.1-0.6,0.1-0.9
				c0-0.2,0-0.4-0.1-0.6s-0.1-0.3-0.3-0.5c-0.1-0.1-0.3-0.2-0.5-0.3c-0.2-0.1-0.5-0.1-0.8-0.1h-1.7C66.4,22.3,66.4,22.4,66.4,22.4z"
				/>
			<path class="st0" d="M78.9,23.7l-0.6,4.8h-3.2l1.8-14.4h4.8c0.9,0,1.6,0.1,2.2,0.3s1.1,0.5,1.5,0.9c0.4,0.4,0.7,0.8,0.9,1.3
				c0.2,0.5,0.3,1,0.3,1.6c0,0.8-0.1,1.5-0.4,2.2c-0.2,0.7-0.6,1.2-1.1,1.7S84,23,83.2,23.2c-0.8,0.3-1.7,0.4-2.7,0.4L78.9,23.7
				L78.9,23.7z M79.8,16.6l-0.6,4.7h1.6c0.5,0,0.9-0.1,1.2-0.2c0.3-0.1,0.6-0.3,0.8-0.6c0.2-0.2,0.3-0.5,0.4-0.9
				c0.1-0.3,0.1-0.7,0.1-1.1c0-0.3,0-0.5-0.1-0.8c-0.1-0.2-0.2-0.4-0.4-0.6c-0.2-0.2-0.4-0.3-0.6-0.4s-0.5-0.1-0.9-0.1
				C81.3,16.6,79.8,16.6,79.8,16.6z"/>
			<path class="st0" d="M99,28.6h-2.5c-0.3,0-0.5-0.1-0.7-0.2s-0.3-0.3-0.3-0.5l-0.4-2.6h-4.9l-1.1,2.6c-0.1,0.2-0.2,0.3-0.4,0.5
				c-0.2,0.1-0.4,0.2-0.7,0.2h-2.5l6.9-14.4h3.3L99,28.6z M91,23.1h3.6L93.9,19c-0.1-0.3-0.1-0.6-0.2-0.9s-0.1-0.7-0.2-1.1
				c-0.2,0.4-0.3,0.8-0.5,1.1c-0.2,0.4-0.3,0.7-0.4,0.9L91,23.1z"/>
			<path class="st0" d="M100.9,28.6l1.8-14.4h5c0.8,0,1.6,0.1,2.2,0.2c0.6,0.2,1.1,0.4,1.5,0.7s0.7,0.6,0.8,1.1
				c0.2,0.4,0.3,0.9,0.3,1.4c0,0.4-0.1,0.8-0.2,1.1c-0.1,0.4-0.3,0.7-0.5,1s-0.5,0.6-0.9,0.8c-0.4,0.3-0.8,0.5-1.3,0.6
				c0.8,0.2,1.4,0.5,1.7,1c0.4,0.4,0.6,1,0.6,1.7s-0.1,1.3-0.4,1.9s-0.6,1.1-1.1,1.5s-1.1,0.8-1.8,1c-0.7,0.2-1.5,0.4-2.3,0.4H100.9
				z M104.9,22.4l-0.5,3.7h2.1c0.4,0,0.7-0.1,1-0.2s0.5-0.3,0.7-0.5s0.3-0.4,0.4-0.7c0.1-0.3,0.1-0.6,0.1-0.9c0-0.2,0-0.4-0.1-0.6
				s-0.2-0.3-0.3-0.4c-0.1-0.1-0.3-0.2-0.5-0.3c-0.2-0.1-0.5-0.1-0.8-0.1H104.9z M105.2,20.3h1.6c0.4,0,0.7,0,1-0.1s0.5-0.2,0.8-0.4
				c0.2-0.2,0.4-0.4,0.5-0.7c0.1-0.3,0.2-0.6,0.2-1.1s-0.1-0.9-0.4-1.1s-0.7-0.3-1.3-0.3h-1.7L105.2,20.3z"/>
			<path class="st0" d="M131.6,28.6h-17.5l1.8-14.4h3.2l-1.5,12h3.9l1.5-12h3.3l-1.5,12h3.9l1.5-12h3.2L131.6,28.6z"/>
			<path class="st0" d="M144.6,15.1c0.1-0.1,0.2-0.2,0.3-0.3s0.2-0.2,0.4-0.3c0.1-0.1,0.3-0.2,0.4-0.2c0.1-0.1,0.3-0.1,0.5-0.1h2.4
				l-1.8,14.4h-3.2l1-8c0.1-0.4,0.1-0.7,0.2-1.1c0.1-0.4,0.2-0.8,0.3-1.3c-0.2,0.4-0.4,0.8-0.6,1.1c-0.2,0.3-0.4,0.6-0.6,0.9
				l-4.7,7.4c-0.1,0.1-0.2,0.2-0.3,0.3c-0.1,0.1-0.2,0.2-0.4,0.3c-0.1,0.1-0.3,0.2-0.4,0.2c-0.1,0.1-0.3,0.1-0.5,0.1h-2.4l1.8-14.4
				h3.2l-1,7.9c-0.1,0.4-0.1,0.8-0.2,1.2c-0.1,0.4-0.2,0.8-0.3,1.3c0.2-0.4,0.4-0.8,0.6-1.1c0.2-0.4,0.4-0.7,0.6-0.9L144.6,15.1z"/>
			<path class="st0" d="M159.7,15.1c0.1-0.1,0.2-0.2,0.3-0.3s0.2-0.2,0.4-0.3c0.1-0.1,0.3-0.2,0.4-0.2c0.1-0.1,0.3-0.1,0.5-0.1h2.4
				l-1.8,14.4h-3.2l1-8c0.1-0.4,0.1-0.7,0.2-1.1c0.1-0.4,0.2-0.8,0.3-1.3c-0.2,0.4-0.4,0.8-0.6,1.1c-0.2,0.3-0.4,0.6-0.6,0.9
				l-4.7,7.4c-0.1,0.1-0.2,0.2-0.3,0.3c-0.1,0.1-0.2,0.2-0.4,0.3c-0.1,0.1-0.3,0.2-0.4,0.2c-0.1,0.1-0.3,0.1-0.5,0.1h-2.5l1.8-14.4
				h3.2l-1,7.9c-0.1,0.4-0.1,0.8-0.2,1.2c-0.1,0.4-0.2,0.8-0.3,1.3c0.2-0.4,0.4-0.8,0.6-1.1c0.2-0.4,0.4-0.7,0.6-0.9L159.7,15.1z
				 M158.1,12c0.2,0,0.4,0,0.5-0.1c0.1,0,0.2-0.1,0.3-0.2c0.1-0.1,0.2-0.2,0.2-0.4s0.1-0.4,0.1-0.7h1.7c0.1,0,0.2,0,0.2,0.1
				c0.1,0,0.1,0.1,0.2,0.2c0,0.1,0.1,0.2,0.1,0.3s0,0.2,0,0.3c0,0.3-0.2,0.6-0.3,0.9c-0.2,0.3-0.4,0.5-0.8,0.6
				c-0.3,0.2-0.7,0.3-1.1,0.4c-0.4,0.1-0.9,0.1-1.3,0.1c-0.5,0-0.9,0-1.3-0.1c-0.4-0.1-0.7-0.2-1-0.4s-0.5-0.4-0.6-0.6
				c-0.1-0.3-0.2-0.6-0.1-0.9c0-0.1,0-0.2,0.1-0.3c0-0.1,0.1-0.2,0.1-0.3c0.1-0.1,0.1-0.1,0.2-0.2c0.1,0,0.2-0.1,0.3-0.1h1.7
				c0,0.3,0,0.5,0,0.7s0,0.3,0.1,0.4c0.1,0.1,0.2,0.2,0.3,0.2C157.8,11.9,157.9,12,158.1,12z"/>
			<path class="st0" d="M180.3,15.4c-0.1,0.4-0.2,0.7-0.5,1s-0.8,0.4-1.4,0.4h-3l-0.7,2.5c0.3,0,0.5-0.1,0.7-0.1s0.5,0,0.7,0
				c0.6,0,1.2,0.1,1.7,0.3c0.5,0.2,0.9,0.5,1.2,0.8s0.6,0.7,0.7,1.2c0.2,0.5,0.2,1,0.2,1.5c0,0.8-0.1,1.6-0.4,2.3
				c-0.3,0.7-0.7,1.3-1.2,1.8s-1.1,0.9-1.9,1.2c-0.7,0.3-1.5,0.4-2.3,0.4c-0.4,0-0.8,0-1.2-0.1s-0.7-0.2-1.1-0.4
				c-0.3-0.2-0.6-0.4-0.9-0.6c-0.3-0.2-0.5-0.4-0.7-0.7l1.1-1.2c0.2-0.2,0.5-0.4,0.8-0.4c0.2,0,0.4,0.1,0.5,0.2s0.3,0.2,0.5,0.4
				c0.2,0.1,0.4,0.2,0.6,0.4c0.2,0.1,0.5,0.2,0.9,0.2s0.8-0.1,1.1-0.3c0.3-0.2,0.5-0.4,0.7-0.7c0.2-0.3,0.3-0.6,0.4-1
				c0.1-0.4,0.1-0.7,0.1-1.1c0-0.6-0.2-1-0.5-1.4c-0.3-0.3-0.7-0.5-1.3-0.5s-1.2,0.1-1.8,0.4l-1.8-0.5l2-7.1h6.9L180.3,15.4z"/>
			<path class="st0" d="M189,14c0.6,0,1.2,0.1,1.6,0.3c0.5,0.2,0.9,0.4,1.2,0.7s0.5,0.7,0.7,1.1s0.2,0.8,0.2,1.3s-0.1,1-0.2,1.4
				c-0.1,0.4-0.3,0.7-0.5,1s-0.5,0.5-0.8,0.7s-0.7,0.4-1.1,0.5c1.3,0.5,1.9,1.4,1.9,2.8c0,0.8-0.2,1.5-0.5,2.2
				c-0.3,0.6-0.7,1.1-1.2,1.6c-0.5,0.4-1.1,0.7-1.7,0.9c-0.6,0.2-1.3,0.3-2,0.3c-0.6,0-1.2-0.1-1.6-0.2c-0.5-0.2-0.9-0.4-1.2-0.7
				c-0.4-0.3-0.6-0.7-0.9-1.2c-0.2-0.5-0.4-1-0.6-1.7l1.4-0.5c0.2-0.1,0.3-0.1,0.5-0.1s0.3,0,0.5,0c0.1,0,0.3,0.1,0.4,0.2
				c0.1,0.1,0.2,0.2,0.2,0.3c0.2,0.5,0.5,0.9,0.7,1.2c0.3,0.3,0.6,0.4,0.9,0.4c0.3,0,0.6-0.1,0.9-0.2c0.3-0.1,0.5-0.3,0.7-0.6
				c0.2-0.2,0.3-0.5,0.4-0.8c0.1-0.3,0.1-0.6,0.1-1c0-0.2,0-0.4-0.1-0.6s-0.2-0.3-0.4-0.5c-0.2-0.1-0.4-0.2-0.8-0.3
				c-0.3-0.1-0.7-0.1-1.3-0.1l0.3-2c0.6,0,1,0,1.4-0.1s0.7-0.2,0.9-0.4c0.2-0.2,0.4-0.4,0.4-0.7c0.1-0.3,0.1-0.6,0.1-1
				c0-0.5-0.1-0.8-0.3-1.1c-0.2-0.3-0.5-0.4-1-0.4c-0.4,0-0.7,0.1-1,0.4s-0.5,0.6-0.7,0.9s-0.4,0.6-0.6,0.7
				c-0.2,0.1-0.5,0.1-0.9,0.1l-1.5-0.3c0.2-0.7,0.5-1.3,0.8-1.9c0.3-0.5,0.7-1,1.2-1.3c0.5-0.4,1-0.6,1.5-0.8
				C187.8,14.1,188.4,14,189,14z"/>
			<path class="st0" d="M204.9,15.4c-0.1,0.4-0.2,0.7-0.5,1s-0.8,0.4-1.4,0.4h-3l-0.7,2.5c0.3,0,0.5-0.1,0.7-0.1s0.5,0,0.7,0
				c0.6,0,1.2,0.1,1.7,0.3c0.5,0.2,0.9,0.5,1.2,0.8s0.6,0.7,0.7,1.2c0.2,0.5,0.2,1,0.2,1.5c0,0.8-0.1,1.6-0.4,2.3
				c-0.3,0.7-0.7,1.3-1.2,1.8s-1.1,0.9-1.9,1.2c-0.7,0.3-1.5,0.4-2.3,0.4c-0.4,0-0.8,0-1.2-0.1s-0.7-0.2-1.1-0.4
				c-0.3-0.2-0.6-0.4-0.9-0.6c-0.3-0.2-0.5-0.4-0.7-0.7l1.1-1.2c0.2-0.2,0.5-0.4,0.8-0.4c0.2,0,0.4,0.1,0.5,0.2s0.3,0.2,0.5,0.4
				c0.2,0.1,0.4,0.2,0.6,0.4c0.2,0.1,0.5,0.2,0.9,0.2s0.8-0.1,1.1-0.3c0.3-0.2,0.5-0.4,0.7-0.7c0.2-0.3,0.3-0.6,0.4-1
				c0.1-0.4,0.1-0.7,0.1-1.1c0-0.6-0.2-1-0.5-1.4c-0.3-0.3-0.7-0.5-1.3-0.5s-1.2,0.1-1.8,0.4l-1.8-0.5l2-7.1h6.9L204.9,15.4z"/>
			<path class="st0" d="M213.6,14c0.6,0,1.2,0.1,1.6,0.3c0.5,0.2,0.9,0.4,1.2,0.7s0.6,0.7,0.8,1.1s0.3,0.9,0.3,1.5s-0.1,1.1-0.3,1.6
				s-0.4,1-0.7,1.4s-0.6,0.9-1,1.3s-0.8,0.8-1.3,1.3l-3.1,3c0.4-0.1,0.8-0.2,1.2-0.3c0.4-0.1,0.7-0.1,1.1-0.1h2.3
				c0.3,0,0.6,0.1,0.7,0.3c0.2,0.2,0.2,0.4,0.2,0.7l-0.2,1.7H207l0.1-0.9c0-0.2,0.1-0.4,0.2-0.6c0.1-0.2,0.3-0.4,0.5-0.6l4.3-4.2
				c0.4-0.4,0.8-0.8,1.1-1.2s0.6-0.7,0.7-1c0.2-0.3,0.3-0.7,0.4-1c0.1-0.3,0.1-0.7,0.1-1.1c0-0.5-0.1-0.8-0.3-1.1s-0.5-0.4-1-0.4
				c-0.4,0-0.7,0.1-1,0.4s-0.5,0.6-0.7,0.9s-0.4,0.6-0.6,0.7c-0.2,0.1-0.5,0.1-0.9,0.1l-1.5-0.3c0.2-0.7,0.5-1.3,0.8-1.9
				c0.3-0.5,0.7-1,1.2-1.3c0.5-0.4,1-0.6,1.5-0.8C212.4,14.1,213,14,213.6,14z"/>
			<path class="st0" d="M234.5,28.6h-3.2l0.7-5.5c-0.7,0.2-1.5,0.3-2.1,0.4c-0.7,0.1-1.3,0.1-1.8,0c-0.6,0-1-0.2-1.5-0.4
				c-0.4-0.2-0.8-0.5-1.1-0.8c-0.3-0.4-0.5-0.8-0.6-1.4s-0.1-1.2,0-2l0.6-4.8h3.3l-0.6,4.8c-0.1,0.5-0.1,0.9,0,1.2
				c0.1,0.3,0.2,0.6,0.5,0.8c0.3,0.2,0.7,0.3,1.3,0.3s1.3-0.1,2.3-0.3l0.8-6.7h3.2L234.5,28.6z"/>
			<path class="st0" d="M248.1,16.7h-5.4l-0.4,3.5h4.1l-0.3,2.4H242l-0.4,3.6h5.4l-0.3,2.5h-8.6l1.8-14.4h8.6L248.1,16.7z"/>
			<path class="st0" d="M262.7,14.2l-1.8,14.4h-3.2l1.5-12h-2.8c-0.3,1.8-0.6,3.3-1,4.6c-0.3,1.3-0.7,2.4-1,3.3s-0.7,1.6-1.1,2.2
				c-0.4,0.6-0.7,1-1.1,1.3c-0.4,0.3-0.8,0.5-1.2,0.6s-0.8,0.2-1.3,0.2c-0.6,0-0.9,0-1.2-0.1c-0.2-0.1-0.3-0.2-0.3-0.4l0.2-1.9h0.8
				c0.1,0,0.3,0,0.4,0c0.1,0,0.3-0.1,0.5-0.2s0.3-0.3,0.5-0.5s0.4-0.5,0.5-0.9c0.2-0.4,0.4-0.9,0.6-1.5c0.2-0.6,0.4-1.3,0.6-2.1
				c0.2-0.8,0.4-1.8,0.6-2.9c0.2-1.1,0.4-2.4,0.6-3.8h9.2L262.7,14.2L262.7,14.2z"/>
			<path class="st0" d="M278.5,20.5c0,0.8-0.1,1.5-0.3,2.2c-0.2,0.7-0.4,1.4-0.8,2c-0.3,0.6-0.7,1.2-1.2,1.7s-1,0.9-1.6,1.3
				s-1.2,0.6-1.9,0.8c-0.7,0.2-1.4,0.3-2.2,0.3c-1,0-1.8-0.2-2.6-0.5c-0.8-0.3-1.4-0.8-1.9-1.4s-0.9-1.3-1.2-2
				c-0.3-0.8-0.4-1.6-0.4-2.5c0-0.8,0.1-1.5,0.3-2.2c0.2-0.7,0.4-1.4,0.8-2c0.3-0.6,0.7-1.2,1.2-1.7s1-0.9,1.6-1.3
				c0.6-0.4,1.2-0.6,1.9-0.8c0.7-0.2,1.4-0.3,2.2-0.3c0.9,0,1.8,0.2,2.6,0.5c0.8,0.3,1.4,0.8,1.9,1.4s0.9,1.3,1.2,2
				C278.4,18.7,278.5,19.6,278.5,20.5z M275.2,20.5c0-0.6-0.1-1.1-0.2-1.6s-0.4-0.9-0.6-1.2c-0.3-0.3-0.6-0.6-1-0.8
				s-0.8-0.3-1.4-0.3c-0.7,0-1.3,0.1-1.8,0.4s-1,0.7-1.3,1.1c-0.4,0.5-0.6,1.1-0.8,1.8c-0.2,0.7-0.3,1.5-0.3,2.3
				c0,0.6,0.1,1.1,0.2,1.6s0.3,0.9,0.6,1.2c0.3,0.3,0.6,0.6,1,0.8c0.4,0.2,0.9,0.3,1.4,0.3c0.7,0,1.3-0.1,1.8-0.4s1-0.7,1.3-1.1
				c0.4-0.5,0.7-1.1,0.8-1.8C275.1,22.1,275.2,21.4,275.2,20.5z"/>
			<path class="st0" d="M280.2,28.6l1.8-14.4h5c0.8,0,1.6,0.1,2.2,0.2c0.6,0.2,1.1,0.4,1.5,0.7s0.7,0.6,0.8,1.1
				c0.2,0.4,0.3,0.9,0.3,1.4c0,0.4-0.1,0.8-0.2,1.1c-0.1,0.4-0.3,0.7-0.5,1s-0.5,0.6-0.9,0.8c-0.4,0.3-0.8,0.5-1.3,0.6
				c0.8,0.2,1.4,0.5,1.7,1c0.4,0.4,0.6,1,0.6,1.7s-0.1,1.3-0.4,1.9s-0.6,1.1-1.1,1.5s-1.1,0.8-1.8,1c-0.7,0.2-1.5,0.4-2.3,0.4H280.2
				z M284.2,22.4l-0.5,3.7h2.1c0.4,0,0.7-0.1,1-0.2s0.5-0.3,0.7-0.5s0.3-0.4,0.4-0.7c0.1-0.3,0.1-0.6,0.1-0.9c0-0.2,0-0.4-0.1-0.6
				s-0.2-0.3-0.3-0.4c-0.1-0.1-0.3-0.2-0.5-0.3c-0.2-0.1-0.5-0.1-0.8-0.1H284.2z M284.5,20.3h1.5c0.4,0,0.7,0,1-0.1s0.5-0.2,0.8-0.4
				c0.2-0.2,0.4-0.4,0.5-0.7c0.1-0.3,0.2-0.6,0.2-1.1s-0.1-0.9-0.4-1.1s-0.7-0.3-1.3-0.3h-1.7L284.5,20.3z"/>
			<path class="st0" d="M303.5,16.7h-5.3l-0.4,3.5h4.1l-0.3,2.4h-4.1l-0.4,3.6h5.4l-0.3,2.5h-8.6l1.8-14.4h8.6L303.5,16.7z"/>
			<path class="st0" d="M309.1,20.1h1.1c0.2,0,0.4,0,0.6-0.1s0.3-0.3,0.5-0.5l2.8-4.4c0.2-0.2,0.4-0.4,0.6-0.6
				c0.2-0.2,0.5-0.2,0.8-0.2h2.8l-3.9,5.7c-0.2,0.3-0.4,0.5-0.6,0.6c-0.2,0.2-0.5,0.3-0.8,0.4c0.4,0.1,0.7,0.3,1,0.6
				c0.3,0.3,0.5,0.6,0.7,1.1l2.1,6h-3c-0.3,0-0.5-0.1-0.7-0.2c-0.2-0.2-0.3-0.4-0.5-0.7l-1.5-4.6c-0.1-0.3-0.3-0.5-0.4-0.6
				c-0.2-0.1-0.4-0.1-0.7-0.1h-1.4l-0.8,6.2h-3.2l1.8-14.4h3.2L309.1,20.1z"/>
			<path class="st0" d="M331.1,28.6h-2.5c-0.3,0-0.5-0.1-0.7-0.2s-0.3-0.3-0.3-0.5l-0.4-2.6h-4.9l-1.1,2.6c-0.1,0.2-0.2,0.3-0.4,0.5
				c-0.2,0.1-0.4,0.2-0.7,0.2h-2.5l6.9-14.4h3.3L331.1,28.6z M323.2,23.1h3.6l-0.7-4.1c-0.1-0.3-0.1-0.6-0.2-0.9s-0.1-0.7-0.2-1.1
				c-0.2,0.4-0.3,0.8-0.5,1.1c-0.2,0.4-0.3,0.7-0.4,0.9L323.2,23.1z"/>
		</g>
		<g>
			<path class="st0" d="M71.4,58.6h-0.9l0.7-6H64l-0.7,6h-0.9L64,46.1h0.9L64.2,52h7.2l0.7-5.9H73L71.4,58.6z"/>
			<path class="st0" d="M85.3,58.6h-0.7c-0.1,0-0.1,0-0.2-0.1c0,0-0.1-0.1-0.1-0.2l-0.9-3.7h-5.7l-1.8,3.7c0,0.1-0.1,0.1-0.1,0.2
				c-0.1,0-0.1,0.1-0.2,0.1h-0.7l6.3-12.5h0.9L85.3,58.6z M78.1,54.1h5.2l-1.6-6.4c0-0.1,0-0.2-0.1-0.3c0-0.1-0.1-0.3-0.1-0.4
				c-0.1,0.1-0.1,0.3-0.2,0.4c-0.1,0.1-0.1,0.2-0.2,0.4L78.1,54.1z"/>
			<path class="st0" d="M99.5,58c0.4,0,0.8,0,1.2-0.1c0.3-0.1,0.7-0.2,0.9-0.3c0.3-0.1,0.5-0.2,0.7-0.4c0.2-0.1,0.4-0.2,0.5-0.4
				c0.1-0.1,0.2-0.2,0.3-0.3s0.1-0.1,0.2-0.1s0.1,0,0.1,0.1l0.3,0.4c-0.5,0.5-1.2,1-1.9,1.3c-0.7,0.3-1.5,0.5-2.5,0.5
				c-0.7,0-1.4-0.1-2-0.4c-0.6-0.3-1.1-0.6-1.5-1.1s-0.7-1.1-1-1.7c-0.2-0.7-0.3-1.4-0.3-2.2c0-1.1,0.2-2.1,0.5-3s0.8-1.7,1.4-2.3
				s1.3-1.2,2.1-1.5c0.8-0.4,1.7-0.5,2.6-0.5c0.4,0,0.8,0,1.2,0.1c0.3,0.1,0.7,0.2,1,0.3s0.6,0.3,0.8,0.5c0.2,0.2,0.5,0.4,0.7,0.7
				l-0.3,0.4c-0.1,0.1-0.1,0.1-0.2,0.1s-0.1,0-0.2-0.1s-0.2-0.1-0.3-0.2c-0.1-0.1-0.2-0.2-0.4-0.3c-0.2-0.1-0.3-0.2-0.6-0.3
				c-0.2-0.1-0.5-0.2-0.8-0.2c-0.3-0.1-0.6-0.1-1-0.1c-0.8,0-1.5,0.2-2.2,0.5c-0.6,0.1-1.1,0.5-1.6,1.1s-0.9,1.3-1.2,2.1
				c-0.3,0.8-0.4,1.7-0.4,2.7c0,0.7,0.1,1.4,0.3,2c0.2,0.6,0.5,1.1,0.8,1.5c0.4,0.4,0.8,0.7,1.3,0.9C98.4,57.9,99,58,99.5,58z"/>
			<path class="st0" d="M116.3,58.6h-0.7c-0.1,0-0.1,0-0.2-0.1c0,0-0.1-0.1-0.1-0.2l-0.9-3.7h-5.7l-1.8,3.7c0,0.1-0.1,0.1-0.1,0.2
				c-0.1,0-0.1,0.1-0.2,0.1h-0.7l6.3-12.5h0.9L116.3,58.6z M109.1,54.1h5.2l-1.6-6.4c0-0.1,0-0.2-0.1-0.3c0-0.1-0.1-0.3-0.1-0.4
				c-0.1,0.1-0.1,0.3-0.2,0.4c-0.1,0.1-0.1,0.2-0.2,0.4L109.1,54.1z"/>
			<path class="st0" d="M125.9,55.3c0,0.1,0,0.1,0.1,0.2c0.1-0.1,0.1-0.3,0.2-0.4l5.7-8.8c0.1-0.1,0.1-0.1,0.2-0.1c0,0,0.1,0,0.2,0
				h0.6l-1.6,12.5h-0.8l1.3-10.7c0-0.1,0-0.1,0-0.2c0-0.1,0-0.2,0-0.2l-5.6,8.8c-0.1,0.1-0.2,0.2-0.4,0.2h-0.1
				c-0.2,0-0.3-0.1-0.3-0.2l-3.6-8.8c0,0.2,0,0.3,0,0.5l-1.3,10.7h-0.8l1.6-12.5h0.6c0.1,0,0.1,0,0.2,0l0.1,0.1l3.6,8.8
				C125.8,55.1,125.9,55.2,125.9,55.3z"/>
			<path class="st0" d="M138.1,57.7c0.3-0.2,0.5-0.5,0.8-0.9l0.9-1.7l-3.6-9h0.8c0.1,0,0.1,0,0.2,0.1c0,0,0.1,0.1,0.1,0.2l2.7,7.2
				c0.1,0.2,0.1,0.3,0.1,0.5s0.1,0.3,0.1,0.5c0.1-0.2,0.1-0.3,0.2-0.5s0.2-0.3,0.2-0.5l3.9-7.2c0-0.1,0.1-0.1,0.1-0.2
				c0.1,0,0.1-0.1,0.2-0.1h0.8l-6.1,11c-0.2,0.3-0.3,0.5-0.5,0.7s-0.3,0.4-0.5,0.5s-0.4,0.2-0.6,0.3s-0.4,0.1-0.6,0.1
				c-0.2,0-0.4,0-0.5-0.1c-0.1,0-0.2-0.1-0.2-0.2l0.1-0.5h0.5C137.6,58,137.9,57.9,138.1,57.7z"/>
			<path class="st0" d="M149.3,52h3.2c0.1-0.9,0.4-1.7,0.7-2.5c0.3-0.7,0.8-1.4,1.3-1.9s1.1-0.9,1.8-1.2s1.4-0.4,2.1-0.4
				c0.7,0,1.3,0.1,1.8,0.4c0.5,0.3,1,0.6,1.4,1.1s0.7,1,0.9,1.7s0.3,1.4,0.3,2.2c0,0.7-0.1,1.4-0.2,2.1c-0.1,0.7-0.3,1.3-0.6,1.8
				s-0.6,1-0.9,1.5c-0.4,0.4-0.8,0.8-1.2,1.1s-0.9,0.5-1.4,0.7s-1,0.2-1.6,0.2c-0.7,0-1.3-0.1-1.8-0.4c-0.5-0.3-1-0.6-1.4-1.1
				s-0.7-1-0.9-1.7s-0.3-1.4-0.3-2.2c0-0.1,0-0.2,0-0.4c0-0.1,0-0.2,0-0.4h-3.2l-0.7,5.9h-0.9l1.5-12.5h0.9L149.3,52z M156.9,58
				c0.7,0,1.4-0.2,2-0.5s1.1-0.8,1.6-1.3c0.4-0.6,0.8-1.3,1-2.1s0.4-1.8,0.4-2.8c0-0.7-0.1-1.3-0.2-1.9c-0.2-0.6-0.4-1.1-0.7-1.5
				s-0.7-0.7-1.1-0.9c-0.4-0.2-0.9-0.3-1.5-0.3c-0.7,0-1.4,0.2-2,0.5s-1.1,0.8-1.6,1.3c-0.4,0.6-0.8,1.3-1,2.1s-0.4,1.8-0.4,2.8
				c0,0.7,0.1,1.3,0.2,1.9c0.2,0.6,0.4,1.1,0.7,1.5s0.7,0.7,1.1,0.9C155.9,57.9,156.4,58,156.9,58z"/>
		</g>
		<g>
			<path class="st0" d="M44.3,107.8l-0.4,2.9h-6.2l-2.4,19h-3.4l2.3-19h-6.3l0.3-2.9C28.2,107.8,44.3,107.8,44.3,107.8z"/>
			<path class="st0" d="M51.4,121.7l-1,8H47l2.7-21.9h6.4c1.2,0,2.2,0.1,3.1,0.4c0.9,0.3,1.6,0.7,2.2,1.2c0.6,0.5,1,1.1,1.3,1.9
				c0.3,0.7,0.4,1.5,0.4,2.4c0,1.2-0.2,2.2-0.6,3.2c-0.4,1-0.9,1.8-1.7,2.5c-0.7,0.7-1.6,1.3-2.7,1.7c-1.1,0.4-2.3,0.6-3.8,0.6
				C54.3,121.7,51.4,121.7,51.4,121.7z M52.8,110.5l-1.1,8.5h3c0.8,0,1.5-0.1,2.2-0.4c0.6-0.2,1.1-0.6,1.5-1c0.4-0.4,0.7-1,0.9-1.6
				c0.2-0.6,0.3-1.3,0.3-2c0-1.1-0.3-1.9-1-2.6c-0.6-0.6-1.6-1-2.9-1L52.8,110.5L52.8,110.5z"/>
			<path class="st0" d="M82.4,107.8l-0.4,2.8h-9.2l-0.8,6.7h7.4L79,120h-7.4l-0.9,6.9H80l-0.4,2.8H67l2.7-21.9
				C69.7,107.8,82.4,107.8,82.4,107.8z"/>
			<path class="st0" d="M102.8,129.7h-3.5l1.2-9.8h-10l-1.2,9.8h-3.5l2.7-21.9H92l-1.2,9.6h10l1.2-9.6h3.5L102.8,129.7z"/>
			<path class="st0" d="M125.6,108.9c0.1-0.1,0.2-0.3,0.3-0.4c0.1-0.1,0.3-0.2,0.4-0.3c0.1-0.1,0.3-0.2,0.5-0.2
				c0.2-0.1,0.3-0.1,0.5-0.1h2.6l-2.7,21.9h-3.5l1.8-14.4c0.1-0.5,0.1-1,0.2-1.5s0.2-1.1,0.4-1.6c-0.2,0.5-0.5,1-0.8,1.4
				c-0.3,0.4-0.5,0.8-0.7,1.1l-10.1,13.9c-0.1,0.1-0.2,0.3-0.3,0.4c-0.1,0.1-0.3,0.2-0.4,0.3s-0.3,0.2-0.5,0.3s-0.3,0.1-0.5,0.1
				h-2.6l2.7-21.9h3.5l-1.8,14.4c-0.1,0.5-0.1,1-0.2,1.5s-0.2,1.1-0.4,1.6c0.2-0.5,0.5-1,0.8-1.4c0.3-0.4,0.5-0.8,0.8-1.1
				L125.6,108.9z"/>
			<path class="st0" d="M138.9,121.7l-1,8h-3.4l2.7-21.9h6.4c1.2,0,2.2,0.1,3.1,0.4c0.9,0.3,1.6,0.7,2.2,1.2c0.6,0.5,1,1.1,1.3,1.9
				c0.3,0.7,0.4,1.5,0.4,2.4c0,1.2-0.2,2.2-0.6,3.2c-0.4,1-0.9,1.8-1.7,2.5c-0.7,0.7-1.6,1.3-2.7,1.7c-1.1,0.4-2.3,0.6-3.8,0.6
				C141.8,121.7,138.9,121.7,138.9,121.7z M140.3,110.5l-1.1,8.5h3c0.8,0,1.5-0.1,2.2-0.4c0.6-0.2,1.1-0.6,1.5-1
				c0.4-0.4,0.7-1,0.9-1.6c0.2-0.6,0.3-1.3,0.3-2c0-1.1-0.3-1.9-1-2.6c-0.6-0.6-1.6-1-2.9-1L140.3,110.5L140.3,110.5z"/>
			<path class="st0" d="M175.2,117.2c0,1.2-0.1,2.4-0.4,3.5c-0.3,1.1-0.6,2.1-1.1,3.1c-0.5,0.9-1.1,1.8-1.8,2.5
				c-0.7,0.8-1.5,1.4-2.4,1.9s-1.8,0.9-2.8,1.2s-2.1,0.4-3.2,0.4c-1.4,0-2.6-0.2-3.7-0.7c-1.1-0.5-2-1.2-2.8-2
				c-0.8-0.9-1.4-1.9-1.8-3c-0.4-1.2-0.6-2.5-0.6-3.8c0-1.2,0.1-2.4,0.4-3.5c0.3-1.1,0.7-2.1,1.1-3.1c0.5-0.9,1.1-1.8,1.8-2.6
				s1.5-1.4,2.4-1.9s1.8-0.9,2.8-1.2c1-0.3,2.1-0.4,3.2-0.4c1.4,0,2.6,0.2,3.7,0.7c1.1,0.5,2,1.2,2.8,2c0.8,0.9,1.4,1.9,1.8,3.1
				C175,114.6,175.2,115.9,175.2,117.2z M171.6,117.3c0-1-0.1-2-0.4-2.8c-0.3-0.8-0.6-1.6-1.1-2.2c-0.5-0.6-1.1-1.1-1.8-1.4
				s-1.5-0.5-2.4-0.5c-1.2,0-2.2,0.2-3.2,0.7s-1.8,1.1-2.5,2c-0.7,0.9-1.2,1.9-1.6,3.1c-0.4,1.2-0.6,2.5-0.6,4c0,1,0.1,2,0.4,2.8
				c0.3,0.8,0.6,1.6,1.1,2.2c0.5,0.6,1.1,1.1,1.8,1.4s1.5,0.5,2.4,0.5c1.2,0,2.2-0.2,3.2-0.7s1.8-1.1,2.5-2c0.7-0.8,1.2-1.9,1.6-3.1
				S171.6,118.8,171.6,117.3z"/>
			<path class="st0" d="M179.9,129.7l2.7-21.9h6.8c1.2,0,2.2,0.1,3.1,0.3c0.9,0.2,1.6,0.6,2.1,1c0.5,0.4,0.9,1,1.2,1.6
				c0.3,0.6,0.4,1.3,0.4,2c0,0.6-0.1,1.2-0.3,1.8s-0.5,1.1-0.8,1.6c-0.4,0.5-0.8,0.9-1.4,1.3c-0.6,0.4-1.2,0.7-2,1
				c1.3,0.3,2.2,0.8,2.9,1.5c0.6,0.7,1,1.6,1,2.7c0,1-0.2,1.9-0.6,2.8c-0.4,0.9-0.9,1.6-1.6,2.2c-0.7,0.6-1.6,1.1-2.6,1.5
				c-1,0.3-2.1,0.5-3.4,0.5L179.9,129.7L179.9,129.7z M184.6,119.9l-0.9,7.1h4c0.8,0,1.4-0.1,2-0.3c0.6-0.2,1-0.5,1.4-0.9
				c0.4-0.4,0.6-0.8,0.8-1.3s0.3-1.1,0.3-1.7c0-0.9-0.3-1.6-0.9-2.1c-0.6-0.5-1.5-0.8-2.7-0.8C188.6,119.9,184.6,119.9,184.6,119.9z
				 M184.8,117.5h3.2c1.5,0,2.7-0.4,3.4-1.1c0.8-0.7,1.2-1.7,1.2-3.1c0-1-0.3-1.7-0.9-2.2c-0.6-0.5-1.5-0.7-2.7-0.7h-3.4
				L184.8,117.5z"/>
			<path class="st0" d="M206,117.2h2c0.4,0,0.7-0.1,1-0.2c0.3-0.1,0.6-0.4,0.9-0.8l5.7-7.5c0.2-0.3,0.4-0.5,0.7-0.7s0.6-0.3,0.9-0.3
				h2.9l-6.8,8.9c-0.3,0.4-0.6,0.7-0.9,0.9c-0.3,0.2-0.7,0.4-1.1,0.6c0.5,0.2,0.9,0.4,1.3,0.7c0.3,0.3,0.6,0.8,0.9,1.4l4.5,9.4h-3.1
				c-0.3,0-0.6-0.1-0.8-0.3s-0.4-0.4-0.5-0.8l-3.7-7.7c-0.2-0.4-0.4-0.7-0.7-0.9s-0.6-0.2-1.1-0.2h-2.3l-1.2,9.9h-3.4l2.7-21.9h3.4
				L206,117.2z"/>
			<path class="st0" d="M226.4,127c0.2-0.1,0.5-0.1,0.7-0.3c0.2-0.1,0.4-0.3,0.6-0.5c0.2-0.2,0.4-0.5,0.6-0.9l1.1-2l-6.3-15.5h3.2
				c0.3,0,0.5,0.1,0.7,0.2c0.2,0.2,0.3,0.3,0.4,0.6l3.2,9.1c0.1,0.4,0.3,0.9,0.4,1.3c0.1,0.4,0.2,0.9,0.3,1.3
				c0.2-0.4,0.4-0.9,0.6-1.3c0.2-0.4,0.4-0.9,0.7-1.3l4.8-9.1c0.1-0.2,0.3-0.4,0.5-0.6s0.5-0.3,0.8-0.3h2.9l-10.6,19
				c-0.4,0.6-0.7,1.1-1.1,1.5c-0.4,0.4-0.7,0.7-1.1,1c-0.4,0.2-0.8,0.4-1.2,0.5s-0.8,0.1-1.2,0.1c-0.7,0-1.2-0.1-1.5-0.2
				s-0.5-0.4-0.4-0.7l0.2-1.9h1.1C225.9,127.1,226.1,127.1,226.4,127z"/>
		</g>
		<g>
			<path class="st0" d="M58.4,86.9c0.1,0.2,0.1,0.5,0.2,0.8c0.1-0.3,0.2-0.5,0.4-0.8c0.1-0.2,0.3-0.5,0.4-0.7l10.4-16.6
				c0.2-0.2,0.4-0.4,0.6-0.5c0.2-0.1,0.4-0.1,0.7-0.1h2.6l-3.3,26.3h-3l2.4-19.5c0-0.2,0.1-0.5,0.1-0.8c0.1-0.3,0.1-0.6,0.2-0.9
				L59.8,90.8c-0.3,0.5-0.8,0.8-1.3,0.8H58c-0.3,0-0.5-0.1-0.7-0.2c-0.2-0.1-0.3-0.3-0.4-0.6l-6.4-16.6c0,0.3,0,0.6,0,0.9
				s0,0.5-0.1,0.8L48,95.4h-3.1l3.3-26.3h2.6c0.3,0,0.5,0,0.7,0.1c0.1,0.1,0.3,0.2,0.5,0.5l6.2,16.5C58.3,86.5,58.3,86.7,58.4,86.9z
				"/>
			<path class="st0" d="M99.9,95.4h-2.7c-0.3,0-0.5-0.1-0.7-0.2c-0.2-0.2-0.3-0.4-0.4-0.6l-1.4-6.4H83.9l-3,6.4
				c-0.1,0.2-0.3,0.4-0.5,0.6s-0.5,0.2-0.8,0.2h-2.7l13-26.3h3.5L99.9,95.4z M85,85.6h9.1l-2.4-10.9c-0.1-0.3-0.1-0.7-0.2-1.1
				c-0.1-0.4-0.2-0.9-0.2-1.4c-0.2,0.5-0.4,1-0.6,1.4c-0.2,0.4-0.3,0.8-0.5,1.1L85,85.6z"/>
			<path class="st0" d="M116.1,92.7c0.8,0,1.5-0.1,2.2-0.2c0.6-0.1,1.2-0.3,1.7-0.5s0.9-0.4,1.2-0.7c0.3-0.2,0.6-0.5,0.9-0.7
				s0.5-0.4,0.6-0.5c0.2-0.1,0.3-0.2,0.5-0.2c0.1,0,0.2,0,0.3,0.1c0.1,0,0.1,0.1,0.2,0.2l1.2,1.5c-1.2,1.2-2.5,2.2-4,2.9
				s-3.3,1-5.3,1c-1.6,0-3-0.3-4.3-0.8c-1.3-0.6-2.3-1.4-3.2-2.4c-0.9-1-1.5-2.2-2-3.6c-0.5-1.4-0.7-2.9-0.7-4.6
				c0-2.3,0.4-4.4,1.1-6.3c0.7-1.9,1.7-3.5,3-4.9c1.3-1.4,2.7-2.4,4.4-3.2c1.7-0.8,3.5-1.1,5.5-1.1c0.9,0,1.8,0.1,2.6,0.2
				c0.8,0.2,1.5,0.4,2.1,0.7s1.2,0.7,1.7,1.1c0.5,0.4,1,0.9,1.4,1.4l-1.2,1.4c-0.1,0.1-0.2,0.2-0.3,0.3c-0.1,0.1-0.3,0.1-0.5,0.1
				s-0.5-0.1-0.7-0.4c-0.2-0.2-0.6-0.5-1-0.8s-1-0.6-1.6-0.8c-0.7-0.2-1.5-0.4-2.6-0.4c-1.4,0-2.8,0.3-4,0.9
				c-1.2,0.6-2.3,1.4-3.2,2.4c-0.9,1.1-1.6,2.3-2.2,3.8c-0.5,1.5-0.8,3.2-0.8,5.1c0,1.4,0.2,2.6,0.5,3.7c0.4,1.1,0.9,2,1.5,2.7
				c0.6,0.8,1.4,1.3,2.3,1.7C114.1,92.5,115,92.7,116.1,92.7z"/>
			<path class="st0" d="M162,95.4h-30.6l3.3-26.3h3.5l-2.9,23.6h10l2.9-23.6h3.5l-2.9,23.6h10.1l2.9-23.6h3.5L162,95.4z"/>
			<path class="st0" d="M191.1,69.1l-0.4,2.9h-7.8L180,95.4h-3.4l2.9-23.4h-7.8l0.3-2.9H191.1z"/>
			<path class="st0" d="M212.1,95.4h-2.7c-0.3,0-0.5-0.1-0.7-0.2c-0.2-0.2-0.3-0.4-0.4-0.6l-1.4-6.4h-10.8l-3,6.4
				c-0.1,0.2-0.3,0.4-0.5,0.6s-0.5,0.2-0.8,0.2h-2.7l13-26.3h3.5L212.1,95.4z M197.3,85.6h9.1L204,74.7c-0.1-0.3-0.1-0.7-0.2-1.1
				c-0.1-0.4-0.2-0.9-0.2-1.4c-0.2,0.5-0.4,1-0.6,1.4c-0.2,0.4-0.3,0.8-0.5,1.1L197.3,85.6z"/>
			<path class="st0" d="M237.3,71.8h-12.4l-1.1,8.7h4.7c1.4,0,2.5,0.2,3.5,0.5s1.8,0.7,2.4,1.3c0.6,0.5,1.1,1.2,1.4,1.9
				c0.3,0.7,0.5,1.6,0.5,2.5c0,1.3-0.2,2.5-0.7,3.6c-0.4,1.1-1.1,2-1.9,2.8c-0.8,0.8-1.8,1.4-3,1.8c-1.2,0.4-2.5,0.6-4.1,0.6h-8.1
				l3.3-26.3h15.9L237.3,71.8z M223.4,83.2l-1.2,9.5h4.6c1,0,1.8-0.1,2.6-0.4c0.7-0.3,1.3-0.6,1.8-1.1s0.9-1.1,1.1-1.8
				c0.2-0.7,0.4-1.5,0.4-2.4c0-1.2-0.4-2.2-1.1-2.8c-0.7-0.7-1.9-1-3.6-1C228,83.2,223.4,83.2,223.4,83.2z"/>
			<path class="st0" d="M262.8,95.4h-3.5l1.5-12h-12.9l-1.5,12h-3.5l3.3-26.3h3.5l-1.5,11.8h12.9l1.5-11.8h3.5L262.8,95.4z"/>
			<path class="st0" d="M276.8,92.3c0.5-0.3,1-0.9,1.5-1.8l1.5-2.7l-7.5-18.7h3.1c0.3,0,0.5,0.1,0.7,0.2c0.2,0.1,0.3,0.3,0.4,0.6
				l4.4,12.1c0.1,0.5,0.3,1,0.4,1.4c0.1,0.5,0.2,0.9,0.3,1.4c0.2-0.5,0.4-1,0.6-1.4c0.2-0.5,0.5-0.9,0.7-1.4l6.5-12.1
				c0.1-0.2,0.3-0.4,0.5-0.6s0.5-0.2,0.8-0.2h2.9L280.8,92c-0.4,0.7-0.8,1.3-1.2,1.8c-0.4,0.5-0.8,0.8-1.3,1.1
				c-0.4,0.3-0.9,0.5-1.3,0.6c-0.5,0.1-0.9,0.2-1.4,0.2c-0.7,0-1.3-0.1-1.6-0.2c-0.4-0.1-0.5-0.4-0.5-0.7l0.2-1.9h1.2
				C275.7,92.8,276.3,92.6,276.8,92.3z"/>
			<path class="st0" d="M302.1,80.9h5.7c0.3-1.8,0.8-3.4,1.6-4.9s1.7-2.8,2.8-3.8c1.1-1.1,2.4-1.9,3.8-2.5c1.4-0.6,2.9-0.9,4.6-0.9
				c1.5,0,2.9,0.3,4.1,0.8c1.2,0.6,2.2,1.4,3,2.4s1.5,2.2,1.9,3.6c0.4,1.4,0.7,2.9,0.7,4.6c0,2.3-0.3,4.3-1,6.2
				c-0.6,1.9-1.5,3.5-2.7,4.9c-1.2,1.4-2.5,2.4-4.1,3.2s-3.3,1.1-5.2,1.1c-1.5,0-2.9-0.3-4.1-0.8c-1.2-0.6-2.2-1.3-3-2.4
				c-0.8-1-1.5-2.2-1.9-3.6c-0.4-1.4-0.7-2.9-0.7-4.6v-0.7h-5.7l-1.4,11.8H297l3.2-26.3h3.5L302.1,80.9z M317.5,92.8
				c1.3,0,2.6-0.3,3.7-0.9c1.1-0.6,2.1-1.4,2.9-2.5c0.8-1.1,1.4-2.4,1.9-3.9c0.4-1.5,0.7-3.3,0.7-5.2c0-1.3-0.1-2.5-0.4-3.5
				c-0.3-1.1-0.7-2-1.3-2.7c-0.6-0.7-1.2-1.3-2-1.7s-1.7-0.6-2.7-0.6c-1.3,0-2.6,0.3-3.7,0.9c-1.1,0.6-2.1,1.4-2.9,2.5
				c-0.8,1.1-1.4,2.4-1.9,4c-0.4,1.5-0.7,3.3-0.7,5.2c0,1.3,0.1,2.5,0.4,3.5s0.7,1.9,1.3,2.7c0.6,0.7,1.2,1.3,2,1.7
				C315.5,92.6,316.4,92.8,317.5,92.8z"/>
		</g>
	</g>
</g>
</svg>
