<?xml version="1.0" encoding="utf-8"?>
<!-- Generator: Adobe Illustrator 20.1.0, SVG Export Plug-In . SVG Version: 6.00 Build 0)  -->
<svg version="1.1" id="Слой_1" xmlns="http://www.w3.org/2000/svg" xmlns:xlink="http://www.w3.org/1999/xlink" x="0px" y="0px"
	 viewBox="0 0 92 36" style="enable-background:new 0 0 92 36;" xml:space="preserve">
<style type="text/css">
	.st0{fill:#FFFFFF;}
</style>
<path class="st0" d="M89.8,5.3c-2.2,6-10,12-15.1,12c-3.4,0-4.5-2.7-4.8-5.2c-0.5,0.4-0.9,0.8-1.2,1.1c0.3-0.5,0.7-1,1.1-1.5l0,0
	c1.9-2.1,3.9-3.7,4.9-4.3c1.5-1,2.3-0.6,2.8,0c1.8-1,0.4-4-3.2-1.5C73,6.8,71.5,8,70.1,9.4c-0.7,0.8-1.3,1.6-1.6,2
	c0.3-0.6,0.6-1.2,1-1.8c0.5-1.2,0.8-2.2,0.8-3.1c-0.7-1.1-2.9-2-3.9-1.8c0.1,0.9-1.4,4.2-2.8,7.6c-0.5,0.4-1,0.9-1.6,1.2
	c0.5-1.2,0.9-2.3,0.9-3.3c-0.6-1.7-3.9-2.6-5.5-1.8c-0.8,0.4-1.8,1.7-2.8,3.3c-0.8,0.8-1.8,1.5-2.7,1.9c0.1-0.5,0.2-1,0.2-1.4
	c0-1-0.7-1.6-1.6-1.9C51,9.4,51.4,8.6,52,7.7c0.8,0,5.4-0.2,6-4.4c0.4-2.4-1.4-4-3.9-3.6c-2.5,1.4-4.3,4.7-4.9,5.8
	c0.9,0.2,1.8,0.3,2.2,0.3c-0.5,0.1-1.4,0.1-2.3-0.1l0,0c-1.9-0.2-4.6-1.1-7-0.5c-0.6,0.6-1.2,2.1-1,2.9c0.6-0.5,2-0.7,2.9-0.7
	c1.1,0,1.7,0.1,3.4,0.2c1,0,2.1,0.1,2.4,0.1C49.5,8,48.6,8,47.7,8.1c-0.9,1.6-1.8,3.2-2.7,5.2c-1,1.9-2.2,5.7-2.1,8.2
	c0.4,1.2,3.6,1,4.6,0.4c1.5-1.4,3.3-4.2,4.2-6.7c-0.3,0.1-0.6,0.1-1,0c0.5-0.1,0.8-0.3,1.1-0.4l0,0c0.7-0.3,1.4-0.7,2.1-1.1
	c-1.1,2.5-1.9,5.2-1.6,7.2c0.7,1.2,3.6,0.8,4.6,0.3c1.4-1.2,3.2-3.6,4.5-6c-0.3,0-0.6,0-0.9,0c0.6-0.1,1-0.3,1.4-0.5
	s0.8-0.4,1.2-0.6c-0.8,2-1.4,4-1.5,5.3c0.4,1,2.4,1.2,3.6,1.1c0.1-0.8,0.3-1.6,1.2-3.7c0.5-1,1.1-1.9,1.7-2.7c0.2,1.6,0.8,4,3,5.3
	c-1.2,0.9-4.2,1.5-6.8,2c-8.1,1.6-31.2,2-41.2,6c0.1-1.4,0.5-3.6,0.9-5s1-3.5,1.7-5.8c-1.1,0.2-2.5,0.4-3,0.3
	c1.9-0.4,3.4-0.8,4.5-1.2c1.5-0.5,2.8-1,3.7-1.5c0.2-0.1,0.4-0.2,0.6-0.4l0,0c0.2-0.2,0.4-0.3,0.5-0.4c-0.1,0.3-0.3,0.5-0.7,0.7
	c-0.4,0.9-0.8,1.8-1,2.5c-1.1,2.8-1.7,6.4-1.2,7.8c0.9,0.7,3,0.3,3.5-0.4c2.4-1.9,4-5.2,2.7-6.5c0.7-0.3,1.6-0.8,2.4-1.4
	c0.3-0.5,0.6-0.9,0.7-1.2c-0.2,0.7-0.6,1.3-0.9,1.9c-0.4,1.2-0.7,2.3-0.9,3.1c-0.6,2.7,1.8,3.7,3.3,3.4c-0.5-2,2.8-9.2,4.6-12.1
	c-0.2-0.1-0.4-0.1-0.6-0.2c-1-0.4-2.1-0.7-3.1-0.8c-0.6,0.6-1.1,1.4-1.6,2.4c-1.9,2.9-3.6,3.8-4.6,4l0,0l0,0c-0.4,0.1-0.6-0.1-1.3,0
	c0.4-0.3,1-0.1,1.4-0.3c0.7-1.5,1.5-2.9,2.3-3.8c-0.7-0.3-1.3-0.5-2-0.8c-0.2-0.1-0.5-0.2-0.7-0.2c1.2-1.4,2-3.1,1.6-5.2
	c-0.7-3.8-2.8-6.6-9.9-6C19.4,0.6,5.3,5.2,0.5,14.7c-0.9,2.1,0.9,6.5,2.2,6.4C4.1,15.3,14.8,7.3,23.9,4.5c0,1.1-0.4,3-0.4,3
	s-0.7,2.1-1.7,5c0.9,0.1,1.8,0,2.2,0c-2.2,0.5-4.6,0.3-5.2,0.3c-0.1,0-0.1,0-0.2,0c-1.6-0.2-2.7-0.6-3.1-1.2c-0.3,1.6-0.7,5,2.4,5.6
	c0.6,0.1,1.5,0.1,2.4,0c-1,3.6-1.9,7.2-1.7,8.5c0.2,1.2,1.3,1.8,2.5,2.2c0.4-0.1,0.8-0.2,1.2-0.3c-0.3,0.1-0.6,0.3-0.9,0.4l0,0
	c-0.6,0.3-1.2,0.7-1.7,1.1c-0.8,1.3-1.3,3.9-0.6,5.8c1.5-1.6,5.6-3.6,9-4.4c-1.9,0.9-4,1.6-4.6,2.5c-0.6,1-0.4,2.1-0.2,3.4
	c9.8-7.5,33.7-8,41.8-10.5c6.6-2.1,6.8-3.8,6.5-6.2c0.8,0.4,1.8,0.6,3.1,0.7c5.5,0.1,13.4-2.4,17.2-8.8C92.8,9.2,91.5,5.4,89.8,5.3z
	 M56,2.1c1.2,0.4,0.8,2.3-0.6,3.4C55,5.9,54.2,6,53.2,6C53.9,4.8,55,3,56,2.1z M50.7,14.1c-0.2,0-0.5,0-0.7,0
	c-0.3-0.1-0.9-0.6,0-2.4C50.9,11.8,51.3,12.7,50.7,14.1z M47.2,19.5c0-1,0.7-3,1.5-4.9c0.2,0.4,0.5,0.5,0.8,0.6c0.2,0,0.5,0,0.8,0
	C49.1,17.5,47.2,20.4,47.2,19.5z M61.1,10.9c0.9-0.6,0.6,1-0.4,2.8c0,0.1-0.1,0.1-0.1,0.2c0,0,0,0-0.1,0c-0.8,0-1-0.7-0.9-1.5
	C60.1,11.8,60.6,11.3,61.1,10.9z M56.9,18.4c0-1,0.7-2.9,1.8-4.6c0.2,0.8,0.7,1.1,1.3,1.2C58.6,17.2,56.9,19.4,56.9,18.4z
	 M34.1,17.8c0.4-0.2,0.8,0.6,0.5,1.4c-0.5,1.3-1.9,3.4-1.9,2.6C32.9,20.7,33.6,18.6,34.1,17.8z M25.3,4.1L25.3,4.1
	c-0.4-0.2-0.8-0.3-1.1-0.4c0.6,0,1.2,0.1,1.7,0.3c0.6-0.1,1.2-0.2,1.8-0.3c7.7-1,8.3,5.1,1.7,7.5c-0.8,0.3-1.6,0.5-2.4,0.8
	c0.5-1.9,0.9-3.5,1-4.3C28.1,6,27,4.7,25.3,4.1z"/>
</svg>
