<?xml version="1.0" encoding="utf-8"?>
<!-- Generator: Adobe Illustrator 20.1.0, SVG Export Plug-In . SVG Version: 6.00 Build 0)  -->
<svg version="1.1" id="Слой_1" xmlns="http://www.w3.org/2000/svg" xmlns:xlink="http://www.w3.org/1999/xlink" x="0px" y="0px"
	 viewBox="0 0 78 18" style="enable-background:new 0 0 78 18;" xml:space="preserve">
<style type="text/css">
	.st0{fill:#FFFFFF;}
</style>
<g>
	<path class="st0" d="M62,0.1c0,0-4.1-0.5-4.5,3.8c0,0.5,0,0.3,0,0.5l3.9,3.5L62,0.1z"/>
	<path class="st0" d="M5.1,17.5c0.4,0.2,1,0.4,1.7,0.5L6,16L5.1,17.5z"/>
	<path class="st0" d="M4,14.6L1.4,9.8c0.1,2.2,0.1,3.5,0.1,3.5l0,0c0,0-0.1,1.9,1.8,2.9C3.4,15.8,3.7,15.2,4,14.6"/>
	<path class="st0" d="M12,8.2c0.1,0,0.2,0,0.4,0c4.6-0.1,4.2-3.6,4.2-3.6l-5.5,0.2L12,8.2z"/>
	<path class="st0" d="M10.3,14.8h2.5l0.1,0.2c1.9-0.1,3.1-0.1,3.1-0.1l-0.1-3.5l-8.6,0.2c-0.3-0.1-0.5-0.3-0.5-0.5l0,0L6.6,6.5
		c1,0,2.3-0.1,3.6-0.1c0.1,0-0.1-0.4,0-0.4h0.2L10,2.9H7.2c-0.3,0-0.6-0.2-0.6-0.5l0,0L6.4,0.1c0,0-3.3-0.1-3.9,3H0.2v0.4V4l0,0
		c2.5,0,2.3,2.4,2.3,2.4l0,0c0,0.5,0,1,0.1,1.5l2.7,5.2c0.5-1,1-1.9,1-1.9l-0.9,2l1,1.9c0.2,0,4.8-0.1,4.8-0.1L10.3,14.8z"/>
	<path class="st0" d="M18.8,5.6v0.2l3.9-3.4c-2.1,0.2-3.9,0.4-3.9,0.4L16.7,3l0.1,0.9C18.3,3.8,18.7,4.9,18.8,5.6"/>
	<path class="st0" d="M45.7,2.8c-0.5-0.6-1.3-1-2.5-1.2c-0.4-0.1-0.9-0.1-1.5,0c-2,0.2-8.6,1-8.6,1L31,2.8l0.1,0.6L45.7,2.8z"/>
	<path class="st0" d="M30.3,3.2c-0.3-0.1-0.6-0.2-1-0.3s-0.9-0.1-1.5-0.1c-0.9,0-2.8,0.1-4.6,0.1L30.3,3.2z"/>
	<path class="st0" d="M33,6l0.1,0.4l0,0l0,0v0.1v0.1c0,0.3,0.2,1.2,0.6,4.5c0.1,0.6,0.2,1.1,0.5,1.5l4.1-1.5c-0.3,0-0.4,0-0.4,0
		L37.2,6L43,5.6c0.3,0,0.4,0.2,0.2,0.3l0,0l-4.1,4.7l1.6-0.2l4.6-1.6l0.4-0.5l0,0L45.9,8l0,0c1.1-1.2,0.8-2.7,0.8-2.8
		c0,0-0.1-1-0.8-1.8L31,4.2v0.1C32.5,4.3,32.9,5.4,33,6"/>
	<polygon class="st0" points="45.1,10.1 41.4,10.9 44.1,11 	"/>
	<path class="st0" d="M22.2,16l9.2-2.4c-0.6-0.7-1.7-1.3-3.6-1.3c-4.5,0.1-5.6,0.2-5.6,0.2L22,7.4l5.8-0.2c0.3,0,0.4,0.2,0.2,0.4
		l0,0l-4.6,4.3l5.1-0.1l1.6-1.5l0,0l0.3-0.2l0,0c1.2-1.1,1.1-2.7,1.1-2.7s0-1.9-1.6-2.9l-8-0.3L18,7.4l0,0l0,0v0.1v0.1
		c0,0.3,0,1.2,0.2,4.6C18.1,16,21.6,16,22.2,16"/>
	<path class="st0" d="M24.7,16l8.2,0.4c0,0,0.1-1-0.4-1.9L24.7,16z"/>
	<path class="st0" d="M67.2,5.1L71.5,5c2.2-0.1,3.9-1.5,4.2-3.4l-8.9,0.2c-1.1,0-2,0.4-2.8,1L67.2,5.1z"/>
	<polygon class="st0" points="54,1.3 53.5,2.1 54.8,1.9 	"/>
	<path class="st0" d="M43,12.1c-2.1,0.1-3.4,0.1-4.3,0.1l-5.1,1.4c1.1,2.4,3.9,2.1,3.9,2.1l0,0l8.1-3.2C45,12.3,44.1,12.1,43,12.1"
		/>
	<path class="st0" d="M46,12.8l-6.2,3.5l8-0.9C47.8,15.3,47.6,13.6,46,12.8"/>
	<path class="st0" d="M52.5,9.4V8l-4.1,1.1c0,0.6,0,1.2,0.1,1.9L52.5,9.4z"/>
	<path class="st0" d="M52.5,9.5l-4.1,1.8c0,1.3,0.1,2.6,0.1,3.6l4.1-0.1L52.5,9.5z"/>
	<path class="st0" d="M54.2,2.7l-2,0.3l0.6-1.1l-0.2-0.1l-0.3-0.1l-2,0.3l1.9-0.4L52,1.5l0,0l0,0c-2,0.3-5.8,0.8-5.8,0.8l0.1,0.9
		c0.7,0,1.2,0.3,1.5,0.6l7.3-0.5L54.2,2.7z"/>
	<polygon class="st0" points="73.3,5.4 70.8,5.6 71.5,7.6 	"/>
	<path class="st0" d="M77.4,8.3L77.4,8.3c-0.6-1-1.7-1.8-3.1-2.1l-2.6,2.1l0.1,1.1c1,0.1,1.7,0.2,1.7,0.2c0.3,0,0.6,0.3,0.5,0.6
		c0,0.3-0.3,0.5-0.7,0.5l-1.5-0.2l0.3,3.4l0.8,0.1c2.4,0.3,4.6-1.2,4.9-3.4C78,9.7,77.8,8.9,77.4,8.3"/>
	<path class="st0" d="M69.2,7.6l-0.5-1.3l-2.5,0.2c-0.3,0-0.6-0.2-0.7-0.5c0-0.3,0.2-0.5,0.5-0.6c-0.9-0.5-2.3-1.2-3.1-1.8
		C62.4,4.2,62.1,5,62,5.7l0,0c0,0.2,0,0.5,0,0.7c0.1,0.8,0.5,1.6,1,2.2l0,0l0,0l0,0c0.9,0.9,2.2,1.5,3.7,1.4l0,0c0,0,0.3,0,0.8-0.1
		L69.2,7.6z"/>
	<path class="st0" d="M68.3,10c0.6,0,1.3,0,2-0.1l-0.5-1.8L68.3,10z"/>
	<path class="st0" d="M56.8,5.8l-2.2-1.4l-7.4,0.1c0.2,0.3,0.3,0.7,0.4,1v0.4l0,0l0,0V6v0.1c0,0.1,0.1,1.3,0.3,2.8l4-1.3l-0.1-1.3
		l1.3,0.8l4-1.1L56.8,5.8z"/>
	<path class="st0" d="M57.7,6.7l-4.1,0.9l0.1,0.1L55,7.3l-1.2,0.3l3.9,2.8c0,0,0.1,3,0.1,4.2h1.3c0.1-0.4,0.4-1.3,0.6-1.8l0.9-4.1
		L57.7,6.7z"/>
	<path class="st0" d="M70.7,11.3l-5.5,0.6l0.9,1.5l-1.2-1.5l-3,0.3l-0.2-1.7l-1.3-0.8L59.9,14c0-0.2,0.1-0.4,0.1-0.4l-0.1,2.2
		l2.5-0.3v-0.1c0.2,0,0.3,0,0.5,0c0.1,0,0.1,0.1,0.2,0.1l8.8-1L70.7,11.3z"/>
</g>
</svg>
