<?xml version="1.0" encoding="utf-8"?>
<!-- Generator: Adobe Illustrator 20.1.0, SVG Export Plug-In . SVG Version: 6.00 Build 0)  -->
<svg version="1.1" id="Слой_1" xmlns="http://www.w3.org/2000/svg" xmlns:xlink="http://www.w3.org/1999/xlink" x="0px" y="0px"
	 viewBox="0 0 29 29" style="enable-background:new 0 0 29 29;" xml:space="preserve">
<style type="text/css">
	.st0{fill:#FFFFFF;}
</style>
<g>
	<path class="st0" d="M14.5,29C6.5,29,0,22.5,0,14.5S6.5,0,14.5,0S29,6.5,29,14.5S22.5,29,14.5,29z M14.5,0.7
		C6.9,0.7,0.7,6.9,0.7,14.5s6.2,13.8,13.8,13.8s13.8-6.2,13.8-13.8S22.1,0.7,14.5,0.7z"/>
	<path class="st0" d="M18.4,8.1h-7.8c-1.4,0-2.5,1.1-2.5,2.5v2.6v5.2c0,1.4,1.1,2.5,2.5,2.5h7.8c1.4,0,2.5-1.1,2.5-2.5v-5.2v-2.6
		C20.9,9.2,19.8,8.1,18.4,8.1z M19.1,9.6h0.3v0.3v1.9h-2.2V9.6H19.1z M12.7,13.2c0.4-0.6,1.1-0.9,1.8-0.9s1.4,0.4,1.8,0.9
		c0.3,0.4,0.4,0.8,0.4,1.3c0,1.2-1,2.2-2.2,2.2s-2.2-1-2.2-2.2C12.3,14,12.4,13.6,12.7,13.2z M19.6,18.4c0,0.7-0.5,1.2-1.2,1.2h-7.8
		c-0.7,0-1.2-0.5-1.2-1.2v-5.2h1.9C11.1,13.6,11,14,11,14.5c0,1.9,1.6,3.5,3.5,3.5s3.5-1.6,3.5-3.5c0-0.5-0.1-0.9-0.3-1.3h1.9V18.4z
		"/>
</g>
</svg>
