<?xml version="1.0" encoding="utf-8"?>
<!-- Generator: Adobe Illustrator 20.1.0, SVG Export Plug-In . SVG Version: 6.00 Build 0)  -->
<svg version="1.1" id="Слой_1" xmlns="http://www.w3.org/2000/svg" xmlns:xlink="http://www.w3.org/1999/xlink" x="0px" y="0px"
	 viewBox="0 0 29 29" style="enable-background:new 0 0 29 29;" xml:space="preserve">
<style type="text/css">
	.st0{fill:#FFFFFF;}
</style>
<g>
	<path class="st0" d="M14.5,29.2C6.5,29.2,0,22.7,0,14.7S6.5,0.2,14.5,0.2S29,6.7,29,14.7S22.5,29.2,14.5,29.2z M14.5,0.9
		C6.9,0.9,0.7,7.1,0.7,14.7s6.2,13.8,13.8,13.8s13.8-6.2,13.8-13.8S22.1,0.9,14.5,0.9z"/>
	<path class="st0" d="M11.4,12.5h1.3v-1.3c0-0.6,0-1.4,0.4-2s1-1,2-1c1.7,0,2.4,0.2,2.4,0.2l-0.3,2c0,0-0.5-0.2-1.1-0.2
		c-0.5,0-1,0.2-1,0.7v1.5h2.1l-0.1,1.9h-2V21h-2.5v-6.6h-1.3L11.4,12.5L11.4,12.5z"/>
</g>
</svg>
