<?xml version="1.0" encoding="utf-8"?>
<!-- Generator: Adobe Illustrator 20.1.0, SVG Export Plug-In . SVG Version: 6.00 Build 0)  -->
<svg version="1.1" id="Слой_1" xmlns="http://www.w3.org/2000/svg" xmlns:xlink="http://www.w3.org/1999/xlink" x="0px" y="0px"
	 viewBox="0 0 64 16" style="enable-background:new 0 0 64 16;" xml:space="preserve">
<style type="text/css">
	.st0{fill:#FFFFFF;}
</style>
<g>
	<path class="st0" d="M13,0.6v3.5H4v1.1h5.6c0.8,0,1.5,0.1,2.1,0.4c0.6,0.2,1.2,0.6,1.7,1c0.5,0.4,0.8,1,1.1,1.6
		c0.3,0.6,0.4,1.3,0.4,2c0,0.7-0.1,1.4-0.4,2c-0.3,0.6-0.6,1.2-1.1,1.6c-0.5,0.5-1,0.8-1.7,1.1c-0.6,0.3-1.4,0.4-2.1,0.4H0.1V0.6H13
		z M4,11.8h5.3c0.6,0,1-0.2,1.2-0.5c0.2-0.3,0.3-0.7,0.3-1.1c0-0.4-0.1-0.8-0.3-1.1c-0.2-0.3-0.6-0.4-1.2-0.4H4V11.8z"/>
	<path class="st0" d="M31.1,0.6v14.7h-3.9V4.1h-4.7L21,11.4c-0.2,1.4-0.8,2.4-1.6,3c-0.8,0.6-1.8,0.9-3.1,0.9h-2v-3.5h1.9
		c0.6,0,0.9-0.3,1-0.8l1.9-10.4H31.1z"/>
	<path class="st0" d="M49,7.9c0,1.2-0.2,2.2-0.7,3.2c-0.5,1-1.1,1.8-1.8,2.4c-0.8,0.7-1.6,1.2-2.6,1.6c-1,0.4-2.1,0.6-3.2,0.6
		c-1.1,0-2.2-0.2-3.2-0.6c-1-0.4-1.9-0.9-2.6-1.6c-0.8-0.7-1.4-1.5-1.8-2.4c-0.5-1-0.7-2-0.7-3.2c0-1.2,0.2-2.2,0.7-3.2
		c0.5-1,1.1-1.8,1.8-2.4c0.8-0.7,1.6-1.2,2.6-1.6c1-0.4,2.1-0.6,3.2-0.6c1.1,0,2.2,0.2,3.2,0.6c1,0.4,1.9,0.9,2.6,1.6
		c0.8,0.7,1.4,1.5,1.8,2.4C48.7,5.7,49,6.8,49,7.9z M36.3,7.9c0,0.7,0.1,1.3,0.3,1.8c0.2,0.5,0.5,1,0.9,1.4c0.4,0.4,0.9,0.7,1.4,0.9
		c0.5,0.2,1.1,0.3,1.7,0.3c0.6,0,1.2-0.1,1.7-0.3c0.5-0.2,1-0.5,1.4-0.9c0.4-0.4,0.7-0.8,0.9-1.4C44.9,9.2,45,8.6,45,7.9
		c0-0.7-0.1-1.3-0.3-1.8c-0.2-0.5-0.5-1-0.9-1.4c-0.4-0.4-0.9-0.7-1.4-0.9c-0.5-0.2-1.1-0.3-1.7-0.3c-0.6,0-1.2,0.1-1.7,0.3
		c-0.5,0.2-1,0.5-1.4,0.9c-0.4,0.4-0.7,0.8-0.9,1.4C36.4,6.7,36.3,7.3,36.3,7.9z"/>
	<path class="st0" d="M64.1,0.6v3.5h-9.8v11.2h-3.9V0.6H64.1z"/>
</g>
</svg>
