<?xml version="1.0" encoding="utf-8"?>
<!-- Generator: Adobe Illustrator 20.1.0, SVG Export Plug-In . SVG Version: 6.00 Build 0)  -->
<svg version="1.1" id="Слой_1" xmlns="http://www.w3.org/2000/svg" xmlns:xlink="http://www.w3.org/1999/xlink" x="0px" y="0px"
	 viewBox="0 0 29 29" style="enable-background:new 0 0 29 29;" xml:space="preserve">
<style type="text/css">
	.st0{fill:#FFFFFF;}
</style>
<g>
	<path class="st0" d="M14.6,29c-8,0-14.5-6.5-14.5-14.5C0.1,6.5,6.6,0,14.6,0c8,0,14.5,6.5,14.5,14.5C29.1,22.5,22.6,29,14.6,29z
		 M14.6,0.7C7,0.7,0.8,6.9,0.8,14.5c0,7.6,6.2,13.8,13.8,13.8c7.6,0,13.8-6.2,13.8-13.8C28.4,6.9,22.2,0.7,14.6,0.7z"/>
	<path class="st0" d="M17.2,10.2v2.4c-0.1,0.1-0.1,0.1-0.2,0.2c-0.1,0-0.1,0.1-0.2,0.1c-0.1,0-0.1,0-0.1-0.1c0,0,0-0.1,0-0.2v-2.5
		H16v2.7c0,0.2,0,0.3,0.1,0.4c0.1,0.1,0.2,0.1,0.3,0.1c0.1,0,0.3,0,0.4-0.1c0.1-0.1,0.3-0.2,0.4-0.3v0.4h0.7v-3.2H17.2z M15.2,10.4
		c-0.2-0.2-0.4-0.2-0.7-0.2c-0.3,0-0.5,0.1-0.7,0.2c-0.2,0.1-0.3,0.3-0.3,0.6v1.7c0,0.3,0.1,0.5,0.3,0.6c0.2,0.2,0.4,0.2,0.7,0.2
		c0.3,0,0.5-0.1,0.7-0.2c0.2-0.2,0.3-0.4,0.3-0.6V11C15.4,10.7,15.3,10.6,15.2,10.4z M14.8,12.7c0,0.1,0,0.1-0.1,0.2
		c-0.1,0.1-0.1,0.1-0.2,0.1c-0.1,0-0.2,0-0.2-0.1c0,0-0.1-0.1-0.1-0.2v-1.7c0-0.1,0-0.1,0.1-0.2c0,0,0.1-0.1,0.2-0.1
		c0.1,0,0.2,0,0.2,0.1c0.1,0,0.1,0.1,0.1,0.2V12.7z M12.7,9.1l-0.5,1.7h-0.1l-0.5-1.7H11l0.9,2.6v1.7h0.7v-1.8l0.9-2.5H12.7z
		 M17.8,16.7c0,0.1,0.1,0.1,0.1,0.3v0.3h-0.5V17c0-0.1,0-0.2,0.1-0.3c0-0.1,0.1-0.1,0.2-0.1C17.7,16.7,17.8,16.7,17.8,16.7z
		 M15.8,16.7c0-0.1-0.1-0.1-0.2-0.1c0,0-0.1,0-0.1,0c0,0-0.1,0.1-0.1,0.1v1.8c0,0,0.1,0.1,0.1,0.1c0,0,0.1,0,0.1,0
		c0.1,0,0.1,0,0.2-0.1c0,0,0.1-0.1,0.1-0.2v-1.5C15.9,16.8,15.9,16.8,15.8,16.7z M15.8,16.7c0-0.1-0.1-0.1-0.2-0.1c0,0-0.1,0-0.1,0
		c0,0-0.1,0.1-0.1,0.1v1.8c0,0,0.1,0.1,0.1,0.1c0,0,0.1,0,0.1,0c0.1,0,0.1,0,0.2-0.1c0,0,0.1-0.1,0.1-0.2v-1.5
		C15.9,16.8,15.9,16.8,15.8,16.7z M19.1,14.5H10c-1,0-1.8,0.8-1.8,1.8v1.9c0,1,0.8,1.8,1.8,1.8h9.1c1,0,1.8-0.8,1.8-1.8v-1.9
		C20.9,15.3,20.1,14.5,19.1,14.5z M12.5,15.8h-0.7v3.4h-0.7v-3.4h-0.7v-0.6h2V15.8z M14.4,19.1h-0.6v-0.3c-0.1,0.1-0.2,0.2-0.3,0.3
		c-0.1,0.1-0.2,0.1-0.3,0.1c-0.1,0-0.2,0-0.3-0.1c-0.1-0.1-0.1-0.2-0.1-0.4v-2.4h0.6v2.2c0,0.1,0,0.1,0,0.1c0,0,0.1,0,0.1,0
		c0,0,0.1,0,0.2-0.1c0.1,0,0.1-0.1,0.2-0.2v-2.2h0.6V19.1z M16.5,18.5c0,0.2,0,0.4-0.1,0.5c-0.1,0.1-0.2,0.2-0.4,0.2
		c-0.1,0-0.2,0-0.3-0.1c-0.1,0-0.2-0.1-0.2-0.2v0.2h-0.6v-3.9h0.6v1.3c0.1-0.1,0.2-0.2,0.2-0.2c0.1,0,0.2-0.1,0.3-0.1
		c0.2,0,0.3,0.1,0.4,0.2c0.1,0.1,0.1,0.3,0.1,0.5V18.5z M18.5,17.7h-1.1v0.5c0,0.2,0,0.3,0.1,0.3c0,0.1,0.1,0.1,0.2,0.1
		c0.1,0,0.2,0,0.2-0.1c0,0,0.1-0.2,0.1-0.3v-0.1h0.6v0.1c0,0.3-0.1,0.5-0.2,0.7c-0.1,0.2-0.4,0.2-0.6,0.2c-0.3,0-0.5-0.1-0.6-0.2
		c-0.1-0.2-0.2-0.4-0.2-0.7V17c0-0.3,0.1-0.5,0.3-0.6c0.2-0.2,0.4-0.2,0.6-0.2c0.3,0,0.5,0.1,0.6,0.2c0.1,0.1,0.2,0.4,0.2,0.6V17.7z
		 M15.6,16.6c0,0-0.1,0-0.1,0c0,0-0.1,0.1-0.1,0.1v1.8c0,0,0.1,0.1,0.1,0.1c0,0,0.1,0,0.1,0c0.1,0,0.1,0,0.2-0.1
		c0,0,0.1-0.1,0.1-0.2v-1.5c0-0.1,0-0.2-0.1-0.2C15.8,16.7,15.7,16.6,15.6,16.6z M15.8,16.7c0-0.1-0.1-0.1-0.2-0.1c0,0-0.1,0-0.1,0
		c0,0-0.1,0.1-0.1,0.1v1.8c0,0,0.1,0.1,0.1,0.1c0,0,0.1,0,0.1,0c0.1,0,0.1,0,0.2-0.1c0,0,0.1-0.1,0.1-0.2v-1.5
		C15.9,16.8,15.9,16.8,15.8,16.7z M15.8,16.7c0-0.1-0.1-0.1-0.2-0.1c0,0-0.1,0-0.1,0c0,0-0.1,0.1-0.1,0.1v1.8c0,0,0.1,0.1,0.1,0.1
		c0,0,0.1,0,0.1,0c0.1,0,0.1,0,0.2-0.1c0,0,0.1-0.1,0.1-0.2v-1.5C15.9,16.8,15.9,16.8,15.8,16.7z"/>
</g>
</svg>
