<?xml version="1.0" encoding="utf-8"?>
<!-- Generator: Adobe Illustrator 21.1.0, SVG Export Plug-In . SVG Version: 6.00 Build 0)  -->
<svg version="1.1" id="Layer_1" xmlns="http://www.w3.org/2000/svg" xmlns:xlink="http://www.w3.org/1999/xlink" x="0px" y="0px"
	 viewBox="0 0 794.2 315.3" style="enable-background:new 0 0 794.2 315.3;" xml:space="preserve">
<style type="text/css">
	.st0{fill:#070809;}
</style>
<g>
	<path class="st0" d="M724.8,164c-12.6,6.5-41,14.4-51.3,14.4C695.9,181.9,724.8,171,724.8,164z"/>
	<path class="st0" d="M126.3,24.1C76.6,39.1,53.9,56,56,62.8C66.2,54.7,98.8,34.8,126.3,24.1z"/>
	<path class="st0" d="M165.6,165.5c-10.1,14.5-16,41.9-10.4,50.1C155.4,206.8,161,180.4,165.6,165.5z"/>
	<path class="st0" d="M20.7,197.5c-0.2,2.1,0.7,3.3,3.3,4.2c3.5-16.7,12.3-34.1,21-48.9C27.4,169.4,20.8,195.5,20.7,197.5z"/>
	<path class="st0" d="M770.8,42.5c0.1-1.6-0.6-2.6-2.6-3.2c-2.6,13.1-9.4,26.8-16.1,38.5C765.8,64.6,770.7,44.1,770.8,42.5z"/>
	<path class="st0" d="M568.1,39.7c-0.5-1.5-1.1-2.7-3.2-3.1c-1.1,11.6-3.5,24.3-6.8,37.4C565.3,60.1,569,42.5,568.1,39.7z"/>
	<path class="st0" d="M350.6,198.9c1-9.7,2.5-19.3,4.8-31.9c-5.3,12-8.3,27-7.5,29.3C348.4,197.6,348.9,198.7,350.6,198.9z"/>
	<path class="st0" d="M730.3,144.4c29.3-16.9,51.4-43.4,63.2-65.8c-2.4-15.3-10.5-29.9-20.3-30.5c-17.9,49.7-80.3,99.2-124,103.6
		c-1.7,0.2-3.3,0.3-4.9,0.3c-0.4,0-0.8,0-1.3,0c-29.2,0-39.1-23.4-41.4-45.2c-4.4,3.8-7.9,7.1-10,9.1c2.9-4.5,6.3-8.7,9.7-12.5
		c0,0,0-0.1,0-0.1c16.8-18.4,33.8-31.8,42-37.5c12.5-8.7,19.7-5.1,24.5-0.4c15.5-8.9,3.8-35-27.7-12.5c-11.2,8-23.8,18.1-36,30
		c-6.2,6.9-11.6,13.7-14.1,17.1c2.5-5.5,5.6-10.7,8.7-15.4c4.5-10.3,7.2-18.9,7.1-26.6c-6.2-9.5-26.7-14.8-34-15.4
		c1,7.7-11.9,36.2-23.6,65.3c-4,3.9-8.8,7.6-13.8,10.4c4.4-10.3,7.4-20.1,8-28.1c-2.9-7.8-12.4-13.7-22.7-16.3
		c-0.9,0-1.8-0.2-1.8-0.2c-5.2-1.9-26.7,8-42.2,39.7c10.1-24.3,24.3-37.5,34.5-41c-5.5-0.3-10.8,0.5-14.8,2.7
		c-7.1,3.7-15.9,14.7-23.9,28.6c-7,6.6-15.5,12.7-23.4,16.6c0.9-4.3,1.4-8.3,1.4-12c-0.2-8.7-6.3-14.1-14-16.5
		c4-7.3,8.2-14.7,12.5-22.3c7.1-0.1,46.4-2.1,52.2-38c3.4-20.7-12-34.5-34-31c-21.4,12.1-36.7,40.9-42,50.2c7.9,1.6,15.6,2.3,19,2.6
		c-4.3,1.2-12,0.6-19.9-0.9c0,0,0,0.1-0.1,0.1c-16.7-1.8-40-9.5-60.5-4c-2.2,1.3-4.1,3.9-5.6,7c9-2.3,20-3.6,31.6-1.3
		c-13.7-0.3-24.3,1.1-32.5,3.3c-2.3,5.6-3.3,12.2-2.5,16.1c5.1-4.7,17.1-6,24.9-6.1c9.8-0.1,14.6,0.5,29.2,1.6
		c8.9,0.4,17.9,0.8,20.7,1.1c-3.3,1.5-10.7,1.8-18.6,1.9c-7.8,13.5-15.5,27.8-23.5,44.5c-8.9,16.4-19.3,48.9-17.8,70.4
		c3.5,10,31.5,8.5,39.5,3.5c13-12.3,28.4-36.3,36.2-57.6c-2.5,0.5-5.6,0.7-8.4,0c4-1.1,7-2.3,9.5-3.4c0,0,0,0,0,0
		c5.9-2.5,12-6,17.8-9.9c-9.7,21.2-16.5,45.3-14.1,61.9c6,10,31.3,7.3,40,2.7c12.4-10.4,27.7-31.2,38.8-52.1
		c-2.4,0.3-5.3,0.3-7.8-0.4c5.4-1.3,9-2.7,12-3.9c3.7-1.6,7.3-3.5,10.5-5.4c-6.3,16.6-11.2,32.2-12,43c3.3,8.8,19.3,13,29.8,12.1
		c1-7,2.9-13.8,10.4-31.6c4.4-8.2,9.5-16.1,14.9-23.4c1.6,13.5,7.3,34.1,25.8,45.8c-10.5,7.5-36.1,13-58.3,17.3
		c-70.2,13.7-269,16.9-355.8,51.4c0.7-11.7,4.1-31,7.7-43c3.5-11.7,9.1-30.6,14.7-50.4c-9.7,2-21.2,3.8-26.1,2.6
		c16.3-3.1,29.1-6.8,39.2-10.1c12.7-4.4,23.9-9,31.5-13c1.9-1,3.7-2,5.6-3.1c0,0,0,0.1-0.1,0.1c2-1.4,3.5-2.6,4.3-3.5
		c-0.8,2.2-2.9,4.2-5.7,6.2c-3.7,7.5-6.6,15.2-8.9,21.2c-9.3,24.4-14.4,55.2-10.1,67.1c7.5,5.8,25.7,2.4,30.6-3.5
		c20.8-16.4,34.5-45,23.4-55.8c6.2-2.4,13.6-6.8,20.6-12.1c2.8-4.2,5.1-7.9,6.3-10c-2,5.8-4.8,11.4-7.6,16.2
		c-3.3,10.1-5.9,19.5-7.4,26.7c-5,23.6,15.9,31.6,28.5,29.8c-4.6-17.5,24.2-79.8,40.1-104.9c-1.6-0.6-3.2-1.2-4.8-1.8
		c-8.8-3.2-17.8-6.1-27-7.2c-5,4.9-9.8,12.2-14.2,20.7c-16.7,25.1-31.5,32.4-39.5,34.3c0,0,0,0,0,0c0,0,0,0,0,0
		c-3.3,1.1-5.4-0.5-11.2-0.1c3.4-2.2,9-0.9,12.3-2.3c6-12.8,13-25.2,19.6-32.9c-5.8-2.3-11.5-4.7-17.4-6.8c-1.9-0.7-3.9-1.4-5.9-2
		c10.5-11.9,17.1-26.7,14-44.7c-5.6-33.1-24.1-56.8-85.8-51.5C165.8,7.9,43.3,47.9,2,129.8c-1.7,4-2.2,9.1-1.9,14.5
		C7,128.6,21.7,108.3,52.6,83C25,106.8,7.6,130.7,0.8,151c0.6,3.3,1.4,6.7,2.4,9.9C13.7,131.1,48,81.2,121.4,46
		C47.3,85.4,12.6,136,4.4,164.5c4.2,11.7,10.8,21,16.4,20.6C33.7,134.9,126.1,65.4,203.9,41.6c0.2,9.8-3.4,26.1-3.4,26.1
		s-6.5,18.5-14.3,42.8c8.2,0.4,15.7,0.3,19.4,0.3c-18.9,4.3-39.7,2.6-44.6,2.2c-0.6-0.1-1.1-0.2-1.4-0.4
		c-13.5-1.5-23.1-5.3-27.1-10.6c-2.6,13.9-6,43.4,20.9,48.4c5.4,1,12.6,0.9,20.7-0.1c-9,31.1-16.3,61.8-14.3,73.3
		c1.7,10,11,15.4,21.3,18.7c3.3-1,7-2,10.3-2.6c-2.9,1.2-5.6,2.3-8.1,3.3c0,0,0,0,0,0c-5.5,2.9-10.3,5.9-14.3,9.2
		c-2.1,3.6-4,8.3-5.4,13.6c12.2-12.5,35.6-23.5,89.4-32.7c-48.2,8.1-78.3,25.2-91.2,41.6c-1.4,9.2-1.1,19.1,1.8,27.3
		c12.8-14.2,48.7-31.3,77.3-38c-16.3,7.6-34.6,13.5-39.5,21.5c-5.5,9-3.6,18.3-1.4,29.8c30.5-23.4,76.7-38.8,126.7-50.1
		c-34.6,9.3-56.8,18.8-64.2,24.8c19-9.2,89.7-26.3,140.9-34.4c46.7-7.3,85.9-8,117-18.7c-16.2,4.1-51.5,6.2-86.6,9.5
		c52.7-7.6,100-13.4,126.9-21.9c50.9-16,57.8-29.8,57-47c-14.6,6.3-35.6,11.9-66.8,16.8c28.3-4.4,50.4-11.9,66.5-20.6
		c-0.1-0.8-0.2-1.7-0.3-2.5c0.9,0.4,1.8,0.8,2.7,1.2c1.6,0.6,3.3,1.2,5,1.7c5.5,1.6,11.7,2.6,18.8,2.7
		c47.4,1.1,115.5-20.6,148.3-75.9c1.8-4.9,2.4-10.8,2.1-16.8C781.4,104.6,760,128.1,730.3,144.4z M481.6,20.5
		c10.4,3.2,6.9,19.9-5,29.5c-4.2,3.4-10.5,4.5-19.6,4.4C463,44.4,473.1,28,481.6,20.5z M436,124.7c-2.1,0.4-4.1,0.4-5.7,0
		c-2.2-0.5-7.9-5.3,0.1-20.3C437.6,104.5,440.8,112.2,436,124.7z M405.4,170.8c-0.4-8.7,5.8-25.8,13-42.3c1.9,3.3,4.6,4.4,7,4.8
		c2,0.3,4.2,0.3,6.5,0C421.9,153.7,405.8,178.9,405.4,170.8z M525.6,96.5c7.6-5.5,4.8,8.7-3.5,24.5c-0.3,0.5-0.6,1.1-0.8,1.6
		c-0.2,0-0.3,0-0.5,0c-7.1,0.3-8.9-6-7.8-12.9C517,104.5,521.3,99.9,525.6,96.5z M489.3,161.4c0.1-8.9,6.5-25.1,15.5-39.9
		c1.6,7.1,5.9,9.9,11.3,10.2C504.2,151.4,489.2,169.8,489.3,161.4z M292.4,156.2c3.6-1.5,7,5.5,4.7,11.8
		c-4.2,11.4-16.6,29.7-16,22.5C281.9,180.9,288.2,163.3,292.4,156.2z M216,38.3c0.3-0.1,0.5-0.1,0.8-0.2c-4.3-1.4-8-2.5-10.3-3.2
		c5,0.4,10,1.2,14.7,2.2c5.2-1.1,10.3-2.1,15.3-2.7c66.3-8.5,71.7,43.8,14.5,64.4c-7,2.5-13.9,4.7-20.7,6.5
		c4.4-16.5,7.8-30.5,8.9-37.5C240.3,54.1,230.6,43.1,216,38.3z"/>
	<path class="st0" d="M368.6,45c8-1.9,23.2-1.4,35.4,2.7c-0.3-0.2-0.6-0.4-1-0.6c-0.1,0-0.1-0.1-0.2-0.1
		C393.8,41.6,370.4,37.3,368.6,45z"/>
</g>
</svg>
