<?xml version="1.0" encoding="utf-8"?>
<!-- Generator: Adobe Illustrator 20.1.0, SVG Export Plug-In . SVG Version: 6.00 Build 0)  -->
<svg version="1.1" id="Слой_1" xmlns="http://www.w3.org/2000/svg" xmlns:xlink="http://www.w3.org/1999/xlink" x="0px" y="0px"
	 viewBox="0 0 56 56" style="enable-background:new 0 0 56 56;" xml:space="preserve">
<style type="text/css">
	.st0{fill:#FFFFFF;}
</style>
<g>
	<g>
		<path class="st0" d="M28,56.3c-15.4,0-28-12.6-28-28s12.6-28,28-28s28,12.6,28,28S43.4,56.3,28,56.3z M28,1.5
			c-14.8,0-26.8,12-26.8,26.8c0,14.8,12,26.8,26.8,26.8c14.8,0,26.8-12,26.8-26.8C54.8,13.5,42.8,1.5,28,1.5z"/>
	</g>
	<g>
		<rect x="19.1" y="27.4" class="st0" width="17.5" height="1.2"/>
	</g>
	<g>
		<rect x="19.1" y="21.5" class="st0" width="17.5" height="1.2"/>
	</g>
	<g>
		<rect x="19.1" y="33.2" class="st0" width="17.5" height="1.2"/>
	</g>
</g>
</svg>
