<?xml version="1.0" encoding="utf-8"?>
<!-- Generator: Adobe Illustrator 21.1.0, SVG Export Plug-In . SVG Version: 6.00 Build 0)  -->
<svg version="1.1" id="Слой_1" xmlns="http://www.w3.org/2000/svg" xmlns:xlink="http://www.w3.org/1999/xlink" x="0px" y="0px"
	 viewBox="0 0 424.4 216.4" style="enable-background:new 0 0 424.4 216.4;" xml:space="preserve" preserveAspectRatio="none">
<style type="text/css">
	.st0{fill:#FFFFFF;}
	.st1{fill:#E73A24;}
</style>
<g id="XMLID_770_">
	<path id="XMLID_771_" class="st0" d="M13.3,4.3l-3.1,12.9H7.3L9.8,6.7H5.4L2.9,17.1H0L3.1,4.3H13.3z"/>
	<path id="XMLID_773_" class="st0" d="M13.9,17.1L17,4.2h8.4l-0.6,2.4h-5.5l-0.6,2.6h4.9L23,11.5h-4.9l-0.7,3.2h5.9l-0.6,2.4H13.9z"
		/>
	<path id="XMLID_775_" class="st0" d="M32.3,4.1c0.8,0,1.5,0.1,2.1,0.3C35,4.5,35.5,4.8,36,5.1c0.4,0.3,0.8,0.7,1,1.2s0.4,1,0.4,1.5
		c0,0.9-0.2,1.7-0.5,2.4c-0.4,0.6-0.9,1.2-1.5,1.6c-0.6,0.4-1.4,0.7-2.2,0.9c-0.9,0.2-1.8,0.3-2.8,0.3h-0.7l-1,4.3h-2.9l3-12.7
		c0.7-0.1,1.3-0.2,1.9-0.3C31.2,4.1,31.7,4.1,32.3,4.1z M32,6.6c-0.2,0-0.4,0-0.5,0s-0.3,0-0.4,0l-0.9,3.8h0.7c0.5,0,1,0,1.4-0.1
		s0.8-0.2,1.1-0.4s0.5-0.4,0.7-0.7s0.3-0.6,0.3-1.1c0-0.6-0.2-1-0.6-1.2C33.3,6.7,32.8,6.6,32,6.6z"/>
	<path id="XMLID_778_" class="st0" d="M42.7,17.3c-0.7,0-1.5,0-2.3-0.1s-1.5-0.2-2.1-0.3l3-12.4c0.7-0.1,1.4-0.2,2.2-0.3
		c0.8,0,1.5-0.1,2.1-0.1c0.7,0,1.4,0.1,1.9,0.2c0.5,0.2,1,0.4,1.3,0.6c0.3,0.3,0.6,0.6,0.8,0.9c0.2,0.4,0.3,0.7,0.3,1.1
		c0,0.3,0,0.6-0.1,0.9c-0.1,0.3-0.2,0.6-0.3,0.9c-0.2,0.3-0.4,0.6-0.7,0.8c-0.3,0.3-0.7,0.5-1.1,0.7c0.6,0.2,1,0.6,1.2,1
		c0.3,0.4,0.4,0.9,0.4,1.4c0,0.6-0.1,1.2-0.4,1.7c-0.2,0.6-0.6,1-1.1,1.5c-0.5,0.4-1.2,0.8-2,1C44.9,17.2,43.8,17.3,42.7,17.3z
		 M42.4,11.5l-0.8,3.3c0.2,0,0.4,0.1,0.8,0.1c0.3,0,0.6,0,0.8,0c0.4,0,0.7,0,1.1-0.1c0.4-0.1,0.7-0.2,1-0.3s0.5-0.4,0.7-0.6
		c0.2-0.3,0.3-0.6,0.3-1c0-0.2,0-0.3-0.1-0.5s-0.2-0.3-0.3-0.5c-0.1-0.1-0.3-0.2-0.6-0.3c-0.2-0.1-0.5-0.1-0.9-0.1
		C44.4,11.5,42.4,11.5,42.4,11.5z M42.9,9.3h1.8c0.7,0,1.3-0.2,1.7-0.5C46.8,8.5,47,8.2,47,7.7c0-0.2-0.1-0.4-0.2-0.6
		c-0.1-0.2-0.2-0.3-0.4-0.4S46,6.5,45.8,6.5c-0.2,0-0.5-0.1-0.7-0.1c-0.3,0-0.5,0-0.8,0s-0.5,0-0.7,0.1L42.9,9.3z"/>
	<path id="XMLID_782_" class="st0" d="M54.3,4.3h2.9l-1,4.3c0.1,0,0.2,0,0.5,0c0.2,0,0.4,0,0.5,0c1,0,1.7,0.1,2.4,0.3
		c0.6,0.2,1.1,0.5,1.4,0.9c0.3,0.4,0.6,0.8,0.7,1.3c0.1,0.5,0.2,1,0.2,1.5c0,0.6-0.1,1.2-0.3,1.8S61,15.5,60.5,16
		c-0.5,0.5-1.2,0.8-2.1,1.1c-0.9,0.3-1.9,0.4-3.2,0.4c-0.7,0-1.3,0-2-0.1s-1.3-0.2-1.8-0.3L54.3,4.3z M54.6,14.8
		c0.2,0,0.3,0,0.5,0.1c0.2,0,0.4,0,0.6,0c0.6,0,1.1-0.1,1.5-0.2c0.4-0.1,0.7-0.3,0.9-0.5s0.4-0.5,0.5-0.7c0.1-0.3,0.1-0.5,0.1-0.8
		c0-0.2,0-0.4-0.1-0.6c-0.1-0.2-0.2-0.4-0.3-0.5c-0.2-0.2-0.4-0.3-0.7-0.4c-0.3-0.1-0.6-0.1-1-0.1c-0.1,0-0.2,0-0.4,0s-0.5,0-0.7,0
		L54.6,14.8z M65.3,17.1h-2.7l3.1-12.9h2.8L65.3,17.1z"/>
	<path id="XMLID_786_" class="st0" d="M69.1,17.1l3.1-12.9H75l-1.8,7.6c0.6-0.7,1.2-1.4,1.8-2c0.6-0.7,1.2-1.4,1.9-2
		c0.6-0.7,1.2-1.3,1.8-1.9c0.6-0.6,1.2-1.1,1.7-1.6h2.4l-3.1,12.9h-2.9l2-8.4c-0.7,0.7-1.4,1.5-2,2.2s-1.3,1.4-1.9,2.1
		s-1.2,1.4-1.8,2.1c-0.6,0.7-1.2,1.4-1.8,2.1h-2.2V17.1z M77.8,3.1c-0.4,0-0.7-0.1-1.1-0.2c-0.3-0.1-0.6-0.3-0.9-0.5
		s-0.4-0.5-0.6-0.8C75.1,1.3,75,0.9,75,0.5L77,0c0,0.5,0.1,0.8,0.3,1c0.2,0.2,0.5,0.3,0.8,0.3S78.7,1.2,79,1s0.5-0.5,0.7-1l1.7,0.6
		c-0.3,0.9-0.8,1.5-1.4,1.9S78.7,3.1,77.8,3.1z"/>
	<path id="XMLID_789_" class="st0" d="M93,17.3c-0.7,0-1.5,0-2.3-0.1s-1.5-0.2-2.1-0.3l3-12.4c0.7-0.1,1.4-0.2,2.2-0.3
		c0.8,0,1.5-0.1,2.1-0.1c0.7,0,1.4,0.1,1.9,0.2c0.5,0.2,1,0.4,1.3,0.6c0.3,0.3,0.6,0.6,0.8,0.9c0.2,0.4,0.3,0.7,0.3,1.1
		c0,0.3,0,0.6-0.1,0.9c-0.1,0.3-0.2,0.6-0.3,0.9c-0.2,0.3-0.4,0.6-0.7,0.8c-0.3,0.3-0.7,0.5-1.1,0.7c0.6,0.2,1,0.6,1.2,1
		c0.3,0.4,0.4,0.9,0.4,1.4c0,0.6-0.1,1.2-0.4,1.7c-0.2,0.6-0.6,1-1.1,1.5c-0.5,0.4-1.2,0.8-2,1C95.2,17.2,94.2,17.3,93,17.3z
		 M92.8,11.5L92,14.9c0.2,0,0.4,0.1,0.8,0.1c0.3,0,0.6,0,0.8,0c0.4,0,0.7,0,1.1-0.1s0.7-0.2,1-0.3s0.5-0.4,0.7-0.6
		c0.2-0.3,0.3-0.6,0.3-1c0-0.2,0-0.3-0.1-0.5s-0.2-0.3-0.3-0.5c-0.1-0.1-0.3-0.2-0.6-0.3c-0.2-0.1-0.5-0.1-0.9-0.1L92.8,11.5
		L92.8,11.5z M93.3,9.3h1.8c0.7,0,1.3-0.2,1.7-0.5c0.4-0.3,0.5-0.7,0.5-1.2c0-0.2-0.1-0.4-0.2-0.6s-0.2-0.3-0.4-0.4
		c-0.2-0.1-0.4-0.2-0.6-0.2s-0.5-0.1-0.7-0.1c-0.3,0-0.5,0-0.8,0s-0.5,0-0.7,0.1L93.3,9.3z"/>
	<path id="XMLID_793_" class="st0" d="M108.8,14.9c0.4,0,0.7-0.1,1.1-0.2c0.3-0.1,0.7-0.4,1-0.7l0.3-0.4c-0.3-0.7-0.5-1.5-0.8-2.3
		c-0.2-0.8-0.5-1.6-0.7-2.4s-0.4-1.6-0.6-2.4s-0.3-1.5-0.4-2.2h3.2c0.1,1,0.3,2.1,0.5,3.2s0.4,2.3,0.7,3.4c0.5-0.9,1.1-1.8,1.6-2.9
		c0.6-1.1,1.2-2.3,1.9-3.7h3.1c-1.1,2-2.2,3.9-3.3,5.7c-1.1,1.7-2.1,3.3-3,4.6c-0.6,0.9-1.3,1.6-2.1,2.1c-0.8,0.5-1.7,0.8-2.8,0.8
		c-0.7,0-1.5-0.2-2.2-0.5l0.9-2.3C107.9,14.8,108.3,14.9,108.8,14.9z"/>
	<path id="XMLID_795_" class="st0" d="M126.8,17.1c-0.2-0.4-0.4-0.9-0.6-1.4s-0.5-1-0.8-1.4c-0.3-0.5-0.6-0.9-0.9-1.4
		c-0.3-0.4-0.7-0.8-1-1.2l-1.3,5.4h-2.9l3.1-12.9h2.9l-1.1,4.6c1-0.8,1.9-1.6,2.7-2.4c0.9-0.8,1.7-1.5,2.4-2.3h3.4
		c-1.1,1.1-2.2,2.1-3.4,3.1c-1.1,1-2.3,2-3.5,3c0.8,0.9,1.5,1.8,2.2,2.9s1.4,2.4,1.9,3.8h-3.1V17.1z"/>
	<path id="XMLID_797_" class="st0" d="M138.9,4.1c0.8,0,1.5,0.1,2.1,0.3c0.6,0.2,1.2,0.4,1.6,0.7c0.4,0.3,0.8,0.7,1,1.2
		s0.4,1,0.4,1.5c0,0.9-0.2,1.7-0.5,2.4c-0.4,0.6-0.9,1.2-1.5,1.6c-0.6,0.4-1.4,0.7-2.2,0.9c-0.9,0.2-1.8,0.3-2.8,0.3h-0.7l-1,4.3
		h-2.9l3-12.7c0.7-0.1,1.3-0.2,1.9-0.3C137.8,4.1,138.4,4.1,138.9,4.1z M138.7,6.6c-0.2,0-0.4,0-0.5,0s-0.3,0-0.4,0l-0.9,3.8h0.7
		c0.5,0,1,0,1.4-0.1s0.8-0.2,1.1-0.4s0.5-0.4,0.7-0.7s0.3-0.6,0.3-1.1c0-0.6-0.2-1-0.6-1.2C140,6.7,139.4,6.6,138.7,6.6z"/>
	<path id="XMLID_800_" class="st0" d="M152.1,17.1c0-0.5-0.1-1-0.1-1.4c0-0.5-0.1-0.9-0.1-1.4h-4.8c-0.2,0.5-0.5,0.9-0.8,1.4
		s-0.5,0.9-0.8,1.4h-3c0.8-1.4,1.6-2.7,2.3-3.8c0.7-1.2,1.4-2.3,2-3.3s1.3-2,1.9-3c0.6-0.9,1.3-1.8,1.9-2.7h2.6
		c0.2,0.9,0.4,1.9,0.6,3c0.2,1.1,0.3,2.2,0.5,3.3s0.3,2.3,0.4,3.4s0.3,2.2,0.4,3.2h-3V17.1z M151.2,7.1c-0.5,0.8-1,1.7-1.5,2.5
		s-1,1.7-1.5,2.5h3.5c-0.1-0.8-0.1-1.6-0.2-2.4C151.5,8.8,151.4,8,151.2,7.1z"/>
	<path id="XMLID_803_" class="st0" d="M157.6,17.1l3.1-12.9h2.9l-1.8,7.6c0.6-0.7,1.2-1.4,1.8-2c0.6-0.7,1.2-1.4,1.9-2
		c0.6-0.7,1.2-1.3,1.8-1.9s1.2-1.1,1.7-1.6h2.4l-3.1,12.9h-2.9l2-8.4c-0.7,0.7-1.4,1.5-2,2.2s-1.3,1.4-1.9,2.1
		c-0.6,0.7-1.2,1.4-1.8,2.1c-0.6,0.7-1.2,1.4-1.8,2.1h-2.3V17.1z"/>
	<path id="XMLID_805_" class="st0" d="M182.5,4.3h2.9l-3.1,12.9h-2.9l1.3-5.5h-4.6l-1.3,5.5H172l3-12.9h2.9l-1.2,4.9h4.6L182.5,4.3z
		"/>
	<path id="XMLID_807_" class="st0" d="M186,17.1l3-12.8h8.4l-0.6,2.4h-5.5l-0.6,2.6h4.9l-0.6,2.3h-4.9l-0.7,3.2h5.9l-0.6,2.4H186
		V17.1z"/>
</g>
<g id="XMLID_744_">
	<path id="XMLID_745_" class="st0" d="M156.9,25.2l-0.8,3.6h-9.2l-6.5,26.9h-4.3l6.5-26.9h-9.2l0.8-3.6H156.9z"/>
	<path id="XMLID_747_" class="st0" d="M170.1,24.9c3.5,0,6.2,0.7,8,2s2.7,3.3,2.7,5.9c0,2-0.4,3.7-1.1,5.2c-0.7,1.5-1.8,2.6-3.2,3.6
		c-1.4,0.9-3,1.6-5,2.1c-1.9,0.5-4.1,0.7-6.5,0.7h-3l-2.7,11.3H155l7.2-30.1c1.2-0.3,2.5-0.5,3.9-0.6
		C167.6,24.9,168.9,24.9,170.1,24.9z M169.6,28.5c-2.1,0-3.3,0.1-3.8,0.2l-2.9,12.1h2.8c1.2,0,2.5-0.1,3.8-0.3s2.4-0.6,3.5-1.2
		c1-0.6,1.9-1.3,2.5-2.3c0.7-1,1-2.2,1-3.8c0-1.7-0.6-2.9-1.8-3.6C173.3,28.8,171.7,28.5,169.6,28.5z"/>
	<path id="XMLID_750_" class="st0" d="M181.9,55.6l7.3-30.5h18l-0.8,3.6h-13.8l-2.2,9.2h12.2l-0.8,3.5h-12.2L187,52.1h14.8l-0.8,3.6
		L181.9,55.6L181.9,55.6z"/>
	<path id="XMLID_752_" class="st0" d="M229.9,55.6h-4.3l3.4-14.2h-14.1l-3.4,14.2h-4.3l7.3-30.5h4.3l-3.1,12.8h14.1l3.1-12.8h4.3
		L229.9,55.6z"/>
	<path id="XMLID_754_" class="st0" d="M239.3,52.1c1.7-1.5,3.1-3.1,4.3-4.9c1.2-1.8,2.2-3.8,3.1-5.9c0.9-2.2,1.7-4.6,2.4-7.2
		s1.3-5.6,2-8.8h16.8l-6.4,26.9h3.8l-2.8,11.7h-4l2-8.1h-21.3l-1.9,8.1h-4l2.8-11.7L239.3,52.1L239.3,52.1z M254.5,28.8
		c-0.4,1.8-0.9,3.8-1.5,6s-1.3,4.3-2.1,6.4c-0.8,2.1-1.7,4.1-2.8,6s-2.3,3.5-3.6,4.8h12.8l5.6-23.3L254.5,28.8L254.5,28.8z"/>
	<path id="XMLID_757_" class="st0" d="M282.7,56.3c-1.9,0-3.6-0.3-5-0.8c-1.5-0.6-2.7-1.3-3.6-2.4c-1-1-1.7-2.3-2.2-3.7
		c-0.5-1.5-0.7-3.1-0.7-4.9c0-2.6,0.4-5.2,1.3-7.6c0.8-2.4,2-4.5,3.6-6.4c1.5-1.8,3.4-3.3,5.6-4.4s4.6-1.6,7.3-1.6
		c2.3,0,4.1,0.2,5.5,0.7s2.3,0.9,2.9,1.3l-1.8,3.5c-0.7-0.4-1.6-0.9-2.7-1.3c-1.2-0.4-2.5-0.6-4.1-0.6c-2,0-3.8,0.5-5.5,1.4
		c-1.6,1-3,2.2-4.1,3.7c-1.1,1.5-2,3.2-2.6,5.1c-0.6,1.9-0.9,3.8-0.9,5.6c0,5.7,2.5,8.6,7.4,8.6c1.1,0,2-0.1,2.8-0.2
		c0.8-0.1,1.6-0.3,2.2-0.5s1.2-0.4,1.7-0.6c0.5-0.2,0.9-0.4,1.3-0.6l0.5,3.7c-0.4,0.2-0.8,0.4-1.4,0.7c-0.6,0.2-1.2,0.5-2,0.7
		s-1.6,0.4-2.6,0.5C284.8,56.2,283.8,56.3,282.7,56.3z"/>
	<path id="XMLID_759_" class="st0" d="M296.5,55.6l7.3-30.5h18l-0.8,3.6h-13.8l-2.2,9.2h12.2l-0.8,3.5h-12.2l-2.6,10.7h14.8
		l-0.8,3.6L296.5,55.6L296.5,55.6z"/>
	<path id="XMLID_761_" class="st0" d="M349.1,25.2l-0.8,3.6H339l-6.5,26.9h-4.3l6.5-26.9h-9.2l0.8-3.6H349.1z"/>
	<path id="XMLID_763_" class="st0" d="M375.2,25.2l-0.8,3.6h-9.2l-6.5,26.9h-4.3l6.5-26.9h-9.2l0.8-3.6H375.2z"/>
	<path id="XMLID_765_" class="st0" d="M373.3,55.6l7.3-30.5h18l-0.8,3.6H384l-2.2,9.2H394l-0.8,3.5H381l-2.6,10.7h14.8l-0.8,3.6
		L373.3,55.6L373.3,55.6z"/>
	<path id="XMLID_767_" class="st0" d="M413.7,24.9c3.5,0,6.2,0.7,8,2s2.7,3.3,2.7,5.9c0,2-0.4,3.7-1.1,5.2s-1.8,2.6-3.2,3.6
		c-1.4,0.9-3,1.6-5,2.1c-1.9,0.5-4.1,0.7-6.5,0.7h-3l-2.7,11.3h-4.3l7.2-30.1c1.2-0.3,2.5-0.5,3.9-0.6
		C411.1,24.9,412.4,24.9,413.7,24.9z M413.1,28.5c-2.1,0-3.3,0.1-3.8,0.2l-2.9,12.1h2.8c1.2,0,2.5-0.1,3.8-0.3s2.4-0.6,3.5-1.2
		c1-0.6,1.9-1.3,2.5-2.3c0.7-1,1-2.2,1-3.8c0-1.7-0.6-2.9-1.8-3.6C416.9,28.8,415.3,28.5,413.1,28.5z"/>
</g>
<g id="XMLID_726_">
	<path id="XMLID_727_" class="st0" d="M83.4,68.2h4.1l-0.8,3.5c1.5,0.1,3,0.3,4.3,0.8s2.5,1.1,3.5,1.9s1.8,1.9,2.4,3.1
		s0.9,2.6,0.9,4.1c0,2.5-0.5,4.6-1.4,6.6c-1,1.9-2.2,3.5-3.8,4.8c-1.6,1.3-3.4,2.3-5.5,3s-4.2,1-6.4,1.1l-0.9,3.7h-4.1l0.9-3.7
		c-1.5-0.1-3-0.3-4.3-0.8s-2.5-1.1-3.5-1.9s-1.8-1.8-2.4-3s-0.9-2.6-0.9-4.1c0-2.5,0.5-4.6,1.4-6.6c1-1.9,2.2-3.5,3.8-4.8
		c1.6-1.3,3.4-2.3,5.5-3s4.2-1,6.4-1.1L83.4,68.2z M81.8,75.2c-1.6,0.1-3.2,0.4-4.6,0.9c-1.5,0.6-2.7,1.3-3.8,2.3
		c-1.1,1-1.9,2.2-2.6,3.5c-0.6,1.4-0.9,2.9-0.9,4.6c0,1.1,0.2,2.1,0.6,3s0.9,1.6,1.6,2.1c0.7,0.6,1.5,1,2.4,1.3s1.9,0.5,3.1,0.5
		L81.8,75.2z M81.5,93.4c1.6-0.1,3.2-0.4,4.6-0.9c1.5-0.6,2.7-1.3,3.8-2.3c1.1-1,1.9-2.2,2.6-3.5c0.6-1.4,0.9-2.9,0.9-4.6
		c0-1.2-0.2-2.2-0.6-3s-0.9-1.5-1.6-2.1s-1.5-1-2.4-1.3s-2-0.4-3-0.5L81.5,93.4z"/>
	<path id="XMLID_731_" class="st0" d="M100.6,100.6l7.3-30.5h4.2L106.6,93c1.2-1.5,2.7-3.3,4.5-5.3c1.7-2,3.6-4.1,5.5-6.2
		s3.9-4.2,5.8-6.1c1.9-2,3.7-3.7,5.3-5.1h3.6l-7.3,30.5h-4.2l5.7-23.7c-1.5,1.4-3.2,3.2-5.1,5.2s-3.8,4.1-5.8,6.3
		c-2,2.2-3.8,4.3-5.6,6.5c-1.8,2.1-3.4,4-4.6,5.7h-3.8V100.6z"/>
	<path id="XMLID_733_" class="st0" d="M159.4,70.2l-0.8,3.6h-9.2l-6.5,26.9h-4.3l6.5-26.9H136l0.8-3.6H159.4z"/>
	<path id="XMLID_735_" class="st0" d="M180.2,100.6h-4.3l3.4-14.2h-14.1l-3.4,14.2h-4.3l7.3-30.5h4.3L166,82.9h14.1l3.1-12.8h4.3
		L180.2,100.6z"/>
	<path id="XMLID_737_" class="st0" d="M188.4,100.6l7.3-30.5h18l-0.8,3.6h-13.8l-2.2,9.2h12.2l-0.8,3.5h-12.2l-2.6,10.7h14.8
		l-0.8,3.6L188.4,100.6L188.4,100.6z"/>
	<path id="XMLID_739_" class="st0" d="M227.2,101.3c-1.9,0-3.6-0.3-5-0.8c-1.5-0.6-2.7-1.3-3.6-2.4c-1-1-1.7-2.3-2.2-3.7
		c-0.5-1.5-0.7-3.1-0.7-4.9c0-2.6,0.4-5.2,1.3-7.6c0.8-2.4,2-4.5,3.6-6.4c1.5-1.8,3.4-3.3,5.6-4.4c2.2-1.1,4.6-1.6,7.3-1.6
		c2.3,0,4.1,0.2,5.5,0.7s2.3,0.9,2.9,1.3l-1.8,3.5c-0.7-0.4-1.6-0.9-2.7-1.3c-1.2-0.4-2.5-0.6-4.1-0.6c-2,0-3.8,0.5-5.5,1.4
		c-1.6,1-3,2.2-4.1,3.7s-2,3.2-2.6,5.1s-0.9,3.8-0.9,5.6c0,5.7,2.5,8.6,7.4,8.6c1.1,0,2-0.1,2.8-0.2s1.6-0.3,2.2-0.5
		c0.6-0.2,1.2-0.4,1.7-0.6s0.9-0.4,1.3-0.6l0.5,3.7c-0.4,0.2-0.8,0.4-1.4,0.7c-0.6,0.2-1.2,0.5-2,0.7s-1.6,0.4-2.6,0.5
		C229.3,101.2,228.3,101.3,227.2,101.3z"/>
	<path id="XMLID_741_" class="st0" d="M247.7,92.8l-4.3,7.8h-4.7c3.3-5.9,6.5-11.4,9.6-16.4s6.2-9.7,9.3-14.1h4.2
		c0.4,2.2,0.8,4.4,1.2,6.7c0.4,2.2,0.7,4.6,1.1,7.1s0.7,5.1,1,7.8c0.3,2.8,0.7,5.7,1,8.9h-4.3c-0.1-1.3-0.3-2.6-0.4-4
		c-0.1-1.3-0.2-2.6-0.4-3.8H247.7z M260.5,89.4c-0.2-2.4-0.5-4.7-0.8-7.1c-0.3-2.3-0.7-4.8-1.1-7.3c-1,1.5-2.3,3.4-3.8,5.8
		c-1.5,2.4-3.3,5.2-5.2,8.6H260.5z"/>
</g>
<g>
	<g id="XMLID_723_">
		<path id="XMLID_724_" class="st1" d="M114.9,130.6c-0.7,0.3-1.4,0.6-2.2,0.8c-0.8,0.2-1.8,0.3-2.9,0.3c-1,0-1.9-0.2-2.7-0.5
			c-0.8-0.3-1.5-0.8-2.1-1.4c-0.6-0.6-1-1.3-1.4-2.2c-0.3-0.9-0.5-1.9-0.5-2.9c0-1.2,0.2-2.5,0.7-3.7c0.4-1.2,1.1-2.3,1.9-3.3
			c0.9-1,1.9-1.8,3.1-2.4s2.7-0.9,4.3-0.9c0.8,0,1.5,0.1,2.3,0.3c0.7,0.2,1.5,0.5,2.3,0.9l-1.3,2.9c-0.7-0.4-1.3-0.6-1.8-0.7
			s-1.1-0.2-1.7-0.2c-0.9,0-1.7,0.2-2.5,0.6c-0.7,0.4-1.4,0.9-1.9,1.5s-0.9,1.4-1.2,2.2c-0.3,0.8-0.4,1.7-0.4,2.6
			c0,1.4,0.3,2.4,0.9,3.1c0.6,0.6,1.5,1,2.7,1c0.8,0,1.5-0.1,2.1-0.2c0.6-0.2,1.3-0.4,1.8-0.6L114.9,130.6z"/>
	</g>
	<g id="XMLID_713_">
		<path id="XMLID_714_" class="st1" d="M162.3,174.5l-1.2,5.2h-35.3c0.7-4.6,2.2-8.5,4.3-11.9c2.2-3.3,4.6-6.3,7.4-8.9
			c2.8-2.6,5.7-4.9,8.8-7s5.9-4.3,8.4-6.4c2.6-2.1,4.7-4.4,6.3-6.8c1.7-2.4,2.5-5.3,2.5-8.6c0-3.4-0.9-5.9-2.8-7.4
			c-1.9-1.5-4.1-2.3-6.7-2.3c-2.6,0-5.2,0.5-7.8,1.6c-2.7,1.1-5,2.4-6.9,4.1l-2-4.9c2.3-1.9,5.1-3.4,8.3-4.5s6.3-1.6,9.4-1.6
			c2,0,3.9,0.3,5.7,0.8s3.4,1.4,4.7,2.6c1.4,1.2,2.5,2.6,3.3,4.5c0.8,1.8,1.2,4,1.2,6.5c0,2.9-0.5,5.5-1.6,7.8s-2.4,4.5-4.1,6.5
			c-1.7,2-3.6,3.9-5.7,5.6c-2.1,1.7-4.3,3.4-6.5,5c-2.7,2-5.1,3.8-7.3,5.5s-4.1,3.3-5.7,4.9c-1.6,1.6-2.9,3.2-4,4.7
			c-1,1.6-1.8,3.3-2.2,5H162.3z"/>
		<path id="XMLID_716_" class="st1" d="M196.6,115c5.1,0.1,8.7,1.8,10.9,5.3s3.2,8.1,3.2,13.8c0,5.4-0.7,10.8-2.1,16.4
			c-1.4,5.6-3.3,10.6-5.8,15.1s-5.5,8.2-9,11.1c-3.5,2.9-7.4,4.3-11.6,4.3c-2.6,0-4.7-0.5-6.6-1.4c-1.8-0.9-3.3-2.2-4.4-3.9
			c-1.1-1.7-1.9-3.7-2.5-6c-0.5-2.3-0.8-4.9-0.8-7.8c0-3.6,0.3-7.2,0.9-11c0.6-3.7,1.5-7.3,2.6-10.8c1.2-3.5,2.6-6.7,4.3-9.8
			c1.7-3.1,3.6-5.7,5.7-8c2.1-2.3,4.4-4.1,6.9-5.4C191,115.6,193.7,115,196.6,115z M182.7,175.6c3,0,5.8-1.2,8.4-3.6
			c2.6-2.4,5-5.5,6.9-9.4c2-3.9,3.5-8.2,4.7-13.1c1.2-4.9,1.7-9.8,1.7-14.7c0-5-0.7-8.7-2.1-11c-1.4-2.3-3.5-3.4-6.3-3.4
			c-3,0-5.8,1.2-8.4,3.6c-2.6,2.4-5,5.5-6.9,9.4c-2,3.9-3.5,8.2-4.7,13.1c-1.2,4.9-1.7,9.8-1.7,14.7c0,5.1,0.7,8.7,2.1,11
			C177.8,174.4,179.9,175.6,182.7,175.6z"/>
		<path id="XMLID_719_" class="st1" d="M233,125.6c-2,1.9-4.4,3.7-7.3,5.3c-2.9,1.6-5.9,2.9-9,3.8l-1.1-5.3
			c3.5-1.3,7.1-2.9,10.6-4.9s7-4.7,10.5-8.1h4.4L226,179.6h-5.8L233,125.6z"/>
		<path id="XMLID_721_" class="st1" d="M272.9,174.5l-1.2,5.2h-35.3c0.7-4.6,2.2-8.5,4.3-11.9c2.2-3.3,4.6-6.3,7.4-8.9
			c2.8-2.6,5.7-4.9,8.8-7c3.1-2.1,5.9-4.3,8.4-6.4c2.6-2.1,4.7-4.4,6.3-6.8c1.7-2.4,2.5-5.3,2.5-8.6c0-3.4-0.9-5.9-2.8-7.4
			s-4.1-2.3-6.7-2.3s-5.2,0.5-7.8,1.6c-2.7,1.1-5,2.4-6.9,4.1l-2-4.9c2.3-1.9,5.1-3.4,8.3-4.5c3.2-1.1,6.3-1.6,9.4-1.6
			c2,0,3.9,0.3,5.7,0.8c1.8,0.5,3.4,1.4,4.7,2.6c1.4,1.2,2.5,2.6,3.3,4.5c0.8,1.8,1.2,4,1.2,6.5c0,2.9-0.5,5.5-1.6,7.8
			s-2.4,4.5-4.1,6.5s-3.6,3.9-5.7,5.6c-2.1,1.7-4.3,3.4-6.5,5c-2.7,2-5.1,3.8-7.3,5.5s-4.1,3.3-5.7,4.9c-1.6,1.6-2.9,3.2-4,4.7
			c-1,1.6-1.8,3.3-2.2,5H272.9z"/>
	</g>
	<g id="XMLID_701_">
		<path id="XMLID_702_" class="st1" d="M293.4,180.2h-4.2l4.5-19h11.8l-0.9,3.6H297L293.4,180.2z"/>
		<path id="XMLID_704_" class="st1" d="M314.1,180.6c-1.1,0-2.1-0.2-3.1-0.5c-0.9-0.4-1.7-0.9-2.4-1.6c-0.7-0.7-1.2-1.5-1.6-2.5
			s-0.6-2.1-0.6-3.3c0-1.4,0.2-2.8,0.7-4.2s1.2-2.7,2.1-3.8s2-2,3.4-2.7c1.3-0.7,2.8-1.1,4.5-1.1c1.1,0,2.1,0.2,3.1,0.5
			c0.9,0.4,1.7,0.9,2.4,1.6c0.7,0.7,1.2,1.5,1.6,2.5s0.6,2.1,0.6,3.3c0,1.4-0.2,2.8-0.7,4.3c-0.5,1.4-1.2,2.7-2.1,3.8s-2,2-3.4,2.7
			C317.3,180.2,315.8,180.6,314.1,180.6z M316.8,164.5c-0.8,0-1.6,0.2-2.3,0.7c-0.7,0.4-1.3,1-1.9,1.8c-0.5,0.7-1,1.6-1.3,2.5
			s-0.5,1.9-0.5,2.9c0,1.4,0.3,2.5,0.9,3.3s1.5,1.3,2.8,1.3c0.8,0,1.6-0.2,2.3-0.7c0.7-0.4,1.3-1,1.9-1.8c0.5-0.7,1-1.6,1.3-2.5
			s0.5-1.9,0.5-2.9c0-1.4-0.3-2.5-0.9-3.3C319,164.9,318.1,164.5,316.8,164.5z"/>
		<path id="XMLID_707_" class="st1" d="M327,176.6h2.5c0.8-0.8,1.5-1.7,2.2-2.8c0.6-1.1,1.2-2.2,1.6-3.4c0.5-1.2,0.9-2.4,1.2-3.6
			c0.3-1.2,0.6-2.3,0.9-3.4l0.5-2.2h12.4l-3.7,15.3h3.3l-2.1,8.7h-4.1l1.2-5.1h-12.6l-1.2,5.1H325L327,176.6z M339,164.8
			c-0.3,1.2-0.6,2.4-0.9,3.4s-0.6,2-0.9,3c-0.3,0.9-0.7,1.8-1.2,2.7c-0.4,0.9-1,1.8-1.7,2.7h6.1l2.8-11.7L339,164.8L339,164.8z"/>
		<path id="XMLID_710_" class="st1" d="M364.9,180.2c0-0.7-0.1-1.4-0.1-2.1c0-0.7-0.1-1.4-0.2-2h-7.1c-0.4,0.7-0.7,1.4-1.1,2
			c-0.4,0.7-0.8,1.4-1.1,2.1h-4.5c1.2-2,2.3-3.9,3.3-5.7c1-1.7,2-3.4,3-4.9s1.9-3,2.8-4.4s1.8-2.7,2.8-4h3.8
			c0.3,1.3,0.6,2.8,0.8,4.4c0.3,1.6,0.5,3.2,0.7,4.9s0.4,3.3,0.6,5s0.4,3.2,0.5,4.7H364.9z M363.6,165.4c-0.8,1.2-1.5,2.4-2.3,3.6
			c-0.7,1.2-1.5,2.4-2.1,3.7h5.1c-0.1-1.1-0.2-2.3-0.3-3.6C364,167.9,363.8,166.7,363.6,165.4z"/>
	</g>
</g>
<g id="XMLID_188_">
	<path id="XMLID_677_" class="st0" d="M176.7,211.9l4-16.6h3l-2.7,11.1c0.7-0.8,1.5-1.8,2.4-2.8s1.8-2,2.7-3s1.9-2,2.8-2.9
		c0.9-0.9,1.8-1.8,2.6-2.5h2.5l-4,16.6h-3l2.9-11.9c-0.9,0.9-1.8,1.8-2.7,2.8s-1.9,2-2.8,3.1c-0.9,1-1.8,2.1-2.7,3.1s-1.7,2-2.4,2.9
		L176.7,211.9L176.7,211.9z"/>
	<path id="XMLID_679_" class="st0" d="M226.8,195.3l-4,16.6h-3l3.4-14.1h-6.6l-3.4,14.1h-3l4-16.6H226.8z"/>
	<path id="XMLID_681_" class="st0" d="M239.3,212.3c-0.9,0-1.8-0.1-2.6-0.4c-0.8-0.3-1.4-0.7-2-1.3s-1-1.3-1.3-2.1s-0.5-1.8-0.5-2.9
		c0-1.3,0.2-2.6,0.6-3.8c0.4-1.3,1-2.4,1.8-3.4s1.8-1.8,3-2.5c1.2-0.6,2.5-0.9,4.1-0.9c0.9,0,1.8,0.1,2.6,0.4c0.8,0.3,1.5,0.7,2,1.3
		c0.6,0.6,1,1.3,1.3,2.1s0.5,1.8,0.5,2.9c0,1.3-0.2,2.6-0.6,3.8c-0.4,1.3-1,2.4-1.8,3.4s-1.8,1.8-3,2.5
		C242.2,212,240.8,212.3,239.3,212.3z M242.2,197.5c-0.9,0-1.7,0.2-2.5,0.7c-0.7,0.5-1.4,1.1-1.9,1.8s-0.9,1.6-1.2,2.5
		s-0.4,1.9-0.4,2.8c0,1.3,0.3,2.4,0.8,3.1c0.6,0.8,1.5,1.2,2.7,1.2c0.9,0,1.7-0.2,2.5-0.7s1.4-1.1,1.9-1.8s0.9-1.6,1.2-2.5
		s0.4-1.9,0.4-2.8c0-1.3-0.3-2.4-0.9-3.1C244.3,197.9,243.4,197.5,242.2,197.5z"/>
	<path id="XMLID_684_" class="st0" d="M278.5,211.2c-0.5,0.3-1.2,0.5-2,0.7s-1.8,0.3-3,0.3c-1,0-1.9-0.2-2.7-0.5
		c-0.8-0.3-1.5-0.8-2-1.4c-0.6-0.6-1-1.3-1.3-2.1s-0.4-1.8-0.4-2.8c0-1.3,0.2-2.7,0.7-3.9c0.4-1.3,1.1-2.4,1.9-3.4s1.9-1.8,3.1-2.4
		c1.2-0.6,2.6-0.9,4.1-0.9c1,0,1.9,0.1,2.6,0.3s1.4,0.5,2,0.8l-1.2,2.4c-0.5-0.3-1.1-0.5-1.6-0.7c-0.6-0.2-1.2-0.3-2-0.3
		c-1,0-1.9,0.2-2.7,0.7c-0.8,0.4-1.5,1-2.1,1.8c-0.6,0.7-1,1.6-1.3,2.5s-0.4,1.9-0.4,2.8c0,1.5,0.3,2.6,1,3.3
		c0.6,0.7,1.6,1.1,2.8,1.1c1,0,1.8-0.1,2.4-0.3c0.7-0.2,1.2-0.4,1.7-0.7L278.5,211.2z"/>
	<path id="XMLID_686_" class="st0" d="M285.8,211.9l4-16.6h10.3l-0.6,2.5h-7.3l-1,4.2h6.5l-0.6,2.5h-6.5l-1.2,4.9h7.9l-0.6,2.5
		L285.8,211.9L285.8,211.9z"/>
	<path id="XMLID_688_" class="st0" d="M304.8,211.9l4-16.6h3l-2.7,11.1c0.7-0.8,1.5-1.8,2.4-2.8s1.8-2,2.7-3c0.9-1,1.9-2,2.8-2.9
		s1.8-1.8,2.6-2.5h2.5l-4,16.6h-3L318,200c-0.9,0.9-1.8,1.8-2.7,2.8c-0.9,1-1.9,2-2.8,3.1c-0.9,1-1.8,2.1-2.7,3.1
		c-0.9,1-1.7,2-2.4,2.9L304.8,211.9L304.8,211.9z M315.9,193.8c-1,0-1.7-0.3-2.4-0.8c-0.6-0.5-0.9-1.3-1-2.3l2.1-0.5
		c0,0.6,0.2,1,0.4,1.3c0.2,0.3,0.6,0.4,1.2,0.4c0.9,0,1.7-0.6,2.2-1.7l1.9,0.7c-0.4,1-0.9,1.8-1.7,2.3
		C317.8,193.5,316.9,193.8,315.9,193.8z"/>
	<path id="XMLID_691_" class="st0" d="M337.1,209.4h1.9c0.9-0.8,1.7-1.8,2.3-2.8c0.6-1.1,1.2-2.2,1.6-3.4c0.5-1.2,0.8-2.5,1.2-3.8
		c0.3-1.3,0.6-2.7,0.9-4h10l-3.4,14.1h2.5l-1.7,7h-2.9l1.1-4.4h-11.4l-1.1,4.4h-2.9L337.1,209.4z M347.3,197.9
		c-0.2,1-0.5,2.1-0.8,3.1s-0.6,2.1-1,3c-0.4,1-0.8,1.9-1.3,2.8c-0.5,0.9-1.1,1.7-1.7,2.5h6.1l2.8-11.5L347.3,197.9L347.3,197.9z"/>
	<path id="XMLID_694_" class="st0" d="M360.7,211.9l4-16.6H375l-0.6,2.5h-7.3l-1,4.2h6.5l-0.6,2.5h-6.5l-1.2,4.9h7.9l-0.6,2.5
		L360.7,211.9L360.7,211.9z"/>
	<path id="XMLID_696_" class="st0" d="M393.6,195.3h3l-4,16.6h-3l1.8-7.4h-6.8l-1.8,7.4h-3l4-16.6h3l-1.6,6.7h6.8L393.6,195.3z"/>
	<path id="XMLID_698_" class="st0" d="M405.7,195.3h3l-1.4,5.8c0.2,0,0.5-0.1,0.8-0.1s0.6,0,0.8,0c1.1,0,2.1,0.1,2.8,0.3
		c0.8,0.2,1.4,0.6,1.8,1c0.5,0.4,0.8,0.9,1,1.5s0.3,1.2,0.3,1.9c0,0.9-0.2,1.8-0.5,2.6c-0.4,0.8-0.9,1.4-1.6,2s-1.6,1-2.6,1.3
		c-1.1,0.3-2.3,0.5-3.7,0.5c-0.8,0-1.6,0-2.4-0.1c-0.9-0.1-1.6-0.2-2.3-0.4L405.7,195.3z M405.3,209.5c0.2,0,0.4,0.1,0.7,0.1
		c0.3,0,0.6,0,1,0c1.5,0,2.7-0.3,3.5-0.9c0.8-0.6,1.3-1.5,1.3-2.7c0-0.8-0.3-1.3-0.8-1.8c-0.5-0.4-1.4-0.6-2.5-0.6c-0.3,0-0.7,0-1,0
		s-0.6,0-0.8,0.1L405.3,209.5z"/>
</g>
</svg>
