<?xml version="1.0" encoding="utf-8"?>
<!-- Generator: Adobe Illustrator 21.1.0, SVG Export Plug-In . SVG Version: 6.00 Build 0)  -->
<svg version="1.1" id="Слой_1" xmlns="http://www.w3.org/2000/svg" xmlns:xlink="http://www.w3.org/1999/xlink" x="0px" y="0px"
	 viewBox="0 0 500.6 278.1" style="enable-background:new 0 0 500.6 278.1;" xml:space="preserve">
<style type="text/css">
	.st0{fill:#FFFFFF;}
	.st1{fill:#E73A24;}
</style>
<g id="XMLID_648_">
	<path id="XMLID_649_" class="st0" d="M25.4,14.3c-0.9-0.1-1.7-0.3-2.4-0.7c-0.7-0.3-1.2-0.7-1.6-1.2s-0.7-1-0.9-1.5
		c-0.2-0.6-0.3-1.1-0.3-1.7c0-0.9,0.2-1.7,0.5-2.6c0.4-0.9,0.9-1.7,1.6-2.4C23,3.6,23.9,3,24.9,2.5s2.2-0.7,3.6-0.7L28.9,0h3.3
		l-0.4,1.8c0.9,0.1,1.7,0.3,2.4,0.7c0.7,0.3,1.2,0.7,1.6,1.2c0.4,0.5,0.7,1,0.9,1.5C36.9,5.8,37,6.3,37,6.9c0,0.9-0.2,1.7-0.5,2.6
		c-0.4,0.9-0.9,1.7-1.6,2.4c-0.7,0.7-1.6,1.3-2.6,1.7c-1,0.5-2.2,0.7-3.6,0.7l-0.4,1.9H25L25.4,14.3z M27.8,4.5
		C27.1,4.6,26.6,4.7,26,5c-0.5,0.3-0.9,0.6-1.3,1s-0.6,0.8-0.8,1.3c-0.2,0.5-0.3,0.9-0.3,1.4c0,0.8,0.2,1.5,0.6,2s1,0.8,1.9,0.9
		L27.8,4.5z M29.4,11.7c0.7-0.1,1.2-0.2,1.8-0.5c0.5-0.3,0.9-0.6,1.3-1s0.6-0.8,0.8-1.3s0.3-0.9,0.3-1.4c0-0.8-0.2-1.5-0.6-2
		c-0.4-0.5-1-0.8-1.9-0.9L29.4,11.7z"/>
	<path id="XMLID_653_" class="st0" d="M39.7,16.2L43.4,1h3.4l-2.2,9c0.7-0.8,1.4-1.6,2.2-2.4C47.5,6.8,48.3,6,49,5.2
		s1.5-1.5,2.2-2.2s1.4-1.4,2.1-1.9H56l-3.7,15.2H49l2.4-10C50.5,7.1,49.7,8,49,8.8c-0.8,0.8-1.5,1.6-2.2,2.4s-1.4,1.6-2.1,2.4
		c-0.7,0.8-1.4,1.7-2.1,2.5h-2.9V16.2z"/>
	<path id="XMLID_655_" class="st0" d="M72.6,1l-0.7,2.9h-4.5l-3,12.3H61l3-12.3h-4.5L60.2,1H72.6z"/>
	<path id="XMLID_657_" class="st0" d="M85.7,1h3.4l-3.7,15.2H82l1.6-6.5h-5.4l-1.6,6.5h-3.4L76.9,1h3.4l-1.4,5.8h5.4L85.7,1z"/>
	<path id="XMLID_659_" class="st0" d="M91.1,16.2L94.7,1h9.9L104,3.8h-6.5l-0.7,3.1h5.8l-0.7,2.8h-5.8l-0.9,3.7h7l-0.7,2.8
		C101.5,16.2,91.1,16.2,91.1,16.2z"/>
	<path id="XMLID_661_" class="st0" d="M118.2,15.5c-0.6,0.3-1.3,0.5-2,0.7s-1.6,0.3-2.7,0.3c-0.9,0-1.7-0.2-2.5-0.5
		c-0.8-0.3-1.4-0.7-1.9-1.3s-0.9-1.2-1.2-2c-0.3-0.8-0.4-1.7-0.4-2.7c0-1.1,0.2-2.3,0.6-3.4s1-2.1,1.8-3s1.7-1.6,2.9-2.2
		c1.1-0.6,2.4-0.8,3.9-0.8c0.7,0,1.4,0.1,2.1,0.2c0.7,0.2,1.4,0.4,2.1,0.9l-1.2,2.7c-0.6-0.3-1.2-0.5-1.6-0.7
		c-0.5-0.1-1-0.2-1.6-0.2c-0.8,0-1.6,0.2-2.3,0.5c-0.7,0.3-1.2,0.8-1.7,1.4s-0.8,1.2-1.1,2C111.2,8.2,111,9,111,9.8
		c0,1.3,0.3,2.2,0.8,2.8c0.6,0.6,1.4,0.9,2.4,0.9c0.7,0,1.3-0.1,1.9-0.2c0.6-0.1,1.1-0.3,1.7-0.6L118.2,15.5z"/>
	<path id="XMLID_663_" class="st0" d="M123.8,6.9h6.4l-0.7,3H123L123.8,6.9z"/>
	<path id="XMLID_665_" class="st0" d="M135.1,1.6c0.7-0.3,1.4-0.5,2.2-0.7s1.6-0.3,2.4-0.3c0.8,0,1.5,0.1,2.3,0.3
		c0.7,0.2,1.4,0.5,1.9,1c0.6,0.4,1,1,1.3,1.8c0.3,0.7,0.5,1.6,0.5,2.6c0,1.8-0.2,3.4-0.7,4.7s-1.2,2.3-2,3.2
		c-0.8,0.8-1.8,1.4-2.9,1.8c-1.1,0.4-2.3,0.6-3.5,0.6c-0.8,0-1.6-0.1-2.4-0.3c-0.8-0.2-1.5-0.5-2.2-0.8l1.4-2.7
		c0.6,0.3,1.2,0.5,1.7,0.7c0.5,0.1,1.1,0.2,1.6,0.2c1.4,0,2.5-0.3,3.3-1s1.5-1.6,1.8-2.7h-6.1l0.7-2.9h5.8V6.7
		c0-0.6-0.1-1.1-0.3-1.4c-0.2-0.4-0.5-0.7-0.8-0.9c-0.3-0.2-0.7-0.4-1.1-0.5c-0.4-0.1-0.8-0.2-1.3-0.2c-0.6,0-1.2,0.1-1.9,0.2
		c-0.6,0.2-1.2,0.3-1.7,0.6V1.6z"/>
	<path id="XMLID_667_" class="st0" d="M157.7,16.2c-0.2-0.5-0.5-1-0.7-1.6c-0.3-0.6-0.6-1.1-0.9-1.7c-0.3-0.6-0.7-1.1-1.1-1.6
		c-0.4-0.5-0.8-1-1.2-1.4l-1.6,6.4h-3.4L152.4,1h3.4l-1.3,5.5c1.1-1,2.2-1.9,3.2-2.8s2-1.8,2.8-2.7h4.1c-1.3,1.2-2.7,2.5-4,3.7
		s-2.7,2.4-4.1,3.6c0.9,1,1.8,2.2,2.7,3.5c0.8,1.3,1.6,2.8,2.3,4.5L157.7,16.2L157.7,16.2z"/>
	<path id="XMLID_669_" class="st0" d="M169.1,1h3.4l-3,12.3h4l3-12.3h3.4l-3,12.3h4l3-12.3h3.4l-3.7,15.2h-18.2L169.1,1z"/>
	<path id="XMLID_671_" class="st0" d="M202,1h3.4l-3.7,15.2h-3.4l1.6-6.5h-5.4l-1.6,6.5h-3.4L193.2,1h3.4l-1.4,5.8h5.4L202,1z"/>
	<path id="XMLID_673_" class="st0" d="M211.1,12.9c0,1.3-0.4,2.5-1,3.6s-1.3,2.2-2.2,3.3l-2.4-0.6c0.6-1,1-2,1.4-3s0.6-2.1,0.7-3.3
		C207.6,12.9,211.1,12.9,211.1,12.9z"/>
</g>
<g id="XMLID_621_">
	<path id="XMLID_622_" class="st0" d="M68.6,33.6h26.3l-9.2,38.1H82l8.4-34.9H71.6l-8.4,34.9h-3.7L68.6,33.6z"/>
	<path id="XMLID_624_" class="st0" d="M96.6,57.5c0-3.8,0.6-7.2,1.9-10.3c1.2-3.1,2.9-5.7,5-7.8s4.4-3.8,7-5s5.2-1.7,7.9-1.7
		c1.8,0,3.5,0.3,5.2,0.9c1.7,0.6,3.1,1.5,4.3,2.8c1.2,1.2,2.2,2.8,3,4.7c0.7,1.9,1.1,4.1,1.1,6.6c0,3.8-0.6,7.3-1.9,10.3
		c-1.2,3.1-2.9,5.7-5,7.8c-2.1,2.1-4.4,3.8-7,5s-5.2,1.7-7.9,1.7c-1.8,0-3.6-0.3-5.2-0.9s-3.1-1.5-4.3-2.8c-1.2-1.2-2.2-2.8-3-4.7
		C97,62.3,96.6,60.1,96.6,57.5z M100.6,58.2c0,1.9,0.3,3.5,0.8,4.9c0.5,1.4,1.2,2.5,2.1,3.4c0.9,0.9,2,1.6,3.2,2
		c1.2,0.5,2.5,0.7,3.9,0.7c2.2,0,4.4-0.5,6.5-1.5s3.9-2.4,5.6-4.3c1.6-1.9,2.9-4.2,3.9-6.9s1.5-5.9,1.5-9.4c0-1.9-0.3-3.5-0.8-4.9
		s-1.2-2.5-2.1-3.4s-2-1.6-3.2-2c-1.2-0.5-2.5-0.7-3.9-0.7c-2.2,0-4.4,0.5-6.5,1.5s-4,2.4-5.6,4.3c-1.6,1.9-2.9,4.2-3.9,6.9
		C101.1,51.5,100.6,54.6,100.6,58.2z"/>
	<path id="XMLID_627_" class="st0" d="M142.8,33.6h3.7l-4.2,17.5c1.8-1.3,3.7-2.7,5.9-4.4c2.1-1.6,4.2-3.3,6.2-4.9
		c2-1.6,3.9-3.2,5.6-4.6c1.7-1.4,3.1-2.6,4-3.5h5c-1.2,1.1-2.7,2.4-4.6,4c-1.9,1.6-3.9,3.2-5.9,4.9c-2.1,1.7-4.2,3.4-6.3,5
		c-2.1,1.7-4,3.2-5.7,4.5c1.3,1,2.7,2.3,4.1,3.9c1.4,1.6,2.8,3.3,4.2,5.2c1.3,1.8,2.6,3.7,3.7,5.6c1.1,1.9,2,3.6,2.7,5.1H157
		c-2.1-4.1-4.4-7.8-6.8-11c-2.4-3.2-5.2-6-8.2-8.2l-4.5,19.2h-3.7L142.8,33.6z"/>
	<path id="XMLID_629_" class="st0" d="M192.1,71.7c-0.2-1.8-0.4-3.5-0.6-5.2c-0.2-1.7-0.4-3.5-0.6-5.2H173c-1,1.7-1.9,3.4-2.9,5.1
		c-1,1.7-1.9,3.5-2.9,5.3h-4.1c3.8-6.8,7.7-13.5,11.7-19.9c4-6.5,7.9-12.5,11.8-18.2h4c0.9,5.4,1.8,11.1,2.7,17.4
		c0.9,6.2,1.8,13.1,2.6,20.8h-3.8V71.7z M187.6,37.9c-2.3,3.4-4.5,6.8-6.6,10.1s-4.2,6.7-6.3,10.1h15.6c-0.4-3.3-0.8-6.6-1.3-9.9
		C188.7,44.8,188.2,41.4,187.6,37.9z"/>
	<path id="XMLID_632_" class="st0" d="M199.8,66.8c0.2,0.2,0.6,0.4,1.1,0.7c0.5,0.3,1.1,0.5,1.8,0.8s1.5,0.5,2.5,0.7s2,0.3,3.1,0.3
		c1.7,0,3.3-0.2,4.8-0.5s2.9-0.9,4-1.7c1.1-0.8,2-1.8,2.7-3c0.7-1.2,1-2.7,1-4.5c0-1.4-0.3-2.5-0.9-3.3c-0.6-0.9-1.3-1.5-2.3-2
		s-2.1-0.8-3.3-1s-2.5-0.2-3.9-0.2h-2.3l0.8-3.2h3c1.4,0,2.8-0.2,4.2-0.6c1.4-0.4,2.6-0.9,3.7-1.6c1.1-0.7,2-1.6,2.6-2.7
		c0.7-1.1,1-2.3,1-3.6c0-0.8-0.1-1.5-0.3-2.1s-0.6-1.2-1.1-1.7s-1.2-0.9-2.1-1.1c-0.9-0.3-2-0.4-3.4-0.4c-1.3,0-2.4,0.1-3.4,0.2
		c-1,0.1-1.8,0.3-2.5,0.5s-1.3,0.4-1.8,0.6c-0.5,0.2-0.9,0.4-1.2,0.5L207,35c0.3-0.2,0.8-0.5,1.5-0.7c0.7-0.3,1.5-0.5,2.4-0.7
		s1.8-0.4,2.8-0.6c1-0.1,1.9-0.2,2.7-0.2c1.5,0,3,0.2,4.3,0.5s2.4,0.8,3.4,1.5c0.9,0.7,1.7,1.6,2.2,2.6c0.5,1.1,0.8,2.4,0.8,3.9
		s-0.3,2.8-0.9,3.9c-0.6,1.1-1.3,2.1-2.2,2.9c-0.9,0.8-1.9,1.5-2.9,2c-1.1,0.5-2.1,0.9-3.1,1.2c0.8,0.3,1.6,0.6,2.4,1
		c0.8,0.4,1.5,0.9,2.1,1.6c0.6,0.6,1.1,1.4,1.5,2.3c0.4,0.9,0.5,2,0.5,3.2c0,2.6-0.5,4.7-1.4,6.4c-0.9,1.7-2.2,3-3.7,4
		s-3.3,1.7-5.3,2.1s-4,0.6-6.1,0.6c-1.4,0-2.7-0.1-3.9-0.3c-1.2-0.2-2.2-0.4-3-0.7c-0.9-0.3-1.6-0.5-2.1-0.8s-0.9-0.5-1.1-0.7
		L199.8,66.8z"/>
	<path id="XMLID_634_" class="st0" d="M253.5,71.7c-0.2-1.8-0.4-3.5-0.6-5.2c-0.2-1.7-0.4-3.5-0.6-5.2h-17.9c-1,1.7-1.9,3.4-2.9,5.1
		c-1,1.7-1.9,3.5-2.9,5.3h-4.1c3.8-6.8,7.7-13.5,11.7-19.9c4-6.5,7.9-12.5,11.8-18.2h4c0.9,5.4,1.8,11.1,2.7,17.4
		c0.9,6.2,1.8,13.1,2.6,20.8h-3.8V71.7z M249,37.9c-2.3,3.4-4.5,6.8-6.6,10.1s-4.2,6.7-6.3,10.1h15.6c-0.4-3.3-0.8-6.6-1.3-9.9
		C250.1,44.8,249.6,41.4,249,37.9z"/>
	<path id="XMLID_637_" class="st0" d="M269.9,34.3c1.2-0.3,2.6-0.5,4.2-0.8c1.6-0.2,3.3-0.3,5-0.3c1.6,0,3.1,0.1,4.6,0.4
		c1.5,0.3,2.8,0.7,4,1.4s2.1,1.5,2.9,2.7c0.7,1.1,1.1,2.5,1.1,4.2c0,1.2-0.2,2.4-0.7,3.5c-0.4,1.1-1,2-1.7,2.8s-1.5,1.5-2.5,2.1
		s-1.9,1.1-3,1.4c0.8,0.2,1.6,0.6,2.3,1c0.7,0.5,1.2,1,1.7,1.7c0.5,0.6,0.8,1.4,1.1,2.1c0.3,0.8,0.4,1.6,0.4,2.4
		c0,2.6-0.5,4.8-1.6,6.4c-1.1,1.7-2.5,3-4.2,4s-3.7,1.7-5.9,2.1c-2.2,0.4-4.5,0.6-6.8,0.6c-1.8,0-3.5-0.1-5.1-0.3
		c-1.6-0.2-3.1-0.4-4.5-0.7L269.9,34.3z M265.4,68.5c0.8,0.1,1.6,0.2,2.5,0.3c0.9,0.1,1.9,0.1,2.9,0.1c1.8,0,3.6-0.1,5.3-0.4
		c1.7-0.3,3.3-0.7,4.6-1.5c1.4-0.7,2.4-1.7,3.3-2.9c0.8-1.2,1.2-2.9,1.2-4.9c0-2.2-0.7-3.7-2.2-4.5s-3.9-1.2-7.2-1.2h-7L265.4,68.5z
		 M274.9,50.3c4.6,0,7.9-0.7,9.9-2.1c2-1.4,3-3.3,3-5.6c0-2.2-0.8-3.8-2.3-4.7c-1.6-0.9-3.9-1.4-7.1-1.4c-1,0-1.9,0-2.9,0.1
		c-0.9,0.1-1.7,0.2-2.4,0.3l-3.3,13.4C269.8,50.3,274.9,50.3,274.9,50.3z"/>
	<path id="XMLID_641_" class="st0" d="M302,33.6h3.7l-8.4,34.9h15.3l8.4-34.9h3.7l-8.4,34.9h15.4l8.4-34.9h3.7l-9.1,38.1h-42
		L302,33.6z"/>
	<path id="XMLID_643_" class="st0" d="M351.8,33.6h3.6l-7.6,31.5c0.9-1.2,2.1-2.7,3.4-4.4c1.4-1.7,2.8-3.5,4.5-5.4
		c1.6-1.9,3.3-3.9,5.1-5.9c1.8-2,3.6-4,5.4-5.9s3.5-3.7,5.2-5.4s3.3-3.2,4.8-4.6h3.3l-9.2,38.1h-3.6l7.6-32c-1.2,1.1-2.5,2.4-4.1,4
		c-1.5,1.6-3.2,3.4-4.9,5.3c-1.7,1.9-3.5,3.9-5.3,6s-3.6,4.1-5.2,6.2c-1.7,2-3.3,3.9-4.7,5.7c-1.5,1.8-2.7,3.4-3.7,4.7h-3.7
		L351.8,33.6z"/>
	<path id="XMLID_645_" class="st0" d="M387.3,33.6h3.6l-7.6,31.5c0.9-1.2,2.1-2.7,3.4-4.4c1.4-1.7,2.8-3.5,4.5-5.4
		c1.6-1.9,3.3-3.9,5.1-5.9c1.8-2,3.6-4,5.4-5.9s3.5-3.7,5.2-5.4s3.3-3.2,4.8-4.6h3.3l-9.2,38.1h-3.6l7.6-32c-1.2,1.1-2.5,2.4-4.1,4
		c-1.5,1.6-3.2,3.4-4.9,5.3c-1.7,1.9-3.5,3.9-5.3,6s-3.6,4.1-5.2,6.2c-1.7,2-3.3,3.9-4.7,5.7c-1.5,1.8-2.7,3.4-3.7,4.7h-3.7
		L387.3,33.6z M401.9,29.9c-2.1,0-3.7-0.6-4.8-1.7c-1.2-1.1-1.7-2.8-1.5-4.8l3.1-0.8c-0.1,1.2,0.2,2.3,0.8,3.1
		c0.6,0.8,1.7,1.2,3.2,1.2c1.2,0,2.3-0.4,3.2-1.2c0.9-0.8,1.6-1.8,2.1-3.1l2.8,0.8c-0.8,2.1-2,3.7-3.4,4.8
		C406.1,29.3,404.2,29.9,401.9,29.9z"/>
</g>
<g>
	<g id="XMLID_608_">
		<path id="XMLID_609_" class="st0" d="M16.6,102.2l-0.7,2.9h1.2c1.2,0,2.2,0.1,3.1,0.3c0.8,0.2,1.5,0.5,2,0.9s0.9,0.9,1.1,1.5
			s0.4,1.3,0.4,2.1c0,1.3-0.3,2.3-0.8,3.1c-0.5,0.8-1.2,1.5-2.1,2s-1.8,0.9-2.9,1.1s-2.2,0.3-3.3,0.3c-0.9,0-1.8-0.1-2.7-0.2
			s-1.7-0.2-2.5-0.4l4.1-17h11.2l-0.8,3.3L16.6,102.2L16.6,102.2z M14,113c0.2,0,0.5,0.1,0.7,0.1c0.3,0,0.5,0,0.8,0
			c0.8,0,1.5-0.1,2.1-0.3c0.5-0.2,1-0.4,1.3-0.7c0.3-0.3,0.5-0.6,0.6-0.9s0.2-0.7,0.2-1s-0.1-0.6-0.2-0.8c-0.1-0.3-0.3-0.5-0.5-0.6
			c-0.2-0.2-0.6-0.3-1-0.4s-0.9-0.2-1.5-0.2h-1.4L14,113z"/>
		<path id="XMLID_612_" class="st0" d="M32.5,116.6c-1,0-2-0.2-2.8-0.5c-0.9-0.3-1.6-0.8-2.2-1.4s-1.1-1.4-1.4-2.3s-0.5-1.9-0.5-3.1
			c0-1.3,0.2-2.6,0.7-3.9s1.1-2.4,1.9-3.5c0.8-1,1.9-1.9,3.1-2.5c1.2-0.6,2.6-1,4.1-1c1,0,2,0.2,2.8,0.5c0.9,0.3,1.6,0.8,2.2,1.4
			c0.6,0.6,1.1,1.4,1.4,2.3c0.3,0.9,0.5,1.9,0.5,3.1c0,1.3-0.2,2.6-0.7,3.9c-0.4,1.3-1.1,2.5-1.9,3.5c-0.8,1-1.9,1.9-3.1,2.5
			C35.5,116.2,34.1,116.6,32.5,116.6z M35,101.8c-0.8,0-1.5,0.2-2.1,0.6c-0.7,0.4-1.2,0.9-1.7,1.6s-0.9,1.4-1.2,2.3
			c-0.3,0.9-0.4,1.8-0.4,2.7c0,1.3,0.3,2.3,0.8,3c0.5,0.8,1.4,1.2,2.6,1.2c0.8,0,1.5-0.2,2.1-0.6c0.7-0.4,1.2-0.9,1.7-1.6
			s0.9-1.4,1.2-2.3s0.4-1.8,0.4-2.7c0-1.3-0.3-2.3-0.8-3C37,102.2,36.2,101.8,35,101.8z"/>
		<path id="XMLID_615_" class="st0" d="M52.6,102.2c-0.6,2.3-1.1,4.4-1.6,6.1c-0.5,1.8-1.2,3.2-1.9,4.4c-0.7,1.2-1.6,2.1-2.7,2.8
			c-1.1,0.6-2.4,1-4,1.1l-0.4-3.4c0.8-0.1,1.6-0.3,2.2-0.7c0.6-0.4,1.2-0.9,1.7-1.6s0.9-1.4,1.3-2.3c0.4-0.9,0.7-1.9,1-2.9
			s0.6-2.1,0.8-3.3c0.3-1.1,0.5-2.3,0.8-3.5H61l-4.2,17.4H53l3.4-14L52.6,102.2L52.6,102.2z"/>
		<path id="XMLID_617_" class="st0" d="M60.3,116.2l4.2-17.4h11.3L75,102h-7.4l-0.8,3.5h6.6l-0.8,3.2H66l-1,4.3h8l-0.8,3.2
			C72.2,116.2,60.3,116.2,60.3,116.2z"/>
		<path id="XMLID_619_" class="st0" d="M74.6,116.2l4.2-17.4h11.3l-0.8,3.2h-7.4l-0.8,3.5h6.6l-0.8,3.2h-6.6l-1,4.3h8l-0.8,3.2
			C86.5,116.2,74.6,116.2,74.6,116.2z"/>
	</g>
	<g id="XMLID_596_">
		<path id="XMLID_597_" class="st1" d="M109.4,180.6c1.4-4.4,3.1-9,5.1-13.8c2.1-4.8,4.4-9.6,7-14.5c2.6-4.8,5.4-9.6,8.3-14.2
			c2.9-4.7,6-9.1,9.1-13.2c3.1-4.1,6.2-7.9,9.3-11.4c3.1-3.4,6.1-6.3,9-8.6h-40.7l1.6-7.2h49l-1.7,6.9c-3.6,3.4-7.7,7.9-12.2,13.4
			c-4.6,5.5-9.1,11.7-13.6,18.5s-8.7,14-12.6,21.5s-7,15-9.2,22.4h-8.4V180.6z"/>
		<path id="XMLID_599_" class="st1" d="M216.6,95.9c6.7,0.1,11.5,2.4,14.3,6.9s4.2,10.6,4.2,18c0,7-0.9,14.2-2.7,21.4
			c-1.8,7.3-4.3,13.9-7.6,19.8c-3.3,5.9-7.2,10.8-11.8,14.6s-9.7,5.7-15.2,5.7c-3.3,0-6.2-0.6-8.6-1.8c-2.4-1.2-4.3-2.9-5.8-5.1
			c-1.5-2.2-2.6-4.8-3.2-7.9c-0.7-3.1-1-6.5-1-10.2c0-4.7,0.4-9.5,1.2-14.3c0.8-4.9,2-9.6,3.5-14.1s3.4-8.8,5.6-12.8
			c2.2-4,4.7-7.5,7.5-10.5c2.7-3,5.8-5.4,9.1-7.1C209.3,96.7,212.8,95.9,216.6,95.9z M198.4,175.2c3.9,0,7.6-1.6,11.1-4.7
			c3.5-3.1,6.5-7.2,9.1-12.2c2.6-5.1,4.6-10.8,6.2-17.1c1.5-6.4,2.3-12.8,2.3-19.2c0-6.6-0.9-11.4-2.8-14.4c-1.9-3-4.6-4.5-8.3-4.5
			c-3.9,0-7.6,1.6-11.1,4.7s-6.5,7.2-9.1,12.2c-2.6,5.1-4.6,10.8-6.2,17.1c-1.5,6.4-2.3,12.8-2.3,19.2c0,6.6,0.9,11.4,2.8,14.4
			C192,173.7,194.7,175.2,198.4,175.2z"/>
		<path id="XMLID_602_" class="st1" d="M274.4,95.9c6.7,0.1,11.5,2.4,14.3,6.9s4.2,10.6,4.2,18c0,7-0.9,14.2-2.7,21.4
			c-1.8,7.3-4.3,13.9-7.6,19.8c-3.3,5.9-7.2,10.8-11.8,14.6c-4.6,3.8-9.7,5.7-15.2,5.7c-3.3,0-6.2-0.6-8.6-1.8
			c-2.4-1.2-4.3-2.9-5.8-5.1c-1.5-2.2-2.6-4.8-3.2-7.9c-0.7-3.1-1-6.5-1-10.2c0-4.7,0.4-9.5,1.2-14.3c0.8-4.9,2-9.6,3.5-14.1
			s3.4-8.8,5.6-12.8c2.2-4,4.7-7.5,7.5-10.5c2.7-3,5.8-5.4,9.1-7.1C267.1,96.7,270.7,95.9,274.4,95.9z M256.3,175.2
			c3.9,0,7.6-1.6,11.1-4.7c3.5-3.1,6.5-7.2,9.1-12.2c2.6-5.1,4.6-10.8,6.2-17.1c1.5-6.4,2.3-12.8,2.3-19.2c0-6.6-0.9-11.4-2.8-14.4
			s-4.6-4.5-8.3-4.5c-3.9,0-7.6,1.6-11.1,4.7s-6.5,7.2-9.1,12.2c-2.6,5.1-4.6,10.8-6.2,17.1c-1.5,6.4-2.3,12.8-2.3,19.2
			c0,6.6,0.9,11.4,2.8,14.4C249.8,173.7,252.6,175.2,256.3,175.2z"/>
		<path id="XMLID_605_" class="st1" d="M332.3,95.9c6.7,0.1,11.5,2.4,14.3,6.9s4.2,10.6,4.2,18c0,7-0.9,14.2-2.7,21.4
			c-1.8,7.3-4.3,13.9-7.6,19.8c-3.3,5.9-7.2,10.8-11.8,14.6c-4.6,3.8-9.7,5.7-15.2,5.7c-3.3,0-6.2-0.6-8.6-1.8s-4.3-2.9-5.8-5.1
			c-1.5-2.2-2.6-4.8-3.2-7.9c-0.7-3.1-1-6.5-1-10.2c0-4.7,0.4-9.5,1.2-14.3c0.8-4.9,2-9.6,3.5-14.1s3.4-8.8,5.6-12.8
			s4.7-7.5,7.5-10.5c2.7-3,5.8-5.4,9.1-7.1C325,96.7,328.5,95.9,332.3,95.9z M314.1,175.2c3.9,0,7.6-1.6,11.1-4.7
			c3.5-3.1,6.5-7.2,9.1-12.2c2.6-5.1,4.6-10.8,6.2-17.1c1.5-6.4,2.3-12.8,2.3-19.2c0-6.6-0.9-11.4-2.8-14.4s-4.6-4.5-8.3-4.5
			c-3.9,0-7.6,1.6-11.1,4.7s-6.5,7.2-9.1,12.2c-2.6,5.1-4.6,10.8-6.2,17.1c-1.5,6.4-2.3,12.8-2.3,19.2c0,6.6,0.9,11.4,2.8,14.4
			C307.7,173.7,310.4,175.2,314.1,175.2z"/>
	</g>
</g>
<g id="XMLID_568_">
	<path id="XMLID_569_" class="st0" d="M22.2,202.5l-5.5,22.8h-3.2l4.8-20.1H8l-4.8,20.1H0l5.5-22.8H22.2z"/>
	<path id="XMLID_571_" class="st0" d="M37.4,202c1.2,0,2.3,0.2,3.3,0.5c1,0.4,1.9,0.9,2.6,1.6c0.7,0.7,1.3,1.6,1.7,2.7
		c0.4,1.1,0.6,2.3,0.6,3.8c0,1.8-0.3,3.6-0.8,5.4c-0.6,1.8-1.4,3.4-2.5,4.8c-1.1,1.4-2.5,2.6-4.1,3.5s-3.6,1.3-5.8,1.3
		c-1.2,0-2.3-0.2-3.4-0.5c-1-0.4-1.9-0.9-2.6-1.6c-0.7-0.7-1.3-1.6-1.7-2.7c-0.4-1.1-0.6-2.3-0.6-3.8c0-1.8,0.3-3.6,0.8-5.4
		c0.5-1.8,1.4-3.4,2.5-4.9c1.1-1.4,2.5-2.6,4.1-3.5C33.3,202.4,35.2,202,37.4,202z M32.9,223c1.5,0,2.8-0.4,4-1.1
		c1.2-0.7,2.2-1.6,3-2.8c0.8-1.1,1.5-2.4,1.9-3.8c0.4-1.4,0.7-2.8,0.7-4.3c0-1.9-0.4-3.5-1.3-4.6c-0.8-1.1-2.2-1.7-4-1.7
		c-1.5,0-2.8,0.4-4,1.1c-1.2,0.7-2.2,1.6-3,2.8c-0.8,1.1-1.5,2.4-1.9,3.8c-0.4,1.4-0.7,2.8-0.7,4.3c0,1.9,0.4,3.5,1.3,4.6
		C29.7,222.4,31,223,32.9,223z"/>
	<path id="XMLID_574_" class="st0" d="M66.5,202.5l-0.6,2.7H59l-4.8,20.1H51l4.8-20.1H49l0.6-2.7H66.5z"/>
	<path id="XMLID_576_" class="st0" d="M76.3,202.2c2.7,0,4.6,0.5,6,1.5c1.3,1,2,2.5,2,4.4c0,1.5-0.3,2.8-0.8,3.9
		c-0.6,1.1-1.4,2-2.4,2.7s-2.3,1.2-3.7,1.6c-1.4,0.3-3.1,0.5-4.8,0.5h-2.3l-2,8.5h-3.2l5.4-22.5c0.9-0.2,1.9-0.4,2.9-0.4
		C74.4,202.3,75.4,202.2,76.3,202.2z M75.9,204.9c-1.6,0-2.5,0-2.8,0.1l-2.2,9H73c0.9,0,1.9-0.1,2.8-0.2c1-0.2,1.8-0.5,2.6-0.9
		c0.8-0.4,1.4-1,1.9-1.7s0.7-1.7,0.7-2.8c0-1.2-0.5-2.1-1.4-2.7C78.8,205.2,77.5,204.9,75.9,204.9z"/>
	<path id="XMLID_579_" class="st0" d="M96.2,216.3c-0.7,0-1.5,0-2.1-0.1c-0.5,0.5-1.1,1.1-1.6,1.8c-0.6,0.7-1.2,1.5-1.8,2.3
		c-0.6,0.8-1.2,1.6-1.9,2.5c-0.6,0.8-1.2,1.6-1.7,2.4h-3.5c0.6-0.8,1.2-1.7,1.9-2.6c0.7-0.9,1.4-1.8,2-2.6c0.7-0.9,1.3-1.7,2-2.4
		c0.6-0.8,1.2-1.4,1.7-2c-0.9-0.4-1.7-0.9-2.3-1.7c-0.6-0.7-0.9-1.8-0.9-3.1c0-1.4,0.3-2.6,0.9-3.7c0.6-1.1,1.4-2,2.4-2.7
		s2.2-1.2,3.5-1.6c1.3-0.4,2.7-0.5,4.2-0.5c0.5,0,1,0,1.6,0s1.1,0.1,1.7,0.1s1.1,0.1,1.6,0.2c0.5,0.1,1,0.2,1.3,0.3l-5.4,22.4h-3.2
		l2.1-8.9L96.2,216.3L96.2,216.3z M98.5,204.9c-0.9,0-1.8,0.1-2.6,0.2c-0.9,0.2-1.7,0.5-2.3,0.9c-0.7,0.4-1.3,1-1.7,1.7
		c-0.4,0.7-0.7,1.6-0.7,2.7c0,1.3,0.4,2.1,1.3,2.6c0.9,0.4,2.1,0.7,3.7,0.7h3.2l2.1-8.6c-0.2,0-0.5-0.1-1-0.1
		C99.9,205,99.2,204.9,98.5,204.9z"/>
	<path id="XMLID_582_" class="st0" d="M115.9,225.7c-1.4,0-2.7-0.2-3.8-0.6c-1.1-0.4-2-1-2.7-1.8s-1.3-1.7-1.6-2.8
		c-0.4-1.1-0.5-2.3-0.5-3.7c0-2,0.3-3.9,0.9-5.7s1.5-3.4,2.7-4.8c1.1-1.4,2.5-2.5,4.2-3.3c1.6-0.8,3.4-1.2,5.4-1.2
		c1.7,0,3.1,0.2,4.1,0.5c1,0.4,1.7,0.7,2.2,1l-1.3,2.6c-0.5-0.3-1.2-0.6-2.1-0.9c-0.9-0.3-1.9-0.4-3.1-0.4c-1.5,0-2.9,0.4-4.1,1.1
		c-1.2,0.7-2.2,1.6-3.1,2.8c-0.8,1.1-1.5,2.4-1.9,3.8c-0.4,1.4-0.7,2.8-0.7,4.2c0,4.3,1.9,6.4,5.6,6.4c0.8,0,1.5-0.1,2.1-0.2
		c0.6-0.1,1.2-0.2,1.7-0.4c0.5-0.1,0.9-0.3,1.3-0.5s0.7-0.3,1-0.5l0.4,2.8c-0.3,0.2-0.6,0.3-1,0.5s-0.9,0.3-1.5,0.5
		s-1.2,0.3-1.9,0.4C117.5,225.7,116.7,225.7,115.9,225.7z"/>
	<path id="XMLID_584_" class="st0" d="M131.2,219.4l-3.2,5.8h-3.5c2.5-4.4,4.8-8.5,7.2-12.2c2.3-3.7,4.6-7.2,6.9-10.5h3.1
		c0.3,1.6,0.6,3.3,0.9,5c0.3,1.7,0.5,3.4,0.8,5.3c0.3,1.8,0.5,3.8,0.8,5.8c0.2,2.1,0.5,4.3,0.8,6.7h-3.2c-0.1-1-0.2-2-0.3-3
		s-0.2-2-0.3-2.9L131.2,219.4L131.2,219.4z M140.8,216.8c-0.2-1.8-0.4-3.5-0.6-5.3c-0.2-1.8-0.5-3.6-0.8-5.4
		c-0.8,1.1-1.7,2.6-2.9,4.3c-1.1,1.8-2.4,3.9-3.9,6.4H140.8z"/>
	<path id="XMLID_587_" class="st0" d="M171.6,202c1.2,0,2.2,0.2,3.2,0.5c1,0.4,1.8,0.9,2.6,1.6c0.7,0.7,1.3,1.6,1.7,2.7
		c0.4,1.1,0.6,2.3,0.6,3.8c0,1.8-0.3,3.6-0.8,5.4c-0.5,1.8-1.4,3.4-2.4,4.8c-1.1,1.4-2.4,2.6-4,3.5s-3.5,1.3-5.6,1.3
		c-1.2,0-2.2-0.2-3.2-0.5c-1-0.4-1.8-0.9-2.6-1.6c-0.7-0.7-1.3-1.6-1.7-2.7c-0.4-1.1-0.6-2.3-0.6-3.8c0-0.4,0-0.8,0-1.2
		s0.1-0.8,0.1-1.2h-4.8l-2.5,10.6h-3.2l5.5-22.8h3.2l-2.3,9.5h4.8c0.4-1.4,0.9-2.6,1.6-3.9c0.7-1.2,1.6-2.3,2.6-3.2s2.2-1.6,3.5-2.2
		C168.5,202.2,170,202,171.6,202z M167.2,223c1.4,0,2.7-0.4,3.8-1.1c1.1-0.7,2.1-1.6,2.9-2.8c0.8-1.1,1.4-2.4,1.8-3.8
		c0.4-1.4,0.6-2.8,0.6-4.3c0-2-0.4-3.5-1.2-4.6s-2.1-1.7-3.9-1.7c-1.4,0-2.7,0.4-3.8,1.1c-1.1,0.7-2.1,1.6-2.9,2.8
		c-0.8,1.1-1.4,2.4-1.8,3.8c-0.4,1.4-0.6,2.8-0.6,4.3c0,2,0.4,3.5,1.2,4.6C164.1,222.4,165.4,223,167.2,223z"/>
	<path id="XMLID_590_" class="st0" d="M181.8,225.3l5.5-22.8h3.2l-4.8,20.1h8.1l4.8-20.1h3.2l-4.8,20.1h8.1l4.8-20.1h3.2l-4.8,20.1
		h2.9l-2.1,8.7h-3l1.5-6.1h-25.8V225.3z"/>
	<path id="XMLID_592_" class="st0" d="M214.4,225.3l5.5-22.8h3.1l-4.1,17c0.9-1.1,2-2.5,3.3-4s2.7-3.1,4.1-4.6
		c1.4-1.6,2.9-3.1,4.4-4.6s2.8-2.8,4-3.8h2.7l-5.5,22.8h-3.1l4.2-17.7c-1.1,1.1-2.4,2.4-3.8,3.9c-1.4,1.5-2.8,3.1-4.3,4.7
		c-1.5,1.6-2.9,3.2-4.2,4.8s-2.5,3-3.5,4.2h-2.8V225.3z"/>
	<path id="XMLID_594_" class="st0" d="M251.3,225.3c-0.5-1.5-1.1-3.1-1.7-4.7c-0.6-1.6-1.3-3.2-2-4.8l-8.1,9.5h-3.7l10.5-12.2
		l-4.6-10.6h3.5l3.4,8.4c1.2-1.4,2.3-2.8,3.5-4.2c1.1-1.4,2.2-2.8,3.2-4.2h3.6c-1.3,1.8-2.8,3.6-4.3,5.5c-1.6,1.9-3.1,3.6-4.7,5.3
		c0.8,2,1.7,4,2.5,6s1.5,4,2.2,5.9h-3.3V225.3z"/>
</g>
<g id="XMLID_187_">
	<path id="XMLID_540_" class="st0" d="M192.6,246.3c3.6,0,6.3,0.7,8.1,2c1.8,1.4,2.7,3.4,2.7,6c0,2-0.4,3.8-1.1,5.2
		c-0.8,1.5-1.8,2.7-3.2,3.6c-1.4,1-3.1,1.7-5,2.1c-2,0.5-4.1,0.7-6.5,0.7h-3.1l-2.8,11.5h-4.3l7.3-30.5c1.2-0.3,2.6-0.5,4-0.6
		C190,246.3,191.3,246.3,192.6,246.3z M192,249.9c-2.1,0-3.4,0.1-3.8,0.2l-2.9,12.2h2.8c1.2,0,2.5-0.1,3.8-0.3
		c1.3-0.2,2.5-0.6,3.5-1.2s1.9-1.3,2.6-2.3c0.7-1,1-2.3,1-3.9c0-1.7-0.6-2.9-1.9-3.6C195.9,250.3,194.2,249.9,192,249.9z"/>
	<path id="XMLID_543_" class="st0" d="M208.1,277.4l7.4-30.9h18.2l-0.8,3.6H219l-2.2,9.3H229l-0.8,3.5h-12.3l-2.6,10.8h15l-0.8,3.6
		h-19.4V277.4z"/>
	<path id="XMLID_545_" class="st0" d="M251.3,245.9c2.8,0,5,0.6,6.6,1.8c1.5,1.2,2.3,2.9,2.3,5.2c0,1.1-0.2,2-0.6,2.9
		s-0.9,1.6-1.5,2.3c-0.6,0.7-1.3,1.2-2.1,1.7c-0.8,0.5-1.6,0.8-2.5,1.1c1.4,0.5,2.6,1.3,3.4,2.3c0.8,1.1,1.2,2.4,1.2,4.1
		c0,1.8-0.3,3.3-1,4.7c-0.7,1.3-1.6,2.5-2.8,3.4s-2.7,1.6-4.4,2s-3.5,0.7-5.6,0.7c-1.2,0-2.4-0.1-3.4-0.2c-1-0.2-1.9-0.4-2.6-0.6
		c-0.8-0.2-1.4-0.5-1.9-0.7c-0.5-0.3-0.9-0.5-1.1-0.7l2-3.5c0.6,0.4,1.5,0.8,2.7,1.3s2.8,0.7,4.6,0.7c1.3,0,2.5-0.1,3.6-0.4
		s2.1-0.7,2.9-1.2c0.8-0.5,1.4-1.2,1.9-2.1c0.5-0.8,0.7-1.8,0.7-3c0-0.9-0.2-1.7-0.6-2.3c-0.4-0.6-0.9-1.1-1.5-1.4
		c-0.7-0.4-1.4-0.6-2.3-0.8c-0.9-0.1-1.8-0.2-2.8-0.2h-3.3l0.9-3.5h3.3c1,0,2-0.1,3-0.4c1-0.2,1.9-0.6,2.7-1.1s1.5-1.1,2-1.9
		c0.5-0.8,0.8-1.7,0.8-2.7c0-1.1-0.4-2-1.1-2.7c-0.7-0.7-2-1-3.8-1s-3.3,0.2-4.5,0.6c-1.2,0.4-2.2,0.8-3,1.2l-0.6-3.5
		c0.4-0.2,0.9-0.5,1.5-0.7s1.3-0.5,2.1-0.6c0.8-0.2,1.6-0.3,2.4-0.5C249.8,246,250.6,245.9,251.3,245.9z"/>
	<path id="XMLID_547_" class="st0" d="M281.3,268c-0.9,1.4-1.8,2.7-2.6,3.9c-0.9,1.2-1.8,2.2-2.8,3.1s-2.1,1.6-3.4,2.1
		s-2.7,0.8-4.4,0.8c-1,0-1.8-0.1-2.5-0.3c-0.7-0.2-1.2-0.4-1.5-0.6l1.4-3.5c0.3,0.1,0.7,0.3,1.2,0.5s1.1,0.2,2,0.2
		c0.8,0,1.5-0.1,2.2-0.3c0.7-0.2,1.3-0.5,1.9-0.9s1.1-0.9,1.7-1.5c0.5-0.6,1.1-1.3,1.6-2.1c-0.7-2-1.4-4.1-2-6.2s-1.2-4.2-1.7-6.2
		s-0.9-3.9-1.2-5.7c-0.3-1.8-0.6-3.3-0.8-4.7h4.3c0.3,2.6,0.8,5.5,1.6,8.7c0.7,3.2,1.6,6.5,2.6,10c0.9-1.4,1.8-2.8,2.7-4.3
		c0.9-1.5,1.8-3.1,2.7-4.7c0.9-1.6,1.8-3.2,2.6-4.9c0.9-1.6,1.7-3.2,2.4-4.8h4.7c-1.2,2.1-2.3,4.1-3.3,6c-1.1,1.9-2.1,3.7-3.1,5.4
		s-2,3.4-3.1,5.1C283.4,264.8,282.4,266.4,281.3,268z"/>
	<path id="XMLID_549_" class="st0" d="M308.7,250.3c-0.7,3.3-1.5,6.6-2.4,9.7s-2,6-3.3,8.6c-0.4,0.9-0.9,1.8-1.6,2.8
		c-0.6,1-1.4,2-2.4,2.9s-2.1,1.7-3.5,2.4c-1.4,0.7-2.9,1-4.8,1.2l-0.4-3.7c1.9-0.2,3.6-0.9,5-1.9c1.4-1.1,2.7-2.6,3.7-4.6
		c1.1-2.1,2.1-4.8,3.2-8.2c1-3.3,2-7.6,3-12.8h17.1l-7.3,30.9h-4.3l6.5-27.2L308.7,250.3L308.7,250.3z"/>
	<path id="XMLID_551_" class="st0" d="M335.2,277.7c-0.7,0-1.4,0-2.1,0s-1.5-0.1-2.2-0.1c-0.7-0.1-1.5-0.1-2.1-0.2
		c-0.7-0.1-1.3-0.2-1.8-0.4l7.3-30.4h4.3l-2.7,11.2c0.6-0.1,1.2-0.1,1.9-0.1c0.6,0,1.2,0,1.7,0c3.8,0,6.6,0.7,8.3,2
		c1.8,1.4,2.7,3.4,2.7,6c0,2-0.4,3.8-1.1,5.3c-0.8,1.5-1.8,2.8-3.2,3.8c-1.4,1-3,1.7-4.8,2.2C339.5,277.5,337.4,277.7,335.2,277.7z
		 M335.6,274.1c1.4,0,2.7-0.1,4-0.4s2.4-0.7,3.3-1.4c1-0.6,1.7-1.5,2.3-2.5c0.6-1,0.9-2.3,0.9-3.8c0-1.7-0.7-2.9-2-3.7
		c-1.3-0.7-3.1-1.1-5.2-1.1c-1.1,0-2,0-2.6,0.1c-0.6,0-1.1,0.1-1.3,0.1l-3,12.4C332.5,274,333.7,274.1,335.6,274.1z"/>
	<path id="XMLID_554_" class="st0" d="M381.9,246.6l-0.8,3.6h-9.3l-6.5,27.3H361l6.5-27.3h-9.3l0.8-3.6L381.9,246.6L381.9,246.6z"/>
	<path id="XMLID_556_" class="st0" d="M386.4,269.5l-4.4,7.9h-4.7c3.3-6,6.6-11.5,9.7-16.6c3.2-5,6.3-9.8,9.4-14.3h4.2
		c0.4,2.2,0.9,4.5,1.2,6.7c0.4,2.3,0.7,4.7,1.1,7.1c0.4,2.5,0.7,5.1,1,7.9s0.7,5.8,1,9h-4.4c-0.1-1.3-0.3-2.7-0.4-4
		c-0.1-1.4-0.3-2.6-0.4-3.9h-13.3V269.5z M399.4,266c-0.2-2.4-0.5-4.8-0.8-7.2c-0.3-2.4-0.7-4.8-1.1-7.3c-1,1.5-2.3,3.5-3.9,5.9
		c-1.5,2.4-3.3,5.3-5.3,8.7h11.1V266z"/>
	<path id="XMLID_559_" class="st0" d="M436.8,246.6l-0.8,3.6h-9.3l-6.5,27.3h-4.3l6.5-27.3H413l0.8-3.6L436.8,246.6L436.8,246.6z"/>
	<path id="XMLID_561_" class="st0" d="M457.1,245.9c1.6,0,3.1,0.2,4.5,0.7s2.6,1.2,3.6,2.2s1.8,2.2,2.3,3.7s0.8,3.2,0.8,5.1
		c0,2.5-0.4,4.9-1.1,7.3c-0.8,2.4-1.9,4.6-3.4,6.6c-1.5,1.9-3.3,3.5-5.6,4.7c-2.2,1.2-4.8,1.8-7.8,1.8c-1.7,0-3.2-0.2-4.5-0.7
		c-1.4-0.5-2.5-1.2-3.5-2.2s-1.8-2.2-2.3-3.7s-0.8-3.2-0.8-5.1c0-2.4,0.4-4.9,1.1-7.3s1.9-4.6,3.4-6.6c1.5-1.9,3.4-3.5,5.6-4.7
		C451.5,246.5,454.1,245.9,457.1,245.9z M450.9,274.3c2,0,3.8-0.5,5.4-1.4c1.6-1,3-2.2,4.1-3.8c1.1-1.5,2-3.3,2.6-5.2
		c0.6-1.9,0.9-3.9,0.9-5.8c0-2.6-0.6-4.7-1.7-6.3c-1.1-1.5-3-2.3-5.5-2.3c-2,0-3.8,0.5-5.4,1.4c-1.6,1-2.9,2.2-4.1,3.8
		c-1.1,1.5-2,3.3-2.6,5.2s-0.9,3.9-0.9,5.8c0,2.6,0.6,4.7,1.7,6.3C446.6,273.6,448.4,274.3,450.9,274.3z"/>
	<path id="XMLID_564_" class="st0" d="M482.8,277.7c-0.6,0-1.2,0-1.9,0c-0.7,0-1.4-0.1-2.1-0.1c-0.7-0.1-1.4-0.1-2.1-0.2
		s-1.3-0.2-1.8-0.4l7.1-30c1.2-0.3,2.6-0.5,4.2-0.6c1.5-0.1,2.9-0.2,4.1-0.2c1.5,0,2.9,0.1,4.2,0.4c1.3,0.3,2.3,0.7,3.3,1.2
		c0.9,0.5,1.6,1.3,2.1,2.2s0.8,2,0.8,3.2c0,1.8-0.5,3.4-1.6,4.8s-2.6,2.4-4.5,3.1c1.3,0.5,2.3,1.2,3.1,2.2c0.8,1,1.2,2.2,1.2,3.6
		c0,2-0.4,3.8-1.2,5.2c-0.8,1.4-2,2.5-3.4,3.4c-1.4,0.8-3.1,1.4-5.1,1.8C487.1,277.6,485,277.7,482.8,277.7z M482.4,263l-2.6,11
		c0.3,0.1,0.8,0.1,1.5,0.2c0.7,0,1.5,0.1,2.5,0.1c1.1,0,2.3-0.1,3.5-0.2c1.2-0.2,2.4-0.5,3.4-1s1.9-1.2,2.6-2.1s1-2.1,1-3.6
		s-0.5-2.5-1.6-3.3c-1-0.7-2.7-1.1-5-1.1H482.4z M483.2,259.6h4.2c1,0,2-0.1,3-0.2c1-0.2,2-0.5,2.8-0.9s1.5-1,2.1-1.8
		c0.5-0.7,0.8-1.7,0.8-2.8c0-1.5-0.6-2.6-1.7-3.2c-1.1-0.6-2.8-0.9-5.2-0.9c-0.8,0-1.5,0-2.3,0.1c-0.7,0.1-1.2,0.1-1.5,0.2
		L483.2,259.6z"/>
</g>
</svg>
