<?xml version="1.0" encoding="utf-8"?>
<!-- Generator: Adobe Illustrator 21.1.0, SVG Export Plug-In . SVG Version: 6.00 Build 0)  -->
<svg version="1.1" id="Слой_1" xmlns="http://www.w3.org/2000/svg" xmlns:xlink="http://www.w3.org/1999/xlink" x="0px" y="0px"
	 viewBox="0 0 372.8 176.8" style="enable-background:new 0 0 372.8 176.8;" xml:space="preserve" preserveAspectRatio="none">
<style type="text/css">
	.st0{fill:#FFFFFF;}
	.st1{fill:#E73A24;}
</style>
<g id="XMLID_373_">
	<path id="XMLID_374_" class="st0" d="M2.9,13H0L3.1,0.1h8l-0.6,2.5H5.4L2.9,13z"/>
	<path id="XMLID_376_" class="st0" d="M17.7,13c0-0.5-0.1-1-0.1-1.4c0-0.5-0.1-0.9-0.1-1.4h-4.8c-0.2,0.5-0.5,0.9-0.8,1.4
		s-0.5,0.9-0.8,1.4h-3c0.8-1.4,1.6-2.7,2.3-3.8c0.7-1.2,1.4-2.3,2-3.3c0.7-1,1.3-2,1.9-3C14.9,2,15.5,1,16.1,0.1h2.6
		c0.2,0.9,0.4,1.9,0.6,3s0.3,2.2,0.5,3.3s0.3,2.3,0.4,3.4s0.3,2.2,0.4,3.2C20.6,13,17.7,13,17.7,13z M16.8,3c-0.5,0.8-1,1.7-1.5,2.5
		s-1,1.7-1.5,2.5h3.5c-0.1-0.8-0.1-1.6-0.2-2.4C17,4.7,16.9,3.8,16.8,3z"/>
	<path id="XMLID_379_" class="st0" d="M30.2,0c0.8,0,1.5,0.1,2.1,0.3s1.2,0.4,1.6,0.7c0.4,0.3,0.8,0.7,1,1.2s0.4,1,0.4,1.5
		c0,0.9-0.2,1.7-0.5,2.4c-0.4,0.6-0.9,1.2-1.5,1.6C32.6,8,31.8,8.3,31,8.5c-0.9,0.2-1.8,0.3-2.8,0.3h-0.7l-1,4.3h-2.9l3-12.7
		c0.7-0.1,1.3-0.2,1.9-0.3C29.1,0,29.7,0,30.2,0z M30,2.4c-0.2,0-0.4,0-0.5,0s-0.3,0-0.4,0l-0.9,3.8h0.7c0.5,0,1,0,1.4-0.1
		s0.8-0.2,1.1-0.4C31.6,5.6,31.9,5.3,32,5c0.1-0.3,0.3-0.6,0.3-1.1c0-0.6-0.2-1-0.6-1.2C31.3,2.6,30.7,2.4,30,2.4z"/>
	<path id="XMLID_382_" class="st0" d="M43.7,13c0-0.5-0.1-1-0.1-1.4c0-0.5-0.1-0.9-0.1-1.4h-4.8c-0.2,0.5-0.5,0.9-0.8,1.4
		s-0.5,0.9-0.8,1.4h-3c0.8-1.4,1.6-2.7,2.3-3.8c0.7-1.2,1.4-2.3,2-3.3c0.7-1,1.3-2,1.9-3C40.9,2,41.6,1,42.2,0.1h2.6
		C45,1,45.2,2,45.4,3.1s0.3,2.2,0.5,3.3s0.3,2.3,0.4,3.4c0.1,1.1,0.3,2.2,0.4,3.2C46.7,13,43.7,13,43.7,13z M42.9,3
		c-0.5,0.8-1,1.7-1.5,2.5s-1,1.7-1.5,2.5h3.5c-0.1-0.8-0.1-1.6-0.2-2.4C43.1,4.7,43,3.8,42.9,3z"/>
	<path id="XMLID_385_" class="st0" d="M60.2,0.1h2.9L60,13h-2.9l1.3-5.5h-4.6L52.5,13h-2.9l3.1-12.9h2.9L54.4,5H59L60.2,0.1z"/>
	<path id="XMLID_387_" class="st0" d="M76.3,0.1l-0.6,2.4H72L69.5,13h-2.9l2.5-10.4h-3.8l0.6-2.4h10.4V0.1z"/>
	<path id="XMLID_389_" class="st0" d="M76.2,13l3.1-12.9h2.9l-1.8,7.6c0.6-0.7,1.2-1.4,1.8-2c0.6-0.7,1.2-1.4,1.9-2
		c0.6-0.7,1.2-1.3,1.8-1.9c0.6-0.6,1.2-1.1,1.7-1.6H90L86.8,13H84l2-8.4c-0.7,0.7-1.4,1.5-2,2.2s-1.3,1.4-1.9,2.1s-1.2,1.4-1.8,2.1
		c-0.6,0.7-1.2,1.4-1.8,2.1h-2.3V13z"/>
	<path id="XMLID_391_" class="st0" d="M92.9,4.9c0-0.9,0.2-1.7,0.6-2.4C93.8,2,94.3,1.4,95,1.1c0.6-0.4,1.3-0.7,2.1-0.8
		C97.9,0.1,98.7,0,99.6,0c0.7,0,1.4,0,2,0.1s1.2,0.2,1.8,0.3l-3,12.6h-2.9l1.1-4.6h-0.4c-0.2,0-0.4,0-0.6,0s-0.4,0-0.7,0
		c-0.5,0.6-1.1,1.3-1.8,2.1c-0.7,0.8-1.3,1.7-1.9,2.6h-3c0.3-0.5,0.7-1,1.1-1.5s0.8-1,1.1-1.5c0.4-0.5,0.7-0.9,1.1-1.3
		c0.3-0.4,0.7-0.7,0.9-1c-0.6-0.4-1-0.8-1.2-1.3C93,6.1,92.9,5.5,92.9,4.9z M100,2.5c-0.2,0-0.4,0-0.6-0.1c-0.2,0-0.4,0-0.5,0
		c-0.4,0-0.8,0-1.1,0.1c-0.4,0.1-0.7,0.2-0.9,0.3c-0.3,0.2-0.5,0.4-0.7,0.6C96,3.7,96,4,96,4.4s0.1,0.8,0.4,1
		C96.7,5.9,97.2,6,97.9,6h1.2L100,2.5z"/>
</g>
<g id="XMLID_345_">
	<path id="XMLID_346_" class="st0" d="M33.5,22.5h20.2l-7.1,29.4h-2.9L50.3,25H35.8l-6.4,26.9h-2.9L33.5,22.5z"/>
	<path id="XMLID_348_" class="st0" d="M58.5,40.9c0-2.9,0.5-5.5,1.4-7.9c1-2.4,2.2-4.4,3.8-6c1.6-1.7,3.4-2.9,5.4-3.8s4-1.3,6.1-1.3
		c1.4,0,2.7,0.2,4,0.7s2.4,1.2,3.3,2.1c1,0.9,1.7,2.1,2.3,3.6c0.6,1.5,0.8,3.2,0.8,5.1c0,2.9-0.5,5.6-1.4,7.9c-1,2.4-2.2,4.4-3.8,6
		C78.8,49,77,50.2,75,51.1c-2,0.9-4,1.3-6.1,1.3c-1.4,0-2.7-0.2-4-0.7c-1.3-0.5-2.4-1.2-3.3-2.1c-1-0.9-1.7-2.1-2.3-3.6
		C58.7,44.6,58.5,42.9,58.5,40.9z M61.5,41.4c0,1.4,0.2,2.7,0.6,3.8c0.4,1.1,0.9,2,1.7,2.6c0.7,0.7,1.5,1.2,2.4,1.6
		c0.9,0.4,1.9,0.5,3,0.5c1.7,0,3.4-0.4,5-1.1c1.6-0.7,3-1.8,4.3-3.3c1.2-1.4,2.2-3.2,3-5.3s1.1-4.5,1.1-7.2c0-1.4-0.2-2.7-0.6-3.8
		c-0.4-1.1-0.9-2-1.7-2.6c-0.7-0.7-1.5-1.2-2.5-1.6c-0.9-0.4-1.9-0.5-3-0.5c-1.7,0-3.4,0.4-5,1.1s-3,1.8-4.3,3.3
		c-1.3,1.4-2.3,3.2-3,5.3C61.9,36.2,61.5,38.6,61.5,41.4z"/>
	<path id="XMLID_351_" class="st0" d="M100.9,25h-9l0.6-2.5h20.9l-0.6,2.5h-9l-6.4,26.9h-2.9L100.9,25z"/>
	<path id="XMLID_353_" class="st0" d="M120.1,22.5h16.4l-0.6,2.5h-13.6l-2.5,10.2h12.1l-0.6,2.5h-12l-2.9,11.7H131l-0.5,2.5H113
		L120.1,22.5z"/>
	<path id="XMLID_355_" class="st0" d="M144.7,23c1.1-0.2,2.2-0.4,3.5-0.6c1.2-0.2,2.5-0.2,3.7-0.2c3.4,0,5.8,0.6,7.4,1.9
		c1.6,1.3,2.4,3.1,2.4,5.5c0,1.6-0.3,3-1,4.4c-0.6,1.3-1.6,2.5-2.8,3.4c-1.2,1-2.7,1.7-4.5,2.2s-3.8,0.8-6.1,0.8h-4l-2.7,11.4h-2.9
		L144.7,23z M147.8,38c3.5,0,6.1-0.7,8-2.1c1.9-1.4,2.8-3.4,2.8-5.9c0-1.8-0.6-3.2-1.8-4s-3.1-1.3-5.6-1.3c-0.7,0-1.5,0-2.2,0.1
		s-1.4,0.1-2,0.2l-3,13H147.8z"/>
	<path id="XMLID_358_" class="st0" d="M171.4,22.5h2.8l-5.8,24.3c0.7-1,1.6-2.1,2.6-3.4c1-1.3,2.2-2.7,3.4-4.1
		c1.2-1.5,2.5-3,3.9-4.5c1.4-1.6,2.7-3.1,4.1-4.5c1.4-1.5,2.7-2.9,4-4.2c1.3-1.3,2.5-2.5,3.7-3.5h2.6L185.6,52h-2.7l5.9-24.6
		c-0.9,0.8-1.9,1.9-3.1,3.1c-1.2,1.3-2.4,2.6-3.8,4.1c-1.3,1.5-2.7,3-4.1,4.6c-1.4,1.6-2.7,3.2-4,4.7c-1.3,1.6-2.5,3-3.6,4.4
		s-2.1,2.6-2.9,3.6h-2.9L171.4,22.5z"/>
	<path id="XMLID_360_" class="st0" d="M214.2,23c0.9-0.2,2-0.4,3.2-0.6s2.5-0.3,3.9-0.3c1.2,0,2.4,0.1,3.6,0.3
		c1.2,0.2,2.2,0.6,3.1,1.1c0.9,0.5,1.7,1.2,2.2,2.1c0.6,0.9,0.8,1.9,0.8,3.2c0,1-0.2,1.9-0.5,2.7s-0.8,1.5-1.3,2.2
		c-0.6,0.6-1.2,1.2-1.9,1.7s-1.5,0.8-2.3,1.1c0.6,0.2,1.2,0.4,1.8,0.8c0.5,0.4,1,0.8,1.3,1.3c0.4,0.5,0.6,1,0.8,1.7
		c0.2,0.6,0.3,1.2,0.3,1.8c0,2-0.4,3.7-1.2,5s-1.9,2.3-3.2,3.1s-2.8,1.3-4.6,1.6c-1.7,0.3-3.5,0.4-5.3,0.4c-1.4,0-2.7-0.1-3.9-0.2
		c-1.3-0.2-2.4-0.3-3.5-0.6L214.2,23z M210.7,49.3c0.6,0.1,1.2,0.2,1.9,0.2s1.5,0.1,2.2,0.1c1.4,0,2.7-0.1,4.1-0.3
		c1.3-0.2,2.5-0.6,3.6-1.1c1-0.6,1.9-1.3,2.5-2.3s1-2.2,1-3.8c0-1.7-0.6-2.8-1.7-3.5c-1.1-0.6-3-1-5.6-1h-5.4L210.7,49.3z M218,35.3
		c3.6,0,6.1-0.5,7.6-1.6s2.3-2.5,2.3-4.3c0-1.7-0.6-2.9-1.8-3.6s-3-1.1-5.5-1.1c-0.8,0-1.5,0-2.2,0.1s-1.3,0.1-1.9,0.2L214,35.3
		C214,35.3,218,35.3,218,35.3z"/>
	<path id="XMLID_364_" class="st0" d="M242.3,22.5h16.4l-0.6,2.5h-13.6L242,35.2h12.1l-0.6,2.5h-12l-2.9,11.7h14.6l-0.5,2.5h-17.5
		L242.3,22.5z"/>
	<path id="XMLID_366_" class="st0" d="M281.4,50.5c-1.2,0.6-2.5,1.1-3.9,1.4c-1.5,0.3-2.9,0.5-4.4,0.5c-1.6,0-3-0.2-4.3-0.7
		c-1.3-0.4-2.4-1.1-3.4-2c-0.9-0.9-1.7-2.1-2.2-3.5s-0.8-3.1-0.8-5.2c0-3,0.5-5.7,1.4-8.1s2.2-4.4,3.8-6.1c1.6-1.7,3.4-2.9,5.5-3.8
		s4.2-1.3,6.5-1.3c1.3,0,2.6,0.1,3.7,0.4s2.3,0.7,3.5,1.4l-1.3,2.6c-2-1.2-4.2-1.9-6.5-1.9c-1.8,0-3.5,0.4-5.1,1.2
		c-1.6,0.8-3.1,1.9-4.3,3.3c-1.2,1.4-2.2,3.2-3,5.2c-0.7,2-1.1,4.3-1.1,6.9c0,2.9,0.6,5.1,1.9,6.6c1.2,1.5,3.2,2.3,5.7,2.3
		c1.1,0,2.1-0.1,3-0.2c0.9-0.1,1.6-0.3,2.3-0.5c0.6-0.2,1.2-0.4,1.6-0.6c0.4-0.2,0.8-0.4,1.1-0.6L281.4,50.5z"/>
	<path id="XMLID_368_" class="st0" d="M308.9,51.8c-0.1-1.4-0.3-2.7-0.4-4s-0.3-2.7-0.5-4h-13.8c-0.7,1.3-1.5,2.6-2.2,3.9
		c-0.7,1.3-1.5,2.7-2.2,4.1h-3.1c2.9-5.3,5.9-10.4,9-15.3c3.1-5,6.1-9.7,9.1-14h3.1c0.7,4.1,1.4,8.6,2.1,13.4s1.4,10.1,2,16h-3.1
		V51.8z M305.5,25.8c-1.7,2.6-3.4,5.2-5.1,7.8c-1.6,2.5-3.2,5.1-4.8,7.8h12.1c-0.3-2.5-0.6-5.1-1-7.7
		C306.3,31.1,305.9,28.5,305.5,25.8z"/>
	<path id="XMLID_371_" class="st0" d="M330.4,36h42.4l-0.6,2.4h-42.3L330.4,36z"/>
</g>
<g>
	<g id="XMLID_338_">
		<path id="XMLID_339_" class="st0" d="M87.9,82.8H90c0.9-0.9,1.8-1.9,2.4-3c0.7-1.1,1.2-2.3,1.7-3.6c0.5-1.3,0.9-2.6,1.2-4
			c0.3-1.4,0.7-2.8,1-4.2h10.6l-3.6,14.9h2.6l-1.8,7.4h-3l1.1-4.7h-12l-1.1,4.7h-3L87.9,82.8z M98.8,70.7c-0.3,1.1-0.5,2.2-0.8,3.3
			c-0.3,1.1-0.6,2.2-1,3.2s-0.9,2-1.4,3s-1.1,1.8-1.8,2.6h6.5l2.9-12.1H98.8z"/>
		<path id="XMLID_342_" class="st0" d="M116.4,85.9c-1,0-1.9-0.2-2.7-0.5c-0.8-0.3-1.5-0.8-2.1-1.4s-1.1-1.3-1.4-2.2
			c-0.3-0.9-0.5-1.9-0.5-3c0-1.4,0.2-2.7,0.7-4.1c0.4-1.4,1.1-2.6,1.9-3.6c0.9-1.1,1.9-1.9,3.2-2.6c1.3-0.7,2.7-1,4.3-1
			c1,0,1.9,0.2,2.7,0.5c0.8,0.3,1.5,0.8,2.1,1.4s1.1,1.3,1.4,2.2c0.3,0.9,0.5,1.9,0.5,3c0,1.4-0.2,2.7-0.7,4.1
			c-0.4,1.4-1.1,2.6-1.9,3.6c-0.8,1.1-1.9,1.9-3.2,2.6C119.4,85.5,118,85.9,116.4,85.9z M119.4,70.3c-1,0-1.8,0.2-2.6,0.7
			c-0.8,0.5-1.5,1.1-2,1.9c-0.6,0.8-1,1.7-1.3,2.6c-0.3,1-0.5,2-0.5,3c0,1.4,0.3,2.5,0.9,3.3s1.5,1.2,2.8,1.2c1,0,1.8-0.2,2.6-0.7
			c0.8-0.5,1.5-1.1,2-1.9c0.6-0.8,1-1.7,1.3-2.6c0.3-1,0.5-2,0.5-3c0-1.4-0.3-2.5-0.9-3.3C121.6,70.7,120.7,70.3,119.4,70.3z"/>
	</g>
	<g id="XMLID_331_">
		<path id="XMLID_332_" class="st1" d="M171.1,100.5c2.6,1.1,4.8,3,6.6,5.7c1.8,2.6,2.7,5.8,2.7,9.5c0,3.2-0.6,6.2-1.8,9
			s-3,5.3-5.5,7.5c-2.4,2.2-5.5,3.9-9.2,5.2s-8.1,1.9-13.2,1.9c-4.3,0-8.1-0.5-11.4-1.4c-3.3-0.9-6-2-8-3l4.5-10
			c1.5,0.9,3.5,1.9,6.2,2.8c2.6,0.9,5.7,1.4,9.3,1.4c2.3,0,4.5-0.3,6.5-0.8c2.1-0.5,3.9-1.4,5.4-2.5s2.7-2.5,3.6-4.2
			c0.9-1.7,1.3-3.7,1.3-6.1c0-3.4-1.3-5.9-3.9-7.5c-2.6-1.6-6.1-2.4-10.6-2.4h-4.1l2.3-9.8h5.1c1.9,0,3.8-0.2,5.7-0.7
			c1.9-0.4,3.6-1.1,5.1-2s2.7-2.1,3.6-3.5c0.9-1.5,1.4-3.2,1.4-5.3c0-2.6-0.8-4.5-2.5-5.8s-4-2-6.9-2c-2.5,0-5,0.4-7.4,1.3
			c-2.5,0.8-4.8,1.9-6.9,3.1l-3-9.3c2.6-1.6,5.5-2.9,8.9-3.9s6.9-1.6,10.5-1.6c3.4,0,6.3,0.5,8.8,1.4s4.5,2.1,6.1,3.6
			s2.8,3.3,3.6,5.3s1.2,4.1,1.2,6.2c0,4-1.2,7.6-3.7,10.7C179,96.4,175.6,98.9,171.1,100.5z"/>
		<path id="XMLID_334_" class="st1" d="M256.7,137.8c-1.3-2.7-2.8-5.5-4.5-8.5c-1.7-2.9-3.4-5.8-5.3-8.6c-1.9-2.8-3.8-5.5-5.9-8
			c-2.1-2.5-4.1-4.7-6.1-6.6l-7.7,31.6h-12.8l16.8-70.2H244l-6.7,28.1c2.8-2.2,5.6-4.6,8.6-7.1s5.9-5,8.7-7.5s5.5-4.9,8-7.2
			c2.5-2.3,4.8-4.4,6.7-6.3h15.5c-2.8,2.6-5.7,5.3-8.9,8.1c-3.1,2.8-6.3,5.7-9.6,8.7c-3.3,2.9-6.6,5.8-9.9,8.7
			c-3.3,2.9-6.6,5.6-9.9,8.2c2.1,2.2,4.2,4.6,6.5,7.4c2.2,2.8,4.4,5.7,6.5,8.9c2.1,3.2,4.1,6.5,6,9.9c1.9,3.4,3.6,6.9,5.2,10.3
			L256.7,137.8L256.7,137.8z"/>
		<path id="XMLID_336_" class="st1" d="M291.6,137.8h-12.8l16.8-70.2h41.8l-2.5,10.8h-29L291.6,137.8z"/>
	</g>
</g>
<g id="XMLID_185_">
	<path id="XMLID_312_" class="st0" d="M126.7,161.1h2.2c0.5,0,0.9,0,1.4-0.1s0.9-0.2,1.3-0.4c0.4-0.2,0.7-0.5,0.9-0.8
		s0.3-0.7,0.3-1.2s-0.2-0.8-0.6-1c-0.4-0.2-0.9-0.3-1.5-0.3s-1.3,0.1-2.1,0.3c-0.7,0.2-1.5,0.5-2.2,0.9l-0.6-3.4
		c0.8-0.4,1.7-0.7,2.6-1c0.9-0.2,2-0.3,3.2-0.3c1,0,1.8,0.1,2.5,0.3s1.2,0.5,1.7,0.9c0.4,0.4,0.7,0.8,0.9,1.3s0.3,1,0.3,1.5
		c0,1-0.3,2-0.9,2.8c-0.6,0.8-1.4,1.5-2.6,1.9c0.9,0.5,1.5,1,1.8,1.7c0.3,0.6,0.5,1.3,0.5,1.9c0,0.7-0.2,1.4-0.5,2.1
		c-0.3,0.7-0.8,1.4-1.5,2s-1.6,1.1-2.6,1.5c-1.1,0.4-2.4,0.6-3.9,0.6c-1.1,0-2.2-0.1-3.3-0.4c-1-0.3-1.9-0.6-2.7-1.1l1.9-3.2
		c0.7,0.4,1.4,0.7,2.1,0.9s1.4,0.3,2.3,0.3c0.7,0,1.3-0.1,1.8-0.2c0.5-0.1,0.9-0.3,1.3-0.6c0.3-0.2,0.6-0.5,0.7-0.8
		c0.2-0.3,0.2-0.6,0.2-1c0-0.6-0.2-1.1-0.7-1.4c-0.5-0.3-1.2-0.5-2.2-0.5h-2.9L126.7,161.1z"/>
	<path id="XMLID_314_" class="st0" d="M154.1,172c0-0.7-0.1-1.3-0.1-2c0-0.6-0.1-1.3-0.1-1.9h-6.7c-0.3,0.6-0.7,1.3-1.1,1.9
		c-0.4,0.6-0.7,1.3-1.1,2h-4.2c1.1-1.9,2.2-3.7,3.1-5.3c1-1.6,1.9-3.2,2.8-4.6c0.9-1.4,1.8-2.8,2.6-4.1c0.9-1.3,1.7-2.6,2.6-3.8h3.6
		c0.3,1.2,0.5,2.6,0.8,4.1c0.2,1.5,0.5,3,0.7,4.6s0.4,3.2,0.6,4.7c0.2,1.6,0.3,3.1,0.5,4.4L154.1,172L154.1,172z M152.9,158.1
		c-0.7,1.2-1.4,2.3-2.1,3.4c-0.7,1.1-1.4,2.3-2,3.5h4.8c-0.1-1-0.2-2.2-0.3-3.4C153.2,160.5,153.1,159.3,152.9,158.1z"/>
	<path id="XMLID_317_" class="st0" d="M190.9,154.1h4l-4.3,17.9h-4l1.8-7.6H182l-1.8,7.6h-4l4.3-17.9h4l-1.7,6.9h6.4L190.9,154.1z"
		/>
	<path id="XMLID_319_" class="st0" d="M199.3,172l4.3-17.9h11.7l-0.8,3.3h-7.7L206,161h6.8l-0.8,3.3h-6.8l-1,4.4h8.3l-0.8,3.3
		L199.3,172L199.3,172z"/>
	<path id="XMLID_321_" class="st0" d="M219.3,168.6h2.3c0.8-0.7,1.5-1.6,2-2.6c0.6-1,1.1-2.1,1.5-3.2c0.4-1.1,0.8-2.3,1.1-3.4
		c0.3-1.1,0.6-2.2,0.8-3.2l0.5-2.1h11.7l-3.5,14.5h3.1l-2,8.2h-3.9l1.2-4.8h-11.9l-1.2,4.8h-3.8L219.3,168.6z M230.6,157.6
		c-0.3,1.2-0.6,2.2-0.8,3.2c-0.3,1-0.6,1.9-0.9,2.8c-0.3,0.9-0.7,1.7-1.1,2.6c-0.4,0.8-0.9,1.7-1.6,2.5h5.7l2.7-11.1H230.6z"/>
	<path id="XMLID_324_" class="st0" d="M245.5,172l4.3-17.9h11.7l-0.8,3.3H253l-0.8,3.6h6.8l-0.8,3.3h-6.8l-1,4.4h8.3l-0.8,3.3
		L245.5,172L245.5,172z"/>
	<path id="XMLID_326_" class="st0" d="M275.8,157.6c-0.6,2.4-1.1,4.5-1.7,6.3s-1.2,3.3-2,4.6c-0.8,1.2-1.7,2.2-2.8,2.8
		c-1.1,0.7-2.5,1-4.1,1.1l-0.4-3.5c0.9-0.1,1.6-0.3,2.3-0.7c0.6-0.4,1.2-1,1.7-1.7s0.9-1.5,1.3-2.4s0.7-1.9,1-3s0.6-2.2,0.9-3.4
		s0.5-2.4,0.8-3.6h11.7l-4.3,17.9h-4l3.5-14.5L275.8,157.6L275.8,157.6z"/>
	<path id="XMLID_328_" class="st0" d="M305.3,172.4c-1.1,0-2-0.2-2.9-0.5s-1.6-0.8-2.3-1.5c-0.6-0.6-1.1-1.4-1.5-2.4
		c-0.4-0.9-0.5-2-0.5-3.2v-0.5h-3.5l-1.8,7.6h-4l4.3-17.9h4l-1.7,6.9h3.3c0.3-1,0.8-1.9,1.4-2.8c0.6-0.9,1.3-1.7,2.1-2.3
		c0.8-0.7,1.7-1.2,2.7-1.6c1-0.4,2.1-0.6,3.3-0.6c1,0,2,0.2,2.9,0.5s1.6,0.8,2.3,1.5c0.6,0.6,1.1,1.4,1.5,2.4c0.4,0.9,0.5,2,0.5,3.1
		c0,1.3-0.2,2.7-0.7,4s-1.1,2.5-2,3.6s-1.9,1.9-3.2,2.6C308.4,172.1,306.9,172.4,305.3,172.4z M307.9,157.2c-0.8,0-1.5,0.2-2.2,0.6
		c-0.7,0.4-1.3,1-1.8,1.7s-0.9,1.5-1.2,2.4c-0.3,0.9-0.4,1.8-0.4,2.8c0,1.3,0.3,2.3,0.8,3.1s1.4,1.2,2.6,1.2c0.8,0,1.5-0.2,2.2-0.6
		c0.7-0.4,1.3-1,1.8-1.7s0.9-1.5,1.2-2.4c0.3-0.9,0.4-1.8,0.4-2.8c0-1.3-0.3-2.3-0.8-3.1C310,157.6,309.1,157.2,307.9,157.2z"/>
</g>
</svg>
