<?xml version="1.0" encoding="utf-8"?>
<!-- Generator: Adobe Illustrator 21.1.0, SVG Export Plug-In . SVG Version: 6.00 Build 0)  -->
<svg version="1.1" id="Слой_1" xmlns="http://www.w3.org/2000/svg" xmlns:xlink="http://www.w3.org/1999/xlink" x="0px" y="0px"
	 viewBox="0 0 1093 653" style="enable-background:new 0 0 1093 653;" xml:space="preserve" preserveAspectRatio="none">
<style type="text/css">
	.st0{fill:#FFFFFF;}
	.st1{fill:#E73A24;}
</style>
<g id="XMLID_1_">
	<path id="XMLID_9_" class="st0" d="M16.9,20.3L7.8,31.6l4.3,10.7l-4.7,2.2L0.2,30.7l12.3-13L16.9,20.3z M30.9,20.3l-9.1,11.3
		L26,42.3l-4.7,2.2l-7.2-13.8l12.3-13L30.9,20.3z"/>
	<path id="XMLID_12_" class="st0" d="M52,10.4c4.9,0,8.6,1,11.2,2.9c2.6,1.9,3.9,4.6,3.9,8.2c0,2.8-0.5,5.2-1.6,7.1
		c-1.1,2-2.5,3.6-4.4,4.8c-1.9,1.2-4.1,2.1-6.8,2.7c-2.6,0.6-5.5,0.8-8.7,0.8h-3.1L39,51.2h-7.4l9.5-39.8c1.9-0.4,3.7-0.6,5.6-0.8
		C48.6,10.5,50.4,10.4,52,10.4z M51.3,16.6c-0.7,0-1.4,0-2.1,0.1c-0.7,0-1.3,0.1-2,0.2L44,30.7h3c1.6,0,3.2-0.1,4.7-0.4
		c1.5-0.3,2.8-0.7,4-1.4c1.2-0.6,2.1-1.5,2.8-2.6c0.7-1.1,1-2.5,1-4.2c0-2-0.7-3.4-2.2-4.3C55.8,17,53.8,16.6,51.3,16.6z"/>
	<path id="XMLID_15_" class="st0" d="M77.7,10.8h7.4l-3.3,14.1c0.5-0.1,1.2-0.1,1.9-0.1c0.8,0,1.4,0,1.9,0c2.7,0,4.9,0.3,6.7,0.8
		c1.8,0.6,3.3,1.4,4.4,2.4c1.1,1,1.9,2.2,2.4,3.6c0.5,1.4,0.7,2.9,0.7,4.5c0,2.3-0.4,4.3-1.3,6.2c-0.8,1.9-2.1,3.5-3.8,4.9
		c-1.7,1.4-3.8,2.5-6.4,3.2c-2.6,0.8-5.6,1.2-9,1.2c-1.8,0-3.8-0.1-5.9-0.3c-2.1-0.2-3.9-0.5-5.4-0.9L77.7,10.8z M76.9,45.2
		c0.4,0.1,1,0.1,1.7,0.2c0.7,0,1.5,0.1,2.4,0.1c3.6,0,6.4-0.8,8.4-2.3c2-1.5,2.9-3.7,2.9-6.5c0-1.7-0.6-3.1-1.9-4.2
		c-1.3-1-3.3-1.6-6-1.6c-0.8,0-1.6,0-2.3,0.1c-0.8,0-1.4,0.1-1.9,0.1L76.9,45.2z M109.4,51.2h-7.2l9.7-40.4h7.2L109.4,51.2z"/>
	<path id="XMLID_19_" class="st0" d="M132.2,51.7c-2,0-4.1-0.1-6.3-0.3c-2.2-0.2-4.1-0.5-5.9-0.8l9.4-39.1c1.7-0.4,3.6-0.7,5.5-0.8
		c1.9-0.2,3.9-0.2,5.9-0.2c1.6,0,3.3,0.1,5,0.3c1.7,0.2,3.2,0.7,4.6,1.4c1.4,0.7,2.5,1.6,3.3,2.8c0.9,1.2,1.3,2.7,1.3,4.6
		c0,2.1-0.6,4-1.7,5.8c-1.1,1.8-3.1,3.3-5.8,4.4c1.7,0.7,3,1.7,4,3c0.9,1.3,1.4,2.9,1.4,4.6c0,4.5-1.8,8.1-5.3,10.5
		C144,50.4,138.9,51.7,132.2,51.7z M131.5,33l-3,12.4c0.5,0.1,1.3,0.1,2.2,0.2c0.9,0.1,1.9,0.1,3,0.1c1.3,0,2.6-0.1,4-0.3
		c1.4-0.2,2.7-0.6,3.8-1.1c1.1-0.5,2.1-1.3,2.8-2.3c0.8-1,1.1-2.3,1.1-3.9c0-1.5-0.6-2.7-1.7-3.6c-1.1-1-3-1.4-5.6-1.4H131.5z
		 M132.9,27.3h5.6c1.2,0,2.4-0.1,3.5-0.3c1.1-0.2,2.1-0.6,2.9-1.1c0.8-0.5,1.5-1.2,2-2c0.5-0.8,0.8-1.7,0.8-2.9c0-1.8-0.7-3-2-3.7
		c-1.3-0.7-3.1-1-5.4-1c-0.9,0-1.8,0-2.7,0.1c-0.9,0.1-1.6,0.1-2.2,0.2L132.9,27.3z"/>
	<path id="XMLID_23_" class="st0" d="M175.9,52.1c-2.3,0-4.3-0.4-6.2-1.1c-1.9-0.7-3.5-1.8-4.9-3.1c-1.4-1.4-2.4-3-3.2-5.1
		c-0.8-2-1.1-4.3-1.1-6.9c0-3.1,0.5-6.2,1.5-9.3c1-3.1,2.5-5.9,4.5-8.4c2-2.5,4.4-4.5,7.3-6c2.9-1.5,6.2-2.3,9.9-2.3
		c2.3,0,4.3,0.4,6.2,1.1c1.9,0.7,3.5,1.8,4.9,3.1c1.4,1.4,2.4,3,3.2,5.1c0.8,2,1.1,4.3,1.1,6.9c0,3.1-0.5,6.2-1.5,9.3
		c-1,3.1-2.5,5.9-4.4,8.4c-1.9,2.5-4.4,4.5-7.3,6C183,51.3,179.6,52.1,175.9,52.1z M182.8,16.2c-2.2,0-4.2,0.6-6,1.7
		c-1.8,1.1-3.3,2.6-4.6,4.3c-1.3,1.8-2.3,3.8-3,6.1c-0.7,2.3-1.1,4.6-1.1,6.9c0,3.2,0.7,5.7,2,7.6c1.4,1.9,3.5,2.9,6.5,2.9
		c2.2,0,4.2-0.6,6.1-1.7c1.8-1.1,3.4-2.6,4.7-4.3c1.3-1.8,2.3-3.8,3-6.1c0.7-2.3,1.1-4.6,1.1-6.9c0-3.2-0.7-5.7-2.1-7.6
		C188,17.2,185.8,16.2,182.8,16.2z"/>
	<path id="XMLID_26_" class="st0" d="M226.6,51.2c-0.8-1.6-1.6-3.2-2.6-4.9c-0.9-1.7-2-3.3-3-5c-1.1-1.6-2.2-3.1-3.4-4.6
		c-1.2-1.4-2.4-2.7-3.5-3.8l-4.4,18.2h-7.3l9.7-40.4h7.3L215.5,27c1.6-1.3,3.2-2.6,4.9-4.1c1.7-1.4,3.4-2.9,5-4.3
		c1.6-1.4,3.2-2.8,4.6-4.1c1.5-1.3,2.7-2.5,3.9-3.6h8.9c-1.6,1.5-3.3,3-5.1,4.7c-1.8,1.6-3.6,3.3-5.5,5c-1.9,1.7-3.8,3.4-5.7,5
		c-1.9,1.7-3.8,3.2-5.7,4.7c1.2,1.2,2.4,2.7,3.7,4.3c1.3,1.6,2.5,3.3,3.7,5.1c1.2,1.8,2.3,3.7,3.4,5.7c1.1,2,2.1,4,3,5.9H226.6z"/>
	<path id="XMLID_28_" class="st0" d="M238.7,41.9l9.1-11.3l-4.3-10.7l4.7-2.2l7.2,13.8l-12.3,13L238.7,41.9z M252.6,41.9l9.1-11.3
		l-4.3-10.7l4.7-2.2l7.2,13.8l-12.3,13L252.6,41.9z"/>
	<path id="XMLID_31_" class="st0" d="M290.4,45.6c0.9,0,1.8-0.1,2.5-0.3c0.7-0.2,1.4-0.5,2.1-0.9c0.7-0.4,1.3-0.9,2-1.6
		c0.7-0.6,1.3-1.4,2-2.3c-0.9-2.5-1.7-5.1-2.5-7.7c-0.8-2.7-1.5-5.3-2.2-7.9c-0.7-2.6-1.2-5.1-1.7-7.5c-0.5-2.4-0.9-4.6-1.1-6.6h7.9
		c0.4,3.3,1,6.8,1.8,10.7c0.8,3.9,1.7,7.8,2.9,11.8c2-3.2,4-6.7,6.1-10.5c2.1-3.9,4.2-7.9,6.3-12h8c-3.1,5.6-6,10.8-8.8,15.5
		c-2.8,4.7-5.6,9.1-8.4,13.2c-1.2,1.7-2.3,3.4-3.5,4.9c-1.2,1.5-2.4,2.8-3.8,3.9c-1.3,1.1-2.8,2-4.5,2.6c-1.6,0.6-3.5,0.9-5.6,0.9
		c-1.2,0-2.3-0.1-3.4-0.4c-1.1-0.3-2-0.6-2.7-1l2.3-5.9c0.6,0.3,1.2,0.5,1.9,0.7C288.7,45.5,289.5,45.6,290.4,45.6z"/>
	<path id="XMLID_33_" class="st0" d="M350.4,49.4c-1.3,0.7-2.9,1.3-4.9,1.8c-2,0.5-4.4,0.8-7.2,0.8c-2.5,0-4.7-0.4-6.6-1.1
		c-1.9-0.8-3.6-1.9-5-3.3c-1.4-1.4-2.4-3.2-3.1-5.2c-0.7-2-1.1-4.3-1.1-6.8c0-3.3,0.5-6.4,1.6-9.5c1.1-3.1,2.7-5.8,4.7-8.2
		c2.1-2.4,4.6-4.3,7.5-5.8c3-1.5,6.3-2.2,10-2.2c2.4,0,4.6,0.3,6.4,0.8c1.8,0.5,3.4,1.2,4.7,2l-2.8,5.9c-1.2-0.7-2.6-1.3-4-1.7
		c-1.4-0.4-3-0.6-4.8-0.6c-2.4,0-4.6,0.5-6.6,1.6c-1.9,1.1-3.6,2.5-5,4.3c-1.4,1.8-2.4,3.8-3.1,6c-0.7,2.3-1.1,4.5-1.1,6.9
		c0,3.6,0.8,6.3,2.4,8c1.6,1.7,3.9,2.6,6.9,2.6c2.3,0,4.3-0.3,5.9-0.8c1.6-0.5,3-1.1,4.2-1.6L350.4,49.4z"/>
	<path id="XMLID_35_" class="st0" d="M395.1,10.8l-1.5,6.2h-12l-8.2,34.2H366l8.2-34.2h-12l1.5-6.2H395.1z"/>
	<path id="XMLID_37_" class="st0" d="M414.2,51.2c-0.1-1.6-0.2-3.3-0.4-4.9c-0.1-1.6-0.3-3.2-0.5-4.7h-16.5
		c-0.8,1.5-1.7,3.1-2.6,4.6c-0.9,1.6-1.8,3.2-2.7,4.9h-7.9c2.4-4.1,4.6-8,6.8-11.7c2.2-3.6,4.3-7.1,6.3-10.4c2-3.3,4.1-6.5,6.1-9.5
		c2-3,4-6,6-8.8h6.8c1.2,5.8,2.3,12.1,3.2,19c0.9,6.9,1.8,14,2.6,21.4H414.2z M410.8,18.5c-1.5,2.3-3.1,4.9-4.9,7.7
		c-1.8,2.9-3.7,6-5.7,9.6h12.7c-0.2-2.8-0.5-5.6-0.8-8.5C411.6,24.4,411.2,21.5,410.8,18.5z"/>
	<path id="XMLID_40_" class="st0" d="M460.8,10.8h7.3l-9.7,40.4h-7.3l4.4-17.9H439l-4.4,17.9h-7.3l9.7-40.4h7.3L440.4,27h16.5
		L460.8,10.8z"/>
	<path id="XMLID_42_" class="st0" d="M486.9,52.1c-2.3,0-4.3-0.4-6.2-1.1c-1.9-0.7-3.5-1.8-4.9-3.1c-1.4-1.4-2.4-3-3.2-5.1
		c-0.8-2-1.1-4.3-1.1-6.9c0-3.1,0.5-6.2,1.5-9.3c1-3.1,2.5-5.9,4.5-8.4c2-2.5,4.4-4.5,7.3-6c2.9-1.5,6.2-2.3,9.9-2.3
		c2.3,0,4.3,0.4,6.2,1.1c1.9,0.7,3.5,1.8,4.9,3.1c1.4,1.4,2.4,3,3.2,5.1c0.8,2,1.1,4.3,1.1,6.9c0,3.1-0.5,6.2-1.5,9.3
		c-1,3.1-2.5,5.9-4.4,8.4c-1.9,2.5-4.4,4.5-7.3,6C494,51.3,490.6,52.1,486.9,52.1z M493.9,16.2c-2.2,0-4.2,0.6-6,1.7
		c-1.8,1.1-3.3,2.6-4.6,4.3c-1.3,1.8-2.3,3.8-3,6.1c-0.7,2.3-1.1,4.6-1.1,6.9c0,3.2,0.7,5.7,2,7.6c1.4,1.9,3.5,2.9,6.5,2.9
		c2.2,0,4.2-0.6,6.1-1.7c1.8-1.1,3.4-2.6,4.7-4.3c1.3-1.8,2.3-3.8,3-6.1c0.7-2.3,1.1-4.6,1.1-6.9c0-3.2-0.7-5.7-2.1-7.6
		C499,17.2,496.8,16.2,493.9,16.2z"/>
	<path id="XMLID_45_" class="st0" d="M525.7,51.7c-2,0-4.1-0.1-6.3-0.3c-2.2-0.2-4.1-0.5-5.9-0.8l9.4-39.1c1.7-0.4,3.6-0.7,5.5-0.8
		c1.9-0.2,3.9-0.2,5.9-0.2c1.6,0,3.3,0.1,5,0.3c1.7,0.2,3.2,0.7,4.6,1.4c1.4,0.7,2.5,1.6,3.3,2.8c0.9,1.2,1.3,2.7,1.3,4.6
		c0,2.1-0.6,4-1.7,5.8c-1.1,1.8-3.1,3.3-5.8,4.4c1.7,0.7,3,1.7,4,3c0.9,1.3,1.4,2.9,1.4,4.6c0,4.5-1.8,8.1-5.3,10.5
		C537.5,50.4,532.4,51.7,525.7,51.7z M525,33l-3,12.4c0.5,0.1,1.3,0.1,2.2,0.2c0.9,0.1,1.9,0.1,3,0.1c1.3,0,2.6-0.1,4-0.3
		c1.4-0.2,2.7-0.6,3.8-1.1c1.1-0.5,2.1-1.3,2.8-2.3c0.8-1,1.1-2.3,1.1-3.9c0-1.5-0.6-2.7-1.7-3.6c-1.1-1-3-1.4-5.6-1.4H525z
		 M526.4,27.3h5.6c1.2,0,2.4-0.1,3.5-0.3c1.1-0.2,2.1-0.6,2.9-1.1c0.8-0.5,1.5-1.2,2-2c0.5-0.8,0.8-1.7,0.8-2.9c0-1.8-0.7-3-2-3.7
		c-1.3-0.7-3.1-1-5.4-1c-0.9,0-1.8,0-2.7,0.1c-0.9,0.1-1.6,0.1-2.2,0.2L526.4,27.3z"/>
	<path id="XMLID_49_" class="st0" d="M551.5,51.2l9.7-40.4h7.3l-6.5,27c1.7-2.1,3.7-4.3,5.9-6.7c2.2-2.4,4.4-4.9,6.6-7.3
		c2.3-2.4,4.5-4.8,6.7-7c2.2-2.3,4.3-4.3,6.3-6h6.1l-9.7,40.4h-7.3l7-28.9c-2.1,2.1-4.3,4.4-6.6,6.8c-2.3,2.4-4.5,4.9-6.8,7.4
		c-2.2,2.5-4.4,5-6.5,7.5c-2.1,2.5-4,4.9-5.8,7.1H551.5z"/>
	<path id="XMLID_51_" class="st0" d="M615.2,17.1c-1.1,4.9-2.3,9.3-3.5,13.4c-1.2,4.1-2.7,7.7-4.3,10.8c-0.7,1.2-1.5,2.5-2.5,3.7
		c-1,1.2-2.1,2.3-3.3,3.3c-1.3,1-2.7,1.8-4.4,2.4c-1.7,0.6-3.5,1-5.7,1.2l-0.7-6.4c2.7-0.3,5-1.2,6.8-2.9c1.9-1.6,3.5-3.9,4.9-6.9
		c1.4-2.9,2.6-6.5,3.7-10.7c1.1-4.2,2.2-8.9,3.3-14.2h24.4l-9.6,40.4H617l8.1-34.1H615.2z"/>
</g>
<g id="XMLID_2_">
	<path id="XMLID_53_" class="st0" d="M302.3,72.3c3.3-0.7,6.8-1.3,10.6-1.8c3.8-0.5,7.6-0.7,11.5-0.7c10.3,0,17.9,1.9,22.7,5.8
		c4.8,3.9,7.3,9.5,7.3,16.9c0,4.8-1,9.3-2.9,13.4c-2,4.1-4.8,7.6-8.4,10.5c-3.7,2.9-8.3,5.2-13.7,6.9c-5.5,1.6-11.7,2.5-18.7,2.5
		h-12.2l-8.4,34.8h-8.8L302.3,72.3z M311.7,118.1c10.6,0,18.8-2.2,24.6-6.5c5.8-4.3,8.7-10.3,8.7-17.9c0-5.6-1.8-9.7-5.4-12.3
		c-3.6-2.6-9.3-3.9-17.1-3.9c-2.2,0-4.5,0.1-6.7,0.3c-2.2,0.2-4.2,0.4-6,0.6l-9.7,39.7H311.7z"/>
	<path id="XMLID_56_" class="st0" d="M378.6,70.6h50.2l-1.7,7.7h-41.6l-7.6,31.3h37l-1.7,7.5h-36.9l-8.9,35.8H412l-1.6,7.7H357
		L378.6,70.6z"/>
	<path id="XMLID_58_" class="st0" d="M449.2,70.6h8.7l-9.8,41.3c4.2-3,8.8-6.5,13.8-10.4c5-3.9,9.8-7.8,14.6-11.7
		c4.8-3.9,9.1-7.5,13.2-11c4-3.4,7.2-6.2,9.5-8.4h11.7c-2.9,2.6-6.5,5.7-10.9,9.5c-4.4,3.7-9.1,7.6-14,11.5
		c-4.9,4-9.9,7.9-14.9,11.9c-5,3.9-9.4,7.5-13.4,10.6c3.1,2.3,6.4,5.4,9.7,9.2c3.4,3.8,6.6,7.8,9.8,12.2c3.2,4.3,6.1,8.7,8.8,13.1
		c2.7,4.4,4.8,8.4,6.4,12.1h-9.6c-5-9.7-10.4-18.4-16.2-26c-5.8-7.6-12.2-14-19.4-19.2l-10.6,45.2h-8.8L449.2,70.6z"/>
	<path id="XMLID_60_" class="st0" d="M508.2,127.1c0-8.9,1.5-17,4.4-24.2c2.9-7.2,6.8-13.4,11.7-18.4c4.8-5.1,10.3-9,16.4-11.7
		c6.1-2.7,12.3-4.1,18.8-4.1c4.2,0,8.3,0.7,12.2,2.1c3.9,1.4,7.3,3.6,10.3,6.5c2.9,2.9,5.3,6.6,7,11c1.7,4.5,2.6,9.7,2.6,15.6
		c0,9-1.5,17.1-4.4,24.3c-2.9,7.2-6.8,13.4-11.7,18.4c-4.8,5.1-10.3,9-16.5,11.7c-6.1,2.7-12.4,4.1-18.7,4.1
		c-4.3,0-8.4-0.7-12.3-2.1c-3.9-1.4-7.2-3.6-10.2-6.5c-2.9-2.9-5.3-6.6-7-11C509.1,138.4,508.2,133.1,508.2,127.1z M517.5,128.5
		c0,4.4,0.6,8.3,1.8,11.5c1.2,3.3,2.9,6,5.1,8.1c2.2,2.1,4.6,3.7,7.5,4.8c2.8,1.1,5.9,1.6,9.1,1.6c5.3,0,10.4-1.1,15.3-3.4
		c4.9-2.3,9.3-5.6,13.1-10.1c3.8-4.4,6.9-9.8,9.2-16.3c2.3-6.4,3.5-13.8,3.5-22.1c0-4.4-0.6-8.3-1.8-11.6c-1.2-3.3-2.9-6-5.1-8.1
		c-2.2-2.1-4.7-3.7-7.5-4.8c-2.9-1.1-5.9-1.6-9.1-1.6c-5.3,0-10.4,1.1-15.3,3.4c-4.9,2.3-9.3,5.6-13.2,10.1
		c-3.9,4.4-6.9,9.8-9.2,16.3C518.7,112.8,517.5,120.2,517.5,128.5z"/>
	<path id="XMLID_63_" class="st0" d="M621.9,72.3c3.3-0.7,6.8-1.3,10.6-1.8c3.8-0.5,7.6-0.7,11.5-0.7c10.3,0,17.9,1.9,22.7,5.8
		c4.8,3.9,7.3,9.5,7.3,16.9c0,4.8-1,9.3-2.9,13.4c-2,4.1-4.8,7.6-8.4,10.5c-3.7,2.9-8.3,5.2-13.7,6.9c-5.5,1.6-11.7,2.5-18.7,2.5
		h-12.2l-8.4,34.8h-8.8L621.9,72.3z M631.3,118.1c10.6,0,18.7-2.2,24.6-6.5c5.8-4.3,8.7-10.3,8.7-17.9c0-5.6-1.8-9.7-5.4-12.3
		c-3.6-2.6-9.3-3.9-17.1-3.9c-2.2,0-4.5,0.1-6.7,0.3c-2.2,0.2-4.2,0.4-6,0.6l-9.7,39.7H631.3z"/>
	<path id="XMLID_66_" class="st0" d="M753.3,70.6l-19.6,82.3h9.1l-7.7,31.7h-8.4l5.8-24h-62.8l-5.8,24h-8.1l7.7-31.7h6.9
		c5.4-4.4,10.1-9.8,14.1-16.2c3.9-6.4,7.3-13.1,10-20.3c2.8-7.2,5.1-14.5,7.1-21.9c1.9-7.4,3.7-14.4,5.1-21.1l0.6-2.9H753.3z
		 M714,78.3l-0.4,1.8c-1,4.9-2.4,10.6-4,17.1c-1.6,6.4-3.7,13-6.2,19.7c-2.5,6.7-5.5,13.2-9,19.5c-3.5,6.3-7.6,11.8-12.4,16.5h42.9
		l17.9-74.6H714z"/>
	<path id="XMLID_69_" class="st0" d="M764.5,162.2c-2.2,0-3.9-0.6-4.9-1.9c-1-1.3-1.6-2.7-1.6-4.3c0-1.9,0.6-3.7,1.9-5.4
		c1.3-1.7,3.1-2.5,5.5-2.5c2.2,0,3.9,0.6,4.9,1.9c1,1.3,1.6,2.7,1.6,4.3c0,1.9-0.6,3.7-1.9,5.4C768.7,161.4,766.8,162.2,764.5,162.2
		z M778.1,107.6c-2.3,0-3.9-0.6-4.9-1.9c-1-1.3-1.6-2.7-1.6-4.3c0-1.9,0.6-3.7,1.9-5.4c1.3-1.7,3.1-2.5,5.4-2.5
		c2.2,0,3.9,0.6,4.9,1.9c1,1.3,1.6,2.7,1.6,4.3c0,1.9-0.7,3.7-1.9,5.4C782.3,106.7,780.5,107.6,778.1,107.6z"/>
</g>
<g id="XMLID_3_">
	<path id="XMLID_72_" class="st1" d="M170,247.3c11.8-4.3,24-9.9,36.6-16.6c12.6-6.8,24.1-14.7,34.6-23.9h24.2l-47,195.2h-34.1
		l35.8-148.4c-6,3.9-13.1,7.7-21.3,11.4c-8.2,3.7-16.2,6.8-24.1,9.4L170,247.3z"/>
	<path id="XMLID_74_" class="st1" d="M358.7,406.2c-8.6,0-16-1.5-22.1-4.4c-6.1-2.9-11.1-6.9-15.1-12.1c-3.9-5.2-6.8-11.3-8.6-18.5
		c-1.8-7.1-2.7-14.9-2.7-23.4c0-17.7,2.1-35.2,6.3-52.5c4.2-17.4,10.4-33,18.5-46.8c8.1-13.8,18-25,29.9-33.5
		c11.8-8.5,25.3-12.8,40.3-12.8c8.6,0,16,1.5,22.1,4.4c6.1,2.9,11.1,6.9,15.1,12.1c3.9,5.2,6.9,11.3,8.7,18.5
		c1.9,7.1,2.8,14.9,2.8,23.4c0,17.7-2.1,35.2-6.3,52.5c-4.2,17.4-10.4,33-18.6,46.8c-8.2,13.8-18.1,25-29.9,33.5
		C387.4,401.9,374,406.2,358.7,406.2z M363.5,376.6c6,0,11.6-1.8,16.8-5.4c5.2-3.6,9.9-8.3,14.2-14.2c4.3-5.9,8.1-12.7,11.4-20.4
		c3.3-7.7,6.1-15.7,8.3-23.9c2.3-8.3,4-16.5,5.2-24.6c1.2-8.2,1.8-15.8,1.8-23c0-11.8-1.6-20.4-4.8-25.6c-3.2-5.3-8.5-7.9-15.8-7.9
		c-6,0-11.6,1.8-16.9,5.4c-5.3,3.6-10,8.4-14.2,14.4c-4.2,6-8,12.9-11.3,20.6c-3.3,7.7-6.1,15.7-8.5,23.9
		c-2.4,8.3-4.1,16.5-5.2,24.8c-1.1,8.3-1.7,15.9-1.7,22.8c0,11.8,1.6,20.3,4.8,25.5C351,374.1,356.2,376.6,363.5,376.6z"/>
	<path id="XMLID_77_" class="st1" d="M594.5,233.3c-25.2,0.4-46.2,5.2-63,14.4c-16.8,9.2-29.1,22.9-36.8,41.1
		c5.1-2.4,10.9-4.5,17.5-6.1c6.6-1.6,13.1-2.4,19.7-2.4c15.6,0,27.7,4.5,36.3,13.4c8.6,8.9,13,21,13,36.2c0,10.7-1.7,20.7-5.1,30
		c-3.4,9.3-8.3,17.4-14.8,24.2c-6.5,6.9-14.3,12.3-23.5,16.2c-9.2,3.9-19.5,5.9-31,5.9c-8.4,0-16.2-1.4-23.1-4.2
		c-7-2.8-12.9-6.9-17.9-12.3c-5-5.4-8.8-11.9-11.5-19.6c-2.7-7.7-4.1-16.5-4.1-26.5c0-18,3.1-35.4,9.3-52.1
		c6.2-16.7,15.2-31.5,27-44.2c11.8-12.8,26.5-23,43.9-30.6c17.5-7.6,37.6-11.4,60.6-11.4c0.9,0,2.1,0,3.4,0c1.3,0,2.7,0.1,4.2,0.3
		L594.5,233.3z M548.3,332.7c0-9-2.3-15.5-6.9-19.6c-4.6-4-11.1-6.1-19.6-6.1c-11.6,0-22.9,2.4-33.8,7.3c-1.5,4.9-2.7,9.8-3.5,14.6
		c-0.8,4.9-1.3,9.5-1.3,13.8c0,10.3,2.1,18.8,6.3,25.4c4.2,6.6,11.1,9.9,20.7,9.9c5.8,0,11.1-1.2,15.9-3.7c4.8-2.4,8.8-5.7,12-9.9
		c3.2-4.1,5.7-8.9,7.5-14.4C547.4,344.7,548.3,338.9,548.3,332.7z"/>
	<path id="XMLID_80_" class="st1" d="M668.9,202.3c8.3,0,15.6,1.3,22.1,3.8c6.5,2.5,11.9,5.9,16.3,10c4.4,4.1,7.7,9,10,14.5
		c2.3,5.5,3.4,11.2,3.4,17c0,8.5-1.2,16-3.5,22.7c-2.4,6.7-5.8,12.9-10.3,18.6c-4.5,5.7-10,11.4-16.6,16.9
		c-6.6,5.5-14,11.5-22.3,17.9c-4.9,3.8-10,7.6-15.2,11.4c-5.3,3.9-10.3,7.8-15.1,11.8c-4.8,4-9.3,8.3-13.4,12.7
		c-4.1,4.4-7.6,9.1-10.4,13.9h84.2l-6.8,28.5h-122c1.7-10.9,4.5-20.5,8.4-28.9c3.9-8.4,8.8-16,14.5-22.8
		c5.7-6.9,12.2-13.2,19.3-19.2c7.1-5.9,14.6-11.9,22.5-17.9c7.9-6,15-11.5,21.4-16.5c6.4-5,11.8-9.8,16.3-14.5
		c4.5-4.7,8-9.4,10.4-14.1c2.4-4.7,3.7-9.8,3.7-15.2c0-6.2-2-11.3-5.9-15.2c-3.9-3.9-9.6-5.9-16.9-5.9c-9.2,0-17.6,2-25.2,5.9
		c-7.6,3.9-14.4,8.4-20.4,13.2l-11.5-25.6c8.3-6.9,17.7-12.5,28.4-16.8C645.2,204.4,656.7,202.3,668.9,202.3z"/>
	<path id="XMLID_82_" class="st1" d="M762.9,370.8c-0.3,1.5-0.5,2.7-0.5,3.6c0,1,0.2,1.9,0.5,2.6c0.3,0.7,0.8,1.2,1.4,1.6
		c0.6,0.4,1.3,0.7,2,0.9c0.7,0.2,1.5,0.3,2.4,0.3c1.1,0,2.2-0.1,3.3-0.3c1.1-0.2,2.1-0.4,2.9-0.6l5-21h10L779.3,402h-10l3.6-14.8
		c-2.3,0.6-4.6,1-7,1c-1.8,0-3.5-0.2-5.2-0.7c-1.7-0.4-3.1-1.2-4.3-2.1c-1.2-1-2.2-2.2-3-3.7c-0.7-1.5-1.1-3.4-1.1-5.6
		c0-1.7,0.3-3.6,0.8-5.7l3.1-12.6h10L762.9,370.8z"/>
	<path id="XMLID_84_" class="st1" d="M791.2,402l10.6-44.2h28.9l-2,8.2h-19l-2,8.9h16.7l-2,8h-16.7l-2.6,10.9h20.4l-2,8.2H791.2z"/>
	<path id="XMLID_86_" class="st1" d="M855.9,366.2c-1.4,5.9-2.8,11.1-4.2,15.6c-1.4,4.5-3,8.2-4.9,11.3c-1.9,3-4.2,5.4-6.9,7
		c-2.7,1.6-6.1,2.6-10.2,2.8l-1-8.7c2.1-0.2,4-0.8,5.6-1.8c1.6-1,3-2.4,4.2-4.1c1.2-1.7,2.3-3.7,3.2-6c0.9-2.3,1.8-4.7,2.5-7.4
		c0.8-2.6,1.5-5.4,2.1-8.3c0.7-2.9,1.4-5.9,2.1-8.8h28.9L866.8,402h-10l8.6-35.8H855.9z"/>
	<path id="XMLID_88_" class="st1" d="M898.9,402.9c-2.6,0-5-0.4-7.2-1.3c-2.2-0.9-4-2.1-5.6-3.7c-1.6-1.6-2.8-3.5-3.7-5.8
		s-1.3-4.9-1.3-7.8c0-3.3,0.6-6.6,1.7-9.9c1.1-3.3,2.8-6.2,4.9-8.8c2.1-2.6,4.8-4.7,7.9-6.4c3.1-1.6,6.6-2.5,10.5-2.5
		c2.6,0,5,0.4,7.1,1.3c2.2,0.9,4,2.1,5.6,3.7c1.6,1.6,2.8,3.5,3.7,5.8c0.9,2.3,1.3,4.9,1.3,7.8c0,3.3-0.6,6.6-1.7,9.9
		c-1.1,3.3-2.8,6.3-4.9,8.9c-2.1,2.6-4.8,4.7-7.9,6.4C906.4,402.1,902.8,402.9,898.9,402.9z M905.2,365.3c-2,0-3.8,0.5-5.5,1.5
		c-1.7,1-3.1,2.4-4.4,4.1c-1.3,1.7-2.2,3.7-2.9,5.9c-0.7,2.2-1.1,4.5-1.1,6.8c0,3.2,0.7,5.8,2,7.8c1.3,2,3.5,3,6.5,3
		c2,0,3.8-0.5,5.5-1.5c1.7-1,3.1-2.4,4.4-4.1c1.3-1.7,2.2-3.6,2.9-5.8c0.7-2.2,1.1-4.5,1.1-6.9c0-3.2-0.7-5.8-2-7.8
		C910.4,366.3,908.2,365.3,905.2,365.3z"/>
	<path id="XMLID_91_" class="st1" d="M942.8,402.6c-2.6,0-5.2-0.1-7.9-0.3c-2.7-0.2-5.1-0.6-7.3-1l10.2-42.8c2.4-0.5,5-0.8,7.6-1
		c2.7-0.2,5.1-0.3,7.3-0.3c2.6,0,4.8,0.3,6.6,0.8c1.9,0.5,3.4,1.2,4.5,2.1c1.2,0.9,2,1.9,2.6,3.2c0.6,1.2,0.9,2.5,0.9,3.9
		c0,0.9-0.1,1.9-0.3,2.9c-0.2,1-0.6,2-1.1,3c-0.6,1-1.4,1.9-2.4,2.8c-1,0.9-2.3,1.7-3.9,2.4c1.9,0.9,3.3,2,4.2,3.5
		c0.9,1.5,1.3,3.1,1.3,4.9c0,2-0.4,4-1.2,5.9c-0.8,1.9-2.1,3.6-3.9,5c-1.8,1.5-4.1,2.6-7,3.5C950.4,402.1,946.9,402.6,942.8,402.6z
		 M941.9,382.6l-2.7,11.5c0.7,0.1,1.5,0.2,2.6,0.3c1,0.1,2,0.1,2.9,0.1c1.3,0,2.5-0.1,3.8-0.3c1.3-0.2,2.4-0.5,3.4-1.1
		c1-0.5,1.8-1.2,2.5-2.1c0.6-0.9,1-2,1-3.4c0-0.6-0.1-1.2-0.4-1.8c-0.2-0.6-0.6-1.1-1.1-1.6c-0.5-0.5-1.2-0.9-2-1.2
		c-0.8-0.3-1.8-0.4-3-0.4H941.9z M943.8,375.2h6.3c2.6,0,4.5-0.6,5.7-1.7c1.3-1.1,1.9-2.4,1.9-4c0-0.8-0.2-1.5-0.5-2.1
		c-0.4-0.6-0.8-1-1.4-1.4c-0.6-0.3-1.3-0.6-2-0.7c-0.8-0.1-1.6-0.2-2.4-0.2c-0.9,0-1.9,0-2.9,0.1c-1,0.1-1.8,0.1-2.3,0.2
		L943.8,375.2z"/>
	<path id="XMLID_95_" class="st1" d="M970.9,402l10.6-44.2h28.9l-2,8.2h-19l-2,8.9h16.7l-2,8h-16.7l-2.6,10.9h20.4l-2,8.2H970.9z"/>
	<path id="XMLID_97_" class="st1" d="M1036.2,402c-0.6-1.4-1.3-3-2.1-4.7c-0.8-1.7-1.7-3.3-2.7-5c-1-1.7-2.1-3.3-3.2-4.8
		c-1.1-1.5-2.3-2.9-3.5-4.1L1020,402h-9.9l10.6-44.2h10l-3.9,16c3.3-2.9,6.4-5.6,9.4-8.2c2.9-2.6,5.7-5.2,8.2-7.8h11.8
		c-3.9,3.6-7.7,7.2-11.5,10.8s-7.8,7-12,10.4c2.7,2.9,5.3,6.3,7.7,10.1c2.5,3.8,4.7,8.1,6.6,13H1036.2z"/>
	<path id="XMLID_99_" class="st1" d="M1082.8,402c-0.1-1.7-0.2-3.3-0.3-4.9c-0.1-1.6-0.2-3.2-0.4-4.8h-16.6
		c-0.9,1.6-1.7,3.2-2.7,4.8c-0.9,1.6-1.8,3.2-2.7,4.9h-10.4c2.8-4.8,5.4-9.2,7.8-13.2c2.4-4,4.7-7.9,7-11.4c2.2-3.6,4.4-7,6.5-10.2
		c2.1-3.2,4.3-6.4,6.5-9.4h8.9c0.7,3.1,1.3,6.5,1.9,10.2c0.6,3.7,1.2,7.5,1.7,11.4c0.5,3.9,1,7.8,1.5,11.7c0.4,3.9,0.9,7.5,1.2,10.9
		H1082.8z M1079.9,367.4c-1.8,2.9-3.5,5.7-5.3,8.5c-1.7,2.8-3.4,5.7-5,8.6h11.9c-0.2-2.6-0.4-5.4-0.7-8.3
		C1080.7,373.3,1080.3,370.4,1079.9,367.4z"/>
</g>
<g id="XMLID_4_">
	<path id="XMLID_5_" class="st0" d="M58.3,434.8h4L58,452.4h20.9l4.2-17.5h4l-9.6,40.4h-4l4.6-19.4H57.3l-4.6,19.4h-4L58.3,434.8z"
		/>
	<path id="XMLID_103_" class="st0" d="M114.9,475.2c-0.2-1.9-0.4-3.7-0.6-5.5c-0.2-1.8-0.4-3.7-0.7-5.5h-19c-1,1.8-2,3.6-3.1,5.4
		c-1,1.8-2,3.7-3,5.7h-4.3c4-7.2,8.1-14.3,12.4-21.1c4.2-6.8,8.4-13.3,12.5-19.3h4.2c1,5.7,1.9,11.8,2.9,18.4
		c0.9,6.6,1.9,13.9,2.8,22H114.9z M110.2,439.4c-2.4,3.6-4.7,7.2-7,10.7c-2.2,3.5-4.5,7.1-6.6,10.7h16.6c-0.4-3.5-0.9-7-1.3-10.5
		C111.4,446.7,110.8,443.1,110.2,439.4z"/>
	<path id="XMLID_106_" class="st0" d="M169.4,473.4c-1.6,0.9-3.4,1.5-5.4,2c-2,0.5-4,0.7-6,0.7c-2.2,0-4.2-0.3-6-0.9
		c-1.8-0.6-3.4-1.5-4.7-2.8c-1.3-1.3-2.3-2.9-3-4.8c-0.7-2-1.1-4.3-1.1-7.1c0-4.2,0.6-7.9,1.9-11.2c1.3-3.3,3-6.1,5.2-8.3
		c2.2-2.3,4.7-4,7.5-5.2c2.8-1.2,5.8-1.8,8.9-1.8c1.8,0,3.5,0.2,5.1,0.6c1.6,0.4,3.2,1,4.8,1.9l-1.8,3.6c-2.8-1.7-5.8-2.6-8.9-2.6
		c-2.4,0-4.8,0.5-7,1.6c-2.2,1.1-4.2,2.6-5.9,4.6c-1.7,2-3.1,4.4-4.1,7.2c-1,2.8-1.5,6-1.5,9.5c0,4,0.9,7,2.6,9.1
		c1.7,2.1,4.3,3.1,7.9,3.1c1.6,0,2.9-0.1,4.1-0.3c1.2-0.2,2.2-0.4,3.1-0.7c0.9-0.3,1.6-0.6,2.2-0.8c0.6-0.3,1.1-0.6,1.5-0.8
		L169.4,473.4z"/>
	<path id="XMLID_108_" class="st0" d="M204.8,475.2c-0.2-1.9-0.4-3.7-0.6-5.5c-0.2-1.8-0.4-3.7-0.7-5.5h-19c-1,1.8-2,3.6-3.1,5.4
		c-1,1.8-2,3.7-3,5.7h-4.3c4-7.2,8.1-14.3,12.4-21.1c4.2-6.8,8.4-13.3,12.5-19.3h4.2c1,5.7,1.9,11.8,2.9,18.4
		c0.9,6.6,1.9,13.9,2.8,22H204.8z M200.1,439.4c-2.4,3.6-4.7,7.2-7,10.7c-2.2,3.5-4.5,7.1-6.6,10.7h16.6c-0.4-3.5-0.9-7-1.3-10.5
		C201.3,446.7,200.7,443.1,200.1,439.4z"/>
	<path id="XMLID_111_" class="st0" d="M214.4,475.2c2-7.3,4-14.3,6.2-21.1c2.2-6.8,4.2-13.2,6.2-19.3h4c0.6,2.3,1.2,4.8,1.8,7.5
		c0.6,2.6,1.2,5.3,1.7,8c0.5,2.7,1,5.2,1.5,7.7c0.4,2.5,0.8,4.8,1.1,6.8c1.4-2.2,3-4.7,4.8-7.4c1.8-2.7,3.6-5.4,5.4-8.1
		c1.8-2.7,3.6-5.3,5.4-7.9c1.7-2.5,3.3-4.7,4.7-6.6h4.1c-0.3,3.5-0.8,7-1.2,10.3c-0.5,3.4-1,6.7-1.5,10c-0.5,3.3-1.1,6.6-1.7,9.9
		c-0.6,3.3-1.2,6.7-1.9,10.1h-4.1c1.4-6.3,2.5-12.4,3.5-18.1c1-5.7,1.9-11.2,2.6-16.3c-0.6,0.7-1.4,1.8-2.4,3.3
		c-1,1.5-2.2,3.1-3.4,4.9c-1.2,1.8-2.5,3.7-3.9,5.8c-1.3,2-2.6,4-3.9,5.9c-1.2,1.9-2.4,3.6-3.4,5.1c-1,1.5-1.8,2.7-2.3,3.6h-3.5
		c-0.2-1.1-0.4-2.4-0.6-4c-0.3-1.6-0.6-3.3-0.9-5.1c-0.3-1.8-0.7-3.7-1.1-5.7c-0.4-1.9-0.7-3.8-1.1-5.6c-0.4-1.8-0.7-3.4-1.1-4.8
		c-0.3-1.4-0.6-2.6-0.9-3.5c-1.7,5.1-3.4,10.6-5.2,16.5c-1.7,5.9-3.5,11.9-5.1,18H214.4z"/>
	<path id="XMLID_113_" class="st0" d="M268,460.2c0-4,0.7-7.6,2-10.9c1.3-3.2,3.1-6,5.2-8.3c2.2-2.3,4.6-4,7.4-5.2
		c2.7-1.2,5.5-1.8,8.4-1.8c1.9,0,3.7,0.3,5.5,1c1.7,0.6,3.3,1.6,4.6,2.9c1.3,1.3,2.4,3,3.1,5c0.8,2,1.2,4.3,1.2,7
		c0,4-0.7,7.7-2,10.9c-1.3,3.2-3.1,6-5.2,8.3c-2.2,2.3-4.6,4-7.4,5.2c-2.8,1.2-5.6,1.8-8.4,1.8c-1.9,0-3.8-0.3-5.5-1
		c-1.7-0.6-3.3-1.6-4.6-2.9c-1.3-1.3-2.4-3-3.1-5C268.4,465.2,268,462.9,268,460.2z M272.2,460.8c0,2,0.3,3.7,0.8,5.2
		c0.5,1.5,1.3,2.7,2.3,3.6c1,1,2.1,1.7,3.3,2.2c1.3,0.5,2.6,0.7,4.1,0.7c2.4,0,4.7-0.5,6.9-1.5c2.2-1,4.2-2.5,5.9-4.5
		c1.7-2,3.1-4.4,4.1-7.3c1-2.9,1.6-6.2,1.6-9.9c0-2-0.3-3.7-0.8-5.2c-0.5-1.5-1.3-2.7-2.3-3.6c-1-1-2.1-1.7-3.4-2.2
		c-1.3-0.5-2.6-0.7-4.1-0.7c-2.4,0-4.7,0.5-6.9,1.5c-2.2,1-4.2,2.5-5.9,4.5c-1.7,2-3.1,4.4-4.1,7.3
		C272.7,453.8,272.2,457.1,272.2,460.8z"/>
	<path id="XMLID_116_" class="st0" d="M319.3,434.8h3.8l-8,33.4c1-1.3,2.2-2.9,3.6-4.6c1.4-1.8,3-3.7,4.7-5.7c1.7-2,3.5-4.1,5.4-6.2
		c1.9-2.1,3.8-4.2,5.7-6.2c1.9-2,3.8-3.9,5.6-5.8c1.8-1.8,3.5-3.4,5-4.8h3.5l-9.7,40.4h-3.8l8.1-33.8c-1.2,1.1-2.7,2.6-4.3,4.3
		c-1.6,1.7-3.4,3.6-5.2,5.7c-1.8,2-3.7,4.2-5.6,6.4c-1.9,2.2-3.8,4.4-5.6,6.5c-1.8,2.1-3.5,4.2-5,6.1c-1.6,1.9-2.9,3.6-4,5h-3.9
		L319.3,434.8z M334.8,430.9c-2.2,0-3.9-0.6-5.1-1.8c-1.2-1.2-1.8-2.9-1.6-5.1l3.3-0.8c-0.1,1.3,0.2,2.4,0.8,3.2s1.8,1.3,3.4,1.3
		c1.3,0,2.5-0.4,3.4-1.3c1-0.8,1.7-1.9,2.2-3.2l2.9,0.8c-0.9,2.2-2.1,3.9-3.6,5.1C339.1,430.3,337.2,430.9,334.8,430.9z"/>
</g>
<g id="XMLID_6_">
	<path id="XMLID_119_" class="st0" d="M94,580.6c4.1-15,8.3-29.4,12.8-43.4c4.4-14,8.7-27.2,12.8-39.7h8.2c1.2,4.8,2.4,9.9,3.7,15.4
		c1.2,5.4,2.4,10.9,3.6,16.4c1.1,5.5,2.1,10.8,3.1,16c0.9,5.2,1.7,9.9,2.3,14.1c3-4.6,6.3-9.6,9.9-15.2c3.7-5.6,7.4-11.1,11.1-16.7
		c3.8-5.6,7.4-11,11-16.2c3.6-5.2,6.8-9.8,9.7-13.7h8.4c-0.7,7.3-1.6,14.4-2.5,21.3c-1,6.9-2,13.8-3.1,20.6
		c-1.1,6.8-2.2,13.6-3.5,20.4c-1.2,6.8-2.5,13.8-3.9,20.8h-8.4c2.8-13,5.2-25.5,7.3-37.3c2-11.8,3.8-23,5.3-33.6
		c-1.2,1.5-2.9,3.8-5,6.8c-2.1,3-4.5,6.4-7,10.1c-2.6,3.8-5.2,7.7-8,11.9c-2.8,4.2-5.4,8.2-8,12.1s-4.9,7.4-7,10.6
		c-2.1,3.2-3.7,5.7-4.8,7.5H135c-0.3-2.2-0.8-5-1.3-8.3c-0.6-3.3-1.2-6.8-1.9-10.6c-0.7-3.8-1.4-7.6-2.2-11.6
		c-0.8-4-1.5-7.8-2.3-11.5c-0.8-3.6-1.5-6.9-2.2-9.9c-0.7-3-1.3-5.4-1.8-7.2c-3.5,10.6-7.1,21.9-10.7,33.9
		c-3.6,12.1-7.1,24.4-10.5,37.1H94z"/>
	<path id="XMLID_121_" class="st0" d="M253.4,580.6c-0.4-3.8-0.8-7.6-1.2-11.4c-0.4-3.8-0.9-7.6-1.4-11.4h-39.1
		c-2.1,3.7-4.2,7.4-6.3,11.1s-4.2,7.6-6.2,11.6h-8.9c8.2-14.9,16.7-29.3,25.5-43.4c8.7-14.1,17.3-27.3,25.7-39.7h8.7
		c2,11.7,4,24.3,5.9,37.8c2,13.6,3.8,28.6,5.7,45.3H253.4z M243.8,506.8c-4.9,7.4-9.7,14.7-14.4,21.9c-4.6,7.2-9.2,14.6-13.6,22.1
		h34.1c-0.9-7.2-1.8-14.4-2.8-21.7C246.1,521.9,245,514.5,243.8,506.8z"/>
	<path id="XMLID_124_" class="st0" d="M332.5,576.8c-3.3,1.8-7,3.1-11.2,4.1c-4.2,1-8.3,1.4-12.4,1.4c-4.5,0-8.6-0.6-12.3-1.9
		c-3.7-1.2-6.9-3.2-9.6-5.8c-2.7-2.6-4.8-5.9-6.2-10c-1.5-4-2.2-8.9-2.2-14.6c0-8.6,1.3-16.2,4-23c2.6-6.8,6.2-12.5,10.7-17.1
		c4.5-4.7,9.6-8.3,15.5-10.7c5.8-2.5,12-3.7,18.3-3.7c3.8,0,7.3,0.4,10.5,1.2c3.2,0.8,6.5,2.1,9.9,4l-3.7,7.4
		c-5.8-3.5-11.9-5.3-18.3-5.3c-5,0-9.9,1.1-14.5,3.3c-4.6,2.2-8.7,5.3-12.2,9.4c-3.5,4.1-6.3,9-8.4,14.8c-2.1,5.8-3.1,12.3-3.1,19.5
		c0,8.2,1.8,14.4,5.3,18.6c3.5,4.3,8.9,6.4,16.2,6.4c3.2,0,6-0.2,8.5-0.6c2.5-0.4,4.6-0.9,6.4-1.4c1.8-0.6,3.3-1.1,4.6-1.7
		c1.2-0.6,2.3-1.1,3.2-1.6L332.5,576.8z"/>
	<path id="XMLID_126_" class="st0" d="M367.5,497.4h8.1l-18.2,76h33.4l18.2-76h8.1l-18.2,76h33.5l18.2-76h8.1l-19.8,83.1h-91.5
		L367.5,497.4z"/>
	<path id="XMLID_128_" class="st0" d="M496.7,504.5h-25.5l1.6-7.1h59.1l-1.7,7.1h-25.4l-18.2,76h-8.1L496.7,504.5z"/>
	<path id="XMLID_130_" class="st0" d="M572.9,580.6c-0.4-3.8-0.8-7.6-1.2-11.4c-0.4-3.8-0.9-7.6-1.4-11.4h-39.1
		c-2.1,3.7-4.2,7.4-6.3,11.1c-2.1,3.8-4.2,7.6-6.2,11.6h-8.9c8.2-14.9,16.7-29.3,25.5-43.4c8.7-14.1,17.3-27.3,25.7-39.7h8.7
		c2,11.7,4,24.3,5.9,37.8c2,13.6,3.8,28.6,5.7,45.3H572.9z M563.3,506.8c-4.9,7.4-9.7,14.7-14.4,21.9c-4.6,7.2-9.2,14.6-13.6,22.1
		h34.1c-0.9-7.2-1.8-14.4-2.8-21.7C565.6,521.9,564.5,514.5,563.3,506.8z"/>
	<path id="XMLID_133_" class="st0" d="M614,497.4h46.5l-1.6,7.1h-38.6l-6.1,25.2h11.6c4.3,0,8.2,0.4,11.8,1.1
		c3.5,0.7,6.6,1.9,9.1,3.5c2.5,1.6,4.5,3.7,5.9,6.2c1.4,2.5,2.1,5.6,2.1,9.3c0,10-3.4,17.8-10.1,23.3c-6.7,5.6-16.3,8.3-28.9,8.3
		c-1.6,0-3.3-0.1-5.2-0.2c-1.9-0.1-3.8-0.3-5.7-0.5c-1.9-0.2-3.8-0.4-5.6-0.7c-1.8-0.3-3.4-0.6-4.8-1L614,497.4z M603.8,573.4
		c0.2,0.1,0.8,0.2,1.6,0.2c0.8,0.1,1.8,0.2,2.8,0.2c1,0.1,2.1,0.2,3.2,0.2c1.1,0.1,2.1,0.1,2.9,0.1c3.7,0,7.4-0.3,11.3-1
		c3.8-0.6,7.3-1.8,10.3-3.6c3-1.8,5.5-4.2,7.5-7.3c2-3.1,2.9-7.2,2.9-12.1c0-3-0.6-5.3-1.9-7.1c-1.2-1.8-2.9-3.1-4.9-4.1
		c-2-1-4.3-1.6-6.8-1.9c-2.6-0.3-5.1-0.5-7.7-0.5h-12.5L603.8,573.4z"/>
	<path id="XMLID_136_" class="st0" d="M687,497.4h8.1l-8.9,36.1h43.1l8.6-36.1h8.1l-19.8,83.1h-8.1l9.5-39.9h-42.9l-9.6,39.9h-8.1
		L687,497.4z"/>
	<path id="XMLID_138_" class="st0" d="M754.6,549.6c0-8.2,1.4-15.7,4.1-22.4c2.7-6.7,6.3-12.4,10.8-17c4.5-4.7,9.5-8.3,15.2-10.8
		c5.6-2.5,11.4-3.8,17.3-3.8c3.9,0,7.7,0.7,11.3,2c3.6,1.3,6.8,3.3,9.5,6c2.7,2.7,4.9,6.1,6.5,10.2c1.6,4.1,2.4,8.9,2.4,14.5
		c0,8.3-1.4,15.8-4.1,22.5c-2.7,6.7-6.3,12.4-10.8,17c-4.5,4.7-9.6,8.3-15.2,10.8c-5.7,2.5-11.4,3.8-17.3,3.8c-4,0-7.8-0.7-11.3-2
		c-3.6-1.3-6.7-3.3-9.4-6c-2.7-2.7-4.9-6.1-6.5-10.2C755.4,560.1,754.6,555.2,754.6,549.6z M763.2,550.9c0,4.1,0.6,7.6,1.7,10.7
		c1.1,3,2.7,5.5,4.7,7.5c2,2,4.3,3.4,6.9,4.4c2.6,1,5.4,1.5,8.5,1.5c4.9,0,9.6-1.1,14.2-3.2c4.6-2.1,8.6-5.2,12.1-9.3
		c3.5-4.1,6.4-9.1,8.5-15.1s3.2-12.8,3.2-20.4c0-4.1-0.6-7.6-1.7-10.7c-1.1-3-2.7-5.5-4.7-7.5c-2-2-4.3-3.4-7-4.4
		c-2.6-1-5.4-1.5-8.4-1.5c-4.9,0-9.6,1.1-14.2,3.2c-4.6,2.1-8.6,5.2-12.2,9.3c-3.6,4.1-6.4,9.1-8.5,15.1
		C764.3,536.4,763.2,543.3,763.2,550.9z"/>
	<path id="XMLID_141_" class="st0" d="M860.2,497.4h7.8l-16.6,68.7c2-2.7,4.5-5.9,7.4-9.5c3-3.6,6.2-7.5,9.7-11.7
		c3.5-4.2,7.2-8.4,11.1-12.8c3.9-4.4,7.8-8.7,11.7-12.8c3.9-4.2,7.7-8.1,11.4-11.9c3.7-3.8,7.2-7.1,10.4-10h7.3l-20,83.1h-7.8
		l16.7-69.7c-2.6,2.3-5.5,5.3-8.9,8.8c-3.4,3.6-6.9,7.4-10.7,11.6c-3.8,4.2-7.7,8.6-11.6,13.1c-4,4.6-7.8,9-11.4,13.4
		c-3.7,4.4-7.1,8.6-10.3,12.5c-3.2,3.9-5.9,7.3-8.1,10.2h-8.1L860.2,497.4z M892,489.3c-4.5,0-8-1.2-10.5-3.7
		c-2.5-2.5-3.6-6-3.3-10.6l6.7-1.7c-0.2,2.7,0.4,4.9,1.7,6.7c1.3,1.7,3.7,2.6,7,2.6c2.7,0,5.1-0.9,7-2.6c2-1.7,3.5-3.9,4.6-6.7
		l6,1.7c-1.8,4.6-4.3,8.1-7.3,10.6C901,488,897,489.3,892,489.3z"/>
</g>
<g id="XMLID_7_">
	<path id="XMLID_144_" class="st0" d="M300.7,611.7l-1.9,7.6h-11.8l-7.9,32.7h-9.1l7.9-32.7h-11.8l1.9-7.6H300.7z"/>
	<path id="XMLID_146_" class="st0" d="M325.6,611.2c2.4,0,4.7,0.3,6.6,0.8c2,0.5,3.6,1.3,5,2.3c1.4,1,2.4,2.2,3.1,3.6
		c0.7,1.4,1.1,3,1.1,4.8c0,2.9-0.6,5.4-1.7,7.4c-1.1,2-2.7,3.7-4.7,4.9c-2,1.2-4.3,2.1-7,2.7c-2.7,0.5-5.6,0.8-8.7,0.8h-2.3
		l-3.3,13.5h-9l9.5-39.8c2.1-0.4,4.1-0.7,6-0.8C322.2,611.3,323.9,611.2,325.6,611.2z M324.9,618.8c-0.7,0-1.2,0-1.7,0.1
		c-0.5,0-0.9,0.1-1.4,0.1l-2.8,11.9h2.3c1.6,0,3.1-0.1,4.5-0.4c1.3-0.3,2.5-0.7,3.4-1.3c1-0.6,1.7-1.3,2.2-2.2
		c0.5-0.9,0.8-2,0.8-3.3c0-1.7-0.6-3-1.9-3.7C329,619.2,327.2,618.8,324.9,618.8z"/>
	<path id="XMLID_149_" class="st0" d="M350.2,652l9.7-40.4h26.4l-1.9,7.5h-17.3l-1.9,8.2h15.3l-1.8,7.3h-15.3l-2.3,9.9h18.6
		l-1.9,7.5H350.2z"/>
	<path id="XMLID_151_" class="st0" d="M426,611.7h9.1l-9.7,40.4h-9.1l4.1-17.2h-14.3L402,652h-9l9.7-40.4h9.1l-3.7,15.5h14.3
		L426,611.7z"/>
	<path id="XMLID_153_" class="st0" d="M442.7,652l9.7-40.4h9l-5.8,23.8c1.9-2.1,3.8-4.2,5.8-6.4c2-2.2,3.9-4.3,5.9-6.3
		c1.9-2.1,3.9-4,5.8-5.9c1.9-1.9,3.7-3.6,5.5-5.2h7.4l-9.7,40.4h-9l6.3-26.4c-2.2,2.3-4.3,4.6-6.3,6.8c-2,2.2-4,4.4-5.9,6.5
		c-1.9,2.1-3.7,4.3-5.6,6.5c-1.8,2.2-3.7,4.4-5.5,6.7H442.7z"/>
	<path id="XMLID_155_" class="st0" d="M514.3,611.2c2.4,0,4.7,0.3,6.6,0.8c2,0.5,3.6,1.3,5,2.3c1.4,1,2.4,2.2,3.1,3.6
		c0.7,1.4,1.1,3,1.1,4.8c0,2.9-0.6,5.4-1.7,7.4c-1.1,2-2.7,3.7-4.7,4.9c-2,1.2-4.3,2.1-7,2.7c-2.7,0.5-5.6,0.8-8.7,0.8h-2.3
		l-3.3,13.5h-9l9.5-39.8c2.1-0.4,4.1-0.7,6-0.8C510.9,611.3,512.6,611.2,514.3,611.2z M513.5,618.8c-0.7,0-1.2,0-1.7,0.1
		c-0.5,0-0.9,0.1-1.4,0.1l-2.8,11.9h2.3c1.6,0,3.1-0.1,4.5-0.4c1.3-0.3,2.5-0.7,3.4-1.3c1-0.6,1.7-1.3,2.2-2.2
		c0.5-0.9,0.8-2,0.8-3.3c0-1.7-0.6-3-1.9-3.7C517.7,619.2,515.9,618.8,513.5,618.8z"/>
	<path id="XMLID_158_" class="st0" d="M557.9,652.9c-2.4,0-4.5-0.4-6.5-1.2c-2-0.8-3.7-1.9-5.1-3.3c-1.4-1.5-2.6-3.2-3.3-5.3
		c-0.8-2.1-1.2-4.5-1.2-7.1c0-3,0.5-6,1.6-9c1-3,2.6-5.7,4.5-8.1c2-2.4,4.4-4.3,7.2-5.8c2.8-1.5,6-2.2,9.6-2.2
		c2.4,0,4.5,0.4,6.5,1.2c2,0.8,3.7,1.9,5.1,3.3c1.4,1.5,2.6,3.2,3.3,5.3c0.8,2.1,1.2,4.5,1.2,7.1c0,3-0.5,6-1.5,9.1
		c-1,3-2.5,5.7-4.5,8.1c-2,2.4-4.4,4.3-7.2,5.8C564.7,652.1,561.5,652.9,557.9,652.9z M563.6,618.5c-1.8,0-3.4,0.5-5,1.4
		c-1.5,0.9-2.9,2.2-4,3.7c-1.1,1.6-2,3.3-2.7,5.4c-0.6,2-1,4.1-1,6.2c0,2.9,0.6,5.3,1.8,7.1c1.2,1.8,3.2,2.7,6,2.7
		c1.8,0,3.4-0.5,5-1.4c1.5-0.9,2.9-2.2,4-3.7c1.1-1.6,2-3.3,2.7-5.3c0.6-2,1-4.1,1-6.3c0-2.9-0.6-5.3-1.8-7.1
		C568.4,619.5,566.4,618.5,563.6,618.5z"/>
	<path id="XMLID_161_" class="st0" d="M604.9,652.6c-2.3,0-4.7-0.1-7.2-0.3c-2.4-0.2-4.7-0.5-6.6-0.9l9.3-39c2.2-0.4,4.5-0.7,7-0.9
		c2.4-0.2,4.7-0.2,6.7-0.2c2.3,0,4.3,0.2,6,0.7c1.7,0.5,3.1,1.1,4.1,2c1.1,0.8,1.9,1.8,2.4,2.9c0.5,1.1,0.8,2.3,0.8,3.5
		c0,0.9-0.1,1.7-0.3,2.7c-0.2,0.9-0.5,1.9-1,2.8c-0.5,0.9-1.2,1.8-2.2,2.6c-0.9,0.8-2.1,1.6-3.6,2.2c1.7,0.8,3,1.8,3.8,3.2
		c0.8,1.3,1.2,2.8,1.2,4.5c0,1.9-0.4,3.7-1.1,5.4c-0.7,1.7-1.9,3.3-3.6,4.6c-1.6,1.3-3.7,2.4-6.3,3.2
		C611.8,652.2,608.7,652.6,604.9,652.6z M604.1,634.4l-2.5,10.5c0.6,0.1,1.4,0.2,2.4,0.3c1,0.1,1.8,0.1,2.7,0.1
		c1.2,0,2.3-0.1,3.5-0.3c1.1-0.2,2.2-0.5,3.1-1c0.9-0.5,1.7-1.1,2.2-1.9c0.6-0.8,0.9-1.9,0.9-3.1c0-0.5-0.1-1.1-0.3-1.6
		c-0.2-0.5-0.6-1-1-1.5c-0.5-0.4-1.1-0.8-1.8-1c-0.8-0.3-1.7-0.4-2.7-0.4H604.1z M605.8,627.6h5.7c2.3,0,4.1-0.5,5.2-1.5
		c1.1-1,1.7-2.2,1.7-3.6c0-0.7-0.2-1.4-0.5-1.9c-0.3-0.5-0.8-0.9-1.3-1.3c-0.5-0.3-1.2-0.5-1.9-0.7c-0.7-0.1-1.4-0.2-2.2-0.2
		c-0.8,0-1.7,0-2.6,0.1c-0.9,0.1-1.6,0.1-2.1,0.2L605.8,627.6z"/>
	<path id="XMLID_165_" class="st0" d="M661.4,652c-0.5-1.3-1.2-2.7-2-4.3c-0.8-1.5-1.6-3-2.5-4.5c-0.9-1.5-1.9-3-2.9-4.4
		c-1-1.4-2.1-2.6-3.2-3.7l-4.1,16.9h-9l9.7-40.4h9.1l-3.6,14.6c3-2.6,5.9-5.1,8.6-7.5c2.7-2.4,5.2-4.7,7.5-7.1h10.8
		c-3.5,3.3-7,6.6-10.5,9.8c-3.5,3.2-7.1,6.4-11,9.5c2.4,2.7,4.8,5.7,7,9.2c2.3,3.5,4.3,7.4,6.1,11.9H661.4z"/>
	<path id="XMLID_167_" class="st0" d="M684.3,652l9.7-40.4h26.4l-1.9,7.5h-17.3l-1.9,8.2h15.3l-1.8,7.3h-15.3l-2.3,9.9h18.6L712,652
		H684.3z"/>
	<path id="XMLID_169_" class="st0" d="M780.6,650.3c-1.6,0.8-3.4,1.4-5.3,1.9c-1.9,0.5-4.3,0.7-7.1,0.7c-2.4,0-4.6-0.4-6.6-1.2
		c-2-0.8-3.7-1.9-5.1-3.4c-1.4-1.5-2.5-3.3-3.3-5.4c-0.8-2.1-1.2-4.5-1.2-7.1c0-3,0.5-6,1.6-9c1.1-3,2.6-5.7,4.7-8
		c2.1-2.3,4.6-4.3,7.6-5.7c3-1.5,6.5-2.2,10.4-2.2c1.9,0,3.7,0.2,5.5,0.6c1.8,0.4,3.7,1.2,5.7,2.3l-3.3,7c-1.6-0.9-3.1-1.4-4.4-1.7
		c-1.3-0.3-2.7-0.5-4.1-0.5c-2.2,0-4.2,0.4-6,1.3c-1.8,0.9-3.3,2.1-4.5,3.6c-1.3,1.5-2.2,3.3-2.9,5.3c-0.7,2-1,4.2-1,6.4
		c0,3.4,0.7,5.9,2.2,7.5c1.5,1.6,3.6,2.3,6.4,2.3c1.9,0,3.6-0.2,5.2-0.6c1.6-0.4,3-0.9,4.4-1.5L780.6,650.3z"/>
	<path id="XMLID_171_" class="st0" d="M833.2,611.7l-1.9,7.6h-11.8l-7.9,32.7h-9.1l7.9-32.7h-11.8l1.9-7.6H833.2z"/>
	<path id="XMLID_173_" class="st0" d="M858.1,611.2c2.4,0,4.7,0.3,6.6,0.8c2,0.5,3.6,1.3,5,2.3c1.4,1,2.4,2.2,3.1,3.6
		c0.7,1.4,1.1,3,1.1,4.8c0,2.9-0.6,5.4-1.7,7.4c-1.1,2-2.7,3.7-4.7,4.9c-2,1.2-4.3,2.1-7,2.7c-2.7,0.5-5.6,0.8-8.7,0.8h-2.3
		l-3.3,13.5h-9l9.5-39.8c2.1-0.4,4.1-0.7,6-0.8C854.7,611.3,856.4,611.2,858.1,611.2z M857.3,618.8c-0.7,0-1.2,0-1.7,0.1
		c-0.5,0-0.9,0.1-1.4,0.1l-2.8,11.9h2.3c1.6,0,3.1-0.1,4.5-0.4c1.3-0.3,2.5-0.7,3.4-1.3c1-0.6,1.7-1.3,2.2-2.2
		c0.5-0.9,0.8-2,0.8-3.3c0-1.7-0.6-3-1.9-3.7C861.5,619.2,859.7,618.8,857.3,618.8z"/>
	<path id="XMLID_176_" class="st0" d="M905.2,652c-0.1-1.5-0.2-3-0.3-4.5c-0.1-1.5-0.2-2.9-0.3-4.3h-15.1c-0.8,1.4-1.6,2.9-2.4,4.3
		c-0.9,1.5-1.7,2.9-2.4,4.5h-9.5c2.5-4.3,4.9-8.4,7.1-12.1c2.2-3.7,4.3-7.2,6.3-10.4c2-3.3,4-6.4,6-9.3c1.9-2.9,3.9-5.8,5.9-8.6h8.1
		c0.6,2.8,1.2,5.9,1.8,9.3c0.6,3.4,1.1,6.9,1.6,10.4c0.5,3.6,0.9,7.1,1.3,10.7c0.4,3.6,0.8,6.9,1.1,10H905.2z M902.5,620.5
		c-1.6,2.6-3.2,5.2-4.8,7.7c-1.6,2.6-3.1,5.2-4.6,7.9h10.9c-0.2-2.4-0.4-4.9-0.6-7.6C903.2,625.9,902.9,623.2,902.5,620.5z"/>
	<path id="XMLID_179_" class="st0" d="M961.4,611.7h9.1l-9.7,40.4h-9.1l4.1-17.2h-14.3l-4.1,17.2h-9l9.7-40.4h9.1l-3.7,15.5h14.3
		L961.4,611.7z"/>
	<path id="XMLID_181_" class="st0" d="M987.6,611.7h9.1l-3.2,13.5c0.3,0,0.8-0.1,1.5-0.1c0.7,0,1.3-0.1,1.7-0.1c3,0,5.5,0.3,7.4,1
		c1.9,0.7,3.4,1.6,4.4,2.8c1.1,1.1,1.8,2.5,2.2,3.9c0.4,1.5,0.6,3,0.6,4.6c0,1.9-0.3,3.7-1,5.5c-0.7,1.8-1.9,3.4-3.5,4.9
		c-1.7,1.5-3.8,2.6-6.5,3.5c-2.7,0.9-6,1.3-10,1.3c-2.1,0-4.1-0.1-6.3-0.4c-2.1-0.3-4-0.6-5.7-1L987.6,611.7z M988.8,644.6
		c0.5,0.1,1.1,0.1,1.7,0.2c0.6,0,1.3,0.1,2,0.1c1.8,0,3.3-0.2,4.6-0.6c1.2-0.4,2.2-1,2.9-1.6c0.7-0.7,1.2-1.4,1.5-2.3
		c0.3-0.8,0.5-1.7,0.5-2.5c0-0.7-0.1-1.4-0.3-2c-0.2-0.6-0.5-1.2-1-1.7c-0.5-0.5-1.2-0.9-2.1-1.2c-0.9-0.3-2-0.4-3.3-0.4
		c-0.2,0-0.7,0-1.4,0c-0.7,0-1.5,0.1-2.2,0.1L988.8,644.6z M1022.1,652h-8.6l9.6-40.4h8.7L1022.1,652z"/>
</g>
</svg>
