<?xml version="1.0" encoding="utf-8"?>
<!-- Generator: Adobe Illustrator 20.1.0, SVG Export Plug-In . SVG Version: 6.00 Build 0)  -->
<svg version="1.1" id="Слой_1" xmlns="http://www.w3.org/2000/svg" xmlns:xlink="http://www.w3.org/1999/xlink" x="0px" y="0px"
	 viewBox="0 0 338 183" style="enable-background:new 0 0 338 183;" xml:space="preserve">
<style type="text/css">
	.st0{fill:#FFFFFF;}
	.st1{fill:#E63B23;}
</style>
<g>
	<path class="st0" d="M90.4,180.2c1.5,0,2.9-0.1,4.1-0.4c1.2-0.3,2.3-0.6,3.3-1c0.9-0.4,1.8-0.8,2.4-1.3c0.7-0.4,1.3-0.9,1.8-1.3
		c0.5-0.4,0.9-0.7,1.2-1c0.3-0.3,0.5-0.4,0.7-0.4c0.2,0,0.3,0.1,0.4,0.2l1.1,1.3c-1.9,1.9-4.2,3.5-6.7,4.7c-2.5,1.2-5.5,1.7-8.8,1.7
		c-2.6,0-4.9-0.5-7-1.4c-2.1-0.9-3.8-2.2-5.3-3.9c-1.5-1.7-2.6-3.7-3.4-6.1c-0.8-2.4-1.2-5-1.2-7.9c0-3.9,0.6-7.4,1.8-10.6
		c1.2-3.2,2.8-6,4.9-8.3c2.1-2.3,4.5-4.1,7.3-5.3c2.8-1.3,5.8-1.9,9.1-1.9c1.5,0,2.9,0.1,4.1,0.4c1.2,0.2,2.3,0.6,3.4,1
		c1,0.5,2,1,2.8,1.7c0.9,0.7,1.7,1.5,2.5,2.4l-1,1.3c-0.2,0.3-0.5,0.4-0.8,0.4c-0.2,0-0.4-0.1-0.6-0.3c-0.2-0.2-0.5-0.5-0.9-0.8
		c-0.4-0.3-0.8-0.7-1.4-1.1c-0.5-0.4-1.2-0.7-2-1.1c-0.8-0.3-1.7-0.6-2.7-0.8c-1-0.2-2.2-0.3-3.6-0.3c-2.8,0-5.4,0.5-7.8,1.6
		c-2.4,1.1-4.5,2.6-6.3,4.6c-1.8,2-3.2,4.4-4.2,7.3c-1,2.9-1.5,6.1-1.5,9.6c0,2.6,0.3,4.9,1,7c0.7,2.1,1.7,3.8,2.9,5.3
		c1.2,1.5,2.7,2.6,4.5,3.3C86.4,179.8,88.3,180.2,90.4,180.2z"/>
	<path class="st0" d="M142.4,138l-0.3,2.6h-14.4l-5.1,41.7h-3.1l5.1-41.7h-14.5l0.3-2.6H142.4z"/>
	<path class="st0" d="M146.9,164.4l-2.2,17.9h-3.1L147,138h10.7c4.4,0,7.7,1,9.9,2.9c2.2,2,3.3,4.7,3.3,8.2c0,2.3-0.4,4.3-1.2,6.2
		c-0.8,1.9-1.9,3.5-3.3,4.8c-1.4,1.3-3.2,2.4-5.2,3.1c-2,0.8-4.3,1.1-6.8,1.1H146.9z M149.8,140.5l-2.7,21.5h7.6
		c2,0,3.8-0.3,5.4-0.9c1.6-0.6,2.9-1.5,4.1-2.6c1.1-1.1,2-2.4,2.6-3.9c0.6-1.5,0.9-3.2,0.9-5c0-2.8-0.9-5-2.6-6.6
		c-1.7-1.6-4.3-2.4-7.7-2.4H149.8z"/>
	<path class="st0" d="M201.1,182.3h-2.4c-0.3,0-0.5-0.1-0.7-0.2c-0.2-0.2-0.3-0.3-0.4-0.6l-3.2-13h-20l-6.4,13
		c-0.1,0.2-0.3,0.4-0.5,0.6c-0.2,0.2-0.5,0.2-0.8,0.2h-2.4l22.3-44.3h3.1L201.1,182.3z M175.5,166.3h18.3l-5.5-22.6
		c-0.1-0.4-0.2-0.8-0.3-1.2c-0.1-0.4-0.2-0.9-0.3-1.4c-0.2,0.5-0.4,1-0.6,1.4c-0.2,0.5-0.4,0.9-0.6,1.3L175.5,166.3z"/>
	<path class="st0" d="M237.5,182.3h-3.2l2.6-21.3h-25.5l-2.6,21.3h-3.2l5.5-44.3h3.2l-2.6,20.7h25.5l2.6-20.7h3.2L237.5,182.3z"/>
	<path class="st0" d="M256,138l-2.5,20.1h9.6c2.1,0,3.9,0.2,5.4,0.7c1.5,0.5,2.8,1.1,3.9,2c1,0.9,1.8,1.9,2.3,3.1
		c0.5,1.2,0.8,2.6,0.8,4.2c0,2.2-0.3,4.2-1,5.9c-0.7,1.8-1.7,3.2-3,4.5c-1.3,1.2-2.9,2.2-4.9,2.8c-1.9,0.7-4.1,1-6.5,1h-12.6
		l5.5-44.3H256z M253.2,160.6l-2.4,19.3h9.5c2,0,3.7-0.3,5.2-0.8c1.5-0.5,2.7-1.3,3.7-2.2c1-1,1.8-2.2,2.3-3.6
		c0.5-1.4,0.8-3,0.8-4.8c0-2.6-0.8-4.6-2.4-5.9c-1.6-1.3-4-2-7.2-2H253.2z M285.3,182.3h-3.2l5.5-44.3h3.2L285.3,182.3z"/>
</g>
<polygon class="st1" points="332.7,33.5 1,33.5 6.8,0.4 338.5,0.4 "/>
<g>
	<path class="st0" d="M23.9,22.6c0.4,0,0.7,0,0.9-0.1c0.3-0.1,0.5-0.1,0.7-0.2c0.2-0.1,0.4-0.2,0.5-0.3c0.1-0.1,0.3-0.2,0.4-0.3
		c0.1-0.1,0.2-0.2,0.3-0.2c0.1-0.1,0.2-0.1,0.3-0.1c0.1,0,0.2,0,0.3,0.1c0.1,0,0.1,0.1,0.2,0.1l1.1,1.4c-0.6,0.7-1.4,1.3-2.2,1.7
		c-0.9,0.4-1.8,0.6-2.9,0.6c-0.9,0-1.7-0.2-2.4-0.5c-0.7-0.3-1.3-0.8-1.8-1.3c-0.5-0.6-0.8-1.2-1.1-2c-0.2-0.8-0.4-1.6-0.4-2.5
		c0-0.8,0.1-1.6,0.3-2.3c0.2-0.7,0.4-1.4,0.8-2c0.3-0.6,0.7-1.2,1.2-1.7c0.5-0.5,1-0.9,1.6-1.3c0.6-0.3,1.2-0.6,1.9-0.8
		c0.7-0.2,1.4-0.3,2.1-0.3c0.5,0,1,0.1,1.5,0.2c0.4,0.1,0.9,0.2,1.2,0.4c0.4,0.2,0.7,0.4,1,0.6c0.3,0.2,0.5,0.5,0.7,0.8l-1.1,1.3
		c-0.1,0.1-0.2,0.2-0.3,0.2c-0.1,0.1-0.2,0.1-0.4,0.1c-0.1,0-0.2,0-0.3-0.1c-0.1-0.1-0.2-0.1-0.3-0.2c-0.1-0.1-0.2-0.2-0.3-0.3
		c-0.1-0.1-0.3-0.2-0.4-0.3c-0.2-0.1-0.4-0.1-0.6-0.2c-0.2-0.1-0.5-0.1-0.8-0.1c-0.6,0-1.2,0.1-1.7,0.4c-0.5,0.3-1,0.6-1.4,1.1
		c-0.4,0.5-0.7,1.1-0.9,1.7c-0.2,0.7-0.3,1.4-0.3,2.3c0,0.6,0.1,1.2,0.2,1.6c0.1,0.5,0.4,0.9,0.6,1.2c0.3,0.3,0.6,0.6,0.9,0.8
		C23.1,22.5,23.5,22.6,23.9,22.6z"/>
	<path class="st0" d="M44.5,17c0,0.8-0.1,1.5-0.3,2.2c-0.2,0.7-0.4,1.4-0.8,2c-0.3,0.6-0.7,1.2-1.2,1.7c-0.5,0.5-1,0.9-1.6,1.3
		c-0.6,0.4-1.2,0.6-1.9,0.8c-0.7,0.2-1.4,0.3-2.2,0.3c-1,0-1.8-0.2-2.6-0.5c-0.8-0.3-1.4-0.8-1.9-1.4c-0.5-0.6-0.9-1.3-1.2-2
		c-0.3-0.8-0.4-1.6-0.4-2.5c0-0.8,0.1-1.5,0.3-2.2c0.2-0.7,0.4-1.4,0.8-2c0.3-0.6,0.7-1.2,1.2-1.7c0.5-0.5,1-0.9,1.6-1.3
		c0.6-0.4,1.2-0.6,1.9-0.8c0.7-0.2,1.4-0.3,2.2-0.3c0.9,0,1.8,0.2,2.6,0.5c0.8,0.3,1.4,0.8,1.9,1.4c0.5,0.6,0.9,1.3,1.2,2
		C44.3,15.2,44.5,16.1,44.5,17z M41.2,17c0-0.6-0.1-1.1-0.2-1.6c-0.1-0.5-0.4-0.9-0.6-1.2c-0.3-0.3-0.6-0.6-1-0.8
		c-0.4-0.2-0.8-0.3-1.4-0.3c-0.7,0-1.3,0.1-1.8,0.4c-0.5,0.3-1,0.7-1.3,1.1c-0.4,0.5-0.6,1.1-0.8,1.8s-0.3,1.5-0.3,2.3
		c0,0.6,0.1,1.1,0.2,1.6c0.1,0.5,0.3,0.9,0.6,1.2c0.3,0.3,0.6,0.6,1,0.8c0.4,0.2,0.9,0.3,1.4,0.3c0.7,0,1.3-0.1,1.8-0.4
		c0.5-0.3,1-0.7,1.3-1.1c0.4-0.5,0.7-1.1,0.8-1.8C41.1,18.6,41.2,17.9,41.2,17z"/>
	<path class="st0" d="M57.2,13.1h-6.3l-0.4,3.4h1.7c0.8,0,1.6,0.1,2.2,0.3c0.6,0.2,1.1,0.4,1.4,0.8c0.4,0.3,0.6,0.7,0.8,1.1
		c0.2,0.4,0.2,0.9,0.2,1.3c0,0.7-0.1,1.4-0.4,2.1c-0.3,0.6-0.6,1.2-1.1,1.6c-0.5,0.4-1.1,0.8-1.8,1c-0.7,0.2-1.5,0.4-2.4,0.4h-4.9
		L48,10.7h9.5L57.2,13.1z M50.2,18.9l-0.5,3.7h1.7c0.4,0,0.7-0.1,1-0.2c0.3-0.1,0.5-0.3,0.7-0.5c0.2-0.2,0.3-0.4,0.4-0.7
		c0.1-0.3,0.1-0.6,0.1-0.9c0-0.2,0-0.4-0.1-0.6c-0.1-0.2-0.1-0.3-0.3-0.5c-0.1-0.1-0.3-0.2-0.5-0.3c-0.2-0.1-0.5-0.1-0.8-0.1H50.2z"
		/>
	<path class="st0" d="M62.7,20.2l-0.6,4.8h-3.2l1.8-14.4h4.8c0.9,0,1.6,0.1,2.2,0.3c0.6,0.2,1.1,0.5,1.5,0.9
		c0.4,0.4,0.7,0.8,0.9,1.3c0.2,0.5,0.3,1,0.3,1.6c0,0.8-0.1,1.5-0.4,2.2c-0.2,0.7-0.6,1.2-1.1,1.7c-0.5,0.5-1.1,0.9-1.9,1.1
		c-0.8,0.3-1.7,0.4-2.7,0.4H62.7z M63.6,13.1L63,17.8h1.6c0.5,0,0.9-0.1,1.2-0.2c0.3-0.1,0.6-0.3,0.8-0.6c0.2-0.2,0.3-0.5,0.4-0.9
		c0.1-0.3,0.1-0.7,0.1-1.1c0-0.3,0-0.5-0.1-0.8c-0.1-0.2-0.2-0.4-0.4-0.6c-0.2-0.2-0.4-0.3-0.6-0.4c-0.2-0.1-0.5-0.1-0.9-0.1H63.6z"
		/>
	<path class="st0" d="M82.8,25.1h-2.5c-0.3,0-0.5-0.1-0.7-0.2c-0.2-0.1-0.3-0.3-0.3-0.5l-0.4-2.6h-4.9l-1.1,2.6
		c-0.1,0.2-0.2,0.3-0.4,0.5c-0.2,0.1-0.4,0.2-0.7,0.2h-2.5l6.9-14.4h3.3L82.8,25.1z M74.8,19.6h3.6l-0.7-4.1
		c-0.1-0.3-0.1-0.6-0.2-0.9c-0.1-0.3-0.1-0.7-0.2-1.1c-0.2,0.4-0.3,0.8-0.5,1.1c-0.2,0.4-0.3,0.7-0.4,0.9L74.8,19.6z"/>
	<path class="st0" d="M84.7,25.1l1.8-14.4h5c0.8,0,1.6,0.1,2.2,0.2c0.6,0.2,1.1,0.4,1.5,0.7c0.4,0.3,0.7,0.6,0.8,1.1
		c0.2,0.4,0.3,0.9,0.3,1.4c0,0.4-0.1,0.8-0.2,1.1c-0.1,0.4-0.3,0.7-0.5,1c-0.2,0.3-0.5,0.6-0.9,0.8c-0.4,0.3-0.8,0.5-1.3,0.6
		c0.8,0.2,1.4,0.5,1.7,1c0.4,0.4,0.6,1,0.6,1.7c0,0.7-0.1,1.3-0.4,1.9c-0.3,0.6-0.6,1.1-1.1,1.5c-0.5,0.4-1.1,0.8-1.8,1
		c-0.7,0.2-1.5,0.4-2.3,0.4H84.7z M88.7,18.9l-0.5,3.7h2.1c0.4,0,0.7-0.1,1-0.2c0.3-0.1,0.5-0.3,0.7-0.5c0.2-0.2,0.3-0.4,0.4-0.7
		c0.1-0.3,0.1-0.6,0.1-0.9c0-0.2,0-0.4-0.1-0.6c-0.1-0.2-0.2-0.3-0.3-0.4c-0.1-0.1-0.3-0.2-0.5-0.3c-0.2-0.1-0.5-0.1-0.8-0.1H88.7z
		 M89,16.8h1.6c0.4,0,0.7,0,1-0.1c0.3-0.1,0.5-0.2,0.8-0.4c0.2-0.2,0.4-0.4,0.5-0.7c0.1-0.3,0.2-0.6,0.2-1.1c0-0.5-0.1-0.9-0.4-1.1
		c-0.3-0.2-0.7-0.3-1.3-0.3h-1.7L89,16.8z"/>
	<path class="st0" d="M115.4,25.1H97.9l1.8-14.4h3.2l-1.5,12h3.9l1.5-12h3.3l-1.5,12h3.9l1.5-12h3.2L115.4,25.1z"/>
	<path class="st0" d="M128.4,11.6c0.1-0.1,0.2-0.2,0.3-0.3c0.1-0.1,0.2-0.2,0.4-0.3c0.1-0.1,0.3-0.2,0.4-0.2
		c0.1-0.1,0.3-0.1,0.5-0.1h2.4l-1.8,14.4h-3.2l1-8c0.1-0.4,0.1-0.7,0.2-1.1c0.1-0.4,0.2-0.8,0.3-1.3c-0.2,0.4-0.4,0.8-0.6,1.1
		c-0.2,0.3-0.4,0.6-0.6,0.9l-4.7,7.4c-0.1,0.1-0.2,0.2-0.3,0.3c-0.1,0.1-0.2,0.2-0.4,0.3c-0.1,0.1-0.3,0.2-0.4,0.2
		c-0.1,0.1-0.3,0.1-0.5,0.1h-2.4l1.8-14.4h3.2l-1,7.9c-0.1,0.4-0.1,0.8-0.2,1.2c-0.1,0.4-0.2,0.8-0.3,1.3c0.2-0.4,0.4-0.8,0.6-1.1
		c0.2-0.4,0.4-0.7,0.6-0.9L128.4,11.6z"/>
	<path class="st0" d="M143.5,11.6c0.1-0.1,0.2-0.2,0.3-0.3c0.1-0.1,0.2-0.2,0.4-0.3c0.1-0.1,0.3-0.2,0.4-0.2
		c0.1-0.1,0.3-0.1,0.5-0.1h2.4l-1.8,14.4h-3.2l1-8c0.1-0.4,0.1-0.7,0.2-1.1c0.1-0.4,0.2-0.8,0.3-1.3c-0.2,0.4-0.4,0.8-0.6,1.1
		c-0.2,0.3-0.4,0.6-0.6,0.9l-4.7,7.4c-0.1,0.1-0.2,0.2-0.3,0.3c-0.1,0.1-0.2,0.2-0.4,0.3c-0.1,0.1-0.3,0.2-0.4,0.2
		c-0.1,0.1-0.3,0.1-0.5,0.1H134l1.8-14.4h3.2l-1,7.9c-0.1,0.4-0.1,0.8-0.2,1.2c-0.1,0.4-0.2,0.8-0.3,1.3c0.2-0.4,0.4-0.8,0.6-1.1
		c0.2-0.4,0.4-0.7,0.6-0.9L143.5,11.6z M141.9,8.5c0.2,0,0.4,0,0.5-0.1c0.1,0,0.2-0.1,0.3-0.2c0.1-0.1,0.2-0.2,0.2-0.4
		c0-0.2,0.1-0.4,0.1-0.7h1.7c0.1,0,0.2,0,0.2,0.1c0.1,0,0.1,0.1,0.2,0.2c0,0.1,0.1,0.2,0.1,0.3c0,0.1,0,0.2,0,0.3
		c0,0.3-0.2,0.6-0.3,0.9c-0.2,0.3-0.4,0.5-0.8,0.6c-0.3,0.2-0.7,0.3-1.1,0.4c-0.4,0.1-0.9,0.1-1.3,0.1c-0.5,0-0.9,0-1.3-0.1
		c-0.4-0.1-0.7-0.2-1-0.4c-0.3-0.2-0.5-0.4-0.6-0.6c-0.1-0.3-0.2-0.6-0.1-0.9c0-0.1,0-0.2,0.1-0.3c0-0.1,0.1-0.2,0.1-0.3
		c0.1-0.1,0.1-0.1,0.2-0.2c0.1,0,0.2-0.1,0.3-0.1h1.7c0,0.3,0,0.5,0,0.7c0,0.2,0,0.3,0.1,0.4c0.1,0.1,0.2,0.2,0.3,0.2
		C141.6,8.4,141.7,8.5,141.9,8.5z"/>
	<path class="st0" d="M164.1,11.9c-0.1,0.4-0.2,0.7-0.5,1c-0.3,0.3-0.8,0.4-1.4,0.4h-3l-0.7,2.5c0.3,0,0.5-0.1,0.7-0.1
		c0.2,0,0.5,0,0.7,0c0.6,0,1.2,0.1,1.7,0.3c0.5,0.2,0.9,0.5,1.2,0.8c0.3,0.3,0.6,0.7,0.7,1.2c0.2,0.5,0.2,1,0.2,1.5
		c0,0.8-0.1,1.6-0.4,2.3c-0.3,0.7-0.7,1.3-1.2,1.8c-0.5,0.5-1.1,0.9-1.9,1.2c-0.7,0.3-1.5,0.4-2.3,0.4c-0.4,0-0.8,0-1.2-0.1
		c-0.4-0.1-0.7-0.2-1.1-0.4c-0.3-0.2-0.6-0.4-0.9-0.6c-0.3-0.2-0.5-0.4-0.7-0.7l1.1-1.2c0.2-0.2,0.5-0.4,0.8-0.4
		c0.2,0,0.4,0.1,0.5,0.2c0.1,0.1,0.3,0.2,0.5,0.4c0.2,0.1,0.4,0.2,0.6,0.4c0.2,0.1,0.5,0.2,0.9,0.2c0.4,0,0.8-0.1,1.1-0.3
		c0.3-0.2,0.5-0.4,0.7-0.7c0.2-0.3,0.3-0.6,0.4-1c0.1-0.4,0.1-0.7,0.1-1.1c0-0.6-0.2-1-0.5-1.4c-0.3-0.3-0.7-0.5-1.3-0.5
		c-0.6,0-1.2,0.1-1.8,0.4l-1.8-0.5l2-7.1h6.9L164.1,11.9z"/>
	<path class="st0" d="M172.8,10.5c0.6,0,1.2,0.1,1.6,0.3c0.5,0.2,0.9,0.4,1.2,0.7c0.3,0.3,0.5,0.7,0.7,1.1c0.2,0.4,0.2,0.8,0.2,1.3
		c0,0.5-0.1,1-0.2,1.4c-0.1,0.4-0.3,0.7-0.5,1c-0.2,0.3-0.5,0.5-0.8,0.7c-0.3,0.2-0.7,0.4-1.1,0.5c1.3,0.5,1.9,1.4,1.9,2.8
		c0,0.8-0.2,1.5-0.5,2.2c-0.3,0.6-0.7,1.1-1.2,1.6c-0.5,0.4-1.1,0.7-1.7,0.9c-0.6,0.2-1.3,0.3-2,0.3c-0.6,0-1.2-0.1-1.6-0.2
		c-0.5-0.2-0.9-0.4-1.2-0.7c-0.4-0.3-0.6-0.7-0.9-1.2c-0.2-0.5-0.4-1-0.6-1.7l1.4-0.5c0.2-0.1,0.3-0.1,0.5-0.1c0.2,0,0.3,0,0.5,0
		c0.1,0,0.3,0.1,0.4,0.2c0.1,0.1,0.2,0.2,0.2,0.3c0.2,0.5,0.5,0.9,0.7,1.2c0.3,0.3,0.6,0.4,0.9,0.4c0.3,0,0.6-0.1,0.9-0.2
		c0.3-0.1,0.5-0.3,0.7-0.6c0.2-0.2,0.3-0.5,0.4-0.8c0.1-0.3,0.1-0.6,0.1-1c0-0.2,0-0.4-0.1-0.6c-0.1-0.2-0.2-0.3-0.4-0.5
		c-0.2-0.1-0.4-0.2-0.8-0.3c-0.3-0.1-0.7-0.1-1.3-0.1l0.3-2c0.6,0,1,0,1.4-0.1c0.4-0.1,0.7-0.2,0.9-0.4c0.2-0.2,0.4-0.4,0.4-0.7
		c0.1-0.3,0.1-0.6,0.1-1c0-0.5-0.1-0.8-0.3-1.1c-0.2-0.3-0.5-0.4-1-0.4c-0.4,0-0.7,0.1-1,0.4c-0.3,0.3-0.5,0.6-0.7,0.9
		c-0.2,0.3-0.4,0.6-0.6,0.7c-0.2,0.1-0.5,0.1-0.9,0.1l-1.5-0.3c0.2-0.7,0.5-1.3,0.8-1.9c0.3-0.5,0.7-1,1.2-1.3
		c0.5-0.4,1-0.6,1.5-0.8C171.6,10.6,172.2,10.5,172.8,10.5z"/>
	<path class="st0" d="M188.7,11.9c-0.1,0.4-0.2,0.7-0.5,1c-0.3,0.3-0.8,0.4-1.4,0.4h-3l-0.7,2.5c0.3,0,0.5-0.1,0.7-0.1
		c0.2,0,0.5,0,0.7,0c0.6,0,1.2,0.1,1.7,0.3c0.5,0.2,0.9,0.5,1.2,0.8c0.3,0.3,0.6,0.7,0.7,1.2c0.2,0.5,0.2,1,0.2,1.5
		c0,0.8-0.1,1.6-0.4,2.3c-0.3,0.7-0.7,1.3-1.2,1.8c-0.5,0.5-1.1,0.9-1.9,1.2c-0.7,0.3-1.5,0.4-2.3,0.4c-0.4,0-0.8,0-1.2-0.1
		c-0.4-0.1-0.7-0.2-1.1-0.4c-0.3-0.2-0.6-0.4-0.9-0.6c-0.3-0.2-0.5-0.4-0.7-0.7l1.1-1.2c0.2-0.2,0.5-0.4,0.8-0.4
		c0.2,0,0.4,0.1,0.5,0.2c0.1,0.1,0.3,0.2,0.5,0.4c0.2,0.1,0.4,0.2,0.6,0.4c0.2,0.1,0.5,0.2,0.9,0.2c0.4,0,0.8-0.1,1.1-0.3
		c0.3-0.2,0.5-0.4,0.7-0.7c0.2-0.3,0.3-0.6,0.4-1c0.1-0.4,0.1-0.7,0.1-1.1c0-0.6-0.2-1-0.5-1.4c-0.3-0.3-0.7-0.5-1.3-0.5
		c-0.6,0-1.2,0.1-1.8,0.4l-1.8-0.5l2-7.1h6.9L188.7,11.9z"/>
	<path class="st0" d="M197.4,10.5c0.6,0,1.2,0.1,1.6,0.3c0.5,0.2,0.9,0.4,1.2,0.7c0.3,0.3,0.6,0.7,0.8,1.1c0.2,0.4,0.3,0.9,0.3,1.5
		c0,0.6-0.1,1.1-0.3,1.6c-0.2,0.5-0.4,1-0.7,1.4c-0.3,0.4-0.6,0.9-1,1.3c-0.4,0.4-0.8,0.8-1.3,1.3l-3.1,3c0.4-0.1,0.8-0.2,1.2-0.3
		c0.4-0.1,0.7-0.1,1.1-0.1h2.3c0.3,0,0.6,0.1,0.7,0.3c0.2,0.2,0.2,0.4,0.2,0.7l-0.2,1.7h-9.4l0.1-0.9c0-0.2,0.1-0.4,0.2-0.6
		c0.1-0.2,0.3-0.4,0.5-0.6l4.3-4.2c0.4-0.4,0.8-0.8,1.1-1.2s0.6-0.7,0.7-1c0.2-0.3,0.3-0.7,0.4-1c0.1-0.3,0.1-0.7,0.1-1.1
		c0-0.5-0.1-0.8-0.3-1.1c-0.2-0.3-0.5-0.4-1-0.4c-0.4,0-0.7,0.1-1,0.4c-0.3,0.3-0.5,0.6-0.7,0.9c-0.2,0.3-0.4,0.6-0.6,0.7
		c-0.2,0.1-0.5,0.1-0.9,0.1l-1.5-0.3c0.2-0.7,0.5-1.3,0.8-1.9c0.3-0.5,0.7-1,1.2-1.3c0.5-0.4,1-0.6,1.5-0.8
		C196.2,10.6,196.8,10.5,197.4,10.5z"/>
	<path class="st0" d="M218.3,25.1h-3.2l0.7-5.5c-0.7,0.2-1.5,0.3-2.1,0.4c-0.7,0.1-1.3,0.1-1.8,0c-0.6,0-1-0.2-1.5-0.4
		c-0.4-0.2-0.8-0.5-1.1-0.8c-0.3-0.4-0.5-0.8-0.6-1.4c-0.1-0.6-0.1-1.2,0-2l0.6-4.8h3.3l-0.6,4.8c-0.1,0.5-0.1,0.9,0,1.2
		c0.1,0.3,0.2,0.6,0.5,0.8c0.3,0.2,0.7,0.3,1.3,0.3c0.6,0,1.3-0.1,2.3-0.3l0.8-6.7h3.2L218.3,25.1z"/>
	<path class="st0" d="M231.9,13.2h-5.4l-0.4,3.5h4.1l-0.3,2.4h-4.1l-0.4,3.6h5.4l-0.3,2.5h-8.6l1.8-14.4h8.6L231.9,13.2z"/>
	<path class="st0" d="M246.5,10.7l-1.8,14.4h-3.2l1.5-12h-2.8c-0.3,1.8-0.6,3.3-1,4.6c-0.3,1.3-0.7,2.4-1,3.3
		c-0.3,0.9-0.7,1.6-1.1,2.2c-0.4,0.6-0.7,1-1.1,1.3c-0.4,0.3-0.8,0.5-1.2,0.6c-0.4,0.1-0.8,0.2-1.3,0.2c-0.6,0-0.9,0-1.2-0.1
		c-0.2-0.1-0.3-0.2-0.3-0.4l0.2-1.9h0.8c0.1,0,0.3,0,0.4,0c0.1,0,0.3-0.1,0.5-0.2c0.2-0.1,0.3-0.3,0.5-0.5c0.2-0.2,0.4-0.5,0.5-0.9
		c0.2-0.4,0.4-0.9,0.6-1.5c0.2-0.6,0.4-1.3,0.6-2.1c0.2-0.8,0.4-1.8,0.6-2.9c0.2-1.1,0.4-2.4,0.6-3.8H246.5z"/>
	<path class="st0" d="M262.3,17c0,0.8-0.1,1.5-0.3,2.2c-0.2,0.7-0.4,1.4-0.8,2c-0.3,0.6-0.7,1.2-1.2,1.7c-0.5,0.5-1,0.9-1.6,1.3
		c-0.6,0.4-1.2,0.6-1.9,0.8c-0.7,0.2-1.4,0.3-2.2,0.3c-1,0-1.8-0.2-2.6-0.5c-0.8-0.3-1.4-0.8-1.9-1.4c-0.5-0.6-0.9-1.3-1.2-2
		c-0.3-0.8-0.4-1.6-0.4-2.5c0-0.8,0.1-1.5,0.3-2.2c0.2-0.7,0.4-1.4,0.8-2c0.3-0.6,0.7-1.2,1.2-1.7c0.5-0.5,1-0.9,1.6-1.3
		c0.6-0.4,1.2-0.6,1.9-0.8c0.7-0.2,1.4-0.3,2.2-0.3c0.9,0,1.8,0.2,2.6,0.5c0.8,0.3,1.4,0.8,1.9,1.4c0.5,0.6,0.9,1.3,1.2,2
		C262.2,15.2,262.3,16.1,262.3,17z M259,17c0-0.6-0.1-1.1-0.2-1.6c-0.1-0.5-0.4-0.9-0.6-1.2c-0.3-0.3-0.6-0.6-1-0.8
		c-0.4-0.2-0.8-0.3-1.4-0.3c-0.7,0-1.3,0.1-1.8,0.4c-0.5,0.3-1,0.7-1.3,1.1c-0.4,0.5-0.6,1.1-0.8,1.8s-0.3,1.5-0.3,2.3
		c0,0.6,0.1,1.1,0.2,1.6c0.1,0.5,0.3,0.9,0.6,1.2c0.3,0.3,0.6,0.6,1,0.8c0.4,0.2,0.9,0.3,1.4,0.3c0.7,0,1.3-0.1,1.8-0.4
		c0.5-0.3,1-0.7,1.3-1.1c0.4-0.5,0.7-1.1,0.8-1.8C258.9,18.6,259,17.9,259,17z"/>
	<path class="st0" d="M264,25.1l1.8-14.4h5c0.8,0,1.6,0.1,2.2,0.2c0.6,0.2,1.1,0.4,1.5,0.7c0.4,0.3,0.7,0.6,0.8,1.1
		c0.2,0.4,0.3,0.9,0.3,1.4c0,0.4-0.1,0.8-0.2,1.1c-0.1,0.4-0.3,0.7-0.5,1c-0.2,0.3-0.5,0.6-0.9,0.8c-0.4,0.3-0.8,0.5-1.3,0.6
		c0.8,0.2,1.4,0.5,1.7,1c0.4,0.4,0.6,1,0.6,1.7c0,0.7-0.1,1.3-0.4,1.9c-0.3,0.6-0.6,1.1-1.1,1.5c-0.5,0.4-1.1,0.8-1.8,1
		c-0.7,0.2-1.5,0.4-2.3,0.4H264z M268,18.9l-0.5,3.7h2.1c0.4,0,0.7-0.1,1-0.2c0.3-0.1,0.5-0.3,0.7-0.5c0.2-0.2,0.3-0.4,0.4-0.7
		c0.1-0.3,0.1-0.6,0.1-0.9c0-0.2,0-0.4-0.1-0.6c-0.1-0.2-0.2-0.3-0.3-0.4c-0.1-0.1-0.3-0.2-0.5-0.3c-0.2-0.1-0.5-0.1-0.8-0.1H268z
		 M268.3,16.8h1.5c0.4,0,0.7,0,1-0.1c0.3-0.1,0.5-0.2,0.8-0.4c0.2-0.2,0.4-0.4,0.5-0.7c0.1-0.3,0.2-0.6,0.2-1.1
		c0-0.5-0.1-0.9-0.4-1.1c-0.3-0.2-0.7-0.3-1.3-0.3h-1.7L268.3,16.8z"/>
	<path class="st0" d="M287.3,13.2H282l-0.4,3.5h4.1l-0.3,2.4h-4.1l-0.4,3.6h5.4l-0.3,2.5h-8.6l1.8-14.4h8.6L287.3,13.2z"/>
	<path class="st0" d="M292.9,16.6h1.1c0.2,0,0.4,0,0.6-0.1c0.2-0.1,0.3-0.3,0.5-0.5l2.8-4.4c0.2-0.2,0.4-0.4,0.6-0.6
		c0.2-0.2,0.5-0.2,0.8-0.2h2.8l-3.9,5.7c-0.2,0.3-0.4,0.5-0.6,0.6c-0.2,0.2-0.5,0.3-0.8,0.4c0.4,0.1,0.7,0.3,1,0.6
		c0.3,0.3,0.5,0.6,0.7,1.1l2.1,6h-3c-0.3,0-0.5-0.1-0.7-0.2c-0.2-0.2-0.3-0.4-0.5-0.7l-1.5-4.6c-0.1-0.3-0.3-0.5-0.4-0.6
		c-0.2-0.1-0.4-0.1-0.7-0.1h-1.4l-0.8,6.2h-3.2l1.8-14.4h3.2L292.9,16.6z"/>
	<path class="st0" d="M314.9,25.1h-2.5c-0.3,0-0.5-0.1-0.7-0.2c-0.2-0.1-0.3-0.3-0.3-0.5l-0.4-2.6h-4.9l-1.1,2.6
		c-0.1,0.2-0.2,0.3-0.4,0.5c-0.2,0.1-0.4,0.2-0.7,0.2h-2.5l6.9-14.4h3.3L314.9,25.1z M307,19.6h3.6l-0.7-4.1
		c-0.1-0.3-0.1-0.6-0.2-0.9c-0.1-0.3-0.1-0.7-0.2-1.1c-0.2,0.4-0.3,0.8-0.5,1.1c-0.2,0.4-0.3,0.7-0.4,0.9L307,19.6z"/>
</g>
<g>
	<path class="st0" d="M55.2,55.1h-0.9l0.7-6h-7.2l-0.7,6h-0.9l1.6-12.5h0.9L48,48.5h7.2l0.7-5.9h0.9L55.2,55.1z"/>
	<path class="st0" d="M69.1,55.1h-0.7c-0.1,0-0.1,0-0.2-0.1c0,0-0.1-0.1-0.1-0.2l-0.9-3.7h-5.7l-1.8,3.7c0,0.1-0.1,0.1-0.1,0.2
		c-0.1,0-0.1,0.1-0.2,0.1h-0.7l6.3-12.5h0.9L69.1,55.1z M61.9,50.6h5.2l-1.6-6.4c0-0.1,0-0.2-0.1-0.3c0-0.1-0.1-0.3-0.1-0.4
		c-0.1,0.1-0.1,0.3-0.2,0.4c-0.1,0.1-0.1,0.2-0.2,0.4L61.9,50.6z"/>
	<path class="st0" d="M83.3,54.5c0.4,0,0.8,0,1.2-0.1c0.3-0.1,0.7-0.2,0.9-0.3c0.3-0.1,0.5-0.2,0.7-0.4c0.2-0.1,0.4-0.2,0.5-0.4
		c0.1-0.1,0.2-0.2,0.3-0.3s0.1-0.1,0.2-0.1c0.1,0,0.1,0,0.1,0.1l0.3,0.4c-0.5,0.5-1.2,1-1.9,1.3c-0.7,0.3-1.5,0.5-2.5,0.5
		c-0.7,0-1.4-0.1-2-0.4c-0.6-0.3-1.1-0.6-1.5-1.1c-0.4-0.5-0.7-1.1-1-1.7c-0.2-0.7-0.3-1.4-0.3-2.2c0-1.1,0.2-2.1,0.5-3
		c0.3-0.9,0.8-1.7,1.4-2.3c0.6-0.6,1.3-1.2,2.1-1.5c0.8-0.4,1.7-0.5,2.6-0.5c0.4,0,0.8,0,1.2,0.1c0.3,0.1,0.7,0.2,1,0.3
		c0.3,0.1,0.6,0.3,0.8,0.5c0.2,0.2,0.5,0.4,0.7,0.7l-0.3,0.4c-0.1,0.1-0.1,0.1-0.2,0.1c-0.1,0-0.1,0-0.2-0.1
		c-0.1-0.1-0.2-0.1-0.3-0.2c-0.1-0.1-0.2-0.2-0.4-0.3c-0.2-0.1-0.3-0.2-0.6-0.3c-0.2-0.1-0.5-0.2-0.8-0.2c-0.3-0.1-0.6-0.1-1-0.1
		c-0.8,0-1.5,0.2-2.2,0.5C82,44,81.5,44.4,81,45c-0.5,0.6-0.9,1.3-1.2,2.1c-0.3,0.8-0.4,1.7-0.4,2.7c0,0.7,0.1,1.4,0.3,2
		c0.2,0.6,0.5,1.1,0.8,1.5c0.4,0.4,0.8,0.7,1.3,0.9C82.2,54.4,82.8,54.5,83.3,54.5z"/>
	<path class="st0" d="M100.1,55.1h-0.7c-0.1,0-0.1,0-0.2-0.1c0,0-0.1-0.1-0.1-0.2l-0.9-3.7h-5.7l-1.8,3.7c0,0.1-0.1,0.1-0.1,0.2
		c-0.1,0-0.1,0.1-0.2,0.1h-0.7L96,42.6h0.9L100.1,55.1z M92.9,50.6h5.2l-1.6-6.4c0-0.1,0-0.2-0.1-0.3c0-0.1-0.1-0.3-0.1-0.4
		c-0.1,0.1-0.1,0.3-0.2,0.4c-0.1,0.1-0.1,0.2-0.2,0.4L92.9,50.6z"/>
	<path class="st0" d="M109.7,51.8c0,0.1,0,0.1,0.1,0.2c0.1-0.1,0.1-0.3,0.2-0.4l5.7-8.8c0.1-0.1,0.1-0.1,0.2-0.1c0,0,0.1,0,0.2,0
		h0.6l-1.6,12.5h-0.8l1.3-10.7c0-0.1,0-0.1,0-0.2c0-0.1,0-0.2,0-0.2l-5.6,8.8c-0.1,0.1-0.2,0.2-0.4,0.2h-0.1c-0.2,0-0.3-0.1-0.3-0.2
		l-3.6-8.8c0,0.2,0,0.3,0,0.5l-1.3,10.7h-0.8l1.6-12.5h0.6c0.1,0,0.1,0,0.2,0c0,0,0.1,0.1,0.1,0.1l3.6,8.8
		C109.6,51.6,109.7,51.7,109.7,51.8z"/>
	<path class="st0" d="M121.9,54.2c0.3-0.2,0.5-0.5,0.8-0.9l0.9-1.7l-3.6-9h0.8c0.1,0,0.1,0,0.2,0.1c0,0,0.1,0.1,0.1,0.2l2.7,7.2
		c0.1,0.2,0.1,0.3,0.1,0.5c0,0.2,0.1,0.3,0.1,0.5c0.1-0.2,0.1-0.3,0.2-0.5c0.1-0.2,0.2-0.3,0.2-0.5l3.9-7.2c0-0.1,0.1-0.1,0.1-0.2
		c0.1,0,0.1-0.1,0.2-0.1h0.8l-6.1,11c-0.2,0.3-0.3,0.5-0.5,0.7c-0.2,0.2-0.3,0.4-0.5,0.5c-0.2,0.1-0.4,0.2-0.6,0.3
		c-0.2,0.1-0.4,0.1-0.6,0.1c-0.2,0-0.4,0-0.5-0.1c-0.1,0-0.2-0.1-0.2-0.2l0.1-0.5h0.5C121.4,54.5,121.7,54.4,121.9,54.2z"/>
	<path class="st0" d="M133.1,48.5h3.2c0.1-0.9,0.4-1.7,0.7-2.5c0.3-0.7,0.8-1.4,1.3-1.9c0.5-0.5,1.1-0.9,1.8-1.2
		c0.7-0.3,1.4-0.4,2.1-0.4c0.7,0,1.3,0.1,1.8,0.4c0.5,0.3,1,0.6,1.4,1.1c0.4,0.5,0.7,1,0.9,1.7c0.2,0.7,0.3,1.4,0.3,2.2
		c0,0.7-0.1,1.4-0.2,2.1c-0.1,0.7-0.3,1.3-0.6,1.8c-0.3,0.5-0.6,1-0.9,1.5c-0.4,0.4-0.8,0.8-1.2,1.1c-0.4,0.3-0.9,0.5-1.4,0.7
		c-0.5,0.2-1,0.2-1.6,0.2c-0.7,0-1.3-0.1-1.8-0.4c-0.5-0.3-1-0.6-1.4-1.1c-0.4-0.5-0.7-1-0.9-1.7c-0.2-0.7-0.3-1.4-0.3-2.2
		c0-0.1,0-0.2,0-0.4c0-0.1,0-0.2,0-0.4h-3.2l-0.7,5.9h-0.9l1.5-12.5h0.9L133.1,48.5z M140.7,54.5c0.7,0,1.4-0.2,2-0.5
		c0.6-0.3,1.1-0.8,1.6-1.3c0.4-0.6,0.8-1.3,1-2.1c0.2-0.8,0.4-1.8,0.4-2.8c0-0.7-0.1-1.3-0.2-1.9c-0.2-0.6-0.4-1.1-0.7-1.5
		c-0.3-0.4-0.7-0.7-1.1-0.9c-0.4-0.2-0.9-0.3-1.5-0.3c-0.7,0-1.4,0.2-2,0.5c-0.6,0.3-1.1,0.8-1.6,1.3c-0.4,0.6-0.8,1.3-1,2.1
		c-0.2,0.8-0.4,1.8-0.4,2.8c0,0.7,0.1,1.3,0.2,1.9c0.2,0.6,0.4,1.1,0.7,1.5c0.3,0.4,0.7,0.7,1.1,0.9
		C139.7,54.4,140.2,54.5,140.7,54.5z"/>
</g>
<g>
	<path class="st0" d="M28.1,104.3l-0.4,2.9h-6.2l-2.4,19h-3.4l2.3-19h-6.3l0.3-2.9H28.1z"/>
	<path class="st0" d="M35.2,118.2l-1,8h-3.4l2.7-21.9h6.4c1.2,0,2.2,0.1,3.1,0.4c0.9,0.3,1.6,0.7,2.2,1.2c0.6,0.5,1,1.1,1.3,1.9
		c0.3,0.7,0.4,1.5,0.4,2.4c0,1.2-0.2,2.2-0.6,3.2c-0.4,1-0.9,1.8-1.7,2.5c-0.7,0.7-1.6,1.3-2.7,1.7c-1.1,0.4-2.3,0.6-3.8,0.6H35.2z
		 M36.6,107l-1.1,8.5h3c0.8,0,1.5-0.1,2.2-0.4c0.6-0.2,1.1-0.6,1.5-1c0.4-0.4,0.7-1,0.9-1.6c0.2-0.6,0.3-1.3,0.3-2
		c0-1.1-0.3-1.9-1-2.6c-0.6-0.6-1.6-1-2.9-1H36.6z"/>
	<path class="st0" d="M66.2,104.3l-0.4,2.8h-9.2l-0.8,6.7h7.4l-0.4,2.7h-7.4l-0.9,6.9h9.3l-0.4,2.8H50.8l2.7-21.9H66.2z"/>
	<path class="st0" d="M86.6,126.2h-3.5l1.2-9.8h-10l-1.2,9.8h-3.5l2.7-21.9h3.5l-1.2,9.6h10l1.2-9.6h3.5L86.6,126.2z"/>
	<path class="st0" d="M109.4,105.4c0.1-0.1,0.2-0.3,0.3-0.4c0.1-0.1,0.3-0.2,0.4-0.3c0.1-0.1,0.3-0.2,0.5-0.2
		c0.2-0.1,0.3-0.1,0.5-0.1h2.6l-2.7,21.9h-3.5l1.8-14.4c0.1-0.5,0.1-1,0.2-1.5c0.1-0.5,0.2-1.1,0.4-1.6c-0.2,0.5-0.5,1-0.8,1.4
		c-0.3,0.4-0.5,0.8-0.7,1.1l-10.1,13.9c-0.1,0.1-0.2,0.3-0.3,0.4c-0.1,0.1-0.3,0.2-0.4,0.3c-0.1,0.1-0.3,0.2-0.5,0.3
		c-0.2,0.1-0.3,0.1-0.5,0.1H94l2.7-21.9h3.5l-1.8,14.4c-0.1,0.5-0.1,1-0.2,1.5c-0.1,0.5-0.2,1.1-0.4,1.6c0.2-0.5,0.5-1,0.8-1.4
		c0.3-0.4,0.5-0.8,0.8-1.1L109.4,105.4z"/>
	<path class="st0" d="M122.7,118.2l-1,8h-3.4l2.7-21.9h6.4c1.2,0,2.2,0.1,3.1,0.4c0.9,0.3,1.6,0.7,2.2,1.2c0.6,0.5,1,1.1,1.3,1.9
		c0.3,0.7,0.4,1.5,0.4,2.4c0,1.2-0.2,2.2-0.6,3.2c-0.4,1-0.9,1.8-1.7,2.5c-0.7,0.7-1.6,1.3-2.7,1.7c-1.1,0.4-2.3,0.6-3.8,0.6H122.7z
		 M124.1,107l-1.1,8.5h3c0.8,0,1.5-0.1,2.2-0.4c0.6-0.2,1.1-0.6,1.5-1c0.4-0.4,0.7-1,0.9-1.6c0.2-0.6,0.3-1.3,0.3-2
		c0-1.1-0.3-1.9-1-2.6c-0.6-0.6-1.6-1-2.9-1H124.1z"/>
	<path class="st0" d="M159,113.7c0,1.2-0.1,2.4-0.4,3.5c-0.3,1.1-0.6,2.1-1.1,3.1c-0.5,0.9-1.1,1.8-1.8,2.5
		c-0.7,0.8-1.5,1.4-2.4,1.9c-0.9,0.5-1.8,0.9-2.8,1.2c-1,0.3-2.1,0.4-3.2,0.4c-1.4,0-2.6-0.2-3.7-0.7c-1.1-0.5-2-1.2-2.8-2
		c-0.8-0.9-1.4-1.9-1.8-3c-0.4-1.2-0.6-2.5-0.6-3.8c0-1.2,0.1-2.4,0.4-3.5c0.3-1.1,0.7-2.1,1.1-3.1c0.5-0.9,1.1-1.8,1.8-2.6
		c0.7-0.8,1.5-1.4,2.4-1.9c0.9-0.5,1.8-0.9,2.8-1.2c1-0.3,2.1-0.4,3.2-0.4c1.4,0,2.6,0.2,3.7,0.7c1.1,0.5,2,1.2,2.8,2
		c0.8,0.9,1.4,1.9,1.8,3.1C158.8,111.1,159,112.4,159,113.7z M155.4,113.8c0-1-0.1-2-0.4-2.8c-0.3-0.8-0.6-1.6-1.1-2.2
		c-0.5-0.6-1.1-1.1-1.8-1.4c-0.7-0.3-1.5-0.5-2.4-0.5c-1.2,0-2.2,0.2-3.2,0.7c-1,0.5-1.8,1.1-2.5,2c-0.7,0.9-1.2,1.9-1.6,3.1
		c-0.4,1.2-0.6,2.5-0.6,4c0,1,0.1,2,0.4,2.8c0.3,0.8,0.6,1.6,1.1,2.2c0.5,0.6,1.1,1.1,1.8,1.4c0.7,0.3,1.5,0.5,2.4,0.5
		c1.2,0,2.2-0.2,3.2-0.7c1-0.5,1.8-1.1,2.5-2c0.7-0.8,1.2-1.9,1.6-3.1C155.2,116.6,155.4,115.3,155.4,113.8z"/>
	<path class="st0" d="M163.7,126.2l2.7-21.9h6.8c1.2,0,2.2,0.1,3.1,0.3c0.9,0.2,1.6,0.6,2.1,1c0.5,0.4,0.9,1,1.2,1.6
		c0.3,0.6,0.4,1.3,0.4,2c0,0.6-0.1,1.2-0.3,1.8c-0.2,0.6-0.5,1.1-0.8,1.6c-0.4,0.5-0.8,0.9-1.4,1.3c-0.6,0.4-1.2,0.7-2,1
		c1.3,0.3,2.2,0.8,2.9,1.5c0.6,0.7,1,1.6,1,2.7c0,1-0.2,1.9-0.6,2.8c-0.4,0.9-0.9,1.6-1.6,2.2c-0.7,0.6-1.6,1.1-2.6,1.5
		c-1,0.3-2.1,0.5-3.4,0.5H163.7z M168.4,116.4l-0.9,7.1h4c0.8,0,1.4-0.1,2-0.3c0.6-0.2,1-0.5,1.4-0.9c0.4-0.4,0.6-0.8,0.8-1.3
		c0.2-0.5,0.3-1.1,0.3-1.7c0-0.9-0.3-1.6-0.9-2.1c-0.6-0.5-1.5-0.8-2.7-0.8H168.4z M168.6,114h3.2c1.5,0,2.7-0.4,3.4-1.1
		c0.8-0.7,1.2-1.7,1.2-3.1c0-1-0.3-1.7-0.9-2.2c-0.6-0.5-1.5-0.7-2.7-0.7h-3.4L168.6,114z"/>
	<path class="st0" d="M189.8,113.7h2c0.4,0,0.7-0.1,1-0.2c0.3-0.1,0.6-0.4,0.9-0.8l5.7-7.5c0.2-0.3,0.4-0.5,0.7-0.7
		c0.3-0.2,0.6-0.3,0.9-0.3h2.9l-6.8,8.9c-0.3,0.4-0.6,0.7-0.9,0.9c-0.3,0.2-0.7,0.4-1.1,0.6c0.5,0.2,0.9,0.4,1.3,0.7
		c0.3,0.3,0.6,0.8,0.9,1.4l4.5,9.4h-3.1c-0.3,0-0.6-0.1-0.8-0.3c-0.2-0.2-0.4-0.4-0.5-0.8l-3.7-7.7c-0.2-0.4-0.4-0.7-0.7-0.9
		c-0.3-0.2-0.6-0.2-1.1-0.2h-2.3l-1.2,9.9h-3.4l2.7-21.9h3.4L189.8,113.7z"/>
	<path class="st0" d="M210.2,123.5c0.2-0.1,0.5-0.1,0.7-0.3c0.2-0.1,0.4-0.3,0.6-0.5c0.2-0.2,0.4-0.5,0.6-0.9l1.1-2l-6.3-15.5h3.2
		c0.3,0,0.5,0.1,0.7,0.2c0.2,0.2,0.3,0.3,0.4,0.6l3.2,9.1c0.1,0.4,0.3,0.9,0.4,1.3c0.1,0.4,0.2,0.9,0.3,1.3c0.2-0.4,0.4-0.9,0.6-1.3
		c0.2-0.4,0.4-0.9,0.7-1.3l4.8-9.1c0.1-0.2,0.3-0.4,0.5-0.6c0.2-0.2,0.5-0.3,0.8-0.3h2.9l-10.6,19c-0.4,0.6-0.7,1.1-1.1,1.5
		c-0.4,0.4-0.7,0.7-1.1,1c-0.4,0.2-0.8,0.4-1.2,0.5c-0.4,0.1-0.8,0.1-1.2,0.1c-0.7,0-1.2-0.1-1.5-0.2s-0.5-0.4-0.4-0.7l0.2-1.9h1.1
		C209.7,123.6,209.9,123.6,210.2,123.5z"/>
</g>
<g>
	<path class="st0" d="M42.2,83.4c0.1,0.2,0.1,0.5,0.2,0.8c0.1-0.3,0.2-0.5,0.4-0.8c0.1-0.2,0.3-0.5,0.4-0.7l10.4-16.6
		c0.2-0.2,0.4-0.4,0.6-0.5c0.2-0.1,0.4-0.1,0.7-0.1h2.6l-3.3,26.3h-3l2.4-19.5c0-0.2,0.1-0.5,0.1-0.8c0.1-0.3,0.1-0.6,0.2-0.9
		L43.6,87.3c-0.3,0.5-0.8,0.8-1.3,0.8h-0.5c-0.3,0-0.5-0.1-0.7-0.2c-0.2-0.1-0.3-0.3-0.4-0.6l-6.4-16.6c0,0.3,0,0.6,0,0.9
		c0,0.3,0,0.5-0.1,0.8l-2.4,19.5h-3.1l3.3-26.3h2.6c0.3,0,0.5,0,0.7,0.1c0.1,0.1,0.3,0.2,0.5,0.5L42,82.7
		C42.1,83,42.1,83.2,42.2,83.4z"/>
	<path class="st0" d="M83.7,91.9H81c-0.3,0-0.5-0.1-0.7-0.2c-0.2-0.2-0.3-0.4-0.4-0.6l-1.4-6.4H67.7l-3,6.4
		c-0.1,0.2-0.3,0.4-0.5,0.6c-0.2,0.2-0.5,0.2-0.8,0.2h-2.7l13-26.3h3.5L83.7,91.9z M68.8,82.1h9.1l-2.4-10.9
		c-0.1-0.3-0.1-0.7-0.2-1.1c-0.1-0.4-0.2-0.9-0.2-1.4c-0.2,0.5-0.4,1-0.6,1.4c-0.2,0.4-0.3,0.8-0.5,1.1L68.8,82.1z"/>
	<path class="st0" d="M99.9,89.2c0.8,0,1.5-0.1,2.2-0.2c0.6-0.1,1.2-0.3,1.7-0.5c0.5-0.2,0.9-0.4,1.2-0.7c0.3-0.2,0.6-0.5,0.9-0.7
		c0.3-0.2,0.5-0.4,0.6-0.5c0.2-0.1,0.3-0.2,0.5-0.2c0.1,0,0.2,0,0.3,0.1c0.1,0,0.1,0.1,0.2,0.2l1.2,1.5c-1.2,1.2-2.5,2.2-4,2.9
		c-1.5,0.7-3.3,1-5.3,1c-1.6,0-3-0.3-4.3-0.8c-1.3-0.6-2.3-1.4-3.2-2.4c-0.9-1-1.5-2.2-2-3.6c-0.5-1.4-0.7-2.9-0.7-4.6
		c0-2.3,0.4-4.4,1.1-6.3c0.7-1.9,1.7-3.5,3-4.9c1.3-1.4,2.7-2.4,4.4-3.2c1.7-0.8,3.5-1.1,5.5-1.1c0.9,0,1.8,0.1,2.6,0.2
		c0.8,0.2,1.5,0.4,2.1,0.7c0.6,0.3,1.2,0.7,1.7,1.1c0.5,0.4,1,0.9,1.4,1.4l-1.2,1.4c-0.1,0.1-0.2,0.2-0.3,0.3
		c-0.1,0.1-0.3,0.1-0.5,0.1c-0.2,0-0.5-0.1-0.7-0.4c-0.2-0.2-0.6-0.5-1-0.8c-0.4-0.3-1-0.6-1.6-0.8c-0.7-0.2-1.5-0.4-2.6-0.4
		c-1.4,0-2.8,0.3-4,0.9c-1.2,0.6-2.3,1.4-3.2,2.4c-0.9,1.1-1.6,2.3-2.2,3.8c-0.5,1.5-0.8,3.2-0.8,5.1c0,1.4,0.2,2.6,0.5,3.7
		c0.4,1.1,0.9,2,1.5,2.7c0.6,0.8,1.4,1.3,2.3,1.7C97.9,89,98.8,89.2,99.9,89.2z"/>
	<path class="st0" d="M145.8,91.9h-30.6l3.3-26.3h3.5l-2.9,23.6h10l2.9-23.6h3.5l-2.9,23.6h10.1l2.9-23.6h3.5L145.8,91.9z"/>
	<path class="st0" d="M174.9,65.6l-0.4,2.9h-7.8l-2.9,23.4h-3.4l2.9-23.4h-7.8l0.3-2.9H174.9z"/>
	<path class="st0" d="M195.9,91.9h-2.7c-0.3,0-0.5-0.1-0.7-0.2c-0.2-0.2-0.3-0.4-0.4-0.6l-1.4-6.4h-10.8l-3,6.4
		c-0.1,0.2-0.3,0.4-0.5,0.6c-0.2,0.2-0.5,0.2-0.8,0.2h-2.7l13-26.3h3.5L195.9,91.9z M181.1,82.1h9.1l-2.4-10.9
		c-0.1-0.3-0.1-0.7-0.2-1.1c-0.1-0.4-0.2-0.9-0.2-1.4c-0.2,0.5-0.4,1-0.6,1.4c-0.2,0.4-0.3,0.8-0.5,1.1L181.1,82.1z"/>
	<path class="st0" d="M221.1,68.3h-12.4l-1.1,8.7h4.7c1.4,0,2.5,0.2,3.5,0.5c1,0.3,1.8,0.7,2.4,1.3c0.6,0.5,1.1,1.2,1.4,1.9
		c0.3,0.7,0.5,1.6,0.5,2.5c0,1.3-0.2,2.5-0.7,3.6c-0.4,1.1-1.1,2-1.9,2.8c-0.8,0.8-1.8,1.4-3,1.8c-1.2,0.4-2.5,0.6-4.1,0.6h-8.1
		l3.3-26.3h15.9L221.1,68.3z M207.2,79.7l-1.2,9.5h4.6c1,0,1.8-0.1,2.6-0.4c0.7-0.3,1.3-0.6,1.8-1.1c0.5-0.5,0.9-1.1,1.1-1.8
		c0.2-0.7,0.4-1.5,0.4-2.4c0-1.2-0.4-2.2-1.1-2.8c-0.7-0.7-1.9-1-3.6-1H207.2z"/>
	<path class="st0" d="M246.6,91.9h-3.5l1.5-12h-12.9l-1.5,12h-3.5l3.3-26.3h3.5L232,77.4h12.9l1.5-11.8h3.5L246.6,91.9z"/>
	<path class="st0" d="M260.6,88.8c0.5-0.3,1-0.9,1.5-1.8l1.5-2.7l-7.5-18.7h3.1c0.3,0,0.5,0.1,0.7,0.2c0.2,0.1,0.3,0.3,0.4,0.6
		l4.4,12.1c0.1,0.5,0.3,1,0.4,1.4c0.1,0.5,0.2,0.9,0.3,1.4c0.2-0.5,0.4-1,0.6-1.4c0.2-0.5,0.5-0.9,0.7-1.4l6.5-12.1
		c0.1-0.2,0.3-0.4,0.5-0.6c0.2-0.2,0.5-0.2,0.8-0.2h2.9l-12.8,22.9c-0.4,0.7-0.8,1.3-1.2,1.8c-0.4,0.5-0.8,0.8-1.3,1.1
		c-0.4,0.3-0.9,0.5-1.3,0.6c-0.5,0.1-0.9,0.2-1.4,0.2c-0.7,0-1.3-0.1-1.6-0.2c-0.4-0.1-0.5-0.4-0.5-0.7l0.2-1.9h1.2
		C259.5,89.3,260.1,89.1,260.6,88.8z"/>
	<path class="st0" d="M285.9,77.4h5.7c0.3-1.8,0.8-3.4,1.6-4.9s1.7-2.8,2.8-3.8c1.1-1.1,2.4-1.9,3.8-2.5c1.4-0.6,2.9-0.9,4.6-0.9
		c1.5,0,2.9,0.3,4.1,0.8c1.2,0.6,2.2,1.4,3,2.4c0.8,1,1.5,2.2,1.9,3.6c0.4,1.4,0.7,2.9,0.7,4.6c0,2.3-0.3,4.3-1,6.2
		c-0.6,1.9-1.5,3.5-2.7,4.9c-1.2,1.4-2.5,2.4-4.1,3.2c-1.6,0.8-3.3,1.1-5.2,1.1c-1.5,0-2.9-0.3-4.1-0.8c-1.2-0.6-2.2-1.3-3-2.4
		c-0.8-1-1.5-2.2-1.9-3.6c-0.4-1.4-0.7-2.9-0.7-4.6v-0.7h-5.7l-1.4,11.8h-3.5l3.2-26.3h3.5L285.9,77.4z M301.3,89.3
		c1.3,0,2.6-0.3,3.7-0.9c1.1-0.6,2.1-1.4,2.9-2.5c0.8-1.1,1.4-2.4,1.9-3.9c0.4-1.5,0.7-3.3,0.7-5.2c0-1.3-0.1-2.5-0.4-3.5
		c-0.3-1.1-0.7-2-1.3-2.7c-0.6-0.7-1.2-1.3-2-1.7c-0.8-0.4-1.7-0.6-2.7-0.6c-1.3,0-2.6,0.3-3.7,0.9c-1.1,0.6-2.1,1.4-2.9,2.5
		c-0.8,1.1-1.4,2.4-1.9,4c-0.4,1.5-0.7,3.3-0.7,5.2c0,1.3,0.1,2.5,0.4,3.5c0.3,1,0.7,1.9,1.3,2.7c0.6,0.7,1.2,1.3,2,1.7
		C299.3,89.1,300.2,89.3,301.3,89.3z"/>
</g>
</svg>
