<?xml version="1.0" encoding="utf-8"?>
<!-- Generator: Adobe Illustrator 21.1.0, SVG Export Plug-In . SVG Version: 6.00 Build 0)  -->
<svg version="1.1" id="Слой_1" xmlns="http://www.w3.org/2000/svg" xmlns:xlink="http://www.w3.org/1999/xlink" x="0px" y="0px"
	 viewBox="0 0 703 354" style="enable-background:new 0 0 703 354;" xml:space="preserve"  preserveAspectRatio="none">
<style type="text/css">
	.st0{fill:#FFFFFF;}
	.st1{fill:#E73A24;}
</style>
<g id="XMLID_280_">
	<path id="XMLID_281_" class="st0" d="M128.6,9.3h5.3l-7,29.3h-5.3l3.2-13h-12l-3.2,13h-5.3l7-29.3h5.3L113.8,21h12L128.6,9.3z"/>
	<path id="XMLID_283_" class="st0" d="M134.5,38.6l7-29.3h18.2l-1.1,4.4h-12.9L144,21h11.4l-1.1,4.3H143l-2.1,8.7h13.9l-1.1,4.4
		h-19.2V38.6z"/>
	<path id="XMLID_285_" class="st0" d="M168.4,38.9c-1.4,0-2.9-0.1-4.5-0.2c-1.6-0.1-3-0.3-4.2-0.6l6.8-28.3c1.3-0.3,2.6-0.5,4-0.6
		s2.8-0.2,4.3-0.2c1.2,0,2.4,0.1,3.6,0.3c1.2,0.2,2.3,0.5,3.3,1s1.8,1.2,2.4,2c0.6,0.9,0.9,2,0.9,3.3c0,1.5-0.4,2.9-1.2,4.2
		s-2.2,2.4-4.2,3.2c1.2,0.5,2.2,1.2,2.9,2.2s1,2.1,1,3.3c0,3.3-1.3,5.8-3.9,7.6C177,38,173.3,38.9,168.4,38.9z M168,25.4l-2.2,9
		c0.4,0.1,0.9,0.1,1.6,0.1c0.6,0,1.4,0.1,2.2,0.1c0.9,0,1.9-0.1,2.9-0.2c1-0.1,1.9-0.4,2.7-0.8c0.8-0.4,1.5-1,2-1.7s0.8-1.7,0.8-2.8
		c0-1.1-0.4-1.9-1.2-2.6s-2.2-1-4-1L168,25.4L168,25.4z M168.9,21.3h4.1c0.9,0,1.7-0.1,2.5-0.3c0.8-0.2,1.5-0.4,2.1-0.8
		s1.1-0.9,1.5-1.4c0.4-0.6,0.5-1.3,0.5-2.1c0-1.3-0.5-2.2-1.5-2.7s-2.3-0.7-3.9-0.7c-0.6,0-1.3,0-1.9,0.1c-0.6,0-1.2,0.1-1.6,0.1
		L168.9,21.3z"/>
	<path id="XMLID_289_" class="st0" d="M187.1,38.6l7-29.3h18.2l-1.1,4.4h-12.9l-1.7,7.3H208l-1.1,4.3h-11.4l-2.1,8.7h13.9l-1.1,4.4
		h-19.1V38.6z"/>
	<path id="XMLID_291_" class="st0" d="M226.8,9c3.5,0,6.2,0.7,8.1,2.1c1.9,1.4,2.8,3.4,2.8,5.9c0,2-0.4,3.8-1.2,5.2
		c-0.8,1.4-1.8,2.6-3.2,3.5s-3,1.6-4.9,2s-4,0.6-6.3,0.6h-2.3l-2.5,10.3H212l7-28.9c1.4-0.3,2.7-0.5,4.1-0.6
		C224.4,9.1,225.7,9,226.8,9z M226.3,13.5c-0.5,0-1,0-1.5,0s-1,0.1-1.4,0.1L221,23.8h2.1c1.2,0,2.3-0.1,3.4-0.3
		c1.1-0.2,2.1-0.5,2.9-1c0.8-0.5,1.5-1.1,2-1.9s0.8-1.8,0.8-3.1c0-1.4-0.5-2.5-1.6-3.1C229.6,13.8,228.2,13.5,226.3,13.5z"/>
	<path id="XMLID_294_" class="st0" d="M251.5,39.2c-1.6,0-3.1-0.3-4.5-0.8s-2.5-1.3-3.5-2.3s-1.8-2.2-2.3-3.7s-0.8-3.1-0.8-5
		c0-2.3,0.4-4.5,1.1-6.8c0.7-2.3,1.8-4.3,3.2-6.1s3.2-3.2,5.3-4.3s4.5-1.7,7.2-1.7c1.6,0,3.1,0.3,4.5,0.8s2.6,1.3,3.5,2.3
		c1,1,1.8,2.2,2.3,3.7s0.8,3.1,0.8,5c0,2.3-0.4,4.5-1.1,6.8s-1.8,4.3-3.2,6.1c-1.4,1.8-3.2,3.2-5.3,4.3
		C256.6,38.7,254.2,39.2,251.5,39.2z M256.5,13.2c-1.6,0-3.1,0.4-4.4,1.2c-1.3,0.8-2.4,1.9-3.4,3.1c-0.9,1.3-1.7,2.8-2.2,4.4
		s-0.8,3.3-0.8,5c0,2.3,0.5,4.2,1.5,5.5c1,1.4,2.6,2.1,4.7,2.1c1.6,0,3.1-0.4,4.4-1.2c1.3-0.8,2.4-1.9,3.4-3.1
		c0.9-1.3,1.7-2.8,2.2-4.4s0.8-3.3,0.8-5c0-2.3-0.5-4.2-1.5-5.5C260.3,13.9,258.7,13.2,256.5,13.2z"/>
	<path id="XMLID_297_" class="st0" d="M274.8,20.1c0-2,0.4-3.7,1.2-5.1c0.8-1.4,1.9-2.6,3.2-3.5c1.4-0.9,2.9-1.6,4.7-2
		c1.8-0.4,3.6-0.6,5.5-0.6c1.5,0,3,0.1,4.4,0.2c1.4,0.1,2.7,0.4,3.9,0.6l-6.9,28.7h-5.3l2.6-11h-2c-0.4,0-0.8,0-1.3,0
		c-0.4,0-0.9,0-1.5-0.1c-0.6,0.7-1.3,1.4-2,2.3c-0.7,0.8-1.5,1.8-2.2,2.7c-0.8,1-1.5,2-2.3,3s-1.5,2.1-2.2,3.1h-5.7
		c0.8-1.1,1.6-2.3,2.4-3.4c0.9-1.2,1.7-2.3,2.6-3.3c0.9-1.1,1.7-2.1,2.5-3s1.5-1.8,2.2-2.4c-1.3-0.7-2.2-1.6-2.9-2.5
		C275.1,22.9,274.8,21.6,274.8,20.1z M291.5,13.7c-0.3-0.1-0.7-0.1-1.3-0.1c-0.5,0-1.2,0-1.9,0c-1,0-2,0.1-3,0.3s-1.8,0.5-2.6,1
		c-0.7,0.5-1.4,1.1-1.8,1.8c-0.5,0.8-0.7,1.8-0.7,2.9c0,1.3,0.4,2.2,1.3,2.8c0.9,0.6,2.3,0.9,4.1,0.9h3.4L291.5,13.7z"/>
	<path id="XMLID_300_" class="st0" d="M326,9.3l-1.1,4.5h-8.7l-6,24.8h-5.3l6-24.8h-8.7l1.1-4.5C303.3,9.3,326,9.3,326,9.3z"/>
	<path id="XMLID_302_" class="st0" d="M348.3,9.3h5.3l-7,29.3h-5.3l3.2-13h-12l-3.2,13H324l7-29.3h5.3L333.4,21h12L348.3,9.3z"/>
	<path id="XMLID_304_" class="st0" d="M361.1,9.3h5.4l-2.4,10.2c0.4-0.1,0.9-0.1,1.4-0.1s1,0,1.4,0c1.9,0,3.6,0.2,4.9,0.6
		s2.4,1,3.2,1.7c0.8,0.7,1.4,1.6,1.7,2.6c0.4,1,0.5,2.1,0.5,3.3c0,1.6-0.3,3.1-0.9,4.5c-0.6,1.4-1.5,2.5-2.7,3.5s-2.8,1.8-4.6,2.3
		c-1.9,0.6-4,0.8-6.5,0.8c-1.3,0-2.7-0.1-4.2-0.2c-1.5-0.2-2.8-0.4-3.9-0.7L361.1,9.3z M360.5,34.2c0.3,0.1,0.7,0.1,1.2,0.1
		s1.1,0,1.7,0c2.6,0,4.7-0.6,6.1-1.7c1.4-1.1,2.1-2.7,2.1-4.7c0-1.3-0.5-2.3-1.4-3c-0.9-0.8-2.4-1.1-4.3-1.1c-0.6,0-1.1,0-1.7,0
		s-1,0.1-1.4,0.1L360.5,34.2z M384.1,38.6h-5.2l7-29.3h5.2L384.1,38.6z"/>
	<path id="XMLID_308_" class="st0" d="M391.7,38.6l7-29.3h5.3l-4.7,19.6c1.3-1.5,2.7-3.1,4.2-4.9c1.6-1.8,3.2-3.5,4.8-5.3
		c1.6-1.8,3.3-3.5,4.9-5.1s3.1-3.1,4.5-4.3h4.4L415,38.6h-5.3l5-20.9c-1.5,1.5-3.1,3.2-4.8,5c-1.6,1.8-3.3,3.6-4.9,5.4
		s-3.2,3.7-4.7,5.5s-2.9,3.5-4.2,5.1L391.7,38.6L391.7,38.6z M411.2,6.6c-1.7,0-3.1-0.5-4.2-1.4s-1.7-2.3-1.8-4.1l3.8-0.9
		c0.1,1,0.3,1.7,0.7,2.2c0.4,0.5,1.1,0.7,2,0.7c1.7,0,2.9-1,3.8-3l3.4,1.2c-0.6,1.8-1.6,3.1-3,4C414.7,6.2,413.1,6.6,411.2,6.6z"/>
</g>
<g id="XMLID_258_">
	<path id="XMLID_259_" class="st0" d="M218.7,55.6c8.1,0,14.3,1.6,18.6,4.8s6.5,7.7,6.5,13.6c0,4.7-0.9,8.6-2.7,11.9s-4.2,5.9-7.4,8
		c-3.1,2.1-6.9,3.6-11.3,4.5c-4.4,0.9-9.2,1.4-14.4,1.4h-5.2l-5.7,23.8h-12.3l15.8-66.3c3.1-0.6,6.2-1.1,9.3-1.3
		C213.1,55.7,216,55.6,218.7,55.6z M217.6,65.9c-1.2,0-2.4,0-3.5,0.1s-2.2,0.2-3.3,0.3l-5.4,23.2h4.9c2.7,0,5.3-0.2,7.8-0.7
		s4.7-1.2,6.7-2.3c1.9-1.1,3.5-2.5,4.6-4.4c1.2-1.8,1.7-4.2,1.7-7c0-3.3-1.2-5.7-3.6-7.1C225.1,66.6,221.8,65.9,217.6,65.9z"/>
	<path id="XMLID_262_" class="st0" d="M245.5,123.6l16.1-67.3h41.7L301,66.5h-29.6l-4,16.9h26.3l-2.4,10H265l-4.9,20H292l-2.4,10.2
		H245.5z"/>
	<path id="XMLID_264_" class="st0" d="M318.3,83.4h7.7c1.9,0,3.9-0.2,5.8-0.6s3.7-1.1,5.3-2c1.6-0.9,2.9-2.1,3.9-3.5
		c1-1.5,1.5-3.2,1.5-5.3c0-2.1-0.8-3.7-2.3-4.9c-1.6-1.2-3.9-1.7-7.1-1.7c-3.1,0-6,0.4-8.8,1.3s-5.2,1.9-7.3,3l-1.7-10.1
		c2.3-1.3,5.3-2.4,8.8-3.3c3.6-0.9,7.3-1.4,11.3-1.4c6.7,0,11.7,1.5,14.9,4.4c3.2,2.9,4.8,6.6,4.8,11.1c0,4.3-1.3,7.9-3.8,10.9
		s-5.8,5.2-9.9,6.7c3.2,1.5,5.6,3.4,7.1,5.7c1.5,2.3,2.2,5,2.2,8.1c0,3.2-0.7,6.3-2,9.1c-1.3,2.8-3.3,5.3-5.9,7.4s-5.8,3.8-9.7,5
		c-3.9,1.2-8.3,1.8-13.4,1.8c-4.9,0-9-0.6-12.6-1.7c-3.5-1.1-6.3-2.3-8.4-3.5l5.6-9.7c2,1.1,4.3,2.1,7,3s5.7,1.4,9.2,1.4
		c5.5,0,9.8-1.1,12.9-3.3c3.1-2.2,4.6-5.2,4.6-9c0-3.1-1.2-5.3-3.6-6.7c-2.4-1.4-5.6-2-9.7-2h-9L318.3,83.4z"/>
	<path id="XMLID_266_" class="st0" d="M366.1,114.3c1.6,0,2.9-0.2,4.2-0.5c1.2-0.4,2.4-0.9,3.5-1.6s2.2-1.5,3.3-2.6
		c1.1-1.1,2.2-2.3,3.4-3.8c-1.5-4.2-2.9-8.4-4.2-12.9c-1.3-4.4-2.5-8.8-3.6-13.1c-1.1-4.3-2-8.5-2.8-12.5s-1.4-7.7-1.9-11h13
		c0.7,5.4,1.6,11.4,2.9,17.9s2.9,13,4.8,19.7c3.3-5.3,6.6-11.1,10.1-17.6s7-13.1,10.5-20h13.3c-5.1,9.4-10,18-14.6,25.8
		c-4.7,7.8-9.3,15.2-13.9,22c-1.9,2.9-3.9,5.6-5.8,8.2c-1.9,2.5-4,4.7-6.3,6.6c-2.2,1.8-4.7,3.3-7.4,4.3c-2.7,1-5.8,1.6-9.3,1.6
		c-2,0-3.9-0.2-5.7-0.6c-1.8-0.4-3.3-1-4.5-1.6l3.9-9.8c1,0.5,2,0.8,3.1,1.1C363.2,114.1,364.5,114.3,366.1,114.3z"/>
	<path id="XMLID_268_" class="st0" d="M446.5,66.8c-1.9,8.1-3.8,15.6-5.9,22.4c-2,6.8-4.5,12.8-7.2,18c-1.2,2.1-2.5,4.1-4.1,6.1
		s-3.4,3.8-5.5,5.4s-4.5,3-7.3,4c-2.8,1.1-5.9,1.7-9.5,2l-1.2-10.7c4.5-0.5,8.3-2.1,11.4-4.8c3.1-2.8,5.8-6.6,8.2-11.5
		c2.3-4.9,4.4-10.8,6.2-17.8c1.8-7,3.6-14.9,5.5-23.7h40.7l-16,67.3h-12.2l13.5-56.8L446.5,66.8L446.5,66.8z"/>
	<path id="XMLID_270_" class="st0" d="M495.3,56.3h12.3L502,79.8c0.9-0.1,2-0.2,3.3-0.2s2.4,0,3.3,0c4.5,0,8.3,0.5,11.4,1.4
		c3.1,0.9,5.5,2.3,7.5,4c1.9,1.7,3.3,3.7,4.1,6.1c0.8,2.3,1.2,4.9,1.2,7.6c0,3.8-0.7,7.3-2.1,10.4c-1.4,3.1-3.6,5.9-6.4,8.2
		c-2.8,2.3-6.4,4.1-10.7,5.3c-4.3,1.3-9.3,1.9-15,1.9c-3.1,0-6.4-0.2-9.9-0.5c-3.5-0.4-6.5-0.9-9.1-1.5L495.3,56.3z M493.8,113.6
		c0.7,0.1,1.7,0.2,2.9,0.3c1.2,0.1,2.6,0.1,4.2,0.1c6.1,0,10.8-1.3,14.2-3.8c3.4-2.5,5.1-6.1,5.1-10.9c0-3-1.1-5.4-3.3-7.1
		s-5.6-2.5-10.2-2.5c-1.4,0-2.7,0-3.9,0c-1.3,0-2.4,0.1-3.3,0.2L493.8,113.6z"/>
	<path id="XMLID_273_" class="st0" d="M595.2,56.3l-2.5,10.3h-20l-13.7,57h-12.2l13.7-57h-20l2.4-10.3H595.2z"/>
	<path id="XMLID_275_" class="st0" d="M627.1,123.6c-0.2-2.7-0.4-5.4-0.6-8.1c-0.2-2.7-0.5-5.3-0.8-7.8h-27.4
		c-1.4,2.5-2.8,5.1-4.3,7.7s-2.9,5.3-4.5,8.2h-13.1c4-6.9,7.7-13.3,11.3-19.4s7.1-11.9,10.5-17.4S605,76,608.3,71s6.7-9.9,10.1-14.7
		h11.4c2.1,9.6,3.9,20.2,5.4,31.6s2.9,23.3,4.3,35.7C639.5,123.6,627.1,123.6,627.1,123.6z M621.4,69.1c-2.5,3.8-5.2,8.1-8.2,12.9
		s-6.2,10.1-9.6,16h21.1c-0.4-4.6-0.8-9.3-1.4-14.1C622.7,79,622.1,74.1,621.4,69.1z"/>
	<path id="XMLID_278_" class="st0" d="M702.5,56.3L700,66.6h-20l-13.7,57h-12.2l13.7-57h-20l2.4-10.3H702.5z"/>
</g>
<g>
	<g id="XMLID_229_">
		<path id="XMLID_230_" class="st0" d="M4.5,170c0.7,0,1.3-0.1,1.8-0.2c0.5-0.2,1-0.4,1.5-0.7s0.9-0.7,1.4-1.1c0.5-0.5,1-1,1.5-1.6
			c-0.6-1.8-1.2-3.6-1.8-5.5s-1.1-3.8-1.5-5.6c-0.5-1.8-0.9-3.6-1.2-5.3c-0.3-1.7-0.6-3.3-0.8-4.7H11c0.3,2.3,0.7,4.9,1.2,7.6
			c0.6,2.8,1.2,5.6,2,8.4c1.4-2.2,2.8-4.7,4.3-7.5s3-5.6,4.5-8.5h5.7c-2.2,4-4.3,7.7-6.2,11c-2,3.3-4,6.5-6,9.4
			c-0.8,1.2-1.7,2.4-2.5,3.5s-1.7,2-2.7,2.8s-2,1.4-3.2,1.8c-1.2,0.4-2.5,0.7-4,0.7c-0.9,0-1.7-0.1-2.4-0.3
			c-0.8-0.2-1.4-0.4-1.9-0.7l1.7-4.2c0.4,0.2,0.9,0.4,1.3,0.5S3.8,170,4.5,170z"/>
		<path id="XMLID_232_" class="st0" d="M31.6,173.9h-5.8c1-1.4,2.2-2.8,3.4-4.2c1.2-1.4,2.4-2.8,3.7-4.1s2.5-2.6,3.9-3.8
			c1.3-1.2,2.6-2.3,3.9-3.3L33,145.3h6l6.4,12.2l2.9-12.2h5.1l-2.9,12.2c2.3-2.1,4.4-4.2,6.5-6.2s4.1-4,6-6h6.3
			c-2.5,2.5-5,4.9-7.5,7.3c-2.5,2.3-4.9,4.6-7.2,6.7c1.7,2,3.2,4.3,4.6,6.9c1.4,2.6,2.6,5.2,3.5,7.9h-5.8c-0.9-2.6-2-5-3.3-7.2
			c-1.2-2.2-2.6-4.2-4-6.1l-3.2,13.3h-5.1l3.2-13.3c-2.4,2-4.6,4.1-6.7,6.2C35.7,169,33.6,171.3,31.6,173.9z"/>
		<path id="XMLID_234_" class="st0" d="M69.3,173.9l6.9-28.7H94l-1,4.4H80.3l-1.7,7.2h11.2l-1,4.3H77.6l-2.1,8.5h13.6l-1,4.4
			L69.3,173.9L69.3,173.9z"/>
		<path id="XMLID_236_" class="st0" d="M114.3,156.8h3.3c0.8,0,1.7-0.1,2.5-0.3s1.6-0.5,2.3-0.8c0.7-0.4,1.2-0.9,1.7-1.5
			c0.4-0.6,0.6-1.4,0.6-2.3s-0.3-1.6-1-2.1s-1.7-0.7-3-0.7s-2.6,0.2-3.8,0.6c-1.2,0.4-2.2,0.8-3.1,1.3l-0.7-4.3c1-0.6,2.3-1,3.8-1.4
			s3.1-0.6,4.8-0.6c2.9,0,5,0.6,6.4,1.9c1.4,1.2,2.1,2.8,2.1,4.7c0,1.8-0.5,3.4-1.6,4.7c-1.1,1.3-2.5,2.2-4.2,2.8
			c1.4,0.6,2.4,1.5,3,2.4c0.6,1,1,2.1,1,3.4c0,1.4-0.3,2.7-0.8,3.9c-0.6,1.2-1.4,2.3-2.5,3.2s-2.5,1.6-4.1,2.1s-3.6,0.8-5.7,0.8
			s-3.9-0.2-5.4-0.7s-2.7-1-3.6-1.5l2.4-4.1c0.9,0.5,1.9,0.9,3,1.3c1.1,0.4,2.4,0.6,3.9,0.6c2.3,0,4.2-0.5,5.5-1.4s2-2.2,2-3.8
			c0-1.3-0.5-2.3-1.5-2.9c-1-0.6-2.4-0.9-4.1-0.9h-3.9L114.3,156.8z"/>
		<path id="XMLID_238_" class="st0" d="M152.3,173.9c-0.1-1.2-0.2-2.3-0.3-3.5c-0.1-1.1-0.2-2.3-0.3-3.3H140
			c-0.6,1.1-1.2,2.2-1.8,3.3s-1.3,2.3-1.9,3.5h-5.6c1.7-2.9,3.3-5.7,4.8-8.3s3-5.1,4.5-7.4c1.5-2.3,2.9-4.6,4.3-6.7
			c1.4-2.1,2.9-4.2,4.3-6.3h4.9c0.9,4.1,1.7,8.6,2.3,13.5s1.2,10,1.8,15.2H152.3z M149.9,150.7c-1.1,1.6-2.2,3.5-3.5,5.5
			s-2.6,4.3-4.1,6.8h9c-0.1-2-0.3-4-0.6-6C150.5,154.9,150.2,152.8,149.9,150.7z"/>
		<path id="XMLID_241_" class="st0" d="M204.4,145.2l-6.9,28.7h-5.2l5.9-24.3h-11.4l-5.8,24.3h-5.3l6.9-28.7H204.4z"/>
		<path id="XMLID_243_" class="st0" d="M206.7,173.9l6.9-28.7h17.8l-1,4.4h-12.7l-1.7,7.2h11.2l-1,4.3H215l-2.1,8.5h13.6l-1,4.4
			L206.7,173.9L206.7,173.9z"/>
		<path id="XMLID_245_" class="st0" d="M247.3,144.9c3.5,0,6.1,0.7,7.9,2c1.8,1.4,2.8,3.3,2.8,5.8c0,2-0.4,3.7-1.1,5.1
			c-0.8,1.4-1.8,2.5-3.2,3.4c-1.3,0.9-2.9,1.5-4.8,1.9c-1.9,0.4-3.9,0.6-6.2,0.6h-2.2l-2.4,10.2h-5.2l6.8-28.3
			c1.3-0.3,2.7-0.5,4-0.6C244.9,145,246.2,144.9,247.3,144.9z M246.8,149.3c-0.5,0-1,0-1.5,0s-0.9,0.1-1.4,0.1l-2.3,9.9h2.1
			c1.2,0,2.3-0.1,3.3-0.3c1.1-0.2,2-0.5,2.8-1s1.5-1.1,2-1.9c0.5-0.8,0.7-1.8,0.7-3c0-1.4-0.5-2.4-1.6-3
			C250.1,149.6,248.6,149.3,246.8,149.3z"/>
		<path id="XMLID_248_" class="st0" d="M269.2,174.3c-1.4,0-2.9-0.1-4.5-0.2c-1.6-0.1-3-0.3-4.2-0.6l6.7-27.8
			c1.2-0.3,2.6-0.5,3.9-0.6c1.4-0.1,2.8-0.2,4.2-0.2c1.2,0,2.3,0.1,3.5,0.2c1.2,0.2,2.3,0.5,3.3,1s1.8,1.1,2.4,2
			c0.6,0.8,0.9,1.9,0.9,3.3c0,1.5-0.4,2.8-1.2,4.1c-0.8,1.3-2.2,2.3-4.1,3.2c1.2,0.5,2.2,1.2,2.8,2.2c0.7,0.9,1,2,1,3.3
			c0,3.2-1.3,5.7-3.8,7.5C277.6,173.4,274,174.3,269.2,174.3z M268.7,161l-2.1,8.8c0.4,0.1,0.9,0.1,1.5,0.1s1.3,0.1,2.1,0.1
			c0.9,0,1.9-0.1,2.9-0.2c1-0.1,1.9-0.4,2.7-0.8c0.8-0.4,1.5-0.9,2-1.7c0.5-0.7,0.8-1.6,0.8-2.8c0-1-0.4-1.9-1.2-2.6
			c-0.8-0.7-2.1-1-4-1L268.7,161L268.7,161z M269.7,156.9h4c0.9,0,1.7-0.1,2.5-0.2c0.8-0.2,1.5-0.4,2.1-0.8c0.6-0.4,1.1-0.8,1.4-1.4
			c0.4-0.6,0.5-1.2,0.5-2c0-1.3-0.5-2.1-1.4-2.6c-1-0.5-2.2-0.7-3.8-0.7c-0.6,0-1.3,0-1.9,0.1c-0.6,0-1.1,0.1-1.5,0.1L269.7,156.9z"
			/>
		<path id="XMLID_252_" class="st0" d="M296.1,145.2h5.3l-2.4,10c0.4-0.1,0.8-0.1,1.4-0.1c0.5,0,1,0,1.3,0c1.9,0,3.5,0.2,4.8,0.6
			c1.3,0.4,2.3,1,3.1,1.7c0.8,0.7,1.4,1.6,1.7,2.6c0.3,1,0.5,2.1,0.5,3.2c0,1.6-0.3,3.1-0.9,4.4c-0.6,1.3-1.5,2.5-2.7,3.5
			s-2.7,1.7-4.5,2.3s-4,0.8-6.4,0.8c-1.3,0-2.7-0.1-4.2-0.2c-1.5-0.2-2.8-0.4-3.9-0.6L296.1,145.2z M295.5,169.7
			c0.3,0.1,0.7,0.1,1.2,0.1s1.1,0,1.7,0c2.6,0,4.6-0.5,6-1.6s2.1-2.6,2.1-4.6c0-1.2-0.5-2.2-1.3-3c-0.9-0.7-2.3-1.1-4.3-1.1
			c-0.6,0-1.1,0-1.7,0s-1,0.1-1.4,0.1L295.5,169.7z M318.6,173.9h-5.1l6.9-28.7h5.1L318.6,173.9z"/>
		<path id="XMLID_256_" class="st0" d="M344.4,173.9c-0.3-1.1-0.7-2.1-1-3c-0.4-0.9-0.7-1.8-1.1-2.6s-0.7-1.7-1.1-2.5
			s-0.8-1.7-1.2-2.5l-9,10.6h-6.1l13-15.2l-5.7-13.5h5.8l3.8,9.1c1.4-1.4,2.8-2.9,4.1-4.4c1.3-1.5,2.5-3,3.6-4.6h5.8
			c-0.8,1.1-1.7,2.3-2.6,3.5c-1,1.2-1.9,2.3-2.9,3.5s-2,2.3-3.1,3.5c-1,1.1-2,2.2-3,3.3c1.2,2.6,2.3,5,3.3,7.4s2,4.9,2.9,7.6h-5.5
			V173.9z"/>
	</g>
	<g id="XMLID_216_">
		<path id="XMLID_217_" class="st1" d="M381.9,289.9c2.9-10.5,7-21.4,12.4-32.9c5.4-11.4,11.4-22.6,18.1-33.4
			c6.7-10.8,13.6-20.9,20.9-30.3c7.3-9.4,14.3-17.3,20.9-23.7h-64.3l5.1-21.2h93.9l-4.5,19.2c-3.7,3.1-7.8,7.2-12.4,12.1
			c-4.6,5-9.3,10.6-14.3,16.8c-5,6.3-9.9,13.1-14.9,20.4c-5,7.3-9.7,15-14.1,23s-8.5,16.2-12.3,24.6c-3.7,8.4-6.8,16.9-9.1,25.3
			h-25.4V289.9z"/>
		<path id="XMLID_219_" class="st1" d="M482.7,284.5h4.2c1.9-1.8,3.6-3.8,4.9-6.1c1.4-2.3,2.5-4.7,3.5-7.3c1-2.6,1.8-5.3,2.5-8.2
			c0.7-2.8,1.4-5.7,2-8.5h21.5l-7.2,30.1h5.3l-3.6,14.9h-6.2l2.3-9.5h-24.3l-2.3,9.5h-6.2L482.7,284.5z M504.6,259.9
			c-0.5,2.2-1.1,4.5-1.7,6.7s-1.3,4.4-2.1,6.5c-0.8,2.1-1.7,4.1-2.8,6.1c-1,1.9-2.3,3.7-3.7,5.3h13.1l5.9-24.6H504.6z"/>
		<path id="XMLID_222_" class="st1" d="M554.7,254.3h6.5l-8.5,35.6h-6.5l3.8-15.8h-14.6l-3.8,15.8h-6.5l8.5-35.6h6.5l-3.4,14.3h14.6
			L554.7,254.3z"/>
		<path id="XMLID_224_" class="st1" d="M563.9,289.9l8.5-35.6h22.1l-1.3,5.4h-15.7l-2.1,8.9h13.9l-1.3,5.3h-13.8l-2.6,10.6h16.8
			l-1.3,5.4L563.9,289.9L563.9,289.9z"/>
		<path id="XMLID_226_" class="st1" d="M596.4,289.9l8.5-35.6h6.4l-5.8,23.8c1.5-1.8,3.3-3.8,5.2-5.9s3.8-4.3,5.8-6.4s4-4.2,5.9-6.2
			c2-2,3.8-3.7,5.5-5.3h5.4l-8.6,35.6h-6.4l6.1-25.5c-1.9,1.9-3.8,3.9-5.8,6s-4,4.3-6,6.5s-3.9,4.4-5.7,6.6
			c-1.9,2.2-3.6,4.3-5.1,6.2h-5.4V289.9z M620,251c-2.1,0-3.7-0.6-5.1-1.7c-1.3-1.1-2-2.8-2.1-5l4.6-1.1c0.1,1.2,0.4,2.1,0.9,2.7
			c0.5,0.6,1.3,0.9,2.5,0.9c2,0,3.6-1.2,4.6-3.6l4.2,1.4c-0.8,2.2-2,3.8-3.6,4.9C624.3,250.5,622.3,251,620,251z"/>
	</g>
</g>
<g id="XMLID_8_">
	<path id="XMLID_190_" class="st0" d="M204.4,320.2l-1.2,5.1h-9.8l-6.7,28h-6l6.7-28h-9.8l1.2-5.1H204.4z"/>
	<path id="XMLID_192_" class="st0" d="M225.4,319.8c4,0,7,0.8,9.1,2.3c2.1,1.6,3.2,3.8,3.2,6.7c0,2.3-0.4,4.2-1.3,5.8
		c-0.9,1.6-2.1,2.9-3.6,3.9s-3.4,1.8-5.5,2.2c-2.1,0.5-4.5,0.7-7.1,0.7h-2.6l-2.8,11.7h-6l7.8-32.6c1.5-0.3,3-0.5,4.6-0.6
		C222.7,319.9,224.1,319.8,225.4,319.8z M224.8,324.9c-0.6,0-1.2,0-1.7,0s-1.1,0.1-1.6,0.1l-2.7,11.4h2.4c1.3,0,2.6-0.1,3.8-0.3
		c1.2-0.2,2.3-0.6,3.3-1.1c0.9-0.5,1.7-1.2,2.3-2.1s0.9-2.1,0.9-3.5c0-1.6-0.6-2.8-1.8-3.5C228.5,325.2,226.9,324.9,224.8,324.9z"/>
	<path id="XMLID_195_" class="st0" d="M245.2,353.2l7.9-33h20.5l-1.2,5h-14.6l-2,8.3h12.9l-1.2,4.9h-12.8l-2.4,9.8h15.6l-1.2,5
		L245.2,353.2L245.2,353.2z"/>
	<path id="XMLID_197_" class="st0" d="M307.6,320.2h6l-7.9,33h-6l3.6-14.7h-13.5l-3.6,14.7h-6l7.9-33h6l-3.2,13.3h13.5L307.6,320.2z
		"/>
	<path id="XMLID_199_" class="st0" d="M320.9,353.2l7.9-33h6l-5.3,22.1c1.4-1.7,3-3.5,4.8-5.5s3.6-4,5.4-6s3.7-3.9,5.5-5.7
		c1.8-1.8,3.5-3.5,5.1-4.9h5l-8,33h-5.9l5.7-23.6c-1.7,1.7-3.5,3.6-5.4,5.6s-3.7,4-5.5,6.1s-3.6,4.1-5.3,6.2c-1.7,2-3.3,4-4.8,5.8
		h-5.2V353.2z"/>
	<path id="XMLID_201_" class="st0" d="M379.3,319.8c4,0,7,0.8,9.1,2.3c2.1,1.6,3.2,3.8,3.2,6.7c0,2.3-0.4,4.2-1.3,5.8
		c-0.9,1.6-2.1,2.9-3.6,3.9s-3.4,1.8-5.5,2.2c-2.1,0.5-4.5,0.7-7.1,0.7h-2.6l-2.8,11.7h-6l7.8-32.6c1.5-0.3,3.1-0.5,4.6-0.6
		C376.5,319.9,377.9,319.8,379.3,319.8z M378.7,324.9c-0.6,0-1.2,0-1.7,0s-1.1,0.1-1.6,0.1l-2.7,11.4h2.4c1.3,0,2.6-0.1,3.8-0.3
		c1.2-0.2,2.3-0.6,3.3-1.1c0.9-0.5,1.7-1.2,2.3-2.1c0.6-0.9,0.9-2.1,0.9-3.5c0-1.6-0.6-2.8-1.8-3.5
		C382.4,325.2,380.8,324.9,378.7,324.9z"/>
	<path id="XMLID_204_" class="st0" d="M413.8,353.9c-1.8,0-3.5-0.3-5.1-0.9c-1.5-0.6-2.9-1.4-4-2.5s-2-2.5-2.6-4.1
		c-0.6-1.7-0.9-3.5-0.9-5.7c0-2.5,0.4-5.1,1.2-7.6c0.8-2.5,2-4.8,3.6-6.8s3.6-3.7,5.9-4.9c2.4-1.3,5.1-1.9,8.1-1.9
		c1.8,0,3.5,0.3,5.1,0.9s2.9,1.4,4,2.5s2,2.5,2.6,4.1c0.6,1.7,0.9,3.5,0.9,5.7c0,2.5-0.4,5.1-1.2,7.6c-0.8,2.5-2,4.8-3.6,6.8
		s-3.6,3.7-5.9,4.9C419.5,353.3,416.8,353.9,413.8,353.9z M419.4,324.6c-1.8,0-3.5,0.5-4.9,1.4c-1.5,0.9-2.7,2.1-3.8,3.6
		c-1,1.5-1.9,3.1-2.5,5s-0.9,3.7-0.9,5.6c0,2.6,0.6,4.7,1.7,6.2c1.1,1.6,2.9,2.3,5.3,2.3c1.8,0,3.5-0.5,5-1.4s2.8-2.1,3.8-3.6
		s1.9-3.1,2.5-5s0.9-3.7,0.9-5.6c0-2.6-0.6-4.7-1.7-6.2C423.7,325.4,421.9,324.6,419.4,324.6z"/>
	<path id="XMLID_207_" class="st0" d="M452.1,353.6c-1.6,0-3.3-0.1-5.1-0.2c-1.8-0.1-3.4-0.4-4.8-0.7l7.7-32
		c1.4-0.3,2.9-0.5,4.5-0.7c1.6-0.1,3.2-0.2,4.8-0.2c1.3,0,2.7,0.1,4.1,0.3c1.4,0.2,2.6,0.6,3.7,1.1c1.1,0.6,2,1.3,2.7,2.3
		s1.1,2.2,1.1,3.7c0,1.7-0.5,3.3-1.4,4.8s-2.5,2.7-4.7,3.6c1.4,0.6,2.5,1.4,3.2,2.5c0.8,1.1,1.1,2.3,1.1,3.8c0,3.7-1.5,6.6-4.4,8.6
		C461.8,352.5,457.6,353.6,452.1,353.6z M451.6,338.3l-2.5,10.2c0.4,0.1,1,0.1,1.8,0.2c0.7,0,1.5,0.1,2.4,0.1c1,0,2.1-0.1,3.3-0.2
		c1.1-0.2,2.2-0.5,3.1-0.9s1.7-1.1,2.3-1.9c0.6-0.8,0.9-1.9,0.9-3.2c0-1.2-0.5-2.2-1.4-3s-2.4-1.2-4.6-1.2h-5.3V338.3z M452.7,333.6
		h4.6c1,0,1.9-0.1,2.9-0.3c0.9-0.2,1.7-0.5,2.4-0.9c0.7-0.4,1.2-1,1.6-1.6s0.6-1.4,0.6-2.3c0-1.5-0.5-2.5-1.6-3s-2.6-0.8-4.4-0.8
		c-0.7,0-1.5,0-2.2,0.1c-0.7,0-1.3,0.1-1.8,0.2L452.7,333.6z"/>
	<path id="XMLID_211_" class="st0" d="M494.6,353.9c-1.8,0-3.5-0.3-5.1-0.9c-1.5-0.6-2.9-1.4-4-2.5s-2-2.5-2.6-4.1
		c-0.6-1.7-0.9-3.5-0.9-5.7c0-2.5,0.4-5.1,1.2-7.6c0.8-2.5,2-4.8,3.6-6.8s3.6-3.7,5.9-4.9c2.4-1.3,5.1-1.9,8.1-1.9
		c1.8,0,3.5,0.3,5.1,0.9s2.9,1.4,4,2.5s2,2.5,2.6,4.1c0.6,1.7,0.9,3.5,0.9,5.7c0,2.5-0.4,5.1-1.2,7.6s-2,4.8-3.6,6.8
		s-3.6,3.7-5.9,4.9C500.4,353.3,497.7,353.9,494.6,353.9z M500.3,324.6c-1.8,0-3.5,0.5-4.9,1.4c-1.5,0.9-2.7,2.1-3.8,3.6
		c-1,1.5-1.9,3.1-2.5,5s-0.9,3.7-0.9,5.6c0,2.6,0.6,4.7,1.7,6.2c1.1,1.6,2.9,2.3,5.3,2.3c1.8,0,3.5-0.5,5-1.4s2.8-2.1,3.8-3.6
		s1.9-3.1,2.5-5s0.9-3.7,0.9-5.6c0-2.6-0.6-4.7-1.7-6.2C504.5,325.4,502.7,324.6,500.3,324.6z"/>
	<path id="XMLID_214_" class="st0" d="M542.7,353.2c-0.6-1.3-1.3-2.6-2.1-4s-1.6-2.7-2.5-4.1c-0.9-1.3-1.8-2.6-2.8-3.7
		c-1-1.2-1.9-2.2-2.9-3.1l-3.6,14.9h-6l7.9-33h6l-3.2,13.2c1.3-1,2.6-2.2,4-3.3c1.4-1.2,2.8-2.4,4.1-3.5c1.3-1.2,2.6-2.3,3.8-3.4
		s2.2-2.1,3.2-3h7.3c-1.3,1.2-2.7,2.5-4.2,3.8s-3,2.7-4.5,4.1s-3.1,2.7-4.7,4.1c-1.6,1.4-3.1,2.6-4.6,3.8c1,1,2,2.2,3,3.5
		s2.1,2.7,3,4.2c1,1.5,1.9,3.1,2.8,4.7c0.9,1.6,1.7,3.2,2.4,4.9h-6.4V353.2z"/>
</g>
</svg>
