<?xml version="1.0" encoding="utf-8"?>
<!-- Generator: Adobe Illustrator 20.1.0, SVG Export Plug-In . SVG Version: 6.00 Build 0)  -->
<svg version="1.1" id="Слой_1" xmlns="http://www.w3.org/2000/svg" xmlns:xlink="http://www.w3.org/1999/xlink" x="0px" y="0px"
	 viewBox="0 0 280 186" style="enable-background:new 0 0 280 186;" xml:space="preserve">
<style type="text/css">
	.st0{fill:#FFFFFF;}
	.st1{fill:#E63B23;}
</style>
<g>
	<path class="st0" d="M36,109l-0.3,2.6H21.2l-5.1,41.7H13l5.1-41.7H3.7L4,109H36z"/>
	<path class="st0" d="M40.4,135.4l-2.2,17.9h-3.1l5.5-44.3h10.7c4.4,0,7.7,1,9.9,2.9c2.2,2,3.3,4.7,3.3,8.2c0,2.3-0.4,4.3-1.2,6.2
		c-0.8,1.9-1.9,3.5-3.3,4.8c-1.4,1.3-3.2,2.4-5.2,3.1c-2,0.8-4.3,1.1-6.8,1.1H40.4z M43.4,111.5l-2.7,21.5h7.6c2,0,3.8-0.3,5.4-0.9
		c1.6-0.6,2.9-1.5,4.1-2.6c1.1-1.1,2-2.4,2.6-3.9c0.6-1.5,0.9-3.2,0.9-5c0-2.8-0.9-5-2.6-6.6c-1.7-1.6-4.3-2.4-7.7-2.4H43.4z"/>
	<path class="st0" d="M96.4,111.6H74.9l-2.2,18h17.9l-0.3,2.5H72.4l-2.3,18.6h21.6l-0.3,2.6H66.6l5.5-44.3h24.7L96.4,111.6z"/>
	<path class="st0" d="M129.9,153.3h-3.2l2.6-21.3h-25.5l-2.6,21.3h-3.2l5.5-44.3h3.2l-2.6,20.7h25.5l2.6-20.7h3.2L129.9,153.3z"/>
	<path class="st0" d="M169.7,111.6h-21.5l-2.2,18h17.9l-0.3,2.5h-17.9l-2.3,18.6h21.6l-0.3,2.6h-24.7l5.5-44.3H170L169.7,111.6z"/>
	<path class="st0" d="M176.7,135.4l-2.2,17.9h-3.1l5.5-44.3h10.7c4.4,0,7.7,1,9.9,2.9c2.2,2,3.3,4.7,3.3,8.2c0,2.3-0.4,4.3-1.2,6.2
		c-0.8,1.9-1.9,3.5-3.3,4.8c-1.4,1.3-3.2,2.4-5.2,3.1c-2,0.8-4.3,1.1-6.8,1.1H176.7z M179.7,111.5l-2.7,21.5h7.6
		c2,0,3.8-0.3,5.4-0.9c1.6-0.6,2.9-1.5,4.1-2.6c1.1-1.1,2-2.4,2.6-3.9c0.6-1.5,0.9-3.2,0.9-5c0-2.8-0.9-5-2.6-6.6
		c-1.7-1.6-4.3-2.4-7.7-2.4H179.7z"/>
	<path class="st0" d="M242.6,127.8c0,3.9-0.6,7.5-1.7,10.7c-1.1,3.2-2.7,5.9-4.8,8.2c-2,2.3-4.5,4-7.2,5.3c-2.8,1.3-5.8,1.9-9,1.9
		c-2.6,0-5-0.5-7.1-1.4c-2.1-0.9-3.9-2.2-5.4-3.9c-1.5-1.7-2.6-3.7-3.4-6.1c-0.8-2.4-1.2-5-1.2-7.8c0-3.9,0.6-7.4,1.7-10.6
		c1.2-3.2,2.8-6,4.8-8.2c2-2.3,4.4-4.1,7.2-5.3c2.8-1.3,5.8-1.9,9-1.9c2.6,0,5,0.5,7.1,1.4c2.1,0.9,3.9,2.2,5.4,3.9
		c1.5,1.7,2.6,3.7,3.4,6.1C242.2,122.3,242.6,124.9,242.6,127.8z M239.3,127.8c0-2.6-0.3-4.9-1-6.9c-0.7-2.1-1.6-3.8-2.9-5.3
		c-1.2-1.5-2.7-2.6-4.5-3.4c-1.8-0.8-3.7-1.2-5.9-1.2c-2.7,0-5.3,0.5-7.6,1.6c-2.3,1.1-4.4,2.6-6.1,4.7c-1.7,2-3.1,4.5-4,7.4
		c-1,2.9-1.5,6.1-1.5,9.7c0,2.6,0.3,4.9,1,6.9c0.7,2.1,1.6,3.8,2.9,5.2c1.2,1.4,2.7,2.6,4.5,3.3c1.7,0.8,3.7,1.2,5.9,1.2
		c2.8,0,5.3-0.5,7.7-1.6c2.3-1.1,4.4-2.6,6.1-4.7c1.7-2,3-4.5,4-7.3C238.8,134.7,239.3,131.4,239.3,127.8z"/>
	<path class="st0" d="M246.8,153.3l5.5-44.3h11.9c2.1,0,4,0.2,5.6,0.7c1.6,0.4,2.9,1.1,3.9,1.9c1,0.8,1.8,1.8,2.3,3
		c0.5,1.2,0.7,2.5,0.7,4c0,1.4-0.2,2.8-0.7,4.1c-0.5,1.3-1.1,2.5-2,3.5c-0.9,1.1-1.9,2-3.1,2.7c-1.2,0.8-2.6,1.3-4.1,1.7
		c2.9,0.5,5.1,1.5,6.7,3.1c1.5,1.6,2.3,3.6,2.3,6.2c0,2-0.4,3.9-1.1,5.6c-0.7,1.7-1.7,3.1-3.1,4.2c-1.3,1.2-3,2.1-4.9,2.7
		c-1.9,0.6-4.1,0.9-6.5,0.9H246.8z M252.6,132l-2.3,18.8h10.2c3.9,0,6.9-0.9,9-2.8c2.1-1.9,3.1-4.6,3.1-8c0-1.2-0.2-2.3-0.6-3.3
		c-0.4-1-1.1-1.8-1.9-2.5c-0.8-0.7-1.9-1.2-3.1-1.6c-1.2-0.4-2.6-0.6-4.2-0.6H252.6z M252.9,129.8h8.8c2,0,3.8-0.3,5.3-0.9
		c1.5-0.6,2.7-1.4,3.7-2.4c1-1,1.7-2.1,2.1-3.4c0.5-1.3,0.7-2.6,0.7-3.9c0-2.5-0.8-4.4-2.4-5.7c-1.6-1.3-4-2-7.2-2h-8.8L252.9,129.8
		z"/>
</g>
<polygon class="st1" points="274.2,33.5 0.5,33.5 6.3,0.4 280,0.4 "/>
<g>
	<path class="st0" d="M30.6,20c0.1-0.2,0.2-0.4,0.3-0.6c0.1-0.2,0.2-0.4,0.4-0.6l4.4-7.6c0.1-0.1,0.2-0.2,0.3-0.3
		c0.1-0.1,0.2-0.1,0.2-0.1c0.1,0,0.2-0.1,0.3-0.1c0.1,0,0.2,0,0.4,0h2.5L37.5,25h-2.8l1-8.4c0-0.2,0.1-0.4,0.1-0.6
		c0-0.2,0.1-0.4,0.1-0.7l-4.4,7.4c-0.1,0.2-0.3,0.4-0.5,0.5c-0.2,0.1-0.4,0.2-0.7,0.2h-0.4c-0.3,0-0.5-0.1-0.7-0.2
		c-0.2-0.1-0.3-0.3-0.4-0.5l-2.5-7.4c0,0.2,0,0.4,0,0.7c0,0.2,0,0.4,0,0.6l-1,8.4h-2.9l1.8-14.4h2.5c0.1,0,0.3,0,0.4,0
		c0.1,0,0.2,0,0.3,0.1c0.1,0,0.1,0.1,0.2,0.1c0.1,0.1,0.1,0.2,0.2,0.3l2.5,7.6C30.4,19.1,30.5,19.6,30.6,20z"/>
	<path class="st0" d="M55.1,16.9c0,0.8-0.1,1.5-0.3,2.2c-0.2,0.7-0.4,1.4-0.8,2c-0.3,0.6-0.7,1.2-1.2,1.7c-0.5,0.5-1,0.9-1.6,1.3
		c-0.6,0.4-1.2,0.6-1.9,0.8c-0.7,0.2-1.4,0.3-2.2,0.3c-1,0-1.8-0.2-2.6-0.5c-0.8-0.3-1.4-0.8-1.9-1.4c-0.5-0.6-0.9-1.3-1.2-2
		c-0.3-0.8-0.4-1.6-0.4-2.5c0-0.8,0.1-1.5,0.3-2.2c0.2-0.7,0.4-1.4,0.8-2c0.3-0.6,0.7-1.2,1.2-1.7c0.5-0.5,1-0.9,1.6-1.3
		c0.6-0.4,1.2-0.6,1.9-0.8c0.7-0.2,1.4-0.3,2.2-0.3c0.9,0,1.8,0.2,2.6,0.5c0.8,0.3,1.4,0.8,1.9,1.4c0.5,0.6,0.9,1.3,1.2,2
		C55,15.2,55.1,16,55.1,16.9z M51.8,17c0-0.6-0.1-1.1-0.2-1.6s-0.4-0.9-0.6-1.2c-0.3-0.3-0.6-0.6-1-0.8c-0.4-0.2-0.8-0.3-1.3-0.3
		c-0.7,0-1.3,0.1-1.8,0.4c-0.5,0.3-1,0.7-1.3,1.1c-0.4,0.5-0.6,1.1-0.8,1.8c-0.2,0.7-0.3,1.5-0.3,2.3c0,0.6,0.1,1.1,0.2,1.6
		c0.1,0.5,0.3,0.9,0.6,1.2c0.3,0.3,0.6,0.6,1,0.8c0.4,0.2,0.8,0.3,1.4,0.3c0.7,0,1.3-0.1,1.8-0.4c0.5-0.3,1-0.7,1.3-1.1
		c0.4-0.5,0.7-1.1,0.8-1.8C51.7,18.6,51.8,17.9,51.8,17z"/>
	<path class="st0" d="M56.8,25l1.8-14.4h3.2l-1.5,12h3.9l1.5-12H69l-1.5,12h3.9l1.5-12h3.2L74.4,25l0.3-2.4h1.8l-0.6,4.9
		c0,0.3-0.2,0.5-0.4,0.6c-0.2,0.2-0.5,0.2-0.8,0.2h-2l0.4-3.4H56.8z"/>
	<path class="st0" d="M90.5,25h-3.3l0.8-6.1h-5.2L82,25h-3.3l1.8-14.4h3.3L83,16.7h5.2l0.8-6.1h3.3L90.5,25z"/>
	<path class="st0" d="M106,25h-2.5c-0.3,0-0.5-0.1-0.7-0.2c-0.2-0.1-0.3-0.3-0.3-0.5l-0.4-2.6h-4.9l-1.1,2.6
		c-0.1,0.2-0.2,0.3-0.4,0.5C95.5,25,95.2,25,95,25h-2.5l6.9-14.4h3.3L106,25z M98.1,19.6h3.6l-0.7-4.1c-0.1-0.3-0.1-0.6-0.2-0.9
		c-0.1-0.3-0.1-0.7-0.2-1.1c-0.2,0.4-0.3,0.8-0.5,1.1c-0.2,0.4-0.3,0.7-0.4,0.9L98.1,19.6z"/>
	<path class="st0" d="M114.9,25l0.7-5.8h-1c-0.1,0-0.3,0-0.4,0.1c-0.1,0-0.2,0.1-0.4,0.2c-0.1,0.1-0.2,0.2-0.3,0.3
		c-0.1,0.1-0.2,0.3-0.3,0.5L111,24c-0.2,0.3-0.5,0.6-0.9,0.8c-0.4,0.2-0.8,0.3-1.2,0.3h-2.4l3.2-4.9c0.5-0.7,1.1-1.2,1.8-1.5
		c-0.4-0.1-0.7-0.3-1-0.5c-0.3-0.2-0.5-0.5-0.7-0.7c-0.2-0.3-0.3-0.6-0.4-0.9c-0.1-0.3-0.1-0.7-0.1-1c0-0.7,0.1-1.3,0.4-1.9
		c0.3-0.6,0.6-1.1,1.1-1.5c0.5-0.4,1.1-0.8,1.8-1c0.7-0.2,1.5-0.4,2.4-0.4h5L118.1,25H114.9z M112.4,15.3c0,0.2,0,0.4,0.1,0.6
		c0.1,0.2,0.1,0.3,0.3,0.5c0.1,0.1,0.3,0.2,0.5,0.3c0.2,0.1,0.5,0.1,0.8,0.1h1.8l0.5-3.7h-1.8c-0.4,0-0.7,0.1-1,0.2
		c-0.3,0.1-0.5,0.3-0.7,0.4c-0.2,0.2-0.3,0.4-0.4,0.7S112.4,15,112.4,15.3z"/>
	<path class="st0" d="M134.6,20c0.1-0.2,0.2-0.4,0.3-0.6c0.1-0.2,0.2-0.4,0.4-0.6l4.4-7.6c0.1-0.1,0.2-0.2,0.3-0.3
		c0.1-0.1,0.2-0.1,0.2-0.1c0.1,0,0.2-0.1,0.3-0.1c0.1,0,0.2,0,0.4,0h2.5L141.5,25h-2.8l1-8.4c0-0.2,0.1-0.4,0.1-0.6
		c0-0.2,0.1-0.4,0.1-0.7l-4.4,7.4c-0.1,0.2-0.3,0.4-0.5,0.5c-0.2,0.1-0.4,0.2-0.7,0.2H134c-0.3,0-0.5-0.1-0.7-0.2
		c-0.2-0.1-0.3-0.3-0.4-0.5l-2.5-7.4c0,0.2,0,0.4,0,0.7c0,0.2,0,0.4,0,0.6l-1,8.4h-2.9l1.8-14.4h2.5c0.1,0,0.3,0,0.4,0
		c0.1,0,0.2,0,0.3,0.1c0.1,0,0.1,0.1,0.2,0.1c0.1,0.1,0.1,0.2,0.2,0.3l2.5,7.6C134.4,19.1,134.5,19.6,134.6,20z"/>
	<path class="st0" d="M159.1,16.9c0,0.8-0.1,1.5-0.3,2.2c-0.2,0.7-0.4,1.4-0.8,2c-0.3,0.6-0.7,1.2-1.2,1.7c-0.5,0.5-1,0.9-1.6,1.3
		c-0.6,0.4-1.2,0.6-1.9,0.8c-0.7,0.2-1.4,0.3-2.2,0.3c-1,0-1.8-0.2-2.6-0.5c-0.8-0.3-1.4-0.8-1.9-1.4c-0.5-0.6-0.9-1.3-1.2-2
		c-0.3-0.8-0.4-1.6-0.4-2.5c0-0.8,0.1-1.5,0.3-2.2c0.2-0.7,0.4-1.4,0.8-2c0.3-0.6,0.7-1.2,1.2-1.7c0.5-0.5,1-0.9,1.6-1.3
		c0.6-0.4,1.2-0.6,1.9-0.8c0.7-0.2,1.4-0.3,2.2-0.3c0.9,0,1.8,0.2,2.6,0.5c0.8,0.3,1.4,0.8,1.9,1.4c0.5,0.6,0.9,1.3,1.2,2
		C159,15.2,159.1,16,159.1,16.9z M155.8,17c0-0.6-0.1-1.1-0.2-1.6c-0.1-0.5-0.4-0.9-0.6-1.2c-0.3-0.3-0.6-0.6-1-0.8
		c-0.4-0.2-0.8-0.3-1.4-0.3c-0.7,0-1.3,0.1-1.8,0.4c-0.5,0.3-1,0.7-1.3,1.1c-0.4,0.5-0.6,1.1-0.8,1.8c-0.2,0.7-0.3,1.5-0.3,2.3
		c0,0.6,0.1,1.1,0.2,1.6c0.1,0.5,0.3,0.9,0.6,1.2c0.3,0.3,0.6,0.6,1,0.8c0.4,0.2,0.9,0.3,1.4,0.3c0.7,0,1.3-0.1,1.8-0.4
		c0.5-0.3,1-0.7,1.3-1.1c0.4-0.5,0.7-1.1,0.8-1.8C155.7,18.6,155.8,17.9,155.8,17z"/>
	<path class="st0" d="M171.8,10.7l-0.3,2.5h-3.7L166.3,25h-3.2l1.5-11.8h-3.7l0.3-2.5H171.8z"/>
	<path class="st0" d="M182,11.6c0.1-0.1,0.2-0.2,0.3-0.3c0.1-0.1,0.2-0.2,0.4-0.3c0.1-0.1,0.3-0.2,0.4-0.2c0.1-0.1,0.3-0.1,0.5-0.1
		h2.4L184.2,25h-3.2l1-8c0.1-0.4,0.1-0.7,0.2-1.1c0.1-0.4,0.2-0.8,0.3-1.3c-0.2,0.4-0.4,0.8-0.6,1.1c-0.2,0.3-0.4,0.6-0.6,0.9
		l-4.7,7.4c-0.1,0.1-0.2,0.2-0.3,0.3c-0.1,0.1-0.2,0.2-0.4,0.3c-0.1,0.1-0.3,0.2-0.4,0.2c-0.1,0.1-0.3,0.1-0.5,0.1h-2.4l1.8-14.4
		h3.2l-1,7.9c-0.1,0.4-0.1,0.8-0.2,1.2c-0.1,0.4-0.2,0.8-0.3,1.3c0.2-0.4,0.4-0.8,0.6-1.1c0.2-0.4,0.4-0.7,0.6-0.9L182,11.6z"/>
	<path class="st0" d="M187.6,25l1.8-14.4h5c0.8,0,1.6,0.1,2.2,0.2c0.6,0.2,1.1,0.4,1.5,0.7c0.4,0.3,0.7,0.6,0.8,1.1
		c0.2,0.4,0.3,0.9,0.3,1.4c0,0.4-0.1,0.8-0.2,1.1c-0.1,0.4-0.3,0.7-0.5,1c-0.2,0.3-0.5,0.6-0.9,0.8c-0.4,0.3-0.8,0.5-1.3,0.6
		c0.8,0.2,1.4,0.5,1.7,1c0.4,0.4,0.6,1,0.6,1.7c0,0.7-0.1,1.3-0.4,1.9c-0.3,0.6-0.6,1.1-1.1,1.5c-0.5,0.4-1.1,0.8-1.8,1
		c-0.7,0.2-1.5,0.4-2.3,0.4H187.6z M191.6,18.9l-0.5,3.7h2.1c0.4,0,0.7-0.1,1-0.2c0.3-0.1,0.5-0.3,0.7-0.5c0.2-0.2,0.3-0.4,0.4-0.7
		c0.1-0.3,0.1-0.6,0.1-0.9c0-0.2,0-0.4-0.1-0.6c-0.1-0.2-0.2-0.3-0.3-0.4c-0.1-0.1-0.3-0.2-0.5-0.3c-0.2-0.1-0.5-0.1-0.8-0.1H191.6z
		 M191.8,16.8h1.5c0.4,0,0.7,0,1-0.1c0.3-0.1,0.5-0.2,0.8-0.4c0.2-0.2,0.4-0.4,0.5-0.7c0.1-0.3,0.2-0.6,0.2-1.1
		c0-0.5-0.1-0.9-0.4-1.1c-0.3-0.2-0.7-0.3-1.3-0.3h-1.7L191.8,16.8z"/>
	<path class="st0" d="M212.6,25h-2.5c-0.3,0-0.5-0.1-0.7-0.2c-0.2-0.1-0.3-0.3-0.3-0.5l-0.4-2.6h-4.9l-1.1,2.6
		c-0.1,0.2-0.2,0.3-0.4,0.5c-0.2,0.1-0.4,0.2-0.7,0.2h-2.5l6.9-14.4h3.3L212.6,25z M204.7,19.6h3.6l-0.7-4.1
		c-0.1-0.3-0.1-0.6-0.2-0.9c-0.1-0.3-0.1-0.7-0.2-1.1c-0.2,0.4-0.3,0.8-0.5,1.1c-0.2,0.4-0.3,0.7-0.4,0.9L204.7,19.6z"/>
	<path class="st0" d="M214.6,25l1.8-14.4h3.2l-1.5,12h4.8l1.5-12h3.3L225.9,25l0.3-2.4h1.8l-0.6,4.9c0,0.3-0.2,0.5-0.4,0.6
		c-0.2,0.2-0.5,0.2-0.8,0.2h-1.9l0.4-3.4H214.6z"/>
	<path class="st0" d="M239.8,11.6c0.1-0.1,0.2-0.2,0.3-0.3c0.1-0.1,0.2-0.2,0.4-0.3c0.1-0.1,0.3-0.2,0.4-0.2
		c0.1-0.1,0.3-0.1,0.5-0.1h2.4L242,25h-3.2l1-8c0.1-0.4,0.1-0.7,0.2-1.1c0.1-0.4,0.2-0.8,0.3-1.3c-0.2,0.4-0.4,0.8-0.6,1.1
		c-0.2,0.3-0.4,0.6-0.6,0.9l-4.7,7.4c-0.1,0.1-0.2,0.2-0.3,0.3c-0.1,0.1-0.2,0.2-0.4,0.3c-0.1,0.1-0.3,0.2-0.4,0.2
		c-0.1,0.1-0.3,0.1-0.5,0.1h-2.4l1.8-14.4h3.2l-1,7.9c-0.1,0.4-0.1,0.8-0.2,1.2c-0.1,0.4-0.2,0.8-0.3,1.3c0.2-0.4,0.4-0.8,0.6-1.1
		c0.2-0.4,0.4-0.7,0.6-0.9L239.8,11.6z"/>
	<path class="st0" d="M252.4,25l0.7-5.8h-1c-0.1,0-0.3,0-0.4,0.1c-0.1,0-0.2,0.1-0.4,0.2c-0.1,0.1-0.2,0.2-0.3,0.3
		c-0.1,0.1-0.2,0.3-0.3,0.5l-2.2,3.7c-0.2,0.3-0.5,0.6-0.9,0.8c-0.4,0.2-0.8,0.3-1.2,0.3h-2.4l3.2-4.9c0.5-0.7,1.1-1.2,1.8-1.5
		c-0.4-0.1-0.7-0.3-1-0.5c-0.3-0.2-0.5-0.5-0.7-0.7c-0.2-0.3-0.3-0.6-0.4-0.9c-0.1-0.3-0.1-0.7-0.1-1c0-0.7,0.1-1.3,0.4-1.9
		c0.3-0.6,0.6-1.1,1.1-1.5c0.5-0.4,1.1-0.8,1.8-1c0.7-0.2,1.5-0.4,2.4-0.4h5L255.6,25H252.4z M249.9,15.3c0,0.2,0,0.4,0.1,0.6
		c0.1,0.2,0.1,0.3,0.3,0.5c0.1,0.1,0.3,0.2,0.5,0.3c0.2,0.1,0.5,0.1,0.8,0.1h1.8l0.5-3.7H252c-0.4,0-0.7,0.1-1,0.2
		c-0.3,0.1-0.5,0.3-0.7,0.4c-0.2,0.2-0.3,0.4-0.4,0.7S249.9,15,249.9,15.3z"/>
</g>
<g>
	<path class="st0" d="M17.4,42.9c0.1-0.1,0.1-0.1,0.2-0.2c0.1-0.1,0.2-0.1,0.2-0.1h0.7l-1.6,12.5H16l1.3-10.2c0-0.2,0-0.4,0.1-0.6
		c0-0.2,0.1-0.4,0.1-0.6c-0.1,0.2-0.2,0.3-0.3,0.5c-0.1,0.1-0.2,0.3-0.3,0.4L9,54.8C9,54.9,8.9,55,8.8,55c-0.1,0.1-0.2,0.1-0.3,0.1
		H7.9l1.6-12.5h0.9L9.1,52.8c0,0.2-0.1,0.4-0.1,0.6C9,53.6,9,53.8,8.9,54c0.1-0.2,0.2-0.3,0.3-0.5c0.1-0.2,0.2-0.3,0.3-0.4
		L17.4,42.9z"/>
	<path class="st0" d="M36.3,55.1h-0.9l1.5-11.8h-6.7l-1.5,11.8h-0.9l1.6-12.5h8.5L36.3,55.1z"/>
	<path class="st0" d="M52.4,47.9c0,1.1-0.2,2.1-0.5,3c-0.3,0.9-0.8,1.7-1.4,2.3c-0.6,0.6-1.3,1.1-2,1.5c-0.8,0.4-1.6,0.5-2.6,0.5
		c-0.7,0-1.4-0.1-2-0.4c-0.6-0.3-1.1-0.6-1.5-1.1c-0.4-0.5-0.7-1.1-1-1.7c-0.2-0.7-0.3-1.4-0.3-2.2c0-1.1,0.2-2.1,0.5-3
		c0.3-0.9,0.8-1.7,1.3-2.3c0.6-0.6,1.3-1.1,2-1.5c0.8-0.4,1.6-0.5,2.5-0.5c0.7,0,1.4,0.1,2,0.4c0.6,0.3,1.1,0.6,1.5,1.1
		c0.4,0.5,0.7,1.1,1,1.7C52.3,46.3,52.4,47.1,52.4,47.9z M51.5,47.9c0-0.7-0.1-1.4-0.3-2c-0.2-0.6-0.5-1.1-0.8-1.5
		c-0.3-0.4-0.8-0.7-1.3-0.9c-0.5-0.2-1.1-0.3-1.7-0.3c-0.8,0-1.5,0.2-2.1,0.5c-0.7,0.3-1.2,0.7-1.7,1.3c-0.5,0.6-0.9,1.3-1.1,2.1
		c-0.3,0.8-0.4,1.7-0.4,2.7c0,0.7,0.1,1.4,0.3,2c0.2,0.6,0.5,1.1,0.8,1.5c0.4,0.4,0.8,0.7,1.3,0.9c0.5,0.2,1,0.3,1.7,0.3
		c0.8,0,1.5-0.2,2.2-0.5c0.7-0.3,1.2-0.7,1.7-1.3c0.5-0.6,0.9-1.3,1.1-2.1C51.4,49.8,51.5,48.9,51.5,47.9z"/>
	<path class="st0" d="M65.2,42.6l-1.5,11.8h2L65.3,58c0,0.1,0,0.2-0.1,0.2c-0.1,0.1-0.1,0.1-0.2,0.1h-0.5l0.4-3.1H54.5L54.2,58
		c0,0.1,0,0.2-0.1,0.2c-0.1,0.1-0.1,0.1-0.2,0.1h-0.5l0.5-3.9h1.1c0.2-0.1,0.4-0.2,0.6-0.4c0.2-0.2,0.4-0.5,0.6-0.9
		c0.2-0.4,0.4-0.9,0.7-1.5c0.2-0.6,0.4-1.3,0.7-2.2c0.2-0.8,0.4-1.8,0.7-3c0.2-1.1,0.5-2.4,0.7-3.9H65.2z M59.6,43.3
		c-0.2,1.2-0.4,2.2-0.6,3.2c-0.2,0.9-0.4,1.8-0.6,2.6c-0.2,0.8-0.4,1.4-0.6,2c-0.2,0.6-0.4,1.1-0.6,1.5c-0.2,0.4-0.4,0.8-0.6,1.1
		c-0.2,0.3-0.4,0.6-0.6,0.8h6.8l1.4-11.1H59.6z"/>
	<path class="st0" d="M79.1,42.6l-1.5,11.8h2L79.2,58c0,0.1,0,0.2-0.1,0.2c-0.1,0.1-0.1,0.1-0.2,0.1h-0.5l0.4-3.1H68.5L68.1,58
		c0,0.1,0,0.2-0.1,0.2c-0.1,0.1-0.1,0.1-0.2,0.1h-0.5l0.5-3.9h1.1c0.2-0.1,0.4-0.2,0.6-0.4c0.2-0.2,0.4-0.5,0.6-0.9
		c0.2-0.4,0.4-0.9,0.7-1.5c0.2-0.6,0.4-1.3,0.7-2.2c0.2-0.8,0.4-1.8,0.7-3c0.2-1.1,0.5-2.4,0.7-3.9H79.1z M73.6,43.3
		c-0.2,1.2-0.4,2.2-0.6,3.2c-0.2,0.9-0.4,1.8-0.6,2.6c-0.2,0.8-0.4,1.4-0.6,2c-0.2,0.6-0.4,1.1-0.6,1.5c-0.2,0.4-0.4,0.8-0.6,1.1
		s-0.4,0.6-0.6,0.8h6.8l1.4-11.1H73.6z"/>
	<path class="st0" d="M91.6,43.3h-6.1l-0.6,5.1H90l-0.1,0.7h-5l-0.7,5.3h6.1l-0.1,0.7h-7l1.6-12.5h7L91.6,43.3z"/>
	<path class="st0" d="M95.7,50.1l-0.6,5.1h-0.9l1.5-12.5h3c1.2,0,2.2,0.3,2.8,0.8c0.6,0.6,0.9,1.3,0.9,2.3c0,0.6-0.1,1.2-0.3,1.7
		c-0.2,0.5-0.5,1-0.9,1.4c-0.4,0.4-0.9,0.7-1.5,0.9c-0.6,0.2-1.2,0.3-1.9,0.3H95.7z M96.6,43.3l-0.8,6.1H98c0.6,0,1.1-0.1,1.5-0.3
		c0.4-0.2,0.8-0.4,1.2-0.7c0.3-0.3,0.6-0.7,0.7-1.1c0.2-0.4,0.3-0.9,0.3-1.4c0-0.8-0.2-1.4-0.7-1.9c-0.5-0.4-1.2-0.7-2.2-0.7H96.6z"
		/>
	<path class="st0" d="M105.8,42.6c0.1,0,0.2,0,0.3,0.1c0.1,0.1,0.1,0.1,0.2,0.2l2.9,4.9c0.2,0.3,0.3,0.4,0.5,0.5
		c0.2,0.1,0.4,0.1,0.7,0.1h1.3l0.7-5.8h0.8l-0.7,5.8h1.3c0.1,0,0.3,0,0.4,0c0.1,0,0.2-0.1,0.3-0.1c0.1,0,0.2-0.1,0.3-0.2
		c0.1-0.1,0.2-0.2,0.3-0.3l4.1-4.9c0.1-0.1,0.1-0.2,0.2-0.2c0.1-0.1,0.2-0.1,0.3-0.1h0.7l-4.5,5.2c-0.2,0.2-0.4,0.4-0.5,0.5
		c-0.2,0.1-0.4,0.2-0.6,0.3c0.2,0.1,0.5,0.2,0.6,0.3c0.2,0.1,0.3,0.3,0.4,0.6l3.2,5.6h-0.6c-0.1,0-0.3,0-0.3-0.1
		c-0.1-0.1-0.2-0.1-0.2-0.2l-3-5c-0.1-0.2-0.3-0.4-0.5-0.5c-0.2-0.1-0.4-0.2-0.7-0.2h-1.5l-0.8,6h-0.8l0.7-6h-1.5
		c-0.3,0-0.6,0.1-0.8,0.2c-0.2,0.1-0.4,0.3-0.6,0.5l-4.2,5c-0.1,0.1-0.2,0.2-0.3,0.2c-0.1,0.1-0.2,0.1-0.4,0.1h-0.6l4.6-5.6
		c0.2-0.2,0.4-0.4,0.6-0.6c0.2-0.1,0.4-0.2,0.7-0.3c-0.2-0.1-0.4-0.2-0.6-0.3c-0.1-0.1-0.3-0.3-0.4-0.5l-3.2-5.2H105.8z"/>
	<path class="st0" d="M124.5,48.4h1.3c0.1,0,0.3,0,0.4,0c0.1,0,0.2-0.1,0.3-0.1c0.1,0,0.2-0.1,0.3-0.2c0.1-0.1,0.2-0.2,0.3-0.3
		l4.2-4.9c0.1-0.1,0.1-0.2,0.2-0.2c0.1-0.1,0.2-0.1,0.3-0.1h0.7l-4.6,5.3c-0.2,0.2-0.3,0.4-0.5,0.5c-0.2,0.1-0.4,0.2-0.6,0.3
		c0.2,0.1,0.4,0.2,0.6,0.3c0.1,0.1,0.3,0.3,0.4,0.6l3.4,5.6h-0.8c-0.1,0-0.2,0-0.3-0.1c-0.1-0.1-0.1-0.1-0.2-0.2l-3.1-5.1
		c-0.1-0.1-0.1-0.2-0.2-0.3c-0.1-0.1-0.1-0.1-0.2-0.2c-0.1,0-0.2-0.1-0.3-0.1c-0.1,0-0.2,0-0.4,0h-1.5l-0.7,6h-0.9l1.6-12.5h0.9
		L124.5,48.4z"/>
	<path class="st0" d="M143.8,55.1h-0.7c-0.1,0-0.1,0-0.2-0.1c0,0-0.1-0.1-0.1-0.2l-0.9-3.7h-5.7l-1.8,3.7c0,0.1-0.1,0.1-0.1,0.2
		c-0.1,0-0.1,0.1-0.2,0.1h-0.7l6.3-12.5h0.9L143.8,55.1z M136.6,50.6h5.2l-1.6-6.4c0-0.1,0-0.2-0.1-0.3c0-0.1-0.1-0.3-0.1-0.4
		c-0.1,0.1-0.1,0.3-0.2,0.4c-0.1,0.1-0.1,0.2-0.2,0.4L136.6,50.6z"/>
</g>
<g>
	<path class="st0" d="M48.3,79.7h2.3c0.5,0,0.9-0.1,1.2-0.2c0.3-0.2,0.7-0.5,1.1-0.9l6.5-8.5c0.2-0.3,0.5-0.6,0.8-0.8
		c0.3-0.2,0.6-0.3,1-0.3h3.4l-7.8,10.2c-0.3,0.4-0.7,0.8-1.1,1.1c-0.4,0.3-0.8,0.5-1.2,0.7c0.6,0.2,1.1,0.5,1.5,0.8
		c0.4,0.4,0.7,0.9,1,1.6L61.9,94h-3.6c-0.4,0-0.7-0.1-0.9-0.3c-0.2-0.2-0.4-0.5-0.6-0.9l-4.2-8.8c-0.2-0.5-0.5-0.8-0.8-1
		c-0.3-0.2-0.7-0.3-1.3-0.3h-2.7L46.5,94h-3.9l3.1-25.1h3.9L48.3,79.7z"/>
	<path class="st0" d="M90.4,79.7c0,1.4-0.2,2.7-0.5,4c-0.3,1.3-0.7,2.4-1.3,3.5c-0.6,1.1-1.3,2-2.1,2.9c-0.8,0.9-1.7,1.6-2.7,2.2
		c-1,0.6-2.1,1.1-3.2,1.4c-1.2,0.3-2.4,0.5-3.7,0.5c-1.6,0-3-0.3-4.3-0.8c-1.3-0.6-2.3-1.3-3.2-2.3c-0.9-1-1.6-2.1-2-3.5
		c-0.5-1.3-0.7-2.8-0.7-4.4c0-1.4,0.2-2.7,0.5-4c0.3-1.3,0.7-2.4,1.3-3.5c0.6-1.1,1.2-2.1,2.1-2.9c0.8-0.9,1.7-1.6,2.7-2.2
		c1-0.6,2.1-1.1,3.2-1.4c1.2-0.3,2.4-0.5,3.7-0.5c1.6,0,3,0.3,4.3,0.8c1.3,0.6,2.3,1.3,3.2,2.3c0.9,1,1.6,2.2,2,3.5
		C90.2,76.6,90.4,78.1,90.4,79.7z M86.4,79.8c0-1.2-0.2-2.3-0.5-3.2c-0.3-1-0.7-1.8-1.3-2.5c-0.6-0.7-1.3-1.2-2.1-1.6
		c-0.8-0.4-1.8-0.6-2.8-0.6c-1.3,0-2.5,0.3-3.6,0.8c-1.1,0.5-2,1.3-2.8,2.3c-0.8,1-1.4,2.1-1.8,3.5c-0.4,1.4-0.6,2.9-0.6,4.6
		c0,1.2,0.2,2.3,0.5,3.2c0.3,1,0.7,1.8,1.3,2.5c0.6,0.7,1.3,1.2,2.1,1.6c0.8,0.4,1.7,0.6,2.8,0.6c1.3,0,2.5-0.3,3.6-0.8
		c1.1-0.5,2-1.3,2.8-2.2c0.8-1,1.4-2.1,1.8-3.5C86.2,83,86.4,81.5,86.4,79.8z"/>
	<path class="st0" d="M109.1,85.3c0.1,0.3,0.1,0.6,0.2,0.9c0.1-0.3,0.3-0.6,0.4-0.9c0.1-0.3,0.3-0.6,0.5-0.8l9.3-15
		c0.2-0.3,0.5-0.4,0.6-0.5c0.2-0.1,0.4-0.1,0.8-0.1h3L120.7,94h-3.5l2.1-17.3c0-0.3,0.1-0.6,0.1-0.9c0.1-0.3,0.1-0.7,0.2-1l-9.2,15
		c-0.4,0.6-0.9,0.9-1.5,0.9h-0.5c-0.3,0-0.6-0.1-0.8-0.2c-0.2-0.1-0.4-0.4-0.5-0.7l-5.6-15c0,0.3,0,0.7,0,1c0,0.3,0,0.6-0.1,0.9
		L99.3,94h-3.5l3.1-25.1h2.9c0.2,0,0.3,0,0.4,0c0.1,0,0.2,0,0.3,0.1c0.1,0,0.2,0.1,0.3,0.2c0.1,0.1,0.2,0.2,0.3,0.3l5.6,15
		C108.9,84.8,109,85.1,109.1,85.3z"/>
	<path class="st0" d="M148.9,94h-3.1c-0.3,0-0.6-0.1-0.8-0.3c-0.2-0.2-0.3-0.4-0.4-0.7l-1.2-5.6h-9.8L131,93
		c-0.1,0.2-0.3,0.5-0.6,0.6c-0.3,0.2-0.5,0.3-0.9,0.3h-3.1l12.3-25.1h4L148.9,94z M134.9,84.6h7.9l-2-9.4c-0.1-0.4-0.1-0.8-0.2-1.2
		c-0.1-0.5-0.2-1-0.3-1.5c-0.2,0.6-0.4,1.1-0.6,1.5c-0.2,0.5-0.4,0.9-0.5,1.3L134.9,84.6z"/>
	<path class="st0" d="M174,94h-4l1.4-11.2H160L158.6,94h-4l3.1-25.1h4l-1.4,11h11.4l1.4-11h4L174,94z"/>
	<path class="st0" d="M204.3,68.9l-2.7,22h3.7l-1,8c0,0.3-0.2,0.6-0.5,0.8c-0.3,0.2-0.6,0.3-0.9,0.3h-2.4l0.8-6h-17.6l-0.6,4.9
		c0,0.3-0.2,0.6-0.4,0.8c-0.3,0.2-0.6,0.3-0.9,0.3h-2.4l1.1-9.1h2.4c0.3-0.2,0.7-0.4,1.1-0.8c0.4-0.4,0.7-0.9,1.1-1.6
		s0.8-1.6,1.2-2.7c0.4-1.1,0.8-2.4,1.2-4c0.4-1.6,0.8-3.4,1.2-5.5c0.4-2.1,0.8-4.6,1.3-7.3H204.3z M193.1,72c-0.5,2.7-0.9,5-1.4,7.1
		c-0.5,2-1,3.8-1.5,5.4c-0.5,1.5-1,2.8-1.5,3.9c-0.5,1.1-1,1.9-1.6,2.6h10.4l2.4-18.9H193.1z"/>
	<path class="st0" d="M218.2,68.9l-1.3,10.6h4.1c1.3,0,2.5,0.2,3.5,0.5c1,0.3,1.8,0.7,2.4,1.2c0.6,0.5,1.1,1.2,1.4,1.9
		c0.3,0.7,0.4,1.5,0.4,2.3c0,1.3-0.2,2.4-0.6,3.5c-0.4,1-1.1,1.9-1.9,2.7c-0.8,0.7-1.8,1.3-3,1.7c-1.2,0.4-2.5,0.6-3.9,0.6h-8
		l3.1-25.1H218.2z M216.5,82.6l-1,8.3h4c0.9,0,1.6-0.1,2.3-0.3c0.6-0.2,1.2-0.6,1.6-1c0.4-0.4,0.7-0.9,0.9-1.5
		c0.2-0.6,0.3-1.3,0.3-2c0-0.5-0.1-1-0.2-1.4c-0.2-0.4-0.4-0.8-0.7-1.1c-0.3-0.3-0.7-0.5-1.3-0.7c-0.5-0.2-1.1-0.2-1.9-0.2H216.5z
		 M234.7,94h-4l3.1-25.1h4L234.7,94z"/>
</g>
<g>
	<path class="st0" d="M60.3,168.9c0.1-0.2,0.3-0.4,0.5-0.5c0.2-0.2,0.4-0.2,0.6-0.2h1.8L61,186h-2.4l1.6-12.6c0-0.4,0.1-0.7,0.2-1.1
		c0.1-0.4,0.2-0.8,0.3-1.2c-0.2,0.4-0.4,0.7-0.6,1c-0.2,0.3-0.4,0.6-0.6,0.9l-9.1,12.3c-0.1,0.2-0.3,0.4-0.5,0.5
		c-0.2,0.2-0.4,0.2-0.7,0.2h-1.7l2.2-17.9H52l-1.6,12.6c-0.1,0.4-0.1,0.7-0.2,1.1c-0.1,0.4-0.1,0.8-0.3,1.2c0.2-0.4,0.4-0.7,0.6-1
		c0.2-0.3,0.4-0.6,0.6-0.8L60.3,168.9z"/>
	<path class="st0" d="M78.4,183.9c0.4-0.2,0.7-0.6,1-1.2l1-1.9l-5.1-12.7h2.1c0.2,0,0.4,0,0.5,0.1s0.2,0.2,0.3,0.4l3,8.3
		c0.1,0.3,0.2,0.6,0.3,1c0.1,0.3,0.1,0.6,0.2,1c0.1-0.3,0.3-0.6,0.4-1c0.2-0.3,0.3-0.6,0.5-1l4.4-8.3c0.1-0.1,0.2-0.3,0.4-0.4
		c0.1-0.1,0.3-0.2,0.5-0.2h2l-8.7,15.6c-0.3,0.5-0.5,0.9-0.8,1.2c-0.3,0.3-0.6,0.6-0.9,0.8c-0.3,0.2-0.6,0.3-0.9,0.4
		c-0.3,0.1-0.6,0.1-1,0.1c-0.5,0-0.9-0.1-1.1-0.1c-0.2-0.1-0.3-0.3-0.3-0.5l0.2-1.3h0.8C77.6,184.3,78,184.1,78.4,183.9z"/>
	<path class="st0" d="M103.2,186h-2.4l1-7.8c-0.9,0.3-1.8,0.5-2.7,0.6c-0.9,0.1-1.6,0.2-2.4,0.2c-0.7,0-1.4-0.1-2-0.3
		c-0.6-0.2-1.1-0.5-1.5-0.9c-0.4-0.4-0.7-0.9-0.8-1.6c-0.2-0.6-0.2-1.4-0.1-2.4l0.7-5.8h2.4l-0.7,5.9c-0.1,0.8,0,1.5,0.2,2
		c0.2,0.5,0.6,0.9,1.2,1.1c0.6,0.2,1.4,0.3,2.3,0.2c1-0.1,2.1-0.3,3.4-0.7l1-8.4h2.4L103.2,186z"/>
	<path class="st0" d="M123.3,186h-1.8c-0.2,0-0.4-0.1-0.5-0.2c-0.1-0.1-0.2-0.2-0.2-0.4l-1-4.4h-7.4l-2.1,4.4
		c-0.1,0.1-0.2,0.3-0.3,0.4c-0.2,0.1-0.3,0.2-0.5,0.2h-1.8l8.8-17.9h2.4L123.3,186z M113.2,179.4h6.2l-1.7-7.4
		c0-0.2-0.1-0.5-0.1-0.8c-0.1-0.3-0.1-0.6-0.2-0.9c-0.1,0.3-0.3,0.7-0.4,1c-0.1,0.3-0.2,0.5-0.3,0.8L113.2,179.4z"/>
	<path class="st0" d="M134.3,184.2c0.6,0,1,0,1.5-0.1c0.4-0.1,0.8-0.2,1.1-0.3c0.3-0.1,0.6-0.3,0.8-0.4c0.2-0.2,0.4-0.3,0.6-0.4
		c0.2-0.1,0.3-0.2,0.4-0.3c0.1-0.1,0.2-0.1,0.3-0.1c0.1,0,0.1,0,0.2,0c0,0,0.1,0.1,0.1,0.1l0.8,1c-0.8,0.8-1.7,1.5-2.7,2
		c-1,0.5-2.2,0.7-3.6,0.7c-1.1,0-2.1-0.2-2.9-0.6c-0.9-0.4-1.6-0.9-2.2-1.6s-1-1.5-1.4-2.5c-0.3-1-0.5-2-0.5-3.1
		c0-1.6,0.2-3,0.7-4.3c0.5-1.3,1.2-2.4,2-3.3c0.9-0.9,1.9-1.6,3-2.2c1.2-0.5,2.4-0.8,3.7-0.8c0.6,0,1.2,0.1,1.7,0.2
		c0.5,0.1,1,0.3,1.4,0.5c0.4,0.2,0.8,0.5,1.2,0.8c0.3,0.3,0.7,0.6,1,1l-0.8,1c-0.1,0.1-0.1,0.2-0.2,0.2c-0.1,0.1-0.2,0.1-0.3,0.1
		c-0.2,0-0.3-0.1-0.5-0.2c-0.2-0.2-0.4-0.3-0.7-0.5c-0.3-0.2-0.7-0.4-1.1-0.5c-0.5-0.2-1.1-0.2-1.8-0.2c-1,0-1.9,0.2-2.7,0.6
		c-0.8,0.4-1.6,0.9-2.2,1.7c-0.6,0.7-1.1,1.6-1.5,2.6c-0.4,1-0.5,2.2-0.5,3.4c0,0.9,0.1,1.8,0.4,2.5c0.2,0.7,0.6,1.4,1,1.9
		c0.4,0.5,0.9,0.9,1.5,1.2C132.9,184.1,133.6,184.2,134.3,184.2z"/>
	<path class="st0" d="M158.2,168.1l-0.2,2h-5.3l-2,16h-2.3l2-16h-5.3l0.2-2H158.2z"/>
	<path class="st0" d="M174.1,186h-2.4l1-8.2h-8.8l-1,8.2h-2.4l2.2-17.9h2.4l-1,8h8.8l1-8h2.4L174.1,186z"/>
	<path class="st0" d="M193.3,168.9c0.1-0.2,0.3-0.4,0.5-0.5c0.2-0.2,0.4-0.2,0.6-0.2h1.8L194,186h-2.4l1.6-12.6
		c0-0.4,0.1-0.7,0.2-1.1c0.1-0.4,0.2-0.8,0.3-1.2c-0.2,0.4-0.4,0.7-0.6,1c-0.2,0.3-0.4,0.6-0.6,0.9l-9.1,12.3
		c-0.1,0.2-0.3,0.4-0.5,0.5c-0.2,0.2-0.4,0.2-0.7,0.2h-1.7l2.2-17.9h2.4l-1.6,12.6c-0.1,0.4-0.1,0.7-0.2,1.1
		c-0.1,0.4-0.1,0.8-0.3,1.2c0.2-0.4,0.4-0.7,0.6-1c0.2-0.3,0.4-0.6,0.6-0.8L193.3,168.9z"/>
	<path class="st0" d="M203.9,176h1.7c0.3,0,0.6-0.1,0.9-0.2c0.3-0.1,0.5-0.3,0.8-0.7l5-6.3c0.1-0.2,0.3-0.4,0.5-0.5
		c0.2-0.1,0.4-0.2,0.6-0.2h2l-5.9,7.4c-0.4,0.6-1,1-1.6,1.2c0.4,0.1,0.7,0.3,1,0.5c0.3,0.2,0.5,0.6,0.7,1l4,7.8h-2.1
		c-0.2,0-0.4-0.1-0.6-0.2c-0.1-0.1-0.3-0.3-0.4-0.5l-3.5-6.6c-0.1-0.2-0.2-0.3-0.3-0.4c-0.1-0.1-0.2-0.2-0.3-0.3
		c-0.1-0.1-0.3-0.1-0.4-0.1c-0.2,0-0.3,0-0.5,0h-2l-1,8.2h-2.4l2.2-17.9h2.4L203.9,176z"/>
	<path class="st0" d="M233.9,175.8c0,1.5-0.2,2.9-0.7,4.2c-0.5,1.3-1.1,2.4-2,3.3c-0.8,0.9-1.8,1.6-3,2.2c-1.2,0.5-2.4,0.8-3.8,0.8
		c-1.1,0-2.1-0.2-3-0.6c-0.9-0.4-1.6-0.9-2.3-1.6c-0.6-0.7-1.1-1.5-1.4-2.5c-0.3-1-0.5-2-0.5-3.1c0-1.5,0.2-2.9,0.7-4.2
		c0.5-1.3,1.1-2.4,2-3.3c0.8-0.9,1.8-1.6,3-2.2c1.2-0.5,2.4-0.8,3.8-0.8c1.1,0,2.1,0.2,3,0.6c0.9,0.4,1.6,0.9,2.3,1.6
		c0.6,0.7,1.1,1.5,1.4,2.5C233.8,173.6,233.9,174.7,233.9,175.8z M231.5,175.9c0-0.9-0.1-1.7-0.4-2.5c-0.2-0.7-0.6-1.4-1-1.9
		s-1-0.9-1.6-1.2c-0.6-0.3-1.3-0.4-2.1-0.4c-1,0-1.9,0.2-2.7,0.6c-0.8,0.4-1.5,1-2.1,1.7c-0.6,0.7-1.1,1.6-1.4,2.7
		c-0.3,1-0.5,2.2-0.5,3.5c0,0.9,0.1,1.7,0.3,2.5c0.2,0.7,0.6,1.4,1,1.9c0.4,0.5,1,0.9,1.6,1.2c0.6,0.3,1.3,0.4,2.1,0.4
		c1,0,1.9-0.2,2.7-0.6c0.8-0.4,1.5-1,2.1-1.7c0.6-0.7,1.1-1.6,1.4-2.6C231.3,178.3,231.5,177.1,231.5,175.9z"/>
	<path class="st0" d="M238.1,186l2.2-17.9h5.4c0.9,0,1.7,0.1,2.4,0.3c0.7,0.2,1.2,0.5,1.7,0.8c0.4,0.3,0.8,0.8,1,1.3
		c0.2,0.5,0.3,1,0.3,1.7c0,0.5-0.1,1-0.2,1.5c-0.2,0.5-0.4,0.9-0.7,1.3c-0.3,0.4-0.7,0.8-1.2,1.1c-0.5,0.3-1,0.6-1.6,0.8
		c1.1,0.2,1.9,0.7,2.4,1.3c0.5,0.6,0.8,1.4,0.8,2.3c0,0.8-0.1,1.6-0.4,2.3c-0.3,0.7-0.7,1.3-1.3,1.8s-1.2,0.9-2.1,1.2
		c-0.8,0.3-1.7,0.4-2.7,0.4H238.1z M241.4,177.8l-0.8,6.3h3.5c0.7,0,1.3-0.1,1.8-0.3c0.5-0.2,0.9-0.4,1.3-0.8
		c0.3-0.3,0.6-0.7,0.7-1.2c0.2-0.5,0.3-1,0.3-1.5c0-0.8-0.3-1.4-0.8-1.9c-0.5-0.5-1.3-0.7-2.4-0.7H241.4z M241.6,176.2h2.9
		c0.7,0,1.3-0.1,1.8-0.3c0.5-0.2,0.9-0.4,1.3-0.8c0.3-0.3,0.6-0.7,0.8-1.2c0.2-0.4,0.3-0.9,0.3-1.5c0-0.9-0.3-1.5-0.8-1.9
		c-0.5-0.4-1.3-0.6-2.4-0.6h-3L241.6,176.2z"/>
</g>
</svg>
