<?xml version="1.0" encoding="utf-8"?>
<!-- Generator: Adobe Illustrator 21.1.0, SVG Export Plug-In . SVG Version: 6.00 Build 0)  -->
<svg version="1.1" id="Слой_1" xmlns="http://www.w3.org/2000/svg" xmlns:xlink="http://www.w3.org/1999/xlink" x="0px" y="0px"
	 viewBox="0 0 525.8 226.1" style="enable-background:new 0 0 525.8 226.1;" xml:space="preserve">
<style type="text/css">
	.st0{fill:#FFFFFF;}
	.st1{fill:#E73A24;}
</style>
<g id="XMLID_522_">
	<path id="XMLID_523_" class="st0" d="M54.5,0.5c0.1,0.5,0.3,1.3,0.4,2.2c0.2,1,0.4,2,0.6,3.2c0.2,1.2,0.4,2.3,0.6,3.5
		c0.2,1.2,0.4,2.3,0.6,3.3c0.7-1,1.4-2.1,2.1-3.3c0.8-1.2,1.5-2.3,2.3-3.4c0.8-1.1,1.5-2.2,2.1-3.1c0.7-1,1.3-1.8,1.7-2.4h4
		c-0.1,1.3-0.3,2.8-0.5,4.5c-0.2,1.7-0.5,3.4-0.8,5.2c-0.3,1.8-0.6,3.6-0.9,5.4c-0.3,1.8-0.6,3.5-0.9,5.1h-4.4
		c0.4-2,0.8-4.1,1.3-6.4c0.5-2.3,0.9-4.6,1.3-7C63.6,8,63,8.9,62.4,9.9c-0.6,1-1.2,2-1.9,3c-0.6,1-1.2,1.9-1.8,2.9
		c-0.6,0.9-1.1,1.7-1.5,2.3h-3.3c-0.1-0.6-0.2-1.3-0.3-2.2c-0.1-0.9-0.3-1.8-0.4-2.8c-0.2-1-0.3-2-0.5-3c-0.2-1-0.3-1.9-0.5-2.7
		c-0.8,2.3-1.4,4.7-2,7c-0.6,2.3-1.2,4.4-1.7,6.4H44c0.4-1.6,0.9-3.3,1.5-5.1c0.5-1.8,1.1-3.6,1.7-5.4c0.6-1.8,1.1-3.5,1.7-5.2
		c0.6-1.7,1.1-3.2,1.6-4.5H54.5z"/>
	<path id="XMLID_525_" class="st0" d="M78.5,21c-1.2,0-2.3-0.2-3.3-0.6c-1-0.4-1.8-0.9-2.6-1.7c-0.7-0.7-1.3-1.6-1.7-2.7
		c-0.4-1-0.6-2.2-0.6-3.5c0-1.5,0.3-3,0.8-4.5c0.5-1.5,1.3-2.8,2.2-4s2.2-2.2,3.6-2.9c1.4-0.7,3-1.1,4.8-1.1c1.2,0,2.3,0.2,3.3,0.6
		c1,0.4,1.8,0.9,2.6,1.7c0.7,0.7,1.3,1.6,1.7,2.7c0.4,1,0.6,2.2,0.6,3.5c0,1.5-0.3,3-0.8,4.5c-0.5,1.5-1.3,2.8-2.2,4
		c-1,1.2-2.2,2.2-3.6,2.9C81.9,20.6,80.3,21,78.5,21z M81.4,3.9c-0.9,0-1.7,0.2-2.5,0.7c-0.8,0.5-1.4,1.1-2,1.9
		c-0.6,0.8-1,1.7-1.3,2.7c-0.3,1-0.5,2-0.5,3.1c0,1.5,0.3,2.6,0.9,3.5c0.6,0.9,1.6,1.3,3,1.3c0.9,0,1.7-0.2,2.5-0.7
		c0.8-0.5,1.4-1.1,2-1.9c0.6-0.8,1-1.7,1.3-2.7c0.3-1,0.5-2,0.5-3.1c0-1.5-0.3-2.6-0.9-3.5C83.8,4.3,82.8,3.9,81.4,3.9z"/>
	<path id="XMLID_528_" class="st0" d="M95.3,0.5h4.5l-3.9,16.3h5.3L105,0.5h4.5l-3.9,16.3h5.3l3.9-16.3h4.5l-3.9,16.3h3.5l-2.2,9.2
		h-4.4l1.3-5.4H90.5L95.3,0.5z"/>
	<path id="XMLID_530_" class="st0" d="M136.9,0.5h4.5l-4.8,20.1h-4.5l2.1-8.6H127l-2.1,8.6h-4.5l4.8-20.1h4.5l-1.9,7.7h7.1
		L136.9,0.5z"/>
	<path id="XMLID_532_" class="st0" d="M153.8,20.6c0-0.8-0.1-1.5-0.1-2.2c0-0.7-0.1-1.4-0.2-2.2H146c-0.4,0.7-0.8,1.4-1.2,2.2
		c-0.4,0.7-0.8,1.5-1.2,2.2h-4.7c1.3-2.2,2.4-4.2,3.5-6c1.1-1.8,2.1-3.6,3.2-5.2c1-1.6,2-3.2,3-4.6c1-1.5,2-2.9,3-4.3h4
		c0.3,1.4,0.6,2.9,0.9,4.6c0.3,1.7,0.5,3.4,0.8,5.2c0.2,1.8,0.5,3.5,0.7,5.3c0.2,1.8,0.4,3.4,0.6,5H153.8z M152.5,4.9
		c-0.8,1.3-1.6,2.6-2.4,3.9c-0.8,1.3-1.5,2.6-2.3,3.9h5.4c-0.1-1.2-0.2-2.4-0.3-3.8C152.8,7.5,152.7,6.2,152.5,4.9z"/>
	<path id="XMLID_535_" class="st0" d="M163.9,8c0-1.5,0.3-2.7,0.9-3.7c0.6-1,1.3-1.8,2.3-2.4c1-0.6,2.1-1,3.3-1.3
		c1.2-0.2,2.5-0.4,3.9-0.4c1.2,0,2.2,0.1,3.2,0.2c0.9,0.1,1.9,0.3,2.8,0.5l-4.7,19.7H171l1.7-7.2h-0.6c-0.3,0-0.6,0-0.9,0
		c-0.3,0-0.7,0-1-0.1c-0.8,0.9-1.7,2-2.7,3.2c-1,1.3-2,2.6-3,4.1h-4.8c0.5-0.8,1.1-1.6,1.7-2.4c0.6-0.8,1.2-1.6,1.8-2.3
		c0.6-0.7,1.2-1.4,1.7-2c0.5-0.6,1-1.1,1.5-1.6c-0.9-0.6-1.6-1.3-1.9-2C164.1,9.7,163.9,8.9,163.9,8z M174.9,4.2
		c-0.3,0-0.6-0.1-0.9-0.1c-0.3,0-0.6,0-0.8,0c-0.6,0-1.2,0.1-1.7,0.2c-0.6,0.1-1,0.3-1.5,0.5c-0.4,0.3-0.8,0.6-1,1
		c-0.3,0.4-0.4,1-0.4,1.6c0,0.7,0.2,1.2,0.7,1.6c0.5,0.4,1.3,0.6,2.4,0.6h1.9L174.9,4.2z"/>
</g>
<g id="XMLID_498_">
	<path id="XMLID_499_" class="st1" d="M74,92.1c2.7-9.9,5.5-19.5,8.4-28.7c2.9-9.3,5.8-18,8.4-26.3h5.4c0.8,3.2,1.6,6.6,2.4,10.2
		c0.8,3.6,1.6,7.2,2.4,10.8c0.7,3.6,1.4,7.1,2,10.6c0.6,3.4,1.1,6.5,1.6,9.3c2-3,4.1-6.4,6.6-10c2.4-3.7,4.9-7.4,7.4-11.1
		c2.5-3.7,4.9-7.3,7.3-10.7c2.4-3.4,4.5-6.5,6.4-9h5.6c-0.5,4.8-1,9.5-1.7,14.1c-0.6,4.6-1.3,9.1-2,13.6c-0.7,4.5-1.5,9-2.3,13.5
		c-0.8,4.5-1.7,9.1-2.6,13.8h-5.6c1.9-8.6,3.5-16.8,4.8-24.7c1.4-7.8,2.5-15.2,3.5-22.2c-0.8,1-1.9,2.5-3.3,4.5
		c-1.4,2-2.9,4.2-4.6,6.7c-1.7,2.5-3.4,5.1-5.3,7.9c-1.8,2.8-3.6,5.4-5.3,8c-1.7,2.6-3.2,4.9-4.6,7c-1.4,2.1-2.4,3.7-3.2,5H101
		c-0.2-1.5-0.5-3.3-0.9-5.5c-0.4-2.2-0.8-4.5-1.2-7c-0.5-2.5-0.9-5.1-1.4-7.7c-0.5-2.6-1-5.2-1.5-7.6c-0.5-2.4-1-4.6-1.4-6.5
		c-0.5-2-0.8-3.5-1.2-4.8c-2.3,7-4.7,14.5-7,22.5c-2.4,8-4.7,16.2-7,24.5H74z"/>
	<path id="XMLID_501_" class="st1" d="M143.8,71.6c0-5.4,0.9-10.4,2.7-14.8c1.8-4.4,4.2-8.2,7.1-11.3c3-3.1,6.3-5.5,10-7.1
		c3.7-1.7,7.5-2.5,11.5-2.5c2.6,0,5.1,0.4,7.5,1.3c2.4,0.9,4.5,2.2,6.3,4c1.8,1.8,3.2,4,4.3,6.7c1.1,2.7,1.6,5.9,1.6,9.6
		c0,5.5-0.9,10.5-2.7,14.9c-1.8,4.4-4.2,8.2-7.1,11.3c-3,3.1-6.3,5.5-10.1,7.1c-3.8,1.7-7.6,2.5-11.4,2.5c-2.6,0-5.1-0.4-7.5-1.3
		c-2.4-0.9-4.4-2.2-6.2-4c-1.8-1.8-3.2-4-4.3-6.7C144.4,78.5,143.8,75.3,143.8,71.6z M149.6,72.5c0,2.7,0.4,5.1,1.1,7.1
		c0.7,2,1.8,3.7,3.1,5c1.3,1.3,2.8,2.3,4.6,2.9c1.7,0.7,3.6,1,5.6,1c3.2,0,6.3-0.7,9.4-2.1c3-1.4,5.7-3.5,8-6.1
		c2.3-2.7,4.2-6,5.6-10c1.4-3.9,2.1-8.4,2.1-13.5c0-2.7-0.4-5-1.1-7.1c-0.7-2-1.8-3.7-3.1-5c-1.3-1.3-2.9-2.3-4.6-2.9
		c-1.7-0.7-3.6-1-5.6-1c-3.2,0-6.3,0.7-9.4,2.1c-3,1.4-5.7,3.4-8.1,6.1c-2.4,2.7-4.2,6-5.6,10C150.3,62.9,149.6,67.4,149.6,72.5z"/>
	<path id="XMLID_504_" class="st1" d="M216.8,41.8H200l1-4.7h39.1l-1.1,4.7h-16.8l-12.1,50.3h-5.4L216.8,41.8z"/>
	<path id="XMLID_506_" class="st1" d="M246.5,37.1h5.2l-10.9,45.5c1.3-1.8,3-3.9,4.9-6.3c2-2.4,4.1-5,6.4-7.7
		c2.3-2.7,4.8-5.6,7.3-8.5c2.6-2.9,5.1-5.7,7.7-8.5c2.6-2.7,5.1-5.4,7.6-7.9c2.5-2.5,4.7-4.7,6.9-6.6h4.8l-13.2,55H268L279,46
		c-1.7,1.5-3.6,3.5-5.9,5.8c-2.2,2.4-4.6,4.9-7.1,7.7c-2.5,2.8-5.1,5.7-7.7,8.7c-2.6,3-5.1,6-7.6,8.9c-2.4,2.9-4.7,5.7-6.8,8.2
		c-2.1,2.6-3.9,4.8-5.4,6.7h-5.3L246.5,37.1z"/>
	<path id="XMLID_508_" class="st1" d="M297.2,38.2c1.7-0.4,3.7-0.8,6-1.1c2.3-0.3,4.7-0.5,7.2-0.5c2.3,0,4.5,0.2,6.7,0.6
		c2.2,0.4,4.1,1,5.8,2c1.7,1,3.1,2.2,4.1,3.8c1,1.6,1.5,3.6,1.5,6.1c0,1.8-0.3,3.5-1,5c-0.6,1.5-1.5,2.9-2.5,4.1
		c-1,1.2-2.2,2.2-3.6,3.1c-1.4,0.9-2.8,1.5-4.3,2c1.2,0.3,2.3,0.8,3.3,1.5c1,0.7,1.8,1.5,2.5,2.4c0.7,0.9,1.2,2,1.5,3.1
		c0.4,1.1,0.6,2.3,0.6,3.4c0,3.8-0.8,6.8-2.3,9.3c-1.5,2.4-3.5,4.4-6,5.8c-2.5,1.4-5.3,2.4-8.5,3c-3.2,0.6-6.5,0.8-9.9,0.8
		c-2.5,0-5-0.1-7.3-0.4c-2.4-0.3-4.5-0.6-6.5-1.1L297.2,38.2z M290.7,87.4c1.1,0.2,2.3,0.4,3.6,0.4c1.3,0.1,2.7,0.1,4.2,0.1
		c2.6,0,5.1-0.2,7.7-0.6c2.5-0.4,4.7-1.1,6.7-2.1c2-1,3.5-2.4,4.7-4.2c1.2-1.8,1.8-4.2,1.8-7.1c0-3.1-1.1-5.3-3.2-6.5
		c-2.1-1.2-5.6-1.8-10.4-1.8h-10.1L290.7,87.4z M304.3,61.2c6.7,0,11.4-1,14.3-3.1c2.9-2,4.3-4.7,4.3-8.1c0-3.2-1.1-5.4-3.4-6.7
		c-2.2-1.3-5.7-2-10.3-2c-1.4,0-2.8,0.1-4.1,0.2c-1.3,0.1-2.5,0.2-3.5,0.4l-4.8,19.4H304.3z"/>
	<path id="XMLID_512_" class="st1" d="M367,92.1c-0.3-2.5-0.6-5-0.8-7.5c-0.3-2.5-0.6-5-0.9-7.5h-25.9c-1.4,2.4-2.8,4.9-4.2,7.4
		c-1.4,2.5-2.8,5-4.1,7.7h-5.9c5.5-9.8,11.1-19.4,16.8-28.7c5.8-9.3,11.4-18.1,17-26.3h5.8c1.3,7.7,2.6,16.1,3.9,25
		c1.3,9,2.5,18.9,3.8,29.9H367z M360.6,43.3c-3.3,4.9-6.4,9.7-9.5,14.5c-3.1,4.8-6.1,9.6-9,14.6h22.6c-0.6-4.8-1.2-9.5-1.8-14.3
		C362.2,53.3,361.4,48.4,360.6,43.3z"/>
	<path id="XMLID_515_" class="st1" d="M391.2,37.1h5.4l-12.1,50.3h28.2l12.1-50.3h5.4l-12.1,50.3h5.5l-4.7,19.4h-5.1l3.6-14.7H378
		L391.2,37.1z"/>
	<path id="XMLID_517_" class="st1" d="M442.3,37.1h5.2l-10.9,45.5c1.3-1.8,3-3.9,4.9-6.3c2-2.4,4.1-5,6.4-7.7
		c2.3-2.7,4.8-5.6,7.3-8.5c2.6-2.9,5.1-5.7,7.7-8.5c2.6-2.7,5.1-5.4,7.6-7.9c2.5-2.5,4.7-4.7,6.9-6.6h4.8l-13.2,55h-5.1l11-46.1
		c-1.7,1.5-3.6,3.5-5.9,5.8c-2.2,2.4-4.6,4.9-7.1,7.7c-2.5,2.8-5.1,5.7-7.7,8.7c-2.6,3-5.1,6-7.6,8.9c-2.4,2.9-4.7,5.7-6.8,8.2
		c-2.1,2.6-3.9,4.8-5.4,6.7H429L442.3,37.1z"/>
	<path id="XMLID_519_" class="st1" d="M475.9,92.1c1.3-2,2.8-4,4.4-6.2c1.6-2.2,3.2-4.3,4.8-6.4c1.6-2.1,3.2-4.1,4.7-6.1
		c1.5-1.9,2.9-3.6,4.2-5.1c-1.1-0.3-2.1-0.7-3.1-1.2c-1-0.6-1.9-1.3-2.7-2.2c-0.8-0.9-1.4-2-1.8-3.3c-0.4-1.3-0.7-2.8-0.7-4.6
		c0-3.2,0.6-6,1.9-8.6c1.3-2.5,3.1-4.7,5.4-6.4c2.3-1.7,5-3.1,8.2-4c3.1-1,6.5-1.4,10.2-1.4c1.1,0,2.2,0,3.6,0.1
		c1.3,0.1,2.6,0.2,4,0.3c1.3,0.1,2.6,0.3,3.8,0.5c1.2,0.2,2.2,0.4,3,0.7L513,92.1h-5.4l5.3-22.2h-8.4c-1.9,0-3.6-0.1-5.1-0.2
		c-1.2,1.3-2.6,2.9-4.1,4.7c-1.5,1.8-3.1,3.7-4.7,5.7c-1.6,2-3.2,4.1-4.7,6.1c-1.6,2.1-3,4.1-4.3,5.9H475.9z M514,65.3l5.6-23.4
		c-0.3-0.1-1.2-0.2-2.9-0.3c-1.7-0.2-3.5-0.2-5.5-0.2c-2.3,0-4.6,0.2-6.9,0.7c-2.4,0.5-4.5,1.3-6.4,2.5c-1.9,1.2-3.5,2.7-4.7,4.7
		c-1.2,2-1.8,4.5-1.8,7.5c0,1.9,0.3,3.3,1,4.5c0.7,1.1,1.6,2,2.8,2.6c1.2,0.6,2.7,1,4.4,1.2c1.7,0.2,3.6,0.3,5.8,0.3H514z"/>
</g>
<g id="XMLID_472_">
	<path id="XMLID_473_" class="st1" d="M0,148.8l8.2-34.3h6.2l-5.5,23c1.5-1.7,3.1-3.7,5-5.7c1.8-2.1,3.7-4.1,5.6-6.2
		c1.9-2.1,3.8-4,5.7-6c1.9-1.9,3.7-3.6,5.3-5.1h5.2l-8.3,34.3h-6.2l5.9-24.5c-1.8,1.8-3.6,3.8-5.6,5.8c-1.9,2.1-3.8,4.2-5.7,6.3
		c-1.9,2.1-3.7,4.3-5.5,6.4c-1.8,2.1-3.4,4.1-4.9,6H0z"/>
	<path id="XMLID_475_" class="st1" d="M87.4,114.5l-8.3,34.3h-6.2l7-29H66.2l-6.9,29H53l8.2-34.3H87.4z"/>
	<path id="XMLID_477_" class="st1" d="M105.3,149.5c-1.9,0-3.7-0.3-5.3-0.9c-1.6-0.6-3-1.5-4.2-2.6c-1.2-1.2-2.1-2.6-2.7-4.3
		c-0.6-1.7-1-3.7-1-5.9c0-2.6,0.4-5.3,1.3-7.9c0.9-2.6,2.1-5,3.8-7.1c1.7-2.1,3.7-3.8,6.2-5.1c2.4-1.3,5.2-2,8.4-2
		c1.9,0,3.7,0.3,5.3,0.9c1.6,0.6,3,1.5,4.2,2.6c1.2,1.2,2.1,2.6,2.7,4.3c0.6,1.7,1,3.7,1,5.9c0,2.6-0.4,5.3-1.3,7.9
		c-0.9,2.6-2.1,5-3.8,7.1c-1.6,2.1-3.7,3.8-6.2,5.1C111.3,148.9,108.5,149.5,105.3,149.5z M111.2,119.1c-1.9,0-3.6,0.5-5.1,1.4
		c-1.5,0.9-2.8,2.2-3.9,3.7c-1.1,1.5-1.9,3.2-2.5,5.2c-0.6,1.9-0.9,3.9-0.9,5.9c0,2.7,0.6,4.9,1.7,6.5c1.2,1.6,3,2.4,5.5,2.4
		c1.9,0,3.6-0.5,5.1-1.4c1.5-0.9,2.9-2.2,4-3.7c1.1-1.5,1.9-3.2,2.5-5.2c0.6-1.9,0.9-3.9,0.9-5.9c0-2.7-0.6-4.9-1.8-6.5
		C115.6,119.9,113.7,119.1,111.2,119.1z"/>
	<path id="XMLID_480_" class="st1" d="M126.7,143.5h4c1.8-1.7,3.4-3.7,4.7-5.9c1.3-2.2,2.4-4.6,3.4-7.1c0.9-2.5,1.7-5.1,2.4-7.9
		c0.7-2.7,1.3-5.5,1.9-8.2h20.7l-7,29h5.1l-3.5,14.4h-5.9l2.2-9.2h-23.4l-2.2,9.2h-5.9L126.7,143.5z M147.9,119.9
		c-0.5,2.1-1,4.3-1.6,6.5c-0.6,2.2-1.3,4.3-2,6.3c-0.8,2-1.7,4-2.7,5.8c-1,1.9-2.2,3.6-3.5,5.1h12.7l5.7-23.7H147.9z"/>
	<path id="XMLID_483_" class="st1" d="M166.5,143.5h4c1.8-1.7,3.4-3.7,4.7-5.9c1.3-2.2,2.4-4.6,3.4-7.1c0.9-2.5,1.7-5.1,2.4-7.9
		c0.7-2.7,1.3-5.5,1.9-8.2h20.7l-7,29h5.1l-3.5,14.4h-5.9l2.2-9.2h-23.4l-2.2,9.2h-5.9L166.5,143.5z M187.7,119.9
		c-0.5,2.1-1,4.3-1.6,6.5c-0.6,2.2-1.3,4.3-2,6.3c-0.8,2-1.7,4-2.7,5.8c-1,1.9-2.2,3.6-3.5,5.1h12.7l5.7-23.7H187.7z"/>
	<path id="XMLID_486_" class="st1" d="M207.5,148.8l8.2-34.3h21.3l-1.2,5.2h-15.1l-2,8.6h13.4l-1.2,5.1h-13.3l-2.5,10.2h16.2
		l-1.2,5.2H207.5z"/>
	<path id="XMLID_488_" class="st1" d="M256,114.2c4.1,0,7.3,0.8,9.5,2.4c2.2,1.6,3.3,3.9,3.3,6.9c0,2.4-0.5,4.4-1.4,6.1
		c-0.9,1.7-2.2,3-3.8,4.1c-1.6,1.1-3.5,1.8-5.7,2.3c-2.2,0.5-4.7,0.7-7.4,0.7h-2.7l-2.9,12.1h-6.2l8.1-33.8c1.6-0.3,3.2-0.6,4.7-0.7
		C253.1,114.2,254.6,114.2,256,114.2z M255.4,119.4c-0.6,0-1.2,0-1.8,0c-0.6,0-1.1,0.1-1.7,0.1l-2.8,11.8h2.5c1.4,0,2.7-0.1,4-0.3
		c1.3-0.2,2.4-0.6,3.4-1.2c1-0.5,1.8-1.3,2.4-2.2c0.6-0.9,0.9-2.1,0.9-3.6c0-1.7-0.6-2.9-1.9-3.6
		C259.2,119.8,257.5,119.4,255.4,119.4z"/>
	<path id="XMLID_491_" class="st1" d="M273.1,148.8h-7c1.3-1.7,2.6-3.4,4-5.1c1.4-1.7,2.9-3.3,4.4-4.9c1.5-1.6,3-3.1,4.6-4.6
		c1.6-1.5,3.1-2.8,4.7-4l-9.1-15.7h7.2l7.6,14.5l3.5-14.5h6.1l-3.5,14.5c2.7-2.5,5.3-5,7.8-7.4c2.5-2.4,4.9-4.8,7.2-7.2h7.6
		c-3,3-6,5.9-8.9,8.7c-3,2.8-5.8,5.4-8.6,8c2,2.4,3.8,5.1,5.5,8.2c1.7,3.1,3,6.2,4.2,9.4h-6.9c-1.1-3.1-2.4-6-3.9-8.6
		c-1.5-2.6-3.1-5.1-4.7-7.3l-3.8,15.9h-6l3.8-15.9c-2.8,2.4-5.5,4.8-8,7.4C278.1,142.9,275.6,145.7,273.1,148.8z"/>
	<path id="XMLID_493_" class="st1" d="M338.6,148.8c-0.7-1.3-1.4-2.7-2.2-4.1c-0.8-1.4-1.7-2.8-2.6-4.2c-0.9-1.4-1.9-2.7-2.9-3.9
		c-1-1.2-2-2.3-3-3.2l-3.7,15.4h-6.2l8.2-34.3h6.2l-3.3,13.7c1.3-1.1,2.7-2.2,4.2-3.5c1.4-1.2,2.9-2.4,4.2-3.7
		c1.4-1.2,2.7-2.4,3.9-3.5c1.2-1.1,2.3-2.1,3.3-3.1h7.6c-1.3,1.3-2.8,2.6-4.3,4c-1.5,1.4-3.1,2.8-4.7,4.2c-1.6,1.4-3.2,2.9-4.8,4.3
		c-1.6,1.4-3.2,2.7-4.8,4c1,1.1,2.1,2.3,3.2,3.6c1.1,1.4,2.1,2.8,3.2,4.4c1,1.6,2,3.2,2.9,4.8c0.9,1.7,1.8,3.4,2.5,5H338.6z"/>
	<path id="XMLID_495_" class="st1" d="M376.4,148.8c-0.1-1.4-0.2-2.8-0.3-4.1c-0.1-1.4-0.3-2.7-0.4-4h-14c-0.7,1.3-1.4,2.6-2.2,3.9
		c-0.7,1.3-1.5,2.7-2.3,4.2h-6.7c2-3.5,3.9-6.8,5.8-9.9c1.8-3.1,3.6-6.1,5.3-8.9c1.7-2.8,3.4-5.5,5.2-8c1.7-2.6,3.4-5.1,5.1-7.5h5.8
		c1.1,4.9,2,10.3,2.7,16.1c0.8,5.8,1.5,11.9,2.2,18.2H376.4z M373.5,121c-1.3,2-2.7,4.1-4.2,6.6c-1.5,2.4-3.2,5.1-4.9,8.1h10.7
		c-0.2-2.3-0.4-4.7-0.7-7.2C374.2,126.1,373.9,123.6,373.5,121z"/>
</g>
<g id="XMLID_419_">
	<path id="XMLID_420_" class="st0" d="M100.4,188.8c-1,0-1.8-0.2-2.6-0.5c-0.8-0.3-1.5-0.8-2.1-1.4c-0.6-0.6-1-1.3-1.4-2.1
		c-0.3-0.8-0.5-1.8-0.5-2.9c0-1.2,0.2-2.4,0.6-3.6c0.4-1.2,1-2.3,1.8-3.3c0.8-1,1.8-1.7,2.9-2.3c1.1-0.6,2.4-0.9,3.9-0.9
		c1,0,1.8,0.2,2.6,0.5c0.8,0.3,1.5,0.8,2.1,1.4c0.6,0.6,1,1.3,1.4,2.1c0.3,0.8,0.5,1.8,0.5,2.9c0,1.2-0.2,2.4-0.6,3.7
		c-0.4,1.2-1,2.3-1.8,3.3c-0.8,1-1.8,1.7-2.9,2.3C103.2,188.5,101.9,188.8,100.4,188.8z M102.8,175c-0.7,0-1.4,0.2-2,0.6
		c-0.6,0.4-1.2,0.9-1.6,1.5c-0.5,0.6-0.8,1.3-1.1,2.2c-0.3,0.8-0.4,1.7-0.4,2.5c0,1.2,0.2,2.1,0.7,2.9c0.5,0.7,1.3,1.1,2.4,1.1
		c0.7,0,1.4-0.2,2-0.6c0.6-0.4,1.2-0.9,1.6-1.5c0.5-0.6,0.8-1.3,1.1-2.1c0.3-0.8,0.4-1.6,0.4-2.5c0-1.2-0.2-2.1-0.7-2.9
		C104.7,175.3,103.9,175,102.8,175z"/>
	<path id="XMLID_423_" class="st0" d="M126.9,172.2l-0.8,3.1h-4.8l-3.2,13.2h-3.7l3.2-13.2H113l0.8-3.1H126.9z"/>
	<path id="XMLID_425_" class="st0" d="M149.3,172.2l-0.8,3.1h-4.8l-3.2,13.2H137l3.2-13.2h-4.8l0.8-3.1H149.3z"/>
	<path id="XMLID_427_" class="st0" d="M157.5,172c1,0,1.9,0.1,2.7,0.3c0.8,0.2,1.5,0.5,2,0.9c0.5,0.4,1,0.9,1.3,1.5
		c0.3,0.6,0.4,1.2,0.4,1.9c0,1.2-0.2,2.2-0.7,3c-0.5,0.8-1.1,1.5-1.9,2c-0.8,0.5-1.7,0.9-2.8,1.1c-1.1,0.2-2.3,0.3-3.5,0.3H154
		l-1.3,5.5h-3.6l3.8-16c0.8-0.2,1.6-0.3,2.4-0.3C156.1,172.1,156.8,172,157.5,172z M157.2,175.1c-0.3,0-0.5,0-0.7,0
		c-0.2,0-0.4,0-0.6,0l-1.1,4.8h0.9c0.7,0,1.3-0.1,1.8-0.2c0.5-0.1,1-0.3,1.4-0.5c0.4-0.2,0.7-0.5,0.9-0.9c0.2-0.4,0.3-0.8,0.3-1.4
		c0-0.7-0.3-1.2-0.8-1.5C158.8,175.2,158.1,175.1,157.2,175.1z"/>
	<path id="XMLID_430_" class="st0" d="M165.5,188.5l3.9-16.3H180l-0.8,3h-7l-0.8,3.3h6.2l-0.7,3h-6.2l-0.9,4h7.5l-0.8,3H165.5z"/>
	<path id="XMLID_432_" class="st0" d="M194.2,172.2h3.7l-3.9,16.3h-3.7l1.7-6.9h-5.8l-1.7,6.9h-3.6l3.9-16.3h3.7l-1.5,6.2h5.8
		L194.2,172.2z"/>
	<path id="XMLID_434_" class="st0" d="M199.1,188.5l3.9-16.3h10.6l-0.8,3h-7l-0.8,3.3h6.2l-0.7,3h-6.2l-0.9,4h7.5l-0.8,3H199.1z"/>
	<path id="XMLID_436_" class="st0" d="M222.8,172c1,0,1.9,0.1,2.7,0.3c0.8,0.2,1.5,0.5,2,0.9c0.5,0.4,1,0.9,1.3,1.5
		c0.3,0.6,0.4,1.2,0.4,1.9c0,1.2-0.2,2.2-0.7,3c-0.5,0.8-1.1,1.5-1.9,2c-0.8,0.5-1.7,0.9-2.8,1.1c-1.1,0.2-2.3,0.3-3.5,0.3h-0.9
		l-1.3,5.5h-3.6l3.8-16c0.8-0.2,1.6-0.3,2.4-0.3C221.4,172.1,222.1,172,222.8,172z M222.5,175.1c-0.3,0-0.5,0-0.7,0
		c-0.2,0-0.4,0-0.6,0l-1.1,4.8h0.9c0.7,0,1.3-0.1,1.8-0.2c0.5-0.1,1-0.3,1.4-0.5c0.4-0.2,0.7-0.5,0.9-0.9c0.2-0.4,0.3-0.8,0.3-1.4
		c0-0.7-0.3-1.2-0.8-1.5C224.2,175.2,223.4,175.1,222.5,175.1z"/>
	<path id="XMLID_439_" class="st0" d="M238.5,188.8c-1,0-1.8-0.2-2.6-0.5c-0.8-0.3-1.5-0.8-2.1-1.4c-0.6-0.6-1-1.3-1.4-2.1
		c-0.3-0.8-0.5-1.8-0.5-2.9c0-1.2,0.2-2.4,0.6-3.6c0.4-1.2,1-2.3,1.8-3.3c0.8-1,1.8-1.7,2.9-2.3c1.1-0.6,2.4-0.9,3.9-0.9
		c1,0,1.8,0.2,2.6,0.5c0.8,0.3,1.5,0.8,2.1,1.4c0.6,0.6,1,1.3,1.4,2.1c0.3,0.8,0.5,1.8,0.5,2.9c0,1.2-0.2,2.4-0.6,3.7
		c-0.4,1.2-1,2.3-1.8,3.3c-0.8,1-1.8,1.7-2.9,2.3C241.3,188.5,239.9,188.8,238.5,188.8z M240.8,175c-0.7,0-1.4,0.2-2,0.6
		c-0.6,0.4-1.2,0.9-1.6,1.5c-0.5,0.6-0.8,1.3-1.1,2.2c-0.3,0.8-0.4,1.7-0.4,2.5c0,1.2,0.2,2.1,0.7,2.9c0.5,0.7,1.3,1.1,2.4,1.1
		c0.7,0,1.4-0.2,2-0.6c0.6-0.4,1.2-0.9,1.6-1.5c0.5-0.6,0.8-1.3,1.1-2.1c0.3-0.8,0.4-1.6,0.4-2.5c0-1.2-0.2-2.1-0.7-2.9
		C242.7,175.3,241.9,175,240.8,175z"/>
	<path id="XMLID_442_" class="st0" d="M255.6,188.7c-0.9,0-1.9,0-2.9-0.1c-1-0.1-1.9-0.2-2.7-0.4l3.8-15.7c0.9-0.2,1.8-0.3,2.8-0.4
		c1-0.1,1.9-0.1,2.7-0.1c0.9,0,1.8,0.1,2.4,0.3c0.7,0.2,1.2,0.5,1.7,0.8c0.4,0.3,0.8,0.7,1,1.2c0.2,0.4,0.3,0.9,0.3,1.4
		c0,0.3,0,0.7-0.1,1.1c-0.1,0.4-0.2,0.7-0.4,1.1c-0.2,0.4-0.5,0.7-0.9,1c-0.4,0.3-0.8,0.6-1.4,0.9c0.7,0.3,1.2,0.7,1.6,1.3
		c0.3,0.5,0.5,1.1,0.5,1.8c0,0.8-0.1,1.5-0.4,2.2c-0.3,0.7-0.8,1.3-1.4,1.9c-0.7,0.5-1.5,1-2.6,1.3
		C258.4,188.5,257.1,188.7,255.6,188.7z M255.3,181.4l-1,4.2c0.3,0,0.6,0.1,1,0.1c0.4,0,0.7,0,1.1,0c0.5,0,0.9,0,1.4-0.1
		c0.5-0.1,0.9-0.2,1.2-0.4c0.4-0.2,0.7-0.4,0.9-0.8c0.2-0.3,0.4-0.8,0.4-1.3c0-0.2,0-0.4-0.1-0.7c-0.1-0.2-0.2-0.4-0.4-0.6
		c-0.2-0.2-0.4-0.3-0.7-0.4c-0.3-0.1-0.7-0.2-1.1-0.2H255.3z M255.9,178.6h2.3c0.9,0,1.6-0.2,2.1-0.6c0.5-0.4,0.7-0.9,0.7-1.5
		c0-0.3-0.1-0.6-0.2-0.8c-0.1-0.2-0.3-0.4-0.5-0.5c-0.2-0.1-0.5-0.2-0.8-0.3c-0.3-0.1-0.6-0.1-0.9-0.1c-0.3,0-0.7,0-1.1,0
		s-0.7,0.1-0.8,0.1L255.9,178.6z"/>
	<path id="XMLID_446_" class="st0" d="M273.9,188.5l3.9-16.3h3.6l-2.3,9.6c0.8-0.8,1.5-1.7,2.3-2.6c0.8-0.9,1.6-1.7,2.4-2.6
		c0.8-0.8,1.6-1.6,2.3-2.4c0.8-0.8,1.5-1.5,2.2-2.1h3l-3.9,16.3h-3.6l2.6-10.7c-0.9,0.9-1.7,1.9-2.6,2.7c-0.8,0.9-1.6,1.8-2.4,2.6
		c-0.8,0.9-1.5,1.7-2.2,2.6c-0.7,0.9-1.5,1.8-2.2,2.7H273.9z"/>
	<path id="XMLID_448_" class="st0" d="M302.2,185.7c0.5,0,0.9-0.1,1.4-0.3c0.4-0.2,0.9-0.5,1.3-0.9l0.4-0.4c-0.3-0.9-0.6-1.9-1-2.9
		c-0.3-1-0.6-2-0.9-3.1c-0.3-1-0.5-2-0.7-3c-0.2-1-0.4-1.9-0.5-2.8h4.1c0.1,1.3,0.3,2.6,0.6,4.1c0.3,1.4,0.6,2.9,0.9,4.3
		c0.7-1.1,1.4-2.3,2.1-3.7c0.7-1.4,1.5-2.9,2.4-4.6h3.9c-1.4,2.6-2.8,5-4.2,7.2c-1.3,2.2-2.6,4.1-3.8,5.8c-0.8,1.1-1.7,2-2.7,2.6
		c-1,0.7-2.1,1-3.5,1c-0.9,0-1.9-0.2-2.8-0.6l1.2-2.9C300.9,185.6,301.5,185.7,302.2,185.7z"/>
	<path id="XMLID_450_" class="st0" d="M321.7,177c-0.1,0.5-0.2,1-0.2,1.3c0,0.4,0.1,0.7,0.2,0.9c0.1,0.3,0.3,0.5,0.5,0.6
		c0.2,0.1,0.5,0.3,0.7,0.3c0.3,0.1,0.6,0.1,0.9,0.1c0.4,0,0.8,0,1.2-0.1c0.4-0.1,0.8-0.2,1.1-0.2l1.9-7.7h3.7l-3.9,16.3h-3.7
		l1.3-5.5c-0.8,0.2-1.7,0.4-2.6,0.4c-0.7,0-1.3-0.1-1.9-0.2c-0.6-0.2-1.1-0.4-1.6-0.8c-0.5-0.4-0.8-0.8-1.1-1.4
		c-0.3-0.6-0.4-1.2-0.4-2c0-0.6,0.1-1.3,0.3-2.1l1.1-4.7h3.7L321.7,177z"/>
	<path id="XMLID_452_" class="st0" d="M343.8,188.5c0-0.6-0.1-1.2-0.1-1.8c0-0.6-0.1-1.2-0.1-1.8h-6.1c-0.3,0.6-0.6,1.2-1,1.8
		c-0.3,0.6-0.7,1.2-1,1.8h-3.8c1-1.8,2-3.4,2.9-4.9c0.9-1.5,1.7-2.9,2.6-4.2c0.8-1.3,1.6-2.6,2.4-3.7c0.8-1.2,1.6-2.3,2.4-3.5h3.3
		c0.3,1.1,0.5,2.4,0.7,3.7c0.2,1.4,0.4,2.8,0.6,4.2c0.2,1.4,0.4,2.9,0.5,4.3c0.2,1.4,0.3,2.8,0.5,4H343.8z M342.7,175.8
		c-0.7,1-1.3,2.1-1.9,3.1c-0.6,1-1.2,2.1-1.8,3.2h4.4c-0.1-1-0.2-2-0.2-3.1C343,177.9,342.9,176.9,342.7,175.8z"/>
	<path id="XMLID_455_" class="st0" d="M363.1,187.8c-0.6,0.3-1.4,0.6-2.1,0.8c-0.8,0.2-1.7,0.3-2.9,0.3c-1,0-1.9-0.2-2.7-0.5
		c-0.8-0.3-1.5-0.8-2.1-1.4c-0.6-0.6-1-1.3-1.3-2.2c-0.3-0.9-0.5-1.8-0.5-2.9c0-1.2,0.2-2.4,0.6-3.6c0.4-1.2,1.1-2.3,1.9-3.2
		c0.8-0.9,1.9-1.7,3.1-2.3c1.2-0.6,2.6-0.9,4.2-0.9c0.8,0,1.5,0.1,2.2,0.3c0.7,0.2,1.5,0.5,2.3,0.9l-1.3,2.8
		c-0.7-0.3-1.2-0.6-1.8-0.7c-0.5-0.1-1.1-0.2-1.7-0.2c-0.9,0-1.7,0.2-2.4,0.5c-0.7,0.4-1.3,0.8-1.8,1.5c-0.5,0.6-0.9,1.3-1.2,2.1
		c-0.3,0.8-0.4,1.7-0.4,2.6c0,1.4,0.3,2.4,0.9,3c0.6,0.6,1.5,0.9,2.6,0.9c0.8,0,1.4-0.1,2.1-0.2c0.6-0.2,1.2-0.4,1.8-0.6
		L363.1,187.8z"/>
	<path id="XMLID_457_" class="st0" d="M382.4,172.2l-0.8,3.1h-4.8l-3.2,13.2h-3.7l3.2-13.2h-4.8l0.8-3.1H382.4z"/>
	<path id="XMLID_459_" class="st0" d="M395.5,172.2h3.7l-3.9,16.3h-3.7l1.7-6.9h-5.8l-1.7,6.9h-3.6l3.9-16.3h3.7l-1.5,6.2h5.8
		L395.5,172.2z"/>
	<path id="XMLID_461_" class="st0" d="M400.4,188.5l3.9-16.3h3.6l-2.3,9.6c0.8-0.8,1.5-1.7,2.3-2.6c0.8-0.9,1.6-1.7,2.4-2.6
		c0.8-0.8,1.6-1.6,2.3-2.4c0.8-0.8,1.5-1.5,2.2-2.1h3l-3.9,16.3h-3.6l2.6-10.7c-0.9,0.9-1.7,1.9-2.6,2.7c-0.8,0.9-1.6,1.8-2.4,2.6
		c-0.8,0.9-1.5,1.7-2.2,2.6c-0.7,0.9-1.5,1.8-2.2,2.7H400.4z"/>
	<path id="XMLID_463_" class="st0" d="M428.6,188.5c-0.2-0.5-0.5-1.1-0.8-1.7c-0.3-0.6-0.6-1.2-1-1.8c-0.4-0.6-0.8-1.2-1.2-1.8
		c-0.4-0.6-0.9-1.1-1.3-1.5l-1.7,6.8H419l3.9-16.3h3.7l-1.4,5.9c1.2-1,2.4-2.1,3.5-3c1.1-1,2.1-1.9,3-2.9h4.3
		c-1.4,1.3-2.8,2.7-4.2,4c-1.4,1.3-2.9,2.6-4.4,3.8c1,1.1,1.9,2.3,2.8,3.7c0.9,1.4,1.7,3,2.4,4.8H428.6z"/>
	<path id="XMLID_465_" class="st0" d="M442.2,188.8c-1,0-1.8-0.2-2.6-0.5c-0.8-0.3-1.5-0.8-2.1-1.4c-0.6-0.6-1-1.3-1.4-2.1
		c-0.3-0.8-0.5-1.8-0.5-2.9c0-1.2,0.2-2.4,0.6-3.6c0.4-1.2,1-2.3,1.8-3.3c0.8-1,1.8-1.7,2.9-2.3c1.1-0.6,2.4-0.9,3.9-0.9
		c1,0,1.8,0.2,2.6,0.5c0.8,0.3,1.5,0.8,2.1,1.4c0.6,0.6,1,1.3,1.4,2.1c0.3,0.8,0.5,1.8,0.5,2.9c0,1.2-0.2,2.4-0.6,3.7
		c-0.4,1.2-1,2.3-1.8,3.3c-0.8,1-1.8,1.7-2.9,2.3C444.9,188.5,443.6,188.8,442.2,188.8z M444.5,175c-0.7,0-1.4,0.2-2,0.6
		c-0.6,0.4-1.2,0.9-1.6,1.5c-0.5,0.6-0.8,1.3-1.1,2.2c-0.3,0.8-0.4,1.7-0.4,2.5c0,1.2,0.2,2.1,0.7,2.9c0.5,0.7,1.3,1.1,2.4,1.1
		c0.7,0,1.4-0.2,2-0.6c0.6-0.4,1.2-0.9,1.6-1.5c0.5-0.6,0.8-1.3,1.1-2.1c0.3-0.8,0.4-1.6,0.4-2.5c0-1.2-0.2-2.1-0.7-2.9
		C446.4,175.3,445.6,175,444.5,175z"/>
	<path id="XMLID_468_" class="st0" d="M459.3,188.7c-0.9,0-1.9,0-2.9-0.1c-1-0.1-1.9-0.2-2.7-0.4l3.8-15.7c0.9-0.2,1.8-0.3,2.8-0.4
		c1-0.1,1.9-0.1,2.7-0.1c0.9,0,1.8,0.1,2.4,0.3c0.7,0.2,1.2,0.5,1.7,0.8c0.4,0.3,0.8,0.7,1,1.2c0.2,0.4,0.3,0.9,0.3,1.4
		c0,0.3,0,0.7-0.1,1.1c-0.1,0.4-0.2,0.7-0.4,1.1c-0.2,0.4-0.5,0.7-0.9,1c-0.4,0.3-0.8,0.6-1.4,0.9c0.7,0.3,1.2,0.7,1.6,1.3
		c0.3,0.5,0.5,1.1,0.5,1.8c0,0.8-0.1,1.5-0.4,2.2c-0.3,0.7-0.8,1.3-1.4,1.9s-1.5,1-2.6,1.3C462.1,188.5,460.8,188.7,459.3,188.7z
		 M459,181.4l-1,4.2c0.3,0,0.6,0.1,1,0.1c0.4,0,0.7,0,1.1,0c0.5,0,0.9,0,1.4-0.1c0.5-0.1,0.9-0.2,1.2-0.4c0.4-0.2,0.7-0.4,0.9-0.8
		c0.2-0.3,0.4-0.8,0.4-1.3c0-0.2,0-0.4-0.1-0.7c-0.1-0.2-0.2-0.4-0.4-0.6c-0.2-0.2-0.4-0.3-0.7-0.4c-0.3-0.1-0.7-0.2-1.1-0.2H459z
		 M459.6,178.6h2.3c0.9,0,1.6-0.2,2.1-0.6c0.5-0.4,0.7-0.9,0.7-1.5c0-0.3-0.1-0.6-0.2-0.8c-0.1-0.2-0.3-0.4-0.5-0.5
		c-0.2-0.1-0.5-0.2-0.8-0.3c-0.3-0.1-0.6-0.1-0.9-0.1c-0.3,0-0.7,0-1.1,0c-0.4,0-0.7,0.1-0.8,0.1L459.6,178.6z"/>
</g>
<g id="XMLID_189_">
	<path id="XMLID_395_" class="st0" d="M306.9,203.8l-5.3,21.8h-3.1l4.6-19.3h-9.9l-4.6,19.3h-3.1l5.2-21.8H306.9z"/>
	<path id="XMLID_397_" class="st0" d="M319.6,203.6c2.5,0,4.5,0.5,5.8,1.4c1.3,1,1.9,2.4,1.9,4.2c0,1.4-0.3,2.7-0.8,3.7
		c-0.5,1-1.3,1.9-2.3,2.6c-1,0.7-2.2,1.2-3.6,1.5c-1.4,0.3-2.9,0.5-4.6,0.5h-2.2l-2,8.1h-3.1l5.2-21.6c0.9-0.2,1.8-0.3,2.8-0.4
		C317.8,203.6,318.7,203.6,319.6,203.6z M319.2,206.2c-1.5,0-2.4,0-2.7,0.1l-2.1,8.7h2c0.9,0,1.8-0.1,2.7-0.2
		c0.9-0.2,1.8-0.4,2.5-0.8c0.7-0.4,1.3-1,1.8-1.7c0.5-0.7,0.7-1.6,0.7-2.7c0-1.2-0.4-2.1-1.3-2.6
		C321.9,206.4,320.8,206.2,319.2,206.2z"/>
	<path id="XMLID_400_" class="st0" d="M343.3,203.3c1.2,0,2.2,0.2,3.2,0.5c1,0.3,1.8,0.9,2.5,1.6s1.3,1.6,1.6,2.6
		c0.4,1,0.6,2.3,0.6,3.6c0,1.7-0.3,3.5-0.8,5.2c-0.5,1.7-1.3,3.3-2.4,4.6c-1.1,1.4-2.4,2.5-3.9,3.4s-3.4,1.3-5.5,1.3
		c-1.2,0-2.2-0.2-3.2-0.5c-1-0.3-1.8-0.9-2.5-1.6c-0.7-0.7-1.2-1.6-1.6-2.6c-0.4-1-0.6-2.3-0.6-3.6c0-1.7,0.3-3.5,0.8-5.2
		c0.5-1.7,1.3-3.3,2.4-4.7c1.1-1.4,2.4-2.5,4-3.4C339.4,203.7,341.2,203.3,343.3,203.3z M338.9,223.5c1.4,0,2.7-0.3,3.8-1
		c1.1-0.7,2.1-1.6,2.9-2.7c0.8-1.1,1.4-2.3,1.8-3.7c0.4-1.4,0.6-2.7,0.6-4.1c0-1.9-0.4-3.3-1.2-4.4c-0.8-1.1-2.1-1.6-3.9-1.6
		c-1.4,0-2.7,0.3-3.8,1c-1.1,0.7-2.1,1.6-2.9,2.7c-0.8,1.1-1.4,2.3-1.8,3.7c-0.4,1.4-0.6,2.7-0.6,4.1c0,1.9,0.4,3.3,1.2,4.4
		C335.9,222.9,337.2,223.5,338.9,223.5z"/>
	<path id="XMLID_403_" class="st0" d="M372.1,203.8l-0.6,2.6h-9.3l-4.6,19.3h-3.1l5.2-21.8H372.1z"/>
	<path id="XMLID_405_" class="st0" d="M382.8,203.6c2.5,0,4.5,0.5,5.8,1.4c1.3,1,1.9,2.4,1.9,4.2c0,1.4-0.3,2.7-0.8,3.7
		c-0.5,1-1.3,1.9-2.3,2.6c-1,0.7-2.2,1.2-3.6,1.5c-1.4,0.3-2.9,0.5-4.6,0.5H377l-2,8.1H372l5.2-21.6c0.9-0.2,1.8-0.3,2.8-0.4
		C381,203.6,381.9,203.6,382.8,203.6z M382.4,206.2c-1.5,0-2.4,0-2.7,0.1l-2.1,8.7h2c0.9,0,1.8-0.1,2.7-0.2c0.9-0.2,1.8-0.4,2.5-0.8
		c0.7-0.4,1.3-1,1.8-1.7c0.5-0.7,0.7-1.6,0.7-2.7c0-1.2-0.4-2.1-1.3-2.6C385.1,206.4,383.9,206.2,382.4,206.2z"/>
	<path id="XMLID_408_" class="st0" d="M395.2,220l-3.1,5.6h-3.3c2.4-4.2,4.6-8.2,6.9-11.7c2.2-3.6,4.4-6.9,6.6-10.1h3
		c0.3,1.6,0.6,3.2,0.9,4.8c0.3,1.6,0.5,3.3,0.8,5.1c0.3,1.8,0.5,3.6,0.7,5.6c0.2,2,0.5,4.1,0.7,6.4h-3.1c-0.1-0.9-0.2-1.9-0.3-2.9
		c-0.1-1-0.2-1.9-0.3-2.8H395.2z M404.4,217.6c-0.2-1.7-0.4-3.4-0.6-5.1c-0.2-1.7-0.5-3.4-0.8-5.2c-0.7,1.1-1.7,2.5-2.7,4.1
		c-1.1,1.7-2.3,3.7-3.7,6.1H404.4z"/>
	<path id="XMLID_411_" class="st0" d="M435,208.5c-0.3,0.5-0.8,1.1-1.3,1.8c-0.5,0.7-1.1,1.5-1.6,2.4c-0.6,0.9-1.2,1.8-1.8,2.8
		c-0.6,1-1.2,1.9-1.8,2.8c-0.6,0.9-1.1,1.7-1.6,2.5c-0.5,0.8-0.9,1.4-1.2,1.9h-2.5c-0.1-0.5-0.2-1.1-0.3-1.9
		c-0.1-0.8-0.3-1.6-0.5-2.5c-0.2-0.9-0.3-1.8-0.5-2.8s-0.4-1.9-0.5-2.8c-0.2-0.9-0.3-1.7-0.5-2.4c-0.1-0.7-0.3-1.3-0.4-1.8
		c-0.9,2.7-1.7,5.5-2.6,8.4c-0.8,2.9-1.7,5.8-2.5,8.8h-3c0.5-1.9,1-3.8,1.6-5.7c0.6-1.9,1.1-3.8,1.7-5.7c0.6-1.9,1.2-3.7,1.7-5.4
		c0.6-1.8,1.1-3.4,1.7-5h3c0.3,0.9,0.5,2,0.8,3.3c0.3,1.3,0.6,2.6,0.9,4c0.3,1.4,0.5,2.7,0.8,4.1c0.2,1.4,0.4,2.6,0.6,3.7
		c0.8-1.1,1.6-2.4,2.5-3.8c0.9-1.4,1.8-2.7,2.8-4.1c0.9-1.4,1.8-2.7,2.7-3.9c0.9-1.2,1.7-2.3,2.3-3.3h2.9c-0.4,3.6-0.8,7.2-1.4,10.8
		c-0.6,3.7-1.3,7.3-2,11h-3.1c0.6-3,1.2-6,1.7-8.8C434.2,214,434.6,211.2,435,208.5z"/>
	<path id="XMLID_413_" class="st0" d="M463.6,208.5c-0.3,0.5-0.8,1.1-1.3,1.8c-0.5,0.7-1.1,1.5-1.6,2.4c-0.6,0.9-1.2,1.8-1.8,2.8
		c-0.6,1-1.2,1.9-1.8,2.8c-0.6,0.9-1.1,1.7-1.6,2.5c-0.5,0.8-0.9,1.4-1.2,1.9h-2.5c-0.1-0.5-0.2-1.1-0.3-1.9
		c-0.1-0.8-0.3-1.6-0.5-2.5c-0.2-0.9-0.3-1.8-0.5-2.8c-0.2-1-0.4-1.9-0.5-2.8c-0.2-0.9-0.3-1.7-0.5-2.4c-0.1-0.7-0.3-1.3-0.4-1.8
		c-0.9,2.7-1.7,5.5-2.6,8.4c-0.8,2.9-1.7,5.8-2.5,8.8h-3c0.5-1.9,1-3.8,1.6-5.7c0.6-1.9,1.1-3.8,1.7-5.7c0.6-1.9,1.2-3.7,1.7-5.4
		c0.6-1.8,1.1-3.4,1.7-5h3c0.3,0.9,0.5,2,0.8,3.3c0.3,1.3,0.6,2.6,0.9,4c0.3,1.4,0.5,2.7,0.8,4.1c0.2,1.4,0.4,2.6,0.6,3.7
		c0.8-1.1,1.6-2.4,2.5-3.8c0.9-1.4,1.8-2.7,2.8-4.1c0.9-1.4,1.8-2.7,2.7-3.9c0.9-1.2,1.7-2.3,2.3-3.3h2.9c-0.4,3.6-0.8,7.2-1.4,10.8
		c-0.6,3.7-1.3,7.3-2,11h-3.1c0.6-3,1.2-6,1.7-8.8C462.8,214,463.2,211.2,463.6,208.5z"/>
	<path id="XMLID_415_" class="st0" d="M475.9,225.8c-0.4,0-0.9,0-1.4,0c-0.5,0-1-0.1-1.5-0.1c-0.5,0-1-0.1-1.5-0.2
		c-0.5-0.1-0.9-0.2-1.3-0.3l5.2-21.5h3.1l-1.9,7.9c0.4,0,0.9-0.1,1.3-0.1c0.4,0,0.8,0,1.2,0c2.5,0,4.4,0.5,5.7,1.4
		c1.3,1,1.9,2.4,1.9,4.2c0,1.4-0.3,2.7-0.8,3.8c-0.5,1.1-1.2,2-2.2,2.7c-0.9,0.7-2.1,1.2-3.4,1.6
		C478.9,225.7,477.5,225.8,475.9,225.8z M476.2,223.3c1,0,1.9-0.1,2.8-0.3c0.9-0.2,1.6-0.5,2.3-1c0.7-0.5,1.2-1,1.6-1.8
		c0.4-0.7,0.6-1.6,0.6-2.7c0-1.2-0.4-2-1.3-2.6c-0.9-0.5-2.1-0.8-3.6-0.8c-0.8,0-1.4,0-1.8,0c-0.4,0-0.7,0.1-0.9,0.1l-2.1,8.8
		C474.1,223.2,475,223.3,476.2,223.3z M493.1,203.8h3.1l-5.2,21.8h-3.1L493.1,203.8z"/>
</g>
</svg>
