<?xml version="1.0" encoding="utf-8"?>
<!-- Generator: Adobe Illustrator 21.1.0, SVG Export Plug-In . SVG Version: 6.00 Build 0)  -->
<svg version="1.1" id="Слой_1" xmlns="http://www.w3.org/2000/svg" xmlns:xlink="http://www.w3.org/1999/xlink" x="0px" y="0px"
	 viewBox="0 0 525.7 286" style="enable-background:new 0 0 525.7 286;" xml:space="preserve">
<style type="text/css">
	.st0{fill:#FFFFFF;}
	.st1{fill:#E73A24;}
</style>
<g id="XMLID_770_">
	<path id="XMLID_771_" class="st0" d="M15.7,5.1l-3.7,15.2H8.6l3-12.3H6.4l-3,12.3H0L3.6,5.1H15.7z"/>
	<path id="XMLID_773_" class="st0" d="M16.4,20.3L20,5.1h10l-0.7,2.8h-6.5l-0.7,3.1h5.8l-0.7,2.8h-5.8l-0.9,3.7h7l-0.7,2.8H16.4z"/>
	<path id="XMLID_775_" class="st0" d="M38.2,4.9c0.9,0,1.8,0.1,2.5,0.3C41.4,5.4,42,5.7,42.5,6c0.5,0.4,0.9,0.8,1.2,1.4
		c0.3,0.5,0.4,1.2,0.4,1.8c0,1.1-0.2,2-0.6,2.8c-0.4,0.8-1,1.4-1.8,1.8c-0.7,0.5-1.6,0.8-2.6,1c-1,0.2-2.1,0.3-3.3,0.3H35l-1.2,5.1
		h-3.4l3.6-15C34.7,5.1,35.4,5,36.2,5C36.9,4.9,37.5,4.9,38.2,4.9z M37.9,7.8c-0.2,0-0.5,0-0.6,0c-0.2,0-0.4,0-0.5,0l-1.1,4.5h0.9
		c0.6,0,1.2,0,1.7-0.1c0.5-0.1,0.9-0.3,1.3-0.5c0.4-0.2,0.6-0.5,0.8-0.8c0.2-0.3,0.3-0.8,0.3-1.3c0-0.7-0.2-1.1-0.7-1.4
		C39.4,7.9,38.8,7.8,37.9,7.8z"/>
	<path id="XMLID_778_" class="st0" d="M50.4,20.5c-0.9,0-1.8,0-2.7-0.1c-0.9-0.1-1.8-0.2-2.5-0.4l3.5-14.7C49.6,5.1,50.5,5,51.4,5
		c0.9-0.1,1.8-0.1,2.5-0.1c0.9,0,1.6,0.1,2.3,0.3c0.6,0.2,1.2,0.4,1.6,0.7c0.4,0.3,0.7,0.7,0.9,1.1c0.2,0.4,0.3,0.9,0.3,1.3
		c0,0.3,0,0.7-0.1,1c-0.1,0.4-0.2,0.7-0.4,1c-0.2,0.3-0.5,0.7-0.8,1c-0.3,0.3-0.8,0.6-1.4,0.8c0.7,0.3,1.1,0.7,1.5,1.2
		c0.3,0.5,0.5,1.1,0.5,1.7c0,0.7-0.1,1.4-0.4,2c-0.3,0.7-0.7,1.2-1.3,1.7C55.8,19.3,55,19.7,54,20C53,20.3,51.9,20.5,50.4,20.5z
		 M50.1,13.6l-0.9,4c0.2,0,0.5,0.1,0.9,0.1c0.4,0,0.7,0,1,0c0.4,0,0.9,0,1.3-0.1c0.4-0.1,0.8-0.2,1.2-0.4c0.3-0.2,0.6-0.4,0.8-0.7
		c0.2-0.3,0.3-0.7,0.3-1.2c0-0.2,0-0.4-0.1-0.6c-0.1-0.2-0.2-0.4-0.4-0.5c-0.2-0.2-0.4-0.3-0.7-0.4c-0.3-0.1-0.6-0.2-1-0.2H50.1z
		 M50.8,11.1h2.2c0.9,0,1.5-0.2,2-0.6c0.4-0.4,0.6-0.8,0.6-1.4c0-0.3-0.1-0.5-0.2-0.7c-0.1-0.2-0.3-0.4-0.5-0.5
		c-0.2-0.1-0.4-0.2-0.7-0.3c-0.3-0.1-0.5-0.1-0.8-0.1c-0.3,0-0.6,0-1,0c-0.4,0-0.6,0-0.8,0.1L50.8,11.1z"/>
	<path id="XMLID_782_" class="st0" d="M64.2,5.1h3.4l-1.2,5.1c0.1,0,0.3,0,0.6,0c0.3,0,0.5,0,0.6,0c1.1,0,2.1,0.1,2.8,0.4
		c0.7,0.3,1.3,0.6,1.7,1c0.4,0.4,0.7,0.9,0.8,1.5c0.1,0.6,0.2,1.1,0.2,1.7c0,0.7-0.1,1.4-0.4,2.1c-0.3,0.7-0.7,1.3-1.3,1.8
		s-1.4,1-2.5,1.3c-1,0.3-2.3,0.5-3.8,0.5c-0.8,0-1.6-0.1-2.4-0.2c-0.8-0.1-1.5-0.2-2.2-0.4L64.2,5.1z M64.6,17.5
		c0.2,0,0.4,0.1,0.6,0.1c0.2,0,0.5,0,0.7,0c0.7,0,1.3-0.1,1.7-0.2c0.5-0.2,0.8-0.4,1.1-0.6c0.3-0.3,0.5-0.5,0.6-0.9
		c0.1-0.3,0.2-0.6,0.2-1c0-0.3,0-0.5-0.1-0.8c-0.1-0.2-0.2-0.5-0.4-0.6c-0.2-0.2-0.5-0.3-0.8-0.5C68,13,67.5,12.9,67,12.9
		c-0.1,0-0.2,0-0.5,0c-0.3,0-0.5,0-0.8,0.1L64.6,17.5z M77.2,20.3h-3.3l3.6-15.2h3.3L77.2,20.3z"/>
	<path id="XMLID_786_" class="st0" d="M81.7,20.3l3.6-15.2h3.4l-2.2,9c0.7-0.8,1.4-1.6,2.2-2.4c0.7-0.8,1.5-1.6,2.2-2.4
		c0.7-0.8,1.5-1.5,2.2-2.2c0.7-0.7,1.4-1.4,2.1-1.9H98l-3.7,15.2h-3.4l2.4-10c-0.8,0.9-1.6,1.7-2.4,2.6c-0.8,0.8-1.5,1.6-2.2,2.5
		c-0.7,0.8-1.4,1.6-2.1,2.4c-0.7,0.8-1.4,1.7-2.1,2.5H81.7z M92,3.7c-0.5,0-0.9-0.1-1.3-0.2c-0.4-0.1-0.7-0.3-1-0.6
		c-0.3-0.3-0.5-0.6-0.7-1c-0.2-0.4-0.3-0.8-0.3-1.3L91.1,0c0,0.6,0.1,0.9,0.4,1.2c0.2,0.2,0.6,0.3,0.9,0.3c0.4,0,0.7-0.1,1-0.3
		C93.7,1,94,0.6,94.2,0l2.1,0.7c-0.4,1-0.9,1.8-1.6,2.3C93.9,3.5,93.1,3.7,92,3.7z"/>
	<path id="XMLID_789_" class="st0" d="M110,20.5c-0.9,0-1.8,0-2.7-0.1c-0.9-0.1-1.8-0.2-2.5-0.4l3.5-14.7C109.2,5.1,110,5,111,5
		c0.9-0.1,1.8-0.1,2.5-0.1c0.9,0,1.6,0.1,2.3,0.3c0.6,0.2,1.2,0.4,1.6,0.7c0.4,0.3,0.7,0.7,0.9,1.1c0.2,0.4,0.3,0.9,0.3,1.3
		c0,0.3,0,0.7-0.1,1c-0.1,0.4-0.2,0.7-0.4,1c-0.2,0.3-0.5,0.7-0.8,1c-0.3,0.3-0.8,0.6-1.4,0.8c0.7,0.3,1.1,0.7,1.5,1.2
		c0.3,0.5,0.5,1.1,0.5,1.7c0,0.7-0.1,1.4-0.4,2c-0.3,0.7-0.7,1.2-1.3,1.7c-0.6,0.5-1.4,0.9-2.4,1.2C112.6,20.3,111.4,20.5,110,20.5z
		 M109.7,13.6l-0.9,4c0.2,0,0.5,0.1,0.9,0.1c0.4,0,0.7,0,1,0c0.4,0,0.9,0,1.3-0.1c0.4-0.1,0.8-0.2,1.2-0.4c0.3-0.2,0.6-0.4,0.8-0.7
		c0.2-0.3,0.3-0.7,0.3-1.2c0-0.2,0-0.4-0.1-0.6c-0.1-0.2-0.2-0.4-0.4-0.5c-0.2-0.2-0.4-0.3-0.7-0.4c-0.3-0.1-0.6-0.2-1-0.2H109.7z
		 M110.3,11.1h2.2c0.9,0,1.5-0.2,2-0.6c0.4-0.4,0.6-0.8,0.6-1.4c0-0.3-0.1-0.5-0.2-0.7c-0.1-0.2-0.3-0.4-0.5-0.5
		c-0.2-0.1-0.4-0.2-0.7-0.3c-0.3-0.1-0.5-0.1-0.8-0.1c-0.3,0-0.6,0-1,0c-0.4,0-0.6,0-0.8,0.1L110.3,11.1z"/>
	<path id="XMLID_793_" class="st0" d="M128.7,17.7c0.4,0,0.9-0.1,1.3-0.3c0.4-0.2,0.8-0.4,1.2-0.8l0.4-0.4c-0.3-0.9-0.6-1.8-0.9-2.7
		c-0.3-1-0.6-1.9-0.8-2.9c-0.3-1-0.5-1.9-0.7-2.8c-0.2-0.9-0.4-1.8-0.5-2.6h3.8c0.1,1.2,0.3,2.5,0.6,3.8c0.2,1.3,0.5,2.7,0.9,4
		c0.6-1,1.3-2.2,1.9-3.5c0.7-1.3,1.4-2.7,2.3-4.3h3.7c-1.3,2.4-2.6,4.6-3.9,6.7c-1.3,2.1-2.4,3.9-3.5,5.4c-0.7,1-1.6,1.8-2.5,2.5
		c-0.9,0.6-2,0.9-3.3,0.9c-0.9,0-1.8-0.2-2.6-0.6l1.1-2.7C127.6,17.5,128.1,17.7,128.7,17.7z"/>
	<path id="XMLID_795_" class="st0" d="M150,20.3c-0.2-0.5-0.5-1-0.7-1.6c-0.3-0.6-0.6-1.1-0.9-1.7c-0.3-0.6-0.7-1.1-1.1-1.6
		c-0.4-0.5-0.8-1-1.2-1.4l-1.6,6.4H141l3.6-15.2h3.4l-1.3,5.5c1.1-1,2.2-1.9,3.2-2.8c1-0.9,2-1.8,2.8-2.7h4.1
		c-1.3,1.2-2.7,2.5-4,3.7c-1.3,1.2-2.7,2.4-4.1,3.6c0.9,1,1.8,2.2,2.7,3.5c0.9,1.3,1.6,2.8,2.3,4.5H150z"/>
	<path id="XMLID_797_" class="st0" d="M164.3,4.9c0.9,0,1.8,0.1,2.5,0.3c0.7,0.2,1.4,0.5,1.9,0.9c0.5,0.4,0.9,0.8,1.2,1.4
		c0.3,0.5,0.4,1.2,0.4,1.8c0,1.1-0.2,2-0.6,2.8c-0.4,0.8-1,1.4-1.8,1.8c-0.7,0.5-1.6,0.8-2.6,1c-1,0.2-2.1,0.3-3.3,0.3h-0.9
		l-1.2,5.1h-3.4l3.6-15c0.8-0.1,1.5-0.2,2.3-0.3C163,4.9,163.7,4.9,164.3,4.9z M164,7.8c-0.2,0-0.5,0-0.6,0c-0.2,0-0.4,0-0.5,0
		l-1.1,4.5h0.9c0.6,0,1.2,0,1.7-0.1c0.5-0.1,0.9-0.3,1.3-0.5c0.4-0.2,0.6-0.5,0.8-0.8c0.2-0.3,0.3-0.8,0.3-1.3
		c0-0.7-0.2-1.1-0.7-1.4C165.6,7.9,164.9,7.8,164,7.8z"/>
	<path id="XMLID_800_" class="st0" d="M179.9,20.3c0-0.6-0.1-1.1-0.1-1.7c0-0.5-0.1-1.1-0.1-1.6h-5.7c-0.3,0.5-0.6,1.1-0.9,1.6
		c-0.3,0.5-0.6,1.1-0.9,1.7h-3.6c1-1.6,1.8-3.2,2.7-4.5c0.8-1.4,1.6-2.7,2.4-3.9c0.8-1.2,1.5-2.4,2.3-3.5c0.7-1.1,1.5-2.2,2.2-3.2
		h3.1c0.2,1.1,0.5,2.2,0.7,3.5c0.2,1.3,0.4,2.6,0.6,3.9c0.2,1.3,0.4,2.7,0.5,4c0.2,1.3,0.3,2.6,0.4,3.8H179.9z M178.9,8.4
		c-0.6,1-1.2,2-1.8,2.9c-0.6,1-1.2,2-1.7,3h4.1c-0.1-0.9-0.1-1.8-0.2-2.9C179.1,10.4,179,9.4,178.9,8.4z"/>
	<path id="XMLID_803_" class="st0" d="M186.4,20.3L190,5.1h3.4l-2.2,9c0.7-0.8,1.4-1.6,2.2-2.4c0.7-0.8,1.5-1.6,2.2-2.4
		c0.7-0.8,1.5-1.5,2.2-2.2c0.7-0.7,1.4-1.4,2.1-1.9h2.8L199,20.3h-3.4l2.4-10c-0.8,0.9-1.6,1.7-2.4,2.6c-0.8,0.8-1.5,1.6-2.2,2.5
		c-0.7,0.8-1.4,1.6-2.1,2.4c-0.7,0.8-1.4,1.7-2.1,2.5H186.4z"/>
	<path id="XMLID_805_" class="st0" d="M215.8,5.1h3.4l-3.7,15.2h-3.4l1.6-6.5h-5.4l-1.6,6.5h-3.4L207,5.1h3.4l-1.4,5.8h5.4
		L215.8,5.1z"/>
	<path id="XMLID_807_" class="st0" d="M219.9,20.3l3.6-15.2h10l-0.7,2.8h-6.5l-0.7,3.1h5.8l-0.7,2.8h-5.8l-0.9,3.7h7l-0.7,2.8H219.9
		z"/>
</g>
<g id="XMLID_744_">
	<path id="XMLID_745_" class="st0" d="M188.7,33.2l-1,4.4h-11.3l-8,33.2h-5.3l8-33.2h-11.3l1-4.4H188.7z"/>
	<path id="XMLID_747_" class="st0" d="M204.9,32.9c4.4,0,7.7,0.8,9.9,2.5c2.2,1.7,3.3,4.1,3.3,7.3c0,2.5-0.5,4.6-1.4,6.4
		c-0.9,1.8-2.2,3.3-3.9,4.4c-1.7,1.2-3.7,2-6.1,2.6c-2.4,0.6-5,0.8-8,0.8H195l-3.4,14h-5.3l8.9-37.1c1.5-0.4,3.1-0.6,4.8-0.7
		C201.8,32.9,203.4,32.9,204.9,32.9z M204.3,37.3c-2.6,0-4.1,0.1-4.7,0.2L196,52.4h3.4c1.5,0,3.1-0.1,4.7-0.4c1.6-0.3,3-0.7,4.3-1.4
		c1.3-0.7,2.3-1.6,3.1-2.8c0.8-1.2,1.2-2.8,1.2-4.7c0-2.1-0.8-3.5-2.3-4.4C208.9,37.8,206.9,37.3,204.3,37.3z"/>
	<path id="XMLID_750_" class="st0" d="M219.5,70.8l9-37.6h22.2l-1,4.4h-17L229.9,49H245l-1,4.3h-15l-3.2,13.2H244l-1,4.4H219.5z"/>
	<path id="XMLID_752_" class="st0" d="M278.7,70.8h-5.3l4.2-17.5h-17.4L256,70.8h-5.3l9-37.6h5.3L261.3,49h17.4l3.8-15.7h5.3
		L278.7,70.8z"/>
	<path id="XMLID_754_" class="st0" d="M290.3,66.4c2.1-1.8,3.8-3.9,5.3-6c1.5-2.2,2.7-4.6,3.9-7.3c1.1-2.7,2.1-5.7,2.9-8.9
		c0.8-3.3,1.7-6.9,2.5-10.9h20.8l-7.9,33.2h4.7l-3.5,14.4H314l2.4-10h-26.3l-2.4,10H283l3.5-14.4H290.3z M309.1,37.7
		c-0.5,2.2-1.1,4.7-1.8,7.4c-0.7,2.7-1.6,5.3-2.6,7.9c-1,2.6-2.1,5.1-3.4,7.5c-1.3,2.4-2.8,4.3-4.4,5.9h15.7l6.9-28.7H309.1z"/>
	<path id="XMLID_757_" class="st0" d="M343.9,71.7c-2.4,0-4.4-0.3-6.2-1c-1.8-0.7-3.3-1.7-4.5-2.9c-1.2-1.3-2.1-2.8-2.7-4.6
		c-0.6-1.8-0.9-3.8-0.9-6c0-3.3,0.5-6.4,1.5-9.3c1-3,2.5-5.6,4.4-7.9c1.9-2.3,4.2-4.1,6.9-5.5c2.7-1.4,5.7-2,9-2
		c2.8,0,5.1,0.3,6.8,0.9c1.7,0.6,2.9,1.1,3.6,1.6l-2.2,4.3c-0.8-0.5-2-1.1-3.4-1.5c-1.4-0.5-3.1-0.7-5.1-0.7c-2.5,0-4.7,0.6-6.7,1.8
		c-2,1.2-3.7,2.7-5,4.6c-1.4,1.9-2.4,4-3.1,6.3c-0.7,2.3-1.1,4.6-1.1,6.9c0,7.1,3.1,10.6,9.2,10.6c1.3,0,2.5-0.1,3.5-0.3
		c1-0.2,1.9-0.4,2.7-0.6c0.8-0.2,1.5-0.5,2.1-0.8c0.6-0.3,1.2-0.5,1.6-0.8l0.7,4.6c-0.4,0.3-1,0.5-1.7,0.8c-0.7,0.3-1.5,0.6-2.5,0.8
		c-0.9,0.3-2,0.5-3.1,0.6C346.4,71.6,345.2,71.7,343.9,71.7z"/>
	<path id="XMLID_759_" class="st0" d="M360.9,70.8l9-37.6h22.2l-1,4.4h-17L371.4,49h15.1l-1,4.3h-15l-3.2,13.2h18.2l-1,4.4H360.9z"
		/>
	<path id="XMLID_761_" class="st0" d="M425.8,33.2l-1,4.4h-11.3l-8,33.2h-5.3l8-33.2h-11.3l1-4.4H425.8z"/>
	<path id="XMLID_763_" class="st0" d="M457.9,33.2l-1,4.4h-11.3l-8,33.2h-5.3l8-33.2H429l1-4.4H457.9z"/>
	<path id="XMLID_765_" class="st0" d="M455.6,70.8l9-37.6h22.2l-1,4.4h-17L466.1,49h15.1l-1,4.3h-15l-3.2,13.2h18.2l-1,4.4H455.6z"
		/>
	<path id="XMLID_767_" class="st0" d="M505.5,32.9c4.4,0,7.7,0.8,9.9,2.5c2.2,1.7,3.3,4.1,3.3,7.3c0,2.5-0.5,4.6-1.4,6.4
		c-0.9,1.8-2.2,3.3-3.9,4.4c-1.7,1.2-3.7,2-6.1,2.6c-2.4,0.6-5,0.8-8,0.8h-3.7l-3.4,14h-5.3l8.9-37.1c1.5-0.4,3.1-0.6,4.8-0.7
		C502.3,32.9,503.9,32.9,505.5,32.9z M504.8,37.3c-2.6,0-4.1,0.1-4.7,0.2l-3.6,14.9h3.4c1.5,0,3.1-0.1,4.7-0.4
		c1.6-0.3,3-0.7,4.3-1.4c1.3-0.7,2.3-1.6,3.1-2.8c0.8-1.2,1.2-2.8,1.2-4.7c0-2.1-0.8-3.5-2.3-4.4C509.5,37.8,507.4,37.3,504.8,37.3z
		"/>
</g>
<g id="XMLID_726_">
	<path id="XMLID_727_" class="st0" d="M97.5,83.9h5.2l-1,4.4c1.9,0.1,3.7,0.4,5.4,1c1.7,0.6,3.1,1.4,4.4,2.4c1.2,1,2.2,2.3,3,3.8
		c0.7,1.5,1.1,3.2,1.1,5.1c0,3.1-0.6,5.8-1.8,8.2c-1.2,2.4-2.8,4.4-4.8,6c-2,1.6-4.3,2.9-6.9,3.7c-2.6,0.8-5.2,1.3-8,1.3l-1.1,4.6
		h-5.2l1.1-4.6c-1.9-0.1-3.7-0.4-5.4-1c-1.7-0.6-3.2-1.4-4.4-2.4c-1.2-1-2.2-2.3-3-3.8c-0.7-1.5-1.1-3.2-1.1-5.1
		c0-3.1,0.6-5.8,1.8-8.2c1.2-2.4,2.8-4.4,4.8-6c2-1.6,4.3-2.8,6.9-3.7c2.6-0.9,5.2-1.3,8-1.3L97.5,83.9z M95.4,92.7
		c-2.1,0.1-4,0.5-5.8,1.2c-1.8,0.7-3.4,1.7-4.8,2.9c-1.4,1.2-2.4,2.7-3.2,4.4c-0.8,1.7-1.2,3.6-1.2,5.7c0,1.4,0.2,2.7,0.7,3.7
		c0.5,1.1,1.1,1.9,2,2.6c0.8,0.7,1.8,1.2,3,1.6c1.2,0.4,2.4,0.6,3.8,0.6L95.4,92.7z M95.1,115.5c2.1-0.1,4-0.5,5.8-1.2
		c1.8-0.7,3.4-1.7,4.8-2.9c1.4-1.2,2.4-2.7,3.2-4.4c0.8-1.7,1.2-3.6,1.2-5.7c0-1.5-0.2-2.7-0.7-3.8c-0.5-1-1.1-1.9-2-2.6
		c-0.8-0.7-1.8-1.2-3-1.6c-1.2-0.3-2.4-0.6-3.8-0.6L95.1,115.5z"/>
	<path id="XMLID_731_" class="st0" d="M118.9,124.5l9.2-38.1h5.2l-6.9,28.5c1.5-1.9,3.4-4.1,5.6-6.6c2.2-2.5,4.5-5.1,6.9-7.7
		c2.4-2.6,4.8-5.2,7.3-7.7c2.4-2.5,4.7-4.6,6.7-6.4h4.6l-9.2,38.1H143l7.1-29.6c-1.9,1.8-4,4-6.3,6.5c-2.4,2.5-4.8,5.2-7.2,7.9
		c-2.4,2.7-4.8,5.4-7,8.1c-2.3,2.7-4.2,5-5.8,7.1H118.9z"/>
	<path id="XMLID_733_" class="st0" d="M192.4,86.4l-1,4.4h-11.5l-8.1,33.6h-5.3l8.1-33.6h-11.5l1-4.4H192.4z"/>
	<path id="XMLID_735_" class="st0" d="M218.4,124.5H213l4.2-17.7h-17.6l-4.2,17.7h-5.3l9.1-38.1h5.3l-3.8,15.9h17.6l3.8-15.9h5.3
		L218.4,124.5z"/>
	<path id="XMLID_737_" class="st0" d="M228.6,124.5l9.1-38.1h22.5l-1,4.4h-17.2l-2.7,11.5h15.3l-1,4.3h-15.2l-3.2,13.4h18.5l-1,4.5
		H228.6z"/>
	<path id="XMLID_739_" class="st0" d="M277.1,125.3c-2.4,0-4.5-0.3-6.3-1c-1.8-0.7-3.3-1.7-4.5-3c-1.2-1.3-2.1-2.8-2.7-4.6
		c-0.6-1.8-0.9-3.9-0.9-6.1c0-3.3,0.5-6.4,1.6-9.4c1-3,2.5-5.7,4.5-8c1.9-2.3,4.2-4.1,7-5.5c2.7-1.4,5.7-2.1,9.1-2.1
		c2.9,0,5.1,0.3,6.8,0.9c1.7,0.6,2.9,1.1,3.7,1.6l-2.2,4.4c-0.8-0.5-2-1.1-3.4-1.6c-1.4-0.5-3.2-0.7-5.1-0.7c-2.5,0-4.8,0.6-6.8,1.8
		c-2,1.2-3.7,2.7-5.1,4.6c-1.4,1.9-2.5,4-3.2,6.4c-0.7,2.4-1.1,4.7-1.1,7c0,7.1,3.1,10.7,9.3,10.7c1.3,0,2.5-0.1,3.5-0.3
		c1-0.2,2-0.4,2.8-0.6c0.8-0.2,1.5-0.5,2.1-0.8c0.6-0.3,1.2-0.5,1.6-0.8l0.7,4.6c-0.4,0.3-1,0.5-1.7,0.8c-0.7,0.3-1.5,0.6-2.5,0.8
		c-1,0.3-2,0.5-3.2,0.6C279.6,125.2,278.4,125.3,277.1,125.3z"/>
	<path id="XMLID_741_" class="st0" d="M302.6,114.7l-5.4,9.8h-5.8c4.1-7.4,8.1-14.2,12-20.4c3.9-6.2,7.8-12.1,11.6-17.6h5.2
		c0.6,2.7,1.1,5.5,1.5,8.3c0.5,2.8,0.9,5.7,1.3,8.8c0.4,3.1,0.9,6.3,1.3,9.8c0.4,3.4,0.8,7.2,1.3,11.2h-5.4c-0.2-1.6-0.3-3.3-0.5-5
		c-0.1-1.7-0.3-3.3-0.5-4.8H302.6z M318.7,110.4c-0.3-3-0.6-5.9-1-8.8c-0.4-2.9-0.8-6-1.3-9.1c-1.3,1.9-2.9,4.3-4.8,7.2
		c-1.9,2.9-4.1,6.5-6.5,10.7H318.7z"/>
</g>
<g>
	<g id="XMLID_723_">
		<path id="XMLID_724_" class="st1" d="M132.7,174.8c-0.8,0.4-1.7,0.7-2.7,0.9c-1,0.2-2.2,0.4-3.6,0.4c-1.2,0-2.3-0.2-3.4-0.6
			c-1-0.4-1.9-1-2.6-1.7c-0.7-0.7-1.3-1.7-1.7-2.7c-0.4-1.1-0.6-2.3-0.6-3.6c0-1.5,0.3-3.1,0.8-4.6c0.5-1.5,1.3-2.9,2.4-4.1
			c1.1-1.2,2.3-2.2,3.9-2.9c1.5-0.7,3.3-1.1,5.3-1.1c0.9,0,1.9,0.1,2.8,0.3c0.9,0.2,1.9,0.6,2.9,1.2l-1.7,3.6
			c-0.8-0.4-1.6-0.7-2.2-0.9c-0.7-0.2-1.4-0.2-2.1-0.2c-1.1,0-2.1,0.2-3,0.7c-0.9,0.5-1.7,1.1-2.3,1.8c-0.6,0.8-1.1,1.7-1.5,2.7
			c-0.3,1-0.5,2.1-0.5,3.3c0,1.7,0.4,3,1.1,3.8c0.8,0.8,1.8,1.2,3.3,1.2c0.9,0,1.8-0.1,2.6-0.3c0.8-0.2,1.5-0.5,2.2-0.8L132.7,174.8
			z"/>
	</g>
	<g id="XMLID_713_">
		<path id="XMLID_714_" class="st1" d="M196.6,226.4l-1.5,6.4h-43.5c0.9-5.6,2.7-10.5,5.3-14.6c2.7-4.1,5.7-7.8,9.2-10.9
			c3.4-3.1,7.1-6,10.8-8.7c3.8-2.6,7.3-5.2,10.4-7.9c3.1-2.6,5.8-5.4,7.8-8.4c2.1-3,3.1-6.5,3.1-10.6c0-4.2-1.1-7.2-3.4-9.1
			c-2.3-1.9-5-2.8-8.3-2.8c-3.1,0-6.4,0.7-9.7,2c-3.3,1.3-6.1,3-8.5,5l-2.5-6.1c2.8-2.3,6.2-4.2,10.2-5.5c3.9-1.3,7.8-2,11.6-2
			c2.5,0,4.8,0.3,7,1c2.2,0.7,4.2,1.7,5.8,3.1c1.7,1.4,3,3.3,4,5.5c1,2.2,1.5,4.9,1.5,8c0,3.5-0.7,6.7-2,9.6c-1.3,2.9-3,5.6-5.1,8
			c-2.1,2.5-4.4,4.8-7,6.9c-2.6,2.1-5.3,4.2-8,6.1c-3.3,2.5-6.3,4.7-9,6.8c-2.7,2.1-5,4.1-7,6c-2,1.9-3.6,3.9-4.9,5.8
			c-1.3,1.9-2.2,4-2.7,6.2H196.6z"/>
		<path id="XMLID_716_" class="st1" d="M238.8,153.1c6.3,0.1,10.8,2.2,13.4,6.5c2.7,4.3,4,9.9,4,17c0,6.6-0.8,13.3-2.5,20.2
			c-1.7,6.9-4.1,13.1-7.1,18.7c-3.1,5.6-6.8,10.2-11.1,13.7c-4.3,3.6-9.1,5.3-14.3,5.3c-3.1,0-5.8-0.6-8.1-1.7
			c-2.2-1.1-4.1-2.7-5.5-4.8c-1.4-2.1-2.4-4.5-3-7.4c-0.6-2.9-1-6.1-1-9.6c0-4.4,0.4-8.9,1.1-13.5c0.7-4.6,1.8-9,3.3-13.3
			c1.4-4.3,3.2-8.3,5.3-12.1c2.1-3.8,4.4-7.1,7-9.9c2.6-2.8,5.4-5,8.5-6.7C232,154,235.3,153.1,238.8,153.1z M221.7,227.8
			c3.7,0,7.1-1.5,10.4-4.4c3.3-2.9,6.1-6.8,8.5-11.5c2.4-4.8,4.4-10.1,5.8-16.1c1.4-6,2.1-12,2.1-18.1c0-6.2-0.9-10.7-2.6-13.5
			c-1.8-2.8-4.4-4.2-7.8-4.2c-3.7,0-7.1,1.5-10.4,4.4c-3.3,2.9-6.1,6.8-8.5,11.5c-2.4,4.8-4.4,10.1-5.8,16.1c-1.4,6-2.1,12-2.1,18.1
			c0,6.2,0.9,10.7,2.6,13.5C215.7,226.4,218.3,227.8,221.7,227.8z"/>
		<path id="XMLID_719_" class="st1" d="M283.7,166.3c-2.4,2.4-5.4,4.6-9,6.5c-3.6,2-7.3,3.5-11.2,4.7l-1.4-6.5
			c4.4-1.6,8.7-3.6,13.1-6.1c4.4-2.5,8.7-5.8,12.9-10h5.4l-18.7,77.9h-7.2L283.7,166.3z"/>
		<path id="XMLID_721_" class="st1" d="M332.8,226.4l-1.5,6.4h-43.5c0.9-5.6,2.7-10.5,5.3-14.6c2.7-4.1,5.7-7.8,9.2-10.9
			c3.4-3.1,7.1-6,10.8-8.7c3.8-2.6,7.3-5.2,10.4-7.9c3.1-2.6,5.8-5.4,7.8-8.4c2.1-3,3.1-6.5,3.1-10.6c0-4.2-1.1-7.2-3.4-9.1
			c-2.3-1.9-5-2.8-8.3-2.8c-3.1,0-6.4,0.7-9.7,2c-3.3,1.3-6.1,3-8.5,5l-2.5-6.1c2.8-2.3,6.2-4.2,10.2-5.5c3.9-1.3,7.8-2,11.6-2
			c2.5,0,4.8,0.3,7,1c2.2,0.7,4.2,1.7,5.8,3.1c1.7,1.4,3,3.3,4,5.5c1,2.2,1.5,4.9,1.5,8c0,3.5-0.7,6.7-2,9.6c-1.3,2.9-3,5.6-5.1,8
			c-2.1,2.5-4.4,4.8-7,6.9c-2.6,2.1-5.3,4.2-8,6.1c-3.3,2.5-6.3,4.7-9,6.8c-2.7,2.1-5,4.1-7,6c-2,1.9-3.6,3.9-4.9,5.8
			c-1.3,1.9-2.2,4-2.7,6.2H332.8z"/>
	</g>
	<g id="XMLID_701_">
		<path id="XMLID_702_" class="st1" d="M365.3,229.3h-5l5.4-22.5h14.1l-1,4.3h-9L365.3,229.3z"/>
		<path id="XMLID_704_" class="st1" d="M389.8,229.8c-1.3,0-2.5-0.2-3.6-0.6c-1.1-0.4-2.1-1.1-2.9-1.9c-0.8-0.8-1.4-1.8-1.9-3
			c-0.4-1.2-0.7-2.5-0.7-4c0-1.7,0.3-3.4,0.9-5c0.6-1.7,1.4-3.2,2.5-4.5c1.1-1.3,2.4-2.4,4-3.2c1.6-0.8,3.4-1.3,5.4-1.3
			c1.3,0,2.5,0.2,3.6,0.6c1.1,0.4,2.1,1.1,2.9,1.9c0.8,0.8,1.4,1.8,1.9,3c0.4,1.2,0.7,2.5,0.7,4c0,1.7-0.3,3.4-0.9,5.1
			c-0.6,1.7-1.4,3.2-2.5,4.5c-1.1,1.3-2.4,2.4-4,3.2C393.6,229.4,391.8,229.8,389.8,229.8z M393,210.7c-1,0-1.9,0.3-2.8,0.8
			c-0.9,0.5-1.6,1.2-2.2,2.1c-0.6,0.9-1.1,1.9-1.5,3c-0.4,1.1-0.5,2.3-0.5,3.5c0,1.6,0.3,2.9,1,3.9c0.7,1,1.8,1.5,3.3,1.5
			c1,0,1.9-0.3,2.8-0.8c0.9-0.5,1.6-1.2,2.2-2.1c0.6-0.9,1.1-1.9,1.5-3c0.4-1.1,0.5-2.3,0.5-3.5c0-1.6-0.3-2.9-1-3.9
			C395.7,211.2,394.6,210.7,393,210.7z"/>
		<path id="XMLID_707_" class="st1" d="M405.2,225h3c1-0.9,1.8-2,2.6-3.3c0.7-1.3,1.4-2.6,1.9-4c0.6-1.4,1-2.8,1.4-4.3
			c0.4-1.4,0.7-2.8,1-4l0.6-2.6h14.7L426,225h3.9l-2.5,10.3h-4.9l1.5-6h-15l-1.5,6h-4.8L405.2,225z M419.4,211.1
			c-0.4,1.5-0.7,2.8-1.1,4.1c-0.3,1.2-0.7,2.4-1.1,3.5c-0.4,1.1-0.9,2.2-1.4,3.2c-0.5,1-1.2,2.1-2,3.2h7.2l3.3-13.9H419.4z"/>
		<path id="XMLID_710_" class="st1" d="M450.1,229.3c0-0.8-0.1-1.7-0.1-2.5c-0.1-0.8-0.1-1.6-0.2-2.4h-8.4c-0.4,0.8-0.9,1.6-1.4,2.4
			c-0.5,0.8-0.9,1.6-1.4,2.5h-5.3c1.4-2.4,2.7-4.7,3.9-6.7c1.2-2.1,2.4-4,3.5-5.8c1.1-1.8,2.2-3.5,3.3-5.2c1.1-1.6,2.2-3.2,3.3-4.8
			h4.5c0.3,1.6,0.7,3.3,1,5.2c0.3,1.9,0.6,3.8,0.9,5.8c0.3,2,0.5,4,0.7,5.9c0.2,2,0.4,3.8,0.6,5.6H450.1z M448.6,211.8
			c-0.9,1.5-1.8,2.9-2.7,4.3c-0.9,1.4-1.7,2.9-2.6,4.4h6.1c-0.1-1.3-0.2-2.7-0.3-4.2C449,214.7,448.9,213.2,448.6,211.8z"/>
	</g>
</g>
<g id="XMLID_188_">
	<path id="XMLID_677_" class="st0" d="M210.4,280.2l5.3-22h4l-3.6,14.7c1-1.1,2-2.3,3.2-3.7c1.2-1.3,2.4-2.6,3.6-4
		c1.2-1.3,2.5-2.6,3.7-3.8c1.2-1.2,2.4-2.3,3.4-3.3h3.3l-5.3,22h-4l3.8-15.7c-1.1,1.2-2.3,2.4-3.6,3.7c-1.2,1.3-2.5,2.7-3.7,4
		c-1.2,1.4-2.4,2.7-3.5,4.1c-1.1,1.4-2.2,2.7-3.2,3.9H210.4z"/>
	<path id="XMLID_679_" class="st0" d="M276.7,258.2l-5.3,22h-4l4.5-18.6h-8.8l-4.5,18.6h-4l5.3-22H276.7z"/>
	<path id="XMLID_681_" class="st0" d="M293.3,280.6c-1.2,0-2.4-0.2-3.4-0.6c-1-0.4-1.9-1-2.7-1.7c-0.8-0.7-1.3-1.7-1.7-2.8
		c-0.4-1.1-0.6-2.4-0.6-3.8c0-1.7,0.3-3.4,0.8-5.1c0.5-1.7,1.4-3.2,2.4-4.6c1.1-1.3,2.4-2.4,4-3.3c1.6-0.8,3.4-1.3,5.4-1.3
		c1.2,0,2.4,0.2,3.4,0.6c1,0.4,1.9,1,2.7,1.7c0.7,0.7,1.3,1.7,1.7,2.8c0.4,1.1,0.6,2.4,0.6,3.8c0,1.7-0.3,3.4-0.8,5.1
		c-0.6,1.7-1.4,3.2-2.4,4.6c-1.1,1.3-2.4,2.4-4,3.3C297.1,280.2,295.3,280.6,293.3,280.6z M297.1,261.1c-1.2,0-2.3,0.3-3.3,0.9
		c-1,0.6-1.8,1.4-2.5,2.4c-0.7,1-1.2,2.1-1.6,3.3c-0.4,1.2-0.6,2.5-0.6,3.8c0,1.7,0.4,3.1,1.1,4.2c0.7,1,1.9,1.6,3.6,1.6
		c1.2,0,2.3-0.3,3.3-0.9c1-0.6,1.8-1.4,2.5-2.4c0.7-1,1.2-2.1,1.6-3.3c0.4-1.2,0.6-2.5,0.6-3.8c0-1.7-0.4-3.1-1.1-4.2
		C299.9,261.6,298.7,261.1,297.1,261.1z"/>
	<path id="XMLID_684_" class="st0" d="M345.1,279.2c-0.7,0.4-1.6,0.7-2.7,1c-1.1,0.3-2.4,0.4-3.9,0.4c-1.4,0-2.6-0.2-3.6-0.6
		c-1.1-0.4-2-1-2.7-1.8c-0.7-0.8-1.3-1.7-1.7-2.8c-0.4-1.1-0.6-2.3-0.6-3.7c0-1.8,0.3-3.5,0.9-5.2c0.6-1.7,1.4-3.2,2.6-4.5
		c1.1-1.3,2.5-2.4,4.1-3.2c1.6-0.8,3.4-1.2,5.5-1.2c1.3,0,2.5,0.1,3.5,0.4c1,0.3,1.8,0.7,2.6,1.1l-1.5,3.2c-0.7-0.4-1.4-0.7-2.2-0.9
		c-0.8-0.2-1.6-0.3-2.6-0.3c-1.3,0-2.5,0.3-3.6,0.9c-1.1,0.6-2,1.4-2.7,2.3c-0.8,1-1.3,2.1-1.7,3.3c-0.4,1.2-0.6,2.5-0.6,3.7
		c0,2,0.4,3.4,1.3,4.4c0.9,0.9,2.1,1.4,3.8,1.4c1.3,0,2.3-0.1,3.2-0.4c0.9-0.3,1.7-0.6,2.3-0.9L345.1,279.2z"/>
	<path id="XMLID_686_" class="st0" d="M354.8,280.2l5.3-22h13.7l-0.8,3.3h-9.7l-1.3,5.5h8.6l-0.8,3.3h-8.5l-1.6,6.5H370l-0.8,3.3
		H354.8z"/>
	<path id="XMLID_688_" class="st0" d="M379.9,280.2l5.3-22h4l-3.6,14.7c1-1.1,2-2.3,3.2-3.7c1.2-1.3,2.4-2.6,3.6-4
		c1.2-1.3,2.5-2.6,3.7-3.8c1.2-1.2,2.4-2.3,3.4-3.3h3.3l-5.3,22h-4l3.8-15.7c-1.1,1.2-2.3,2.4-3.6,3.7c-1.2,1.3-2.5,2.7-3.7,4
		c-1.2,1.4-2.4,2.7-3.5,4.1c-1.1,1.4-2.2,2.7-3.2,3.9H379.9z M394.6,256.1c-1.3,0-2.3-0.4-3.1-1.1c-0.8-0.7-1.3-1.7-1.3-3.1l2.8-0.7
		c0,0.7,0.2,1.3,0.5,1.7c0.3,0.4,0.8,0.6,1.5,0.6c1.2,0,2.2-0.8,2.9-2.3l2.6,0.9c-0.5,1.3-1.2,2.3-2.2,3
		C397.2,255.8,396,256.1,394.6,256.1z"/>
	<path id="XMLID_691_" class="st0" d="M422.6,276.8h2.6c1.2-1.1,2.2-2.4,3-3.8c0.8-1.4,1.6-2.9,2.2-4.5c0.6-1.6,1.1-3.3,1.6-5
		c0.4-1.7,0.8-3.5,1.2-5.3h13.3l-4.5,18.6h3.3L443,286h-3.8l1.4-5.9h-15l-1.4,5.9h-3.8L422.6,276.8z M436.2,261.6
		c-0.3,1.4-0.7,2.8-1,4.1c-0.4,1.4-0.8,2.7-1.3,4c-0.5,1.3-1.1,2.6-1.7,3.7c-0.6,1.2-1.4,2.3-2.3,3.3h8.1l3.7-15.2H436.2z"/>
	<path id="XMLID_694_" class="st0" d="M453.9,280.2l5.3-22h13.7l-0.8,3.3h-9.7l-1.3,5.5h8.6l-0.8,3.3h-8.5l-1.6,6.5h10.4l-0.8,3.3
		H453.9z"/>
	<path id="XMLID_696_" class="st0" d="M497.4,258.2h4l-5.3,22h-4l2.4-9.8h-9l-2.4,9.8h-4l5.3-22h4l-2.1,8.8h9L497.4,258.2z"/>
	<path id="XMLID_698_" class="st0" d="M513.5,258.2h4l-1.8,7.7c0.3,0,0.7-0.1,1.1-0.1c0.4,0,0.8,0,1.1,0c1.5,0,2.7,0.2,3.7,0.5
		c1,0.3,1.8,0.7,2.4,1.3c0.6,0.6,1.1,1.2,1.3,2c0.3,0.8,0.4,1.6,0.4,2.5c0,1.2-0.2,2.4-0.7,3.4c-0.5,1-1.2,1.9-2.1,2.7
		c-0.9,0.8-2.1,1.3-3.5,1.7c-1.4,0.4-3,0.6-4.9,0.6c-1,0-2.1-0.1-3.2-0.2c-1.1-0.1-2.1-0.3-3-0.5L513.5,258.2z M513,276.9
		c0.2,0,0.6,0.1,1,0.1c0.4,0,0.9,0,1.4,0c2,0,3.5-0.4,4.7-1.2c1.1-0.8,1.7-2,1.7-3.6c0-1-0.4-1.8-1.1-2.3c-0.7-0.6-1.8-0.8-3.3-0.8
		c-0.4,0-0.9,0-1.3,0c-0.4,0-0.8,0-1.1,0.1L513,276.9z"/>
</g>
</svg>
