<?xml version="1.0" encoding="utf-8"?>
<!-- Generator: Adobe Illustrator 20.1.0, SVG Export Plug-In . SVG Version: 6.00 Build 0)  -->
<svg version="1.1" id="Слой_1" xmlns="http://www.w3.org/2000/svg" xmlns:xlink="http://www.w3.org/1999/xlink" x="0px" y="0px"
	 viewBox="0 0 324 159" style="enable-background:new 0 0 324 159;" xml:space="preserve">
<style type="text/css">
	.st0{fill:#FFFFFF;}
	.st1{fill:#E63B23;}
</style>
<g>
	<g>
		<path class="st0" d="M13.9,140.4l-0.3,2.3H8.5l-1.9,15.6H3.7l1.9-15.6H0.5l0.3-2.3H13.9z"/>
		<path class="st0" d="M19.7,151.8l-0.8,6.5h-2.8l2.2-18h5.3c1,0,1.8,0.1,2.6,0.4c0.7,0.2,1.3,0.6,1.8,1c0.5,0.4,0.8,0.9,1.1,1.5
			c0.2,0.6,0.3,1.2,0.3,2c0,1-0.2,1.8-0.5,2.6c-0.3,0.8-0.8,1.5-1.4,2.1c-0.6,0.6-1.4,1-2.2,1.4c-0.9,0.3-1.9,0.5-3.1,0.5H19.7z
			 M20.9,142.6l-0.9,7h2.4c0.7,0,1.3-0.1,1.8-0.3c0.5-0.2,0.9-0.5,1.3-0.8c0.3-0.4,0.6-0.8,0.8-1.3c0.2-0.5,0.3-1.1,0.3-1.7
			c0-0.9-0.3-1.6-0.8-2.1c-0.5-0.5-1.3-0.8-2.4-0.8H20.9z"/>
		<path class="st0" d="M45.2,140.4l-0.3,2.3h-7.6l-0.7,5.5h6.1l-0.3,2.2h-6l-0.7,5.7h7.6l-0.3,2.3H32.5l2.2-18H45.2z"/>
		<path class="st0" d="M61.9,158.3h-2.8l1-8h-8.2l-1,8H48l2.2-18h2.9l-1,7.9h8.2l1-7.9h2.9L61.9,158.3z"/>
		<path class="st0" d="M80.6,141.3c0.1-0.1,0.2-0.2,0.3-0.3c0.1-0.1,0.2-0.2,0.3-0.3c0.1-0.1,0.2-0.1,0.4-0.2c0.1,0,0.3-0.1,0.4-0.1
			h2.1l-2.2,18H79l1.5-11.8c0-0.4,0.1-0.8,0.2-1.2c0.1-0.4,0.2-0.9,0.3-1.3c-0.2,0.4-0.4,0.8-0.6,1.2c-0.2,0.4-0.4,0.7-0.6,0.9
			l-8.3,11.4c-0.1,0.1-0.2,0.2-0.3,0.3c-0.1,0.1-0.2,0.2-0.3,0.3c-0.1,0.1-0.2,0.2-0.4,0.2c-0.1,0.1-0.3,0.1-0.4,0.1H68l2.2-18H73
			l-1.5,11.8c-0.1,0.4-0.1,0.8-0.2,1.2c-0.1,0.4-0.2,0.9-0.3,1.3c0.2-0.4,0.4-0.8,0.6-1.2c0.2-0.4,0.4-0.7,0.6-0.9L80.6,141.3z"/>
		<path class="st0" d="M91.5,151.8l-0.8,6.5h-2.8l2.2-18h5.3c1,0,1.8,0.1,2.6,0.4c0.7,0.2,1.3,0.6,1.8,1c0.5,0.4,0.8,0.9,1,1.5
			c0.2,0.6,0.3,1.2,0.3,2c0,1-0.2,1.8-0.5,2.6c-0.3,0.8-0.8,1.5-1.4,2.1s-1.4,1-2.2,1.4c-0.9,0.3-1.9,0.5-3.1,0.5H91.5z M92.7,142.6
			l-0.9,7h2.4c0.7,0,1.3-0.1,1.8-0.3c0.5-0.2,0.9-0.5,1.3-0.8c0.3-0.4,0.6-0.8,0.8-1.3c0.2-0.5,0.3-1.1,0.3-1.7
			c0-0.9-0.3-1.6-0.8-2.1c-0.5-0.5-1.3-0.8-2.4-0.8H92.7z"/>
		<path class="st0" d="M121.3,148.1c0,1-0.1,2-0.3,2.9c-0.2,0.9-0.5,1.7-0.9,2.5c-0.4,0.8-0.9,1.5-1.5,2.1c-0.6,0.6-1.2,1.1-1.9,1.6
			c-0.7,0.4-1.5,0.8-2.3,1c-0.8,0.2-1.7,0.4-2.6,0.4c-1.1,0-2.2-0.2-3.1-0.6c-0.9-0.4-1.7-1-2.3-1.7c-0.6-0.7-1.1-1.5-1.5-2.5
			c-0.3-1-0.5-2-0.5-3.2c0-1,0.1-2,0.3-2.9c0.2-0.9,0.5-1.7,0.9-2.5c0.4-0.8,0.9-1.5,1.5-2.1c0.6-0.6,1.2-1.2,1.9-1.6
			c0.7-0.4,1.5-0.8,2.3-1c0.8-0.2,1.7-0.4,2.6-0.4c1.1,0,2.2,0.2,3.1,0.6c0.9,0.4,1.7,1,2.3,1.7c0.6,0.7,1.1,1.6,1.5,2.5
			C121.1,145.9,121.3,147,121.3,148.1z M118.4,148.2c0-0.9-0.1-1.6-0.3-2.3c-0.2-0.7-0.5-1.3-0.9-1.8c-0.4-0.5-0.9-0.9-1.5-1.1
			c-0.6-0.3-1.3-0.4-2-0.4c-0.9,0-1.8,0.2-2.6,0.6c-0.8,0.4-1.5,0.9-2,1.6c-0.6,0.7-1,1.5-1.3,2.5c-0.3,1-0.5,2.1-0.5,3.3
			c0,0.9,0.1,1.6,0.3,2.3c0.2,0.7,0.5,1.3,0.9,1.8c0.4,0.5,0.9,0.9,1.5,1.1c0.6,0.3,1.3,0.4,2,0.4c1,0,1.8-0.2,2.6-0.6
			c0.8-0.4,1.5-0.9,2-1.6c0.6-0.7,1-1.5,1.3-2.5C118.2,150.5,118.4,149.4,118.4,148.2z"/>
		<path class="st0" d="M125.1,158.3l2.2-18h5.6c1,0,1.8,0.1,2.5,0.3c0.7,0.2,1.3,0.5,1.7,0.8c0.4,0.4,0.8,0.8,1,1.3
			c0.2,0.5,0.3,1.1,0.3,1.7c0,0.5-0.1,1-0.2,1.5c-0.1,0.5-0.4,0.9-0.7,1.3c-0.3,0.4-0.7,0.8-1.1,1.1c-0.5,0.3-1,0.6-1.6,0.8
			c1,0.2,1.8,0.7,2.4,1.3c0.5,0.6,0.8,1.3,0.8,2.2c0,0.8-0.2,1.6-0.5,2.3c-0.3,0.7-0.7,1.3-1.3,1.8c-0.6,0.5-1.3,0.9-2.1,1.2
			c-0.8,0.3-1.8,0.4-2.8,0.4H125.1z M129,150.3l-0.7,5.8h3.3c0.6,0,1.2-0.1,1.6-0.2c0.5-0.2,0.8-0.4,1.1-0.7
			c0.3-0.3,0.5-0.7,0.7-1.1c0.1-0.4,0.2-0.9,0.2-1.4c0-0.7-0.2-1.3-0.7-1.7c-0.5-0.4-1.2-0.6-2.2-0.6H129z M129.2,148.3h2.7
			c1.2,0,2.2-0.3,2.8-0.9c0.6-0.6,1-1.4,1-2.5c0-0.8-0.2-1.4-0.7-1.8c-0.5-0.4-1.2-0.6-2.2-0.6h-2.8L129.2,148.3z"/>
		<path class="st0" d="M159.4,148.1c0,1-0.1,2-0.3,2.9c-0.2,0.9-0.5,1.7-0.9,2.5c-0.4,0.8-0.9,1.5-1.5,2.1c-0.6,0.6-1.2,1.1-1.9,1.6
			c-0.7,0.4-1.5,0.8-2.3,1c-0.8,0.2-1.7,0.4-2.6,0.4c-1.1,0-2.2-0.2-3.1-0.6c-0.9-0.4-1.7-1-2.3-1.7c-0.6-0.7-1.1-1.5-1.5-2.5
			c-0.3-1-0.5-2-0.5-3.2c0-1,0.1-2,0.3-2.9c0.2-0.9,0.5-1.7,0.9-2.5c0.4-0.8,0.9-1.5,1.5-2.1c0.6-0.6,1.2-1.2,1.9-1.6
			c0.7-0.4,1.5-0.8,2.3-1c0.8-0.2,1.7-0.4,2.6-0.4c1.1,0,2.1,0.2,3.1,0.6c0.9,0.4,1.7,1,2.3,1.7c0.6,0.7,1.1,1.6,1.5,2.5
			C159.3,145.9,159.4,147,159.4,148.1z M156.5,148.2c0-0.9-0.1-1.6-0.3-2.3c-0.2-0.7-0.5-1.3-0.9-1.8c-0.4-0.5-0.9-0.9-1.5-1.1
			c-0.6-0.3-1.3-0.4-2-0.4c-0.9,0-1.8,0.2-2.6,0.6c-0.8,0.4-1.5,0.9-2,1.6c-0.6,0.7-1,1.5-1.3,2.5c-0.3,1-0.5,2.1-0.5,3.3
			c0,0.9,0.1,1.6,0.3,2.3c0.2,0.7,0.5,1.3,0.9,1.8c0.4,0.5,0.9,0.9,1.5,1.1c0.6,0.3,1.3,0.4,2,0.4c1,0,1.8-0.2,2.6-0.6
			c0.8-0.4,1.5-0.9,2-1.6c0.6-0.7,1-1.5,1.3-2.5C156.4,150.5,156.5,149.4,156.5,148.2z"/>
		<path class="st0" d="M167.4,148.1h1.6c0.3,0,0.6-0.1,0.9-0.2c0.2-0.1,0.5-0.3,0.8-0.7l4.6-6.1c0.2-0.2,0.4-0.4,0.6-0.6
			c0.2-0.1,0.5-0.2,0.7-0.2h2.4l-5.6,7.3c-0.2,0.3-0.5,0.6-0.8,0.8c-0.3,0.2-0.6,0.4-0.9,0.5c0.4,0.1,0.8,0.3,1.1,0.6
			c0.3,0.3,0.5,0.7,0.7,1.1l3.7,7.7h-2.6c-0.3,0-0.5-0.1-0.7-0.2c-0.2-0.1-0.3-0.4-0.4-0.6l-3-6.3c-0.2-0.3-0.3-0.6-0.6-0.7
			c-0.2-0.1-0.5-0.2-0.9-0.2h-1.9l-1,8.1h-2.8l2.2-18h2.8L167.4,148.1z"/>
	</g>
</g>
<g>
	<path class="st0" d="M99.6,105.5h-1.2l2-16h-9.1l-2,16h-1.2l2.1-17h11.5L99.6,105.5z"/>
	<path class="st0" d="M117.7,89.5h-8.2l-0.9,6.9h6.8l-0.1,1h-6.8l-0.9,7.1h8.3l-0.1,1h-9.5l2.1-17h9.4L117.7,89.5z"/>
	<path class="st0" d="M123.3,98.6l-0.8,6.8h-1.2l2.1-17h4.1c1.7,0,2.9,0.4,3.8,1.1c0.8,0.7,1.3,1.8,1.3,3.1c0,0.9-0.1,1.7-0.4,2.4
		c-0.3,0.7-0.7,1.3-1.3,1.8c-0.5,0.5-1.2,0.9-2,1.2c-0.8,0.3-1.6,0.4-2.6,0.4H123.3z M124.4,89.5l-1,8.2h2.9c0.8,0,1.4-0.1,2-0.4
		c0.6-0.2,1.1-0.6,1.6-1c0.4-0.4,0.8-0.9,1-1.5c0.2-0.6,0.4-1.2,0.4-1.9c0-1.1-0.3-1.9-1-2.5c-0.7-0.6-1.6-0.9-3-0.9H124.4z"/>
	<path class="st0" d="M136.2,105.5l2.1-17h4.6c0.8,0,1.5,0.1,2.1,0.3c0.6,0.2,1.1,0.4,1.5,0.7c0.4,0.3,0.7,0.7,0.9,1.2
		c0.2,0.5,0.3,1,0.3,1.5c0,0.5-0.1,1.1-0.3,1.6c-0.2,0.5-0.4,0.9-0.8,1.3c-0.3,0.4-0.7,0.8-1.2,1c-0.5,0.3-1,0.5-1.6,0.7
		c1.1,0.2,2,0.6,2.5,1.2c0.6,0.6,0.9,1.4,0.9,2.4c0,0.8-0.1,1.5-0.4,2.1c-0.3,0.6-0.7,1.2-1.2,1.6c-0.5,0.4-1.1,0.8-1.9,1
		c-0.7,0.2-1.6,0.4-2.5,0.4H136.2z M138.4,97.3l-0.9,7.2h3.9c1.5,0,2.6-0.4,3.4-1.1c0.8-0.7,1.2-1.7,1.2-3.1c0-0.5-0.1-0.9-0.2-1.3
		c-0.2-0.4-0.4-0.7-0.7-1c-0.3-0.3-0.7-0.5-1.2-0.6c-0.5-0.1-1-0.2-1.6-0.2H138.4z M138.5,96.5h3.4c0.8,0,1.5-0.1,2-0.3
		c0.6-0.2,1-0.5,1.4-0.9c0.4-0.4,0.6-0.8,0.8-1.3c0.2-0.5,0.3-1,0.3-1.5c0-1-0.3-1.7-0.9-2.2c-0.6-0.5-1.5-0.8-2.8-0.8h-3.4
		L138.5,96.5z"/>
	<path class="st0" d="M155.6,88.5l-1,7.7h3.7c0.8,0,1.5,0.1,2.1,0.3c0.6,0.2,1.1,0.4,1.5,0.8c0.4,0.3,0.7,0.7,0.9,1.2
		c0.2,0.5,0.3,1,0.3,1.6c0,0.8-0.1,1.6-0.4,2.3c-0.3,0.7-0.7,1.2-1.2,1.7c-0.5,0.5-1.1,0.8-1.9,1.1c-0.7,0.3-1.6,0.4-2.5,0.4h-4.8
		l2.1-17H155.6z M154.5,97.1l-0.9,7.4h3.6c0.7,0,1.4-0.1,2-0.3c0.6-0.2,1-0.5,1.4-0.9c0.4-0.4,0.7-0.8,0.9-1.4
		c0.2-0.5,0.3-1.2,0.3-1.8c0-1-0.3-1.7-0.9-2.3c-0.6-0.5-1.5-0.8-2.8-0.8H154.5z M166.8,105.5h-1.2l2.1-17h1.2L166.8,105.5z"/>
	<path class="st0" d="M178.4,96.4l-4.2-7.9h1.1c0.1,0,0.2,0,0.2,0.1c0,0,0.1,0.1,0.1,0.2l3.6,7c0.1-0.1,0.1-0.2,0.2-0.3l5.2-6.8
		c0.1-0.1,0.2-0.2,0.4-0.2h1.2l-6.2,7.8l4.8,9.1h-1.1c-0.1,0-0.2,0-0.2-0.1c0-0.1-0.1-0.1-0.1-0.2l-4.2-8.1c0,0,0,0.1-0.1,0.1
		c0,0-0.1,0.1-0.1,0.1l-6,7.9c-0.1,0.2-0.3,0.3-0.5,0.3h-1.2L178.4,96.4z"/>
</g>
<g>
	<path class="st0" d="M259.7,44.7l-0.4,3.1c-0.1,0.8-0.3,1.5-0.6,2.1c-0.3,0.6-0.5,1.1-0.8,1.5l-55.3,94c-0.4,0.7-1,1.3-1.7,1.8
		c-0.7,0.5-1.6,0.7-2.6,0.7h-4.6l55.5-93.6c0.4-0.7,0.8-1.3,1.2-1.8c0.4-0.5,0.9-1.1,1.4-1.6h-54.8c-0.5,0-1-0.2-1.3-0.5
		c-0.3-0.4-0.5-0.8-0.4-1.3l0.5-4.3H259.7z"/>
</g>
<polygon class="st1" points="317.7,33 20,33 25.9,-0.1 323.5,-0.1 "/>
<g>
	<path class="st0" d="M49.5,23.5h-3.3l0.8-6.1h-5.2l-0.8,6.1h-3.3l1.8-14.4h3.3l-0.8,6.1h5.2l0.8-6.1h3.3L49.5,23.5z"/>
	<path class="st0" d="M63.1,11.7h-5.4l-0.4,3.5h4.1l-0.3,2.4H57l-0.4,3.6h5.4l-0.3,2.5H53l1.8-14.4h8.6L63.1,11.7z"/>
	<path class="st0" d="M64.4,23.5l1.8-14.4h5c0.8,0,1.6,0.1,2.2,0.2c0.6,0.2,1.1,0.4,1.5,0.7c0.4,0.3,0.7,0.6,0.8,1.1
		c0.2,0.4,0.3,0.9,0.3,1.4c0,0.4-0.1,0.8-0.2,1.1c-0.1,0.4-0.3,0.7-0.5,1c-0.2,0.3-0.5,0.6-0.9,0.8c-0.4,0.3-0.8,0.5-1.3,0.6
		c0.8,0.2,1.4,0.5,1.7,1c0.4,0.4,0.6,1,0.6,1.7c0,0.7-0.1,1.3-0.4,1.9c-0.3,0.6-0.6,1.1-1.1,1.5c-0.5,0.4-1.1,0.8-1.8,1
		c-0.7,0.2-1.5,0.4-2.3,0.4H64.4z M68.4,17.4L68,21.1h2.1c0.4,0,0.7-0.1,1-0.2c0.3-0.1,0.5-0.3,0.7-0.5c0.2-0.2,0.3-0.4,0.4-0.7
		c0.1-0.3,0.1-0.6,0.1-0.9c0-0.2,0-0.4-0.1-0.6c-0.1-0.2-0.2-0.3-0.3-0.4c-0.1-0.1-0.3-0.2-0.5-0.3c-0.2-0.1-0.5-0.1-0.8-0.1H68.4z
		 M68.7,15.3h1.5c0.4,0,0.7,0,1-0.1c0.3-0.1,0.5-0.2,0.8-0.4c0.2-0.2,0.4-0.4,0.5-0.7c0.1-0.3,0.2-0.6,0.2-1.1
		c0-0.5-0.1-0.9-0.4-1.1c-0.3-0.2-0.7-0.3-1.3-0.3h-1.7L68.7,15.3z"/>
	<path class="st0" d="M87.7,11.7h-5.4l-0.4,3.5H86l-0.3,2.4h-4.1l-0.4,3.6h5.4l-0.3,2.5h-8.6l1.8-14.4H88L87.7,11.7z"/>
	<path class="st0" d="M92.9,18.7l-0.6,4.8h-3.2l1.8-14.4h4.8c0.9,0,1.6,0.1,2.2,0.3c0.6,0.2,1.1,0.5,1.5,0.9
		c0.4,0.4,0.7,0.8,0.9,1.3c0.2,0.5,0.3,1,0.3,1.6c0,0.8-0.1,1.5-0.4,2.2c-0.2,0.7-0.6,1.2-1.1,1.7c-0.5,0.5-1.1,0.9-1.9,1.1
		c-0.8,0.3-1.7,0.4-2.7,0.4H92.9z M93.8,11.6l-0.6,4.7h1.6c0.5,0,0.9-0.1,1.2-0.2c0.3-0.1,0.6-0.3,0.8-0.6c0.2-0.2,0.3-0.5,0.4-0.9
		s0.1-0.7,0.1-1.1c0-0.3,0-0.5-0.1-0.8c-0.1-0.2-0.2-0.4-0.4-0.6c-0.2-0.2-0.4-0.3-0.6-0.4c-0.2-0.1-0.5-0.1-0.9-0.1H93.8z"/>
	<path class="st0" d="M115.9,15.4c0,0.8-0.1,1.5-0.3,2.2c-0.2,0.7-0.4,1.4-0.8,2c-0.3,0.6-0.7,1.2-1.2,1.7c-0.5,0.5-1,0.9-1.6,1.3
		c-0.6,0.4-1.2,0.6-1.9,0.8c-0.7,0.2-1.4,0.3-2.2,0.3c-1,0-1.8-0.2-2.6-0.5c-0.8-0.3-1.4-0.8-1.9-1.4c-0.5-0.6-0.9-1.3-1.2-2
		c-0.3-0.8-0.4-1.6-0.4-2.5c0-0.8,0.1-1.5,0.3-2.2c0.2-0.7,0.4-1.4,0.8-2c0.3-0.6,0.7-1.2,1.2-1.7c0.5-0.5,1-0.9,1.6-1.3
		c0.6-0.4,1.2-0.6,1.9-0.8c0.7-0.2,1.4-0.3,2.2-0.3c0.9,0,1.8,0.2,2.6,0.5c0.8,0.3,1.4,0.8,1.9,1.4c0.5,0.6,0.9,1.3,1.2,2
		C115.8,13.7,115.9,14.5,115.9,15.4z M112.6,15.5c0-0.6-0.1-1.1-0.2-1.6c-0.1-0.5-0.4-0.9-0.6-1.2c-0.3-0.3-0.6-0.6-1-0.8
		c-0.4-0.2-0.8-0.3-1.4-0.3c-0.7,0-1.3,0.1-1.8,0.4c-0.5,0.3-1,0.7-1.3,1.1c-0.4,0.5-0.6,1.1-0.8,1.8c-0.2,0.7-0.3,1.5-0.3,2.3
		c0,0.6,0.1,1.1,0.2,1.6c0.1,0.5,0.3,0.9,0.6,1.2c0.3,0.3,0.6,0.6,1,0.8c0.4,0.2,0.9,0.3,1.4,0.3c0.7,0,1.3-0.1,1.8-0.4
		c0.5-0.3,1-0.7,1.3-1.1c0.4-0.5,0.7-1.1,0.8-1.8C112.5,17.1,112.6,16.4,112.6,15.5z"/>
	<path class="st0" d="M124.3,23.5l0.7-5.8h-1c-0.1,0-0.3,0-0.4,0.1c-0.1,0-0.2,0.1-0.4,0.2c-0.1,0.1-0.2,0.2-0.3,0.3
		c-0.1,0.1-0.2,0.3-0.3,0.5l-2.2,3.7c-0.2,0.3-0.5,0.6-0.9,0.8c-0.4,0.2-0.8,0.3-1.2,0.3h-2.4l3.2-4.9c0.5-0.7,1.1-1.2,1.8-1.5
		c-0.4-0.1-0.7-0.3-1-0.5c-0.3-0.2-0.5-0.5-0.7-0.7c-0.2-0.3-0.3-0.6-0.4-0.9c-0.1-0.3-0.1-0.7-0.1-1c0-0.7,0.1-1.3,0.4-1.9
		c0.3-0.6,0.6-1.1,1.1-1.5c0.5-0.4,1.1-0.8,1.8-1c0.7-0.2,1.5-0.4,2.4-0.4h5l-1.8,14.4H124.3z M121.8,13.8c0,0.2,0,0.4,0.1,0.6
		c0.1,0.2,0.1,0.3,0.3,0.5c0.1,0.1,0.3,0.2,0.5,0.3c0.2,0.1,0.5,0.1,0.8,0.1h1.8l0.5-3.7h-1.8c-0.4,0-0.7,0.1-1,0.2
		c-0.3,0.1-0.5,0.3-0.7,0.4c-0.2,0.2-0.3,0.4-0.4,0.7C121.8,13.2,121.8,13.5,121.8,13.8z"/>
	<path class="st0" d="M142.3,9.2l-0.3,2.5h-3.7l-1.5,11.8h-3.2l1.5-11.8h-3.7l0.3-2.5H142.3z"/>
	<path class="st0" d="M154.7,23.5h-3.3l0.8-6.1H147l-0.8,6.1H143l1.8-14.4h3.3l-0.8,6.1h5.2l0.8-6.1h3.3L154.7,23.5z"/>
	<path class="st0" d="M163.2,9.2l-0.7,5.8h1.7c0.8,0,1.6,0.1,2.2,0.3c0.6,0.2,1.1,0.4,1.4,0.8c0.4,0.3,0.6,0.7,0.8,1.1
		c0.2,0.4,0.2,0.9,0.2,1.3c0,0.7-0.1,1.4-0.4,2.1c-0.3,0.6-0.6,1.2-1.1,1.6c-0.5,0.4-1.1,0.8-1.8,1c-0.7,0.2-1.5,0.4-2.4,0.4h-4.9
		l1.8-14.4H163.2z M162.1,17.4l-0.5,3.7h1.7c0.4,0,0.7-0.1,1-0.2c0.3-0.1,0.5-0.3,0.7-0.5c0.2-0.2,0.3-0.4,0.4-0.7
		c0.1-0.3,0.1-0.6,0.1-0.9c0-0.2,0-0.4-0.1-0.6c-0.1-0.2-0.1-0.3-0.3-0.5c-0.1-0.1-0.3-0.2-0.5-0.3c-0.2-0.1-0.5-0.1-0.8-0.1H162.1z
		 M172.6,23.5h-3.3l1.8-14.4h3.3L172.6,23.5z"/>
	<path class="st0" d="M185.5,10.1c0.1-0.1,0.2-0.2,0.3-0.3c0.1-0.1,0.2-0.2,0.4-0.3c0.1-0.1,0.3-0.2,0.4-0.2
		c0.1-0.1,0.3-0.1,0.5-0.1h2.4l-1.8,14.4h-3.2l1-8c0.1-0.4,0.1-0.7,0.2-1.1c0.1-0.4,0.2-0.8,0.3-1.3c-0.2,0.4-0.4,0.8-0.6,1.1
		c-0.2,0.3-0.4,0.6-0.6,0.9l-4.7,7.4c-0.1,0.1-0.2,0.2-0.3,0.3c-0.1,0.1-0.2,0.2-0.4,0.3c-0.1,0.1-0.3,0.2-0.4,0.2
		c-0.1,0.1-0.3,0.1-0.5,0.1H176l1.8-14.4h3.2l-1,7.9c-0.1,0.4-0.1,0.8-0.2,1.2c-0.1,0.4-0.2,0.8-0.3,1.3c0.2-0.4,0.4-0.8,0.6-1.1
		c0.2-0.4,0.4-0.7,0.6-0.9L185.5,10.1z M183.9,6.9c0.2,0,0.4,0,0.5-0.1c0.1,0,0.2-0.1,0.3-0.2c0.1-0.1,0.2-0.2,0.2-0.4
		c0-0.2,0.1-0.4,0.1-0.7h1.7c0.1,0,0.2,0,0.2,0.1c0.1,0,0.1,0.1,0.2,0.2c0,0.1,0.1,0.2,0.1,0.3c0,0.1,0,0.2,0,0.3
		c0,0.3-0.2,0.6-0.3,0.9c-0.2,0.3-0.4,0.5-0.8,0.6c-0.3,0.2-0.7,0.3-1.1,0.4c-0.4,0.1-0.9,0.1-1.3,0.1c-0.5,0-0.9,0-1.3-0.1
		c-0.4-0.1-0.7-0.2-1-0.4c-0.3-0.2-0.5-0.4-0.6-0.6c-0.1-0.3-0.2-0.6-0.1-0.9c0-0.1,0-0.2,0.1-0.3c0-0.1,0.1-0.2,0.1-0.3
		c0.1-0.1,0.1-0.1,0.2-0.2c0.1,0,0.2-0.1,0.3-0.1h1.7c0,0.3,0,0.5,0,0.7c0,0.2,0,0.3,0.1,0.4c0.1,0.1,0.2,0.2,0.3,0.2
		C183.5,6.9,183.7,6.9,183.9,6.9z"/>
	<path class="st0" d="M199.8,18.7l-0.6,4.8H196l1.8-14.4h4.8c0.9,0,1.6,0.1,2.2,0.3s1.1,0.5,1.5,0.9c0.4,0.4,0.7,0.8,0.9,1.3
		c0.2,0.5,0.3,1,0.3,1.6c0,0.8-0.1,1.5-0.4,2.2c-0.2,0.7-0.6,1.2-1.1,1.7c-0.5,0.5-1.1,0.9-1.9,1.1c-0.8,0.3-1.7,0.4-2.7,0.4H199.8z
		 M200.7,11.6l-0.6,4.7h1.6c0.5,0,0.9-0.1,1.2-0.2c0.3-0.1,0.6-0.3,0.8-0.6c0.2-0.2,0.3-0.5,0.4-0.9c0.1-0.3,0.1-0.7,0.1-1.1
		c0-0.3,0-0.5-0.1-0.8c-0.1-0.2-0.2-0.4-0.4-0.6c-0.2-0.2-0.4-0.3-0.6-0.4c-0.2-0.1-0.5-0.1-0.9-0.1H200.7z"/>
	<path class="st0" d="M218.8,11.7h-5.4l-0.4,3.5h4.1l-0.3,2.4h-4.1l-0.4,3.6h5.4l-0.3,2.5h-8.6l1.8-14.4h8.6L218.8,11.7z"/>
	<path class="st0" d="M230.1,12.4c0,0.4,0,0.7-0.1,1.1c-0.1,0.4-0.2,0.7-0.4,1c-0.2,0.3-0.4,0.6-0.7,0.8c-0.3,0.3-0.7,0.5-1.1,0.6
		c0.6,0.3,1.1,0.7,1.4,1.2c0.3,0.5,0.5,1.1,0.5,1.7c0,0.7-0.1,1.3-0.4,1.9c-0.3,0.6-0.6,1.1-1.1,1.5c-0.5,0.4-1.1,0.8-1.7,1
		c-0.7,0.3-1.4,0.4-2.3,0.4c-0.5,0-1,0-1.5-0.1c-0.5-0.1-1-0.2-1.4-0.4c-0.4-0.2-0.8-0.4-1.2-0.6c-0.4-0.2-0.7-0.5-0.9-0.8l1.1-1.5
		c0.1-0.1,0.2-0.2,0.3-0.3c0.1-0.1,0.3-0.1,0.4-0.1c0.2,0,0.4,0.1,0.6,0.2c0.2,0.1,0.4,0.3,0.6,0.4c0.2,0.2,0.5,0.3,0.8,0.4
		c0.3,0.1,0.7,0.2,1.2,0.2c0.7,0,1.3-0.2,1.7-0.5c0.4-0.4,0.6-0.9,0.6-1.7c0-0.5-0.2-0.9-0.5-1.2c-0.4-0.3-0.9-0.4-1.6-0.4h-1.9
		l0.3-2.5h1.7c0.8,0,1.5-0.2,1.9-0.5c0.4-0.3,0.6-0.8,0.6-1.4c0-0.4-0.1-0.7-0.4-1c-0.3-0.2-0.7-0.4-1.3-0.4c-0.4,0-0.7,0-1,0.1
		c-0.3,0.1-0.6,0.2-0.8,0.3c-0.3,0.1-0.5,0.2-0.7,0.3c-0.2,0.1-0.4,0.1-0.5,0.1c-0.2,0-0.3,0-0.4-0.1c-0.1-0.1-0.2-0.2-0.3-0.3
		l-0.6-1.5c0.6-0.5,1.4-0.8,2.2-1.1c0.8-0.3,1.7-0.4,2.6-0.4c0.7,0,1.3,0.1,1.9,0.3c0.5,0.2,1,0.4,1.4,0.7c0.4,0.3,0.7,0.7,0.9,1.1
		C230,11.5,230.1,12,230.1,12.4z"/>
	<path class="st0" d="M234.2,21.1c0.1,0,0.3-0.1,0.4-0.1c0.1-0.1,0.3-0.2,0.4-0.3c0.1-0.1,0.3-0.3,0.4-0.6l0.5-0.9l-4.1-10h3
		c0.3,0,0.5,0.1,0.6,0.2c0.1,0.1,0.3,0.3,0.3,0.5l1.3,4.5c0.1,0.4,0.2,0.7,0.3,1.1c0.1,0.4,0.2,0.7,0.2,1.1c0.1-0.4,0.3-0.7,0.5-1.1
		c0.2-0.4,0.4-0.7,0.5-1.1l2.2-4.5c0.1-0.2,0.3-0.3,0.4-0.5c0.2-0.1,0.4-0.2,0.7-0.2h2.7l-6.9,12.3c-0.3,0.5-0.5,0.8-0.8,1.1
		c-0.3,0.3-0.6,0.5-0.8,0.7c-0.3,0.2-0.6,0.3-0.9,0.3c-0.3,0.1-0.6,0.1-0.9,0.1c-0.6,0-1-0.1-1.3-0.2c-0.3-0.1-0.4-0.3-0.4-0.6
		l0.2-1.7h0.8C233.9,21.2,234,21.2,234.2,21.1z"/>
	<path class="st0" d="M256.6,9.2l-1.8,14.4h-3.2l1.5-12h-2.8c-0.3,1.8-0.6,3.3-1,4.6c-0.3,1.3-0.7,2.4-1,3.3
		c-0.3,0.9-0.7,1.6-1.1,2.2c-0.4,0.6-0.7,1-1.1,1.3c-0.4,0.3-0.8,0.5-1.2,0.6c-0.4,0.1-0.8,0.2-1.3,0.2c-0.6,0-0.9,0-1.2-0.1
		c-0.2-0.1-0.3-0.2-0.3-0.4l0.2-1.9h0.8c0.1,0,0.3,0,0.4,0c0.1,0,0.3-0.1,0.5-0.2c0.2-0.1,0.3-0.3,0.5-0.5c0.2-0.2,0.4-0.5,0.5-0.9
		c0.2-0.4,0.4-0.9,0.6-1.5c0.2-0.6,0.4-1.3,0.6-2.1c0.2-0.8,0.4-1.8,0.6-2.9c0.2-1.1,0.4-2.4,0.6-3.8H256.6z"/>
	<path class="st0" d="M263.2,9.2l-0.7,5.8h1.7c0.8,0,1.6,0.1,2.2,0.3c0.6,0.2,1.1,0.4,1.4,0.8c0.4,0.3,0.6,0.7,0.8,1.1
		c0.2,0.4,0.2,0.9,0.2,1.3c0,0.7-0.1,1.4-0.4,2.1c-0.3,0.6-0.6,1.2-1.1,1.6c-0.5,0.4-1.1,0.8-1.8,1c-0.7,0.2-1.5,0.4-2.4,0.4h-4.9
		L260,9.2H263.2z M262.2,17.4l-0.5,3.7h1.7c0.4,0,0.7-0.1,1-0.2c0.3-0.1,0.5-0.3,0.7-0.5c0.2-0.2,0.3-0.4,0.4-0.7
		c0.1-0.3,0.1-0.6,0.1-0.9c0-0.2,0-0.4-0.1-0.6c-0.1-0.2-0.1-0.3-0.3-0.5c-0.1-0.1-0.3-0.2-0.5-0.3c-0.2-0.1-0.5-0.1-0.8-0.1H262.2z
		"/>
	<path class="st0" d="M280.5,9.2l-0.3,2.5h-3.7l-1.5,11.8h-3.2l1.5-11.8h-3.7l0.3-2.5H280.5z"/>
	<path class="st0" d="M292.1,23.5h-2.5c-0.3,0-0.5-0.1-0.7-0.2c-0.2-0.1-0.3-0.3-0.3-0.5l-0.4-2.6h-4.9l-1.1,2.6
		c-0.1,0.2-0.2,0.3-0.4,0.5c-0.2,0.1-0.4,0.2-0.7,0.2h-2.5l6.9-14.4h3.3L292.1,23.5z M284.1,18.1h3.6l-0.7-4.1
		c-0.1-0.3-0.1-0.6-0.2-0.9c-0.1-0.3-0.1-0.7-0.2-1.1c-0.2,0.4-0.3,0.8-0.5,1.1c-0.2,0.4-0.3,0.7-0.4,0.9L284.1,18.1z"/>
	<path class="st0" d="M304,9.2l-0.3,2.5H300l-1.5,11.8h-3.2l1.5-11.8h-3.7l0.3-2.5H304z"/>
</g>
<g>
	<path class="st0" d="M248.2,120.8l-2.4,19.2h3.2l-0.9,6.9c0,0.3-0.2,0.5-0.4,0.7c-0.2,0.2-0.5,0.3-0.8,0.3h-2.1l0.7-5.3h-15.4
		l-0.5,4.3c0,0.3-0.2,0.5-0.4,0.7c-0.2,0.2-0.5,0.3-0.8,0.3h-2.1l1-8h2.1c0.3-0.1,0.6-0.4,0.9-0.7c0.3-0.3,0.6-0.8,1-1.4
		c0.3-0.6,0.7-1.4,1-2.3c0.3-0.9,0.7-2.1,1.1-3.5c0.4-1.4,0.7-3,1.1-4.8c0.4-1.9,0.7-4,1.1-6.4H248.2z M238.5,123.5
		c-0.4,2.3-0.8,4.4-1.2,6.2c-0.4,1.8-0.9,3.3-1.3,4.7c-0.4,1.3-0.9,2.5-1.3,3.4c-0.5,0.9-0.9,1.7-1.4,2.3h9.1l2.1-16.5H238.5z"/>
	<path class="st0" d="M271.2,142.7h-3.5l1.2-9.8h-10l-1.2,9.8h-3.5l2.7-21.9h3.5l-1.2,9.6h10l1.2-9.6h3.5L271.2,142.7z"/>
	<path class="st0" d="M294.1,120.8l-0.4,2.8h-9.2l-0.8,6.7h7.4l-0.4,2.7h-7.4l-0.9,6.9h9.3l-0.4,2.8h-12.7l2.7-21.9H294.1z"/>
	<path class="st0" d="M312.9,121.8c0.1-0.1,0.2-0.3,0.3-0.4c0.1-0.1,0.3-0.2,0.4-0.3c0.1-0.1,0.3-0.2,0.5-0.2
		c0.2-0.1,0.3-0.1,0.5-0.1h2.6l-2.7,21.9H311l1.8-14.4c0.1-0.5,0.1-1,0.2-1.5c0.1-0.5,0.2-1.1,0.4-1.6c-0.2,0.5-0.5,1-0.8,1.4
		c-0.3,0.4-0.5,0.8-0.7,1.1l-10.1,13.9c-0.1,0.1-0.2,0.3-0.3,0.4c-0.1,0.1-0.3,0.2-0.4,0.3c-0.1,0.1-0.3,0.2-0.5,0.3
		c-0.2,0.1-0.3,0.1-0.5,0.1h-2.6l2.7-21.9h3.5l-1.8,14.4c-0.1,0.5-0.1,1-0.2,1.5c-0.1,0.5-0.2,1.1-0.4,1.6c0.2-0.5,0.5-1,0.8-1.4
		c0.3-0.4,0.5-0.8,0.8-1.1L312.9,121.8z M309.1,117.8c0.4,0,0.7,0,0.9-0.1c0.3-0.1,0.5-0.2,0.7-0.4c0.2-0.2,0.3-0.4,0.4-0.8
		c0.1-0.3,0.2-0.7,0.2-1.2h1.8c0.2,0,0.4,0.1,0.5,0.3c0.1,0.2,0.1,0.4,0.1,0.7c-0.1,0.5-0.2,1-0.5,1.4s-0.6,0.7-1,1
		c-0.4,0.3-0.9,0.5-1.4,0.6c-0.6,0.1-1.2,0.2-1.8,0.2c-0.7,0-1.3-0.1-1.8-0.2c-0.5-0.1-1-0.3-1.3-0.6c-0.3-0.3-0.6-0.6-0.8-1
		s-0.2-0.8-0.1-1.4c0-0.2,0.1-0.5,0.2-0.7c0.1-0.2,0.3-0.3,0.5-0.3h1.8c-0.1,0.5-0.1,0.9,0,1.2c0,0.3,0.1,0.6,0.2,0.8
		c0.1,0.2,0.3,0.3,0.6,0.4C308.4,117.7,308.7,117.8,309.1,117.8z"/>
</g>
<g>
	<path class="st0" d="M29.7,68.3c0.5-0.3,1-0.9,1.5-1.8l1.5-2.7l-7.5-18.7h3.1c0.3,0,0.5,0.1,0.7,0.2c0.2,0.1,0.3,0.3,0.4,0.6
		L33.9,58c0.1,0.5,0.3,1,0.4,1.4c0.1,0.5,0.2,0.9,0.3,1.4c0.2-0.5,0.4-1,0.6-1.4c0.2-0.5,0.5-0.9,0.7-1.4l6.5-12.1
		c0.1-0.2,0.3-0.4,0.5-0.6c0.2-0.2,0.5-0.2,0.8-0.2h2.9L33.9,68c-0.4,0.7-0.8,1.3-1.2,1.8c-0.4,0.5-0.8,0.8-1.3,1.1
		c-0.4,0.3-0.9,0.5-1.3,0.6c-0.5,0.1-0.9,0.2-1.4,0.2c-0.7,0-1.3-0.1-1.6-0.2c-0.4-0.1-0.5-0.4-0.5-0.7l0.2-1.9h1.2
		C28.6,68.8,29.2,68.6,29.7,68.3z"/>
	<path class="st0" d="M53.5,45.1c0.4,0,0.7,0.1,1,0.3c0.3,0.2,0.5,0.4,0.6,0.8l4.8,9.2c0.3,0.6,0.6,0.9,1,1.1
		c0.4,0.2,0.8,0.3,1.3,0.3h2.4L66,45.1h3.3l-1.4,11.6h2.4c0.5,0,1-0.1,1.4-0.3c0.4-0.2,0.8-0.5,1.2-1.1l7.1-9.2
		c0.2-0.3,0.5-0.6,0.8-0.8c0.3-0.2,0.7-0.3,1-0.3h2.7l-8.3,10.6c-0.4,0.5-0.8,0.9-1.2,1.3c-0.4,0.3-0.8,0.6-1.4,0.7
		c0.6,0.2,1,0.5,1.4,0.8s0.7,0.9,1,1.5l5.7,11.4h-2.3c-0.5,0-0.9-0.1-1.3-0.3c-0.3-0.2-0.6-0.5-0.8-0.9l-4.9-9.4
		c-0.2-0.5-0.5-0.9-0.9-1.1c-0.4-0.2-0.8-0.3-1.4-0.3h-2.8L66,71.4h-3.3l1.5-12.1h-2.8c-0.6,0-1.1,0.1-1.5,0.3
		c-0.4,0.2-0.8,0.6-1.2,1.1l-7.2,9.4c-0.3,0.4-0.6,0.7-1,0.9c-0.4,0.2-0.8,0.3-1.3,0.3h-2.3L55.5,60c0.4-0.6,0.9-1.1,1.4-1.5
		c0.5-0.4,1-0.7,1.6-0.8c-0.5-0.2-0.9-0.4-1.2-0.7c-0.3-0.3-0.6-0.7-0.9-1.3l-5.7-10.6H53.5z"/>
	<path class="st0" d="M106.4,47.9H94.8l-1.1,8.9h9.4l-0.4,2.7h-9.4l-1.1,9.1h11.7l-0.4,2.8H88.4l3.3-26.3h15.1L106.4,47.9z"/>
	<path class="st0" d="M139.5,50.8c0,1.6-0.4,2.9-1.3,4.1c-0.8,1.1-2,2-3.5,2.5c1.3,0.5,2.3,1.2,2.9,2.2c0.7,1,1,2.1,1,3.4
		c0,1.2-0.2,2.3-0.7,3.4c-0.4,1.1-1.1,2-1.9,2.8c-0.8,0.8-1.8,1.4-3,1.9c-1.2,0.5-2.5,0.7-4,0.7c-1.8,0-3.4-0.3-4.8-0.9
		c-1.4-0.6-2.5-1.5-3.4-2.5l1.2-1.6c0.1-0.1,0.2-0.2,0.4-0.3c0.1-0.1,0.3-0.1,0.5-0.1c0.2,0,0.5,0.1,0.8,0.4
		c0.3,0.3,0.7,0.6,1.2,0.9c0.5,0.3,1.1,0.6,1.8,0.9c0.7,0.3,1.6,0.4,2.6,0.4c1,0,1.8-0.1,2.6-0.4c0.8-0.3,1.4-0.7,2-1.2
		c0.5-0.5,0.9-1.1,1.2-1.8c0.3-0.7,0.4-1.5,0.4-2.4c0-0.6-0.1-1.2-0.3-1.7c-0.2-0.5-0.5-1-0.9-1.3c-0.4-0.4-0.9-0.7-1.5-0.9
		c-0.6-0.2-1.3-0.3-2.1-0.3h-3.3l0.4-2.8h3.2c0.8,0,1.5-0.1,2.1-0.3c0.7-0.2,1.2-0.5,1.7-0.9c0.5-0.4,0.9-0.9,1.1-1.5
		c0.3-0.6,0.4-1.2,0.4-2c0-0.5-0.1-1-0.3-1.5c-0.2-0.4-0.5-0.8-0.8-1.2c-0.4-0.3-0.8-0.6-1.4-0.8c-0.5-0.2-1.2-0.3-1.9-0.3
		c-0.9,0-1.7,0.1-2.4,0.3c-0.7,0.2-1.3,0.4-1.7,0.7c-0.5,0.3-0.9,0.5-1.2,0.7c-0.3,0.2-0.6,0.3-0.8,0.3c-0.3,0-0.6-0.2-0.7-0.5
		l-0.6-1.6c1.1-0.9,2.3-1.5,3.6-2c1.3-0.5,2.8-0.7,4.3-0.7c1.2,0,2.2,0.2,3.1,0.5c0.9,0.3,1.7,0.7,2.3,1.2c0.6,0.5,1.1,1.2,1.4,1.9
		C139.4,49.1,139.5,49.9,139.5,50.8z"/>
	<path class="st0" d="M165.3,71.4h-2.7c-0.3,0-0.5-0.1-0.7-0.2c-0.2-0.2-0.3-0.4-0.4-0.6l-1.4-6.4h-10.8l-3,6.4
		c-0.1,0.2-0.3,0.4-0.5,0.6c-0.2,0.2-0.5,0.2-0.8,0.2h-2.7l13-26.3h3.5L165.3,71.4z M150.4,61.6h9.1l-2.4-10.9
		c-0.1-0.3-0.1-0.7-0.2-1.1c-0.1-0.4-0.2-0.9-0.2-1.4c-0.2,0.5-0.4,1-0.6,1.4c-0.2,0.4-0.3,0.8-0.5,1.1L150.4,61.6z"/>
</g>
</svg>
