<?xml version="1.0" encoding="utf-8"?>
<!-- Generator: Adobe Illustrator 20.1.0, SVG Export Plug-In . SVG Version: 6.00 Build 0)  -->
<svg version="1.1" id="Слой_1" xmlns="http://www.w3.org/2000/svg" xmlns:xlink="http://www.w3.org/1999/xlink" x="0px" y="0px"
	 viewBox="0 0 309 210" style="enable-background:new 0 0 309 210;" xml:space="preserve">
<style type="text/css">
	.st0{fill:#E63B23;}
	.st1{fill:#FFFFFF;}
</style>
<polygon class="st0" points="302.1,38.9 7.8,38.9 14.6,0.2 308.9,0.2 "/>
<g>
	<path class="st1" d="M76.1,13.5c0.9,0,1.6,0.2,2.4,0.6c0.7,0.3,1.3,0.8,1.8,1.3c0.5,0.5,0.9,1.2,1.2,1.9c0.3,0.7,0.4,1.5,0.4,2.3
		c0,1-0.2,2-0.6,2.9c-0.4,0.9-0.9,1.7-1.6,2.3s-1.5,1.2-2.4,1.6c-0.9,0.4-1.9,0.6-2.9,0.7l-0.2,2h-3.6l0.2-2c-0.9,0-1.6-0.2-2.4-0.6
		c-0.7-0.3-1.3-0.8-1.8-1.3c-0.5-0.5-0.9-1.2-1.2-1.9C65.2,22.5,65,21.8,65,21c0-1,0.2-2,0.6-2.8c0.4-0.9,0.9-1.7,1.6-2.3
		s1.5-1.2,2.4-1.6c0.9-0.4,1.9-0.6,2.9-0.7l0.2-2h3.6L76.1,13.5z M68.8,20.8c0,0.5,0.1,0.9,0.2,1.3c0.1,0.4,0.3,0.8,0.5,1.1
		c0.2,0.3,0.5,0.5,0.7,0.7c0.3,0.2,0.6,0.3,1,0.3l1-7.9c-0.5,0-0.9,0.1-1.3,0.4c-0.4,0.2-0.8,0.6-1.1,1c-0.3,0.4-0.5,0.9-0.7,1.4
		S68.8,20.2,68.8,20.8z M78.2,19.7c0-0.5-0.1-0.9-0.2-1.3c-0.1-0.4-0.3-0.8-0.5-1.1s-0.5-0.5-0.8-0.7c-0.3-0.2-0.6-0.3-1-0.3l-1,7.9
		c0.5,0,0.9-0.2,1.3-0.4c0.4-0.2,0.8-0.6,1.1-1c0.3-0.4,0.5-0.9,0.7-1.4S78.2,20.3,78.2,19.7z"/>
	<path class="st1" d="M94.9,13.3c0.1-0.1,0.2-0.3,0.3-0.4c0.1-0.1,0.3-0.3,0.4-0.4c0.2-0.1,0.3-0.2,0.5-0.3c0.2-0.1,0.4-0.1,0.5-0.1
		h2.9L97.5,29h-3.8l1.1-9.3c0.1-0.4,0.1-0.9,0.2-1.3c0.1-0.5,0.2-1,0.3-1.5c-0.2,0.5-0.5,0.9-0.7,1.3c-0.3,0.4-0.5,0.8-0.7,1.1
		l-5.5,8.6c-0.1,0.1-0.2,0.3-0.3,0.4c-0.1,0.1-0.3,0.3-0.4,0.4c-0.2,0.1-0.3,0.2-0.5,0.3C87,29,86.8,29,86.6,29h-2.9l2.1-16.8h3.8
		l-1.1,9.3c-0.1,0.4-0.1,0.9-0.2,1.4c-0.1,0.5-0.2,1-0.3,1.5c0.2-0.5,0.5-0.9,0.7-1.3c0.3-0.4,0.5-0.8,0.7-1.1L94.9,13.3z"/>
	<path class="st1" d="M114.9,12.2l-0.4,3h-4.3L108.4,29h-3.8l1.7-13.8h-4.3l0.4-3H114.9z"/>
	<path class="st1" d="M129.3,29h-3.8l0.9-7.1h-6.1l-0.9,7.1h-3.8l2.1-16.8h3.8l-0.9,7.1h6.1l0.9-7.1h3.8L129.3,29z"/>
	<path class="st1" d="M145.2,15.1h-6.3l-0.5,4.1h4.8l-0.4,2.8H138l-0.5,4.2h6.3l-0.4,2.9h-10.1l2.1-16.8h10.1L145.2,15.1z"/>
	<path class="st1" d="M153.8,26.1c0.4,0,0.8,0,1.1-0.1c0.3-0.1,0.6-0.1,0.8-0.2c0.2-0.1,0.4-0.2,0.6-0.3c0.2-0.1,0.3-0.2,0.4-0.3
		s0.2-0.2,0.3-0.2c0.1-0.1,0.2-0.1,0.3-0.1c0.1,0,0.2,0,0.3,0.1c0.1,0,0.1,0.1,0.2,0.1l1.3,1.6c-0.7,0.9-1.6,1.5-2.6,2
		c-1,0.4-2.2,0.7-3.4,0.7c-1.1,0-2-0.2-2.8-0.6c-0.8-0.4-1.5-0.9-2.1-1.5c-0.6-0.7-1-1.4-1.3-2.3c-0.3-0.9-0.4-1.9-0.4-2.9
		c0-1,0.1-1.9,0.3-2.7c0.2-0.9,0.5-1.7,0.9-2.4s0.9-1.4,1.4-2c0.6-0.6,1.2-1.1,1.8-1.5c0.7-0.4,1.4-0.7,2.2-0.9
		c0.8-0.2,1.6-0.3,2.4-0.3c0.6,0,1.2,0.1,1.7,0.2c0.5,0.1,1,0.3,1.4,0.5c0.4,0.2,0.8,0.5,1.1,0.8c0.3,0.3,0.6,0.6,0.9,1l-1.3,1.5
		c-0.1,0.1-0.2,0.2-0.3,0.3s-0.3,0.1-0.5,0.1c-0.1,0-0.3,0-0.4-0.1c-0.1-0.1-0.2-0.1-0.3-0.2c-0.1-0.1-0.2-0.2-0.4-0.3
		c-0.1-0.1-0.3-0.2-0.5-0.3c-0.2-0.1-0.4-0.2-0.7-0.2c-0.3-0.1-0.6-0.1-0.9-0.1c-0.7,0-1.4,0.1-2,0.4s-1.2,0.7-1.6,1.3
		c-0.5,0.6-0.8,1.2-1.1,2c-0.3,0.8-0.4,1.7-0.4,2.7c0,0.7,0.1,1.4,0.3,1.9c0.2,0.6,0.4,1,0.7,1.4c0.3,0.4,0.7,0.7,1.1,0.9
		C152.8,26,153.3,26.1,153.8,26.1z"/>
	<path class="st1" d="M161.9,19.5h5.8l-0.4,2.8h-5.8L161.9,19.5z"/>
	<path class="st1" d="M171,24.8c0.2,0,0.4,0.1,0.6,0.3c0.2,0.2,0.4,0.4,0.6,0.5c0.2,0.1,0.4,0.3,0.6,0.3c0.2,0.1,0.4,0.1,0.7,0.2
		c0.3,0,0.5,0.1,0.9,0.1c0.5,0,1-0.1,1.4-0.3c0.5-0.2,0.9-0.5,1.3-0.8s0.7-0.8,1-1.3c0.3-0.5,0.5-1.1,0.7-1.8h-6.6l0.3-2.7h6.5
		c0-0.6-0.1-1.2-0.3-1.7c-0.2-0.5-0.4-0.9-0.7-1.3c-0.3-0.3-0.6-0.6-1-0.8s-0.8-0.3-1.3-0.3c-0.6,0-1,0.1-1.4,0.2
		c-0.4,0.1-0.7,0.3-0.9,0.4c-0.3,0.1-0.5,0.3-0.7,0.4c-0.2,0.1-0.4,0.2-0.6,0.2s-0.4,0-0.5-0.1c-0.1-0.1-0.2-0.2-0.2-0.3l-1-1.6
		c0.7-0.7,1.6-1.2,2.5-1.6c1-0.4,2-0.6,3.2-0.6c1,0,2,0.2,2.8,0.6c0.8,0.4,1.5,0.9,2.1,1.5c0.6,0.7,1,1.4,1.3,2.4
		c0.3,0.9,0.5,1.9,0.5,3c0,1.4-0.2,2.7-0.6,3.8c-0.4,1.2-1,2.2-1.7,3.1c-0.8,0.9-1.7,1.6-2.7,2.1c-1.1,0.5-2.3,0.7-3.6,0.7
		c-1.3,0-2.4-0.2-3.3-0.7c-0.9-0.5-1.7-1.1-2.2-1.9l1.7-1.6c0.1-0.1,0.2-0.1,0.3-0.2C170.9,24.8,171,24.8,171,24.8z"/>
	<path class="st1" d="M190,19.1h1.3c0.3,0,0.5-0.1,0.7-0.2c0.2-0.1,0.4-0.3,0.6-0.6l3.3-5.2c0.2-0.3,0.4-0.5,0.7-0.7
		c0.3-0.2,0.6-0.3,0.9-0.3h3.3l-4.5,6.6c-0.2,0.3-0.5,0.5-0.8,0.7c-0.3,0.2-0.6,0.4-0.9,0.5c0.5,0.1,0.9,0.4,1.2,0.7
		c0.3,0.3,0.6,0.7,0.8,1.3l2.5,7h-3.5c-0.3,0-0.6-0.1-0.8-0.3c-0.2-0.2-0.4-0.4-0.5-0.8l-1.8-5.3c-0.1-0.3-0.3-0.6-0.5-0.7
		c-0.2-0.1-0.5-0.2-0.8-0.2h-1.6l-0.9,7.2H185l2.1-16.8h3.8L190,19.1z"/>
	<path class="st1" d="M222,29h-20.5l2.1-16.8h3.8l-1.7,14h4.5l1.7-14h3.8l-1.7,14h4.5l1.7-14h3.8L222,29z"/>
	<path class="st1" d="M239.8,29H236l0.9-7.1h-6.1l-0.9,7.1h-3.8l2.1-16.8h3.8l-0.9,7.1h6.1l0.9-7.1h3.8L239.8,29z"/>
	<path class="st1" d="M243.4,27c0-0.2,0-0.5,0.1-0.7c0.1-0.2,0.2-0.4,0.4-0.6c0.2-0.2,0.4-0.3,0.6-0.4c0.2-0.1,0.5-0.1,0.8-0.1
		c0.3,0,0.7,0.1,0.9,0.2c0.3,0.1,0.5,0.3,0.6,0.5c0.2,0.2,0.3,0.4,0.4,0.7c0.1,0.3,0.1,0.5,0.1,0.8c0,0.4-0.1,0.8-0.2,1.2
		c-0.1,0.4-0.3,0.9-0.6,1.3c-0.2,0.4-0.5,0.9-0.9,1.3c-0.4,0.4-0.8,0.8-1.3,1.2l-0.6-0.6c-0.2-0.1-0.3-0.3-0.3-0.5
		c0-0.1,0.1-0.3,0.2-0.4c0.1-0.2,0.3-0.3,0.5-0.5c0.2-0.2,0.3-0.4,0.5-0.7c0.2-0.2,0.3-0.5,0.4-0.8c-0.3,0-0.5-0.1-0.7-0.2
		c-0.2-0.1-0.4-0.2-0.6-0.4c-0.2-0.2-0.3-0.4-0.4-0.6C243.4,27.5,243.4,27.3,243.4,27z"/>
</g>
<g>
	<path class="st1" d="M23.1,64.4h-2.4l1.6-13.2H16l-1.6,13.2H12l1.9-15H25L23.1,64.4z"/>
	<path class="st1" d="M42.4,55.9c0,0.8-0.1,1.6-0.3,2.4c-0.2,0.8-0.4,1.5-0.8,2.1c-0.3,0.6-0.8,1.2-1.2,1.7c-0.5,0.5-1,1-1.6,1.3
		c-0.6,0.4-1.2,0.6-1.9,0.8c-0.7,0.2-1.4,0.3-2.2,0.3c-0.9,0-1.8-0.2-2.6-0.5c-0.8-0.3-1.4-0.8-1.9-1.4s-0.9-1.3-1.2-2.1
		c-0.3-0.8-0.4-1.7-0.4-2.6c0-0.8,0.1-1.6,0.3-2.4c0.2-0.8,0.4-1.5,0.8-2.1c0.3-0.6,0.7-1.2,1.2-1.8s1-1,1.6-1.3s1.2-0.6,1.9-0.8
		c0.7-0.2,1.4-0.3,2.2-0.3c0.9,0,1.8,0.2,2.6,0.5c0.8,0.3,1.4,0.8,1.9,1.4s0.9,1.3,1.2,2.1C42.2,54.1,42.4,55,42.4,55.9z M40,56
		c0-0.7-0.1-1.4-0.3-1.9c-0.2-0.6-0.4-1.1-0.8-1.5c-0.3-0.4-0.8-0.7-1.3-1c-0.5-0.2-1-0.3-1.7-0.3c-0.8,0-1.5,0.2-2.2,0.5
		c-0.7,0.3-1.2,0.8-1.7,1.4c-0.5,0.6-0.8,1.3-1.1,2.1c-0.3,0.8-0.4,1.7-0.4,2.7c0,0.7,0.1,1.4,0.3,1.9c0.2,0.6,0.4,1.1,0.8,1.5
		c0.3,0.4,0.8,0.7,1.2,1c0.5,0.2,1,0.3,1.7,0.3c0.8,0,1.5-0.2,2.2-0.5c0.7-0.3,1.2-0.8,1.7-1.3c0.5-0.6,0.8-1.3,1.1-2.1
		C39.8,57.9,40,57,40,56z"/>
	<path class="st1" d="M49,55.9h1.4c0.3,0,0.5,0,0.7-0.1c0.2-0.1,0.4-0.3,0.6-0.6l3.9-5.1c0.1-0.2,0.3-0.3,0.5-0.5
		c0.2-0.1,0.4-0.2,0.6-0.2h2L54,55.5c-0.2,0.3-0.4,0.5-0.6,0.6c-0.2,0.2-0.5,0.3-0.7,0.4c0.4,0.1,0.7,0.3,0.9,0.5
		c0.2,0.2,0.4,0.5,0.6,1l3.1,6.4h-2.1c-0.2,0-0.4-0.1-0.6-0.2c-0.1-0.1-0.3-0.3-0.4-0.5l-2.5-5.3c-0.1-0.3-0.3-0.5-0.5-0.6
		c-0.2-0.1-0.4-0.2-0.8-0.2h-1.6L48,64.4h-2.4l1.9-15h2.4L49,55.9z"/>
	<path class="st1" d="M72.5,64.4h-1.8c-0.2,0-0.4-0.1-0.5-0.2c-0.1-0.1-0.2-0.2-0.2-0.4l-0.7-3.4h-5.9l-1.6,3.4
		c-0.1,0.1-0.2,0.3-0.3,0.4c-0.2,0.1-0.3,0.2-0.5,0.2h-1.8l7.4-15h2.4L72.5,64.4z M64.1,58.8h4.7l-1.2-5.6c0-0.2-0.1-0.5-0.1-0.7
		s-0.1-0.6-0.2-0.9c-0.1,0.3-0.2,0.6-0.4,0.9c-0.1,0.3-0.2,0.5-0.3,0.8L64.1,58.8z"/>
	<path class="st1" d="M85.7,52.7c0,0.9-0.2,1.6-0.7,2.3c-0.5,0.7-1.1,1.1-2,1.5c0.7,0.3,1.2,0.7,1.6,1.3c0.4,0.5,0.6,1.2,0.6,1.9
		c0,0.7-0.1,1.3-0.4,1.9c-0.3,0.6-0.6,1.1-1.1,1.6c-0.5,0.5-1.1,0.8-1.8,1.1c-0.7,0.3-1.5,0.4-2.3,0.4c-0.5,0-1,0-1.5-0.1
		c-0.5-0.1-0.9-0.2-1.3-0.4c-0.4-0.2-0.8-0.4-1.1-0.6c-0.3-0.2-0.6-0.5-0.9-0.8l0.8-1.1c0.1-0.1,0.2-0.2,0.3-0.2
		c0.1-0.1,0.2-0.1,0.3-0.1c0.1,0,0.2,0,0.3,0.1c0.1,0.1,0.2,0.2,0.4,0.3c0.1,0.1,0.3,0.2,0.5,0.3c0.2,0.1,0.4,0.2,0.6,0.3
		c0.2,0.1,0.5,0.2,0.8,0.3c0.3,0.1,0.6,0.1,1,0.1c0.5,0,1-0.1,1.4-0.2c0.4-0.1,0.7-0.3,1-0.6c0.3-0.3,0.5-0.6,0.6-0.9
		c0.1-0.4,0.2-0.8,0.2-1.2c0-0.3-0.1-0.6-0.2-0.9c-0.1-0.3-0.3-0.5-0.5-0.7c-0.2-0.2-0.5-0.3-0.8-0.4c-0.3-0.1-0.7-0.2-1.1-0.2h-1.9
		l0.2-1.9h1.8c0.4,0,0.8-0.1,1.2-0.2c0.4-0.1,0.7-0.3,0.9-0.5c0.3-0.2,0.5-0.5,0.6-0.8c0.1-0.3,0.2-0.6,0.2-1c0-0.6-0.2-1-0.6-1.4
		c-0.4-0.3-1-0.5-1.7-0.5c-0.5,0-0.9,0.1-1.3,0.2s-0.7,0.2-1,0.4c-0.3,0.1-0.5,0.3-0.7,0.4c-0.2,0.1-0.3,0.2-0.5,0.2
		c-0.1,0-0.2,0-0.3-0.1c-0.1-0.1-0.1-0.2-0.2-0.3l-0.4-1.1c0.6-0.5,1.3-0.9,2.1-1.2c0.8-0.3,1.6-0.4,2.5-0.4c0.7,0,1.3,0.1,1.8,0.3
		c0.5,0.2,1,0.4,1.3,0.7c0.4,0.3,0.6,0.7,0.8,1.1C85.6,51.8,85.7,52.2,85.7,52.7z"/>
	<path class="st1" d="M100.5,64.4h-1.8c-0.2,0-0.4-0.1-0.5-0.2c-0.1-0.1-0.2-0.2-0.2-0.4l-0.7-3.4h-5.9l-1.6,3.4
		c-0.1,0.1-0.2,0.3-0.3,0.4c-0.2,0.1-0.3,0.2-0.5,0.2H87l7.4-15h2.4L100.5,64.4z M92.1,58.8h4.7l-1.2-5.6c0-0.2-0.1-0.5-0.1-0.7
		c-0.1-0.3-0.1-0.6-0.2-0.9c-0.1,0.3-0.2,0.6-0.4,0.9c-0.1,0.3-0.2,0.5-0.3,0.8L92.1,58.8z"/>
	<path class="st1" d="M103.9,64.4l1.9-15h4.7c0.8,0,1.5,0.1,2.1,0.2c0.6,0.2,1.1,0.4,1.4,0.7c0.4,0.3,0.6,0.7,0.8,1.1
		c0.2,0.4,0.3,0.9,0.3,1.4c0,0.4-0.1,0.9-0.2,1.3c-0.1,0.4-0.3,0.8-0.6,1.1c-0.2,0.3-0.6,0.6-0.9,0.9c-0.4,0.3-0.8,0.5-1.4,0.7
		c0.9,0.2,1.5,0.6,2,1c0.4,0.5,0.7,1.1,0.7,1.9c0,0.7-0.1,1.3-0.4,1.9c-0.3,0.6-0.6,1.1-1.1,1.5s-1.1,0.8-1.8,1
		c-0.7,0.2-1.5,0.4-2.3,0.4H103.9z M107.1,57.7l-0.6,4.9h2.8c0.5,0,1-0.1,1.4-0.2c0.4-0.1,0.7-0.3,1-0.6c0.3-0.3,0.4-0.6,0.6-0.9
		c0.1-0.4,0.2-0.8,0.2-1.2c0-0.6-0.2-1.1-0.6-1.4c-0.4-0.4-1-0.5-1.9-0.5H107.1z M107.3,56.1h2.2c1,0,1.8-0.2,2.4-0.7
		c0.5-0.5,0.8-1.2,0.8-2.1c0-0.7-0.2-1.2-0.6-1.5c-0.4-0.3-1-0.5-1.8-0.5h-2.3L107.3,56.1z"/>
	<path class="st1" d="M136,64.4h-17.7l1.9-15h2.4l-1.6,13.2h5.3l1.6-13.2h2.4l-1.6,13.2h5.3l1.6-13.2h2.4L136,64.4z"/>
	<path class="st1" d="M151.6,50.2c0.1-0.1,0.1-0.2,0.2-0.3c0.1-0.1,0.2-0.2,0.3-0.2c0.1-0.1,0.2-0.1,0.3-0.2c0.1,0,0.2-0.1,0.3-0.1
		h1.8l-1.9,15h-2.4l1.2-9.9c0-0.3,0.1-0.7,0.1-1c0.1-0.4,0.1-0.7,0.2-1.1c-0.2,0.3-0.3,0.7-0.5,1c-0.2,0.3-0.3,0.6-0.5,0.8l-6.9,9.5
		c-0.1,0.1-0.1,0.2-0.2,0.3c-0.1,0.1-0.2,0.2-0.3,0.2c-0.1,0.1-0.2,0.1-0.3,0.2c-0.1,0-0.2,0.1-0.3,0.1h-1.8l1.9-15h2.4l-1.2,9.9
		c0,0.3-0.1,0.7-0.2,1c-0.1,0.4-0.1,0.7-0.2,1.1c0.2-0.3,0.3-0.7,0.5-1c0.2-0.3,0.4-0.6,0.5-0.8L151.6,50.2z"/>
	<path class="st1" d="M168.3,50.2c0.1-0.1,0.1-0.2,0.2-0.3c0.1-0.1,0.2-0.2,0.3-0.2c0.1-0.1,0.2-0.1,0.3-0.2c0.1,0,0.2-0.1,0.3-0.1
		h1.8l-1.9,15H167l1.2-9.9c0-0.3,0.1-0.7,0.1-1c0.1-0.4,0.1-0.7,0.2-1.1c-0.2,0.3-0.3,0.7-0.5,1c-0.2,0.3-0.3,0.6-0.5,0.8l-6.9,9.5
		c-0.1,0.1-0.1,0.2-0.2,0.3c-0.1,0.1-0.2,0.2-0.3,0.2c-0.1,0.1-0.2,0.1-0.3,0.2c-0.1,0-0.2,0.1-0.3,0.1h-1.8l1.9-15h2.4l-1.2,9.9
		c0,0.3-0.1,0.7-0.2,1c-0.1,0.4-0.1,0.7-0.2,1.1c0.2-0.3,0.3-0.7,0.5-1c0.2-0.3,0.4-0.6,0.5-0.8L168.3,50.2z M165.7,47.4
		c0.3,0,0.5,0,0.6-0.1c0.2-0.1,0.3-0.1,0.4-0.3c0.1-0.1,0.2-0.3,0.3-0.5c0.1-0.2,0.1-0.5,0.2-0.8h1.2c0.1,0,0.3,0.1,0.3,0.2
		c0.1,0.1,0.1,0.3,0.1,0.4c0,0.3-0.1,0.7-0.3,0.9s-0.4,0.5-0.7,0.7c-0.3,0.2-0.6,0.3-1,0.4c-0.4,0.1-0.8,0.1-1.3,0.1
		c-0.5,0-0.9,0-1.2-0.1c-0.4-0.1-0.7-0.2-0.9-0.4c-0.2-0.2-0.4-0.4-0.5-0.7s-0.1-0.6-0.1-0.9c0-0.2,0.1-0.3,0.2-0.4
		c0.1-0.1,0.2-0.2,0.4-0.2h1.2c0,0.3,0,0.6,0,0.8c0,0.2,0.1,0.4,0.2,0.5c0.1,0.1,0.2,0.2,0.4,0.3C165.2,47.3,165.4,47.4,165.7,47.4z
		"/>
</g>
<g>
	<g>
		<path class="st1" d="M81.1,202.4l-0.9,7.6h-3.3l2.6-21h6.1c1.2,0,2.2,0.1,3,0.4c0.8,0.3,1.5,0.7,2.1,1.2c0.6,0.5,1,1.1,1.2,1.8
			c0.3,0.7,0.4,1.5,0.4,2.3c0,1.1-0.2,2.1-0.5,3.1c-0.4,0.9-0.9,1.7-1.6,2.4s-1.6,1.2-2.6,1.6c-1,0.4-2.3,0.6-3.6,0.6H81.1z
			 M82.5,191.6l-1,8.2h2.9c0.8,0,1.5-0.1,2.1-0.4c0.6-0.2,1.1-0.6,1.5-1c0.4-0.4,0.7-0.9,0.9-1.5c0.2-0.6,0.3-1.2,0.3-1.9
			c0-1-0.3-1.9-0.9-2.5s-1.5-0.9-2.8-0.9H82.5z"/>
		<path class="st1" d="M110.9,189l-0.3,2.7h-8.9l-0.8,6.5h7.1l-0.3,2.6h-7.1l-0.8,6.6h8.9l-0.3,2.7H96.1l2.6-21H110.9z"/>
		<path class="st1" d="M127.9,193.7c0,1.2-0.3,2.3-1,3.2c-0.6,0.9-1.5,1.6-2.7,2c1,0.4,1.7,1,2.2,1.8c0.5,0.8,0.8,1.6,0.8,2.6
			c0,1-0.2,1.9-0.5,2.7c-0.4,0.8-0.9,1.6-1.6,2.2s-1.5,1.1-2.5,1.5c-1,0.4-2,0.5-3.2,0.5c-0.7,0-1.4-0.1-2.1-0.2
			c-0.7-0.1-1.3-0.3-1.9-0.6c-0.6-0.2-1.1-0.5-1.6-0.9c-0.5-0.3-0.9-0.7-1.2-1.1l1.1-1.5c0.1-0.1,0.2-0.2,0.4-0.3
			c0.1-0.1,0.3-0.1,0.4-0.1c0.1,0,0.3,0.1,0.5,0.2c0.2,0.1,0.3,0.2,0.5,0.4c0.2,0.1,0.4,0.3,0.7,0.5c0.2,0.2,0.5,0.3,0.8,0.5
			c0.3,0.1,0.7,0.3,1.1,0.4c0.4,0.1,0.9,0.2,1.4,0.2c0.7,0,1.4-0.1,1.9-0.3c0.6-0.2,1-0.5,1.4-0.8c0.4-0.4,0.7-0.8,0.9-1.3
			c0.2-0.5,0.3-1.1,0.3-1.7c0-0.5-0.1-0.9-0.2-1.2c-0.2-0.4-0.4-0.7-0.7-1c-0.3-0.3-0.7-0.5-1.1-0.6c-0.5-0.1-1-0.2-1.6-0.2h-2.7
			l0.3-2.7h2.5c0.6,0,1.2-0.1,1.7-0.2c0.5-0.2,0.9-0.4,1.3-0.7c0.4-0.3,0.6-0.6,0.8-1.1c0.2-0.4,0.3-0.9,0.3-1.5
			c0-0.8-0.3-1.4-0.8-1.9c-0.5-0.5-1.3-0.7-2.4-0.7c-0.7,0-1.3,0.1-1.8,0.2s-1,0.3-1.4,0.5c-0.4,0.2-0.7,0.4-1,0.5
			c-0.3,0.2-0.5,0.2-0.7,0.2c-0.2,0-0.3,0-0.4-0.1c-0.1-0.1-0.2-0.2-0.3-0.4l-0.6-1.6c0.9-0.7,1.9-1.2,3-1.6
			c1.1-0.4,2.3-0.6,3.5-0.6c1,0,1.8,0.1,2.5,0.4c0.7,0.2,1.4,0.6,1.9,1c0.5,0.4,0.9,0.9,1.2,1.5C127.8,192.3,127.9,193,127.9,193.7z
			"/>
		<path class="st1" d="M135.4,207.5c0.2,0,0.4-0.1,0.7-0.3s0.4-0.3,0.6-0.5c0.2-0.2,0.4-0.5,0.6-0.9l1.1-1.9l-6-14.9h3
			c0.3,0,0.5,0.1,0.7,0.2c0.2,0.1,0.3,0.3,0.4,0.6l3.1,8.7c0.1,0.4,0.3,0.9,0.4,1.3c0.1,0.4,0.2,0.8,0.2,1.3
			c0.2-0.4,0.4-0.8,0.6-1.3c0.2-0.4,0.4-0.8,0.6-1.3l4.6-8.7c0.1-0.2,0.3-0.4,0.5-0.5c0.2-0.2,0.4-0.2,0.7-0.2h2.8l-10.1,18.2
			c-0.3,0.6-0.7,1.1-1,1.5c-0.3,0.4-0.7,0.7-1.1,0.9s-0.7,0.4-1.1,0.5c-0.4,0.1-0.8,0.1-1.2,0.1c-0.7,0-1.2-0.1-1.5-0.2
			c-0.3-0.1-0.5-0.4-0.4-0.7l0.2-1.8h1C134.9,207.5,135.1,207.5,135.4,207.5z"/>
		<path class="st1" d="M168.1,189l-2.6,21h-3.3l2.3-18.4h-5.7c-0.5,2.7-0.9,5-1.4,6.9c-0.5,2-0.9,3.6-1.4,5c-0.5,1.4-1,2.5-1.5,3.4
			c-0.5,0.9-1,1.5-1.6,2c-0.5,0.5-1.1,0.8-1.7,1s-1.2,0.3-1.8,0.3c-1.2,0-1.7-0.2-1.7-0.6l0.2-2.1h1c0.3,0,0.7-0.1,1-0.2
			c0.3-0.1,0.7-0.4,1.1-0.9c0.4-0.4,0.7-1.1,1.1-1.9c0.4-0.8,0.8-1.9,1.2-3.3c0.4-1.4,0.8-3.1,1.2-5.1c0.4-2,0.8-4.4,1.3-7.2H168.1z
			"/>
		<path class="st1" d="M178.4,189l-1.1,8.9h3.4c1.1,0,2.1,0.1,2.9,0.4c0.8,0.3,1.5,0.6,2,1c0.5,0.4,0.9,1,1.1,1.6
			c0.2,0.6,0.4,1.3,0.4,2c0,1.1-0.2,2-0.5,2.9c-0.4,0.9-0.9,1.6-1.6,2.3c-0.7,0.6-1.5,1.1-2.5,1.5c-1,0.3-2.1,0.5-3.3,0.5h-6.7
			l2.6-21H178.4z M177,200.5l-0.9,6.9h3.4c0.7,0,1.4-0.1,1.9-0.3c0.5-0.2,1-0.5,1.3-0.8c0.3-0.4,0.6-0.8,0.8-1.3
			c0.2-0.5,0.3-1.1,0.3-1.7c0-0.4-0.1-0.8-0.2-1.2c-0.1-0.3-0.3-0.6-0.6-0.9c-0.3-0.2-0.6-0.4-1.1-0.6c-0.4-0.1-1-0.2-1.6-0.2H177z"
			/>
		<path class="st1" d="M205.4,189l-0.4,2.7h-6l-2.3,18.3h-3.3l2.2-18.3h-6l0.3-2.7H205.4z"/>
		<path class="st1" d="M222.5,210h-2.6c-0.3,0-0.5-0.1-0.7-0.2c-0.2-0.1-0.3-0.3-0.3-0.6l-1-4.7h-8.2l-2.2,4.7
			c-0.1,0.2-0.3,0.4-0.5,0.5c-0.2,0.2-0.5,0.2-0.7,0.2h-2.6l10.3-21h3.4L222.5,210z M210.8,202.2h6.6l-1.7-7.9
			c-0.1-0.3-0.1-0.6-0.2-1c-0.1-0.4-0.1-0.8-0.2-1.3c-0.2,0.5-0.3,0.9-0.5,1.3c-0.2,0.4-0.3,0.8-0.5,1.1L210.8,202.2z"/>
		<path class="st1" d="M241.3,189l-0.4,2.7h-6l-2.3,18.3h-3.3l2.2-18.3h-6l0.3-2.7H241.3z"/>
		<path class="st1" d="M263.1,198.1c0,1.2-0.1,2.3-0.4,3.3c-0.3,1.1-0.6,2-1.1,2.9c-0.5,0.9-1.1,1.7-1.7,2.4
			c-0.7,0.7-1.4,1.3-2.3,1.9c-0.8,0.5-1.7,0.9-2.7,1.2c-1,0.3-2,0.4-3.1,0.4c-1.3,0-2.5-0.2-3.6-0.7c-1.1-0.5-2-1.1-2.7-1.9
			c-0.7-0.8-1.3-1.8-1.7-2.9c-0.4-1.1-0.6-2.4-0.6-3.7c0-1.2,0.1-2.3,0.4-3.4c0.3-1.1,0.6-2,1.1-2.9c0.5-0.9,1-1.7,1.7-2.5
			c0.7-0.7,1.4-1.3,2.3-1.9c0.8-0.5,1.7-0.9,2.7-1.2c1-0.3,2-0.4,3.1-0.4c1.3,0,2.5,0.2,3.6,0.7c1.1,0.5,2,1.1,2.7,1.9
			c0.7,0.8,1.3,1.8,1.7,2.9C262.9,195.5,263.1,196.8,263.1,198.1z M259.7,198.2c0-1-0.1-1.9-0.4-2.7s-0.6-1.5-1.1-2.1
			c-0.5-0.6-1.1-1-1.8-1.3c-0.7-0.3-1.5-0.5-2.3-0.5c-1.1,0-2.1,0.2-3,0.7c-0.9,0.4-1.7,1.1-2.4,1.9c-0.7,0.8-1.2,1.8-1.5,3
			c-0.4,1.2-0.5,2.4-0.5,3.8c0,1,0.1,1.9,0.4,2.7c0.3,0.8,0.6,1.5,1.1,2.1c0.5,0.6,1.1,1,1.7,1.3c0.7,0.3,1.5,0.5,2.3,0.5
			c1.1,0,2.1-0.2,3.1-0.7c0.9-0.4,1.7-1.1,2.4-1.9c0.7-0.8,1.2-1.8,1.5-2.9C259.5,200.9,259.7,199.6,259.7,198.2z"/>
		<path class="st1" d="M267.6,210l2.6-21h6.5c1.1,0,2.1,0.1,2.9,0.3c0.8,0.2,1.5,0.5,2,1c0.5,0.4,0.9,0.9,1.2,1.5
			c0.2,0.6,0.4,1.2,0.4,2c0,0.6-0.1,1.2-0.3,1.8c-0.2,0.6-0.4,1.1-0.8,1.5c-0.3,0.5-0.8,0.9-1.3,1.3c-0.5,0.4-1.2,0.7-1.9,0.9
			c1.2,0.3,2.1,0.8,2.7,1.5c0.6,0.7,0.9,1.6,0.9,2.6c0,1-0.2,1.9-0.5,2.7c-0.4,0.8-0.9,1.5-1.5,2.1c-0.7,0.6-1.5,1.1-2.5,1.4
			c-1,0.3-2.1,0.5-3.3,0.5H267.6z M272.1,200.6l-0.8,6.8h3.9c0.7,0,1.4-0.1,1.9-0.3c0.5-0.2,1-0.5,1.3-0.8c0.4-0.4,0.6-0.8,0.8-1.3
			c0.2-0.5,0.3-1.1,0.3-1.7c0-0.8-0.3-1.5-0.8-2c-0.6-0.5-1.4-0.7-2.6-0.7H272.1z M272.3,198.3h3.1c1.5,0,2.5-0.3,3.3-1
			c0.7-0.7,1.1-1.7,1.1-2.9c0-0.9-0.3-1.6-0.8-2.1c-0.6-0.4-1.4-0.7-2.6-0.7h-3.3L272.3,198.3z"/>
	</g>
</g>
<g>
	<path class="st1" d="M201.5,55h-11.6l-1.2,9.3h5.1c1.1,0,2.1,0.1,2.9,0.4c0.8,0.2,1.5,0.6,2,1.1c0.5,0.5,1,1,1.2,1.7
		c0.3,0.7,0.4,1.4,0.4,2.2c0,1.2-0.2,2.2-0.6,3.1c-0.4,0.9-0.9,1.7-1.6,2.4c-0.7,0.7-1.6,1.2-2.6,1.5c-1,0.3-2.2,0.5-3.4,0.5h-6.7
		l2.9-23.5h13.3L201.5,55z M188.5,65.6l-1.3,10.2h5c1,0,1.9-0.1,2.7-0.4c0.8-0.3,1.4-0.7,2-1.2c0.5-0.5,0.9-1.1,1.2-1.9
		c0.3-0.7,0.4-1.6,0.4-2.5c0-1.4-0.4-2.4-1.3-3.1c-0.8-0.7-2.1-1.1-3.8-1.1H188.5z"/>
	<path class="st1" d="M225.5,63.6c0,2.1-0.3,3.9-0.9,5.6c-0.6,1.7-1.5,3.1-2.5,4.3c-1.1,1.2-2.4,2.1-3.8,2.8c-1.5,0.7-3.1,1-4.8,1
		c-1.4,0-2.6-0.2-3.7-0.7c-1.1-0.5-2.1-1.2-2.8-2.1c-0.8-0.9-1.4-2-1.8-3.2c-0.4-1.2-0.6-2.6-0.6-4.1c0-2.1,0.3-3.9,0.9-5.6
		c0.6-1.7,1.5-3.2,2.5-4.4c1.1-1.2,2.3-2.1,3.8-2.8c1.5-0.7,3.1-1,4.8-1c1.4,0,2.6,0.2,3.8,0.7c1.1,0.5,2.1,1.2,2.9,2.1
		c0.8,0.9,1.4,2,1.8,3.2S225.5,62.1,225.5,63.6z M223.8,63.6c0-1.4-0.2-2.6-0.5-3.7c-0.4-1.1-0.9-2-1.5-2.8
		c-0.7-0.8-1.5-1.4-2.4-1.8c-0.9-0.4-2-0.6-3.1-0.6c-1.4,0-2.8,0.3-4,0.9s-2.3,1.4-3.2,2.5s-1.6,2.4-2.1,3.9s-0.8,3.2-0.8,5.1
		c0,1.4,0.2,2.6,0.5,3.7c0.4,1.1,0.9,2,1.5,2.8c0.7,0.8,1.4,1.4,2.4,1.8c0.9,0.4,2,0.6,3.1,0.6c1.5,0,2.8-0.3,4.1-0.9
		c1.2-0.6,2.3-1.4,3.2-2.5c0.9-1.1,1.6-2.4,2.1-3.9C223.5,67.3,223.8,65.5,223.8,63.6z"/>
	<path class="st1" d="M246.7,53.7l-2.9,23.5h-1.7l2.7-22.1h-8.6c-0.5,3.1-1,5.8-1.5,8.1c-0.5,2.3-1,4.3-1.5,6c-0.5,1.7-1,3-1.6,4.1
		c-0.5,1.1-1.1,1.9-1.6,2.5c-0.6,0.6-1.1,1-1.7,1.3c-0.6,0.2-1.2,0.4-1.8,0.4c-0.3,0-0.6,0-0.9-0.1c-0.2-0.1-0.4-0.2-0.3-0.3l0.1-1
		h0.9c0.5,0,0.9-0.1,1.4-0.3c0.5-0.2,0.9-0.6,1.4-1.2c0.5-0.6,0.9-1.4,1.4-2.5c0.5-1.1,0.9-2.4,1.4-4.1c0.5-1.6,1-3.6,1.4-5.9
		c0.5-2.3,1-5,1.5-8.2H246.7z"/>
	<path class="st1" d="M266.2,55h-11.4l-1.2,9.6h9.5l-0.2,1.3h-9.5l-1.2,9.9h11.4l-0.2,1.4h-13.1l2.9-23.5h13.1L266.2,55z"/>
	<path class="st1" d="M284.2,55h-11.4l-1.2,9.6h9.5l-0.2,1.3h-9.5l-1.2,9.9h11.4l-0.2,1.4h-13.1l2.9-23.5h13.1L284.2,55z"/>
</g>
<g>
	<path class="st1" d="M12.8,176.1H10l1.9-15.3H4.5l-1.9,15.3h-2.8l2.2-17.4h12.9L12.8,176.1z"/>
	<path class="st1" d="M35.1,166.2c0,1-0.1,1.9-0.3,2.8c-0.2,0.9-0.5,1.7-0.9,2.4c-0.4,0.7-0.9,1.4-1.4,2c-0.6,0.6-1.2,1.1-1.9,1.5
		c-0.7,0.4-1.4,0.7-2.2,1c-0.8,0.2-1.7,0.3-2.5,0.3c-1.1,0-2.1-0.2-3-0.6c-0.9-0.4-1.6-0.9-2.2-1.6c-0.6-0.7-1.1-1.5-1.4-2.4
		c-0.3-0.9-0.5-2-0.5-3.1c0-1,0.1-1.9,0.3-2.8c0.2-0.9,0.5-1.7,0.9-2.4c0.4-0.7,0.9-1.4,1.4-2c0.6-0.6,1.2-1.1,1.9-1.5
		c0.7-0.4,1.4-0.7,2.2-1c0.8-0.2,1.7-0.3,2.5-0.3c1.1,0,2.1,0.2,3,0.6c0.9,0.4,1.6,0.9,2.2,1.6c0.6,0.7,1.1,1.5,1.4,2.4
		C34.9,164.1,35.1,165.1,35.1,166.2z M32.3,166.2c0-0.8-0.1-1.6-0.3-2.3c-0.2-0.7-0.5-1.2-0.9-1.7c-0.4-0.5-0.9-0.8-1.5-1.1
		c-0.6-0.3-1.2-0.4-1.9-0.4c-0.9,0-1.8,0.2-2.5,0.5c-0.8,0.4-1.4,0.9-1.9,1.6c-0.5,0.7-1,1.5-1.3,2.4c-0.3,1-0.4,2-0.4,3.2
		c0,0.8,0.1,1.6,0.3,2.3c0.2,0.7,0.5,1.2,0.9,1.7c0.4,0.5,0.9,0.8,1.4,1.1c0.6,0.3,1.2,0.4,1.9,0.4c0.9,0,1.8-0.2,2.5-0.5
		c0.8-0.4,1.4-0.9,2-1.6c0.5-0.7,1-1.5,1.3-2.4C32.1,168.5,32.3,167.4,32.3,166.2z"/>
	<path class="st1" d="M51.3,158.7L51,161h-5l-1.9,15.1h-2.7l1.9-15.1h-5l0.3-2.3H51.3z"/>
	<path class="st1" d="M56.9,169.8l-0.8,6.3h-2.7l2.1-17.4h5.1c1,0,1.8,0.1,2.5,0.3c0.7,0.2,1.3,0.6,1.7,1c0.5,0.4,0.8,0.9,1,1.5
		c0.2,0.6,0.3,1.2,0.3,1.9c0,0.9-0.1,1.8-0.4,2.6c-0.3,0.8-0.7,1.4-1.3,2c-0.6,0.6-1.3,1-2.2,1.3c-0.9,0.3-1.9,0.5-3,0.5H56.9z
		 M58,160.8l-0.8,6.8h2.4c0.6,0,1.2-0.1,1.7-0.3c0.5-0.2,0.9-0.5,1.2-0.8c0.3-0.4,0.6-0.8,0.7-1.3c0.2-0.5,0.2-1,0.2-1.6
		c0-0.9-0.3-1.5-0.8-2s-1.3-0.8-2.3-0.8H58z"/>
	<path class="st1" d="M77.7,176.1l0.9-7.4h-1.8c-0.2,0-0.4,0-0.5,0.1c-0.2,0-0.3,0.1-0.5,0.2c-0.2,0.1-0.3,0.2-0.5,0.4
		c-0.2,0.2-0.4,0.4-0.5,0.6l-3.7,5.1c-0.2,0.3-0.5,0.5-0.8,0.7c-0.3,0.2-0.7,0.3-1.1,0.3h-2.1l4.6-6.2c0.3-0.4,0.6-0.7,0.9-1
		c0.3-0.3,0.6-0.5,1-0.6c-0.5-0.1-1-0.3-1.4-0.6c-0.4-0.2-0.7-0.5-1-0.9c-0.3-0.3-0.5-0.7-0.6-1.1s-0.2-0.9-0.2-1.3
		c0-0.8,0.1-1.6,0.5-2.3c0.3-0.7,0.7-1.3,1.3-1.8c0.6-0.5,1.2-0.9,2-1.2c0.8-0.3,1.7-0.4,2.7-0.4h5.6l-2.2,17.4H77.7z M73.2,164.2
		c0,0.4,0.1,0.7,0.2,1c0.1,0.3,0.3,0.5,0.5,0.7c0.2,0.2,0.5,0.4,0.9,0.5c0.4,0.1,0.8,0.2,1.3,0.2h2.9l0.7-5.7h-2.9
		c-1.2,0-2.1,0.3-2.7,0.9C73.5,162.3,73.2,163.2,73.2,164.2z"/>
	<path class="st1" d="M93.5,173.9c0.5,0,1,0,1.4-0.1c0.4-0.1,0.7-0.2,1-0.3c0.3-0.1,0.5-0.3,0.7-0.4c0.2-0.1,0.4-0.3,0.5-0.4
		c0.2-0.1,0.3-0.2,0.4-0.3c0.1-0.1,0.2-0.1,0.3-0.1c0.1,0,0.2,0,0.2,0.1c0.1,0,0.1,0.1,0.1,0.1l1,1.2c-0.8,0.8-1.6,1.5-2.7,2
		c-1,0.5-2.2,0.7-3.5,0.7c-1.1,0-2-0.2-2.8-0.6c-0.8-0.4-1.5-0.9-2.1-1.6c-0.6-0.7-1-1.5-1.3-2.4c-0.3-0.9-0.5-1.9-0.5-3
		c0-1.5,0.2-2.9,0.7-4.1c0.5-1.3,1.1-2.3,2-3.2c0.8-0.9,1.8-1.6,2.9-2.1c1.1-0.5,2.3-0.7,3.6-0.7c0.6,0,1.2,0.1,1.7,0.2
		c0.5,0.1,1,0.3,1.4,0.5s0.8,0.5,1.1,0.7c0.3,0.3,0.7,0.6,0.9,1l-0.9,1.1c-0.1,0.1-0.2,0.2-0.3,0.2c-0.1,0.1-0.2,0.1-0.4,0.1
		c-0.1,0-0.2,0-0.3-0.1c-0.1-0.1-0.2-0.2-0.4-0.3c-0.1-0.1-0.3-0.2-0.5-0.4c-0.2-0.1-0.4-0.2-0.6-0.4c-0.2-0.1-0.5-0.2-0.9-0.3
		c-0.3-0.1-0.7-0.1-1.2-0.1c-0.9,0-1.7,0.2-2.5,0.5c-0.8,0.4-1.4,0.9-2,1.5c-0.6,0.7-1,1.5-1.3,2.4c-0.3,0.9-0.5,2-0.5,3.2
		c0,0.8,0.1,1.6,0.3,2.3c0.2,0.7,0.5,1.2,0.9,1.7c0.4,0.5,0.9,0.8,1.4,1.1C92.3,173.8,92.9,173.9,93.5,173.9z"/>
	<path class="st1" d="M117.1,176.1H115c-0.2,0-0.4-0.1-0.6-0.2c-0.1-0.1-0.2-0.3-0.3-0.5l-0.8-3.9h-6.8l-1.8,3.9
		c-0.1,0.2-0.2,0.3-0.4,0.4c-0.2,0.1-0.4,0.2-0.6,0.2h-2.1l8.5-17.4h2.8L117.1,176.1z M107.4,169.6h5.5l-1.4-6.5
		c0-0.2-0.1-0.5-0.2-0.9c-0.1-0.3-0.1-0.7-0.2-1.1c-0.1,0.4-0.3,0.7-0.4,1.1c-0.1,0.3-0.3,0.6-0.4,0.9L107.4,169.6z"/>
	<path class="st1" d="M125,166.3h3.4c0.2-1.2,0.6-2.2,1.1-3.2c0.5-1,1.1-1.8,1.9-2.5c0.7-0.7,1.6-1.2,2.5-1.6c0.9-0.4,2-0.6,3.1-0.6
		c1,0,2,0.2,2.8,0.6c0.8,0.4,1.5,0.9,2.1,1.6c0.6,0.7,1,1.5,1.3,2.4c0.3,0.9,0.4,1.9,0.4,3c0,1.5-0.2,2.8-0.6,4.1
		c-0.4,1.2-1,2.3-1.8,3.2c-0.8,0.9-1.7,1.6-2.8,2.1c-1.1,0.5-2.2,0.8-3.5,0.8c-1,0-2-0.2-2.8-0.6c-0.8-0.4-1.5-0.9-2.1-1.6
		c-0.6-0.7-1-1.5-1.3-2.4c-0.3-0.9-0.4-1.9-0.4-3v-0.2h-3.5l-0.9,7.6h-2.8l2.1-17.4h2.8L125,166.3z M135,174c0.9,0,1.6-0.2,2.3-0.6
		c0.7-0.4,1.3-0.9,1.8-1.6c0.5-0.7,0.9-1.5,1.2-2.5c0.3-1,0.4-2.1,0.4-3.3c0-0.8-0.1-1.5-0.3-2.2c-0.2-0.7-0.4-1.2-0.8-1.7
		c-0.3-0.5-0.8-0.8-1.3-1.1c-0.5-0.3-1.1-0.4-1.7-0.4c-0.9,0-1.6,0.2-2.3,0.6c-0.7,0.4-1.3,0.9-1.8,1.6c-0.5,0.7-0.9,1.5-1.2,2.5
		c-0.3,1-0.4,2-0.4,3.2c0,0.8,0.1,1.5,0.3,2.2c0.2,0.7,0.4,1.2,0.8,1.7c0.3,0.5,0.8,0.8,1.3,1.1C133.8,173.9,134.4,174,135,174z"/>
	<path class="st1" d="M147.3,176.1l2.2-17.4h2.8l-1.9,15.3h6.1l1.9-15.3h2.8l-1.9,15.3h6.1l1.9-15.3h2.8L168,174h2.4l-0.7,5.5
		c0,0.2-0.1,0.4-0.3,0.6c-0.2,0.1-0.4,0.2-0.7,0.2h-1.6l0.5-4.2H147.3z"/>
	<path class="st1" d="M186.9,159.5c0.1-0.1,0.2-0.2,0.3-0.3c0.1-0.1,0.2-0.2,0.3-0.3c0.1-0.1,0.2-0.1,0.4-0.2c0.1,0,0.3-0.1,0.4-0.1
		h2.1l-2.2,17.4h-2.8l1.4-11.4c0-0.4,0.1-0.8,0.2-1.2c0.1-0.4,0.2-0.8,0.3-1.3c-0.2,0.4-0.4,0.8-0.6,1.1c-0.2,0.3-0.4,0.6-0.6,0.9
		l-8,11c-0.1,0.1-0.2,0.2-0.3,0.3c-0.1,0.1-0.2,0.2-0.3,0.3c-0.1,0.1-0.2,0.1-0.4,0.2c-0.1,0.1-0.3,0.1-0.4,0.1h-2l2.2-17.4h2.8
		l-1.4,11.4c0,0.4-0.1,0.8-0.2,1.2c-0.1,0.4-0.2,0.8-0.3,1.3c0.2-0.4,0.4-0.8,0.6-1.1s0.4-0.6,0.6-0.9L186.9,159.5z"/>
	<path class="st1" d="M198.8,166.8l-4-8.1h2.5c0.2,0,0.3,0,0.4,0.1c0.1,0.1,0.2,0.2,0.2,0.3l2.9,6.3c0-0.1,0.1-0.2,0.1-0.2
		c0-0.1,0.1-0.2,0.2-0.3l4.1-5.7c0.1-0.1,0.2-0.2,0.3-0.3c0.1-0.1,0.2-0.1,0.4-0.1h2.8l-6,8l4.5,9.4h-2.5c-0.2,0-0.3-0.1-0.4-0.2
		c-0.1-0.1-0.2-0.2-0.2-0.3l-3.3-7.3c0,0.1-0.1,0.1-0.1,0.2c0,0.1-0.1,0.1-0.1,0.2l-4.9,6.9c-0.1,0.2-0.3,0.3-0.4,0.4
		c-0.1,0.1-0.3,0.1-0.5,0.1H192L198.8,166.8z"/>
</g>
<g>
	<path class="st1" d="M36.6,140.2h11l5.2-42.3c0-0.4,0.1-0.8,0.2-1.3c0.1-0.4,0.2-0.9,0.3-1.3l-11.7,10.2c-0.4,0.3-0.8,0.4-1.1,0.3
		c-0.3-0.1-0.6-0.2-0.7-0.4l-0.8-1.4l15.5-13.2h2.7L51,140.2h10.4l-0.3,2.6H36.3L36.6,140.2z"/>
	<path class="st1" d="M107.5,111.2c0,5.4-0.6,10.2-1.7,14.2c-1.1,4-2.7,7.4-4.6,10c-1.9,2.7-4.2,4.6-6.7,5.9c-2.5,1.3-5.2,2-7.9,2
		c-2.1,0-4-0.4-5.8-1.3c-1.8-0.9-3.3-2.2-4.6-3.9c-1.3-1.7-2.3-3.9-3-6.5c-0.7-2.6-1.1-5.6-1.1-9.1c0-5.4,0.6-10.2,1.7-14.2
		c1.1-4,2.7-7.4,4.6-10c1.9-2.7,4.2-4.7,6.7-6c2.5-1.3,5.2-2,8-2c2.1,0,4,0.4,5.7,1.3c1.8,0.9,3.3,2.2,4.6,3.9
		c1.3,1.7,2.3,3.9,3,6.5S107.5,107.7,107.5,111.2z M104,111c0-3.1-0.3-5.7-0.9-8c-0.6-2.2-1.4-4.1-2.4-5.5c-1-1.5-2.2-2.5-3.6-3.2
		c-1.4-0.7-2.8-1.1-4.4-1.1c-2.2,0-4.3,0.6-6.4,1.7c-2.1,1.1-3.9,2.9-5.5,5.3c-1.6,2.4-2.9,5.4-3.8,9.2c-1,3.7-1.4,8.2-1.4,13.3
		c0,3.1,0.3,5.7,0.9,8c0.6,2.2,1.4,4.1,2.4,5.6c1,1.5,2.2,2.5,3.6,3.2c1.4,0.7,2.8,1,4.4,1c2.2,0,4.3-0.6,6.4-1.7
		c2.1-1.1,3.9-2.9,5.5-5.3c1.6-2.4,2.9-5.4,3.8-9.1C103.5,120.7,104,116.2,104,111z"/>
	<path class="st1" d="M147.4,111.2c0,5.4-0.6,10.2-1.7,14.2c-1.1,4-2.7,7.4-4.6,10c-1.9,2.7-4.2,4.6-6.7,5.9c-2.5,1.3-5.2,2-7.9,2
		c-2.1,0-4-0.4-5.8-1.3c-1.8-0.9-3.3-2.2-4.6-3.9c-1.3-1.7-2.3-3.9-3-6.5c-0.7-2.6-1.1-5.6-1.1-9.1c0-5.4,0.6-10.2,1.7-14.2
		c1.1-4,2.7-7.4,4.6-10c1.9-2.7,4.2-4.7,6.7-6c2.5-1.3,5.2-2,8-2c2.1,0,4,0.4,5.7,1.3c1.8,0.9,3.3,2.2,4.6,3.9
		c1.3,1.7,2.3,3.9,3,6.5S147.4,107.7,147.4,111.2z M143.8,111c0-3.1-0.3-5.7-0.9-8c-0.6-2.2-1.4-4.1-2.4-5.5c-1-1.5-2.2-2.5-3.6-3.2
		c-1.4-0.7-2.8-1.1-4.4-1.1c-2.2,0-4.3,0.6-6.4,1.7c-2.1,1.1-3.9,2.9-5.5,5.3c-1.6,2.4-2.9,5.4-3.8,9.2c-1,3.7-1.4,8.2-1.4,13.3
		c0,3.1,0.3,5.7,0.9,8c0.6,2.2,1.4,4.1,2.4,5.6c1,1.5,2.2,2.5,3.6,3.2c1.4,0.7,2.8,1,4.4,1c2.2,0,4.3-0.6,6.4-1.7
		c2.1-1.1,3.9-2.9,5.5-5.3c1.6-2.4,2.9-5.4,3.8-9.1C143.3,120.7,143.8,116.2,143.8,111z"/>
	<path class="st1" d="M202.9,111.2c0,5.4-0.6,10.2-1.7,14.2c-1.1,4-2.7,7.4-4.6,10c-1.9,2.7-4.2,4.6-6.7,5.9c-2.5,1.3-5.2,2-7.9,2
		c-2.1,0-4-0.4-5.8-1.3c-1.8-0.9-3.3-2.2-4.6-3.9c-1.3-1.7-2.3-3.9-3-6.5c-0.7-2.6-1.1-5.6-1.1-9.1c0-5.4,0.6-10.2,1.7-14.2
		c1.1-4,2.7-7.4,4.6-10c1.9-2.7,4.2-4.7,6.7-6c2.5-1.3,5.2-2,8-2c2.1,0,4,0.4,5.7,1.3c1.8,0.9,3.3,2.2,4.6,3.9
		c1.3,1.7,2.3,3.9,3,6.5C202.5,104.7,202.9,107.7,202.9,111.2z M199.3,111c0-3.1-0.3-5.7-0.9-8c-0.6-2.2-1.4-4.1-2.4-5.5
		c-1-1.5-2.2-2.5-3.6-3.2c-1.4-0.7-2.8-1.1-4.4-1.1c-2.2,0-4.3,0.6-6.4,1.7c-2.1,1.1-3.9,2.9-5.5,5.3s-2.9,5.4-3.8,9.2
		c-1,3.7-1.4,8.2-1.4,13.3c0,3.1,0.3,5.7,0.9,8c0.6,2.2,1.4,4.1,2.4,5.6c1,1.5,2.2,2.5,3.6,3.2c1.4,0.7,2.8,1,4.4,1
		c2.2,0,4.3-0.6,6.4-1.7c2.1-1.1,3.9-2.9,5.5-5.3c1.6-2.4,2.9-5.4,3.8-9.1C198.9,120.7,199.3,116.2,199.3,111z"/>
	<path class="st1" d="M242.8,111.2c0,5.4-0.6,10.2-1.7,14.2c-1.1,4-2.7,7.4-4.6,10c-1.9,2.7-4.2,4.6-6.7,5.9c-2.5,1.3-5.2,2-7.9,2
		c-2.1,0-4-0.4-5.8-1.3c-1.8-0.9-3.3-2.2-4.6-3.9c-1.3-1.7-2.3-3.9-3-6.5c-0.7-2.6-1.1-5.6-1.1-9.1c0-5.4,0.6-10.2,1.7-14.2
		c1.1-4,2.7-7.4,4.6-10c1.9-2.7,4.2-4.7,6.7-6c2.5-1.3,5.2-2,8-2c2.1,0,4,0.4,5.7,1.3c1.8,0.9,3.3,2.2,4.6,3.9
		c1.3,1.7,2.3,3.9,3,6.5S242.8,107.7,242.8,111.2z M239.2,111c0-3.1-0.3-5.7-0.9-8c-0.6-2.2-1.4-4.1-2.4-5.5c-1-1.5-2.2-2.5-3.6-3.2
		c-1.4-0.7-2.8-1.1-4.4-1.1c-2.2,0-4.3,0.6-6.4,1.7c-2.1,1.1-3.9,2.9-5.5,5.3s-2.9,5.4-3.8,9.2c-1,3.7-1.4,8.2-1.4,13.3
		c0,3.1,0.3,5.7,0.9,8c0.6,2.2,1.4,4.1,2.4,5.6c1,1.5,2.2,2.5,3.6,3.2c1.4,0.7,2.8,1,4.4,1c2.2,0,4.3-0.6,6.4-1.7
		c2.1-1.1,3.9-2.9,5.5-5.3c1.6-2.4,2.9-5.4,3.8-9.1C238.7,120.7,239.2,116.2,239.2,111z"/>
	<path class="st1" d="M282.6,111.2c0,5.4-0.6,10.2-1.7,14.2c-1.1,4-2.7,7.4-4.6,10c-1.9,2.7-4.2,4.6-6.7,5.9c-2.5,1.3-5.2,2-7.9,2
		c-2.1,0-4-0.4-5.8-1.3c-1.8-0.9-3.3-2.2-4.6-3.9c-1.3-1.7-2.3-3.9-3-6.5c-0.7-2.6-1.1-5.6-1.1-9.1c0-5.4,0.6-10.2,1.7-14.2
		c1.1-4,2.7-7.4,4.6-10c1.9-2.7,4.2-4.7,6.7-6c2.5-1.3,5.2-2,8-2c2.1,0,4,0.4,5.7,1.3c1.8,0.9,3.3,2.2,4.6,3.9
		c1.3,1.7,2.3,3.9,3,6.5S282.6,107.7,282.6,111.2z M279.1,111c0-3.1-0.3-5.7-0.9-8c-0.6-2.2-1.4-4.1-2.4-5.5c-1-1.5-2.2-2.5-3.6-3.2
		c-1.4-0.7-2.8-1.1-4.4-1.1c-2.2,0-4.3,0.6-6.4,1.7c-2.1,1.1-3.9,2.9-5.5,5.3c-1.6,2.4-2.9,5.4-3.8,9.2c-1,3.7-1.4,8.2-1.4,13.3
		c0,3.1,0.3,5.7,0.9,8c0.6,2.2,1.4,4.1,2.4,5.6c1,1.5,2.2,2.5,3.6,3.2c1.4,0.7,2.8,1,4.4,1c2.2,0,4.3-0.6,6.4-1.7
		c2.1-1.1,3.9-2.9,5.5-5.3c1.6-2.4,2.9-5.4,3.8-9.1C278.6,120.7,279.1,116.2,279.1,111z"/>
</g>
</svg>
