<?xml version="1.0" encoding="utf-8"?>
<!-- Generator: Adobe Illustrator 20.1.0, SVG Export Plug-In . SVG Version: 6.00 Build 0)  -->
<svg version="1.1" id="Слой_1" xmlns="http://www.w3.org/2000/svg" xmlns:xlink="http://www.w3.org/1999/xlink" x="0px" y="0px"
	 viewBox="0 0 344 156" style="enable-background:new 0 0 344 156;" xml:space="preserve">
<style type="text/css">
	.st0{fill:#FFFFFF;}
	.st1{fill:#E63B23;}
</style>
<g>
	<path class="st0" d="M17.6,114.2c1.5,0,2.9-0.1,4.1-0.4c1.2-0.3,2.3-0.6,3.3-1c0.9-0.4,1.8-0.8,2.4-1.3c0.7-0.4,1.3-0.9,1.8-1.3
		c0.5-0.4,0.9-0.7,1.2-1c0.3-0.3,0.5-0.4,0.7-0.4c0.2,0,0.3,0.1,0.4,0.2l1.1,1.3c-1.9,1.9-4.2,3.5-6.7,4.7c-2.5,1.2-5.5,1.7-8.8,1.7
		c-2.6,0-4.9-0.5-7-1.4c-2.1-0.9-3.8-2.2-5.3-3.9c-1.5-1.7-2.6-3.7-3.4-6.1c-0.8-2.4-1.2-5-1.2-7.9c0-3.9,0.6-7.4,1.8-10.6
		c1.2-3.2,2.8-6,4.9-8.3c2.1-2.3,4.5-4.1,7.3-5.3c2.8-1.3,5.8-1.9,9.1-1.9c1.5,0,2.9,0.1,4.1,0.4c1.2,0.2,2.3,0.6,3.4,1
		c1,0.5,2,1,2.8,1.7c0.9,0.7,1.7,1.5,2.5,2.4l-1,1.3c-0.2,0.3-0.5,0.4-0.8,0.4c-0.2,0-0.4-0.1-0.6-0.3c-0.2-0.2-0.5-0.5-0.9-0.8
		c-0.4-0.3-0.8-0.7-1.4-1.1c-0.5-0.4-1.2-0.7-2-1.1c-0.8-0.3-1.7-0.6-2.7-0.8c-1-0.2-2.2-0.3-3.6-0.3c-2.8,0-5.4,0.5-7.8,1.6
		c-2.4,1.1-4.5,2.6-6.2,4.6c-1.8,2-3.2,4.4-4.2,7.3c-1,2.9-1.5,6.1-1.5,9.6c0,2.6,0.3,4.9,1,7c0.7,2.1,1.7,3.8,2.9,5.3
		c1.2,1.5,2.7,2.6,4.5,3.3C13.7,113.8,15.6,114.2,17.6,114.2z"/>
	<path class="st0" d="M69.1,71.5c1.5,0,2.8,0.2,4.1,0.7c1.3,0.4,2.4,1.1,3.3,1.9c0.9,0.9,1.7,1.9,2.2,3.2c0.5,1.3,0.8,2.8,0.8,4.5
		c0,1.9-0.3,3.7-0.9,5.3c-0.6,1.6-1.4,3.1-2.4,4.5c-1,1.4-2.2,2.8-3.5,4.2c-1.3,1.3-2.7,2.7-4.2,4.2l-14.7,14.3
		c0.7-0.1,1.3-0.3,2.1-0.4c0.7-0.1,1.5-0.1,2.2-0.1h17.5c0.3,0,0.6,0.1,0.8,0.3c0.2,0.2,0.2,0.4,0.2,0.8l-0.2,1.7H49.7l0.2-1
		c0-0.2,0.1-0.5,0.2-0.7c0.1-0.2,0.3-0.4,0.5-0.6l15.9-15.4c1.5-1.4,2.8-2.8,4-4.1c1.2-1.3,2.3-2.6,3.2-3.9c0.9-1.3,1.6-2.7,2.1-4.1
		c0.5-1.4,0.8-2.9,0.8-4.6c0-1.4-0.2-2.6-0.6-3.6c-0.4-1-1-1.9-1.7-2.5c-0.7-0.7-1.6-1.2-2.5-1.5c-1-0.3-2-0.5-3-0.5
		c-1.3,0-2.5,0.2-3.6,0.6c-1.1,0.4-2.2,1-3.1,1.8c-0.9,0.8-1.7,1.7-2.4,2.7c-0.7,1.1-1.2,2.2-1.6,3.5c-0.2,0.4-0.4,0.7-0.6,0.9
		c-0.3,0.1-0.6,0.2-1,0.2l-1.5-0.2c0.5-1.9,1.2-3.6,2.1-5c0.9-1.5,2-2.7,3.2-3.8c1.2-1,2.6-1.8,4.1-2.4
		C65.8,71.8,67.4,71.5,69.1,71.5z"/>
	<path class="st0" d="M115.1,89.3c0,4.7-0.5,8.7-1.5,12.2s-2.3,6.3-3.9,8.6c-1.7,2.3-3.6,4-5.7,5.1c-2.2,1.1-4.4,1.7-6.8,1.7
		c-1.8,0-3.4-0.4-4.9-1.1c-1.5-0.7-2.8-1.9-3.9-3.3c-1.1-1.5-2-3.3-2.6-5.6c-0.6-2.2-0.9-4.8-0.9-7.8c0-4.6,0.5-8.7,1.5-12.1
		c1-3.4,2.3-6.3,3.9-8.6c1.7-2.3,3.6-4,5.7-5.1c2.2-1.1,4.4-1.7,6.8-1.7c1.8,0,3.4,0.4,4.9,1.1c1.5,0.7,2.8,1.9,3.9,3.3
		c1.1,1.5,2,3.3,2.6,5.6C114.8,83.8,115.1,86.4,115.1,89.3z M112.1,89.2c0-2.6-0.2-4.9-0.7-6.8c-0.5-1.9-1.2-3.5-2.1-4.7
		c-0.9-1.2-1.9-2.2-3.1-2.8c-1.2-0.6-2.4-0.9-3.8-0.9c-1.9,0-3.7,0.5-5.4,1.4c-1.8,1-3.3,2.5-4.7,4.5c-1.4,2-2.4,4.7-3.3,7.8
		c-0.8,3.2-1.2,7-1.2,11.4c0,2.6,0.2,4.9,0.7,6.8c0.5,1.9,1.2,3.5,2.1,4.7c0.9,1.2,1.9,2.2,3.1,2.8c1.2,0.6,2.4,0.9,3.8,0.9
		c1.9,0,3.7-0.5,5.4-1.4c1.8-1,3.3-2.5,4.7-4.5s2.4-4.6,3.3-7.8C111.7,97.4,112.1,93.6,112.1,89.2z"/>
	<path class="st0" d="M122.7,114.1h9.4l4.5-36.2c0-0.4,0.1-0.7,0.2-1.1c0.1-0.4,0.1-0.7,0.2-1.1l-10,8.7c-0.3,0.2-0.6,0.3-0.9,0.3
		c-0.3-0.1-0.5-0.2-0.6-0.3l-0.7-1.2L138,71.8h2.3l-5.2,42.3h8.9l-0.3,2.2h-21.3L122.7,114.1z"/>
	<path class="st0" d="M171.4,71.5c1.5,0,2.8,0.2,4.1,0.6c1.3,0.4,2.3,1,3.3,1.8c0.9,0.8,1.7,1.8,2.2,3c0.5,1.2,0.8,2.6,0.8,4.2
		c0,1.7-0.3,3.2-0.8,4.5c-0.5,1.3-1.2,2.5-2.1,3.5c-0.9,1-1.9,1.8-3,2.5c-1.2,0.7-2.4,1.2-3.8,1.5c1.3,0.3,2.5,0.7,3.5,1.3
		c1,0.6,1.8,1.3,2.5,2.1c0.7,0.8,1.2,1.7,1.5,2.8c0.3,1,0.5,2.2,0.5,3.4c0,2-0.4,3.9-1.2,5.6c-0.8,1.7-1.9,3.2-3.2,4.5
		c-1.4,1.3-2.9,2.3-4.7,3c-1.8,0.7-3.7,1.1-5.7,1.1c-2.3,0-4.2-0.3-5.7-1c-1.5-0.7-2.7-1.6-3.5-2.6c-0.9-1.1-1.5-2.3-1.9-3.7
		c-0.4-1.3-0.7-2.7-0.9-4l1.2-0.5c0.4-0.1,0.7-0.2,1.1-0.1c0.3,0.1,0.6,0.3,0.7,0.7c0.1,0.3,0.2,0.6,0.3,1.2
		c0.1,0.5,0.3,1.1,0.5,1.8c0.2,0.6,0.5,1.3,0.9,2c0.4,0.7,0.9,1.3,1.6,1.9c0.7,0.6,1.5,1,2.5,1.4c1,0.4,2.2,0.5,3.6,0.5
		c1.9,0,3.5-0.3,5-1c1.5-0.7,2.7-1.6,3.7-2.7c1-1.1,1.8-2.4,2.3-3.7c0.5-1.4,0.8-2.7,0.8-4.1c0-1.1-0.2-2.2-0.6-3.2
		c-0.4-1-1-1.8-1.8-2.6c-0.9-0.7-2-1.3-3.3-1.7c-1.4-0.4-3-0.6-5-0.6l0.3-2.1c1.9,0,3.6-0.3,5.1-0.8c1.5-0.5,2.8-1.3,3.8-2.2
		c1-0.9,1.8-2.1,2.4-3.4c0.5-1.3,0.8-2.8,0.8-4.4c0-1.3-0.2-2.5-0.6-3.4c-0.4-1-1-1.8-1.7-2.4c-0.7-0.6-1.5-1.1-2.5-1.4
		c-0.9-0.3-2-0.5-3-0.5c-1.3,0-2.5,0.2-3.6,0.6c-1.1,0.4-2.2,1-3.1,1.8c-0.9,0.8-1.7,1.7-2.4,2.7c-0.7,1.1-1.2,2.2-1.6,3.5
		c-0.2,0.4-0.4,0.7-0.6,0.9c-0.2,0.1-0.6,0.2-1,0.2l-1.5-0.2c0.5-1.9,1.2-3.6,2.1-5c0.9-1.5,2-2.7,3.2-3.8c1.2-1,2.6-1.8,4.1-2.4
		C168.1,71.8,169.7,71.5,171.4,71.5z"/>
	<path class="st0" d="M230.1,74.5h-21l-5.2,41.8h-3.2l5.5-44.3h24.1L230.1,74.5z"/>
	<path class="st0" d="M267.3,90.8c0,3.9-0.6,7.5-1.7,10.7c-1.1,3.2-2.7,5.9-4.8,8.2c-2,2.3-4.5,4-7.2,5.3c-2.8,1.3-5.8,1.9-9,1.9
		c-2.6,0-5-0.5-7.1-1.4c-2.1-0.9-3.9-2.2-5.4-3.9c-1.5-1.7-2.6-3.7-3.4-6.1c-0.8-2.4-1.2-5-1.2-7.8c0-3.9,0.6-7.4,1.7-10.6
		c1.2-3.2,2.8-6,4.8-8.2c2-2.3,4.4-4.1,7.2-5.3c2.8-1.3,5.8-1.9,9-1.9c2.6,0,5,0.5,7.1,1.4c2.1,0.9,3.9,2.2,5.4,3.9
		c1.5,1.7,2.6,3.7,3.4,6.1C266.9,85.3,267.3,87.9,267.3,90.8z M264,90.8c0-2.6-0.3-4.9-1-6.9c-0.7-2.1-1.6-3.8-2.9-5.3
		c-1.2-1.5-2.7-2.6-4.5-3.4c-1.8-0.8-3.7-1.2-5.9-1.2c-2.7,0-5.3,0.5-7.6,1.6c-2.3,1.1-4.4,2.6-6.1,4.7c-1.7,2-3.1,4.5-4,7.4
		c-1,2.9-1.5,6.1-1.5,9.7c0,2.6,0.3,4.9,1,6.9c0.7,2.1,1.6,3.8,2.9,5.2c1.2,1.4,2.7,2.6,4.5,3.3c1.7,0.8,3.7,1.2,5.9,1.2
		c2.8,0,5.3-0.5,7.7-1.6c2.3-1.1,4.4-2.6,6.1-4.7c1.7-2,3-4.5,4-7.3C263.5,97.7,264,94.5,264,90.8z"/>
	<path class="st0" d="M304.9,72l-5.2,41.8h7.1l-1.6,12.6c0,0.3-0.2,0.5-0.4,0.7c-0.2,0.2-0.5,0.3-0.8,0.3h-1.8l1.4-11.1h-36.6
		l-1.3,10.1c0,0.3-0.1,0.5-0.4,0.7c-0.2,0.2-0.5,0.3-0.8,0.3h-1.8l1.7-13.6h3.8c0.7-0.3,1.5-0.8,2.2-1.6c0.8-0.7,1.5-1.8,2.3-3.2
		c0.8-1.4,1.5-3.1,2.3-5.2c0.8-2.1,1.6-4.6,2.4-7.6c0.8-3,1.6-6.5,2.4-10.5c0.8-4,1.6-8.6,2.4-13.7H304.9z M285.1,74.5
		c-0.7,4.1-1.4,7.8-2.1,11.2c-0.7,3.4-1.4,6.4-2.1,9c-0.7,2.7-1.4,5-2.1,7.1c-0.7,2.1-1.4,3.9-2.1,5.4c-0.7,1.5-1.4,2.9-2.2,3.9
		c-0.7,1.1-1.5,2-2.2,2.7h24.2l4.9-39.3H285.1z"/>
	<path class="st0" d="M343.4,116.3H341c-0.3,0-0.5-0.1-0.7-0.2c-0.2-0.2-0.3-0.3-0.4-0.6l-3.2-13h-20l-6.4,13
		c-0.1,0.2-0.3,0.4-0.5,0.6c-0.2,0.2-0.5,0.2-0.8,0.2h-2.4L329,72h3.1L343.4,116.3z M317.8,100.3h18.3l-5.5-22.6
		c-0.1-0.4-0.2-0.8-0.3-1.2c-0.1-0.4-0.2-0.9-0.3-1.4c-0.2,0.5-0.4,1-0.6,1.4c-0.2,0.5-0.4,0.9-0.6,1.3L317.8,100.3z"/>
</g>
<polygon class="st1" points="309.7,33.5 56,33.5 61.8,0.4 315.5,0.4 "/>
<g>
	<path class="st0" d="M86.1,25.1h-3.3l1.5-12h-4.8l-1.5,12h-3.2l1.8-14.4h11.3L86.1,25.1z"/>
	<path class="st0" d="M99.6,13.2h-5.4l-0.4,3.5h4.1L97.6,19h-4.1l-0.4,3.6h5.4l-0.3,2.5h-8.6l1.8-14.4h8.6L99.6,13.2z"/>
	<path class="st0" d="M104.8,20.2l-0.6,4.8h-3.2l1.8-14.4h4.8c0.9,0,1.6,0.1,2.2,0.3c0.6,0.2,1.1,0.5,1.5,0.9
		c0.4,0.4,0.7,0.8,0.9,1.3c0.2,0.5,0.3,1,0.3,1.6c0,0.8-0.1,1.5-0.4,2.2c-0.2,0.7-0.6,1.2-1.1,1.7c-0.5,0.5-1.1,0.9-1.9,1.1
		c-0.8,0.3-1.7,0.4-2.7,0.4H104.8z M105.7,13.1l-0.6,4.7h1.6c0.5,0,0.9-0.1,1.2-0.2c0.3-0.1,0.6-0.3,0.8-0.6
		c0.2-0.2,0.3-0.5,0.4-0.9c0.1-0.3,0.1-0.7,0.1-1.1c0-0.3,0-0.5-0.1-0.8c-0.1-0.2-0.2-0.4-0.4-0.6c-0.2-0.2-0.4-0.3-0.6-0.4
		c-0.2-0.1-0.5-0.1-0.9-0.1H105.7z"/>
	<path class="st0" d="M113.6,25.1l1.8-14.4h5c0.8,0,1.6,0.1,2.2,0.2c0.6,0.2,1.1,0.4,1.5,0.7c0.4,0.3,0.7,0.6,0.8,1.1
		c0.2,0.4,0.3,0.9,0.3,1.4c0,0.4-0.1,0.8-0.2,1.1c-0.1,0.4-0.3,0.7-0.5,1c-0.2,0.3-0.5,0.6-0.9,0.8c-0.4,0.3-0.8,0.5-1.3,0.6
		c0.8,0.2,1.4,0.5,1.7,1c0.4,0.4,0.6,1,0.6,1.7c0,0.7-0.1,1.3-0.4,1.9c-0.3,0.6-0.6,1.1-1.1,1.5c-0.5,0.4-1.1,0.8-1.8,1
		c-0.7,0.2-1.5,0.4-2.3,0.4H113.6z M117.6,18.9l-0.5,3.7h2.1c0.4,0,0.7-0.1,1-0.2c0.3-0.1,0.5-0.3,0.7-0.5c0.2-0.2,0.3-0.4,0.4-0.7
		c0.1-0.3,0.1-0.6,0.1-0.9c0-0.2,0-0.4-0.1-0.6c-0.1-0.2-0.2-0.3-0.3-0.4c-0.1-0.1-0.3-0.2-0.5-0.3c-0.2-0.1-0.5-0.1-0.8-0.1H117.6z
		 M117.9,16.8h1.6c0.4,0,0.7,0,1-0.1c0.3-0.1,0.5-0.2,0.8-0.4c0.2-0.2,0.4-0.4,0.5-0.7c0.1-0.3,0.2-0.6,0.2-1.1
		c0-0.5-0.1-0.9-0.4-1.1c-0.3-0.2-0.7-0.3-1.3-0.3h-1.7L117.9,16.8z"/>
	<path class="st0" d="M131.8,10.7l-0.7,5.8h1.7c0.8,0,1.6,0.1,2.2,0.3c0.6,0.2,1.1,0.4,1.4,0.8c0.4,0.3,0.6,0.7,0.8,1.1
		c0.2,0.4,0.2,0.9,0.2,1.3c0,0.7-0.1,1.4-0.4,2.1c-0.3,0.6-0.6,1.2-1.1,1.6c-0.5,0.4-1.1,0.8-1.8,1c-0.7,0.2-1.5,0.4-2.4,0.4h-4.9
		l1.8-14.4H131.8z M130.8,18.9l-0.5,3.7h1.7c0.4,0,0.7-0.1,1-0.2c0.3-0.1,0.5-0.3,0.7-0.5c0.2-0.2,0.3-0.4,0.4-0.7
		c0.1-0.3,0.1-0.6,0.1-0.9c0-0.2,0-0.4-0.1-0.6c-0.1-0.2-0.1-0.3-0.3-0.5c-0.1-0.1-0.3-0.2-0.5-0.3c-0.2-0.1-0.5-0.1-0.8-0.1H130.8z
		 M141.2,25.1H138l1.8-14.4h3.3L141.2,25.1z"/>
	<path class="st0" d="M154.2,11.6c0.1-0.1,0.2-0.2,0.3-0.3c0.1-0.1,0.2-0.2,0.4-0.3c0.1-0.1,0.3-0.2,0.4-0.2
		c0.1-0.1,0.3-0.1,0.5-0.1h2.4l-1.8,14.4h-3.2l1-8c0.1-0.4,0.1-0.7,0.2-1.1c0.1-0.4,0.2-0.8,0.3-1.3c-0.2,0.4-0.4,0.8-0.6,1.1
		c-0.2,0.3-0.4,0.6-0.6,0.9l-4.7,7.4c-0.1,0.1-0.2,0.2-0.3,0.3c-0.1,0.1-0.2,0.2-0.4,0.3c-0.1,0.1-0.3,0.2-0.4,0.2
		c-0.1,0.1-0.3,0.1-0.5,0.1h-2.4l1.8-14.4h3.2l-1,7.9c-0.1,0.4-0.1,0.8-0.2,1.2c-0.1,0.4-0.2,0.8-0.3,1.3c0.2-0.4,0.4-0.8,0.6-1.1
		c0.2-0.4,0.4-0.7,0.6-0.9L154.2,11.6z M152.6,8.5c0.2,0,0.4,0,0.5-0.1c0.1,0,0.2-0.1,0.3-0.2c0.1-0.1,0.2-0.2,0.2-0.4
		c0-0.2,0.1-0.4,0.1-0.7h1.7c0.1,0,0.2,0,0.2,0.1c0.1,0,0.1,0.1,0.2,0.2c0,0.1,0.1,0.2,0.1,0.3c0,0.1,0,0.2,0,0.3
		c0,0.3-0.2,0.6-0.3,0.9c-0.2,0.3-0.4,0.5-0.7,0.6c-0.3,0.2-0.7,0.3-1.1,0.4c-0.4,0.1-0.9,0.1-1.3,0.1c-0.5,0-0.9,0-1.3-0.1
		c-0.4-0.1-0.7-0.2-1-0.4c-0.3-0.2-0.5-0.4-0.6-0.6c-0.1-0.3-0.2-0.6-0.1-0.9c0-0.1,0-0.2,0.1-0.3c0-0.1,0.1-0.2,0.1-0.3
		c0.1-0.1,0.1-0.1,0.2-0.2c0.1,0,0.2-0.1,0.3-0.1h1.7c0,0.3,0,0.5,0,0.7c0,0.2,0,0.3,0.1,0.4c0.1,0.1,0.2,0.2,0.3,0.2
		C152.2,8.4,152.4,8.5,152.6,8.5z"/>
	<path class="st0" d="M176.4,25.1h-3.3l0.8-6.1h-5.2l-0.8,6.1h-3.3l1.8-14.4h3.3l-0.8,6.1h5.2l0.8-6.1h3.3L176.4,25.1z"/>
	<path class="st0" d="M191.9,25.1h-2.5c-0.3,0-0.5-0.1-0.7-0.2c-0.2-0.1-0.3-0.3-0.3-0.5l-0.4-2.6h-4.9l-1.1,2.6
		c-0.1,0.2-0.2,0.3-0.4,0.5c-0.2,0.1-0.4,0.2-0.7,0.2h-2.5l6.9-14.4h3.3L191.9,25.1z M184,19.6h3.6l-0.7-4.1
		c-0.1-0.3-0.1-0.6-0.2-0.9c-0.1-0.3-0.1-0.7-0.2-1.1c-0.2,0.4-0.3,0.8-0.5,1.1c-0.2,0.4-0.3,0.7-0.4,0.9L184,19.6z"/>
	<path class="st0" d="M201.4,22.7c0.1,0,0.3-0.1,0.4-0.1c0.1-0.1,0.3-0.2,0.4-0.3c0.1-0.1,0.3-0.3,0.4-0.6l0.5-0.9l-4.1-10h3
		c0.3,0,0.5,0.1,0.6,0.2c0.1,0.1,0.3,0.3,0.3,0.5l1.3,4.5c0.1,0.4,0.2,0.7,0.3,1.1c0.1,0.4,0.2,0.7,0.2,1.1c0.1-0.4,0.3-0.7,0.5-1.1
		c0.2-0.4,0.4-0.7,0.5-1.1l2.2-4.5c0.1-0.2,0.3-0.3,0.4-0.5c0.2-0.1,0.4-0.2,0.7-0.2h2.7L204.9,23c-0.3,0.5-0.5,0.8-0.8,1.1
		c-0.3,0.3-0.6,0.5-0.8,0.7c-0.3,0.2-0.6,0.3-0.9,0.3c-0.3,0.1-0.6,0.1-0.9,0.1c-0.6,0-1-0.1-1.3-0.2c-0.3-0.1-0.4-0.3-0.4-0.6
		l0.2-1.7h0.8C201.1,22.7,201.2,22.7,201.4,22.7z"/>
	<path class="st0" d="M216.3,16.6h1.1c0.2,0,0.4,0,0.6-0.1c0.2-0.1,0.3-0.3,0.5-0.5l2.8-4.4c0.2-0.2,0.4-0.4,0.6-0.6
		c0.2-0.2,0.5-0.2,0.8-0.2h2.8l-3.9,5.7c-0.2,0.3-0.4,0.5-0.6,0.6s-0.5,0.3-0.8,0.4c0.4,0.1,0.7,0.3,1,0.6c0.3,0.3,0.5,0.6,0.7,1.1
		l2.1,6h-3c-0.3,0-0.5-0.1-0.7-0.2c-0.2-0.2-0.3-0.4-0.5-0.7l-1.5-4.6c-0.1-0.3-0.3-0.5-0.4-0.6c-0.2-0.1-0.4-0.1-0.7-0.1H216
		l-0.8,6.2H212l1.8-14.4h3.2L216.3,16.6z"/>
	<path class="st0" d="M230,20.2l-0.6,4.8h-3.2l1.8-14.4h4.8c0.9,0,1.6,0.1,2.2,0.3c0.6,0.2,1.1,0.5,1.5,0.9c0.4,0.4,0.7,0.8,0.9,1.3
		c0.2,0.5,0.3,1,0.3,1.6c0,0.8-0.1,1.5-0.4,2.2c-0.2,0.7-0.6,1.2-1.1,1.7c-0.5,0.5-1.1,0.9-1.9,1.1c-0.8,0.3-1.7,0.4-2.7,0.4H230z
		 M230.8,13.1l-0.6,4.7h1.6c0.5,0,0.9-0.1,1.2-0.2c0.3-0.1,0.6-0.3,0.8-0.6c0.2-0.2,0.3-0.5,0.4-0.9c0.1-0.3,0.1-0.7,0.1-1.1
		c0-0.3,0-0.5-0.1-0.8c-0.1-0.2-0.2-0.4-0.4-0.6c-0.2-0.2-0.4-0.3-0.6-0.4c-0.2-0.1-0.5-0.1-0.9-0.1H230.8z"/>
	<path class="st0" d="M250,25.1h-2.5c-0.3,0-0.5-0.1-0.7-0.2c-0.2-0.1-0.3-0.3-0.3-0.5l-0.4-2.6h-4.9l-1.1,2.6
		c-0.1,0.2-0.2,0.3-0.4,0.5c-0.2,0.1-0.4,0.2-0.7,0.2h-2.5l6.9-14.4h3.3L250,25.1z M242.1,19.6h3.6l-0.7-4.1
		c-0.1-0.3-0.1-0.6-0.2-0.9c-0.1-0.3-0.1-0.7-0.2-1.1c-0.2,0.4-0.3,0.8-0.5,1.1c-0.2,0.4-0.3,0.7-0.4,0.9L242.1,19.6z"/>
	<path class="st0" d="M261.5,11.6c0.1-0.1,0.2-0.2,0.3-0.3c0.1-0.1,0.2-0.2,0.4-0.3c0.1-0.1,0.3-0.2,0.4-0.2
		c0.1-0.1,0.3-0.1,0.5-0.1h2.4l-1.8,14.4h-3.2l1-8c0.1-0.4,0.1-0.7,0.2-1.1c0.1-0.4,0.2-0.8,0.3-1.3c-0.2,0.4-0.4,0.8-0.6,1.1
		c-0.2,0.3-0.4,0.6-0.6,0.9l-4.7,7.4c-0.1,0.1-0.2,0.2-0.3,0.3c-0.1,0.1-0.2,0.2-0.4,0.3c-0.1,0.1-0.3,0.2-0.4,0.2
		c-0.1,0.1-0.3,0.1-0.5,0.1h-2.4l1.8-14.4h3.2l-1,7.9c-0.1,0.4-0.1,0.8-0.2,1.2c-0.1,0.4-0.2,0.8-0.3,1.3c0.2-0.4,0.4-0.8,0.6-1.1
		c0.2-0.4,0.4-0.7,0.6-0.9L261.5,11.6z"/>
	<path class="st0" d="M278.8,25.1h-3.3l0.8-6.1h-5.2l-0.8,6.1h-3.3l1.8-14.4h3.3l-0.8,6.1h5.2l0.8-6.1h3.3L278.8,25.1z"/>
	<path class="st0" d="M292.4,13.2H287l-0.4,3.5h4.1l-0.3,2.4h-4.1l-0.4,3.6h5.4l-0.3,2.5h-8.6l1.8-14.4h8.6L292.4,13.2z"/>
</g>
<g>
	<path class="st0" d="M77.7,42.2l-0.3,2.3h-3.3l-1.3,10.6h-2.9l1.3-10.6h-3.3l0.3-2.3H77.7z"/>
	<path class="st0" d="M82.4,50.8l-0.5,4.3H79l1.6-12.9h4.3c0.8,0,1.4,0.1,2,0.3c0.5,0.2,1,0.4,1.4,0.8c0.4,0.3,0.6,0.7,0.8,1.2
		c0.2,0.4,0.2,0.9,0.2,1.4c0,0.7-0.1,1.4-0.3,2c-0.2,0.6-0.5,1.1-1,1.6c-0.4,0.4-1,0.8-1.7,1c-0.7,0.2-1.5,0.4-2.4,0.4H82.4z
		 M83.2,44.4l-0.5,4.2h1.4c0.4,0,0.8-0.1,1-0.2c0.3-0.1,0.5-0.3,0.7-0.5c0.2-0.2,0.3-0.5,0.4-0.8c0.1-0.3,0.1-0.6,0.1-1
		c0-0.3,0-0.5-0.1-0.7c-0.1-0.2-0.2-0.4-0.3-0.5c-0.1-0.2-0.3-0.3-0.5-0.4c-0.2-0.1-0.5-0.1-0.8-0.1H83.2z"/>
	<path class="st0" d="M100.1,44.4h-4.8l-0.4,3.1h3.7l-0.3,2.1h-3.7l-0.4,3.2h4.8l-0.3,2.2h-7.8l1.6-12.9h7.7L100.1,44.4z"/>
	<path class="st0" d="M112.6,55.1h-2.9l0.7-5.5h-4.7l-0.7,5.5H102l1.6-12.9h2.9l-0.7,5.4h4.7l0.7-5.4h2.9L112.6,55.1z"/>
	<path class="st0" d="M128.4,42.2L127.1,53h1.8l-0.5,4.4c0,0.2-0.1,0.4-0.3,0.6c-0.2,0.1-0.4,0.2-0.7,0.2h-1.8l0.4-3h-7.9l-0.3,2.2
		c0,0.2-0.1,0.4-0.3,0.6c-0.2,0.1-0.4,0.2-0.7,0.2H115l0.7-5.2h1.3c0.1-0.1,0.3-0.2,0.5-0.4c0.2-0.2,0.3-0.5,0.5-0.8
		c0.2-0.3,0.4-0.8,0.5-1.3c0.2-0.5,0.4-1.2,0.6-1.9c0.2-0.8,0.4-1.7,0.6-2.7c0.2-1,0.4-2.2,0.6-3.6H128.4z M122.7,44.4
		c-0.2,1.2-0.4,2.2-0.6,3.1c-0.2,0.9-0.4,1.7-0.7,2.4c-0.2,0.7-0.5,1.3-0.7,1.8c-0.2,0.5-0.5,1-0.7,1.3h4.2l1.1-8.6H122.7z"/>
	<path class="st0" d="M136.8,52.9c0.3,0,0.6,0,0.9-0.1c0.2-0.1,0.4-0.1,0.6-0.2c0.2-0.1,0.3-0.2,0.4-0.3c0.1-0.1,0.2-0.2,0.3-0.3
		c0.1-0.1,0.2-0.1,0.3-0.2c0.1,0,0.2-0.1,0.3-0.1c0.1,0,0.2,0,0.2,0c0.1,0,0.1,0.1,0.1,0.1l1,1.2c-0.6,0.7-1.2,1.2-2,1.5
		c-0.8,0.3-1.7,0.5-2.6,0.5c-0.8,0-1.5-0.1-2.2-0.4c-0.6-0.3-1.2-0.7-1.6-1.2c-0.4-0.5-0.8-1.1-1-1.8c-0.2-0.7-0.3-1.4-0.3-2.2
		c0-0.7,0.1-1.4,0.2-2.1c0.2-0.7,0.4-1.3,0.7-1.8c0.3-0.6,0.7-1.1,1.1-1.5c0.4-0.4,0.9-0.8,1.4-1.1c0.5-0.3,1.1-0.6,1.7-0.7
		c0.6-0.2,1.2-0.3,1.9-0.3c0.5,0,0.9,0,1.3,0.1c0.4,0.1,0.8,0.2,1.1,0.4s0.6,0.4,0.9,0.6c0.3,0.2,0.5,0.5,0.7,0.7l-1,1.2
		c-0.1,0.1-0.2,0.2-0.2,0.2c-0.1,0.1-0.2,0.1-0.4,0.1c-0.1,0-0.2,0-0.3-0.1c-0.1,0-0.2-0.1-0.3-0.2c-0.1-0.1-0.2-0.1-0.3-0.2
		c-0.1-0.1-0.2-0.2-0.4-0.2c-0.1-0.1-0.3-0.1-0.5-0.2c-0.2,0-0.4-0.1-0.7-0.1c-0.5,0-1.1,0.1-1.5,0.3c-0.5,0.2-0.9,0.6-1.2,1
		c-0.3,0.4-0.6,0.9-0.8,1.6c-0.2,0.6-0.3,1.3-0.3,2c0,0.5,0.1,1,0.2,1.5c0.1,0.4,0.3,0.8,0.5,1.1c0.2,0.3,0.5,0.5,0.8,0.7
		C136.1,52.8,136.5,52.9,136.8,52.9z"/>
	<path class="st0" d="M152.7,44.4h-4.8l-0.4,3.1h3.7l-0.3,2.1h-3.7l-0.4,3.2h4.8l-0.3,2.2h-7.8l1.6-12.9h7.7L152.7,44.4z"/>
	<path class="st0" d="M164.8,42.2l-0.3,2.3h-3.3l-1.3,10.6H157l1.3-10.6H155l0.3-2.3H164.8z"/>
	<path class="st0" d="M176.4,42.2l-0.3,2.3h-3.3l-1.3,10.6h-2.9l1.3-10.6h-3.3l0.3-2.3H176.4z"/>
	<path class="st0" d="M186.7,44.4h-4.8l-0.4,3.1h3.7l-0.3,2.1h-3.7l-0.4,3.2h4.8l-0.3,2.2h-7.8l1.6-12.9h7.7L186.7,44.4z"/>
	<path class="st0" d="M192.1,50.8l-0.5,4.3h-2.9l1.6-12.9h4.3c0.8,0,1.4,0.1,2,0.3c0.5,0.2,1,0.4,1.4,0.8c0.4,0.3,0.6,0.7,0.8,1.2
		c0.2,0.4,0.2,0.9,0.2,1.4c0,0.7-0.1,1.4-0.3,2c-0.2,0.6-0.5,1.1-1,1.6c-0.4,0.4-1,0.8-1.7,1c-0.7,0.2-1.5,0.4-2.4,0.4H192.1z
		 M192.9,44.4l-0.5,4.2h1.4c0.4,0,0.8-0.1,1-0.2c0.3-0.1,0.5-0.3,0.7-0.5c0.2-0.2,0.3-0.5,0.4-0.8c0.1-0.3,0.1-0.6,0.1-1
		c0-0.3,0-0.5-0.1-0.7c-0.1-0.2-0.2-0.4-0.3-0.5c-0.1-0.2-0.3-0.3-0.5-0.4c-0.2-0.1-0.5-0.1-0.8-0.1H192.9z"/>
	<path class="st0" d="M214.3,43.2c0.7,0,1.3,0.2,1.8,0.4c0.5,0.3,1,0.6,1.4,1c0.4,0.4,0.7,0.9,0.9,1.4c0.2,0.5,0.3,1.1,0.3,1.7
		c0,0.8-0.2,1.5-0.5,2.2c-0.3,0.7-0.7,1.3-1.2,1.8c-0.5,0.5-1.1,0.9-1.8,1.2c-0.7,0.3-1.4,0.5-2.2,0.5l-0.2,1.5h-2.7l0.2-1.5
		c-0.7,0-1.3-0.2-1.8-0.4c-0.5-0.3-1-0.6-1.4-1c-0.4-0.4-0.7-0.9-0.9-1.5c-0.2-0.6-0.3-1.1-0.3-1.8c0-0.8,0.2-1.5,0.5-2.2
		c0.3-0.7,0.7-1.3,1.2-1.8c0.5-0.5,1.1-0.9,1.8-1.2c0.7-0.3,1.4-0.5,2.2-0.5l0.2-1.5h2.8L214.3,43.2z M208.7,48.8c0,0.4,0,0.7,0.1,1
		c0.1,0.3,0.2,0.6,0.4,0.8c0.2,0.2,0.3,0.4,0.6,0.6c0.2,0.1,0.5,0.2,0.8,0.2l0.7-6.1c-0.4,0-0.7,0.1-1,0.3c-0.3,0.2-0.6,0.4-0.8,0.7
		c-0.2,0.3-0.4,0.7-0.6,1.1S208.7,48.4,208.7,48.8z M215.9,48c0-0.3,0-0.7-0.1-1c-0.1-0.3-0.2-0.6-0.4-0.8c-0.2-0.2-0.4-0.4-0.6-0.6
		c-0.2-0.1-0.5-0.2-0.8-0.2l-0.7,6.1c0.4,0,0.7-0.1,1-0.3c0.3-0.2,0.6-0.4,0.8-0.7c0.2-0.3,0.4-0.7,0.6-1.1S215.9,48.5,215.9,48z"/>
	<path class="st0" d="M229.5,43.1c0.1-0.1,0.2-0.2,0.3-0.3c0.1-0.1,0.2-0.2,0.3-0.3c0.1-0.1,0.2-0.1,0.4-0.2c0.1,0,0.3-0.1,0.4-0.1
		h2.2l-1.6,12.9h-2.9l0.9-7.1c0-0.3,0.1-0.7,0.2-1c0.1-0.4,0.2-0.7,0.3-1.2c-0.2,0.4-0.4,0.7-0.6,1c-0.2,0.3-0.4,0.6-0.5,0.8
		l-4.2,6.6c-0.1,0.1-0.2,0.2-0.3,0.3c-0.1,0.1-0.2,0.2-0.3,0.3c-0.1,0.1-0.2,0.2-0.4,0.2c-0.1,0.1-0.3,0.1-0.4,0.1h-2.2l1.6-12.9
		h2.9l-0.9,7.1c0,0.3-0.1,0.7-0.2,1c-0.1,0.4-0.2,0.8-0.3,1.2c0.2-0.4,0.4-0.7,0.6-1c0.2-0.3,0.4-0.6,0.6-0.8L229.5,43.1z"/>
	<path class="st0" d="M245.5,42.2l-0.3,2.3h-3.3l-1.3,10.6h-2.9l1.3-10.6h-3.3l0.3-2.3H245.5z"/>
	<path class="st0" d="M257.3,55.1h-2.9l0.7-5.5h-4.7l-0.7,5.5h-2.9l1.6-12.9h2.9l-0.7,5.4h4.7l0.7-5.4h2.9L257.3,55.1z"/>
	<path class="st0" d="M270.2,44.4h-4.8l-0.4,3.1h3.7l-0.3,2.1h-3.7l-0.4,3.2h4.8l-0.3,2.2h-7.8l1.6-12.9h7.7L270.2,44.4z"/>
	<path class="st0" d="M277.5,52.9c0.3,0,0.6,0,0.9-0.1c0.2-0.1,0.4-0.1,0.6-0.2c0.2-0.1,0.3-0.2,0.4-0.3c0.1-0.1,0.2-0.2,0.3-0.3
		c0.1-0.1,0.2-0.1,0.3-0.2c0.1,0,0.2-0.1,0.3-0.1c0.1,0,0.2,0,0.2,0c0.1,0,0.1,0.1,0.1,0.1l1,1.2c-0.6,0.7-1.2,1.2-2,1.5
		c-0.8,0.3-1.7,0.5-2.6,0.5c-0.8,0-1.5-0.1-2.2-0.4c-0.6-0.3-1.2-0.7-1.6-1.2c-0.4-0.5-0.8-1.1-1-1.8c-0.2-0.7-0.3-1.4-0.3-2.2
		c0-0.7,0.1-1.4,0.2-2.1c0.2-0.7,0.4-1.3,0.7-1.8c0.3-0.6,0.7-1.1,1.1-1.5c0.4-0.4,0.9-0.8,1.4-1.1c0.5-0.3,1.1-0.6,1.7-0.7
		c0.6-0.2,1.2-0.3,1.9-0.3c0.5,0,0.9,0,1.3,0.1c0.4,0.1,0.8,0.2,1.1,0.4c0.3,0.2,0.6,0.4,0.9,0.6c0.3,0.2,0.5,0.5,0.7,0.7l-1,1.2
		c-0.1,0.1-0.2,0.2-0.2,0.2c-0.1,0.1-0.2,0.1-0.4,0.1c-0.1,0-0.2,0-0.3-0.1c-0.1,0-0.2-0.1-0.3-0.2c-0.1-0.1-0.2-0.1-0.3-0.2
		c-0.1-0.1-0.2-0.2-0.4-0.2c-0.1-0.1-0.3-0.1-0.5-0.2c-0.2,0-0.4-0.1-0.7-0.1c-0.5,0-1.1,0.1-1.5,0.3c-0.5,0.2-0.9,0.6-1.2,1
		c-0.3,0.4-0.6,0.9-0.8,1.6c-0.2,0.6-0.3,1.3-0.3,2c0,0.5,0.1,1,0.2,1.5c0.1,0.4,0.3,0.8,0.5,1.1c0.2,0.3,0.5,0.5,0.8,0.7
		C276.8,52.8,277.1,52.9,277.5,52.9z"/>
	<path class="st0" d="M295.1,55.1h-2.2c-0.2,0-0.4-0.1-0.6-0.2c-0.1-0.1-0.2-0.3-0.3-0.5l-0.4-2.3h-4.4l-1,2.3
		c-0.1,0.2-0.2,0.3-0.4,0.4c-0.2,0.1-0.4,0.2-0.6,0.2h-2.3l6.2-12.9h3L295.1,55.1z M288,50.2h3.3l-0.6-3.7c0-0.2-0.1-0.5-0.2-0.8
		c-0.1-0.3-0.1-0.7-0.2-1c-0.1,0.4-0.3,0.7-0.4,1c-0.1,0.3-0.3,0.6-0.4,0.8L288,50.2z"/>
</g>
<g>
	<path class="st0" d="M39.3,140.5h16.9l-0.3,2H39.1L39.3,140.5z"/>
	<path class="st0" d="M83,132.3c0.1-0.1,0.2-0.2,0.3-0.3c0.1-0.1,0.2-0.2,0.4-0.3c0.1-0.1,0.3-0.2,0.4-0.2c0.1-0.1,0.3-0.1,0.4-0.1
		h2.3l-2.4,19.4h-3.1l1.6-12.8c0-0.4,0.1-0.8,0.2-1.3c0.1-0.5,0.2-0.9,0.3-1.5c-0.2,0.5-0.4,0.9-0.7,1.2c-0.2,0.4-0.5,0.7-0.7,1
		l-8.9,12.3c-0.1,0.1-0.2,0.2-0.3,0.3c-0.1,0.1-0.2,0.2-0.4,0.3c-0.1,0.1-0.3,0.2-0.4,0.2c-0.1,0.1-0.3,0.1-0.4,0.1h-2.3l2.4-19.4
		h3.1l-1.6,12.8c-0.1,0.4-0.1,0.8-0.2,1.3c-0.1,0.5-0.2,0.9-0.3,1.5c0.2-0.4,0.4-0.9,0.7-1.2c0.2-0.4,0.5-0.7,0.7-1L83,132.3z"/>
	<path class="st0" d="M113.6,150.8h-3.1l2.1-17h-8.2l-2.1,17h-3.1l2.4-19.4H116L113.6,150.8z"/>
	<path class="st0" d="M138.5,139.7c0,1.1-0.1,2.1-0.4,3.1c-0.2,1-0.6,1.9-1,2.7c-0.4,0.8-1,1.6-1.6,2.3c-0.6,0.7-1.3,1.2-2.1,1.7
		c-0.8,0.5-1.6,0.8-2.5,1.1c-0.9,0.3-1.8,0.4-2.8,0.4c-1.2,0-2.3-0.2-3.3-0.6c-1-0.4-1.8-1-2.5-1.8c-0.7-0.8-1.2-1.7-1.6-2.7
		c-0.4-1-0.6-2.2-0.6-3.4c0-1.1,0.1-2.1,0.4-3.1c0.2-1,0.6-1.9,1-2.7c0.4-0.8,1-1.6,1.6-2.3c0.6-0.7,1.3-1.2,2.1-1.7
		c0.8-0.5,1.6-0.8,2.5-1.1c0.9-0.3,1.8-0.4,2.8-0.4c1.2,0,2.3,0.2,3.3,0.6c1,0.4,1.8,1,2.5,1.8c0.7,0.8,1.2,1.7,1.6,2.7
		C138.3,137.4,138.5,138.5,138.5,139.7z M135.3,139.8c0-0.9-0.1-1.8-0.4-2.5c-0.2-0.8-0.6-1.4-1-1.9c-0.4-0.5-1-0.9-1.6-1.2
		c-0.6-0.3-1.4-0.4-2.2-0.4c-1,0-2,0.2-2.8,0.6c-0.8,0.4-1.6,1-2.2,1.7c-0.6,0.8-1.1,1.7-1.4,2.7c-0.3,1.1-0.5,2.3-0.5,3.6
		c0,0.9,0.1,1.8,0.4,2.5c0.2,0.8,0.6,1.4,1,1.9c0.4,0.5,1,0.9,1.6,1.2c0.6,0.3,1.4,0.4,2.2,0.4c1,0,2-0.2,2.8-0.6
		c0.8-0.4,1.6-1,2.2-1.7c0.6-0.8,1.1-1.7,1.4-2.7C135.2,142.3,135.3,141.1,135.3,139.8z"/>
	<path class="st0" d="M159.1,148.4c0.6,0,1.1,0,1.5-0.1c0.4-0.1,0.8-0.2,1.1-0.3c0.3-0.1,0.6-0.3,0.8-0.5c0.2-0.2,0.4-0.3,0.6-0.5
		c0.2-0.1,0.3-0.3,0.4-0.3c0.1-0.1,0.2-0.1,0.4-0.1c0.1,0,0.2,0,0.2,0.1c0.1,0,0.1,0.1,0.1,0.1l1.1,1.3c-0.8,0.9-1.8,1.7-3,2.2
		c-1.1,0.5-2.5,0.8-3.9,0.8c-1.2,0-2.2-0.2-3.2-0.6c-0.9-0.4-1.7-1-2.4-1.8c-0.6-0.7-1.1-1.6-1.5-2.7c-0.3-1-0.5-2.2-0.5-3.4
		c0-1.7,0.3-3.2,0.8-4.6c0.5-1.4,1.3-2.6,2.2-3.6c0.9-1,2-1.8,3.3-2.3c1.3-0.6,2.6-0.8,4-0.8c0.7,0,1.3,0.1,1.9,0.2
		c0.6,0.1,1.1,0.3,1.6,0.5c0.5,0.2,0.9,0.5,1.3,0.8c0.4,0.3,0.7,0.7,1,1.1l-1,1.3c-0.1,0.1-0.2,0.2-0.3,0.3
		c-0.1,0.1-0.2,0.1-0.4,0.1c-0.1,0-0.2,0-0.4-0.1c-0.1-0.1-0.2-0.2-0.4-0.3c-0.1-0.1-0.3-0.3-0.5-0.4c-0.2-0.1-0.4-0.3-0.7-0.4
		c-0.3-0.1-0.6-0.2-1-0.3c-0.4-0.1-0.8-0.1-1.3-0.1c-1,0-1.9,0.2-2.8,0.6c-0.9,0.4-1.6,1-2.2,1.7c-0.6,0.7-1.1,1.6-1.5,2.7
		c-0.4,1.1-0.5,2.2-0.5,3.5c0,0.9,0.1,1.8,0.4,2.5c0.2,0.8,0.6,1.4,1,1.9c0.4,0.5,1,0.9,1.6,1.2
		C157.7,148.3,158.4,148.4,159.1,148.4z"/>
	<path class="st0" d="M183.8,131.4l-0.3,2.5h-8.2l-0.7,6h6.6l-0.3,2.4h-6.5l-0.8,6.1h8.2l-0.3,2.5h-11.3l2.4-19.4H183.8z"/>
	<path class="st0" d="M200.5,132.3c0.1-0.1,0.2-0.2,0.3-0.3c0.1-0.1,0.2-0.2,0.4-0.3c0.1-0.1,0.3-0.2,0.4-0.2
		c0.1-0.1,0.3-0.1,0.4-0.1h2.3l-2.4,19.4h-3.1l1.6-12.8c0-0.4,0.1-0.8,0.2-1.3c0.1-0.5,0.2-0.9,0.3-1.5c-0.2,0.5-0.4,0.9-0.7,1.2
		c-0.2,0.4-0.5,0.7-0.7,1l-8.9,12.3c-0.1,0.1-0.2,0.2-0.3,0.3c-0.1,0.1-0.2,0.2-0.4,0.3c-0.1,0.1-0.3,0.2-0.4,0.2
		c-0.1,0.1-0.3,0.1-0.4,0.1h-2.3l2.4-19.4h3.1l-1.6,12.8c-0.1,0.4-0.1,0.8-0.2,1.3c-0.1,0.5-0.2,0.9-0.3,1.5
		c0.2-0.4,0.4-0.9,0.7-1.2c0.2-0.4,0.5-0.7,0.7-1L200.5,132.3z M197.1,128.7c0.3,0,0.6,0,0.8-0.1c0.2-0.1,0.4-0.2,0.6-0.4
		c0.2-0.2,0.3-0.4,0.4-0.7c0.1-0.3,0.2-0.6,0.2-1.1h1.6c0.2,0,0.3,0.1,0.4,0.3c0.1,0.2,0.1,0.4,0.1,0.6c-0.1,0.5-0.2,0.9-0.4,1.2
		c-0.2,0.4-0.5,0.6-0.9,0.9c-0.4,0.2-0.8,0.4-1.3,0.5c-0.5,0.1-1,0.2-1.6,0.2c-0.6,0-1.1-0.1-1.6-0.2c-0.5-0.1-0.8-0.3-1.2-0.5
		c-0.3-0.2-0.5-0.5-0.7-0.9c-0.1-0.4-0.2-0.8-0.1-1.2c0-0.2,0.1-0.4,0.2-0.6c0.1-0.2,0.3-0.3,0.5-0.3h1.6c0,0.4-0.1,0.8,0,1.1
		c0,0.3,0.1,0.5,0.2,0.7c0.1,0.2,0.3,0.3,0.5,0.4C196.5,128.7,196.8,128.7,197.1,128.7z"/>
	<path class="st0" d="M233.6,131.4l-2.1,17.1h2.9l-0.8,6.2c0,0.3-0.2,0.5-0.4,0.6c-0.2,0.2-0.4,0.2-0.7,0.2h-1.8l0.6-4.7h-13.7
		l-0.5,3.8c0,0.3-0.1,0.5-0.3,0.6c-0.2,0.2-0.4,0.2-0.7,0.2h-1.8l0.9-7.1h1.9c0.3-0.1,0.5-0.3,0.8-0.6c0.3-0.3,0.6-0.7,0.9-1.3
		c0.3-0.5,0.6-1.2,0.9-2.1c0.3-0.8,0.6-1.9,0.9-3.1c0.3-1.2,0.6-2.6,1-4.3c0.3-1.6,0.6-3.5,1-5.7H233.6z M225,133.8
		c-0.4,2.1-0.7,3.9-1.1,5.5c-0.4,1.6-0.8,3-1.1,4.1c-0.4,1.2-0.8,2.2-1.2,3c-0.4,0.8-0.8,1.5-1.2,2h8.1l1.8-14.7H225z"/>
	<path class="st0" d="M252.7,131.4l-0.3,2.5h-8.2l-0.7,6h6.6l-0.3,2.4h-6.5l-0.8,6.1h8.2l-0.3,2.5H239l2.4-19.4H252.7z"/>
	<path class="st0" d="M270.8,150.8h-3.1l1.1-8.7h-8.9l-1.1,8.7h-3.1l2.4-19.4h3.1l-1.1,8.6h8.9l1.1-8.6h3.1L270.8,150.8z"/>
	<path class="st0" d="M282.8,131.4l-1,8.2h3.1c1,0,1.9,0.1,2.7,0.4c0.7,0.2,1.4,0.6,1.8,1c0.5,0.4,0.8,0.9,1,1.5
		c0.2,0.6,0.3,1.2,0.3,1.8c0,1-0.2,1.9-0.5,2.7c-0.3,0.8-0.8,1.5-1.4,2.1c-0.6,0.6-1.4,1-2.3,1.3c-0.9,0.3-1.9,0.5-3.1,0.5h-6.2
		l2.4-19.4H282.8z M281.5,142l-0.8,6.4h3.1c0.7,0,1.3-0.1,1.8-0.3c0.5-0.2,0.9-0.4,1.2-0.8c0.3-0.3,0.6-0.7,0.7-1.2
		c0.2-0.5,0.2-1,0.2-1.6c0-0.4-0.1-0.8-0.2-1.1c-0.1-0.3-0.3-0.6-0.5-0.8c-0.2-0.2-0.6-0.4-1-0.5c-0.4-0.1-0.9-0.2-1.5-0.2H281.5z"
		/>
</g>
</svg>
