<?xml version="1.0" encoding="utf-8"?>
<!-- Generator: Adobe Illustrator 21.1.0, SVG Export Plug-In . SVG Version: 6.00 Build 0)  -->
<svg version="1.1" id="Layer_1" xmlns="http://www.w3.org/2000/svg" xmlns:xlink="http://www.w3.org/1999/xlink" x="0px" y="0px"
	 viewBox="0 0 226.6 85.9" style="enable-background:new 0 0 226.6 85.9;" xml:space="preserve">
<style type="text/css">
	.st0{fill:#FFFFFF;}
	.st1{fill:#070809;}
	.st2{fill:#F2CD18;}
</style>
<path class="st1" d="M226.6,65c0.7-8.2-5.6-15.9-5.6-15.9l-0.8,0.9c-0.6-0.5-1.2-0.9-1.8-1.3c2.5-2.4,4.3-5.4,6-14.8
	c-0.8,0-31-0.2-31-0.2c-3.2,0-6.3,0.8-9,2.5l-0.5-0.4l-1.4,1.5l0.1-7.6l-4.5-0.3c-0.7,0-6.9-0.3-11.8,4.2c-1.5,1.4-2.6,3-3.4,4.8
	l-9.4-8.2l-0.8,1.3l-22.8,2.4c-1-0.5-2-0.8-3.1-1.1c-1.7-0.4-3.5-0.7-5.5-0.7l-35.7-0.3l0,1c-1.4-0.3-2.8-0.5-4.4-0.5l-1.9,0l1.1-1
	L53.6,33l-0.1-1.1l-25.8-0.2l0.1-8.2l-4.5-0.3c-1.9-0.1-4.7,0.2-7.4,1.4l-0.9,0.4c-2.7,1.4-5.3,3.7-6.9,7.3l-8-0.1L0,44.7
	c0,0,5.9,5,5.4,10.2C4.9,60,3.7,69.8,3.7,69.8L3.5,72L6,72.7l0.6,0.2c0.6,1.4,0.4,4.4,1.6,5.6L8,79c2.8,3.6,7.5,4.8,7.5,4.8l0.6-0.9
	c3.1,1.6,10.5,2.4,10.5,2.4l6.1-2.5l1.1,0.4l-0.2,0.9l9.3,2l0.7-3l49.8-1.3l-0.2,2.8l41.4-3.7l-0.1,1.5l21.4-0.6l0.1-2l10,4.4
	l2.2-2.4l42.4,0.4l-0.3-1.5C218.7,80.2,225.8,73.6,226.6,65"/>
<g>
	<g>
		<path class="st2" d="M178.7,30.5c0,0-11.8-0.6-11.8,13.1c0,1.6,0,1,0,1.5l11.9,10.3L178.7,30.5z"/>
		<path class="st2" d="M16.5,74.4c1.2,0.8,2.7,1.5,4.7,1.9l-2.2-6.3L16.5,74.4z"/>
		<path class="st2" d="M18.1,69L11,53.3c0,6.9,0.1,11.2,0.1,11.2l0,0c0,0-0.3,6.1,4.8,9.2C16.3,72.6,17.2,70.9,18.1,69"/>
		<path class="st2" d="M36.3,45.8c0.4,0,0.7,0,1.1,0c13.1-0.1,12.4-11.3,12.4-11.3L34,34.6L36.3,45.8z"/>
		<path class="st2" d="M33.4,73.4l7.1,0.1l0.3,0.5c5.3,0,9,0,9,0l0-11.1L25.1,63c-0.8-0.2-1.4-0.9-1.4-1.7l0,0l-0.1-14.6
			c2.9,0,6.5,0,10.5,0c0.2,0-0.2-1.2,0-1.2l0.5,0l-0.8-10.1l-8.4,0c-1,0-1.8-0.8-1.8-1.8l0,0l0-7.5c0,0-9.5-0.5-11.5,9.3l-6.7,0
			l0,1.3l0,1.6l0,0.1c7.1,0,6.3,7.6,6.3,7.6l0-0.1c0,1.7,0,3.3,0,4.8l7.4,16.9c1.5-3.1,3-6.1,3-6.1L19.3,68l2.7,6
			c0.7,0.1,13.7,0.1,13.7,0.1L33.4,73.4z"/>
		<path class="st2" d="M56.2,44.7l0,0.6l11.6-10.6c-5.9,0.4-11.3,0.8-11.3,0.8l-6.1,0.4l0.2,2.9C54.8,39.1,55.9,42.7,56.2,44.7"/>
		<path class="st2" d="M133.2,39c-1.3-1.9-3.3-3.8-6.8-4.6c-1.2-0.3-2.7-0.5-4.3-0.5c-5.7,0-25,0.1-25,0.1L91,34l0,1.9L133.2,39z"/>
		<path class="st2" d="M89,36.2c-0.8-0.4-1.8-0.8-2.9-1.1c-1.2-0.3-2.7-0.5-4.3-0.5c-2.6,0-7.9,0-13,0.1L89,36.2z"/>
		<path class="st2" d="M97.9,44.3l0,1.2c0,0,0,0.1,0,0.1l0,0l0,0.4l0,0.3c0,0.8,0,3.9,0.1,14.6c0,2,0.3,3.6,0.7,5.1l12.3-3.2
			c-0.8,0-1.1,0-1.1,0l-0.1-16.4l16.6-0.1c0.9,0,1,0.7,0.5,1.2l0,0l-13.5,13.5l4.5,0l13.6-3.6l1.3-1.3l0,0l0.8-0.8l0,0
			c3.5-3.5,3.3-8.4,3.2-8.5c0-0.1,0.1-3.1-1.5-6.1l-42.5-2.9l0,0.3C97,38.6,97.8,42.3,97.9,44.3"/>
		<polygon class="st2" points="131.3,58 120.4,60.2 128.2,60.7 		"/>
		<path class="st2" d="M67.6,74l26.5-6.9c-1.7-2.3-4.7-4.3-10.3-4.3c-13,0.1-16.1,0.1-16.1,0.1l-0.1-16.4l16.6-0.1
			c0.9,0,1,0.7,0.5,1.2l0,0L71.3,61.1L86,61l4.7-4.8l0,0l0.8-0.8l0,0c3.5-3.5,3.3-8.4,3.2-8.5c0-0.1,0.3-5.9-4.3-9.3l-23-1.6
			l-11.5,9.8c0,0,0,0,0,0l0,0l0,0.4l0,0.3c0,0.8,0,3.9,0.1,14.6C56,73.7,66.1,74.1,67.6,74"/>
		<path class="st2" d="M72.8,74l23.4-0.1c0,0,0.1-3-1.5-6L72.8,74z"/>
		<path class="st2" d="M195,45l12.4-0.1c6.2,0,11.3-4.6,12.3-10.4l-25.4,0.1c-3.1,0-5.9,1.1-8,3L195,45z"/>
		<polygon class="st2" points="155.5,34.1 154,36.6 157.6,35.9 		"/>
		<path class="st2" d="M126,62.6c-5.9,0-9.8,0-12.2,0.1L99,66.8c2.8,7.6,10.9,7.1,10.9,7.1l0,0l23.4-9.6
			C131.6,63.3,129.2,62.6,126,62.6"/>
		<path class="st2" d="M133.6,64.3l-18,10.6l22.9-2.3C138.5,72.6,138.2,67.1,133.6,64.3"/>
		<path class="st2" d="M152.4,56.5l0-4.5l-11.8,3.3c0,1.9,0,4,0,6.1L152.4,56.5z"/>
		<path class="st2" d="M152.4,56.5l-11.8,5.5c0,4.2,0,8.4,0.1,11.6l11.8-0.1L152.4,56.5z"/>
		<path class="st2" d="M158.2,37.3l-5.7,0.8l1.8-3.4l-0.6-0.4l-0.7-0.3l-5.6,0.8l5.4-1.2l-0.6-0.4l0-0.1c0,0-0.1,0-0.1,0
			c-5.7,0.7-16.8,2-16.8,2l0.4,2.9c2.1,0,3.4,0.9,4.3,2l21-0.9L158.2,37.3z"/>
		<path class="st2" d="M204.1,62.9L188.2,63l2,5l-2.8-5l-8.6,0l0-5.3l-11.9-10.2l-5.9-5.1l-21.3-1.4c0.5,1.1,0.7,2.3,0.8,3.2l0,1.2
			c0,0,0,0.1,0,0.1l0,0l0,0.4l0,0.3c0,0.3,0,4,0,8.8l11.8-3.1l0-4.1l3.7,3.2l3.6-0.9l-3.5,1l10.8,9.3c0,0,0,9.5,0.1,13.3l3.6,0
			c0.5-1.6,2.1-6.9,2.1-6.9l-1.2,6.9l7.2,0l0-0.5c0.5,0.1,1,0.1,1.5,0.1c0.2,0,0.3,0.4,0.5,0.4l25.4-0.1L204.1,62.9z"/>
		<polygon class="st2" points="210.8,46.4 203.6,46.7 205.3,53.3 		"/>
		<path class="st2" d="M221.5,53.1C221.5,53.1,221.5,53.1,221.5,53.1c-1.9-3.2-5.3-5.6-9.3-6.1l-7.2,7.1l0.5,3.5
			c2.8,0.2,5,0.4,5,0.4c0.9,0.1,1.6,0.9,1.6,1.8c-0.1,0.9-0.9,1.6-1.8,1.6l-4.3-0.3l1.5,10.7l2.2,0.2c6.9,0.5,13-4.7,13.5-11.6
			C223.4,57.7,222.8,55.2,221.5,53.1"/>
		<path class="st2" d="M201.9,52.7l-0.9-4.3l-7.3,0c-0.9,0-1.7-0.8-1.7-1.7c0-0.9,0.7-1.7,1.7-1.7c-2.3-1.7-6.1-4.5-8.4-6.4
			c-1.6,1.7-2.8,3.9-3.2,6.3l-0.1,0c-0.1,0.7-0.2,1.4-0.2,2.2c0,2.7,0.9,5.1,2.3,7.2l0,0c0,0,0,0,0,0c0,0,0,0,0,0
			c2.3,3.2,6,5.3,10.1,5.4c0,0,0,0,0,0c0,0,0.9,0,2.2,0L201.9,52.7z"/>
		<path class="st2" d="M197.6,59.5c1.7,0,3.8,0,5.8,0l-1.2-5.7L197.6,59.5z"/>
	</g>
</g>
</svg>
