<?xml version="1.0" encoding="utf-8"?>
<!-- Generator: Adobe Illustrator 21.1.0, SVG Export Plug-In . SVG Version: 6.00 Build 0)  -->
<svg version="1.1" id="Layer_1" xmlns="http://www.w3.org/2000/svg" xmlns:xlink="http://www.w3.org/1999/xlink" x="0px" y="0px"
	 viewBox="0 0 262.8 181.7" style="enable-background:new 0 0 262.8 181.7;" xml:space="preserve">
<style type="text/css">
	.st0{fill:#F2CD18;}
</style>
<polygon class="st0" points="212.8,40.7 141.5,39.7 136.8,36.4 110.1,36.3 104.8,38.8 50.1,40 46.1,36.5 40.5,36.5 45.5,15 
	49.1,10.7 48.3,3.4 62.5,3.4 64.8,0.3 117.1,1.4 127.5,3.3 201.8,3.4 203.1,0 220,3.4 219.8,12.3 214.1,16.3 "/>
<polygon class="st0" points="252.3,181.7 147.9,180.7 141,177.4 102,177.3 94.2,179.8 14.1,181 8.3,177.5 0,177.5 7.3,156 
	12.7,151.7 11.5,144.4 32.2,144.4 35.6,141.3 73.7,141.9 74.2,144.8 112.2,142.4 127.4,144.3 159.5,144.4 162,142.1 183.2,144.4 
	193,144.4 236.2,144.4 238.2,141 262.8,144.4 262.6,153.3 254.3,157.3 "/>
<polygon class="st0" points="252.2,84.3 194.5,84.3 172.5,87 105.1,86.7 102.5,90 80.1,91.7 75.1,86.7 71.5,85.3 69.1,91 61.1,92.3 
	54.1,92 50.5,84.3 46.5,88.3 22.5,86.7 22.1,84.3 7.5,88.3 2.1,83.7 7.3,51.3 21.8,48 24.5,51.3 99.5,49.3 102.8,48 120.5,50.3 
	152.8,46.3 153.5,48.7 198.8,51.3 205.5,48.7 260,51.3 "/>
<polygon class="st0" points="217.2,130.8 205,132.7 199.5,131.5 164.5,133 156.7,130.8 125.8,132.7 117,130.8 115.5,132 66,131.7 
	60,130.8 55,132.5 40,130.8 38.1,129.5 41.1,122.8 44.1,103 46.5,99.3 58.1,98.7 63.1,96.7 84,97 84.5,98.5 130.5,97.7 130.6,95.7 
	181.1,96.5 183.1,97.5 191.5,95.8 192.8,94.3 197.1,91.2 197.6,89.2 209,89 214,90 215,93.5 216.8,97.3 224.1,102 221.4,113 
	217.6,120.8 218.9,123.5 "/>
<g>
	<path d="M65.9,11.8c-0.9,3.7-1.8,7-2.6,9.8c-0.9,2.8-1.9,5.2-3.1,7.1c-1.2,1.9-2.6,3.4-4.3,4.4c-1.7,1-3.8,1.6-6.4,1.8l-0.6-5.4
		c1.3-0.1,2.5-0.5,3.5-1.1c1-0.7,1.9-1.5,2.6-2.6c0.8-1.1,1.4-2.3,2-3.7c0.6-1.4,1.1-3,1.6-4.6c0.5-1.7,0.9-3.4,1.3-5.2
		c0.4-1.8,0.8-3.7,1.3-5.5h18.1l-6.6,27.7h-6.2l5.4-22.4H65.9z"/>
	<path d="M80.1,29.5c0.8,0,1.6-0.2,2.3-0.5c0.7-0.3,1.5-0.8,2.2-1.5l0.7-0.8c-0.6-1.6-1.1-3.3-1.6-5c-0.5-1.7-1-3.5-1.5-5.2
		c-0.5-1.8-0.9-3.5-1.2-5.2c-0.4-1.7-0.7-3.3-0.9-4.8H87c0.2,2.2,0.6,4.5,1,6.9s1,4.9,1.6,7.3c1.1-1.9,2.3-4,3.5-6.3
		c1.2-2.4,2.6-5,4.1-7.9h6.7c-2.4,4.4-4.8,8.4-7.1,12.2c-2.3,3.8-4.4,7.1-6.4,9.9c-1.4,1.9-2.9,3.4-4.6,4.5
		c-1.7,1.1-3.7,1.7-5.9,1.7c-1.6,0-3.2-0.3-4.8-1l2-4.9C78,29.3,79,29.5,80.1,29.5z"/>
	<path d="M107.8,14.7c-0.2,0.9-0.3,1.7-0.3,2.3c0,0.6,0.1,1.2,0.3,1.6c0.2,0.4,0.5,0.8,0.9,1c0.4,0.3,0.8,0.4,1.3,0.5
		c0.5,0.1,1,0.2,1.5,0.2c0.7,0,1.4-0.1,2.1-0.2c0.7-0.1,1.3-0.3,1.8-0.4l3.2-13.2h6.2l-6.7,27.7h-6.2l2.2-9.3
		c-1.4,0.4-2.9,0.6-4.4,0.6c-1.1,0-2.2-0.1-3.2-0.4c-1-0.3-1.9-0.7-2.7-1.3s-1.4-1.4-1.9-2.3c-0.5-1-0.7-2.1-0.7-3.5
		c0-1,0.2-2.2,0.5-3.6l1.9-7.9h6.2L107.8,14.7z"/>
	<path d="M128.2,6.6h6.2L129,29h7.2l5.4-22.4h6.2L142.5,29h7.2l5.4-22.4h6.2l-6.7,27.7h-33.2L128.2,6.6z"/>
	<path d="M176.5,34.3c-0.1-1-0.1-2.1-0.2-3.1c-0.1-1-0.1-2-0.2-3h-10.4c-0.5,1-1.1,2-1.7,3c-0.6,1-1.1,2-1.7,3.1h-6.5
		c1.7-3,3.4-5.7,4.9-8.3c1.5-2.5,3-4.9,4.4-7.2c1.4-2.2,2.8-4.4,4.1-6.4c1.3-2,2.7-4,4.1-5.9h5.6c0.4,1.9,0.8,4,1.2,6.4
		c0.4,2.3,0.7,4.7,1.1,7.2c0.3,2.4,0.6,4.9,0.9,7.3c0.3,2.4,0.5,4.7,0.8,6.9H176.5z M174.6,12.6c-1.1,1.8-2.2,3.6-3.3,5.3
		c-1.1,1.8-2.1,3.6-3.1,5.4h7.5c-0.1-1.6-0.3-3.4-0.4-5.2C175.1,16.3,174.9,14.5,174.6,12.6z"/>
	<path d="M187.9,16.9c0-2,0.4-3.7,1.2-5.1c0.8-1.4,1.9-2.5,3.2-3.3c1.3-0.8,2.8-1.4,4.6-1.7c1.7-0.3,3.5-0.5,5.3-0.5
		c1.6,0,3.1,0.1,4.4,0.2c1.3,0.2,2.6,0.4,3.9,0.6l-6.5,27.1h-6.2l2.4-10h-0.8c-0.3,0-0.8,0-1.2,0c-0.5,0-1,0-1.4-0.1
		c-1.1,1.2-2.4,2.7-3.8,4.5c-1.4,1.7-2.8,3.6-4.2,5.6h-6.6c0.7-1.1,1.5-2.2,2.3-3.3c0.8-1.1,1.6-2.1,2.4-3.1s1.6-1.9,2.3-2.8
		c0.7-0.8,1.4-1.6,2-2.2c-1.3-0.9-2.2-1.8-2.6-2.7C188.2,19.3,187.9,18.2,187.9,16.9z M203.1,11.7c-0.4-0.1-0.8-0.1-1.2-0.1
		c-0.4,0-0.8,0-1.2,0c-0.8,0-1.6,0.1-2.4,0.2c-0.8,0.1-1.4,0.4-2,0.7c-0.6,0.3-1.1,0.8-1.4,1.4c-0.3,0.6-0.5,1.3-0.5,2.2
		c0,0.9,0.3,1.6,0.9,2.2c0.6,0.6,1.7,0.8,3.3,0.8h2.6L203.1,11.7z"/>
	<path d="M35.5,53.6l-6.7,27.7h-6.2L28,58.8h-9.5L13,81.3H6.8l6.6-27.7H35.5z"/>
	<path d="M44.9,81.8c-1.6,0-3.1-0.3-4.5-0.8c-1.4-0.5-2.5-1.3-3.5-2.3c-1-1-1.8-2.2-2.3-3.7c-0.5-1.4-0.8-3.1-0.8-4.9
		c0-2.1,0.4-4.1,1.1-6.2c0.7-2.1,1.8-3.9,3.1-5.5c1.3-1.6,3-3,4.9-4c1.9-1,4.1-1.5,6.6-1.5c1.6,0,3.1,0.3,4.5,0.8
		c1.4,0.5,2.5,1.3,3.5,2.3s1.8,2.2,2.3,3.7c0.5,1.4,0.8,3.1,0.8,4.9c0,2.1-0.4,4.2-1.1,6.2c-0.7,2.1-1.7,3.9-3.1,5.6
		c-1.3,1.6-3,3-4.9,4C49.6,81.3,47.4,81.8,44.9,81.8z M48.9,58.3c-1.2,0-2.4,0.3-3.4,1c-1.1,0.6-2,1.5-2.8,2.6
		c-0.8,1.1-1.4,2.3-1.8,3.7c-0.4,1.4-0.7,2.8-0.7,4.3c0,2,0.4,3.6,1.3,4.9s2.2,1.9,4.1,1.9c1.2,0,2.4-0.3,3.4-1
		c1.1-0.6,2-1.5,2.8-2.6c0.8-1.1,1.4-2.3,1.8-3.7c0.4-1.4,0.7-2.8,0.7-4.3c0-2-0.4-3.6-1.3-4.9C52.1,58.9,50.8,58.3,48.9,58.3z"/>
	<path d="M58.2,76h3.6c1.2-1.1,2.3-2.5,3.2-4.1c0.9-1.6,1.7-3.2,2.4-5c0.7-1.7,1.3-3.5,1.8-5.3c0.5-1.8,0.9-3.4,1.3-4.9l0.7-3.2
		h18.1L83.9,76h4.8l-3,12.7h-6l1.8-7.4H63l-1.8,7.4h-6L58.2,76z M75.8,58.8c-0.5,1.8-0.9,3.5-1.3,5c-0.4,1.5-0.9,3-1.4,4.3
		s-1.1,2.7-1.7,4c-0.7,1.3-1.5,2.6-2.4,3.9h8.9L82,58.8H75.8z"/>
	<path d="M94.6,81.3h-6.2L95,53.6h17.3l-1.3,5.3H100L94.6,81.3z"/>
	<path d="M119.2,81.8c-1.6,0-3.1-0.3-4.5-0.8c-1.4-0.5-2.5-1.3-3.5-2.3c-1-1-1.8-2.2-2.3-3.7c-0.5-1.4-0.8-3.1-0.8-4.9
		c0-2.1,0.4-4.1,1.1-6.2c0.7-2.1,1.8-3.9,3.1-5.5c1.3-1.6,3-3,4.9-4c1.9-1,4.1-1.5,6.6-1.5c1.6,0,3.1,0.3,4.5,0.8
		c1.4,0.5,2.5,1.3,3.5,2.3s1.8,2.2,2.3,3.7c0.5,1.4,0.8,3.1,0.8,4.9c0,2.1-0.4,4.2-1.1,6.2c-0.7,2.1-1.7,3.9-3.1,5.6
		c-1.3,1.6-3,3-4.9,4C123.8,81.3,121.6,81.8,119.2,81.8z M123.1,58.3c-1.2,0-2.4,0.3-3.4,1c-1.1,0.6-2,1.5-2.8,2.6
		c-0.8,1.1-1.4,2.3-1.8,3.7c-0.4,1.4-0.7,2.8-0.7,4.3c0,2,0.4,3.6,1.3,4.9s2.2,1.9,4.1,1.9c1.2,0,2.4-0.3,3.4-1
		c1.1-0.6,2-1.5,2.8-2.6c0.8-1.1,1.4-2.3,1.8-3.7c0.4-1.4,0.7-2.8,0.7-4.3c0-2-0.4-3.6-1.3-4.9C126.4,58.9,125,58.3,123.1,58.3z"/>
	<path d="M158.6,53.6l-1.3,5.2h-8.1l-5.4,22.5h-6.2l5.4-22.5h-8.1l1.3-5.2H158.6z"/>
	<path d="M164.9,81.8c-1.6,0-3.1-0.3-4.5-0.8c-1.4-0.5-2.5-1.3-3.5-2.3c-1-1-1.8-2.2-2.3-3.7c-0.5-1.4-0.8-3.1-0.8-4.9
		c0-2.1,0.4-4.1,1.1-6.2c0.7-2.1,1.8-3.9,3.1-5.5c1.3-1.6,3-3,4.9-4c1.9-1,4.1-1.5,6.6-1.5c1.6,0,3.1,0.3,4.5,0.8s2.5,1.3,3.5,2.3
		s1.8,2.2,2.3,3.7c0.5,1.4,0.8,3.1,0.8,4.9c0,2.1-0.4,4.2-1.1,6.2c-0.7,2.1-1.7,3.9-3.1,5.6c-1.3,1.6-3,3-4.9,4
		S167.4,81.8,164.9,81.8z M168.8,58.3c-1.2,0-2.4,0.3-3.4,1c-1.1,0.6-2,1.5-2.8,2.6c-0.8,1.1-1.4,2.3-1.8,3.7
		c-0.4,1.4-0.7,2.8-0.7,4.3c0,2,0.4,3.6,1.3,4.9s2.2,1.9,4.1,1.9c1.2,0,2.4-0.3,3.4-1c1.1-0.6,2-1.5,2.8-2.6
		c0.8-1.1,1.4-2.3,1.8-3.7c0.4-1.4,0.7-2.8,0.7-4.3c0-2-0.4-3.6-1.3-4.9C172.1,58.9,170.7,58.3,168.8,58.3z"/>
	<path d="M188.4,81.6c-1.6,0-3.2-0.1-4.9-0.2c-1.7-0.1-3.2-0.3-4.6-0.6l6.4-26.8c1.5-0.3,3.1-0.5,4.8-0.6s3.2-0.2,4.6-0.2
		c1.6,0,3,0.2,4.1,0.5c1.2,0.3,2.1,0.8,2.8,1.3c0.7,0.6,1.3,1.2,1.6,2c0.4,0.8,0.5,1.6,0.5,2.4c0,0.6-0.1,1.2-0.2,1.8
		s-0.4,1.3-0.7,1.9c-0.4,0.6-0.9,1.2-1.5,1.8c-0.6,0.6-1.4,1.1-2.5,1.5c1.2,0.5,2.1,1.3,2.6,2.2c0.6,0.9,0.8,1.9,0.8,3.1
		c0,1.3-0.3,2.5-0.8,3.7c-0.5,1.2-1.3,2.2-2.4,3.2s-2.6,1.7-4.4,2.2C193.1,81.4,191,81.6,188.4,81.6z M187.8,69.2l-1.7,7.2
		c0.4,0.1,1,0.1,1.6,0.2c0.7,0,1.3,0.1,1.8,0.1c0.8,0,1.6-0.1,2.4-0.2c0.8-0.1,1.5-0.3,2.1-0.7c0.6-0.3,1.1-0.8,1.5-1.3
		c0.4-0.6,0.6-1.3,0.6-2.2c0-0.4-0.1-0.7-0.2-1.1c-0.1-0.4-0.4-0.7-0.7-1c-0.3-0.3-0.7-0.5-1.3-0.7c-0.5-0.2-1.1-0.3-1.9-0.3H187.8z
		 M189,64.5h3.9c1.6,0,2.8-0.3,3.6-1c0.8-0.7,1.2-1.5,1.2-2.5c0-0.5-0.1-0.9-0.3-1.3s-0.5-0.6-0.9-0.9c-0.4-0.2-0.8-0.4-1.3-0.5
		c-0.5-0.1-1-0.1-1.5-0.1c-0.6,0-1.2,0-1.8,0.1c-0.6,0-1.1,0.1-1.4,0.1L189,64.5z"/>
	<path d="M218.4,81.3c-0.4-0.9-0.8-1.9-1.3-2.9c-0.5-1-1.1-2.1-1.7-3.1s-1.3-2-2-3c-0.7-1-1.5-1.8-2.2-2.6l-2.8,11.6H202l6.6-27.7
		h6.2l-2.4,10c2.1-1.8,4-3.5,5.9-5.1c1.8-1.6,3.6-3.3,5.2-4.9h7.4c-2.4,2.3-4.8,4.5-7.2,6.7c-2.4,2.2-4.9,4.4-7.5,6.5
		c1.7,1.8,3.3,3.9,4.8,6.3c1.5,2.4,2.9,5.1,4.2,8.2H218.4z"/>
	<path d="M243.6,81.3c-0.1-1-0.1-2.1-0.2-3.1s-0.1-2-0.2-3h-10.4c-0.5,1-1.1,2-1.7,3s-1.1,2-1.7,3.1h-6.5c1.7-3,3.4-5.7,4.9-8.3
		c1.5-2.5,3-4.9,4.4-7.2c1.4-2.2,2.8-4.4,4.1-6.4c1.3-2,2.7-4,4.1-5.9h5.6c0.4,1.9,0.8,4,1.2,6.4c0.4,2.3,0.7,4.7,1.1,7.2
		c0.3,2.4,0.6,4.9,0.9,7.3c0.3,2.4,0.5,4.7,0.8,6.9H243.6z M241.8,59.6c-1.1,1.8-2.2,3.6-3.3,5.3c-1.1,1.8-2.1,3.6-3.1,5.4h7.5
		c-0.1-1.6-0.3-3.4-0.4-5.2C242.2,63.3,242,61.5,241.8,59.6z"/>
	<path d="M60.4,128.3c-0.4-0.9-0.8-1.9-1.3-2.9c-0.5-1-1.1-2.1-1.7-3.1c-0.6-1-1.3-2-2-3c-0.7-1-1.5-1.8-2.2-2.6l-2.8,11.6h-6.2
		l6.6-27.7H57l-2.4,10c2.1-1.8,4-3.5,5.9-5.1c1.8-1.6,3.6-3.3,5.2-4.9H73c-2.4,2.3-4.8,4.5-7.2,6.7c-2.4,2.2-4.9,4.4-7.5,6.5
		c1.7,1.8,3.3,3.9,4.8,6.3c1.5,2.4,2.9,5.1,4.2,8.2H60.4z"/>
	<path d="M89.4,105.8c-0.9,3.7-1.8,7-2.6,9.8c-0.9,2.8-1.9,5.2-3.1,7.1c-1.2,1.9-2.6,3.4-4.3,4.4c-1.7,1-3.8,1.6-6.4,1.8l-0.6-5.4
		c1.3-0.1,2.5-0.5,3.5-1.1s1.9-1.5,2.6-2.6s1.4-2.3,2-3.7c0.6-1.4,1.1-3,1.6-4.6c0.5-1.7,0.9-3.4,1.3-5.2c0.4-1.8,0.8-3.7,1.3-5.5
		h18.1l-6.6,27.7H90l5.4-22.4H89.4z"/>
	<path d="M124.8,128.8c-1.6,0-3.1-0.3-4.5-0.8c-1.4-0.5-2.5-1.3-3.5-2.3c-1-1-1.8-2.2-2.3-3.7c-0.5-1.4-0.8-3.1-0.8-4.9v-0.7h-5.4
		l-2.8,11.8h-6.2l6.6-27.7h6.2l-2.6,10.6h5.1c0.5-1.5,1.2-3,2.1-4.3c0.9-1.4,2-2.6,3.2-3.6s2.6-1.8,4.2-2.4s3.3-0.9,5.2-0.9
		c1.6,0,3.1,0.3,4.5,0.8c1.4,0.5,2.5,1.3,3.5,2.3c1,1,1.8,2.2,2.3,3.7c0.5,1.4,0.8,3.1,0.8,4.9c0,2.1-0.4,4.2-1.1,6.2
		s-1.7,3.9-3.1,5.6c-1.3,1.6-3,3-4.9,4C129.4,128.3,127.2,128.8,124.8,128.8z M128.7,105.3c-1.2,0-2.4,0.3-3.4,1
		c-1.1,0.6-2,1.5-2.8,2.6c-0.8,1.1-1.4,2.3-1.8,3.7c-0.4,1.4-0.7,2.8-0.7,4.3c0,2,0.4,3.6,1.3,4.9s2.2,1.9,4.1,1.9
		c1.2,0,2.4-0.3,3.4-1c1.1-0.6,2-1.5,2.8-2.6c0.8-1.1,1.4-2.3,1.8-3.7c0.4-1.4,0.7-2.8,0.7-4.3c0-2-0.4-3.6-1.3-4.9
		C132,105.9,130.6,105.3,128.7,105.3z"/>
	<path d="M150.3,105.8l-1.1,4.6h2c1.9,0,3.5,0.2,4.9,0.5c1.3,0.3,2.4,0.8,3.2,1.5c0.8,0.7,1.4,1.5,1.8,2.4c0.4,1,0.6,2.1,0.6,3.3
		c0,2-0.4,3.7-1.3,5c-0.8,1.3-1.9,2.4-3.3,3.2s-2.9,1.4-4.7,1.7c-1.7,0.3-3.5,0.5-5.3,0.5c-1.4,0-2.8-0.1-4.3-0.2
		c-1.5-0.2-2.8-0.4-3.9-0.7l6.5-27.1h17.9l-1.3,5.3H150.3z M146.2,123.2c0.3,0.1,0.7,0.1,1.1,0.1c0.4,0,0.8,0,1.3,0
		c1.3,0,2.4-0.1,3.3-0.4c0.9-0.3,1.5-0.6,2-1.1c0.5-0.4,0.8-0.9,1-1.5s0.3-1.1,0.3-1.6c0-0.5-0.1-0.9-0.2-1.3
		c-0.2-0.4-0.4-0.7-0.8-1c-0.4-0.3-0.9-0.5-1.5-0.7c-0.7-0.2-1.5-0.2-2.4-0.2H148L146.2,123.2z"/>
	<path d="M173.3,128.8c-1.6,0-3.1-0.3-4.5-0.8c-1.4-0.5-2.5-1.3-3.5-2.3c-1-1-1.8-2.2-2.3-3.7c-0.5-1.4-0.8-3.1-0.8-4.9
		c0-2.1,0.4-4.1,1.1-6.2c0.7-2.1,1.8-3.9,3.1-5.5c1.3-1.6,3-3,4.9-4c1.9-1,4.1-1.5,6.6-1.5c1.6,0,3.1,0.3,4.5,0.8s2.5,1.3,3.5,2.3
		s1.8,2.2,2.3,3.7c0.5,1.4,0.8,3.1,0.8,4.9c0,2.1-0.4,4.2-1.1,6.2c-0.7,2.1-1.7,3.9-3.1,5.6c-1.3,1.6-3,3-4.9,4
		C178,128.3,175.8,128.8,173.3,128.8z M177.3,105.3c-1.2,0-2.4,0.3-3.4,1c-1.1,0.6-2,1.5-2.8,2.6c-0.8,1.1-1.4,2.3-1.8,3.7
		c-0.4,1.4-0.7,2.8-0.7,4.3c0,2,0.4,3.6,1.3,4.9s2.2,1.9,4.1,1.9c1.2,0,2.4-0.3,3.4-1c1.1-0.6,2-1.5,2.8-2.6
		c0.8-1.1,1.4-2.3,1.8-3.7c0.4-1.4,0.7-2.8,0.7-4.3c0-2-0.4-3.6-1.3-4.9C180.5,105.9,179.2,105.3,177.3,105.3z"/>
	<path d="M187.4,128.3l6.6-27.7h6.2l-4,16.4c1.3-1.4,2.6-2.9,4-4.4c1.3-1.5,2.7-2.9,4-4.4c1.3-1.4,2.7-2.8,4-4.1s2.6-2.5,3.8-3.5
		h5.1l-6.7,27.7h-6.2l4.4-18.2c-1.5,1.6-3,3.2-4.4,4.7c-1.4,1.5-2.7,3-4,4.5c-1.3,1.5-2.6,2.9-3.8,4.4c-1.3,1.5-2.5,3-3.8,4.6H187.4
		z M206.1,98.1c-0.8,0-1.6-0.1-2.3-0.4c-0.7-0.3-1.3-0.6-1.8-1.1c-0.5-0.5-0.9-1.1-1.3-1.8c-0.3-0.7-0.5-1.5-0.5-2.4l4.2-1
		c0,1,0.3,1.7,0.7,2.1c0.5,0.4,1,0.6,1.7,0.6c0.7,0,1.3-0.2,1.9-0.6s1.1-1.1,1.5-2.2l3.8,1.3c-0.6,1.9-1.6,3.2-3,4.1
		C209.7,97.7,208,98.1,206.1,98.1z"/>
	<path d="M26.8,175.3c-0.1-1-0.1-2.1-0.2-3.1s-0.1-2-0.2-3H16c-0.5,1-1.1,2-1.7,3c-0.6,1-1.1,2-1.7,3.1H6.2c1.7-3,3.4-5.7,4.9-8.3
		c1.5-2.5,3-4.9,4.4-7.2c1.4-2.2,2.8-4.4,4.1-6.4c1.3-2,2.7-4,4.1-5.9h5.6c0.4,1.9,0.8,4,1.2,6.4c0.4,2.3,0.7,4.7,1.1,7.2
		c0.3,2.4,0.6,4.9,0.9,7.3c0.3,2.4,0.5,4.7,0.8,6.9H26.8z M25,153.6c-1.1,1.8-2.2,3.6-3.3,5.3c-1.1,1.8-2.1,3.6-3.1,5.4H26
		c-0.1-1.6-0.3-3.4-0.4-5.2S25.3,155.5,25,153.6z"/>
	<path d="M50.2,175.3c-0.4-0.9-0.8-1.9-1.3-2.9c-0.5-1-1.1-2.1-1.7-3.1c-0.6-1-1.3-2-2-3c-0.7-1-1.5-1.8-2.2-2.6l-2.8,11.6h-6.2
		l6.6-27.7h6.2l-2.4,10c2.1-1.8,4-3.5,5.9-5.1c1.8-1.6,3.6-3.3,5.2-4.9h7.4c-2.4,2.3-4.8,4.5-7.2,6.7c-2.4,2.2-4.9,4.4-7.5,6.5
		c1.7,1.8,3.3,3.9,4.8,6.3c1.5,2.4,2.9,5.1,4.2,8.2H50.2z"/>
	<path d="M84.4,147.6l-1.3,5.2H75l-5.4,22.5h-6.2l5.4-22.5h-8.1l1.3-5.2H84.4z"/>
	<path d="M78.4,175.3l6.6-27.7h6.2l-4,16.4c1.3-1.4,2.6-2.9,4-4.4s2.7-2.9,4-4.4c1.3-1.4,2.7-2.8,4-4.1s2.6-2.5,3.8-3.5h5.1
		l-6.7,27.7h-6.2l4.4-18.2c-1.5,1.6-3,3.2-4.4,4.7c-1.4,1.5-2.7,3-4,4.5c-1.3,1.5-2.6,2.9-3.8,4.4c-1.3,1.5-2.5,3-3.8,4.6H78.4z"/>
	<path d="M113.9,175.6c-1.6,0-3.2-0.1-4.9-0.2c-1.7-0.1-3.2-0.3-4.6-0.6l6.4-26.8c1.5-0.3,3.1-0.5,4.8-0.6c1.7-0.1,3.2-0.2,4.6-0.2
		c1.6,0,3,0.2,4.1,0.5c1.2,0.3,2.1,0.8,2.8,1.3c0.7,0.6,1.3,1.2,1.6,2c0.4,0.8,0.5,1.6,0.5,2.4c0,0.6-0.1,1.2-0.2,1.8
		s-0.4,1.3-0.7,1.9c-0.4,0.6-0.9,1.2-1.5,1.8c-0.6,0.6-1.4,1.1-2.5,1.5c1.2,0.5,2.1,1.3,2.6,2.2c0.6,0.9,0.8,1.9,0.8,3.1
		c0,1.3-0.3,2.5-0.8,3.7c-0.5,1.2-1.3,2.2-2.4,3.2s-2.6,1.7-4.4,2.2C118.6,175.4,116.5,175.6,113.9,175.6z M113.4,163.2l-1.7,7.2
		c0.4,0.1,1,0.1,1.6,0.2c0.7,0,1.3,0.1,1.8,0.1c0.8,0,1.6-0.1,2.4-0.2c0.8-0.1,1.5-0.3,2.1-0.7c0.6-0.3,1.1-0.8,1.5-1.3
		c0.4-0.6,0.6-1.3,0.6-2.2c0-0.4-0.1-0.7-0.2-1.1c-0.1-0.4-0.4-0.7-0.7-1c-0.3-0.3-0.7-0.5-1.3-0.7c-0.5-0.2-1.1-0.3-1.9-0.3H113.4z
		 M114.5,158.5h3.9c1.6,0,2.8-0.3,3.6-1c0.8-0.7,1.2-1.5,1.2-2.5c0-0.5-0.1-0.9-0.3-1.3s-0.5-0.6-0.9-0.9c-0.4-0.2-0.8-0.4-1.3-0.5
		c-0.5-0.1-1-0.1-1.5-0.1c-0.6,0-1.2,0-1.8,0.1c-0.6,0-1.1,0.1-1.4,0.1L114.5,158.5z"/>
	<path d="M150.3,147.6h6.2l-6.7,27.7h-6.2l2.8-11.8h-9.8l-2.8,11.8h-6.2l6.6-27.7h6.2l-2.6,10.6h9.8L150.3,147.6z"/>
	<path d="M166,175.8c-1.6,0-3.1-0.3-4.5-0.8c-1.4-0.5-2.5-1.3-3.5-2.3c-1-1-1.8-2.2-2.3-3.7c-0.5-1.4-0.8-3.1-0.8-4.9
		c0-2.1,0.4-4.1,1.1-6.2c0.7-2.1,1.8-3.9,3.1-5.5c1.3-1.6,3-3,4.9-4c1.9-1,4.1-1.5,6.6-1.5c1.6,0,3.1,0.3,4.5,0.8s2.5,1.3,3.5,2.3
		s1.8,2.2,2.3,3.7c0.5,1.4,0.8,3.1,0.8,4.9c0,2.1-0.4,4.2-1.1,6.2c-0.7,2.1-1.7,3.9-3.1,5.6c-1.3,1.6-3,3-4.9,4
		S168.4,175.8,166,175.8z M169.9,152.3c-1.2,0-2.4,0.3-3.4,1c-1.1,0.6-2,1.5-2.8,2.6c-0.8,1.1-1.4,2.3-1.8,3.7
		c-0.4,1.4-0.7,2.8-0.7,4.3c0,2,0.4,3.6,1.3,4.9s2.2,1.9,4.1,1.9c1.2,0,2.4-0.3,3.4-1c1.1-0.6,2-1.5,2.8-2.6
		c0.8-1.1,1.4-2.3,1.8-3.7c0.4-1.4,0.7-2.8,0.7-4.3c0-2-0.4-3.6-1.3-4.9C173.2,152.9,171.8,152.3,169.9,152.3z"/>
	<path d="M201.6,174.1c-1.1,0.5-2.3,1-3.6,1.3c-1.3,0.3-3,0.5-4.9,0.5c-1.7,0-3.2-0.3-4.5-0.8c-1.4-0.5-2.5-1.3-3.5-2.3
		c-1-1-1.7-2.2-2.3-3.7s-0.8-3.1-0.8-4.9c0-2.1,0.4-4.1,1.1-6.2c0.7-2.1,1.8-3.9,3.2-5.5c1.4-1.6,3.2-2.9,5.2-3.9s4.4-1.5,7.1-1.5
		c1.3,0,2.5,0.1,3.8,0.4c1.2,0.3,2.5,0.8,3.9,1.6l-2.2,4.8c-1.1-0.6-2.1-1-3-1.2s-1.8-0.3-2.8-0.3c-1.5,0-2.9,0.3-4.1,0.9
		c-1.2,0.6-2.3,1.4-3.1,2.5c-0.9,1.1-1.5,2.3-2,3.7c-0.5,1.4-0.7,2.9-0.7,4.4c0,2.3,0.5,4.1,1.5,5.1c1,1.1,2.5,1.6,4.4,1.6
		c1.3,0,2.5-0.1,3.5-0.4c1.1-0.3,2.1-0.6,3-1L201.6,174.1z"/>
	<path d="M228.9,147.6l-1.3,5.2h-8.1l-5.4,22.5h-6.2l5.4-22.5h-8.1l1.3-5.2H228.9z"/>
	<path d="M222.9,175.3l6.6-27.7h6.2l-4,16.4c1.3-1.4,2.6-2.9,4-4.4c1.3-1.5,2.7-2.9,4-4.4c1.3-1.4,2.7-2.8,4-4.1s2.6-2.5,3.8-3.5
		h5.1l-6.7,27.7h-6.2l4.4-18.2c-1.5,1.6-3,3.2-4.4,4.7c-1.4,1.5-2.7,3-4,4.5c-1.3,1.5-2.6,2.9-3.8,4.4c-1.3,1.5-2.5,3-3.8,4.6H222.9
		z"/>
</g>
</svg>
