<?xml version="1.0" encoding="utf-8"?>
<!-- Generator: Adobe Illustrator 21.1.0, SVG Export Plug-In . SVG Version: 6.00 Build 0)  -->
<svg version="1.1" id="Слой_1" xmlns="http://www.w3.org/2000/svg" xmlns:xlink="http://www.w3.org/1999/xlink" x="0px" y="0px"
	 viewBox="0 0 82 82" style="enable-background:new 0 0 82 82;" xml:space="preserve">
<style type="text/css">
	.st0{fill:#E63B23;}
</style>
<g id="XMLID_553_">
	<path id="XMLID_554_" class="st0" d="M41,82C18.4,82,0,63.6,0,41S18.4,0,41,0c22.6,0,41,18.4,41,41S63.6,82,41,82z M41,2
		C19.5,2,2,19.5,2,41s17.5,39,39,39c21.5,0,39-17.5,39-39S62.5,2,41,2z"/>
	<path id="XMLID_557_" class="st0" d="M59,31.8c-1.3,0.6-2.7,1-4.2,1.2c1.5-0.9,2.7-2.4,3.2-4.1c-1.4,0.8-3,1.5-4.7,1.8
		c-1.3-1.4-3.3-2.3-5.4-2.3c-4.1,0-7.4,3.3-7.4,7.4c0,0.6,0.1,1.1,0.2,1.7c-6.1-0.3-11.6-3.2-15.2-7.7c-0.6,1.1-1,2.4-1,3.7
		c0,2.6,1.3,4.8,3.3,6.1c-1.2,0-2.3-0.4-3.3-0.9v0.1c0,3.6,2.5,6.6,5.9,7.2c-0.6,0.2-1.3,0.3-1.9,0.3c-0.5,0-0.9,0-1.4-0.1
		c0.9,2.9,3.7,5.1,6.9,5.1c-2.5,2-5.7,3.2-9.2,3.2c-0.6,0-1.2,0-1.8-0.1c3.3,2.1,7.2,3.3,11.3,3.3c13.6,0,21-11.3,21-21
		c0-0.3,0-0.6,0-1C56.8,34.6,58,33.3,59,31.8"/>
</g>
</svg>
