<?xml version="1.0" encoding="utf-8"?>
<!-- Generator: Adobe Illustrator 21.1.0, SVG Export Plug-In . SVG Version: 6.00 Build 0)  -->
<svg version="1.1" id="Слой_1" xmlns="http://www.w3.org/2000/svg" xmlns:xlink="http://www.w3.org/1999/xlink" x="0px" y="0px"
	 viewBox="0 0 82 82" style="enable-background:new 0 0 82 82;" xml:space="preserve">
<style type="text/css">
	.st0{fill:#E63B23;}
</style>
<g>
	<g id="XMLID_5_">
		<path id="XMLID_6_" class="st0" d="M41,82C18.5,82,0,63.5,0,41S18.5,0,41,0s41,18.5,41,41S63.5,82,41,82z M41,2
			C19.5,2,2,19.5,2,41s17.4,38.9,39,38.9S79.9,62.5,79.9,41S62.5,2,41,2z"/>
	</g>
	<path id="XMLID_4_" class="st0" d="M33.6,32c0.4,0,1.4,0.2,2,1c0.6,1,0.6,3.1,0.6,3.1s0.4,5.7-1,6.6c-0.8,0.4-2.3-0.4-4.9-5.1
		c-1.4-2.3-2.5-4.9-2.5-4.9s-0.2-0.4-0.6-0.8c-0.4-0.4-1-0.4-1-0.4h-6.6c0,0-1,0-1.2,0.4c-0.4,0.4,0,1.2,0,1.2s5.1,11.7,10.9,17.4
		c5.3,5.3,11.3,4.9,11.3,4.9h2.7c0,0,0.8,0,1.2-0.6c0.4-0.4,0.4-1.2,0.4-1.2s0-3.5,1.6-4.1c1.6-0.6,3.7,3.5,6.2,4.9
		c1.6,1.2,3.1,0.8,3.1,0.8h5.9c0,0,3.1-0.2,1.6-2.7c-0.2-0.2-0.8-1.8-4.5-5.1c-3.7-3.5-3.3-2.9,1.2-8.8c2.9-3.7,3.9-5.9,3.5-6.8
		c-0.4-0.8-2.5-0.6-2.5-0.6h-6.8c0,0-0.4,0-0.8,0.2S52.9,32,52.9,32s-1,2.9-2.5,5.1c-3.1,5.1-4.3,5.3-4.7,4.9
		c-1.2-0.8-0.8-2.9-0.8-4.5c0-4.9,0.8-7-1.4-7.4c-0.8-0.2-1.2-0.2-3.1-0.4c-0.2,0-0.6,0-0.8,0c-2,0-3.7,0-4.7,0.6
		C33.8,31,33.2,31.8,33.6,32z"/>
</g>
</svg>
